<?xml version="1.0" encoding="UTF-8" standalone="no"?>
<svg
   xmlns:dc="http://purl.org/dc/elements/1.1/"
   xmlns:cc="http://creativecommons.org/ns#"
   xmlns:rdf="http://www.w3.org/1999/02/22-rdf-syntax-ns#"
   xmlns:svg="http://www.w3.org/2000/svg"
   xmlns="http://www.w3.org/2000/svg"
   xmlns:xlink="http://www.w3.org/1999/xlink"
   xmlns:sodipodi="http://sodipodi.sourceforge.net/DTD/sodipodi-0.dtd"
   xmlns:inkscape="http://www.inkscape.org/namespaces/inkscape"
   version="1.1"
   id="svg815"
   width="160"
   height="250"
   viewBox="0 0 160 250"
   sodipodi:docname="clubs03.svg"
   inkscape:version="0.92.5 (2060ec1f9f, 2020-04-08)">
  <sodipodi:namedview
     pagecolor="#ffffff"
     bordercolor="#666666"
     borderopacity="1"
     objecttolerance="10"
     gridtolerance="10"
     guidetolerance="10"
     inkscape:pageopacity="0"
     inkscape:pageshadow="2"
     inkscape:window-width="1918"
     inkscape:window-height="1017"
     id="namedview5011"
     showgrid="false"
     inkscape:zoom="53.667672"
     inkscape:cx="6.004837"
     inkscape:cy="243.28834"
     inkscape:window-x="0"
     inkscape:window-y="0"
     inkscape:window-maximized="1"
     inkscape:current-layer="svg815"
     inkscape:snap-page="true"
     inkscape:snap-global="true"
     inkscape:snap-bbox="false"
     inkscape:object-paths="true"
     inkscape:snap-intersection-paths="true" />
  <metadata
     id="metadata821">
    <rdf:RDF>
      <cc:Work
         rdf:about="">
        <dc:format>image/svg+xml</dc:format>
        <dc:type
           rdf:resource="http://purl.org/dc/dcmitype/StillImage" />
        <dc:title />
      </cc:Work>
    </rdf:RDF>
  </metadata>
  <defs
     id="defs819">
    <linearGradient
       gradientTransform="matrix(-0.11382866,-0.04897331,0.04897331,-0.11382866,11.360684,16.77034)"
       xlink:href="#linearGradient28"
       id="linearGradient30"
       x1="68.058258"
       y1="52.766853"
       x2="93.905167"
       y2="48.329338"
       gradientUnits="userSpaceOnUse" />
    <linearGradient
       id="linearGradient28">
      <stop
         style="stop-color:#d45500;stop-opacity:1;"
         offset="0"
         id="stop24" />
      <stop
         style="stop-color:#d45500;stop-opacity:0;"
         offset="1"
         id="stop26" />
    </linearGradient>
    <linearGradient
       xlink:href="#linearGradient28"
       id="linearGradient202"
       gradientUnits="userSpaceOnUse"
       gradientTransform="matrix(-0.10421379,0,0,-0.10421379,21.478984,12.331316)"
       x1="68.058258"
       y1="52.766853"
       x2="93.905167"
       y2="48.329338" />
    <linearGradient
       gradientTransform="matrix(0.09270834,0,0,0.10071509,9.635358,3.0600958)"
       xlink:href="#linearGradient28"
       id="linearGradient30-4"
       x1="68.058258"
       y1="52.766853"
       x2="93.905167"
       y2="48.329338"
       gradientUnits="userSpaceOnUse" />
    <linearGradient
       xlink:href="#linearGradient28"
       id="linearGradient367"
       gradientUnits="userSpaceOnUse"
       gradientTransform="matrix(0.0625,0,0,0.11444754,-1.93065,2.4469182)"
       x1="68.058258"
       y1="52.766853"
       x2="93.905167"
       y2="48.329338" />
    <linearGradient
       xlink:href="#linearGradient28"
       id="linearGradient349"
       gradientUnits="userSpaceOnUse"
       gradientTransform="matrix(-0.0625,0,0,-0.11444754,10.011146,13.081022)"
       x1="68.058258"
       y1="52.766853"
       x2="93.905167"
       y2="48.329338" />
    <linearGradient
       gradientTransform="matrix(0.0625,0,0,0.11444754,2.2549559,2.6203232)"
       xlink:href="#linearGradient28"
       id="linearGradient30-6"
       x1="68.058258"
       y1="52.766853"
       x2="93.905167"
       y2="48.329338"
       gradientUnits="userSpaceOnUse" />
    <linearGradient
       xlink:href="#linearGradient28"
       id="linearGradient554"
       gradientUnits="userSpaceOnUse"
       gradientTransform="matrix(-0.04739556,-0.02774335,0.02569172,-0.05118036,39.13871,8.9395546)"
       x1="68.058258"
       y1="52.766853"
       x2="93.905167"
       y2="48.329338" />
    <linearGradient
       xlink:href="#linearGradient28"
       id="linearGradient552"
       gradientUnits="userSpaceOnUse"
       gradientTransform="matrix(0.04739556,-0.02774335,-0.02569172,-0.05118036,30.774237,8.9206156)"
       x1="68.058258"
       y1="52.766853"
       x2="93.905167"
       y2="48.329338" />
    <linearGradient
       xlink:href="#linearGradient28"
       id="linearGradient518"
       gradientUnits="userSpaceOnUse"
       gradientTransform="matrix(-0.04739556,0.02774335,0.02569172,0.05118036,39.15765,6.5759136)"
       x1="68.058258"
       y1="52.766853"
       x2="93.905167"
       y2="48.329338" />
    <linearGradient
       gradientTransform="matrix(0.04739556,0.02774335,-0.02569172,0.05118036,30.793177,6.5948536)"
       xlink:href="#linearGradient28"
       id="linearGradient30-2"
       x1="68.058258"
       y1="52.766853"
       x2="93.905167"
       y2="48.329338"
       gradientUnits="userSpaceOnUse" />
    <linearGradient
       gradientTransform="matrix(-0.00182956,0.04406484,-0.05671844,-0.00142139,47.989828,4.511358)"
       xlink:href="#linearGradient28"
       id="linearGradient30-3"
       x1="68.058258"
       y1="52.766853"
       x2="93.905167"
       y2="48.329338"
       gradientUnits="userSpaceOnUse" />
    <linearGradient
       xlink:href="#linearGradient28"
       id="linearGradient1562"
       gradientUnits="userSpaceOnUse"
       gradientTransform="matrix(-0.0625,0,0,-0.0625,51.889458,7.060849)"
       x1="68.058258"
       y1="52.766853"
       x2="93.905167"
       y2="48.329338" />
    <linearGradient
       xlink:href="#linearGradient28"
       id="linearGradient1560"
       gradientUnits="userSpaceOnUse"
       gradientTransform="matrix(-0.0625,0,0,-0.0625,47.798548,7.004031)"
       x1="68.058258"
       y1="52.766853"
       x2="93.905167"
       y2="48.329338" />
    <linearGradient
       xlink:href="#linearGradient28"
       id="linearGradient1526"
       gradientUnits="userSpaceOnUse"
       gradientTransform="matrix(0.0625,0,0,0.0625,38.167361,8.526273)"
       x1="68.058258"
       y1="52.766853"
       x2="93.905167"
       y2="48.329338" />
    <linearGradient
       gradientTransform="matrix(0.0625,0,0,0.0625,42.25827,8.583091)"
       xlink:href="#linearGradient28"
       id="linearGradient30-9"
       x1="68.058258"
       y1="52.766853"
       x2="93.905167"
       y2="48.329338"
       gradientUnits="userSpaceOnUse" />
    <linearGradient
       xlink:href="#linearGradient28"
       id="linearGradient2120"
       gradientUnits="userSpaceOnUse"
       gradientTransform="matrix(-0.04785026,0,0,-0.05589801,61.027177,6.8616735)"
       x1="68.058258"
       y1="52.766853"
       x2="93.905167"
       y2="48.329338" />
    <linearGradient
       xlink:href="#linearGradient28"
       id="linearGradient2118"
       gradientUnits="userSpaceOnUse"
       gradientTransform="matrix(-0.04785026,0,0,-0.05589801,58.75445,6.8616735)"
       x1="68.058258"
       y1="52.766853"
       x2="93.905167"
       y2="48.329338" />
    <linearGradient
       xlink:href="#linearGradient28"
       id="linearGradient2116"
       gradientUnits="userSpaceOnUse"
       gradientTransform="matrix(-0.04785026,0,0,-0.05589801,56.405965,6.8616735)"
       x1="68.058258"
       y1="52.766853"
       x2="93.905167"
       y2="48.329338" />
    <linearGradient
       xlink:href="#linearGradient28"
       id="linearGradient2066"
       gradientUnits="userSpaceOnUse"
       gradientTransform="matrix(0.04785026,0,0,0.05589801,49.067214,8.5932485)"
       x1="68.058258"
       y1="52.766853"
       x2="93.905167"
       y2="48.329338" />
    <linearGradient
       xlink:href="#linearGradient28"
       id="linearGradient2048"
       gradientUnits="userSpaceOnUse"
       gradientTransform="matrix(0.04785026,0,0,0.05589801,51.339942,8.5932485)"
       x1="68.058258"
       y1="52.766853"
       x2="93.905167"
       y2="48.329338" />
    <linearGradient
       gradientTransform="matrix(0.04785026,0,0,0.05589801,53.688426,8.5932485)"
       xlink:href="#linearGradient28"
       id="linearGradient30-42"
       x1="68.058258"
       y1="52.766853"
       x2="93.905167"
       y2="48.329338"
       gradientUnits="userSpaceOnUse" />
    <linearGradient
       gradientTransform="matrix(-7.81785e-4,0.04887137,0.04887137,7.81785e-4,62.757095,3.8708137)"
       xlink:href="#linearGradient28"
       id="linearGradient30-7"
       x1="68.058258"
       y1="52.766853"
       x2="93.905167"
       y2="48.329338"
       gradientUnits="userSpaceOnUse" />
    <linearGradient
       xlink:href="#linearGradient28"
       id="linearGradient2120-2"
       gradientUnits="userSpaceOnUse"
       gradientTransform="matrix(-0.04785026,0,0,-0.05589801,71.02718,6.8616741)"
       x1="68.058258"
       y1="52.766853"
       x2="93.905167"
       y2="48.329338" />
    <linearGradient
       xlink:href="#linearGradient28"
       id="linearGradient2118-5"
       gradientUnits="userSpaceOnUse"
       gradientTransform="matrix(-0.04785026,0,0,-0.05589801,68.754453,6.8616741)"
       x1="68.058258"
       y1="52.766853"
       x2="93.905167"
       y2="48.329338" />
    <linearGradient
       xlink:href="#linearGradient28"
       id="linearGradient2116-4"
       gradientUnits="userSpaceOnUse"
       gradientTransform="matrix(-0.04785026,0,0,-0.05589801,66.405968,6.8616741)"
       x1="68.058258"
       y1="52.766853"
       x2="93.905167"
       y2="48.329338" />
    <linearGradient
       xlink:href="#linearGradient28"
       id="linearGradient2066-4"
       gradientUnits="userSpaceOnUse"
       gradientTransform="matrix(0.04785026,0,0,0.05589801,59.067217,8.593248)"
       x1="68.058258"
       y1="52.766853"
       x2="93.905167"
       y2="48.329338" />
    <linearGradient
       xlink:href="#linearGradient28"
       id="linearGradient2048-9"
       gradientUnits="userSpaceOnUse"
       gradientTransform="matrix(0.04785026,0,0,0.05589801,61.339944,8.593248)"
       x1="68.058258"
       y1="52.766853"
       x2="93.905167"
       y2="48.329338" />
    <linearGradient
       gradientTransform="matrix(0.04785026,0,0,0.05589801,63.688429,8.593248)"
       xlink:href="#linearGradient28"
       id="linearGradient30-93"
       x1="68.058258"
       y1="52.766853"
       x2="93.905167"
       y2="48.329338"
       gradientUnits="userSpaceOnUse" />
    <linearGradient
       xlink:href="#linearGradient28"
       id="linearGradient2337"
       gradientUnits="userSpaceOnUse"
       gradientTransform="matrix(-0.0417883,0,0,-0.04857198,75.583944,6.4314344)"
       x1="68.058258"
       y1="52.766853"
       x2="93.905167"
       y2="48.329338" />
    <linearGradient
       xlink:href="#linearGradient28"
       id="linearGradient2335"
       gradientUnits="userSpaceOnUse"
       gradientTransform="matrix(0.0417883,0,0,0.04857198,70.628178,2.0064654)"
       x1="68.058258"
       y1="52.766853"
       x2="93.905167"
       y2="48.329338" />
    <linearGradient
       xlink:href="#linearGradient28"
       id="linearGradient2333"
       gradientUnits="userSpaceOnUse"
       gradientTransform="matrix(-0.0417883,0,0,-0.04857198,79.296068,6.4974754)"
       x1="68.058258"
       y1="52.766853"
       x2="93.905167"
       y2="48.329338" />
    <linearGradient
       xlink:href="#linearGradient28"
       id="linearGradient2331"
       gradientUnits="userSpaceOnUse"
       gradientTransform="matrix(0.0417883,0,0,0.04857198,74.340299,2.0725074)"
       x1="68.058258"
       y1="52.766853"
       x2="93.905167"
       y2="48.329338" />
    <linearGradient
       xlink:href="#linearGradient28"
       id="linearGradient2265"
       gradientUnits="userSpaceOnUse"
       gradientTransform="matrix(-0.0417883,0,0,-0.04857198,75.640764,13.685222)"
       x1="68.058258"
       y1="52.766853"
       x2="93.905167"
       y2="48.329338" />
    <linearGradient
       xlink:href="#linearGradient28"
       id="linearGradient2263"
       gradientUnits="userSpaceOnUse"
       gradientTransform="matrix(0.0417883,0,0,0.04857198,70.684995,9.2602534)"
       x1="68.058258"
       y1="52.766853"
       x2="93.905167"
       y2="48.329338" />
    <linearGradient
       xlink:href="#linearGradient28"
       id="linearGradient2229"
       gradientUnits="userSpaceOnUse"
       gradientTransform="matrix(-0.0417883,0,0,-0.04857198,79.352887,13.751263)"
       x1="68.058258"
       y1="52.766853"
       x2="93.905167"
       y2="48.329338" />
    <linearGradient
       gradientTransform="matrix(0.0417883,0,0,0.04857198,74.397116,9.3262944)"
       xlink:href="#linearGradient28"
       id="linearGradient30-5"
       x1="68.058258"
       y1="52.766853"
       x2="93.905167"
       y2="48.329338"
       gradientUnits="userSpaceOnUse" />
    <linearGradient
       gradientTransform="matrix(0,0.0625,-0.070221,0,88.204672,3.0537241)"
       xlink:href="#linearGradient28"
       id="linearGradient30-7-7"
       x1="68.058258"
       y1="52.766853"
       x2="93.905167"
       y2="48.329338"
       gradientUnits="userSpaceOnUse" />
    <linearGradient
       xlink:href="#linearGradient28"
       id="linearGradient2337-9"
       gradientUnits="userSpaceOnUse"
       gradientTransform="matrix(-0.0417883,0,0,-0.04857198,85.583944,6.4314336)"
       x1="68.058258"
       y1="52.766853"
       x2="93.905167"
       y2="48.329338" />
    <linearGradient
       xlink:href="#linearGradient28"
       id="linearGradient2335-2"
       gradientUnits="userSpaceOnUse"
       gradientTransform="matrix(0.0417883,0,0,0.04857198,80.628177,2.0064647)"
       x1="68.058258"
       y1="52.766853"
       x2="93.905167"
       y2="48.329338" />
    <linearGradient
       xlink:href="#linearGradient28"
       id="linearGradient2333-8"
       gradientUnits="userSpaceOnUse"
       gradientTransform="matrix(-0.0417883,0,0,-0.04857198,89.296066,6.4974746)"
       x1="68.058258"
       y1="52.766853"
       x2="93.905167"
       y2="48.329338" />
    <linearGradient
       xlink:href="#linearGradient28"
       id="linearGradient2331-3"
       gradientUnits="userSpaceOnUse"
       gradientTransform="matrix(0.0417883,0,0,0.04857198,84.340298,2.0725065)"
       x1="68.058258"
       y1="52.766853"
       x2="93.905167"
       y2="48.329338" />
    <linearGradient
       xlink:href="#linearGradient28"
       id="linearGradient2265-0"
       gradientUnits="userSpaceOnUse"
       gradientTransform="matrix(-0.0417883,0,0,-0.04857198,85.640762,13.685222)"
       x1="68.058258"
       y1="52.766853"
       x2="93.905167"
       y2="48.329338" />
    <linearGradient
       xlink:href="#linearGradient28"
       id="linearGradient2263-1"
       gradientUnits="userSpaceOnUse"
       gradientTransform="matrix(0.0417883,0,0,0.04857198,80.684995,9.2602526)"
       x1="68.058258"
       y1="52.766853"
       x2="93.905167"
       y2="48.329338" />
    <linearGradient
       xlink:href="#linearGradient28"
       id="linearGradient2229-7"
       gradientUnits="userSpaceOnUse"
       gradientTransform="matrix(-0.0417883,0,0,-0.04857198,89.352884,13.751263)"
       x1="68.058258"
       y1="52.766853"
       x2="93.905167"
       y2="48.329338" />
    <linearGradient
       gradientTransform="matrix(0.0417883,0,0,0.04857198,84.397116,9.3262946)"
       xlink:href="#linearGradient28"
       id="linearGradient30-8"
       x1="68.058258"
       y1="52.766853"
       x2="93.905167"
       y2="48.329338"
       gradientUnits="userSpaceOnUse" />
    <linearGradient
       gradientUnits="userSpaceOnUse"
       y2="48.329338"
       x2="93.905167"
       y1="52.766853"
       x1="68.058258"
       id="linearGradient30-37"
       xlink:href="#linearGradient28"
       gradientTransform="matrix(-0.02567333,-0.01104562,0.01104562,-0.02567333,98.847603,4.8327149)" />
    <linearGradient
       gradientUnits="userSpaceOnUse"
       y2="71.008263"
       x2="88.849586"
       y1="58.644627"
       x1="82.105782"
       id="linearGradient1063"
       xlink:href="#linearGradient882"
       gradientTransform="matrix(0.0625,0,0,0.0625,89.999998,-1.2353516e-7)" />
    <linearGradient
       id="linearGradient882">
      <stop
         style="stop-color:#d16208;stop-opacity:1"
         offset="0"
         id="stop878" />
      <stop
         style="stop-color:#d16250;stop-opacity:0;"
         offset="1"
         id="stop880" />
    </linearGradient>
    <linearGradient
       gradientUnits="userSpaceOnUse"
       y2="68.472336"
       x2="56.128345"
       y1="63.697319"
       x1="61.166279"
       id="linearGradient876"
       xlink:href="#linearGradient882"
       gradientTransform="matrix(0.0625,0,0,0.0625,89.999998,-1.2353516e-7)" />
    <linearGradient
       gradientUnits="userSpaceOnUse"
       y2="48.329338"
       x2="93.905167"
       y1="52.766853"
       x1="68.058258"
       id="linearGradient30-0"
       xlink:href="#linearGradient28"
       gradientTransform="matrix(-0.02881053,-0.01239536,0.01239536,-0.02881053,108.70072,5.4503207)" />
    <linearGradient
       gradientUnits="userSpaceOnUse"
       y2="48.329338"
       x2="93.905167"
       y1="52.766853"
       x1="68.058258"
       id="linearGradient30-80"
       xlink:href="#linearGradient28"
       gradientTransform="matrix(-0.02849684,-0.0122604,0.0122604,-0.02849684,118.86314,5.4302307)" />
    <linearGradient
       xlink:href="#linearGradient846"
       id="linearGradient848"
       x1="72.37397"
       y1="53.171356"
       x2="72.19931"
       y2="45.564011"
       gradientUnits="userSpaceOnUse"
       gradientTransform="matrix(0.0625,0,0,0.0625,110,-2.6464844e-7)" />
    <linearGradient
       id="linearGradient846">
      <stop
         style="stop-color:#423abf;stop-opacity:1;"
         offset="0"
         id="stop842" />
      <stop
         style="stop-color:#423abf;stop-opacity:0;"
         offset="1"
         id="stop844" />
    </linearGradient>
  </defs>
  <flowRoot
     style="font-style:normal;font-variant:normal;font-weight:bold;font-stretch:normal;font-size:1px;line-height:1.25;font-family:'DejaVu Sans';-inkscape-font-specification:'DejaVu Sans Bold';letter-spacing:0px;word-spacing:0px;fill:#000000;fill-opacity:1;stroke:none;stroke-width:0.0625"
     id="flowRoot100"
     xml:space="preserve"><flowRegion
       style="stroke-width:0.0625"
       id="flowRegion102"><rect
         style="stroke-width:0.00390625"
         y="0.73863637"
         x="0.66287881"
         height="1.3636364"
         width="1.5151515"
         id="rect104" /></flowRegion><flowPara
       style="stroke-width:0.0625"
       id="flowPara106" /></flowRoot>  <rect
     y="0.032025754"
     x="-0.003312987"
     height="15.625"
     width="10"
     id="clubs03"
     style="fill:#ffffff;fill-opacity:1;stroke:#1a1a1a;stroke-width:0.0625;stroke-opacity:1" />
  <rect
     y="1.3388438"
     x="1.341385"
     height="12.973484"
     width="7.2537889"
     id="rect108-0"
     style="fill:none;fill-opacity:1;stroke:#1a1a1a;stroke-width:0.0625;stroke-opacity:1" />
  <g
     id="flowRoot915-0"
     style="font-style:normal;font-variant:normal;font-weight:bold;font-stretch:normal;font-size:16px;line-height:1.25;font-family:'DejaVu Sans';-inkscape-font-specification:'DejaVu Sans Bold';text-align:start;letter-spacing:0px;word-spacing:0px;text-anchor:start;fill:#000000;fill-opacity:1;stroke:none"
     transform="matrix(0.0625,0,0,0.0625,0.18608098,0.03202629)"
     aria-label="3">
    <path
       id="path3389"
       d="m 10.484375,12.412109 q 1.179688,0.304688 1.789063,1.0625 0.617187,0.75 0.617187,1.914063 0,1.734375 -1.328125,2.640625 -1.328125,0.898437 -3.875,0.898437 -0.8984375,0 -1.8046875,-0.148437 -0.8984375,-0.140625 -1.78125,-0.429688 v -2.320312 q 0.84375,0.421875 1.671875,0.640625 0.8359375,0.210937 1.640625,0.210937 1.1953125,0 1.828125,-0.414062 0.640625,-0.414063 0.640625,-1.1875 0,-0.796875 -0.65625,-1.203125 -0.6484375,-0.414063 -1.921875,-0.414063 h -1.203125 v -1.9375 h 1.265625 q 1.1328125,0 1.6875,-0.351562 0.5546875,-0.359375 0.5546875,-1.085938 0,-0.6718746 -0.5390625,-1.0390621 Q 8.53125,8.8808594 7.546875,8.8808594 q -0.7265625,0 -1.46875,0.1640625 -0.7421875,0.1640625 -1.4765625,0.484375 v -2.203125 q 0.890625,-0.25 1.765625,-0.375 0.875,-0.125 1.71875,-0.125 2.2734375,0 3.3984375,0.75 1.132813,0.7421875 1.132813,2.2421875 0,1.0234376 -0.539063,1.6796876 -0.539062,0.648437 -1.59375,0.914062 z"
       inkscape:connector-curvature="0" />
  </g>
  <path
     style="fill:#ffff00;stroke:#000000;stroke-width:0.08457524px;stroke-linecap:butt;stroke-linejoin:miter;stroke-opacity:1"
     d="m 7.7982619,3.5520522 -0.234151,0.651088 0.01328,0.278342 -0.130025,0.54973 0.209359,0.617797 0.151555,0.160227 0.104904,0.216628 0.007,0.298165 -0.160377,0.279765 -0.124102,0.02738 0.107356,0.483525 0.132804,0.219697 0.07655,0.398101 0.02868,0.321054 -0.09665,0.214985 -0.08293,0.308788 0.0241,0.289787 0.05368,0.2417632 0.186931,0.2769197 0.01495,0.227251 -0.05167,0.2096742 -0.0933,0.112805 -0.08538,0.04189 0.187709,0.5949057 0.1227561,0.526238 -0.08795,0.46206 -0.1375,0.436104 -0.107028,0.019 L 7.682163,12.38929 7.47681,12.674366 7.281057,12.83744 7.149478,12.75119 6.921698,12.69539 6.58064,12.67841 6.364134,12.449515 6.151426,11.9339 6.00657,11.56931 5.93124,11.304658 5.88303,10.725084 5.89765,10.449809 6.000551,10.215 6.282906,10.14348 6.552762,10.11161 6.534462,9.9865403 6.462482,9.6197061 l 0.075,-0.237875 0.158253,-0.04414 0.202781,0.135092 -0.08905,-0.3584547 -0.08158,-0.2448312 -0.03325,-0.352322 0.0413,-0.405657 -0.0083,-0.431614 0.01797,-0.377457 0.02255,-0.346189 -0.108254,-0.114447 -0.129903,-0.137338 -0.02578,-0.238696 0.0375,-0.118938 0.07667,-0.288964 0.07623,-0.104427 -0.0241,-0.289787 -0.02075,-0.391968 -0.027,-0.372146 0.05212,-0.394212 0.115849,-0.458993 0.09208,-0.246253 0.0375,-0.118938 0.02712,-0.314921 -7.75e-4,-0.317988 0.138277,-0.118116 0.122428,0.02371 0.173205,0.183116 0.18403,0.194561 z"
     id="path2551-4"
     inkscape:connector-curvature="0" />
  <path
     style="fill:#ffff00;stroke:#000000;stroke-width:0.08457524px;stroke-linecap:butt;stroke-linejoin:miter;stroke-opacity:1"
     d="m 7.8508569,9.9774153 -0.09976,-0.04414 -0.05026,-0.09287 -0.04232,-0.1639232 0.0042,-0.127982 0.03131,-0.09931 0.07347,-0.187158 0.04048,-0.03665 0.07136,-0.116511"
     id="path2553-6"
     inkscape:connector-curvature="0" />
  <path
     style="fill:none;stroke:#000000;stroke-width:0.08457524px;stroke-linecap:butt;stroke-linejoin:miter;stroke-opacity:1"
     d="m 6.8985579,9.4728031 0.0149,0.250244 -0.0073,0.1379132 c 0,0 0.0083,0.0097 -0.01944,0.06167 -0.02299,0.04305 -0.09535,0.1877377 -0.09535,0.1877377 l -0.10495,0.0347 -0.133589,-0.03345"
     id="path2555-2"
     inkscape:connector-curvature="0" />
  <path
     style="fill:none;stroke:#000000;stroke-width:0.08457524px;stroke-linecap:butt;stroke-linejoin:miter;stroke-opacity:1"
     d="m 6.7682379,6.9562782 0.127984,-0.04547 0.06011,-0.121837 0.0378,-0.21163 -0.0044,-0.123785 -0.06111,-0.104334 -0.105953,-0.191466 -0.07822,-0.09594 -0.04978,-0.10835"
     id="path2557-6"
     inkscape:connector-curvature="0" />
  <path
     style="fill:none;stroke:#000000;stroke-width:0.08457524px;stroke-linecap:butt;stroke-linejoin:miter;stroke-opacity:1"
     d="m 7.6357299,6.6311742 -0.106456,-0.03098 -0.06256,-0.145595 -0.03461,-0.142523 0.04009,-0.195965 0.03215,-0.124909 0.03757,-0.119177 0.04361,-0.04658 0.10495,-0.0347 0.117796,0.0185"
     id="path2559-7"
     inkscape:connector-curvature="0" />
  <path
     style="fill:none;stroke:#000000;stroke-width:0.08457524px;stroke-linecap:butt;stroke-linejoin:miter;stroke-opacity:1"
     d="m 7.7982619,3.5520522 -0.146222,0.158816 -0.104335,0.101563 -0.144593,0.04576 -0.13352,-0.03523 -0.11244,-0.07915 -0.110762,-0.130342 -0.09887,-0.247223"
     id="path2561-5"
     inkscape:connector-curvature="0" />
  <path
     style="fill:#008000;fill-opacity:1;stroke:none;stroke-width:0.00747547;stroke-opacity:0.02617804"
     d="m 7.6759559,3.7793402 c -0.0045,0.014 -0.03927,0.110818 -0.07725,0.215213 l -0.06907,0.1898 0.0022,0.04901 c 0.0012,0.02695 0.0041,0.09175 0.0066,0.143984 l 0.0044,0.09498 -0.06479,0.27336 c -0.03564,0.150348 -0.06533,0.278579 -0.06599,0.284958 -0.0021,0.02063 0.222429,0.671981 0.23715,0.687881 0.01324,0.0143 0.01199,0.01557 -0.03536,0.03562 -0.027,0.01143 -0.06099,0.03367 -0.07554,0.04941 -0.02607,0.02821 -0.0269,0.03023 -0.05841,0.142666 -0.01758,0.06273 -0.04378,0.171383 -0.05823,0.241452 l -0.02627,0.127397 0.01965,0.0812 c 0.011,0.04547 0.03632,0.121005 0.05755,0.171671 l 0.03791,0.09047 0.05048,0.01412 0.05048,0.01412 0.05114,0.231804 0.05114,0.231802 0.06597,0.107905 0.06597,0.107906 0.03708,0.193547 c 0.03996,0.208626 0.06737,0.449456 0.05543,0.487014 -0.0035,0.01115 -0.02335,0.05759 -0.04401,0.103203 -0.03397,0.07501 -0.04182,0.09881 -0.08204,0.248883 -0.02852,0.106377 -0.04404,0.174127 -0.04325,0.188734 0.0083,0.154493 0.02715,0.314847 0.04726,0.4025412 0.01262,0.05504 0.02056,0.103618 0.01763,0.107953 -0.0029,0.0043 -0.01343,0.02219 -0.02336,0.03966 -0.0099,0.01748 -0.02875,0.04149 -0.04182,0.05336 -0.01996,0.01812 -0.02979,0.03691 -0.06122,0.1170147 -0.06577,0.167654 -0.07666,0.208987 -0.07985,0.303086 -0.0025,0.07462 -6.75e-4,0.09004 0.02069,0.1725632 0.01691,0.06532 0.03208,0.106761 0.05431,0.148439 l 0.03084,0.05782 0.0473,0.02006 0.0473,0.02006 0.09101,0.287779 c 0.07268,0.229836 0.102157,0.335457 0.146388,0.524575 0.03046,0.130237 0.05629,0.241913 0.0574,0.248172 0.0011,0.0063 -0.01696,0.11127 -0.04015,0.23336 -0.04204,0.221326 -0.04235,0.222568 -0.104385,0.419023 l -0.0622,0.197056 -0.04162,0.0061 c -0.02289,0.0033 -0.04667,0.0072 -0.05283,0.0086 -0.0089,0.0021 -0.02648,0.04178 -0.0853,0.192671 l -0.07409,0.190078 -0.101675,0.141995 c -0.09456,0.132058 -0.107798,0.14708 -0.189188,0.214654 -0.04813,0.03996 -0.08997,0.07292 -0.09297,0.07323 -0.003,3.12e-4 -0.03093,-0.01673 -0.06207,-0.03789 -0.08388,-0.05698 -0.242633,-0.09341 -0.454358,-0.104256 l -0.167016,-0.0085 -0.10572,-0.11177 -0.10572,-0.11177 -0.105831,-0.257052 C 6.0848419,11.667888 6.0376369,11.54471 6.0001969,11.412234 l -0.03574,-0.12645 -0.02357,-0.284017 c -0.02127,-0.256311 -0.0229,-0.296003 -0.0167,-0.406851 l 0.0069,-0.122834 0.04372,-0.09963 c 0.02405,-0.0548 0.04598,-0.100375 0.04874,-0.101283 0.07551,-0.02481 0.292275,-0.06926 0.395929,-0.08119 0.107016,-0.01232 0.150738,-0.012 0.201432,0.0014 0.05479,0.01455 0.07424,0.01401 0.126459,-0.0035 0.06107,-0.02049 0.06197,-0.02123 0.08743,-0.07188 0.01414,-0.02815 0.0433,-0.08614 0.06478,-0.1288697 l 0.03907,-0.07769 0.0046,-0.09223 c 0.0025,-0.05073 0.0028,-0.1217502 5e-4,-0.1578272 -0.0052,-0.08321 -0.0039,-0.09743 0.008,-0.08986 0.01372,0.0087 -0.105213,-0.4630887 -0.15299,-0.6068869 -0.03872,-0.116547 -0.03877,-0.116792 -0.05416,-0.283429 l -0.01541,-0.166781 0.02028,-0.194517 c 0.01911,-0.183359 0.02004,-0.207 0.0162,-0.412178 -0.004,-0.212165 0.0028,-0.427485 0.02363,-0.748681 l 0.0096,-0.147583 0.03716,-0.01301 c 0.0785,-0.02749 0.07987,-0.02876 0.117731,-0.109407 l 0.03482,-0.07416 0.02014,-0.116225 c 0.01667,-0.09621 0.01969,-0.12925 0.01755,-0.19188 l -0.0026,-0.07566 -0.09486,-0.166431 c -0.05217,-0.09154 -0.110629,-0.185996 -0.129908,-0.20991 -0.05837,-0.0724 -0.06983,-0.106019 -0.08168,-0.239574 -0.0056,-0.06363 -0.01531,-0.210388 -0.02148,-0.326128 -0.0062,-0.11574 -0.01736,-0.294842 -0.02487,-0.398006 l -0.01365,-0.187572 0.02461,-0.186297 c 0.02359,-0.178505 0.02695,-0.195556 0.08037,-0.407686 0.05065,-0.201088 0.06059,-0.234493 0.108392,-0.364316 0.07624,-0.207039 0.08068,-0.22307 0.08912,-0.321613 0.0041,-0.04734 0.0085,-0.08661 0.01,-0.08726 0.0014,-6.89e-4 0.01282,0.02559 0.0253,0.05833 0.02022,0.05303 0.02927,0.06735 0.08297,0.131363 0.08389,0.09999 0.154913,0.149861 0.25229,0.177149 0.06605,0.01851 0.07869,0.01817 0.149973,-0.004 0.06883,-0.02143 0.08461,-0.03087 0.136302,-0.08149 0.06999,-0.06855 0.06971,-0.06838 0.05938,-0.03631 z"
     id="path2563-6"
     inkscape:connector-curvature="0" />
  <path
     id="path2581-9"
     d="m 7.6189309,3.8192452 c -0.100462,0.09947 -0.230654,0.120052 -0.365194,0.05774 -0.087,-0.04029 -0.222608,-0.182957 -0.257424,-0.270811 -0.01287,-0.03248 -0.0237,-0.05795 -0.02406,-0.05661 -3.75e-4,0.0013 -0.0055,0.04199 -0.01138,0.09032 -0.0095,0.07817 -0.01892,0.112081 -0.08495,0.307086 -0.100013,0.29536 -0.152676,0.506731 -0.187965,0.754416 l -0.02716,0.190621 0.02637,0.41667 c 0.03082,0.487069 0.04041,0.594344 0.05743,0.642988 0.0069,0.01969 0.03365,0.06593 0.05947,0.102756 0.02582,0.03683 0.08699,0.136303 0.135943,0.221058 l 0.089,0.154101 -1.87e-4,0.083 c -1.88e-4,0.08963 -0.02305,0.249332 -0.0451,0.315063 -0.0313,0.09331 -0.07181,0.146284 -0.128539,0.168102 l -0.05421,0.02085 -0.01237,0.213715 c -0.01586,0.273879 -0.02144,0.462905 -0.01923,0.650925 0.0024,0.208857 -3.75e-4,0.277205 -0.0186,0.452005 -0.0087,0.08384 -0.01534,0.171245 -0.01466,0.194244 0.0031,0.104057 0.02707,0.303614 0.04264,0.354968 0.03853,0.1271062 0.13943,0.5018319 0.15707,0.5833469 0.0104,0.04804 0.01642,0.09524 0.01338,0.104881 -0.003,0.0096 -0.0043,0.06112 -0.0029,0.114394 0.0014,0.05327 10e-4,0.1263642 -9.81e-4,0.1624222 l -0.0036,0.06556 -0.06242,0.1234357 -0.06242,0.123435 -0.05796,0.02511 c -0.04043,0.01752 -0.08376,0.02109 -0.143243,0.01181 -0.04691,-0.0073 -0.139225,-0.0064 -0.205153,0.0021 -0.127889,0.01645 -0.35925,0.06454 -0.380803,0.07915 -0.0071,0.0048 -0.03187,0.05268 -0.05494,0.106306 l -0.04194,0.0975 -0.0045,0.129183 c -0.0027,0.07909 0.0037,0.233365 0.01667,0.397891 0.02847,0.361987 0.04261,0.41027 0.313621,1.070391 l 0.124356,0.302907 0.108563,0.114774 0.108563,0.114776 0.08976,0.0039 c 0.24979,0.01085 0.413619,0.04403 0.517953,0.1049 0.03524,0.02056 0.07024,0.03546 0.07776,0.03311 0.04328,-0.01353 0.190988,-0.166636 0.278726,-0.288912 0.09396,-0.130948 0.09724,-0.137089 0.166942,-0.313003 0.0391,-0.09869 0.07479,-0.184909 0.0793,-0.1916 0.0045,-0.0067 0.02896,-0.01503 0.05434,-0.01853 l 0.04613,-0.0064 0.0645,-0.204567 c 0.05652,-0.179247 0.0695,-0.231239 0.10494,-0.420058 l 0.04044,-0.215492 -0.04784,-0.203074 c -0.05701,-0.241985 -0.08386,-0.338396 -0.176257,-0.632886 l -0.0699,-0.222789 -0.04824,-0.02088 c -0.04599,-0.0199 -0.04956,-0.02357 -0.07646,-0.07838 -0.01552,-0.03162 -0.03922,-0.09484 -0.05267,-0.140487 -0.02,-0.06787 -0.02408,-0.1013512 -0.02239,-0.1837532 l 0.0021,-0.100765 0.04526,-0.125128 c 0.0485,-0.134088 0.05729,-0.1516837 0.117972,-0.2361297 l 0.03938,-0.05481 -0.02584,-0.1556747 c -0.01421,-0.08562 -0.02918,-0.201669 -0.03326,-0.257886 -0.0065,-0.08979 -0.0048,-0.1138 0.01424,-0.197535 0.02931,-0.128936 0.07284,-0.26584 0.116638,-0.366796 0.03609,-0.08321 0.03629,-0.08411 0.03192,-0.149163 -0.0073,-0.108 -0.03119,-0.276332 -0.06305,-0.443369 l -0.03006,-0.157612 -0.0658,-0.107183 -0.0658,-0.107181 -0.04797,-0.218977 c -0.02638,-0.120437 -0.05045,-0.224912 -0.05349,-0.232166 -0.003,-0.0073 -0.02455,-0.01839 -0.04782,-0.02475 -0.02326,-0.0064 -0.04728,-0.01682 -0.05336,-0.02325 -0.01523,-0.0161 -0.09457,-0.236682 -0.106339,-0.295639 -0.0083,-0.04182 -0.0061,-0.06412 0.0169,-0.171529 0.04378,-0.204008 0.08535,-0.35258 0.105215,-0.376073 0.0096,-0.01138 0.04165,-0.03322 0.07118,-0.04855 0.02954,-0.01533 0.05286,-0.03077 0.05183,-0.03431 -10e-4,-0.0035 -0.03274,-0.09162 -0.07047,-0.195726 -0.05479,-0.151201 -0.164903,-0.476542 -0.16825,-0.497117 -3.75e-4,-0.0024 0.02873,-0.129466 0.06471,-0.282376 l 0.06542,-0.27802 -0.0062,-0.146746 -0.0061,-0.146745 0.06071,-0.16492 c 0.03339,-0.09071 0.0652,-0.183096 0.0707,-0.205311 0.0099,-0.04002 0.0095,-0.03995 -0.03859,0.0077 z"
     style="fill:url(#linearGradient30-6);fill-opacity:1;fill-rule:nonzero;stroke:#000000;stroke-width:0.0103675;stroke-miterlimit:4;stroke-dasharray:0.01036749, 0.02073499;stroke-dashoffset:0;stroke-opacity:0.96254536"
     inkscape:connector-curvature="0" />
  <path
     id="path333"
     d="m 4.4678389,12.149296 0.234151,-0.651088 -0.01328,-0.278342 0.130025,-0.54973 -0.209359,-0.617797 -0.151555,-0.1602247 -0.104904,-0.2166302 -0.007,-0.298165 0.160376,-0.2797647 0.124102,-0.02738 -0.107356,-0.4835252 -0.132804,-0.219696 -0.07655,-0.398101 -0.02868,-0.321054 0.09665,-0.214985 0.08293,-0.308789 -0.0241,-0.289787 -0.05368,-0.241764 -0.186931,-0.276918 -0.01495,-0.227252 0.05168,-0.209673 0.0933,-0.112804 0.08538,-0.04189 -0.187709,-0.594907 -0.122756,-0.526239 0.08795,-0.46206 0.1375,-0.436103 0.107027,-0.019 0.14665,-0.373568 0.205353,-0.285077 0.195753,-0.163074 0.131579,0.08625 0.22778,0.0558 0.341058,0.01698 0.216506,0.228895 0.212708,0.515616 0.144856,0.364589 0.07533,0.264653 0.04821,0.579574 -0.01462,0.275275 -0.102901,0.234809 -0.282355,0.07152 -0.269856,0.03187 0.0183,0.12507 0.07198,0.366835 -0.075,0.237874 -0.158253,0.04414 -0.202781,-0.135093 0.08905,0.358456 0.08158,0.24483 0.03325,0.352322 -0.0413,0.405658 0.0083,0.431613 -0.01797,0.377457 -0.02255,0.346189 0.108254,0.114448 0.129903,0.1373372 0.02578,0.238696 -0.0375,0.1189367 -0.07667,0.288965 -0.07623,0.1044282 0.0241,0.2897857 0.02075,0.391968 0.027,0.372145 -0.05212,0.394213 -0.115849,0.458993 -0.09208,0.246253 -0.0375,0.118937 -0.02712,0.314922 7.75e-4,0.317988 -0.138277,0.118116 -0.122428,-0.02371 -0.173205,-0.183117 -0.18403,-0.19456 z"
     style="fill:#ffff00;stroke:#000000;stroke-width:0.08457524px;stroke-linecap:butt;stroke-linejoin:miter;stroke-opacity:1"
     inkscape:connector-curvature="0" />
  <path
     id="path335"
     d="m 4.4152439,5.7239342 0.09976,0.04414 0.05026,0.09287 0.04232,0.163922 -0.0042,0.127982 -0.03131,0.09931 -0.07347,0.187159 -0.04048,0.03665 -0.07136,0.11651"
     style="fill:#ffff00;stroke:#000000;stroke-width:0.08457524px;stroke-linecap:butt;stroke-linejoin:miter;stroke-opacity:1"
     inkscape:connector-curvature="0" />
  <path
     id="path337"
     d="m 5.3675429,6.2285452 -0.0149,-0.250243 0.0073,-0.137914 c 0,0 -0.0083,-0.0097 0.01944,-0.06167 0.02299,-0.04305 0.09535,-0.187739 0.09535,-0.187739 l 0.10495,-0.03471 0.133589,0.03345"
     style="fill:none;stroke:#000000;stroke-width:0.08457524px;stroke-linecap:butt;stroke-linejoin:miter;stroke-opacity:1"
     inkscape:connector-curvature="0" />
  <path
     id="path339"
     d="m 5.4978629,8.7450702 -0.127984,0.04547 -0.06011,0.121837 -0.0378,0.2116302 0.0044,0.1237847 0.06111,0.104334 0.105953,0.191467 0.07822,0.09594 0.04978,0.1083502"
     style="fill:none;stroke:#000000;stroke-width:0.08457524px;stroke-linecap:butt;stroke-linejoin:miter;stroke-opacity:1"
     inkscape:connector-curvature="0" />
  <path
     id="path341"
     d="m 4.6303709,9.0701744 0.106456,0.03098 0.06256,0.1455967 0.03461,0.142522 -0.04009,0.195966 -0.03215,0.12491 -0.03757,0.1191762 -0.04361,0.04658 -0.10495,0.0347 -0.117796,-0.0185"
     style="fill:none;stroke:#000000;stroke-width:0.08457524px;stroke-linecap:butt;stroke-linejoin:miter;stroke-opacity:1"
     inkscape:connector-curvature="0" />
  <path
     id="path343"
     d="m 4.4678389,12.149296 0.146222,-0.158816 0.104335,-0.101564 0.144593,-0.04576 0.13352,0.03523 0.11244,0.07915 0.110762,0.130342 0.09887,0.247223"
     style="fill:none;stroke:#000000;stroke-width:0.08457524px;stroke-linecap:butt;stroke-linejoin:miter;stroke-opacity:1"
     inkscape:connector-curvature="0" />
  <path
     id="path345"
     d="m 4.5901449,11.922008 c 0.0045,-0.014 0.03927,-0.110818 0.07725,-0.215212 l 0.06907,-0.189801 -0.0022,-0.04901 c -0.0012,-0.02695 -0.0041,-0.09175 -0.0066,-0.143985 l -0.0044,-0.09497 0.06479,-0.273361 c 0.03564,-0.150347 0.06533,-0.278578 0.06599,-0.284957 0.0021,-0.02063 -0.222429,-0.6719787 -0.23715,-0.6878797 -0.01324,-0.0143 -0.01199,-0.01557 0.03536,-0.03562 0.027,-0.01143 0.06099,-0.03367 0.07554,-0.04941 0.02607,-0.02821 0.0269,-0.03023 0.05841,-0.142665 0.01758,-0.06273 0.04378,-0.1713842 0.05823,-0.2414542 l 0.02627,-0.127397 -0.01965,-0.0812 c -0.011,-0.04547 -0.03632,-0.1210027 -0.05755,-0.1716687 l -0.03791,-0.09047 -0.05048,-0.01412 -0.05048,-0.01412 -0.05114,-0.2318042 -0.05114,-0.231801 -0.06597,-0.107906 -0.06597,-0.107906 -0.03708,-0.193548 c -0.03996,-0.208625 -0.06737,-0.449455 -0.05543,-0.487013 0.0035,-0.01115 0.02335,-0.05759 0.04401,-0.103202 0.03397,-0.07501 0.04181,-0.09881 0.08204,-0.248884 0.02852,-0.106377 0.04404,-0.174126 0.04325,-0.188733 -0.0083,-0.154495 -0.02715,-0.314848 -0.04726,-0.402542 -0.01262,-0.05504 -0.02055,-0.103618 -0.01763,-0.107953 0.0029,-0.0043 0.01343,-0.02219 0.02336,-0.03966 0.0099,-0.01748 0.02875,-0.04149 0.04182,-0.05336 0.01996,-0.01812 0.02979,-0.03691 0.06122,-0.117015 0.06577,-0.167654 0.07666,-0.208987 0.07985,-0.303086 0.0025,-0.07462 6.75e-4,-0.09004 -0.02069,-0.172562 -0.01691,-0.06532 -0.03208,-0.106761 -0.05431,-0.148439 l -0.03084,-0.05782 -0.0473,-0.02006 -0.0473,-0.02006 -0.09101,-0.28778 c -0.07268,-0.229836 -0.102157,-0.335457 -0.146389,-0.524575 -0.03046,-0.130237 -0.05629,-0.241914 -0.0574,-0.248172 -0.0011,-0.0063 0.01695,-0.11127 0.04015,-0.233361 0.04204,-0.221325 0.04235,-0.222567 0.104385,-0.419023 l 0.0622,-0.197056 0.04162,-0.0061 c 0.02289,-0.0033 0.04667,-0.0072 0.05283,-0.0086 0.0089,-0.0021 0.02648,-0.04178 0.0853,-0.192671 l 0.07409,-0.190078 0.101675,-0.141995 c 0.09456,-0.132058 0.107798,-0.14708 0.189188,-0.214654 0.04813,-0.03996 0.08997,-0.07292 0.09297,-0.07323 0.003,-3.38e-4 0.03093,0.01673 0.06207,0.03789 0.08388,0.05698 0.242633,0.09341 0.454358,0.104255 l 0.167016,0.0086 0.10572,0.111769 0.10572,0.111771 0.105831,0.257052 c 0.192729,0.468123 0.239934,0.5913 0.277374,0.723776 l 0.03574,0.126451 0.02357,0.284017 c 0.02127,0.256311 0.0229,0.296003 0.0167,0.406852 l -0.0069,0.122834 -0.04372,0.09963 c -0.02405,0.0548 -0.04598,0.100375 -0.04874,0.101283 -0.07551,0.02481 -0.292275,0.06926 -0.395929,0.08119 -0.107016,0.01232 -0.150738,0.012 -0.201432,-0.0015 -0.05479,-0.01455 -0.07424,-0.014 -0.126459,0.0035 -0.06107,0.02049 -0.06197,0.02123 -0.08743,0.07188 -0.01414,0.02815 -0.0433,0.08614 -0.06478,0.128871 l -0.03907,0.07769 -0.0046,0.09223 c -0.0025,0.05073 -0.0028,0.121749 -5e-4,0.157825 0.0052,0.08321 0.0039,0.09743 -0.008,0.08986 -0.01372,-0.0087 0.105213,0.463089 0.15299,0.606888 0.03872,0.116546 0.03877,0.116792 0.05416,0.283428 l 0.01541,0.166781 -0.02027,0.194517 c -0.01911,0.18336 -0.02004,0.207001 -0.0162,0.412178 0.004,0.212166 -0.0028,0.427486 -0.02363,0.748682 l -0.0096,0.147582 -0.03716,0.01301 c -0.0785,0.02749 -0.07987,0.02876 -0.117731,0.109407 l -0.03482,0.07416 -0.02014,0.1162252 c -0.01667,0.09621 -0.01969,0.12925 -0.01755,0.19188 l 0.0026,0.07566 0.09486,0.16643 c 0.05217,0.09154 0.110629,0.185997 0.129908,0.209911 0.05837,0.0724 0.06983,0.1060189 0.08168,0.2395749 0.0056,0.06363 0.01531,0.2103857 0.02148,0.3261257 0.0062,0.11574 0.01736,0.294842 0.02487,0.398006 l 0.01365,0.187572 -0.02461,0.186298 c -0.02359,0.178504 -0.02695,0.195555 -0.08037,0.407684 -0.05065,0.20109 -0.06059,0.234495 -0.108392,0.364317 -0.07624,0.207039 -0.08068,0.22307 -0.08912,0.321614 -0.004,0.04734 -0.0085,0.08661 -0.01,0.08726 -0.0014,6.5e-4 -0.01282,-0.02559 -0.0253,-0.05833 -0.02022,-0.05303 -0.02927,-0.06735 -0.08297,-0.131362 -0.08389,-0.09999 -0.154913,-0.149861 -0.25229,-0.17715 -0.06605,-0.01851 -0.07869,-0.01817 -0.149973,0.004 -0.06883,0.02143 -0.08461,0.03087 -0.136302,0.08149 -0.06999,0.06855 -0.06971,0.06838 -0.05938,0.03631 z"
     style="fill:#008000;fill-opacity:1;stroke:none;stroke-width:0.00747547;stroke-opacity:0.02617804"
     inkscape:connector-curvature="0" />
  <path
     style="fill:url(#linearGradient349);fill-opacity:1;fill-rule:nonzero;stroke:#000000;stroke-width:0.0103675;stroke-miterlimit:4;stroke-dasharray:0.01036749, 0.02073499;stroke-dashoffset:0;stroke-opacity:0.96254536"
     d="m 4.6471699,11.882103 c 0.100462,-0.09947 0.230654,-0.120053 0.365194,-0.05774 0.087,0.04029 0.222608,0.182957 0.257424,0.270812 0.01287,0.03248 0.0237,0.05795 0.02406,0.05661 3.75e-4,-0.0013 0.0055,-0.04199 0.01138,-0.09032 0.0095,-0.07817 0.01892,-0.112081 0.08495,-0.307086 0.100013,-0.29536 0.152676,-0.506732 0.187965,-0.754416 l 0.02716,-0.190621 -0.02637,-0.41667 c -0.03082,-0.4870687 -0.04041,-0.5943427 -0.05743,-0.6429867 -0.0069,-0.01969 -0.03365,-0.06593 -0.05947,-0.1027562 -0.02582,-0.03683 -0.08699,-0.136304 -0.135943,-0.221059 l -0.089,-0.154101 1.87e-4,-0.083 c 1.88e-4,-0.08963 0.02305,-0.2493322 0.0451,-0.3150632 0.0313,-0.09331 0.07181,-0.146285 0.128539,-0.168104 l 0.05421,-0.02085 0.01237,-0.213715 c 0.01586,-0.27388 0.02144,-0.462905 0.01923,-0.650925 -0.0024,-0.208857 3.75e-4,-0.277205 0.0186,-0.452006 0.0087,-0.08383 0.01534,-0.171244 0.01466,-0.194243 -0.0031,-0.104057 -0.02707,-0.303614 -0.04264,-0.354969 -0.03853,-0.127105 -0.13943,-0.501831 -0.15707,-0.583345 -0.0104,-0.04804 -0.01642,-0.09524 -0.01338,-0.104882 0.003,-0.0096 0.0043,-0.06112 0.0029,-0.114393 -0.0014,-0.05327 -0.001,-0.126364 9.81e-4,-0.162423 l 0.0036,-0.06556 0.06242,-0.123436 0.06242,-0.123435 0.05796,-0.02511 c 0.04043,-0.01752 0.08376,-0.02109 0.143243,-0.01181 0.04691,0.0073 0.139225,0.0064 0.205153,-0.0021 0.127889,-0.01645 0.35925,-0.06454 0.380803,-0.07915 0.0071,-0.0048 0.03187,-0.05268 0.05494,-0.106306 l 0.04194,-0.0975 0.0045,-0.129182 c 0.0027,-0.0791 -0.0037,-0.233366 -0.01667,-0.397892 -0.02847,-0.361988 -0.04261,-0.41027 -0.313621,-1.070392 l -0.124356,-0.302906 -0.108563,-0.114775 -0.108563,-0.114775 -0.08976,-0.0039 c -0.24979,-0.01085 -0.413619,-0.04403 -0.517953,-0.104899 -0.03524,-0.02056 -0.07024,-0.03547 -0.07776,-0.03311 -0.04328,0.01353 -0.190988,0.166637 -0.278726,0.288913 -0.09396,0.130947 -0.09724,0.137089 -0.166942,0.313002 -0.0391,0.09869 -0.07479,0.18491 -0.0793,0.191602 -0.0045,0.0067 -0.02896,0.01503 -0.05434,0.01853 l -0.04613,0.0064 -0.0645,0.204567 c -0.05652,0.179248 -0.0695,0.231239 -0.10494,0.420058 l -0.04044,0.215492 0.04784,0.203075 c 0.05701,0.241985 0.08386,0.338397 0.176257,0.632886 l 0.0699,0.222789 0.04824,0.02088 c 0.04599,0.01991 0.04956,0.02357 0.07646,0.07838 0.01552,0.03163 0.03922,0.09484 0.05267,0.140487 0.02,0.06787 0.02408,0.10135 0.02239,0.183752 l -0.0021,0.100765 -0.04526,0.125129 c -0.0485,0.134088 -0.05729,0.151683 -0.117972,0.236129 l -0.03938,0.05481 0.02584,0.155674 c 0.01421,0.08562 0.02918,0.201669 0.03326,0.257887 0.0065,0.08979 0.0048,0.1138 -0.01424,0.197534 -0.02931,0.128937 -0.07285,0.265841 -0.116638,0.366796 -0.03609,0.08321 -0.03629,0.08412 -0.03192,0.149163 0.0073,0.108001 0.03119,0.276333 0.06305,0.44337 l 0.03006,0.157611 0.0658,0.107182 0.0658,0.107182 0.04797,0.218977 c 0.02638,0.120438 0.05045,0.2249132 0.05349,0.2321662 0.003,0.0073 0.02455,0.01839 0.04782,0.02475 0.02326,0.0064 0.04728,0.01682 0.05336,0.02325 0.01523,0.01611 0.09457,0.2366817 0.106339,0.2956397 0.0083,0.04182 0.0061,0.06412 -0.0169,0.171528 -0.04378,0.204009 -0.08535,0.3525815 -0.105215,0.3760755 -0.0096,0.01138 -0.04165,0.03322 -0.07118,0.04855 -0.02954,0.01533 -0.05286,0.03077 -0.05183,0.03431 0.001,0.0035 0.03274,0.09162 0.07047,0.1957257 0.05479,0.1512 0.164903,0.476541 0.16825,0.497116 3.75e-4,0.0024 -0.02873,0.129467 -0.06471,0.282377 l -0.06542,0.278018 0.0062,0.146747 0.0061,0.146745 -0.06071,0.16492 c -0.03339,0.09071 -0.0652,0.183096 -0.0707,0.205312 -0.0099,0.04002 -0.0095,0.03995 0.03859,-0.0077 z"
     id="path347"
     inkscape:connector-curvature="0" />
  <path
     style="fill:#ffff00;stroke:#000000;stroke-width:0.08457524px;stroke-linecap:butt;stroke-linejoin:miter;stroke-opacity:1"
     d="m 3.6126559,3.3786462 -0.23415,0.651089 0.01328,0.278342 -0.130024,0.54973 0.209358,0.617797 0.151555,0.160226 0.104904,0.216629 0.007,0.298164 -0.160376,0.279766 -0.124103,0.02738 0.107356,0.483525 0.132804,0.219696 0.07655,0.398101 0.02868,0.321055 -0.09665,0.214985 -0.08293,0.308788 0.0241,0.289787 0.05368,0.241763 0.186931,0.2769192 0.01495,0.2272517 -0.05167,0.209673 -0.0933,0.1128052 -0.08538,0.04189 0.187709,0.5949057 0.122756,0.526238 -0.08795,0.46206 -0.1375,0.436104 -0.107028,0.019 -0.14665,0.373568 -0.205353,0.285077 -0.195753,0.163074 -0.131578,-0.08625 -0.22778,-0.0558 -0.341059,-0.01698 -0.216506,-0.228895 -0.212709,-0.515616 -0.144855,-0.364589 -0.07533,-0.264652 -0.0482,-0.579574 0.01462,-0.275275 0.1029,-0.234809 0.282356,-0.07152 0.269856,-0.03187 -0.0183,-0.125072 -0.07198,-0.3668342 0.075,-0.2378747 0.158253,-0.04414 0.20278,0.1350927 -0.08905,-0.3584544 -0.08158,-0.244831 -0.03325,-0.352322 0.0413,-0.405657 -0.0083,-0.431614 0.01797,-0.377457 0.02255,-0.346189 -0.108253,-0.114448 -0.129904,-0.137337 -0.02578,-0.238696 0.0375,-0.118938 0.07667,-0.288965 0.07623,-0.104426 -0.0241,-0.289787 -0.02075,-0.391968 -0.027,-0.372146 0.05212,-0.394212 0.115849,-0.458993 0.09208,-0.246254 0.0375,-0.118937 0.02712,-0.314922 -7.75e-4,-0.317988 0.138278,-0.118115 0.122427,0.02371 0.173205,0.183116 0.184031,0.194561 z"
     id="path351"
     inkscape:connector-curvature="0" />
  <path
     style="fill:#ffff00;stroke:#000000;stroke-width:0.08457524px;stroke-linecap:butt;stroke-linejoin:miter;stroke-opacity:1"
     d="m 3.6652509,9.8040103 -0.09976,-0.04413 -0.05027,-0.09287 -0.04232,-0.163922 0.0042,-0.127982 0.03131,-0.09931 0.07347,-0.1871584 0.04048,-0.03665 0.07136,-0.1165102"
     id="path353"
     inkscape:connector-curvature="0" />
  <path
     style="fill:none;stroke:#000000;stroke-width:0.08457524px;stroke-linecap:butt;stroke-linejoin:miter;stroke-opacity:1"
     d="m 2.7129519,9.2993981 0.0149,0.250243 -0.0073,0.137915 c 0,0 0.0083,0.0097 -0.01944,0.06167 -0.02299,0.04305 -0.09535,0.187739 -0.09535,0.187739 l -0.10495,0.03471 -0.13359,-0.03345"
     id="path355"
     inkscape:connector-curvature="0" />
  <path
     style="fill:none;stroke:#000000;stroke-width:0.08457524px;stroke-linecap:butt;stroke-linejoin:miter;stroke-opacity:1"
     d="m 2.5826319,6.7828732 0.127984,-0.04547 0.06011,-0.121838 0.0378,-0.211629 -0.0044,-0.123785 -0.06111,-0.104334 -0.105954,-0.191466 -0.07822,-0.09594 -0.04978,-0.10835"
     id="path357"
     inkscape:connector-curvature="0" />
  <path
     style="fill:none;stroke:#000000;stroke-width:0.08457524px;stroke-linecap:butt;stroke-linejoin:miter;stroke-opacity:1"
     d="m 3.4501239,6.4577692 -0.106455,-0.03098 -0.06256,-0.145595 -0.03461,-0.142523 0.04009,-0.195965 0.03215,-0.12491 0.03757,-0.119176 0.04361,-0.04658 0.10495,-0.0347 0.117795,0.0185"
     id="path359"
     inkscape:connector-curvature="0" />
  <path
     style="fill:none;stroke:#000000;stroke-width:0.08457524px;stroke-linecap:butt;stroke-linejoin:miter;stroke-opacity:1"
     d="m 3.6126559,3.3786462 -0.146222,0.158817 -0.104335,0.101563 -0.144592,0.04576 -0.13352,-0.03523 -0.11244,-0.07915 -0.110763,-0.130342 -0.09887,-0.247224"
     id="path361"
     inkscape:connector-curvature="0" />
  <path
     style="fill:#008000;fill-opacity:1;stroke:none;stroke-width:0.00747547;stroke-opacity:0.02617804"
     d="m 3.4903509,3.6059342 c -0.0045,0.014 -0.03927,0.110819 -0.07725,0.215213 l -0.06907,0.1898 0.0022,0.04901 c 0.0012,0.02695 0.0041,0.09175 0.0066,0.143984 l 0.0044,0.09498 -0.06479,0.273361 c -0.03564,0.150347 -0.06533,0.278579 -0.06599,0.284958 -0.0021,0.02063 0.222428,0.67198 0.23715,0.687881 0.01324,0.0143 0.01199,0.01557 -0.03536,0.03562 -0.027,0.01143 -0.06099,0.03367 -0.07554,0.04941 -0.02607,0.02821 -0.0269,0.03023 -0.0584,0.142666 -0.01758,0.06273 -0.04378,0.171382 -0.05823,0.241452 l -0.02627,0.127397 0.01965,0.0812 c 0.011,0.04547 0.03632,0.121005 0.05755,0.17167 l 0.03791,0.09048 0.05048,0.01412 0.05048,0.01412 0.05113,0.231803 0.05114,0.231802 0.06597,0.107906 0.06597,0.107906 0.03708,0.193547 c 0.03996,0.208626 0.06737,0.449456 0.05543,0.487014 -0.0035,0.01115 -0.02335,0.05759 -0.04401,0.103203 -0.03397,0.07501 -0.04181,0.09881 -0.08204,0.248883 -0.02852,0.106377 -0.04404,0.174126 -0.04325,0.188734 0.0083,0.154493 0.02715,0.314847 0.04726,0.402541 0.01262,0.05504 0.02056,0.103617 0.01763,0.107953 -0.0029,0.0043 -0.01343,0.02218 -0.02336,0.03966 -0.0099,0.01748 -0.02875,0.04149 -0.04182,0.05336 -0.01996,0.01812 -0.02979,0.03691 -0.06122,0.117015 -0.06577,0.1676539 -0.07666,0.2089869 -0.07985,0.3030859 -0.0025,0.07462 -6.75e-4,0.09004 0.02069,0.172561 0.01692,0.06532 0.03208,0.106763 0.05431,0.1484412 l 0.03084,0.05782 0.0473,0.02006 0.0473,0.02006 0.09101,0.2877777 c 0.07268,0.229837 0.102157,0.335458 0.146388,0.524576 0.03046,0.130237 0.05629,0.241913 0.0574,0.248172 0.0011,0.0063 -0.01696,0.11127 -0.04015,0.23336 -0.04204,0.221325 -0.04235,0.222567 -0.104385,0.419023 l -0.0622,0.197056 -0.04162,0.0061 c -0.02289,0.0033 -0.04667,0.0072 -0.05283,0.0086 -0.0089,0.0021 -0.02648,0.04178 -0.0853,0.192672 l -0.07409,0.190078 -0.101675,0.141995 c -0.09456,0.132057 -0.107798,0.14708 -0.189187,0.214654 -0.04813,0.03996 -0.08997,0.07292 -0.09297,0.07323 -0.003,3.12e-4 -0.03093,-0.01673 -0.06207,-0.03789 -0.08388,-0.05698 -0.242634,-0.09341 -0.454359,-0.104255 l -0.167015,-0.0085 -0.10572,-0.11177 -0.105721,-0.11177 -0.105831,-0.257053 c -0.19281,-0.468184 -0.240015,-0.591361 -0.277455,-0.723838 l -0.03574,-0.12645 -0.02357,-0.284017 c -0.02127,-0.256311 -0.0229,-0.296003 -0.0167,-0.406851 l 0.0069,-0.122835 0.04372,-0.09963 c 0.02405,-0.0548 0.04598,-0.100375 0.04874,-0.101283 0.07551,-0.02481 0.292275,-0.06926 0.39593,-0.08119 0.107016,-0.01232 0.150738,-0.012 0.201431,0.0015 0.05479,0.01454 0.07424,0.01401 0.126459,-0.0035 0.06107,-0.02049 0.06197,-0.02123 0.08743,-0.07188 0.01415,-0.02815 0.0433,-0.08614 0.06479,-0.128871 l 0.03907,-0.07769 0.0046,-0.09223 c 0.0025,-0.05073 0.0028,-0.121749 5e-4,-0.157825 -0.0052,-0.08321 -0.0039,-0.09743 0.008,-0.08986 0.01372,0.0087 -0.105213,-0.4630891 -0.15299,-0.6068881 -0.03872,-0.116546 -0.03877,-0.116792 -0.05416,-0.283428 l -0.01541,-0.166781 0.02027,-0.194517 c 0.01911,-0.183359 0.02004,-0.207 0.0162,-0.412177 -0.004,-0.212166 0.0028,-0.427486 0.02364,-0.748682 l 0.0096,-0.147583 0.03716,-0.01301 c 0.0785,-0.02749 0.07987,-0.02876 0.117732,-0.109408 l 0.03482,-0.07416 0.02014,-0.116225 c 0.01667,-0.09621 0.01969,-0.12925 0.01755,-0.19188 l -0.0026,-0.07566 -0.09485,-0.166431 c -0.05217,-0.09154 -0.11063,-0.185997 -0.129908,-0.20991 -0.05837,-0.0724 -0.06983,-0.106019 -0.08168,-0.239575 -0.0056,-0.06363 -0.01531,-0.210387 -0.02148,-0.326127 -0.0062,-0.11574 -0.01736,-0.294842 -0.02487,-0.398006 l -0.01365,-0.187572 0.02462,-0.186298 c 0.02359,-0.178505 0.02695,-0.195555 0.08037,-0.407685 0.05065,-0.201089 0.06059,-0.234494 0.108393,-0.364316 0.07624,-0.207039 0.08068,-0.22307 0.08912,-0.321614 0.004,-0.04734 0.0085,-0.08661 0.01,-0.08726 0.0014,-6.88e-4 0.01281,0.02559 0.0253,0.05833 0.02022,0.05303 0.02927,0.06735 0.08297,0.131363 0.08389,0.09999 0.154912,0.149861 0.25229,0.17715 0.06605,0.01851 0.07869,0.01817 0.149973,-0.004 0.06883,-0.02143 0.08461,-0.03087 0.136301,-0.08149 0.06999,-0.06855 0.06971,-0.06838 0.05938,-0.03631 z"
     id="path363"
     inkscape:connector-curvature="0" />
  <path
     id="path365"
     d="m 3.4333259,3.6458402 c -0.100463,0.09947 -0.230654,0.120052 -0.365194,0.05774 -0.087,-0.04029 -0.222609,-0.182957 -0.257425,-0.270812 -0.01287,-0.03248 -0.0237,-0.05795 -0.02406,-0.05661 -3.75e-4,0.0013 -0.0055,0.04199 -0.01138,0.09032 -0.0095,0.07817 -0.01892,0.11208 -0.08495,0.307085 -0.100012,0.295361 -0.152676,0.506732 -0.187964,0.754417 l -0.02716,0.19062 0.02637,0.416671 c 0.03083,0.487069 0.04041,0.594344 0.05743,0.642988 0.0069,0.01969 0.03365,0.06593 0.05947,0.102755 0.02582,0.03683 0.08699,0.136304 0.135944,0.221059 l 0.089,0.1541 -1.88e-4,0.083 c -1.87e-4,0.08963 -0.02305,0.249331 -0.0451,0.315063 -0.0313,0.0933 -0.07181,0.146284 -0.128539,0.168102 l -0.05421,0.02085 -0.01237,0.213714 c -0.01586,0.27388 -0.02144,0.462906 -0.01923,0.650926 0.0024,0.208857 -3.75e-4,0.277205 -0.0186,0.452005 -0.0087,0.08384 -0.01534,0.171245 -0.01466,0.194244 0.0031,0.104057 0.02707,0.303614 0.04264,0.354968 0.03853,0.127106 0.13943,0.5018322 0.157071,0.5833469 0.0104,0.04804 0.01642,0.09524 0.01338,0.104881 -0.003,0.0096 -0.0043,0.06112 -0.0029,0.114394 0.0015,0.05327 0.001,0.126363 -9.81e-4,0.162421 l -0.0036,0.06556 -0.06242,0.123437 -0.06242,0.123435 -0.05796,0.02511 c -0.04043,0.01752 -0.08376,0.02109 -0.143243,0.01181 -0.04691,-0.0073 -0.139226,-0.0064 -0.205154,0.0021 -0.127889,0.01645 -0.35925,0.06454 -0.380803,0.07915 -0.0071,0.0048 -0.03187,0.05268 -0.05494,0.106307 l -0.04194,0.0975 -0.0045,0.129183 c -0.0027,0.07909 0.0037,0.233366 0.01667,0.397891 0.02847,0.361988 0.04261,0.41027 0.313621,1.070392 l 0.124357,0.302906 0.108562,0.114775 0.108563,0.114775 0.08976,0.0039 c 0.24979,0.01085 0.413618,0.04402 0.517952,0.104899 0.03525,0.02056 0.07024,0.03546 0.07776,0.03311 0.04328,-0.01354 0.190987,-0.166637 0.278725,-0.288912 0.09396,-0.130948 0.09724,-0.137089 0.166942,-0.313003 0.0391,-0.09869 0.07479,-0.184909 0.0793,-0.191601 0.0045,-0.0067 0.02896,-0.01503 0.05434,-0.01853 l 0.04613,-0.0064 0.0645,-0.204567 c 0.05652,-0.179247 0.0695,-0.231239 0.10494,-0.420058 l 0.04044,-0.215492 -0.04784,-0.203075 c -0.05701,-0.241984 -0.08386,-0.338396 -0.176257,-0.632885 l -0.0699,-0.2227899 -0.04824,-0.02088 c -0.04598,-0.01991 -0.04956,-0.02357 -0.07646,-0.07838 -0.01552,-0.03162 -0.03922,-0.09484 -0.05267,-0.1404862 -0.02,-0.06787 -0.02408,-0.10135 -0.02239,-0.183752 l 0.0021,-0.100765 0.04526,-0.125129 c 0.0485,-0.134087 0.05729,-0.151683 0.117973,-0.23613 l 0.03938,-0.05481 -0.02584,-0.155675 c -0.01421,-0.08562 -0.02918,-0.201669 -0.03326,-0.257887 -0.0065,-0.08979 -0.0048,-0.113799 0.01424,-0.197533 0.02931,-0.128937 0.07284,-0.265842 0.116637,-0.366797 0.03609,-0.08321 0.03629,-0.08411 0.03192,-0.149163 -0.0073,-0.108 -0.03119,-0.276332 -0.06305,-0.44337 l -0.03006,-0.157616 -0.0658,-0.107183 -0.0658,-0.107181 -0.04797,-0.218977 c -0.02638,-0.120438 -0.05045,-0.224912 -0.05349,-0.232166 -0.003,-0.0073 -0.02455,-0.01839 -0.04782,-0.02475 -0.02326,-0.0064 -0.04728,-0.01682 -0.05336,-0.02325 -0.01523,-0.0161 -0.09457,-0.236682 -0.10634,-0.29564 -0.0083,-0.04182 -0.0062,-0.06412 0.0169,-0.171528 0.04378,-0.204008 0.08535,-0.35258 0.105215,-0.376073 0.0096,-0.01138 0.04165,-0.03322 0.07118,-0.04855 0.02954,-0.01533 0.05286,-0.03077 0.05183,-0.03431 -10e-4,-0.0035 -0.03274,-0.09161 -0.07047,-0.195726 -0.05479,-0.151201 -0.164903,-0.476543 -0.16825,-0.497117 -3.75e-4,-0.0024 0.02873,-0.129467 0.06471,-0.282377 l 0.06542,-0.278019 -0.0062,-0.146746 -0.0061,-0.146746 0.06071,-0.16492 c 0.03339,-0.09071 0.0652,-0.183095 0.0707,-0.205311 0.0099,-0.04002 0.0095,-0.03995 -0.03859,0.0077 z"
     style="fill:url(#linearGradient367);fill-opacity:1;fill-rule:nonzero;stroke:#000000;stroke-width:0.0103675;stroke-miterlimit:4;stroke-dasharray:0.01036749, 0.02073499;stroke-dashoffset:0;stroke-opacity:0.96254536"
     inkscape:connector-curvature="0" />
</svg>
