<?xml version="1.0" encoding="UTF-8" standalone="no"?>
<svg
   xmlns:dc="http://purl.org/dc/elements/1.1/"
   xmlns:cc="http://creativecommons.org/ns#"
   xmlns:rdf="http://www.w3.org/1999/02/22-rdf-syntax-ns#"
   xmlns:svg="http://www.w3.org/2000/svg"
   xmlns="http://www.w3.org/2000/svg"
   xmlns:xlink="http://www.w3.org/1999/xlink"
   xmlns:sodipodi="http://sodipodi.sourceforge.net/DTD/sodipodi-0.dtd"
   xmlns:inkscape="http://www.inkscape.org/namespaces/inkscape"
   version="1.1"
   id="svg815"
   width="160"
   height="250"
   viewBox="0 0 160 250"
   sodipodi:docname="clubs12.svg"
   inkscape:version="0.92.5 (2060ec1f9f, 2020-04-08)">
  <sodipodi:namedview
     pagecolor="#ffffff"
     bordercolor="#666666"
     borderopacity="1"
     objecttolerance="10"
     gridtolerance="10"
     guidetolerance="10"
     inkscape:pageopacity="0"
     inkscape:pageshadow="2"
     inkscape:window-width="1918"
     inkscape:window-height="1017"
     id="namedview5011"
     showgrid="false"
     inkscape:zoom="13.387234"
     inkscape:cx="59.848485"
     inkscape:cy="240.30303"
     inkscape:window-x="0"
     inkscape:window-y="0"
     inkscape:window-maximized="1"
     inkscape:current-layer="svg815" />
  <metadata
     id="metadata821">
    <rdf:RDF>
      <cc:Work
         rdf:about="">
        <dc:format>image/svg+xml</dc:format>
        <dc:type
           rdf:resource="http://purl.org/dc/dcmitype/StillImage" />
        <dc:title></dc:title>
      </cc:Work>
    </rdf:RDF>
  </metadata>
  <defs
     id="defs819">
    <linearGradient
       gradientTransform="matrix(-0.11382866,-0.04897331,0.04897331,-0.11382866,11.360684,16.77034)"
       xlink:href="#linearGradient28"
       id="linearGradient30"
       x1="68.058258"
       y1="52.766853"
       x2="93.905167"
       y2="48.329338"
       gradientUnits="userSpaceOnUse" />
    <linearGradient
       id="linearGradient28">
      <stop
         style="stop-color:#d45500;stop-opacity:1;"
         offset="0"
         id="stop24" />
      <stop
         style="stop-color:#d45500;stop-opacity:0;"
         offset="1"
         id="stop26" />
    </linearGradient>
    <linearGradient
       xlink:href="#linearGradient28"
       id="linearGradient202"
       gradientUnits="userSpaceOnUse"
       gradientTransform="matrix(-0.10421379,0,0,-0.10421379,21.478984,12.331316)"
       x1="68.058258"
       y1="52.766853"
       x2="93.905167"
       y2="48.329338" />
    <linearGradient
       gradientTransform="matrix(0.09270834,0,0,0.10071509,9.635358,3.0600958)"
       xlink:href="#linearGradient28"
       id="linearGradient30-4"
       x1="68.058258"
       y1="52.766853"
       x2="93.905167"
       y2="48.329338"
       gradientUnits="userSpaceOnUse" />
    <linearGradient
       xlink:href="#linearGradient28"
       id="linearGradient367"
       gradientUnits="userSpaceOnUse"
       gradientTransform="matrix(0.0625,0,0,0.11444754,18.072663,2.4148925)"
       x1="68.058258"
       y1="52.766853"
       x2="93.905167"
       y2="48.329338" />
    <linearGradient
       xlink:href="#linearGradient28"
       id="linearGradient349"
       gradientUnits="userSpaceOnUse"
       gradientTransform="matrix(-0.0625,0,0,-0.11444754,30.014458,13.048996)"
       x1="68.058258"
       y1="52.766853"
       x2="93.905167"
       y2="48.329338" />
    <linearGradient
       gradientTransform="matrix(0.0625,0,0,0.11444754,22.258269,2.5882975)"
       xlink:href="#linearGradient28"
       id="linearGradient30-6"
       x1="68.058258"
       y1="52.766853"
       x2="93.905167"
       y2="48.329338"
       gradientUnits="userSpaceOnUse" />
    <linearGradient
       xlink:href="#linearGradient28"
       id="linearGradient554"
       gradientUnits="userSpaceOnUse"
       gradientTransform="matrix(-0.04739556,-0.02774335,0.02569172,-0.05118036,39.13871,8.9395546)"
       x1="68.058258"
       y1="52.766853"
       x2="93.905167"
       y2="48.329338" />
    <linearGradient
       xlink:href="#linearGradient28"
       id="linearGradient552"
       gradientUnits="userSpaceOnUse"
       gradientTransform="matrix(0.04739556,-0.02774335,-0.02569172,-0.05118036,30.774237,8.9206156)"
       x1="68.058258"
       y1="52.766853"
       x2="93.905167"
       y2="48.329338" />
    <linearGradient
       xlink:href="#linearGradient28"
       id="linearGradient518"
       gradientUnits="userSpaceOnUse"
       gradientTransform="matrix(-0.04739556,0.02774335,0.02569172,0.05118036,39.15765,6.5759136)"
       x1="68.058258"
       y1="52.766853"
       x2="93.905167"
       y2="48.329338" />
    <linearGradient
       gradientTransform="matrix(0.04739556,0.02774335,-0.02569172,0.05118036,30.793177,6.5948536)"
       xlink:href="#linearGradient28"
       id="linearGradient30-2"
       x1="68.058258"
       y1="52.766853"
       x2="93.905167"
       y2="48.329338"
       gradientUnits="userSpaceOnUse" />
    <linearGradient
       gradientTransform="matrix(-0.00182956,0.04406484,-0.05671844,-0.00142139,47.989828,4.511358)"
       xlink:href="#linearGradient28"
       id="linearGradient30-3"
       x1="68.058258"
       y1="52.766853"
       x2="93.905167"
       y2="48.329338"
       gradientUnits="userSpaceOnUse" />
    <linearGradient
       xlink:href="#linearGradient28"
       id="linearGradient1562"
       gradientUnits="userSpaceOnUse"
       gradientTransform="matrix(-0.0625,0,0,-0.0625,51.889458,7.060849)"
       x1="68.058258"
       y1="52.766853"
       x2="93.905167"
       y2="48.329338" />
    <linearGradient
       xlink:href="#linearGradient28"
       id="linearGradient1560"
       gradientUnits="userSpaceOnUse"
       gradientTransform="matrix(-0.0625,0,0,-0.0625,47.798548,7.004031)"
       x1="68.058258"
       y1="52.766853"
       x2="93.905167"
       y2="48.329338" />
    <linearGradient
       xlink:href="#linearGradient28"
       id="linearGradient1526"
       gradientUnits="userSpaceOnUse"
       gradientTransform="matrix(0.0625,0,0,0.0625,38.167361,8.526273)"
       x1="68.058258"
       y1="52.766853"
       x2="93.905167"
       y2="48.329338" />
    <linearGradient
       gradientTransform="matrix(0.0625,0,0,0.0625,42.25827,8.583091)"
       xlink:href="#linearGradient28"
       id="linearGradient30-9"
       x1="68.058258"
       y1="52.766853"
       x2="93.905167"
       y2="48.329338"
       gradientUnits="userSpaceOnUse" />
    <linearGradient
       xlink:href="#linearGradient28"
       id="linearGradient2120"
       gradientUnits="userSpaceOnUse"
       gradientTransform="matrix(-0.04785026,0,0,-0.05589801,61.027177,6.8616735)"
       x1="68.058258"
       y1="52.766853"
       x2="93.905167"
       y2="48.329338" />
    <linearGradient
       xlink:href="#linearGradient28"
       id="linearGradient2118"
       gradientUnits="userSpaceOnUse"
       gradientTransform="matrix(-0.04785026,0,0,-0.05589801,58.75445,6.8616735)"
       x1="68.058258"
       y1="52.766853"
       x2="93.905167"
       y2="48.329338" />
    <linearGradient
       xlink:href="#linearGradient28"
       id="linearGradient2116"
       gradientUnits="userSpaceOnUse"
       gradientTransform="matrix(-0.04785026,0,0,-0.05589801,56.405965,6.8616735)"
       x1="68.058258"
       y1="52.766853"
       x2="93.905167"
       y2="48.329338" />
    <linearGradient
       xlink:href="#linearGradient28"
       id="linearGradient2066"
       gradientUnits="userSpaceOnUse"
       gradientTransform="matrix(0.04785026,0,0,0.05589801,49.067214,8.5932485)"
       x1="68.058258"
       y1="52.766853"
       x2="93.905167"
       y2="48.329338" />
    <linearGradient
       xlink:href="#linearGradient28"
       id="linearGradient2048"
       gradientUnits="userSpaceOnUse"
       gradientTransform="matrix(0.04785026,0,0,0.05589801,51.339942,8.5932485)"
       x1="68.058258"
       y1="52.766853"
       x2="93.905167"
       y2="48.329338" />
    <linearGradient
       gradientTransform="matrix(0.04785026,0,0,0.05589801,53.688426,8.5932485)"
       xlink:href="#linearGradient28"
       id="linearGradient30-42"
       x1="68.058258"
       y1="52.766853"
       x2="93.905167"
       y2="48.329338"
       gradientUnits="userSpaceOnUse" />
    <linearGradient
       gradientTransform="matrix(-7.81785e-4,0.04887137,0.04887137,7.81785e-4,62.757095,3.8708137)"
       xlink:href="#linearGradient28"
       id="linearGradient30-7"
       x1="68.058258"
       y1="52.766853"
       x2="93.905167"
       y2="48.329338"
       gradientUnits="userSpaceOnUse" />
    <linearGradient
       xlink:href="#linearGradient28"
       id="linearGradient2120-2"
       gradientUnits="userSpaceOnUse"
       gradientTransform="matrix(-0.04785026,0,0,-0.05589801,71.02718,6.8616741)"
       x1="68.058258"
       y1="52.766853"
       x2="93.905167"
       y2="48.329338" />
    <linearGradient
       xlink:href="#linearGradient28"
       id="linearGradient2118-5"
       gradientUnits="userSpaceOnUse"
       gradientTransform="matrix(-0.04785026,0,0,-0.05589801,68.754453,6.8616741)"
       x1="68.058258"
       y1="52.766853"
       x2="93.905167"
       y2="48.329338" />
    <linearGradient
       xlink:href="#linearGradient28"
       id="linearGradient2116-4"
       gradientUnits="userSpaceOnUse"
       gradientTransform="matrix(-0.04785026,0,0,-0.05589801,66.405968,6.8616741)"
       x1="68.058258"
       y1="52.766853"
       x2="93.905167"
       y2="48.329338" />
    <linearGradient
       xlink:href="#linearGradient28"
       id="linearGradient2066-4"
       gradientUnits="userSpaceOnUse"
       gradientTransform="matrix(0.04785026,0,0,0.05589801,59.067217,8.593248)"
       x1="68.058258"
       y1="52.766853"
       x2="93.905167"
       y2="48.329338" />
    <linearGradient
       xlink:href="#linearGradient28"
       id="linearGradient2048-9"
       gradientUnits="userSpaceOnUse"
       gradientTransform="matrix(0.04785026,0,0,0.05589801,61.339944,8.593248)"
       x1="68.058258"
       y1="52.766853"
       x2="93.905167"
       y2="48.329338" />
    <linearGradient
       gradientTransform="matrix(0.04785026,0,0,0.05589801,63.688429,8.593248)"
       xlink:href="#linearGradient28"
       id="linearGradient30-93"
       x1="68.058258"
       y1="52.766853"
       x2="93.905167"
       y2="48.329338"
       gradientUnits="userSpaceOnUse" />
    <linearGradient
       xlink:href="#linearGradient28"
       id="linearGradient2337"
       gradientUnits="userSpaceOnUse"
       gradientTransform="matrix(-0.0417883,0,0,-0.04857198,75.583944,6.4314344)"
       x1="68.058258"
       y1="52.766853"
       x2="93.905167"
       y2="48.329338" />
    <linearGradient
       xlink:href="#linearGradient28"
       id="linearGradient2335"
       gradientUnits="userSpaceOnUse"
       gradientTransform="matrix(0.0417883,0,0,0.04857198,70.628178,2.0064654)"
       x1="68.058258"
       y1="52.766853"
       x2="93.905167"
       y2="48.329338" />
    <linearGradient
       xlink:href="#linearGradient28"
       id="linearGradient2333"
       gradientUnits="userSpaceOnUse"
       gradientTransform="matrix(-0.0417883,0,0,-0.04857198,79.296068,6.4974754)"
       x1="68.058258"
       y1="52.766853"
       x2="93.905167"
       y2="48.329338" />
    <linearGradient
       xlink:href="#linearGradient28"
       id="linearGradient2331"
       gradientUnits="userSpaceOnUse"
       gradientTransform="matrix(0.0417883,0,0,0.04857198,74.340299,2.0725074)"
       x1="68.058258"
       y1="52.766853"
       x2="93.905167"
       y2="48.329338" />
    <linearGradient
       xlink:href="#linearGradient28"
       id="linearGradient2265"
       gradientUnits="userSpaceOnUse"
       gradientTransform="matrix(-0.0417883,0,0,-0.04857198,75.640764,13.685222)"
       x1="68.058258"
       y1="52.766853"
       x2="93.905167"
       y2="48.329338" />
    <linearGradient
       xlink:href="#linearGradient28"
       id="linearGradient2263"
       gradientUnits="userSpaceOnUse"
       gradientTransform="matrix(0.0417883,0,0,0.04857198,70.684995,9.2602534)"
       x1="68.058258"
       y1="52.766853"
       x2="93.905167"
       y2="48.329338" />
    <linearGradient
       xlink:href="#linearGradient28"
       id="linearGradient2229"
       gradientUnits="userSpaceOnUse"
       gradientTransform="matrix(-0.0417883,0,0,-0.04857198,79.352887,13.751263)"
       x1="68.058258"
       y1="52.766853"
       x2="93.905167"
       y2="48.329338" />
    <linearGradient
       gradientTransform="matrix(0.0417883,0,0,0.04857198,74.397116,9.3262944)"
       xlink:href="#linearGradient28"
       id="linearGradient30-5"
       x1="68.058258"
       y1="52.766853"
       x2="93.905167"
       y2="48.329338"
       gradientUnits="userSpaceOnUse" />
    <linearGradient
       gradientTransform="matrix(0,0.0625,-0.070221,0,88.204672,3.0537241)"
       xlink:href="#linearGradient28"
       id="linearGradient30-7-7"
       x1="68.058258"
       y1="52.766853"
       x2="93.905167"
       y2="48.329338"
       gradientUnits="userSpaceOnUse" />
    <linearGradient
       xlink:href="#linearGradient28"
       id="linearGradient2337-9"
       gradientUnits="userSpaceOnUse"
       gradientTransform="matrix(-0.0417883,0,0,-0.04857198,85.583944,6.4314336)"
       x1="68.058258"
       y1="52.766853"
       x2="93.905167"
       y2="48.329338" />
    <linearGradient
       xlink:href="#linearGradient28"
       id="linearGradient2335-2"
       gradientUnits="userSpaceOnUse"
       gradientTransform="matrix(0.0417883,0,0,0.04857198,80.628177,2.0064647)"
       x1="68.058258"
       y1="52.766853"
       x2="93.905167"
       y2="48.329338" />
    <linearGradient
       xlink:href="#linearGradient28"
       id="linearGradient2333-8"
       gradientUnits="userSpaceOnUse"
       gradientTransform="matrix(-0.0417883,0,0,-0.04857198,89.296066,6.4974746)"
       x1="68.058258"
       y1="52.766853"
       x2="93.905167"
       y2="48.329338" />
    <linearGradient
       xlink:href="#linearGradient28"
       id="linearGradient2331-3"
       gradientUnits="userSpaceOnUse"
       gradientTransform="matrix(0.0417883,0,0,0.04857198,84.340298,2.0725065)"
       x1="68.058258"
       y1="52.766853"
       x2="93.905167"
       y2="48.329338" />
    <linearGradient
       xlink:href="#linearGradient28"
       id="linearGradient2265-0"
       gradientUnits="userSpaceOnUse"
       gradientTransform="matrix(-0.0417883,0,0,-0.04857198,85.640762,13.685222)"
       x1="68.058258"
       y1="52.766853"
       x2="93.905167"
       y2="48.329338" />
    <linearGradient
       xlink:href="#linearGradient28"
       id="linearGradient2263-1"
       gradientUnits="userSpaceOnUse"
       gradientTransform="matrix(0.0417883,0,0,0.04857198,80.684995,9.2602526)"
       x1="68.058258"
       y1="52.766853"
       x2="93.905167"
       y2="48.329338" />
    <linearGradient
       xlink:href="#linearGradient28"
       id="linearGradient2229-7"
       gradientUnits="userSpaceOnUse"
       gradientTransform="matrix(-0.0417883,0,0,-0.04857198,89.352884,13.751263)"
       x1="68.058258"
       y1="52.766853"
       x2="93.905167"
       y2="48.329338" />
    <linearGradient
       gradientTransform="matrix(0.0417883,0,0,0.04857198,84.397116,9.3262946)"
       xlink:href="#linearGradient28"
       id="linearGradient30-8"
       x1="68.058258"
       y1="52.766853"
       x2="93.905167"
       y2="48.329338"
       gradientUnits="userSpaceOnUse" />
    <linearGradient
       gradientUnits="userSpaceOnUse"
       y2="48.329338"
       x2="93.905167"
       y1="52.766853"
       x1="68.058258"
       id="linearGradient30-37"
       xlink:href="#linearGradient28"
       gradientTransform="matrix(-0.02567333,-0.01104562,0.01104562,-0.02567333,98.847603,4.8327149)" />
    <linearGradient
       gradientUnits="userSpaceOnUse"
       y2="71.008263"
       x2="88.849586"
       y1="58.644627"
       x1="82.105782"
       id="linearGradient1063"
       xlink:href="#linearGradient882"
       gradientTransform="matrix(0.0625,0,0,0.0625,89.999998,-1.2353516e-7)" />
    <linearGradient
       id="linearGradient882">
      <stop
         style="stop-color:#d16208;stop-opacity:1"
         offset="0"
         id="stop878" />
      <stop
         style="stop-color:#d16250;stop-opacity:0;"
         offset="1"
         id="stop880" />
    </linearGradient>
    <linearGradient
       gradientUnits="userSpaceOnUse"
       y2="68.472336"
       x2="56.128345"
       y1="63.697319"
       x1="61.166279"
       id="linearGradient876"
       xlink:href="#linearGradient882"
       gradientTransform="matrix(0.0625,0,0,0.0625,89.999998,-1.2353516e-7)" />
    <linearGradient
       gradientUnits="userSpaceOnUse"
       y2="48.329338"
       x2="93.905167"
       y1="52.766853"
       x1="68.058258"
       id="linearGradient30-0"
       xlink:href="#linearGradient28"
       gradientTransform="matrix(-0.02881053,-0.01239536,0.01239536,-0.02881053,108.70072,5.4503207)" />
    <linearGradient
       gradientUnits="userSpaceOnUse"
       y2="48.329338"
       x2="93.905167"
       y1="52.766853"
       x1="68.058258"
       id="linearGradient30-80"
       xlink:href="#linearGradient28"
       gradientTransform="matrix(-0.02849684,-0.0122604,0.0122604,-0.02849684,8.907641,5.4302307)" />
    <linearGradient
       xlink:href="#linearGradient846"
       id="linearGradient848"
       x1="72.37397"
       y1="53.171356"
       x2="72.19931"
       y2="45.564011"
       gradientUnits="userSpaceOnUse"
       gradientTransform="matrix(0.0625,0,0,0.0625,0.04450095,-2.6464844e-7)" />
    <linearGradient
       id="linearGradient846">
      <stop
         style="stop-color:#423abf;stop-opacity:1;"
         offset="0"
         id="stop842" />
      <stop
         style="stop-color:#423abf;stop-opacity:0;"
         offset="1"
         id="stop844" />
    </linearGradient>
  </defs>
  <flowRoot
     style="font-style:normal;font-variant:normal;font-weight:bold;font-stretch:normal;font-size:1px;line-height:1.25;font-family:'DejaVu Sans';-inkscape-font-specification:'DejaVu Sans Bold';letter-spacing:0px;word-spacing:0px;fill:#000000;fill-opacity:1;stroke:none;stroke-width:0.0625"
     id="flowRoot100"
     xml:space="preserve"><flowRegion
       style="stroke-width:0.0625"
       id="flowRegion102"><rect
         style="stroke-width:0.00390625"
         y="0.73863637"
         x="0.66287881"
         height="1.3636364"
         width="1.5151515"
         id="rect104" /></flowRegion><flowPara
       style="stroke-width:0.0625"
       id="flowPara106" /></flowRoot>  <rect
     y="0"
     x="0.044500954"
     height="15.625"
     width="10"
     id="clubs12"
     style="fill:#ffffff;fill-opacity:1;stroke:#1a1a1a;stroke-width:0.0625;stroke-opacity:1" />
  <rect
     y="1.306818"
     x="1.3892046"
     height="12.973484"
     width="7.2537889"
     id="rect108-32"
     style="fill:none;fill-opacity:1;stroke:#1a1a1a;stroke-width:0.0625;stroke-opacity:1" />
  <g
     id="flowRoot915-4"
     style="font-style:normal;font-variant:normal;font-weight:bold;font-stretch:normal;font-size:16px;line-height:1.25;font-family:'DejaVu Sans';-inkscape-font-specification:'DejaVu Sans Bold';text-align:start;letter-spacing:0px;word-spacing:0px;text-anchor:start;fill:#000000;fill-opacity:1;stroke:none"
     transform="matrix(0.0625,0,0,0.0625,0.23389095,-2.6464843e-7)"
     aria-label="12">
    <path
       id="path7220"
       d="M 4.90625,16.623047 H 7.5625 V 9.0839844 l -2.7265625,0.5625 v -2.046875 l 2.7109375,-0.5625 h 2.859375 v 9.5859376 h 2.65625 v 2.078125 H 4.90625 Z"
       inkscape:connector-curvature="0" />
    <path
       id="path7222"
       d="m 18.773437,16.490234 h 5.132813 v 2.210938 H 15.429688 V 16.490234 L 19.6875,12.732422 q 0.570312,-0.515625 0.84375,-1.007813 0.273437,-0.492187 0.273437,-1.023437 0,-0.8203126 -0.554687,-1.3203126 -0.546875,-0.5 -1.460938,-0.5 -0.703125,0 -1.539062,0.3046875 -0.835938,0.296875 -1.789062,0.8906251 V 7.5136719 q 1.015624,-0.3359375 2.007812,-0.5078125 0.992187,-0.1796875 1.945312,-0.1796875 2.09375,0 3.25,0.921875 1.164063,0.921875 1.164063,2.5703121 0,0.953125 -0.492188,1.78125 -0.492187,0.820313 -2.070312,2.203125 z"
       inkscape:connector-curvature="0" />
  </g>
  <path
     style="fill:#d9c3a8;fill-opacity:1;stroke:#000000;stroke-width:0.0625;stroke-opacity:0.39215686"
     d="m 4.948451,3.1669647 -0.22443,-0.0382 -0.4202,0.01432 -0.19578,0.128926 0.005,0.362901 0.0859,0.195776 0.12893,0.167126 0.0334,0.124151 0.1146,0.0573 0.12415,0.02865 0.10505,-0.0191 0.1337,-0.01432 0.1337,-0.0573 0.0668,-0.08595 0.0478,-0.04297 0.0239,-0.109826 v -0.04775 l 0.0239,-0.04297 h 0.0907 l -0.0525,-0.186226 -0.0764,-0.143251 v -0.109825 l -0.0382,-0.109826 z"
     id="path825"
     inkscape:connector-curvature="0" />
  <ellipse
     style="fill:#0000ff;fill-opacity:0.54901961;stroke:#000000;stroke-width:0.05954931;stroke-opacity:0.39215686"
     id="path829"
     cx="4.7873445"
     cy="3.4477158"
     rx="0.093222357"
     ry="0.05362181" />
  <path
     style="fill:#423abf;fill-opacity:1;stroke:#000000;stroke-width:0.05524929;stroke-opacity:0.39215686"
     id="path831"
     d="m 4.459491,3.4752637 a 0.10166249,0.05012445 0 0 1 -0.10113,0.05012 0.10166249,0.05012445 0 0 1 -0.10219,-0.0496 0.10166249,0.05012445 0 0 1 0.10005,-0.05064 0.10166249,0.05012445 0 0 1 0.10324,0.04906"
     inkscape:connector-curvature="0" />
  <path
     style="fill:#2c2929;fill-opacity:0.16230367;stroke:#000000;stroke-width:0.06430288;stroke-opacity:0.62745098"
     d="m 4.435741,3.9556337 c 0.14657,0.06582 0.2364,0.02455 0.31192,0.02776 l 0.13645,-0.03748"
     id="path836"
     inkscape:connector-curvature="0" />
  <path
     style="fill:#d9c3a8;fill-opacity:0.74345548;stroke:#000000;stroke-width:0.0625;stroke-opacity:0.62745098"
     d="m 4.589421,3.5662987 -0.10849,0.236134 0.0511,0.02872 c 0.0501,0.0086 0.0878,0.0048 0.12764,0.0032"
     id="path838"
     inkscape:connector-curvature="0" />
  <path
     style="fill:url(#linearGradient848);fill-opacity:1;stroke:#000000;stroke-width:0.0625;stroke-opacity:0.39215686"
     d="m 4.108041,3.2720157 -0.0269,-0.194032 0.16913,-0.137213 0.0734,-0.04148 0.0957,-0.01276 0.083,-0.01276 0.0989,0.0032 h 0.10849 l 0.13402,0.02872 0.15317,0.06382 0.0447,0.04786 0.0383,0.09892 -0.0216,0.122314 -0.10983,-0.07163 -0.22442,-0.0382 -0.4202,0.01432 z"
     id="path840"
     inkscape:connector-curvature="0" />
  <path
     style="fill:#c83737;fill-opacity:1;stroke:#000000;stroke-width:0.0625;stroke-opacity:0.39215686"
     d="m 4.081111,3.0779837 -0.62862,-0.408448 0.57119,0.156359 -0.17551,-0.577571 0.40526,0.440358 0.0574,-0.545661 0.22018,0.520133 0.25209,-0.488223 0.003,0.516942 0.41802,-0.427594 -0.18508,0.475459 0.46908,-0.137213 -0.44674,0.414831 -0.0447,-0.04786 -0.28719,-0.09254 -0.20742,-0.0032 -0.17869,0.02553 -0.24252,0.178696"
     id="path850"
     inkscape:connector-curvature="0" />
  <path
     style="fill:#dac5ab;fill-opacity:1;stroke:#000000;stroke-width:0.062625;stroke-miterlimit:4;stroke-dasharray:none;stroke-opacity:0.15686275"
     d="m 4.475721,4.1792697 -0.0181,0.04747 0.01,0.124449 h 0.36058 l 0.0447,-0.02553 0.0734,-0.02872 0.0734,-0.01595 0.0606,-0.04467 0.0255,-0.02872 v -0.102112 l -0.0185,-0.117218 -0.1146,0.128926 -0.1337,0.0573 -0.23875,0.03343 z"
     id="path852"
     inkscape:connector-curvature="0" />
  <path
     style="fill:#f5991f;fill-opacity:0.70588235;stroke:#000000;stroke-width:0.062625;stroke-miterlimit:4;stroke-dasharray:none;stroke-opacity:0.15686275"
     d="m 4.108041,3.2720157 -0.062,0.13145 -0.0415,0.102112 -0.0255,0.06701 -0.0638,0.01915 -0.003,0.102112 0.003,0.08616 -0.01,0.102113 -0.11487,0.05425 -0.0383,0.08297 h -0.0606 l -0.0287,0.07339 -0.0447,0.06063 -0.01,0.169123 0.003,0.111685 0.0989,0.0702 h 0.14359 l 0.1085,-0.01276 0.11806,-0.03191 0.10531,-0.01595 0.083,0.02553 0.10849,0.01276 0.083,-0.03191 0.0574,0.01276 -0.0511,-0.111685 -0.01,-0.124449 -0.0965,-0.104775 -0.0334,-0.124151 -0.21488,-0.362902 z"
     id="path854"
     inkscape:connector-curvature="0" />
  <path
     style="fill:#f5991f;fill-opacity:0.70588235;stroke:#000000;stroke-width:0.062625;stroke-miterlimit:4;stroke-dasharray:none;stroke-opacity:0.15686275"
     d="m 5.079901,3.1162767 0.0638,0.07658 0.0511,0.05106 0.0862,0.02872 0.0447,0.0702 0.01,0.105303 -0.016,0.05425 0.083,0.04148 0.10211,0.05744 0.0704,0.0654 0.0798,0.0688 0.07,0.05324 0.0766,0.07461 0.0451,0.071 0.0211,0.11467 -0.007,0.09573 -0.0449,0.09993 -0.10452,0.157805 -0.22939,-0.03313 -0.0764,-0.02511 -0.14777,-0.08558 -0.0758,-0.05746 -0.0766,0.0064 -0.0185,-0.21933 0.0478,-0.200551 h 0.0907 l -0.0525,-0.186226 -0.0764,-0.14325 v -0.109826 l -0.0382,-0.109825 0.0216,-0.122314"
     id="path856"
     inkscape:connector-curvature="0" />
  <path
     style="fill:#443e36;fill-opacity:1;stroke:#000000;stroke-width:0.062625;stroke-miterlimit:4;stroke-dasharray:none;stroke-opacity:0.00523562"
     d="m 4.226661,3.3798207 0.0522,-0.04419 0.12856,-0.0241 0.0683,-0.008 0.0442,0.06026"
     id="path858"
     inkscape:connector-curvature="0" />
  <path
     id="path860"
     d="m 4.938761,3.3557157 -0.0522,-0.04419 -0.12856,-0.0241 -0.0683,-0.008 -0.0442,0.06026"
     style="fill:#443e36;fill-opacity:1;stroke:#000000;stroke-width:0.062625;stroke-miterlimit:4;stroke-dasharray:none;stroke-opacity:0.00523562"
     inkscape:connector-curvature="0" />
  <path
     style="fill:#b8bc00;fill-opacity:0.54901961;stroke:#000000;stroke-width:0.062625;stroke-miterlimit:4;stroke-dasharray:none;stroke-opacity:0.39215686"
     d="m 4.518281,4.4628787 0.16844,0.07661 0.14205,-0.01522 0.11162,-0.05073 h 0.19279 l 0.0761,-0.03044 0.0761,-0.0761 0.0406,-0.06088 -0.14396,-0.104889 -0.0766,0.0064 -0.0862,0.07339 -0.0734,0.01595 -0.11807,0.05425 h -0.36058 z"
     id="path864"
     inkscape:connector-curvature="0" />
  <path
     style="fill:#b8bc00;fill-opacity:1;stroke:#000000;stroke-width:0.062625;stroke-miterlimit:4;stroke-dasharray:none;stroke-opacity:0.39215686"
     d="m 3.514751,4.5394857 -0.0507,0.14713 0.0101,0.11669 0.0152,0.136983 0.0862,0.279041 0.0913,0.319628 0.0507,0.136983 0.0355,0.136984 0.0457,0.172497 0.0203,0.13191 0.0152,0.11669 0.0812,0.04566 0.0507,0.08625 -0.005,0.11669 v 0.0761 l -0.005,0.09132 0.0355,0.11669 0.005,0.07103 h 0.14205 l 0.13699,-0.106543 0.0761,-0.04566 0.10147,-0.01522 0.0558,-0.04566 v -0.268894 l -0.0406,-0.339922 -0.066,-0.182644 -0.071,-0.187719 -0.0152,-0.167424 -0.0964,-0.197865 -0.1725,-0.157277 -0.11669,-0.11669 -0.0152,-0.121763 -0.0406,-0.106543 -0.13191,-0.101469 z"
     id="path866"
     inkscape:connector-curvature="0" />
  <path
     style="fill:#b8bc00;fill-opacity:1;stroke:#000000;stroke-width:0.062625;stroke-miterlimit:4;stroke-dasharray:none;stroke-opacity:0.39215686"
     d="m 5.188991,5.0011707 -0.0203,1.075574 -0.0457,0.04566 -0.0355,0.09132 -0.071,0.126837 v 0.202938 0.299335 l 0.0203,0.08118 0.0913,0.0051 0.071,-0.02537 0.0355,-0.126836 0.0609,-0.05073 0.066,-0.05581 0.0558,-0.04566 0.0761,-0.06088 0.10147,-0.02537 0.11161,-0.08118 0.0406,-0.08118 0.0152,-0.223233 -0.0254,-0.218158 0.0203,-0.08118 0.0203,-0.172497 0.0304,-0.324702 v -0.258747 l 0.005,-0.26382 v -0.121763 l -0.36529,0.2486 -0.16742,0.01522 z"
     id="path868"
     inkscape:connector-curvature="0" />
  <path
     style="fill:#b8bc00;fill-opacity:0.9842932;stroke:#000000;stroke-width:0.062625;stroke-miterlimit:4;stroke-dasharray:none;stroke-opacity:0.39215686"
     d="m 3.996721,6.8377637 h 0.14206 l 0.87771,0.0051 0.0203,0.08118 0.0913,0.0051 0.071,-0.02537 0.0863,0.08117 0.0609,0.02029 0.0609,0.05073 0.0558,0.06595 0.0609,0.0761 -0.13698,0.05581 -0.16743,0.05581 -0.18772,0.09132 -0.16235,0.08118 -0.0964,0.02537 -0.16742,0.02537 -0.1725,-0.04059 -0.20801,-0.0964 -0.18772,-0.0964 -0.16742,-0.0964 -0.14206,-0.111617 -0.11669,-0.08625 v -0.0761 l 0.10654,-0.05073 0.14713,-0.01522 z"
     id="path870"
     inkscape:connector-curvature="0" />
  <path
     style="fill:#b8bc00;fill-opacity:0.99476438;stroke:#000000;stroke-width:0.062625;stroke-miterlimit:4;stroke-dasharray:none;stroke-opacity:0.39215686"
     d="m 3.869891,7.2030547 v 0.213084 l 0.0101,0.228306 -0.0152,0.243526 -0.0355,0.319628 v 0.26382 l -0.0355,0.177571 v 0.177571 l -0.0102,0.233379 -0.0812,0.126837 -0.0304,0.248599 -0.066,0.202939 -0.0152,0.228306 -0.0761,0.2384533 -0.0254,0.197865 -0.0964,0.324701 -0.0152,0.268894 -0.11669,0.446464 -0.10655,0.39573 -0.16742,0.446465 -0.066,0.355142 -0.0609,0.147131 -0.0254,0.101469 0.26382,0.01522 0.13191,0.03552 h 0.21309 l 0.15727,-0.08118 0.0964,-0.213085 0.0913,-0.223233 0.0457,-0.258746 0.066,-0.284114 0.0761,-0.273967 0.0457,-0.192791 0.0863,-0.294261 0.0457,-0.294261 0.0862,-0.289187 0.0203,-0.202939 0.0304,-0.192791 0.0101,-0.4413913 0.071,-0.558082 0.0812,-0.42617 0.0406,-0.466759 v -0.355142 l -0.0609,-0.299333 z"
     id="path872"
     inkscape:connector-curvature="0" />
  <path
     style="fill:#b8bc00;fill-opacity:1;stroke:#000000;stroke-width:0.062625;stroke-miterlimit:4;stroke-dasharray:none;stroke-opacity:0.39215686"
     d="m 5.219431,7.3095977 -0.0406,0.116688 v 0.182644 l 0.0254,0.355143 0.0355,0.522567 0.066,0.537786 0.0558,0.441392 0.18264,0.9030763 0.18772,0.755946 0.1725,0.593595 0.17757,0.517493 0.11162,0.304407 0.0812,0.167425 0.17249,0.04566 h 0.16743 0.25367 l 0.13191,-0.04566 -0.0152,-0.213086 -0.11669,-0.197865 -0.0355,-0.106543 -0.0761,-0.268893 -0.0913,-0.284114 -0.0761,-0.253673 -0.0406,-0.182645 -0.0609,-0.248599 -0.0609,-0.273967 -0.0761,-0.334849 -0.0457,-0.2486 -0.0355,-0.2384523 -0.0507,-0.213086 -0.0507,-0.268893 -0.0355,-0.329775 -0.0304,-0.29426 -0.0406,-0.2486 -0.0862,-0.27904 -0.0812,-0.334849 -0.10654,-0.273967 -0.11669,-0.243526 -0.13698,-0.08625 -0.0102,-0.08625 z"
     id="path874"
     inkscape:connector-curvature="0" />
  <path
     style="fill:#b8bc00;fill-opacity:0.99476438;stroke:#000000;stroke-width:0.062625;stroke-miterlimit:4;stroke-dasharray:none;stroke-opacity:0.39215686"
     d="m 4.564951,9.0092057 0.26382,0.405877 0.26382,-0.36529 0.10655,0.284115 0.0609,0.213085 0.071,0.339922 0.0507,0.3297753 0.066,0.314555 0.0761,0.360215 0.11161,0.36529 0.0203,0.111616 -0.38558,-0.0051 -0.0558,-0.142057 -0.071,-0.309481 -0.0863,-0.314555 -0.0812,-0.238453 -0.066,-0.116689 -0.0558,-0.01522 -0.0609,0.197865 -0.0406,0.263821 -0.0152,0.319627 -0.0406,0.2486 0.0102,0.147131 -0.47691,-0.02029 -0.0203,-0.162351 0.0558,-0.233379 0.0761,-0.243527 0.0457,-0.218158 0.0203,-0.446465 0.0862,-0.3449953 0.0254,-0.268894 v -0.208011 z"
     id="path876"
     inkscape:connector-curvature="0" />
  <path
     style="fill:#b8bc00;fill-opacity:1;stroke:#000000;stroke-width:0.062625;stroke-miterlimit:4;stroke-dasharray:none;stroke-opacity:0.39215686"
     d="m 3.139311,6.3050507 0.0102,0.213085 v 0.2486 l -0.0304,0.111616 -0.16742,0.03551 -0.21816,-0.01015 -0.345,0.03044 -0.37544,-0.0051 h -0.066 l -0.005,-0.481979 0.12177,-0.157277 0.066,-0.04566 0.51749,0.0051 0.22323,-0.01015 h 0.16235 z"
     id="path878"
     inkscape:connector-curvature="0" />
  <path
     style="fill:#b8bc00;fill-opacity:1;stroke:#000000;stroke-width:0.062625;stroke-miterlimit:4;stroke-dasharray:none;stroke-opacity:0.39215686"
     d="m 6.183391,6.5079887 0.066,0.126837 0.0152,0.142057 -0.0406,0.197865 v 0.04059 l 0.0457,0.0051 h 0.10654 l 0.0609,-0.01015 0.11669,-0.01522 0.0304,-0.06595 0.0254,-0.13191 v -0.147131 l -0.0457,-0.106542 -0.066,-0.06595 -0.0913,-0.04059 -0.15728,0.05073 z"
     id="path880"
     inkscape:connector-curvature="0" />
  <path
     style="fill:#dfc9b1;fill-opacity:1;stroke:#000000;stroke-width:0.062625;stroke-miterlimit:4;stroke-dasharray:none;stroke-opacity:0.39215686"
     d="m 6.183391,6.5079887 -0.11162,0.05073 -0.17757,0.01015 -0.23845,-0.01522 -0.0609,-0.01522 -0.10147,0.02537 -0.25875,0.213086 -0.0355,0.126836 0.0862,0.08117 0.12176,0.07103 0.21309,0.02536 0.14206,-0.02537 0.21816,-0.01522 0.12683,-0.03552 0.11669,-0.03044 0.0406,-0.197865 -0.0152,-0.142057 z"
     id="path886"
     inkscape:connector-curvature="0" />
  <path
     style="fill:#cf5853;fill-opacity:1;stroke:#000000;stroke-width:0.062625;stroke-miterlimit:4;stroke-dasharray:none;stroke-opacity:0.39215686"
     d="m 3.710961,4.5043617 0.0682,0.07877 0.13498,0.121487 0.099,0.116988 0.10349,0.107989 0.12599,0.036 h 0.14399 l 0.0405,0.19348 0.0945,0.107989 0.17548,0.045 0.17548,-0.009 0.09,-0.027 0.0855,-0.0495 0.036,-0.07199 0.036,-0.139485 -0.005,-0.05849 0.0405,-0.036 h 0.10799 l 0.12599,-0.027 0.13048,-0.08099 0.12149,-0.08099 0.12149,-0.112488 0.12149,-0.08999 0.12148,-0.06749 -0.33296,-0.07199 -0.22048,-0.027 -0.12697,-0.05654 -0.11669,0.136984 -0.0761,0.03044 h -0.19279 l -0.11162,0.05073 -0.14206,0.01522 -0.16843,-0.07661 -0.0574,-0.01276 -0.083,0.03191 -0.19146,-0.03829 -0.22337,0.04786 z"
     id="path888"
     inkscape:connector-curvature="0" />
  <path
     style="fill:#dfc9b1;fill-opacity:1;stroke:#000000;stroke-width:0.062625;stroke-miterlimit:4;stroke-dasharray:none;stroke-opacity:0.39215686"
     d="m 3.139311,6.3050507 0.11336,-0.0211 0.13949,-0.027 0.11248,0.0045 0.17099,0.0045 0.0855,0.04049 0.081,0.045 0.072,0.0405 0.042,0.258103 0.0355,0.11669 -0.27553,0.04366 -0.29697,0.07199 -0.24298,-0.0135 -0.0572,0.0095 0.0304,-0.111617 z"
     id="path892"
     inkscape:connector-curvature="0" />
  <path
     style="fill:#cf5853;fill-opacity:1;stroke:#000000;stroke-width:0.062625;stroke-miterlimit:4;stroke-dasharray:none;stroke-opacity:0.39215686"
     d="m 6.006391,4.4616387 0.29118,0.136731 0.1326,0.160514 0.17447,0.146557 0.0628,0.111662 0.14656,0.118641 0.0907,0.07677 v 0.09771 l 0.15354,0.104683 0.24426,0.146556 0.18145,0.230303 0.14655,0.230303 0.11864,0.418734 0.0977,0.460606 0.0209,0.209366 0.0349,0.383838 0.0279,0.321029 -0.0209,0.293112 -0.0628,0.348945 -0.0558,0.174472 -0.0209,-0.230303 -0.0279,-0.216345 -0.0349,-0.132599 -0.0558,-0.265198 -0.0628,-0.24426 -0.0907,-0.25124 -0.0768,-0.230303 -0.14655,-0.43967 -0.12562,-0.216345 -0.1326,-0.195409 -0.17447,-0.181451 -0.0349,-0.02094 -0.31405,0.174472 -0.13958,0.04187 -0.12562,0.07677 -0.0768,0.02792 -0.13958,0.06281 -0.14655,0.02094 -0.11782,-0.0368 0.0152,-0.223233 -0.0254,-0.218158 0.071,-0.578375 0.005,-0.64433 z"
     id="path894"
     inkscape:connector-curvature="0" />
  <path
     style="fill:#cf5853;fill-opacity:1;stroke:#000000;stroke-width:0.062625;stroke-miterlimit:4;stroke-dasharray:none;stroke-opacity:0.39215686"
     d="m 2.836051,5.1287647 -0.12562,0.07677 -0.1326,0.18145 -0.0349,0.12562 -0.1326,0.209367 -0.15353,0.132598 -0.18145,0.07677 -0.11167,0.01396 -0.14655,0.216345 -0.13958,0.104684 -0.0628,0.216345 -0.0419,0.202387 0.0489,0.286135 0.0768,0.251239 v 0.369881 0.362901 l 0.0279,0.230304 0.0349,0.348943 0.0837,0.216346 0.23728,0.286134 0.24426,0.209366 0.33499,0.223324 0.17447,0.007 -0.36988,-0.230303 -0.29311,-0.251239 -0.18145,-0.328008 -0.0768,-0.244261 -0.007,-0.272176 v -0.202387 l 0.007,-0.286135 0.0209,-0.362902 0.0209,-0.223323 -0.01,-0.146788 -0.005,-0.481979 0.12176,-0.157277 0.1163,-0.100274 0.18145,-0.02094 0.2303,-0.01396 0.19541,-0.132599 0.11166,-0.07677 0.19541,-0.08375 0.34197,-0.12562 h 0.14655 0.0907 l 0.0442,-0.05999 -0.2283,-0.735652 -0.0254,-0.253673 0.0507,-0.14713 -0.15528,0.07284 -0.0628,0.09072 -0.10468,0.12562 -0.0838,0.104683 -0.0977,0.09771 z"
     id="path896"
     inkscape:connector-curvature="0" />
  <path
     style="fill:#806600;fill-opacity:1;stroke:#000000;stroke-width:0.062625;stroke-miterlimit:4;stroke-dasharray:none;stroke-opacity:0.39215686"
     d="m 2.836051,9.4766067 -0.0901,-0.179086 -0.0878,-0.211777 -0.0362,-0.191116 -0.0413,-0.18595 v -0.154959 l -0.0258,-0.232438 -0.005,-0.196281 0.0207,-0.211777 v -0.165289 l 0.0258,-0.139463 0.0207,-0.170455 0.0568,-0.144628 0.0878,-0.129132 0.12913,-0.134297 0.14463,-0.08264 0.0838,-0.06896 -0.16742,0.03551 -0.21816,-0.01015 -0.345,0.03044 -0.44139,-0.0051 0.01,0.146788 -0.0372,0.506772 -0.0155,0.340909 0.0103,0.315082 5.1e-4,0.18416 0.0768,0.244261 0.18145,0.328008 0.25264,0.19915 0.22727,0.149793 z"
     id="path898"
     inkscape:connector-curvature="0" />
  <path
     style="fill:#806600;fill-opacity:1;stroke:#000000;stroke-width:0.062625;stroke-miterlimit:4;stroke-dasharray:none;stroke-opacity:0.39215686"
     d="m 3.717681,5.6759407 -0.0442,0.05999 h -0.23728 l -0.53737,0.209367 -0.30707,0.209366 -0.41176,0.0349 -0.0503,0.05461 0.90308,-0.0051 0.10654,0.06596 0.25285,-0.04809 0.28347,0.009 0.23848,0.125987 10e-4,-0.11226 -0.0812,-0.04566 -0.11669,-0.558081 z"
     id="path900"
     inkscape:connector-curvature="0" />
  <path
     style="fill:#806600;fill-opacity:1;stroke:#000000;stroke-width:0.062625;stroke-miterlimit:4;stroke-dasharray:none;stroke-opacity:0.39215686"
     d="m 5.747071,6.3760807 -0.0406,0.08118 -0.11162,0.08118 0.29934,0.03044 0.17757,-0.01015 0.11161,-0.05073 0.22324,-0.07103 0.0913,0.04059 0.066,0.06595 0.0457,0.106542 v 0.147131 l -0.0254,0.13191 -0.0304,0.06595 -0.0836,0.02975 0.0568,0.144628 0.0517,0.242769 0.0723,0.237603 0.13946,0.211777 0.0568,0.154959 0.0413,0.237604 0.0207,0.206611 0.0775,0.123967 0.0207,0.17562 0.0516,0.315082 v 0.268595 l 0.0103,0.242769 0.0516,0.04132 0.0723,-0.03099 0.093,-0.09298 0.0671,-0.123968 0.0826,-0.10847 0.0981,-0.129133 0.0981,-0.144628 0.062,-0.108471 0.0465,-0.129132 0.0503,-0.128168 -0.0489,-0.446648 -0.15354,-0.642057 -0.31405,-0.921213 -0.12562,-0.216345 -0.1326,-0.195409 -0.17447,-0.181451 -0.0349,-0.02094 -0.31405,0.174472 -0.13957,0.04187 -0.20239,0.104684 -0.13958,0.06281 -0.14656,0.02094 z"
     id="path902"
     inkscape:connector-curvature="0" />
  <path
     style="fill:#68aba2;fill-opacity:1;stroke:#000000;stroke-width:0.062625;stroke-miterlimit:4;stroke-dasharray:none;stroke-opacity:0.39215686"
     d="m 3.119021,6.8783527 0.0866,0.08962 0.0568,0.118802 0.0258,0.139463 0.0103,0.247934 v 1.131198 l -0.0413,0.216942 -0.1498,0.273761 -0.0413,0.154958 -0.0465,0.113637 -0.18365,0.111937 -0.0901,-0.179086 -0.0878,-0.211777 -0.0775,-0.377066 v -0.154957 l -0.0258,-0.232438 -0.005,-0.196281 0.0207,-0.211777 v -0.165289 l 0.0465,-0.309918 0.0568,-0.144628 0.0878,-0.129132 0.12913,-0.134297 0.14463,-0.08264 z"
     id="path904"
     inkscape:connector-curvature="0" />
  <path
     style="fill:#68aba2;fill-opacity:1;stroke:#000000;stroke-width:0.062625;stroke-miterlimit:4;stroke-dasharray:none;stroke-opacity:0.39215686"
     d="m 6.470121,7.0247927 -0.0939,-0.0044 -0.15221,-0.0051 0.003,0.872062 0.0207,0.206611 0.031,0.294422 0.0826,0.18595 0.24794,0.542356 0.18595,0.3719 0.0465,0.07231 0.0981,0.03099 0.12913,-0.0052 -0.0103,-0.511363 -0.0723,-0.490703 -0.0775,-0.123967 -0.0207,-0.206611 -0.0413,-0.237604 -0.0568,-0.154958 -0.13946,-0.211777 -0.0723,-0.237603 -0.0516,-0.242769 z"
     id="path906"
     inkscape:connector-curvature="0" />
  <path
     style="fill:#68aba2;fill-opacity:1;stroke:#000000;stroke-width:0.062625;stroke-miterlimit:4;stroke-dasharray:none;stroke-opacity:0.39215686"
     d="m 5.359581,12.386364 h -0.20145 l -0.0413,0.134297 0.093,0.144629 0.0413,0.253098 0.2686,0.02583 0.1343,0.118801 0.21177,0.144629 0.24794,0.103306 0.22211,0.01033 h 0.16528 l 0.0568,-0.108471 -0.093,-0.03616 -0.13429,-0.08781 -0.0878,-0.154958 -0.10331,-0.09814 -0.0775,-0.06715 -0.0155,-0.0155 -0.27376,0.03099 -0.0826,0.04649 -0.062,-0.05165 -0.0207,-0.09298 -0.0413,-0.05165 h -0.1033 l -0.0413,-0.06198 z"
     id="path908"
     inkscape:connector-curvature="0" />
  <path
     style="fill:#68aba2;fill-opacity:1;stroke:#000000;stroke-width:0.062625;stroke-miterlimit:4;stroke-dasharray:none;stroke-opacity:0.39215686"
     d="m 4.832721,12.391529 0.005,0.428719 -0.15496,0.149793 -0.20661,0.0155 -0.20145,0.113636 -0.19111,0.129132 -0.0671,0.03616 h -0.20661 l -0.27376,0.03099 -0.0826,-0.07748 0.1188,-0.05165 0.35124,-0.387397 0.0516,-0.04132 -0.0207,0.108472 0.0671,0.07231 0.1033,0.02066 0.1188,-0.01033 0.0516,-0.02066 0.0775,-0.05165 0.0465,-0.06715 0.0568,-0.06198 0.062,-0.05165 0.0775,-0.06715 0.0878,-0.103306 0.0155,-0.07748 0.0155,-0.05165 z"
     id="path910"
     inkscape:connector-curvature="0" />
  <path
     style="fill:#c04d49;fill-opacity:1;stroke:#000000;stroke-width:0.062625;stroke-miterlimit:4;stroke-dasharray:none;stroke-opacity:0.39215686"
     d="m 3.975281,12.737603 0.11364,-0.118801 0.0775,-0.05682 0.093,-0.06715 0.0981,-0.07231 0.0516,-0.03616 0.32541,-0.01033 -0.031,0.129132 -0.22727,0.222108 -0.10331,0.129132 -0.12913,0.07231 -0.22211,-0.01033 -0.0671,-0.07231 z"
     id="path912"
     inkscape:connector-curvature="0" />
  <path
     style="fill:#c04d49;fill-opacity:1;stroke:#000000;stroke-width:0.062625;stroke-miterlimit:4;stroke-dasharray:none;stroke-opacity:0.39215686"
     d="m 5.359581,12.386364 h 0.43905 l 0.0826,0.08781 0.0671,0.07231 0.0465,0.08264 0.0516,0.123967 -0.27376,0.03099 -0.0826,0.04649 -0.062,-0.05165 -0.0207,-0.09298 -0.0413,-0.05165 h -0.10331 z"
     id="path914"
     inkscape:connector-curvature="0" />
  <path
     style="fill:#3f3b35;fill-opacity:1;stroke:#000000;stroke-width:0.062625;stroke-miterlimit:4;stroke-dasharray:none;stroke-opacity:0.39215686"
     d="m 3.514751,4.5394857 0.19621,-0.03512 0.40562,0.425229 0.12599,0.036 h 0.14398 l 0.0405,0.19348 0.0945,0.107989 0.17549,0.045 0.17548,-0.009 0.17548,-0.07649 0.072,-0.211478 0.036,-0.09449 h 0.10799 l 0.12599,-0.027 0.49495,-0.364463 0.12148,-0.06749 -0.19336,0.250346 -0.36529,0.2486 -0.25875,0.04059 -0.0203,1.075574 -0.1522,0.26382 v 0.502274 l -0.87771,-0.0051 0.13698,-0.106543 0.0761,-0.04566 0.15728,-0.06088 v -0.268894 l -0.0406,-0.339922 -0.13698,-0.370363 -0.0152,-0.167424 -0.0964,-0.197865 -0.28919,-0.273967 -0.0558,-0.228306 z"
     id="path916"
     inkscape:connector-curvature="0" />
  <path
     style="fill:#3f3b35;fill-opacity:1;stroke:#000000;stroke-width:0.062625;stroke-miterlimit:4;stroke-dasharray:none;stroke-opacity:0.39215686"
     d="m 3.991651,6.7667357 0.005,0.07103 -0.13191,0.02537 -0.14713,0.01522 -0.10654,0.05073 v 0.0761 l 0.25874,0.197865 0.0101,0.44139 -0.0507,0.563154 v 0.26382 l -0.0355,0.177571 -0.0101,0.41095 -0.19455,-0.07417 -0.11678,-0.07556 -0.0378,-0.06182 0.0206,-0.113344 0.0653,-0.202647 0.0687,-0.188907 0.0206,-0.21295 v -0.195776 -0.144257 -0.0996 l 0.0275,-0.0893 0.055,-0.127083 0.0172,-0.10991 v -0.106475 l -0.0481,-0.03778 -0.0893,0.05152 -0.0412,0.079 -0.0927,0.195776 -0.0687,0.16143 -0.0549,0.288513 -0.026,-0.770342 -0.0258,-0.139463 -0.0568,-0.118802 -0.0866,-0.08962 0.30014,0.004 0.29697,-0.07199 z"
     id="path918"
     inkscape:connector-curvature="0" />
  <path
     style="fill:#3f3b35;fill-opacity:1;stroke:#000000;stroke-width:0.062625;stroke-miterlimit:4;stroke-dasharray:none;stroke-opacity:0.39215686"
     d="m 6.223971,6.9747477 -0.24352,0.06595 -0.21816,0.01522 -0.14206,0.02537 -0.21308,-0.02536 0.11669,0.142056 0.0102,0.08625 0.13698,0.08625 0.22323,0.517493 0.16743,0.613889 0.0348,0.05801 0.0824,-0.01374 0.0481,-0.03435 0.0584,-0.03778 -0.006,-0.08557 -0.0517,-0.501033 -0.003,-0.872062 z"
     id="path920"
     inkscape:connector-curvature="0" />
  <path
     style="fill:#3f3b35;fill-opacity:1;stroke:#000000;stroke-width:0.062625;stroke-miterlimit:4;stroke-dasharray:none;stroke-opacity:0.39215686"
     d="m 4.433041,7.4922417 0.1725,0.04059 0.16742,-0.02537 0.0964,-0.02537 0.35007,-0.172497 -0.0406,0.116688 0.0447,0.86056 0.0207,0.278925 0.0379,0.251378 0.0448,0.303031 0.0346,0.345638 -0.16235,-0.13191 -0.10654,-0.284115 -0.26382,0.36529 -0.26382,-0.405877 -0.0457,0.248599 v 0.208011 l -0.18416,-0.139025 0.0379,-0.309918 0.0413,-0.216942 0.039,-0.186455 0.0264,-0.319743 0.0207,-0.210055 -0.003,-0.203168 -0.003,-0.08893 z"
     id="path922"
     inkscape:connector-curvature="0" />
  <path
     style="fill:#cf5853;fill-opacity:1;stroke:#000000;stroke-width:0.062625;stroke-miterlimit:4;stroke-dasharray:none;stroke-opacity:0.39215686"
     d="m 3.314311,7.9965817 0.0549,-0.288513 0.20265,-0.436204 0.0893,-0.05152 0.0481,0.03778 -0.0172,0.216385 -0.055,0.127083 -0.0275,0.0893 -0.0206,0.652588 -0.13396,0.391554 -0.0206,0.113344 0.15456,0.137387 0.19456,0.07417 -0.0812,0.126837 -0.0304,0.248599 -0.066,0.202939 -0.0152,0.228306 -0.0761,0.2384533 -0.0254,0.197865 -0.0964,0.324701 -0.0152,0.268894 -0.22323,0.842194 -0.16743,0.446465 -0.066,0.355142 -0.0609,0.147131 -0.0254,0.101469 -0.14772,0.0088 -0.181,-0.04344 -0.23893,-0.123084 -0.19187,-0.08326 -0.17376,-0.101363 -0.10861,-0.04706 -0.0543,-0.08688 -0.0109,-0.0724 0.0615,-0.09774 0.10861,-0.213586 0.0941,-0.235307 0.10498,-0.228068 0.0869,-0.228067 0.0796,-0.199106 0.0579,-0.191866 0.0724,-0.166525 0.076,-0.141185 0.11584,-0.195486 0.0724,-0.267888 0.12309,-0.2751293 0.0507,-0.217207 0.004,-0.106424 0.18365,-0.111937 0.0878,-0.268595 0.1498,-0.273761 0.0413,-0.216942 z"
     id="path924"
     inkscape:connector-curvature="0" />
  <path
     style="fill:#cf5853;fill-opacity:1;stroke:#000000;stroke-width:0.062625;stroke-miterlimit:4;stroke-dasharray:none;stroke-opacity:0.39215686"
     d="m 4.519291,9.4658157 -0.18416,-0.139025 -0.034,0.270937 -0.0101,0.4413913 -0.0507,0.39573 -0.0863,0.289187 -0.0457,0.294261 -0.31963,1.303879 0.0424,0.0615 0.57803,0.0027 0.32542,-0.01033 0.0981,0.0155 0.32541,-0.0052 h 0.20145 0.43905 l 0.3157,-0.03327 -0.17838,-0.519835 -0.1376,-0.494352 -0.0815,-0.244628 -0.0866,-0.321075 -0.0866,-0.34146 -0.0662,-0.356749 -0.0714,-0.3414603 -0.0444,-0.267723 -0.16235,-0.13191 0.0609,0.213085 0.37544,1.7097573 0.0203,0.111617 -0.38559,-0.0051 -0.0558,-0.142057 -0.048,-0.239072 -0.051,-0.208953 -0.0662,-0.188567 -0.0733,-0.225897 -0.066,-0.116689 -0.0558,-0.01522 -0.0609,0.197865 -0.0406,0.263821 -0.0152,0.319627 -0.0406,0.2486 0.0101,0.147131 -0.4769,-0.0203 -0.0203,-0.16235 0.13191,-0.476906 0.0457,-0.218159 0.0203,-0.446464 0.0862,-0.3449963 z"
     id="path926"
     inkscape:connector-curvature="0" />
  <path
     style="fill:#cf5853;fill-opacity:1;stroke:#000000;stroke-width:0.062625;stroke-miterlimit:4;stroke-dasharray:none;stroke-opacity:0.39215686"
     d="m 6.285311,8.4740017 -0.10648,0.07213 -0.0824,0.01374 -0.0348,-0.05801 0.0728,0.641942 0.0337,0.230693 0.10147,0.481979 0.086,0.5348023 0.068,0.289188 0.11341,0.487649 0.0737,0.277847 0.0964,0.289187 0.0737,0.221143 0.068,0.204133 0.0194,0.136386 0.11669,0.197865 0.0152,0.213086 0.34201,-0.127732 0.18145,-0.06237 0.18712,-0.09073 0.19846,-0.124747 0.17578,-0.147429 0.14743,-0.181451 v -0.113406 l -0.0454,-0.136089 -0.10206,-0.192791 -0.13609,-0.215473 -0.0851,-0.198462 -0.11341,-0.204132 -0.0737,-0.181451 -0.034,-0.119077 -0.051,-0.136089 -0.0794,-0.198461 -0.068,-0.153099 -0.0851,-0.1984623 -0.0964,-0.238154 -0.0696,-0.09105 -0.0723,0.03099 -0.0516,-0.04132 -0.12913,0.0052 -0.0981,-0.03099 z"
     id="path928"
     inkscape:connector-curvature="0" />
  <path
     id="path2551-37"
     d="m 6.479981,4.1108247 0.17651,-0.116186 0.0238,-0.07191 0.11818,-0.111374 -0.0293,-0.194896 -0.0519,-0.06963 -0.0246,-0.07452 0.0287,-0.07562 0.10309,-0.0382 0.0595,0.01753 0.003,-0.141455 -0.037,-0.08075 0.008,-0.114142 0.0213,-0.08557 0.0671,-0.03457 0.0709,-0.06062 0.02,-0.07688 0.001,-0.07073 -0.0556,-0.105621 0.0175,-0.05952 0.046,-0.04207 0.0546,-0.0098 0.0434,0.0063 -0.0219,-0.184951 4.4e-4,-0.155111 0.0896,-0.0978 0.10941,-0.08161 0.0508,0.01626 0.10689,-0.06425 0.12417,-0.0307 0.10672,-0.0022 0.0507,0.04729 0.0979,0.05858 0.15368,0.07113 0.0742,0.09946 0.0418,0.170112 0.027,0.119196 0.006,0.08067 -0.0401,0.153767 -0.0362,0.06567 -0.0721,0.03828 -0.1364,-0.03758 -0.12645,-0.045 -0.005,0.03473 -0.007,0.10546 -0.0597,0.04452 -0.0769,-0.02005 -0.078,-0.07342 0.002,0.106723 0.011,0.07696 -0.0226,0.09425 -0.0623,0.0929 -0.0425,0.109088 -0.0486,0.09046 -0.0474,0.08178 0.0371,0.04973 0.0445,0.05968 -0.0138,0.06449 -0.0298,0.02226 -0.0659,0.05691 -0.0459,0.01105 -0.02,0.07688 -0.0325,0.101669 -0.0276,0.09796 -0.066,0.08793 -0.10199,0.09156 -0.0684,0.04325 -0.0298,0.02226 -0.0461,0.07309 -0.0337,0.07933 -0.0757,0.0023 -0.0533,-0.02992 -0.0594,-0.07957 -0.0631,-0.08455 z"
     style="fill:#ffff00;stroke:#000000;stroke-width:0.03102236px;stroke-linecap:butt;stroke-linejoin:miter;stroke-opacity:1"
     inkscape:connector-curvature="0" />
  <path
     id="path2553-1"
     d="m 7.144331,2.5006257 0.0408,0.03056 0.013,0.03298 0.002,0.04912 -0.0156,0.03104 -0.0249,0.01859 -0.0536,0.03219 -0.0224,0.0012 -0.045,0.01501"
     style="fill:#ffff00;stroke:#000000;stroke-width:0.03102236px;stroke-linecap:butt;stroke-linejoin:miter;stroke-opacity:1"
     inkscape:connector-curvature="0" />
  <path
     id="path2555-22"
     d="m 7.524471,2.8130807 0.02,-0.06523 0.0181,-0.0329 c 0,0 -0.003,-0.0041 0.0155,-0.01154 0.0151,-0.0062 0.0636,-0.02804 0.0636,-0.02804 l 0.0516,0.01195 0.0573,0.03453"
     style="fill:none;stroke:#000000;stroke-width:0.03102236px;stroke-linecap:butt;stroke-linejoin:miter;stroke-opacity:1"
     inkscape:connector-curvature="0" />
  <path
     id="path2557-0"
     d="m 7.314311,3.4652457 -0.0632,-0.01378 -0.0405,0.01855 -0.0399,0.04528 -0.0113,0.03168 0.0167,0.03797 0.0278,0.06846 0.0254,0.03923 0.0111,0.03674"
     style="fill:none;stroke:#000000;stroke-width:0.03102236px;stroke-linecap:butt;stroke-linejoin:miter;stroke-opacity:1"
     inkscape:connector-curvature="0" />
  <path
     id="path2559-21"
     d="m 6.883951,3.3760227 0.0452,0.0286 0.0129,0.04853 5e-4,0.04228 -0.0393,0.04093 -0.028,0.0248 -0.0299,0.0223 -0.0249,0.003 -0.0516,-0.01195 -0.0517,-0.02771"
     style="fill:none;stroke:#000000;stroke-width:0.03102236px;stroke-linecap:butt;stroke-linejoin:miter;stroke-opacity:1"
     inkscape:connector-curvature="0" />
  <path
     id="path2561-75"
     d="m 6.479981,4.1108247 0.0837,-0.01086 0.0585,-0.0048 0.0708,0.01697 0.0571,0.03496 0.0428,0.04176 0.0365,0.05418 0.0186,0.08095"
     style="fill:none;stroke:#000000;stroke-width:0.03102236px;stroke-linecap:butt;stroke-linejoin:miter;stroke-opacity:1"
     inkscape:connector-curvature="0" />
  <path
     id="path2563-17"
     d="m 6.560101,4.0782227 c 0.003,-0.0026 0.0298,-0.01989 0.0583,-0.03843 l 0.0518,-0.03371 0.004,-0.01263 c 0.002,-0.0069 0.008,-0.02366 0.0124,-0.03714 l 0.008,-0.02451 0.0588,-0.05535 c 0.0323,-0.03045 0.0596,-0.05655 0.0606,-0.05801 0.003,-0.0047 -0.0294,-0.210953 -0.0344,-0.2178 -0.005,-0.0062 -0.004,-0.0062 0.0199,-0.0019 0.0135,0.0024 0.0314,0.0036 0.0397,0.0025 0.0149,-0.0019 0.0155,-0.0022 0.0419,-0.02407 0.0147,-0.01217 0.0383,-0.03409 0.0524,-0.0487 l 0.0256,-0.02657 -2.5e-4,-0.02407 c -1.3e-4,-0.01348 -0.004,-0.03726 -0.008,-0.05403 l -0.008,-0.02996 -0.0215,-0.01342 -0.0215,-0.01342 0.002,-0.06775 0.001,-0.06775 -0.0185,-0.03981 -0.0185,-0.03981 0.004,-0.05546 c 0.004,-0.05979 0.0174,-0.125128 0.0269,-0.132137 0.003,-0.0021 0.0168,-0.0098 0.0311,-0.01706 0.0235,-0.01201 0.0296,-0.0164 0.0641,-0.04588 0.0244,-0.02089 0.0387,-0.03472 0.0399,-0.03851 0.0128,-0.0401 0.0213,-0.08372 0.0216,-0.109501 1.2e-4,-0.01618 0.002,-0.02983 0.003,-0.03034 0.002,-5e-4 0.009,-0.0029 0.0149,-0.0053 0.006,-0.0024 0.0175,-0.0047 0.0248,-0.0051 0.011,-5.93e-4 0.0175,-0.0033 0.0404,-0.01713 0.048,-0.02884 0.0573,-0.037 0.0689,-0.0598 0.009,-0.01808 0.01,-0.02229 0.009,-0.04703 -7.2e-4,-0.01958 -0.003,-0.03288 -0.009,-0.04761 l -0.008,-0.02045 -0.0194,-0.01427 -0.0194,-0.01427 -0.0107,-0.08951 c -0.008,-0.07149 -0.0106,-0.103566 -0.0106,-0.159333 6e-5,-0.0384 2.5e-4,-0.07128 4.4e-4,-0.07305 1.8e-4,-0.0018 0.0196,-0.02438 0.0433,-0.05023 0.0429,-0.04686 0.0432,-0.04711 0.0925,-0.08386 l 0.0495,-0.03686 0.0196,0.0067 c 0.0108,0.0037 0.022,0.0074 0.025,0.0082 0.004,0.0012 0.0165,-0.0052 0.0595,-0.03124 l 0.0541,-0.0328 0.0616,-0.01541 c 0.0573,-0.01433 0.0649,-0.01548 0.10925,-0.01634 0.0262,-5.06e-4 0.0488,-5.06e-4 0.0502,3e-6 0.001,5e-4 0.0123,0.01024 0.0242,0.02161 0.0321,0.03064 0.10062,0.07085 0.196,0.115089 l 0.0752,0.03489 0.0362,0.04857 0.0362,0.04857 0.0207,0.08477 c 0.0377,0.154367 0.0461,0.194298 0.0489,0.234628 l 0.003,0.0385 -0.0197,0.07534 c -0.0178,0.06799 -0.0213,0.07819 -0.036,0.10458 l -0.0163,0.02924 -0.0306,0.01623 c -0.0168,0.0089 -0.0317,0.01597 -0.0331,0.01566 -0.0371,-0.0086 -0.14069,-0.04009 -0.18923,-0.05745 -0.0501,-0.01793 -0.07,-0.02658 -0.0917,-0.03988 -0.0234,-0.01437 -0.0323,-0.01805 -0.058,-0.02393 -0.03,-0.0069 -0.0305,-0.0069 -0.0476,7.46e-4 -0.01,0.0042 -0.029,0.01296 -0.0433,0.01938 l -0.0261,0.01168 -0.012,0.02206 c -0.007,0.01213 -0.0143,0.02977 -0.0172,0.03919 -0.007,0.02173 -0.009,0.02502 -0.0133,0.0208 -0.005,-0.0049 -0.002,0.135946 0.005,0.181123 0.005,0.03662 0.005,0.03669 -0.006,0.0812 l -0.0108,0.04455 -0.0301,0.04446 c -0.0284,0.04191 -0.0313,0.04761 -0.0515,0.09945 -0.0209,0.05361 -0.0471,0.105887 -0.091,0.181781 l -0.0202,0.03487 -0.0183,-0.004 c -0.0387,-0.0086 -0.0395,-0.0085 -0.0654,0.0041 l -0.0238,0.01164 -0.0216,0.02499 c -0.0179,0.02069 -0.0228,0.02832 -0.0286,0.04433 l -0.007,0.01935 0.0254,0.06005 c 0.014,0.03303 0.0305,0.06801 0.0367,0.07775 0.0189,0.02948 0.0205,0.0401 0.0116,0.07568 -0.004,0.01695 -0.0156,0.05539 -0.0251,0.08542 -0.01,0.03003 -0.0237,0.07682 -0.0313,0.10398 l -0.0139,0.04938 -0.0312,0.04156 c -0.0299,0.03982 -0.0332,0.04341 -0.0803,0.08574 -0.0446,0.04013 -0.0528,0.0465 -0.0885,0.06945 -0.0569,0.03659 -0.0607,0.03972 -0.0751,0.0626 -0.007,0.01099 -0.0132,0.01989 -0.0139,0.01977 -7.2e-4,-1.25e-4 -0.003,-0.0089 -0.005,-0.01949 -0.004,-0.01717 -0.006,-0.02251 -0.0238,-0.04898 -0.0275,-0.04135 -0.0546,-0.0677 -0.0961,-0.0936 -0.0281,-0.01757 -0.0339,-0.01996 -0.0688,-0.02842 -0.0337,-0.0082 -0.0419,-0.0089 -0.0709,-0.0064 -0.0393,0.0033 -0.0391,0.0034 -0.031,-0.0026 z"
     style="fill:#008000;fill-opacity:1;stroke:none;stroke-width:0.00274202;stroke-opacity:0.02617804"
     inkscape:connector-curvature="0" />
  <path
     style="fill:url(#linearGradient30-80);fill-opacity:1;fill-rule:nonzero;stroke:#000000;stroke-width:0.00380282;stroke-miterlimit:4;stroke-dasharray:0.00380282, 0.00760564;stroke-dashoffset:0;stroke-opacity:0.96254536"
     d="m 6.590371,4.0794737 c 0.0565,-0.0051 0.11803,0.01535 0.1727,0.05726 0.0353,0.0271 0.0819,0.08922 0.0884,0.117928 0.002,0.01061 0.005,0.01908 0.005,0.01882 3.1e-4,-2.5e-4 0.007,-0.0094 0.0149,-0.02026 0.0127,-0.01759 0.0206,-0.0242 0.0716,-0.0598 0.0772,-0.05392 0.1239,-0.09622 0.16652,-0.150973 l 0.0328,-0.04214 0.0326,-0.108922 c 0.0381,-0.127324 0.0452,-0.155915 0.0427,-0.171367 -10e-4,-0.0063 -0.008,-0.02302 -0.0161,-0.03725 -0.008,-0.01423 -0.0251,-0.051 -0.0383,-0.08171 l -0.0241,-0.05583 0.009,-0.02063 c 0.01,-0.02228 0.0372,-0.05756 0.0543,-0.0696 0.0243,-0.01709 0.0484,-0.02234 0.0766,-0.01664 l 0.0269,0.0054 0.0285,-0.05079 c 0.0366,-0.06508 0.0594,-0.111055 0.0785,-0.158304 0.0213,-0.05249 0.0299,-0.06895 0.0569,-0.108897 0.013,-0.01916 0.0253,-0.03963 0.0275,-0.04549 0.01,-0.02652 0.0202,-0.08091 0.0186,-0.09675 -0.004,-0.03921 -0.01,-0.152306 -0.009,-0.176063 4.4e-4,-0.014 0.003,-0.02693 0.005,-0.02874 0.002,-0.0018 0.009,-0.01437 0.0136,-0.02792 0.005,-0.01355 0.0131,-0.03166 0.0179,-0.04025 l 0.009,-0.01562 0.0417,-0.01849 0.0417,-0.01849 0.0291,0.0051 c 0.0203,0.0036 0.0405,0.01118 0.0666,0.02516 0.0206,0.01102 0.0628,0.0289 0.0938,0.03972 0.0601,0.02099 0.17071,0.0544 0.18211,0.05499 0.004,1.88e-4 0.0202,-0.0069 0.0364,-0.01569 l 0.0296,-0.01605 0.0159,-0.03129 c 0.01,-0.01916 0.0233,-0.05884 0.035,-0.102342 0.0258,-0.09572 0.0245,-0.110514 -0.0283,-0.328045 l -0.0243,-0.09982 -0.0372,-0.04987 -0.0372,-0.04988 -0.0405,-0.01858 c -0.11273,-0.0517 -0.18388,-0.0921 -0.22493,-0.127725 -0.0139,-0.01203 -0.0282,-0.02261 -0.0319,-0.0235 -0.0212,-0.0051 -0.10493,0.004 -0.15803,0.01726 -0.0569,0.01417 -0.059,0.01506 -0.10965,0.04519 -0.0284,0.0169 -0.0539,0.03137 -0.0567,0.03215 -0.003,7.82e-4 -0.0148,-0.0019 -0.0268,-0.006 l -0.0217,-0.0075 -0.0513,0.03828 c -0.045,0.03355 -0.0565,0.04394 -0.0928,0.08401 l -0.0415,0.04572 6e-5,0.05995 c 6e-5,0.07144 0.002,0.100709 0.0126,0.192161 l 0.008,0.06919 0.0198,0.01466 c 0.0188,0.01398 0.0201,0.01559 0.0265,0.03451 0.004,0.01092 0.008,0.03131 0.009,0.04531 0.002,0.02082 1.3e-4,0.02996 -0.01,0.05015 l -0.0117,0.02468 -0.034,0.02228 c -0.0365,0.02387 -0.0424,0.02653 -0.0791,0.03565 l -0.0238,0.0059 -0.005,0.04383 c -0.003,0.02411 -0.008,0.05594 -0.0125,0.07074 -0.007,0.02364 -0.01,0.02928 -0.0277,0.04639 -0.0272,0.02635 -0.0617,0.0519 -0.0925,0.06845 -0.0254,0.01364 -0.0255,0.01383 -0.0305,0.03088 -0.008,0.02832 -0.0154,0.07492 -0.0187,0.122765 l -0.003,0.04514 0.0185,0.0396 0.0185,0.0396 -0.002,0.06393 c -8.7e-4,0.03516 -0.001,0.0659 -5e-4,0.0683 6.3e-4,0.0024 0.009,0.0094 0.0191,0.01554 0.01,0.0061 0.0198,0.01346 0.0218,0.01626 0.005,0.007 0.0178,0.07748 0.0168,0.09447 -6.7e-4,0.01205 -0.004,0.01717 -0.0261,0.03939 -0.0418,0.04221 -0.0767,0.07105 -0.0883,0.073 -0.006,9.45e-4 -0.0225,9.4e-5 -0.0377,-0.0019 -0.0151,-0.002 -0.0274,-0.0027 -0.0273,-0.0016 6e-5,0.0011 0.005,0.02924 0.0112,0.06256 0.009,0.0484 0.0241,0.151005 0.0235,0.156784 -6e-5,6.73e-4 -0.027,0.0266 -0.0597,0.05762 l -0.0596,0.05639 -0.0129,0.03775 -0.0129,0.03775 -0.0453,0.02916 c -0.0249,0.01604 -0.0493,0.0328 -0.0542,0.03725 -0.009,0.008 -0.009,0.0081 0.0184,0.0056 z"
     id="path2581-41"
     inkscape:connector-curvature="0" />
</svg>
