<?xml version="1.0" encoding="UTF-8" standalone="no"?>
<svg
   xmlns:dc="http://purl.org/dc/elements/1.1/"
   xmlns:cc="http://creativecommons.org/ns#"
   xmlns:rdf="http://www.w3.org/1999/02/22-rdf-syntax-ns#"
   xmlns:svg="http://www.w3.org/2000/svg"
   xmlns="http://www.w3.org/2000/svg"
   xmlns:xlink="http://www.w3.org/1999/xlink"
   xmlns:sodipodi="http://sodipodi.sourceforge.net/DTD/sodipodi-0.dtd"
   xmlns:inkscape="http://www.inkscape.org/namespaces/inkscape"
   version="1.1"
   id="svg815"
   width="160"
   height="250"
   viewBox="0 0 160 250"
   sodipodi:docname="clubs06.svg"
   inkscape:version="0.92.5 (2060ec1f9f, 2020-04-08)">
  <sodipodi:namedview
     pagecolor="#ffffff"
     bordercolor="#666666"
     borderopacity="1"
     objecttolerance="10"
     gridtolerance="10"
     guidetolerance="10"
     inkscape:pageopacity="0"
     inkscape:pageshadow="2"
     inkscape:window-width="1918"
     inkscape:window-height="1017"
     id="namedview5011"
     showgrid="false"
     inkscape:zoom="12.988073"
     inkscape:cx="58.787879"
     inkscape:cy="238.93939"
     inkscape:window-x="0"
     inkscape:window-y="0"
     inkscape:window-maximized="1"
     inkscape:current-layer="svg815"
     inkscape:snap-page="true" />
  <metadata
     id="metadata821">
    <rdf:RDF>
      <cc:Work
         rdf:about="">
        <dc:format>image/svg+xml</dc:format>
        <dc:type
           rdf:resource="http://purl.org/dc/dcmitype/StillImage" />
        <dc:title></dc:title>
      </cc:Work>
    </rdf:RDF>
  </metadata>
  <defs
     id="defs819">
    <linearGradient
       gradientTransform="matrix(-0.11382866,-0.04897331,0.04897331,-0.11382866,11.360684,16.77034)"
       xlink:href="#linearGradient28"
       id="linearGradient30"
       x1="68.058258"
       y1="52.766853"
       x2="93.905167"
       y2="48.329338"
       gradientUnits="userSpaceOnUse" />
    <linearGradient
       id="linearGradient28">
      <stop
         style="stop-color:#d45500;stop-opacity:1;"
         offset="0"
         id="stop24" />
      <stop
         style="stop-color:#d45500;stop-opacity:0;"
         offset="1"
         id="stop26" />
    </linearGradient>
    <linearGradient
       xlink:href="#linearGradient28"
       id="linearGradient202"
       gradientUnits="userSpaceOnUse"
       gradientTransform="matrix(-0.10421379,0,0,-0.10421379,21.478984,12.331316)"
       x1="68.058258"
       y1="52.766853"
       x2="93.905167"
       y2="48.329338" />
    <linearGradient
       gradientTransform="matrix(0.09270834,0,0,0.10071509,9.635358,3.0600958)"
       xlink:href="#linearGradient28"
       id="linearGradient30-4"
       x1="68.058258"
       y1="52.766853"
       x2="93.905167"
       y2="48.329338"
       gradientUnits="userSpaceOnUse" />
    <linearGradient
       xlink:href="#linearGradient28"
       id="linearGradient367"
       gradientUnits="userSpaceOnUse"
       gradientTransform="matrix(0.0625,0,0,0.11444754,18.072663,2.4148925)"
       x1="68.058258"
       y1="52.766853"
       x2="93.905167"
       y2="48.329338" />
    <linearGradient
       xlink:href="#linearGradient28"
       id="linearGradient349"
       gradientUnits="userSpaceOnUse"
       gradientTransform="matrix(-0.0625,0,0,-0.11444754,30.014458,13.048996)"
       x1="68.058258"
       y1="52.766853"
       x2="93.905167"
       y2="48.329338" />
    <linearGradient
       gradientTransform="matrix(0.0625,0,0,0.11444754,22.258269,2.5882975)"
       xlink:href="#linearGradient28"
       id="linearGradient30-6"
       x1="68.058258"
       y1="52.766853"
       x2="93.905167"
       y2="48.329338"
       gradientUnits="userSpaceOnUse" />
    <linearGradient
       xlink:href="#linearGradient28"
       id="linearGradient554"
       gradientUnits="userSpaceOnUse"
       gradientTransform="matrix(-0.04739556,-0.02774335,0.02569172,-0.05118036,39.13871,8.9395546)"
       x1="68.058258"
       y1="52.766853"
       x2="93.905167"
       y2="48.329338" />
    <linearGradient
       xlink:href="#linearGradient28"
       id="linearGradient552"
       gradientUnits="userSpaceOnUse"
       gradientTransform="matrix(0.04739556,-0.02774335,-0.02569172,-0.05118036,30.774237,8.9206156)"
       x1="68.058258"
       y1="52.766853"
       x2="93.905167"
       y2="48.329338" />
    <linearGradient
       xlink:href="#linearGradient28"
       id="linearGradient518"
       gradientUnits="userSpaceOnUse"
       gradientTransform="matrix(-0.04739556,0.02774335,0.02569172,0.05118036,39.15765,6.5759136)"
       x1="68.058258"
       y1="52.766853"
       x2="93.905167"
       y2="48.329338" />
    <linearGradient
       gradientTransform="matrix(0.04739556,0.02774335,-0.02569172,0.05118036,30.793177,6.5948536)"
       xlink:href="#linearGradient28"
       id="linearGradient30-2"
       x1="68.058258"
       y1="52.766853"
       x2="93.905167"
       y2="48.329338"
       gradientUnits="userSpaceOnUse" />
    <linearGradient
       gradientTransform="matrix(-0.00182956,0.04406484,-0.05671844,-0.00142139,47.989828,4.511358)"
       xlink:href="#linearGradient28"
       id="linearGradient30-3"
       x1="68.058258"
       y1="52.766853"
       x2="93.905167"
       y2="48.329338"
       gradientUnits="userSpaceOnUse" />
    <linearGradient
       xlink:href="#linearGradient28"
       id="linearGradient1562"
       gradientUnits="userSpaceOnUse"
       gradientTransform="matrix(-0.0625,0,0,-0.0625,51.889458,7.060849)"
       x1="68.058258"
       y1="52.766853"
       x2="93.905167"
       y2="48.329338" />
    <linearGradient
       xlink:href="#linearGradient28"
       id="linearGradient1560"
       gradientUnits="userSpaceOnUse"
       gradientTransform="matrix(-0.0625,0,0,-0.0625,47.798548,7.004031)"
       x1="68.058258"
       y1="52.766853"
       x2="93.905167"
       y2="48.329338" />
    <linearGradient
       xlink:href="#linearGradient28"
       id="linearGradient1526"
       gradientUnits="userSpaceOnUse"
       gradientTransform="matrix(0.0625,0,0,0.0625,38.167361,8.526273)"
       x1="68.058258"
       y1="52.766853"
       x2="93.905167"
       y2="48.329338" />
    <linearGradient
       gradientTransform="matrix(0.0625,0,0,0.0625,42.25827,8.583091)"
       xlink:href="#linearGradient28"
       id="linearGradient30-9"
       x1="68.058258"
       y1="52.766853"
       x2="93.905167"
       y2="48.329338"
       gradientUnits="userSpaceOnUse" />
    <linearGradient
       xlink:href="#linearGradient28"
       id="linearGradient2120"
       gradientUnits="userSpaceOnUse"
       gradientTransform="matrix(-0.04785026,0,0,-0.05589801,11.058257,6.8616735)"
       x1="68.058258"
       y1="52.766853"
       x2="93.905167"
       y2="48.329338" />
    <linearGradient
       xlink:href="#linearGradient28"
       id="linearGradient2118"
       gradientUnits="userSpaceOnUse"
       gradientTransform="matrix(-0.04785026,0,0,-0.05589801,8.7855301,6.8616735)"
       x1="68.058258"
       y1="52.766853"
       x2="93.905167"
       y2="48.329338" />
    <linearGradient
       xlink:href="#linearGradient28"
       id="linearGradient2116"
       gradientUnits="userSpaceOnUse"
       gradientTransform="matrix(-0.04785026,0,0,-0.05589801,6.4370451,6.8616735)"
       x1="68.058258"
       y1="52.766853"
       x2="93.905167"
       y2="48.329338" />
    <linearGradient
       xlink:href="#linearGradient28"
       id="linearGradient2066"
       gradientUnits="userSpaceOnUse"
       gradientTransform="matrix(0.04785026,0,0,0.05589801,-0.90170594,8.5932485)"
       x1="68.058258"
       y1="52.766853"
       x2="93.905167"
       y2="48.329338" />
    <linearGradient
       xlink:href="#linearGradient28"
       id="linearGradient2048"
       gradientUnits="userSpaceOnUse"
       gradientTransform="matrix(0.04785026,0,0,0.05589801,1.3710221,8.5932485)"
       x1="68.058258"
       y1="52.766853"
       x2="93.905167"
       y2="48.329338" />
    <linearGradient
       gradientTransform="matrix(0.04785026,0,0,0.05589801,3.7195061,8.5932485)"
       xlink:href="#linearGradient28"
       id="linearGradient30-42"
       x1="68.058258"
       y1="52.766853"
       x2="93.905167"
       y2="48.329338"
       gradientUnits="userSpaceOnUse" />
    <linearGradient
       gradientTransform="matrix(-7.81785e-4,0.04887137,0.04887137,7.81785e-4,62.757095,3.8708137)"
       xlink:href="#linearGradient28"
       id="linearGradient30-7"
       x1="68.058258"
       y1="52.766853"
       x2="93.905167"
       y2="48.329338"
       gradientUnits="userSpaceOnUse" />
    <linearGradient
       xlink:href="#linearGradient28"
       id="linearGradient2120-2"
       gradientUnits="userSpaceOnUse"
       gradientTransform="matrix(-0.04785026,0,0,-0.05589801,71.02718,6.8616741)"
       x1="68.058258"
       y1="52.766853"
       x2="93.905167"
       y2="48.329338" />
    <linearGradient
       xlink:href="#linearGradient28"
       id="linearGradient2118-5"
       gradientUnits="userSpaceOnUse"
       gradientTransform="matrix(-0.04785026,0,0,-0.05589801,68.754453,6.8616741)"
       x1="68.058258"
       y1="52.766853"
       x2="93.905167"
       y2="48.329338" />
    <linearGradient
       xlink:href="#linearGradient28"
       id="linearGradient2116-4"
       gradientUnits="userSpaceOnUse"
       gradientTransform="matrix(-0.04785026,0,0,-0.05589801,66.405968,6.8616741)"
       x1="68.058258"
       y1="52.766853"
       x2="93.905167"
       y2="48.329338" />
    <linearGradient
       xlink:href="#linearGradient28"
       id="linearGradient2066-4"
       gradientUnits="userSpaceOnUse"
       gradientTransform="matrix(0.04785026,0,0,0.05589801,59.067217,8.593248)"
       x1="68.058258"
       y1="52.766853"
       x2="93.905167"
       y2="48.329338" />
    <linearGradient
       xlink:href="#linearGradient28"
       id="linearGradient2048-9"
       gradientUnits="userSpaceOnUse"
       gradientTransform="matrix(0.04785026,0,0,0.05589801,61.339944,8.593248)"
       x1="68.058258"
       y1="52.766853"
       x2="93.905167"
       y2="48.329338" />
    <linearGradient
       gradientTransform="matrix(0.04785026,0,0,0.05589801,63.688429,8.593248)"
       xlink:href="#linearGradient28"
       id="linearGradient30-93"
       x1="68.058258"
       y1="52.766853"
       x2="93.905167"
       y2="48.329338"
       gradientUnits="userSpaceOnUse" />
    <linearGradient
       xlink:href="#linearGradient28"
       id="linearGradient2337"
       gradientUnits="userSpaceOnUse"
       gradientTransform="matrix(-0.0417883,0,0,-0.04857198,75.583944,6.4314344)"
       x1="68.058258"
       y1="52.766853"
       x2="93.905167"
       y2="48.329338" />
    <linearGradient
       xlink:href="#linearGradient28"
       id="linearGradient2335"
       gradientUnits="userSpaceOnUse"
       gradientTransform="matrix(0.0417883,0,0,0.04857198,70.628178,2.0064654)"
       x1="68.058258"
       y1="52.766853"
       x2="93.905167"
       y2="48.329338" />
    <linearGradient
       xlink:href="#linearGradient28"
       id="linearGradient2333"
       gradientUnits="userSpaceOnUse"
       gradientTransform="matrix(-0.0417883,0,0,-0.04857198,79.296068,6.4974754)"
       x1="68.058258"
       y1="52.766853"
       x2="93.905167"
       y2="48.329338" />
    <linearGradient
       xlink:href="#linearGradient28"
       id="linearGradient2331"
       gradientUnits="userSpaceOnUse"
       gradientTransform="matrix(0.0417883,0,0,0.04857198,74.340299,2.0725074)"
       x1="68.058258"
       y1="52.766853"
       x2="93.905167"
       y2="48.329338" />
    <linearGradient
       xlink:href="#linearGradient28"
       id="linearGradient2265"
       gradientUnits="userSpaceOnUse"
       gradientTransform="matrix(-0.0417883,0,0,-0.04857198,75.640764,13.685222)"
       x1="68.058258"
       y1="52.766853"
       x2="93.905167"
       y2="48.329338" />
    <linearGradient
       xlink:href="#linearGradient28"
       id="linearGradient2263"
       gradientUnits="userSpaceOnUse"
       gradientTransform="matrix(0.0417883,0,0,0.04857198,70.684995,9.2602534)"
       x1="68.058258"
       y1="52.766853"
       x2="93.905167"
       y2="48.329338" />
    <linearGradient
       xlink:href="#linearGradient28"
       id="linearGradient2229"
       gradientUnits="userSpaceOnUse"
       gradientTransform="matrix(-0.0417883,0,0,-0.04857198,79.352887,13.751263)"
       x1="68.058258"
       y1="52.766853"
       x2="93.905167"
       y2="48.329338" />
    <linearGradient
       gradientTransform="matrix(0.0417883,0,0,0.04857198,74.397116,9.3262944)"
       xlink:href="#linearGradient28"
       id="linearGradient30-5"
       x1="68.058258"
       y1="52.766853"
       x2="93.905167"
       y2="48.329338"
       gradientUnits="userSpaceOnUse" />
    <linearGradient
       gradientTransform="matrix(0,0.0625,-0.070221,0,88.204672,3.0537241)"
       xlink:href="#linearGradient28"
       id="linearGradient30-7-7"
       x1="68.058258"
       y1="52.766853"
       x2="93.905167"
       y2="48.329338"
       gradientUnits="userSpaceOnUse" />
    <linearGradient
       xlink:href="#linearGradient28"
       id="linearGradient2337-9"
       gradientUnits="userSpaceOnUse"
       gradientTransform="matrix(-0.0417883,0,0,-0.04857198,85.583944,6.4314336)"
       x1="68.058258"
       y1="52.766853"
       x2="93.905167"
       y2="48.329338" />
    <linearGradient
       xlink:href="#linearGradient28"
       id="linearGradient2335-2"
       gradientUnits="userSpaceOnUse"
       gradientTransform="matrix(0.0417883,0,0,0.04857198,80.628177,2.0064647)"
       x1="68.058258"
       y1="52.766853"
       x2="93.905167"
       y2="48.329338" />
    <linearGradient
       xlink:href="#linearGradient28"
       id="linearGradient2333-8"
       gradientUnits="userSpaceOnUse"
       gradientTransform="matrix(-0.0417883,0,0,-0.04857198,89.296066,6.4974746)"
       x1="68.058258"
       y1="52.766853"
       x2="93.905167"
       y2="48.329338" />
    <linearGradient
       xlink:href="#linearGradient28"
       id="linearGradient2331-3"
       gradientUnits="userSpaceOnUse"
       gradientTransform="matrix(0.0417883,0,0,0.04857198,84.340298,2.0725065)"
       x1="68.058258"
       y1="52.766853"
       x2="93.905167"
       y2="48.329338" />
    <linearGradient
       xlink:href="#linearGradient28"
       id="linearGradient2265-0"
       gradientUnits="userSpaceOnUse"
       gradientTransform="matrix(-0.0417883,0,0,-0.04857198,85.640762,13.685222)"
       x1="68.058258"
       y1="52.766853"
       x2="93.905167"
       y2="48.329338" />
    <linearGradient
       xlink:href="#linearGradient28"
       id="linearGradient2263-1"
       gradientUnits="userSpaceOnUse"
       gradientTransform="matrix(0.0417883,0,0,0.04857198,80.684995,9.2602526)"
       x1="68.058258"
       y1="52.766853"
       x2="93.905167"
       y2="48.329338" />
    <linearGradient
       xlink:href="#linearGradient28"
       id="linearGradient2229-7"
       gradientUnits="userSpaceOnUse"
       gradientTransform="matrix(-0.0417883,0,0,-0.04857198,89.352884,13.751263)"
       x1="68.058258"
       y1="52.766853"
       x2="93.905167"
       y2="48.329338" />
    <linearGradient
       gradientTransform="matrix(0.0417883,0,0,0.04857198,84.397116,9.3262946)"
       xlink:href="#linearGradient28"
       id="linearGradient30-8"
       x1="68.058258"
       y1="52.766853"
       x2="93.905167"
       y2="48.329338"
       gradientUnits="userSpaceOnUse" />
    <linearGradient
       gradientUnits="userSpaceOnUse"
       y2="48.329338"
       x2="93.905167"
       y1="52.766853"
       x1="68.058258"
       id="linearGradient30-37"
       xlink:href="#linearGradient28"
       gradientTransform="matrix(-0.02567333,-0.01104562,0.01104562,-0.02567333,98.847603,4.8327149)" />
    <linearGradient
       gradientUnits="userSpaceOnUse"
       y2="71.008263"
       x2="88.849586"
       y1="58.644627"
       x1="82.105782"
       id="linearGradient1063"
       xlink:href="#linearGradient882"
       gradientTransform="matrix(0.0625,0,0,0.0625,89.999998,-1.2353516e-7)" />
    <linearGradient
       id="linearGradient882">
      <stop
         style="stop-color:#d16208;stop-opacity:1"
         offset="0"
         id="stop878" />
      <stop
         style="stop-color:#d16250;stop-opacity:0;"
         offset="1"
         id="stop880" />
    </linearGradient>
    <linearGradient
       gradientUnits="userSpaceOnUse"
       y2="68.472336"
       x2="56.128345"
       y1="63.697319"
       x1="61.166279"
       id="linearGradient876"
       xlink:href="#linearGradient882"
       gradientTransform="matrix(0.0625,0,0,0.0625,89.999998,-1.2353516e-7)" />
    <linearGradient
       gradientUnits="userSpaceOnUse"
       y2="48.329338"
       x2="93.905167"
       y1="52.766853"
       x1="68.058258"
       id="linearGradient30-0"
       xlink:href="#linearGradient28"
       gradientTransform="matrix(-0.02881053,-0.01239536,0.01239536,-0.02881053,108.70072,5.4503207)" />
    <linearGradient
       gradientUnits="userSpaceOnUse"
       y2="48.329338"
       x2="93.905167"
       y1="52.766853"
       x1="68.058258"
       id="linearGradient30-80"
       xlink:href="#linearGradient28"
       gradientTransform="matrix(-0.02849684,-0.0122604,0.0122604,-0.02849684,118.86314,5.4302307)" />
    <linearGradient
       xlink:href="#linearGradient846"
       id="linearGradient848"
       x1="72.37397"
       y1="53.171356"
       x2="72.19931"
       y2="45.564011"
       gradientUnits="userSpaceOnUse"
       gradientTransform="matrix(0.0625,0,0,0.0625,110,-2.6464844e-7)" />
    <linearGradient
       id="linearGradient846">
      <stop
         style="stop-color:#423abf;stop-opacity:1;"
         offset="0"
         id="stop842" />
      <stop
         style="stop-color:#423abf;stop-opacity:0;"
         offset="1"
         id="stop844" />
    </linearGradient>
  </defs>
  <flowRoot
     style="font-style:normal;font-variant:normal;font-weight:bold;font-stretch:normal;font-size:1px;line-height:1.25;font-family:'DejaVu Sans';-inkscape-font-specification:'DejaVu Sans Bold';letter-spacing:0px;word-spacing:0px;fill:#000000;fill-opacity:1;stroke:none;stroke-width:0.0625"
     id="flowRoot100"
     xml:space="preserve"><flowRegion
       style="stroke-width:0.0625"
       id="flowRegion102"><rect
         style="stroke-width:0.00390625"
         y="0.73863637"
         x="0.66287881"
         height="1.3636364"
         width="1.5151515"
         id="rect104" /></flowRegion><flowPara
       style="stroke-width:0.0625"
       id="flowPara106" /></flowRoot>  <rect
     y="0"
     x="0.03108005"
     height="15.625"
     width="10"
     id="clubs06"
     style="fill:#ffffff;fill-opacity:1;stroke:#1a1a1a;stroke-width:0.0625;stroke-opacity:1" />
  <rect
     y="1.306818"
     x="1.3757761"
     height="12.973484"
     width="7.2537889"
     id="rect108-20"
     style="fill:none;fill-opacity:1;stroke:#1a1a1a;stroke-width:0.0625;stroke-opacity:1" />
  <g
     id="flowRoot915-55"
     style="font-style:normal;font-variant:normal;font-weight:bold;font-stretch:normal;font-size:16px;line-height:1.25;font-family:'DejaVu Sans';-inkscape-font-specification:'DejaVu Sans Bold';text-align:start;letter-spacing:0px;word-spacing:0px;text-anchor:start;fill:#000000;fill-opacity:1;stroke:none"
     transform="matrix(0.0625,0,0,0.0625,0.22047406,-5.361328e-7)"
     aria-label="6">
    <path
       id="path4409"
       d="m 8.8203125,12.943359 q -0.7890625,0 -1.1875,0.515625 -0.390625,0.507813 -0.390625,1.53125 0,1.023438 0.390625,1.539063 0.3984375,0.507812 1.1875,0.507812 0.796875,0 1.1875005,-0.507812 0.398437,-0.515625 0.398437,-1.539063 0,-1.023437 -0.398437,-1.53125 Q 9.6171875,12.943359 8.8203125,12.943359 Z M 12.539063,7.3417969 v 2.15625 q -0.742188,-0.3515625 -1.398438,-0.515625 -0.65625,-0.171875 -1.28125,-0.171875 -1.34375,0 -2.09375,0.75 -0.75,0.7421871 -0.875,2.2109371 0.515625,-0.382812 1.1171875,-0.570312 0.6015625,-0.195313 1.3125,-0.195313 1.7890625,0 2.8828125,1.046875 1.101563,1.046875 1.101563,2.742188 0,1.875 -1.226563,3.007812 -1.226562,1.125 -3.2890625,1.125 -2.2734375,0 -3.5234375,-1.53125 -1.2421875,-1.539062 -1.2421875,-4.359375 0,-2.890625 1.453125,-4.5390621 1.4609375,-1.65625 4,-1.65625 0.8046875,0 1.5625005,0.125 0.757812,0.125 1.5,0.375 z"
       inkscape:connector-curvature="0" />
  </g>
  <path
     style="fill:#ffff00;stroke:#000000;stroke-width:0.05171783px;stroke-linecap:butt;stroke-linejoin:miter;stroke-opacity:1"
     d="m 7.9634851,9.0483195 -0.179267,0.318002 0.01016,0.135946 -0.09955,0.268498 0.160285,0.3017405 0.116032,0.07826 0.08031,0.105804 0.0054,0.145629 -0.122785,0.136642 -0.09501,0.01337 0.08219,0.236162 0.101675,0.107302 0.05861,0.194439 0.02196,0.156809 -0.074,0.105002 -0.06349,0.150816 0.01845,0.141537 0.0411,0.118082 0.143115,0.135251 0.01145,0.110994 -0.03956,0.102408 -0.07143,0.05509 -0.06537,0.02046 0.143711,0.290562 0.09398,0.257024 -0.06733,0.225678 -0.105271,0.212999 -0.08194,0.0093 -0.112276,0.182457 -0.157219,0.139237 -0.14987,0.07965 -0.100736,-0.04212 -0.17439,-0.02725 -0.261115,-0.0083 -0.165758,-0.111795 -0.162851,-0.251835 -0.110902,-0.178071 -0.05767,-0.129261 -0.03691,-0.283073 0.0112,-0.13445 0.07878,-0.114684 0.216173,-0.03493 0.206603,-0.01556 -0.01401,-0.06109 -0.05511,-0.179167 0.05742,-0.116182 0.12116,-0.02156 0.155249,0.06598 -0.06818,-0.175076 -0.06246,-0.119578 -0.02546,-0.172081 0.03162,-0.198129 -0.0063,-0.210807 0.01376,-0.184356 0.01726,-0.169084 -0.08288,-0.0559 -0.09945,-0.06708 -0.01974,-0.116583 0.02871,-0.05809 0.0587,-0.141135 0.05836,-0.051 -0.01845,-0.141536 -0.01589,-0.1914425 -0.02067,-0.181762 0.03991,-0.192541 0.08869,-0.224179 0.07049,-0.120274 0.02871,-0.05809 0.02077,-0.153812 -5.62e-4,-0.15531 0.105865,-0.05769 0.09373,0.01158 0.132607,0.08944 0.140895,0.09503 z"
     id="path2551-2"
     inkscape:connector-curvature="0" />
  <path
     style="fill:#ffff00;stroke:#000000;stroke-width:0.05171783px;stroke-linecap:butt;stroke-linejoin:miter;stroke-opacity:1"
     d="m 8.0037521,12.186569 -0.07638,-0.02156 -0.03848,-0.04536 -0.0324,-0.08006 0.0032,-0.06251 0.02397,-0.04851 0.05625,-0.09141 0.03099,-0.0179 0.05463,-0.05691"
     id="path2553-90"
     inkscape:connector-curvature="0" />
  <path
     style="fill:none;stroke:#000000;stroke-width:0.05171783px;stroke-linecap:butt;stroke-linejoin:miter;stroke-opacity:1"
     d="m 7.2746681,11.940109 0.01141,0.122223 -0.0056,0.06736 c 0,0 0.0063,0.0048 -0.01488,0.03012 -0.0176,0.02103 -0.073,0.0917 -0.073,0.0917 l -0.08035,0.01695 -0.102277,-0.01634"
     id="path2555-28"
     inkscape:connector-curvature="0" />
  <path
     style="fill:none;stroke:#000000;stroke-width:0.05171783px;stroke-linecap:butt;stroke-linejoin:miter;stroke-opacity:1"
     d="m 7.1748941,10.710998 0.09798,-0.02221 0.04602,-0.05951 0.02894,-0.103364 -0.0033,-0.06046 -0.04679,-0.05096 -0.08112,-0.09352 -0.05989,-0.04686 -0.03811,-0.05292"
     id="path2557-3"
     inkscape:connector-curvature="0" />
  <path
     style="fill:none;stroke:#000000;stroke-width:0.05171783px;stroke-linecap:butt;stroke-linejoin:miter;stroke-opacity:1"
     d="m 7.8390501,10.552212 -0.0815,-0.01513 -0.0479,-0.07111 -0.0265,-0.06961 0.0307,-0.09571 0.02461,-0.06101 0.02877,-0.05821 0.03339,-0.02275 0.08035,-0.01695 0.09018,0.009"
     id="path2559-80"
     inkscape:connector-curvature="0" />
  <path
     style="fill:none;stroke:#000000;stroke-width:0.05171783px;stroke-linecap:butt;stroke-linejoin:miter;stroke-opacity:1"
     d="m 7.9634851,9.0483195 -0.111949,0.07757 -0.07988,0.0496 -0.1107,0.02235 -0.102224,-0.0172 -0.08608,-0.03866 -0.0848,-0.06366 -0.0757,-0.120748"
     id="path2561-4"
     inkscape:connector-curvature="0" />
  <path
     style="fill:#008000;fill-opacity:1;stroke:none;stroke-width:0.00457125;stroke-opacity:0.02617804"
     d="m 7.8698461,9.1593305 c -0.0034,0.0068 -0.03007,0.05413 -0.05914,0.105113 l -0.05288,0.0927 0.0017,0.02393 c 9.07e-4,0.01317 0.0032,0.04481 0.005,0.07033 l 0.0034,0.04639 -0.04961,0.133513 c -0.02728,0.07343 -0.05002,0.136063 -0.05052,0.139178 -0.0016,0.01008 0.170293,0.3282055 0.181563,0.3359705 0.01014,0.007 0.0092,0.0076 -0.02707,0.0174 -0.02067,0.0056 -0.04669,0.01644 -0.05783,0.02413 -0.01996,0.01378 -0.02059,0.01477 -0.04472,0.06968 -0.01346,0.03064 -0.03352,0.08371 -0.04458,0.117928 l -0.02011,0.06222 0.01504,0.03966 c 0.0084,0.02221 0.02781,0.0591 0.04406,0.08385 l 0.02902,0.04419 0.03865,0.0069 0.03865,0.0069 0.03915,0.113216 0.03915,0.113216 0.05051,0.0527 0.05051,0.0527 0.02839,0.09453 c 0.0306,0.101896 0.05158,0.219521 0.04244,0.237864 -0.0027,0.0054 -0.01787,0.02813 -0.03369,0.05041 -0.02601,0.03663 -0.03201,0.04826 -0.06281,0.121558 -0.02183,0.05196 -0.03372,0.08505 -0.03312,0.09218 0.0064,0.07546 0.02078,0.153776 0.03618,0.196608 0.0097,0.02688 0.01574,0.05061 0.0135,0.05272 -0.0022,0.0021 -0.01028,0.01084 -0.01788,0.01937 -0.0076,0.0085 -0.02201,0.02027 -0.03202,0.02606 -0.01528,0.0088 -0.02281,0.01803 -0.04687,0.05715 -0.05036,0.08188 -0.05869,0.102073 -0.06114,0.148033 -0.0019,0.03644 -5e-4,0.04398 0.01584,0.08428 0.01295,0.0319 0.02456,0.05214 0.04158,0.0725 l 0.02361,0.02824 0.03621,0.0098 0.03622,0.0098 0.06967,0.140556 c 0.05565,0.112255 0.07821,0.163843 0.112076,0.25621 0.02332,0.06361 0.0431,0.118155 0.04395,0.121212 8.44e-4,0.0031 -0.01298,0.05435 -0.03074,0.113976 -0.03219,0.108099 -0.03243,0.108707 -0.07992,0.204658 l -0.04762,0.09624 -0.03187,0.003 c -0.01753,0.0016 -0.03573,0.0035 -0.04045,0.0042 -0.0068,10e-4 -0.02027,0.02041 -0.0653,0.0941 l -0.05672,0.09284 -0.07784,0.06935 c -0.07239,0.0645 -0.08253,0.07184 -0.144842,0.104841 -0.03685,0.01952 -0.06888,0.03561 -0.07118,0.03577 -0.0023,1.25e-4 -0.02368,-0.0082 -0.04752,-0.0185 -0.06422,-0.02783 -0.18576,-0.04562 -0.347858,-0.05092 l -0.127868,-0.0042 -0.08094,-0.05459 -0.08094,-0.05459 -0.08102,-0.125548 c -0.147609,-0.228628 -0.18375,-0.288792 -0.212414,-0.353494 l -0.02736,-0.06176 -0.01805,-0.138719 c -0.01628,-0.125186 -0.01753,-0.144572 -0.01279,-0.198714 l 0.0053,-0.05999 0.03347,-0.04866 c 0.01841,-0.02676 0.0352,-0.04903 0.03732,-0.04947 0.05781,-0.01212 0.223768,-0.03383 0.303125,-0.03966 0.08193,-0.006 0.115406,-0.0059 0.154218,7.32e-4 0.04195,0.0071 0.05684,0.0068 0.09682,-0.0017 0.04676,-0.01001 0.04745,-0.01037 0.06693,-0.03511 0.01083,-0.01375 0.03315,-0.04207 0.0496,-0.06294 l 0.02991,-0.03795 0.0035,-0.04505 c 0.0019,-0.02478 0.0021,-0.05946 3.75e-4,-0.07708 -0.0039,-0.04064 -0.003,-0.04759 0.0062,-0.04389 0.0105,0.0042 -0.08055,-0.226179 -0.11713,-0.296413 -0.02965,-0.05692 -0.02968,-0.05704 -0.04147,-0.138431 l -0.01179,-0.08146 0.01552,-0.09501 c 0.01463,-0.08956 0.01534,-0.101103 0.0124,-0.201314 -0.003,-0.103626 0.0022,-0.208791 0.0181,-0.365668 l 0.0073,-0.07208 0.02845,-0.0064 c 0.0601,-0.01343 0.06115,-0.01405 0.09014,-0.05343 l 0.02666,-0.03622 0.01542,-0.05677 c 0.01276,-0.04699 0.01508,-0.06313 0.01344,-0.09372 l -0.002,-0.03695 -0.07262,-0.08129 c -0.03994,-0.04471 -0.0847,-0.09084 -0.09946,-0.102523 -0.04469,-0.03536 -0.05346,-0.05178 -0.06253,-0.117013 -0.0043,-0.03108 -0.01172,-0.102756 -0.01645,-0.1592845 -0.0047,-0.05653 -0.01329,-0.144007 -0.01904,-0.194393 l -0.01045,-0.09161 0.01884,-0.09099 c 0.01806,-0.08718 0.02063,-0.09551 0.06153,-0.199121 0.03878,-0.09821 0.04639,-0.11453 0.08299,-0.177936 0.05837,-0.101122 0.06177,-0.108952 0.06823,-0.157082 0.0031,-0.02312 0.0065,-0.0423 0.0076,-0.04262 0.0011,-3.75e-4 0.0098,0.0125 0.01937,0.02849 0.01548,0.0259 0.02241,0.0329 0.06352,0.06416 0.06423,0.04884 0.118602,0.07319 0.193154,0.08652 0.05057,0.009 0.06025,0.0089 0.114821,-0.002 0.05269,-0.01046 0.06478,-0.01508 0.104352,-0.0398 0.05358,-0.03348 0.05337,-0.0334 0.04546,-0.01774 z"
     id="path2563-0"
     inkscape:connector-curvature="0" />
  <path
     id="path2581-91"
     d="m 7.8261881,9.1788215 c -0.07691,0.04858 -0.176589,0.05863 -0.279593,0.0282 -0.06661,-0.01968 -0.170431,-0.08936 -0.197085,-0.132269 -0.0099,-0.01586 -0.01814,-0.0283 -0.01842,-0.02765 -3.12e-4,6.56e-4 -0.0042,0.02051 -0.0087,0.04411 -0.0073,0.03818 -0.01448,0.05474 -0.06504,0.149985 -0.07657,0.14426 -0.11689,0.247496 -0.143907,0.36847 l -0.02079,0.0931 0.02019,0.203508 c 0.0236,0.2378925 0.03093,0.2902875 0.04397,0.3140455 0.0053,0.0096 0.02576,0.0322 0.04553,0.05019 0.01977,0.01799 0.0666,0.06657 0.104079,0.107968 l 0.06814,0.07527 -1.25e-4,0.04054 c -1.25e-4,0.04378 -0.01765,0.121777 -0.03453,0.153881 -0.02396,0.04557 -0.05497,0.07145 -0.09841,0.0821 l -0.0415,0.01018 -0.0095,0.104382 c -0.01214,0.133768 -0.01641,0.226091 -0.01473,0.317922 0.0019,0.102009 -3.12e-4,0.135392 -0.01424,0.220768 -0.0067,0.04095 -0.01175,0.08364 -0.01122,0.09487 0.0024,0.05082 0.02073,0.148289 0.03265,0.173372 0.0295,0.06208 0.106748,0.245103 0.120254,0.284915 0.008,0.02347 0.01257,0.04652 0.01024,0.05123 -0.0023,0.0047 -0.0033,0.02985 -0.0022,0.05587 0.0011,0.02602 7.69e-4,0.06172 -7.5e-4,0.07933 l -0.0028,0.03202 -0.04779,0.06029 -0.04779,0.06029 -0.04437,0.01226 c -0.03095,0.0086 -0.06413,0.0103 -0.109668,0.0058 -0.03591,-0.0036 -0.106591,-0.0031 -0.157066,0.001 -0.09791,0.008 -0.275044,0.03152 -0.291544,0.03866 -0.0055,0.0024 -0.0244,0.02573 -0.04206,0.05192 l -0.03211,0.04762 -0.0034,0.0631 c -0.0021,0.03863 0.0029,0.11398 0.01276,0.194335 0.02179,0.176802 0.03262,0.200384 0.24011,0.522798 l 0.09521,0.147944 0.08312,0.05606 0.08312,0.05606 0.06872,0.0019 c 0.19124,0.0053 0.316668,0.0215 0.396546,0.05124 0.02698,0.01004 0.05377,0.01732 0.05953,0.01617 0.03314,-0.0066 0.14622,-0.08139 0.213393,-0.141109 0.07194,-0.06396 0.07445,-0.06696 0.127811,-0.152876 0.02994,-0.0482 0.05726,-0.09031 0.06071,-0.09358 0.0035,-0.0033 0.02217,-0.0073 0.0416,-0.0091 l 0.03532,-0.0031 0.04938,-0.09991 c 0.04327,-0.08755 0.05321,-0.112941 0.08034,-0.205164 l 0.03096,-0.105249 -0.03662,-0.09919 c -0.04365,-0.118188 -0.0642,-0.165278 -0.134943,-0.309111 l -0.05352,-0.108813 -0.03694,-0.0102 c -0.03521,-0.0097 -0.03794,-0.01151 -0.05854,-0.03828 -0.01188,-0.01544 -0.03003,-0.04632 -0.04033,-0.06862 -0.01531,-0.03315 -0.01844,-0.0495 -0.01714,-0.08975 l 0.0016,-0.04922 0.03465,-0.06111 c 0.03714,-0.06549 0.04387,-0.07409 0.09032,-0.11533 l 0.03015,-0.02677 -0.01978,-0.07603 c -0.01088,-0.04182 -0.02234,-0.0985 -0.02547,-0.125957 -0.005,-0.04386 -0.0037,-0.05558 0.01091,-0.09648 0.02244,-0.06297 0.05577,-0.129842 0.0893,-0.17915 0.02763,-0.04064 0.02778,-0.04108 0.02444,-0.07285 -0.0055,-0.05275 -0.02388,-0.134965 -0.04827,-0.216549 l -0.02302,-0.07698 -0.05038,-0.05235 -0.05038,-0.05235 -0.03672,-0.106952 c -0.0202,-0.05882 -0.03863,-0.109851 -0.04095,-0.113394 -0.0023,-0.0035 -0.0188,-0.009 -0.03661,-0.01209 -0.01781,-0.0031 -0.03619,-0.0082 -0.04085,-0.01136 -0.01166,-0.0079 -0.07241,-0.1156 -0.08141,-0.144395 -0.0064,-0.02043 -0.0047,-0.03132 0.01294,-0.08378 0.03352,-0.09964 0.06535,-0.172206 0.08055,-0.18368 0.0074,-0.0056 0.03189,-0.01623 0.0545,-0.02371 0.02261,-0.0075 0.04047,-0.01503 0.03968,-0.01676 -7.88e-4,-0.0017 -0.02507,-0.04475 -0.05395,-0.0956 -0.04195,-0.073849 -0.12625,-0.2327495 -0.128813,-0.2427995 -3.12e-4,-0.0012 0.022,-0.06323 0.04954,-0.137917 l 0.05008,-0.135788 -0.0047,-0.07167 -0.0047,-0.07167 0.04648,-0.08055 c 0.02556,-0.0443 0.04992,-0.08943 0.05413,-0.100276 0.0076,-0.01955 0.0073,-0.01951 -0.02954,0.0038 z"
     style="fill:url(#linearGradient30-42);fill-opacity:1;fill-rule:nonzero;stroke:#000000;stroke-width:0.00633973;stroke-miterlimit:4;stroke-dasharray:0.00633973, 0.01267946;stroke-dashoffset:0;stroke-opacity:0.96254536"
     inkscape:connector-curvature="0" />
  <path
     id="path2032"
     d="m 5.6150001,9.0483195 -0.179267,0.318002 0.01016,0.135946 -0.09955,0.268498 0.160285,0.3017405 0.116032,0.07826 0.08031,0.105804 0.0054,0.145629 -0.122785,0.136642 -0.09501,0.01337 0.08219,0.236162 0.101675,0.107302 0.05861,0.194439 0.02196,0.156809 -0.074,0.105002 -0.06349,0.150816 0.01845,0.141537 0.0411,0.118082 0.143115,0.135251 0.01145,0.110994 -0.03956,0.102408 -0.07143,0.05509 -0.06536,0.02046 0.143711,0.290562 0.09398,0.257024 -0.06733,0.225678 -0.105271,0.212999 -0.08194,0.0093 -0.112276,0.182457 -0.157219,0.139237 -0.14987,0.07965 -0.100736,-0.04212 -0.17439,-0.02725 -0.261115,-0.0083 -0.165758,-0.111795 -0.162851,-0.251835 -0.110902,-0.178071 -0.05767,-0.129261 -0.03691,-0.283073 0.0112,-0.13445 0.07878,-0.114684 0.216173,-0.03493 0.206603,-0.01556 -0.01401,-0.06109 -0.05511,-0.179167 0.05742,-0.116182 0.12116,-0.02156 0.155249,0.06598 -0.06818,-0.175076 -0.06246,-0.119578 -0.02546,-0.172081 0.03162,-0.198129 -0.0063,-0.210807 0.01376,-0.184356 0.01726,-0.169084 -0.08288,-0.0559 -0.09945,-0.06708 -0.01974,-0.116583 0.02871,-0.05809 0.0587,-0.141135 0.05836,-0.051 -0.01845,-0.141536 -0.01589,-0.1914425 -0.02067,-0.181762 0.03991,-0.192541 0.08869,-0.224179 0.07049,-0.120274 0.02871,-0.05809 0.02077,-0.153812 -5.62e-4,-0.15531 0.105865,-0.05769 0.09373,0.01158 0.132607,0.08944 0.140895,0.09503 z"
     style="fill:#ffff00;stroke:#000000;stroke-width:0.05171783px;stroke-linecap:butt;stroke-linejoin:miter;stroke-opacity:1"
     inkscape:connector-curvature="0" />
  <path
     id="path2034"
     d="m 5.6552671,12.186569 -0.07638,-0.02156 -0.03848,-0.04536 -0.0324,-0.08006 0.0032,-0.06251 0.02397,-0.04851 0.05625,-0.09141 0.03099,-0.0179 0.05463,-0.05691"
     style="fill:#ffff00;stroke:#000000;stroke-width:0.05171783px;stroke-linecap:butt;stroke-linejoin:miter;stroke-opacity:1"
     inkscape:connector-curvature="0" />
  <path
     id="path2036"
     d="m 4.9261831,11.940109 0.01141,0.122223 -0.0056,0.06736 c 0,0 0.0063,0.0048 -0.01488,0.03012 -0.0176,0.02103 -0.073,0.0917 -0.073,0.0917 l -0.08035,0.01695 -0.102277,-0.01634"
     style="fill:none;stroke:#000000;stroke-width:0.05171783px;stroke-linecap:butt;stroke-linejoin:miter;stroke-opacity:1"
     inkscape:connector-curvature="0" />
  <path
     id="path2038"
     d="m 4.8264091,10.710998 0.09799,-0.02221 0.04602,-0.05951 0.02894,-0.103364 -0.0033,-0.06046 -0.04679,-0.05096 -0.08112,-0.09352 -0.05989,-0.04686 -0.03811,-0.05292"
     style="fill:none;stroke:#000000;stroke-width:0.05171783px;stroke-linecap:butt;stroke-linejoin:miter;stroke-opacity:1"
     inkscape:connector-curvature="0" />
  <path
     id="path2040"
     d="m 5.4905651,10.552212 -0.0815,-0.01513 -0.0479,-0.07111 -0.0265,-0.06961 0.0307,-0.09571 0.02461,-0.06101 0.02877,-0.05821 0.03339,-0.02275 0.08035,-0.01695 0.09018,0.009"
     style="fill:none;stroke:#000000;stroke-width:0.05171783px;stroke-linecap:butt;stroke-linejoin:miter;stroke-opacity:1"
     inkscape:connector-curvature="0" />
  <path
     id="path2042"
     d="m 5.6150001,9.0483195 -0.111949,0.07757 -0.07988,0.0496 -0.1107,0.02235 -0.102224,-0.0172 -0.08608,-0.03866 -0.0848,-0.06366 -0.0757,-0.120748"
     style="fill:none;stroke:#000000;stroke-width:0.05171783px;stroke-linecap:butt;stroke-linejoin:miter;stroke-opacity:1"
     inkscape:connector-curvature="0" />
  <path
     id="path2044"
     d="m 5.5213611,9.1593305 c -0.0034,0.0068 -0.03007,0.05413 -0.05914,0.105113 l -0.05288,0.0927 0.0017,0.02393 c 9.07e-4,0.01317 0.0032,0.04481 0.005,0.07033 l 0.0034,0.04639 -0.04961,0.133513 c -0.02728,0.07343 -0.05002,0.136063 -0.05052,0.139178 -0.0016,0.01008 0.170293,0.3282055 0.181563,0.3359705 0.01014,0.007 0.0092,0.0076 -0.02707,0.0174 -0.02067,0.0056 -0.04669,0.01644 -0.05783,0.02413 -0.01996,0.01378 -0.02059,0.01477 -0.04472,0.06968 -0.01346,0.03064 -0.03352,0.08371 -0.04458,0.117928 l -0.02011,0.06222 0.01504,0.03966 c 0.0084,0.02221 0.02781,0.0591 0.04406,0.08385 l 0.02902,0.04419 0.03865,0.0069 0.03865,0.0069 0.03915,0.113216 0.03915,0.113216 0.05051,0.0527 0.05051,0.0527 0.02839,0.09453 c 0.0306,0.101896 0.05158,0.219521 0.04244,0.237864 -0.0027,0.0054 -0.01787,0.02813 -0.03369,0.05041 -0.02601,0.03663 -0.03201,0.04826 -0.06281,0.121558 -0.02183,0.05196 -0.03372,0.08505 -0.03312,0.09218 0.0064,0.07546 0.02078,0.153776 0.03618,0.196608 0.0097,0.02688 0.01574,0.05061 0.0135,0.05272 -0.0022,0.0021 -0.01028,0.01084 -0.01788,0.01937 -0.0076,0.0085 -0.02201,0.02027 -0.03202,0.02606 -0.01528,0.0088 -0.02281,0.01803 -0.04687,0.05715 -0.05036,0.08188 -0.05869,0.102073 -0.06114,0.148033 -0.0019,0.03644 -5e-4,0.04398 0.01584,0.08428 0.01295,0.0319 0.02456,0.05214 0.04158,0.0725 l 0.02361,0.02824 0.03622,0.0098 0.03622,0.0098 0.06967,0.140556 c 0.05565,0.112255 0.07821,0.163843 0.112076,0.25621 0.02332,0.06361 0.0431,0.118155 0.04395,0.121212 8.44e-4,0.0031 -0.01298,0.05435 -0.03074,0.113976 -0.03219,0.108099 -0.03243,0.108707 -0.07992,0.204658 l -0.04762,0.09624 -0.03187,0.003 c -0.01753,0.0016 -0.03573,0.0035 -0.04045,0.0042 -0.0068,10e-4 -0.02027,0.02041 -0.0653,0.0941 l -0.05672,0.09284 -0.07784,0.06935 c -0.07239,0.0645 -0.08253,0.07184 -0.144842,0.104841 -0.03685,0.01952 -0.06888,0.03561 -0.07118,0.03577 -0.0023,1.25e-4 -0.02368,-0.0082 -0.04752,-0.0185 -0.06422,-0.02783 -0.18576,-0.04562 -0.347858,-0.05092 l -0.127868,-0.0042 -0.08094,-0.05459 -0.08094,-0.05459 -0.08102,-0.125548 c -0.147554,-0.228638 -0.183695,-0.288802 -0.212359,-0.353504 l -0.02736,-0.06176 -0.01805,-0.138719 c -0.01628,-0.125186 -0.01753,-0.144572 -0.01279,-0.198714 l 0.0053,-0.05999 0.03347,-0.04866 c 0.01841,-0.02676 0.0352,-0.04903 0.03732,-0.04947 0.05781,-0.01212 0.223768,-0.03383 0.303125,-0.03966 0.08193,-0.006 0.115406,-0.0059 0.154218,7.32e-4 0.04195,0.0071 0.05684,0.0068 0.09682,-0.0017 0.04676,-0.01001 0.04745,-0.01037 0.06693,-0.03511 0.01083,-0.01375 0.03315,-0.04207 0.0496,-0.06294 l 0.02991,-0.03795 0.0035,-0.04505 c 0.0019,-0.02478 0.0021,-0.05946 3.75e-4,-0.07708 -0.0039,-0.04064 -0.003,-0.04759 0.0062,-0.04389 0.0105,0.0042 -0.08055,-0.226179 -0.11713,-0.296413 -0.02965,-0.05692 -0.02968,-0.05704 -0.04147,-0.138431 l -0.01179,-0.08146 0.01552,-0.09501 c 0.01463,-0.08956 0.01534,-0.101103 0.0124,-0.201314 -0.003,-0.103626 0.0022,-0.208791 0.0181,-0.365668 l 0.0073,-0.07208 0.02845,-0.0064 c 0.0601,-0.01343 0.06115,-0.01405 0.09014,-0.05343 l 0.02666,-0.03622 0.01542,-0.05677 c 0.01276,-0.04699 0.01508,-0.06313 0.01344,-0.09372 l -0.002,-0.03695 -0.07262,-0.08129 c -0.03994,-0.04471 -0.0847,-0.09084 -0.09946,-0.102523 -0.04469,-0.03536 -0.05346,-0.05178 -0.06253,-0.117013 -0.0043,-0.03108 -0.01172,-0.102756 -0.01645,-0.1592845 -0.0047,-0.05653 -0.01329,-0.144007 -0.01904,-0.194393 l -0.01045,-0.09161 0.01884,-0.09099 c 0.01806,-0.08718 0.02063,-0.09551 0.06153,-0.199121 0.03878,-0.09821 0.04639,-0.11453 0.08299,-0.177936 0.05837,-0.101122 0.06177,-0.108952 0.06823,-0.157082 0.0031,-0.02312 0.0065,-0.0423 0.0076,-0.04262 0.0011,-3.75e-4 0.0098,0.0125 0.01937,0.02849 0.01548,0.0259 0.02241,0.0329 0.06352,0.06416 0.06423,0.04884 0.118602,0.07319 0.193154,0.08652 0.05057,0.009 0.06025,0.0089 0.114821,-0.002 0.05269,-0.01046 0.06478,-0.01508 0.104352,-0.0398 0.05358,-0.03348 0.05337,-0.0334 0.04546,-0.01774 z"
     style="fill:#008000;fill-opacity:1;stroke:none;stroke-width:0.00457125;stroke-opacity:0.02617804"
     inkscape:connector-curvature="0" />
  <path
     style="fill:url(#linearGradient2048);fill-opacity:1;fill-rule:nonzero;stroke:#000000;stroke-width:0.00633973;stroke-miterlimit:4;stroke-dasharray:0.00633973, 0.01267946;stroke-dashoffset:0;stroke-opacity:0.96254536"
     d="m 5.4777031,9.1788215 c -0.07691,0.04858 -0.176589,0.05863 -0.279593,0.0282 -0.06661,-0.01968 -0.170431,-0.08936 -0.197085,-0.132269 -0.0099,-0.01586 -0.01814,-0.0283 -0.01842,-0.02765 -3.12e-4,6.56e-4 -0.0042,0.02051 -0.0087,0.04411 -0.0073,0.03818 -0.01448,0.05474 -0.06504,0.149985 -0.07657,0.14426 -0.11689,0.247496 -0.143907,0.36847 l -0.02079,0.0931 0.02019,0.203508 c 0.0236,0.2378925 0.03093,0.2902875 0.04397,0.3140455 0.0053,0.0096 0.02576,0.0322 0.04553,0.05019 0.01977,0.01799 0.0666,0.06657 0.104079,0.107968 l 0.06814,0.07527 -1.25e-4,0.04054 c -1.25e-4,0.04378 -0.01765,0.121777 -0.03453,0.153881 -0.02396,0.04557 -0.05497,0.07145 -0.09841,0.0821 l -0.0415,0.01018 -0.0095,0.104382 c -0.01214,0.133768 -0.01641,0.226091 -0.01473,0.317922 0.0019,0.102009 -3.12e-4,0.135392 -0.01424,0.220768 -0.0067,0.04095 -0.01175,0.08364 -0.01122,0.09487 0.0024,0.05082 0.02073,0.148289 0.03265,0.173372 0.0295,0.06208 0.106748,0.245103 0.120254,0.284915 0.008,0.02347 0.01257,0.04652 0.01024,0.05123 -0.0023,0.0047 -0.0033,0.02985 -0.0022,0.05587 0.0011,0.02602 7.69e-4,0.06172 -7.5e-4,0.07933 l -0.0028,0.03202 -0.04779,0.06029 -0.04779,0.06029 -0.04437,0.01226 c -0.03095,0.0086 -0.06413,0.0103 -0.109668,0.0058 -0.03591,-0.0036 -0.106591,-0.0031 -0.157066,0.001 -0.09791,0.008 -0.275044,0.03152 -0.291544,0.03866 -0.0055,0.0024 -0.0244,0.02573 -0.04206,0.05192 l -0.03211,0.04762 -0.0034,0.0631 c -0.0021,0.03863 0.0029,0.11398 0.01276,0.194335 0.02179,0.176802 0.03262,0.200384 0.24011,0.522798 l 0.09521,0.147944 0.08312,0.05606 0.08312,0.05606 0.06872,0.0019 c 0.19124,0.0053 0.316668,0.0215 0.396546,0.05124 0.02698,0.01004 0.05377,0.01732 0.05953,0.01617 0.03314,-0.0066 0.14622,-0.08139 0.213393,-0.141109 0.07194,-0.06396 0.07445,-0.06696 0.127811,-0.152876 0.02994,-0.0482 0.05726,-0.09031 0.06071,-0.09358 0.0035,-0.0033 0.02217,-0.0073 0.0416,-0.0091 l 0.03532,-0.0031 0.04938,-0.09991 c 0.04327,-0.08755 0.05321,-0.112941 0.08034,-0.205164 l 0.03096,-0.105249 -0.03662,-0.09919 c -0.04365,-0.118188 -0.0642,-0.165278 -0.134943,-0.309111 l -0.05352,-0.108813 -0.03693,-0.0102 c -0.03521,-0.0097 -0.03794,-0.01151 -0.05854,-0.03828 -0.01188,-0.01544 -0.03003,-0.04632 -0.04033,-0.06862 -0.01531,-0.03315 -0.01844,-0.0495 -0.01714,-0.08975 l 0.0016,-0.04922 0.03465,-0.06111 c 0.03714,-0.06549 0.04387,-0.07409 0.09032,-0.11533 l 0.03015,-0.02677 -0.01978,-0.07603 c -0.01088,-0.04182 -0.02234,-0.0985 -0.02547,-0.125957 -0.005,-0.04386 -0.0037,-0.05558 0.01091,-0.09648 0.02244,-0.06297 0.05577,-0.129842 0.0893,-0.17915 0.02763,-0.04064 0.02778,-0.04108 0.02444,-0.07285 -0.0055,-0.05275 -0.02388,-0.134965 -0.04827,-0.216549 l -0.02302,-0.07698 -0.05038,-0.05235 -0.05038,-0.05235 -0.03672,-0.106952 c -0.0202,-0.05882 -0.03863,-0.109851 -0.04095,-0.113394 -0.0023,-0.0035 -0.0188,-0.009 -0.03661,-0.01209 -0.01781,-0.0031 -0.03619,-0.0082 -0.04085,-0.01136 -0.01166,-0.0079 -0.07241,-0.1156 -0.08141,-0.144395 -0.0064,-0.02043 -0.0047,-0.03132 0.01294,-0.08378 0.03352,-0.09964 0.06535,-0.172206 0.08055,-0.18368 0.0074,-0.0056 0.03189,-0.01623 0.0545,-0.02371 0.02261,-0.0075 0.04047,-0.01503 0.03968,-0.01676 -7.88e-4,-0.0017 -0.02507,-0.04475 -0.05395,-0.0956 -0.04195,-0.073849 -0.12625,-0.2327495 -0.128813,-0.2427995 -3.12e-4,-0.0012 0.022,-0.06323 0.04954,-0.137917 l 0.05008,-0.135788 -0.0047,-0.07167 -0.0047,-0.07167 0.04648,-0.08055 c 0.02556,-0.0443 0.04992,-0.08943 0.05413,-0.100276 0.0076,-0.01955 0.0073,-0.01951 -0.02954,0.0038 z"
     id="path2046"
     inkscape:connector-curvature="0" />
  <path
     style="fill:#ffff00;stroke:#000000;stroke-width:0.05171783px;stroke-linecap:butt;stroke-linejoin:miter;stroke-opacity:1"
     d="m 3.3422721,9.0483195 -0.179266,0.318002 0.01016,0.135946 -0.09955,0.268498 0.160285,0.3017405 0.116031,0.07826 0.08032,0.105804 0.0054,0.145629 -0.122785,0.136642 -0.09501,0.01337 0.08219,0.236162 0.101676,0.107302 0.05861,0.194439 0.02196,0.156809 -0.074,0.105002 -0.06349,0.150816 0.01845,0.141537 0.04109,0.118082 0.143115,0.135251 0.01145,0.110994 -0.03956,0.102408 -0.07143,0.05509 -0.06536,0.02046 0.143711,0.290562 0.09398,0.257024 -0.06733,0.225678 -0.10527,0.212999 -0.08194,0.0093 -0.112277,0.182457 -0.157219,0.139237 -0.149869,0.07965 -0.100736,-0.04212 -0.17439,-0.02725 -0.261115,-0.0083 -0.165758,-0.111795 -0.162851,-0.251835 -0.110902,-0.178071 -0.05767,-0.129261 -0.03691,-0.283073 0.0112,-0.13445 0.07878,-0.114684 0.216173,-0.03493 0.206603,-0.01556 -0.01401,-0.06109 -0.05511,-0.179167 0.05742,-0.116182 0.121159,-0.02156 0.15525,0.06598 -0.06818,-0.175076 -0.06246,-0.119578 -0.02546,-0.172081 0.03162,-0.198129 -0.0063,-0.210807 0.01376,-0.184356 0.01726,-0.169084 -0.08288,-0.0559 -0.09945,-0.06708 -0.01974,-0.116583 0.02871,-0.05809 0.0587,-0.141135 0.05836,-0.051 -0.01845,-0.141536 -0.01589,-0.1914425 -0.02067,-0.181762 0.03991,-0.192541 0.08869,-0.224179 0.07049,-0.120274 0.02871,-0.05809 0.02077,-0.153812 -5.63e-4,-0.15531 0.105865,-0.05769 0.09373,0.01158 0.132606,0.08944 0.140895,0.09503 z"
     id="path2050"
     inkscape:connector-curvature="0" />
  <path
     style="fill:#ffff00;stroke:#000000;stroke-width:0.05171783px;stroke-linecap:butt;stroke-linejoin:miter;stroke-opacity:1"
     d="m 3.3825401,12.186569 -0.07638,-0.02156 -0.03848,-0.04536 -0.0324,-0.08006 0.0032,-0.06251 0.02397,-0.04851 0.05625,-0.09141 0.03099,-0.0179 0.05463,-0.05691"
     id="path2052"
     inkscape:connector-curvature="0" />
  <path
     style="fill:none;stroke:#000000;stroke-width:0.05171783px;stroke-linecap:butt;stroke-linejoin:miter;stroke-opacity:1"
     d="m 2.6534551,11.940109 0.01141,0.122223 -0.0056,0.06736 c 0,0 0.0063,0.0048 -0.01489,0.03012 -0.0176,0.02103 -0.073,0.0917 -0.073,0.0917 l -0.08035,0.01695 -0.102276,-0.01634"
     id="path2054"
     inkscape:connector-curvature="0" />
  <path
     style="fill:none;stroke:#000000;stroke-width:0.05171783px;stroke-linecap:butt;stroke-linejoin:miter;stroke-opacity:1"
     d="m 2.5536821,10.710998 0.09798,-0.02221 0.04602,-0.05951 0.02894,-0.103364 -0.0033,-0.06046 -0.04679,-0.05096 -0.08112,-0.09352 -0.05989,-0.04686 -0.03811,-0.05292"
     id="path2056"
     inkscape:connector-curvature="0" />
  <path
     style="fill:none;stroke:#000000;stroke-width:0.05171783px;stroke-linecap:butt;stroke-linejoin:miter;stroke-opacity:1"
     d="m 3.2178371,10.552212 -0.0815,-0.01513 -0.0479,-0.07111 -0.0265,-0.06961 0.0307,-0.09571 0.02461,-0.06101 0.02877,-0.05821 0.03339,-0.02275 0.08035,-0.01695 0.09018,0.009"
     id="path2058"
     inkscape:connector-curvature="0" />
  <path
     style="fill:none;stroke:#000000;stroke-width:0.05171783px;stroke-linecap:butt;stroke-linejoin:miter;stroke-opacity:1"
     d="m 3.3422721,9.0483195 -0.111948,0.07757 -0.07988,0.0496 -0.1107,0.02235 -0.102225,-0.0172 -0.08608,-0.03866 -0.0848,-0.06366 -0.0757,-0.120748"
     id="path2060"
     inkscape:connector-curvature="0" />
  <path
     style="fill:#008000;fill-opacity:1;stroke:none;stroke-width:0.00457125;stroke-opacity:0.02617804"
     d="m 3.2486341,9.1593305 c -0.0034,0.0068 -0.03007,0.05413 -0.05914,0.105113 l -0.05288,0.0927 0.0017,0.02393 c 9.06e-4,0.01317 0.0032,0.04481 0.005,0.07033 l 0.0034,0.04639 -0.04961,0.133513 c -0.02728,0.07343 -0.05002,0.136063 -0.05052,0.139178 -0.0016,0.01008 0.170292,0.3282055 0.181563,0.3359705 0.01014,0.007 0.0092,0.0076 -0.02707,0.0174 -0.02067,0.0056 -0.04669,0.01644 -0.05783,0.02413 -0.01996,0.01378 -0.02059,0.01477 -0.04472,0.06968 -0.01346,0.03064 -0.03352,0.08371 -0.04458,0.117928 l -0.02011,0.06222 0.01504,0.03966 c 0.0084,0.02221 0.02781,0.0591 0.04406,0.08385 l 0.02902,0.04419 0.03865,0.0069 0.03865,0.0069 0.03915,0.113216 0.03915,0.113216 0.05051,0.0527 0.05051,0.0527 0.02839,0.09453 c 0.0306,0.101896 0.05158,0.219521 0.04244,0.237864 -0.0027,0.0054 -0.01788,0.02813 -0.03369,0.05041 -0.02601,0.03663 -0.03201,0.04826 -0.06281,0.121558 -0.02183,0.05196 -0.03372,0.08505 -0.03312,0.09218 0.0064,0.07546 0.02078,0.153776 0.03618,0.196608 0.0097,0.02688 0.01574,0.05061 0.0135,0.05272 -0.0022,0.0021 -0.01028,0.01084 -0.01788,0.01937 -0.0076,0.0085 -0.02201,0.02027 -0.03202,0.02606 -0.01528,0.0088 -0.02281,0.01803 -0.04687,0.05715 -0.05036,0.08188 -0.05869,0.102073 -0.06114,0.148033 -0.0019,0.03644 -5e-4,0.04398 0.01584,0.08428 0.01295,0.0319 0.02456,0.05214 0.04158,0.0725 l 0.02361,0.02824 0.03621,0.0098 0.03622,0.0098 0.06967,0.140556 c 0.05564,0.112255 0.07821,0.163843 0.112075,0.25621 0.02332,0.06361 0.0431,0.118155 0.04395,0.121212 8.44e-4,0.0031 -0.01298,0.05435 -0.03074,0.113976 -0.03219,0.108099 -0.03242,0.108707 -0.07992,0.204658 l -0.04762,0.09624 -0.03187,0.003 c -0.01753,0.0016 -0.03573,0.0035 -0.04045,0.0042 -0.0068,10e-4 -0.02027,0.02041 -0.0653,0.0941 l -0.05672,0.09284 -0.07784,0.06935 c -0.0724,0.0645 -0.08253,0.07184 -0.144842,0.104841 -0.03685,0.01952 -0.06888,0.03561 -0.07118,0.03577 -0.0023,1.25e-4 -0.02368,-0.0082 -0.04752,-0.0185 -0.06422,-0.02783 -0.18576,-0.04562 -0.347858,-0.05092 l -0.127868,-0.0042 -0.08094,-0.05459 -0.08094,-0.05459 -0.08102,-0.125548 c -0.147555,-0.228638 -0.183695,-0.288802 -0.212359,-0.353504 l -0.02736,-0.06176 -0.01805,-0.138719 c -0.01628,-0.125186 -0.01753,-0.144572 -0.01279,-0.198714 l 0.0053,-0.05999 0.03347,-0.04866 c 0.01841,-0.02676 0.0352,-0.04903 0.03731,-0.04947 0.05781,-0.01212 0.223768,-0.03383 0.303126,-0.03966 0.08193,-0.006 0.115406,-0.0059 0.154217,7.32e-4 0.04195,0.0071 0.05684,0.0068 0.09682,-0.0017 0.04676,-0.01001 0.04745,-0.01037 0.06694,-0.03511 0.01083,-0.01375 0.03315,-0.04207 0.0496,-0.06294 l 0.02991,-0.03795 0.0035,-0.04505 c 0.0019,-0.02478 0.0021,-0.05946 3.75e-4,-0.07708 -0.0039,-0.04064 -0.003,-0.04759 0.0062,-0.04389 0.0105,0.0042 -0.08055,-0.226179 -0.11713,-0.296413 -0.02965,-0.05692 -0.02968,-0.05704 -0.04147,-0.138431 l -0.01179,-0.08146 0.01552,-0.09501 c 0.01463,-0.08956 0.01534,-0.101103 0.0124,-0.201314 -0.003,-0.103626 0.0022,-0.208791 0.0181,-0.365668 l 0.0073,-0.07208 0.02845,-0.0064 c 0.0601,-0.01343 0.06115,-0.01405 0.09014,-0.05343 l 0.02666,-0.03622 0.01542,-0.05677 c 0.01276,-0.04699 0.01508,-0.06313 0.01344,-0.09372 l -0.002,-0.03695 -0.07262,-0.08129 c -0.03994,-0.04471 -0.0847,-0.09084 -0.09946,-0.102523 -0.04469,-0.03536 -0.05346,-0.05178 -0.06253,-0.117013 -0.0043,-0.03108 -0.01172,-0.102756 -0.01645,-0.1592845 -0.0047,-0.05653 -0.01329,-0.144007 -0.01904,-0.194393 l -0.01045,-0.09161 0.01884,-0.09099 c 0.01806,-0.08718 0.02063,-0.09551 0.06153,-0.199121 0.03878,-0.09821 0.04638,-0.11453 0.08299,-0.177936 0.05837,-0.101122 0.06177,-0.108952 0.06823,-0.157082 0.0031,-0.02312 0.0065,-0.0423 0.0076,-0.04262 0.0011,-3.75e-4 0.0098,0.0125 0.01937,0.02849 0.01548,0.0259 0.02241,0.0329 0.06352,0.06416 0.06423,0.04884 0.118601,0.07319 0.193154,0.08652 0.05057,0.009 0.06025,0.0089 0.11482,-0.002 0.05269,-0.01046 0.06478,-0.01508 0.104352,-0.0398 0.05359,-0.03348 0.05337,-0.0334 0.04546,-0.01774 z"
     id="path2062"
     inkscape:connector-curvature="0" />
  <path
     id="path2064"
     d="m 3.2049761,9.1788215 c -0.07691,0.04858 -0.176589,0.05863 -0.279594,0.0282 -0.06661,-0.01968 -0.17043,-0.08936 -0.197085,-0.132269 -0.0099,-0.01586 -0.01814,-0.0283 -0.01842,-0.02765 -3.13e-4,6.56e-4 -0.0042,0.02051 -0.0087,0.04411 -0.0073,0.03818 -0.01448,0.05474 -0.06504,0.149985 -0.07657,0.14426 -0.11689,0.247496 -0.143907,0.36847 l -0.02079,0.0931 0.02019,0.203508 c 0.0236,0.2378925 0.03093,0.2902875 0.04397,0.3140455 0.0053,0.0096 0.02576,0.0322 0.04553,0.05019 0.01977,0.01799 0.0666,0.06657 0.104079,0.107968 l 0.06814,0.07527 -1.25e-4,0.04054 c -1.25e-4,0.04378 -0.01765,0.121777 -0.03453,0.153881 -0.02396,0.04557 -0.05497,0.07145 -0.09841,0.0821 l -0.0415,0.01018 -0.0095,0.104382 c -0.01214,0.133768 -0.01641,0.226091 -0.01472,0.317922 0.0019,0.102009 -3.13e-4,0.135392 -0.01424,0.220768 -0.0067,0.04095 -0.01175,0.08364 -0.01122,0.09487 0.0024,0.05082 0.02073,0.148289 0.03265,0.173372 0.0295,0.06208 0.106748,0.245103 0.120255,0.284915 0.008,0.02347 0.01257,0.04652 0.01024,0.05123 -0.0023,0.0047 -0.0033,0.02985 -0.0022,0.05587 0.0011,0.02602 7.68e-4,0.06172 -7.5e-4,0.07933 l -0.0028,0.03202 -0.04779,0.06029 -0.04779,0.06029 -0.04437,0.01226 c -0.03095,0.0086 -0.06413,0.0103 -0.109668,0.0058 -0.03591,-0.0036 -0.106591,-0.0031 -0.157066,0.001 -0.09791,0.008 -0.275044,0.03152 -0.291545,0.03866 -0.0055,0.0024 -0.0244,0.02573 -0.04206,0.05192 l -0.03211,0.04762 -0.0034,0.0631 c -0.0021,0.03863 0.0029,0.11398 0.01276,0.194335 0.02179,0.176802 0.03262,0.200384 0.24011,0.522798 l 0.09521,0.147944 0.08312,0.05606 0.08312,0.05606 0.06872,0.0019 c 0.191241,0.0053 0.316668,0.0215 0.396547,0.05124 0.02698,0.01004 0.05377,0.01732 0.05953,0.01617 0.03314,-0.0066 0.146221,-0.08139 0.213393,-0.141109 0.07194,-0.06396 0.07445,-0.06696 0.127812,-0.152876 0.02994,-0.0482 0.05726,-0.09031 0.06071,-0.09358 0.0035,-0.0033 0.02217,-0.0073 0.0416,-0.0091 l 0.03532,-0.0031 0.04938,-0.09991 c 0.04327,-0.08755 0.05321,-0.112941 0.08034,-0.205164 l 0.03096,-0.105249 -0.03663,-0.09919 c -0.04364,-0.118188 -0.0642,-0.165278 -0.134943,-0.309111 l -0.05352,-0.108813 -0.03693,-0.0102 c -0.03521,-0.0097 -0.03794,-0.01151 -0.05854,-0.03828 -0.01188,-0.01544 -0.03003,-0.04632 -0.04033,-0.06862 -0.01531,-0.03315 -0.01844,-0.0495 -0.01714,-0.08975 l 0.0016,-0.04922 0.03465,-0.06111 c 0.03714,-0.06549 0.04387,-0.07409 0.09032,-0.11533 l 0.03015,-0.02677 -0.01978,-0.07603 c -0.01088,-0.04182 -0.02234,-0.0985 -0.02547,-0.125957 -0.005,-0.04386 -0.0037,-0.05558 0.0109,-0.09648 0.02244,-0.06297 0.05577,-0.129842 0.0893,-0.17915 0.02763,-0.04064 0.02778,-0.04108 0.02444,-0.07285 -0.0055,-0.05275 -0.02388,-0.134965 -0.04827,-0.216549 l -0.02302,-0.07698 -0.05038,-0.05235 -0.05038,-0.05235 -0.03673,-0.106952 c -0.0202,-0.05882 -0.03863,-0.109851 -0.04095,-0.113394 -0.0023,-0.0035 -0.0188,-0.009 -0.03661,-0.01209 -0.01781,-0.0031 -0.03619,-0.0082 -0.04085,-0.01136 -0.01166,-0.0079 -0.0724,-0.1156 -0.08141,-0.144395 -0.0064,-0.02043 -0.0047,-0.03132 0.01294,-0.08378 0.03352,-0.09964 0.06534,-0.172206 0.08055,-0.18368 0.0074,-0.0056 0.03189,-0.01623 0.0545,-0.02371 0.02261,-0.0075 0.04047,-0.01503 0.03968,-0.01676 -7.87e-4,-0.0017 -0.02507,-0.04475 -0.05395,-0.0956 -0.04195,-0.073849 -0.126251,-0.2327495 -0.128813,-0.2427995 -3.13e-4,-0.0012 0.022,-0.06323 0.04954,-0.137917 l 0.05008,-0.135788 -0.0047,-0.07167 -0.0047,-0.07167 0.04648,-0.08055 c 0.02556,-0.0443 0.04992,-0.08943 0.05413,-0.100276 0.0076,-0.01955 0.0073,-0.01951 -0.02954,0.0038 z"
     style="fill:url(#linearGradient2066);fill-opacity:1;fill-rule:nonzero;stroke:#000000;stroke-width:0.00633973;stroke-miterlimit:4;stroke-dasharray:0.00633973, 0.01267946;stroke-dashoffset:0;stroke-opacity:0.96254536"
     inkscape:connector-curvature="0" />
  <path
     id="path2068"
     d="m 2.1930681,6.4066025 0.179266,-0.318001 -0.01017,-0.135947 0.09955,-0.268497 -0.160285,-0.301742 -0.116031,-0.07826 -0.08031,-0.105804 -0.0054,-0.14563 0.122785,-0.136642 0.09501,-0.01337 -0.08219,-0.236161 -0.101676,-0.107302 -0.05861,-0.194439 -0.02196,-0.156809 0.074,-0.105002 0.06349,-0.150817 -0.01845,-0.141537 -0.0411,-0.118081 -0.143115,-0.135252 -0.01145,-0.110993 0.03956,-0.102408 0.07143,-0.0551 0.06536,-0.02046 -0.143711,-0.290563 -0.09398,-0.257023 0.06733,-0.225678 0.10527,-0.212999 0.08194,-0.0093 0.112277,-0.182457 0.157218,-0.139237 0.14987,-0.07965 0.100736,0.04213 0.17439,0.02725 0.261115,0.0083 0.165758,0.111795 0.162851,0.251835 0.110902,0.178071 0.05767,0.129261 0.03691,0.283073 -0.0112,0.13445 -0.07878,0.114683 -0.216173,0.03493 -0.206603,0.01557 0.01401,0.06109 0.05511,0.179166 -0.05742,0.116182 -0.121159,0.02156 -0.15525,-0.06598 0.06818,0.175076 0.06246,0.119578 0.02546,0.17208 -0.03162,0.19813 0.0063,0.210807 -0.01376,0.184356 -0.01726,0.169084 0.08288,0.0559 0.09946,0.06708 0.01973,0.116583 -0.02871,0.05809 -0.0587,0.141135 -0.05836,0.051 0.01845,0.141537 0.01589,0.191443 0.02067,0.181762 -0.03991,0.19254 -0.0887,0.22418 -0.07049,0.120274 -0.02871,0.05809 -0.02077,0.153812 5.63e-4,0.15531 -0.105865,0.05769 -0.09373,-0.01158 -0.132606,-0.08944 -0.140895,-0.09503 z"
     style="fill:#ffff00;stroke:#000000;stroke-width:0.05171783px;stroke-linecap:butt;stroke-linejoin:miter;stroke-opacity:1"
     inkscape:connector-curvature="0" />
  <path
     id="path2070"
     d="m 2.1528001,3.2683535 0.07638,0.02156 0.03848,0.04536 0.0324,0.08006 -0.0032,0.06251 -0.02397,0.04851 -0.05625,0.09141 -0.03099,0.0179 -0.05463,0.05691"
     style="fill:#ffff00;stroke:#000000;stroke-width:0.05171783px;stroke-linecap:butt;stroke-linejoin:miter;stroke-opacity:1"
     inkscape:connector-curvature="0" />
  <path
     id="path2072"
     d="m 2.8818841,3.5148135 -0.01141,-0.122223 0.0056,-0.06736 c 0,0 -0.0063,-0.0048 0.01488,-0.03012 0.0176,-0.02103 0.073,-0.0917 0.073,-0.0917 l 0.08035,-0.01695 0.102277,0.01634"
     style="fill:none;stroke:#000000;stroke-width:0.05171783px;stroke-linecap:butt;stroke-linejoin:miter;stroke-opacity:1"
     inkscape:connector-curvature="0" />
  <path
     id="path2074"
     d="m 2.9816581,4.7439245 -0.09799,0.02221 -0.04602,0.05951 -0.02894,0.103363 0.0033,0.06046 0.04679,0.05096 0.08112,0.09351 0.05989,0.04686 0.03811,0.05292"
     style="fill:none;stroke:#000000;stroke-width:0.05171783px;stroke-linecap:butt;stroke-linejoin:miter;stroke-opacity:1"
     inkscape:connector-curvature="0" />
  <path
     id="path2076"
     d="m 2.3175031,4.9027095 0.0815,0.01513 0.0479,0.07111 0.0265,0.06961 -0.03069,0.09571 -0.02462,0.06101 -0.02877,0.05821 -0.03339,0.02275 -0.08035,0.01695 -0.09018,-0.009"
     style="fill:none;stroke:#000000;stroke-width:0.05171783px;stroke-linecap:butt;stroke-linejoin:miter;stroke-opacity:1"
     inkscape:connector-curvature="0" />
  <path
     id="path2078"
     d="m 2.1930681,6.4066025 0.111948,-0.07757 0.07988,-0.0496 0.1107,-0.02235 0.102225,0.0172 0.08608,0.03866 0.0848,0.06366 0.0757,0.120748"
     style="fill:none;stroke:#000000;stroke-width:0.05171783px;stroke-linecap:butt;stroke-linejoin:miter;stroke-opacity:1"
     inkscape:connector-curvature="0" />
  <path
     id="path2080"
     d="m 2.2867061,6.2955925 c 0.0034,-0.0068 0.03007,-0.05413 0.05914,-0.105113 l 0.05288,-0.0927 -0.0017,-0.02394 c -9.06e-4,-0.01317 -0.0032,-0.04481 -0.005,-0.07032 l -0.0034,-0.04639 0.04961,-0.133513 c 0.02728,-0.07343 0.05002,-0.136063 0.05052,-0.139178 0.0016,-0.01008 -0.170292,-0.328207 -0.181563,-0.335972 -0.01014,-0.007 -0.0092,-0.0076 0.02707,-0.0174 0.02067,-0.0056 0.04669,-0.01644 0.05783,-0.02413 0.01996,-0.01378 0.02059,-0.01477 0.04472,-0.06968 0.01346,-0.03064 0.03352,-0.08371 0.04458,-0.117928 l 0.02011,-0.06222 -0.01504,-0.03966 c -0.0084,-0.02221 -0.02781,-0.0591 -0.04406,-0.08385 l -0.02902,-0.04419 -0.03865,-0.0069 -0.03865,-0.0069 -0.03915,-0.113216 -0.03915,-0.113216 -0.05051,-0.0527 -0.05051,-0.0527 -0.02839,-0.09453 c -0.0306,-0.101896 -0.05158,-0.219522 -0.04243,-0.237865 0.0027,-0.0055 0.01788,-0.02813 0.03369,-0.05041 0.02601,-0.03663 0.03201,-0.04826 0.06281,-0.121557 0.02183,-0.05196 0.03372,-0.08505 0.03312,-0.09218 -0.0064,-0.07546 -0.02078,-0.153777 -0.03618,-0.196608 -0.0097,-0.02688 -0.01574,-0.05061 -0.0135,-0.05273 0.0022,-0.0021 0.01028,-0.01084 0.01788,-0.01937 0.0076,-0.0085 0.02201,-0.02027 0.03202,-0.02606 0.01528,-0.0088 0.02281,-0.01803 0.04687,-0.05715 0.05036,-0.08189 0.05869,-0.102074 0.06114,-0.148033 0.0019,-0.03645 5e-4,-0.04398 -0.01584,-0.08428 -0.01295,-0.0319 -0.02456,-0.05214 -0.04158,-0.0725 l -0.02361,-0.02824 -0.03621,-0.0098 -0.03622,-0.0098 -0.06967,-0.140556 c -0.05565,-0.112255 -0.07821,-0.163843 -0.112075,-0.25621 -0.02332,-0.06361 -0.0431,-0.118155 -0.04395,-0.121212 -8.44e-4,-0.0031 0.01298,-0.05435 0.03074,-0.113977 0.03219,-0.108098 0.03243,-0.108706 0.07992,-0.204657 l 0.04762,-0.09624 0.03187,-0.003 c 0.01753,-0.0016 0.03573,-0.0035 0.04045,-0.0042 0.0068,-10e-4 0.02027,-0.02041 0.0653,-0.0941 l 0.05672,-0.09284 0.07784,-0.06935 c 0.0724,-0.0645 0.08253,-0.07184 0.144842,-0.104841 0.03685,-0.01952 0.06888,-0.03561 0.07118,-0.03577 0.0023,-1.25e-4 0.02368,0.0082 0.04752,0.0185 0.06422,0.02783 0.18576,0.04562 0.347858,0.05092 l 0.127868,0.0042 0.08094,0.05459 0.08094,0.05459 0.08102,0.125548 c 0.147554,0.228638 0.183695,0.288801 0.212359,0.353504 l 0.02736,0.06176 0.01805,0.138719 c 0.01628,0.125186 0.01753,0.144572 0.01279,0.198713 l -0.0053,0.05999 -0.03347,0.04866 c -0.01841,0.02676 -0.0352,0.04903 -0.03731,0.04947 -0.05781,0.01212 -0.223769,0.03383 -0.303126,0.03965 -0.08193,0.006 -0.115406,0.0059 -0.154218,-7.31e-4 -0.04195,-0.0071 -0.05684,-0.0068 -0.09682,0.0017 -0.04676,0.01001 -0.04745,0.01037 -0.06694,0.03511 -0.01083,0.01375 -0.03315,0.04207 -0.0496,0.06294 l -0.02991,0.03795 -0.0035,0.04505 c -0.0019,0.02478 -0.0021,0.05946 -3.75e-4,0.07708 0.004,0.04064 0.003,0.04759 -0.0062,0.04389 -0.0105,-0.0043 0.08055,0.226179 0.11713,0.296413 0.02964,0.05692 0.02968,0.05704 0.04147,0.13843 l 0.01179,0.08146 -0.01552,0.095 c -0.01463,0.08956 -0.01534,0.101103 -0.0124,0.201315 0.003,0.103625 -0.0022,0.20879 -0.0181,0.365668 l -0.0073,0.07208 -0.02845,0.0064 c -0.0601,0.01343 -0.06115,0.01405 -0.09014,0.05344 l -0.02666,0.03622 -0.01542,0.05676 c -0.01276,0.04699 -0.01508,0.06313 -0.01344,0.09372 l 0.002,0.03695 0.07262,0.08129 c 0.03994,0.04471 0.0847,0.09084 0.09946,0.102523 0.04469,0.03536 0.05346,0.05178 0.06253,0.117012 0.0043,0.03108 0.01172,0.102757 0.01645,0.159285 0.0047,0.05653 0.01329,0.144007 0.01904,0.194394 l 0.01045,0.09161 -0.01885,0.09099 c -0.01806,0.08719 -0.02063,0.09551 -0.06153,0.199121 -0.03877,0.09821 -0.04639,0.11453 -0.08299,0.177936 -0.05837,0.101122 -0.06177,0.108951 -0.06823,0.157082 -0.0031,0.02312 -0.0065,0.0423 -0.0076,0.04262 -0.0011,3.75e-4 -0.0098,-0.0125 -0.01937,-0.02849 -0.01548,-0.0259 -0.02241,-0.0329 -0.06352,-0.06416 -0.06423,-0.04884 -0.118601,-0.07319 -0.193154,-0.08652 -0.05057,-0.009 -0.06025,-0.0089 -0.114821,0.002 -0.05269,0.01046 -0.06478,0.01507 -0.104351,0.0398 -0.05359,0.03348 -0.05337,0.0334 -0.04546,0.01774 z"
     style="fill:#008000;fill-opacity:1;stroke:none;stroke-width:0.00457125;stroke-opacity:0.02617804"
     inkscape:connector-curvature="0" />
  <path
     style="fill:url(#linearGradient2116);fill-opacity:1;fill-rule:nonzero;stroke:#000000;stroke-width:0.00633973;stroke-miterlimit:4;stroke-dasharray:0.00633973, 0.01267946;stroke-dashoffset:0;stroke-opacity:0.96254536"
     d="m 2.3303641,6.2761015 c 0.07691,-0.04858 0.176589,-0.05864 0.279594,-0.0282 0.06661,0.01968 0.17043,0.08936 0.197085,0.132268 0.0099,0.01586 0.01814,0.0283 0.01842,0.02765 3.12e-4,-6.56e-4 0.0042,-0.02051 0.0087,-0.04411 0.0073,-0.03818 0.01448,-0.05474 0.06503,-0.149986 0.07657,-0.144259 0.11689,-0.247496 0.143907,-0.368469 l 0.02079,-0.0931 -0.02019,-0.203509 c -0.0236,-0.237893 -0.03093,-0.290287 -0.04397,-0.314046 -0.0053,-0.0096 -0.02576,-0.0322 -0.04553,-0.05019 -0.01977,-0.01799 -0.0666,-0.06657 -0.104079,-0.107968 l -0.06814,-0.07527 1.25e-4,-0.04054 c 1.25e-4,-0.04378 0.01765,-0.121778 0.03453,-0.153882 0.02396,-0.04557 0.05497,-0.07145 0.09841,-0.0821 l 0.0415,-0.01018 0.0095,-0.104382 c 0.01214,-0.133767 0.01642,-0.22609 0.01473,-0.317922 -0.0019,-0.102008 3.13e-4,-0.135391 0.01424,-0.220767 0.0067,-0.04095 0.01175,-0.08364 0.01122,-0.09487 -0.0024,-0.05082 -0.02073,-0.14829 -0.03265,-0.173372 -0.0295,-0.06208 -0.106749,-0.245103 -0.120255,-0.284916 -0.008,-0.02346 -0.01257,-0.04652 -0.01024,-0.05123 0.0023,-0.0047 0.0033,-0.02985 0.0022,-0.05587 -0.0011,-0.02602 -7.69e-4,-0.06172 7.5e-4,-0.07933 l 0.0028,-0.03202 0.04779,-0.06029 0.04779,-0.06029 0.04437,-0.01227 c 0.03095,-0.0086 0.06413,-0.0103 0.109668,-0.0058 0.03591,0.0036 0.106591,0.0031 0.157066,-0.001 0.09791,-0.008 0.275044,-0.03152 0.291544,-0.03866 0.0055,-0.0024 0.0244,-0.02573 0.04206,-0.05192 l 0.03211,-0.04762 0.0034,-0.06309 c 0.0021,-0.03863 -0.0029,-0.11398 -0.01276,-0.194335 -0.02179,-0.176802 -0.03262,-0.200384 -0.24011,-0.522798 l -0.09521,-0.147944 -0.08312,-0.05606 -0.08312,-0.05606 -0.06872,-0.0019 c -0.191241,-0.0053 -0.316669,-0.0215 -0.396547,-0.05124 -0.02698,-0.01004 -0.05377,-0.01732 -0.05953,-0.01617 -0.03314,0.0066 -0.146221,0.08139 -0.213393,0.141109 -0.07194,0.06396 -0.07445,0.06696 -0.127812,0.152876 -0.02994,0.0482 -0.05726,0.09031 -0.06071,0.09358 -0.0035,0.0033 -0.02217,0.0073 -0.0416,0.0091 l -0.03532,0.0031 -0.04938,0.09991 c -0.04327,0.08755 -0.05321,0.11294 -0.08034,0.205164 l -0.03096,0.105249 0.03663,0.09919 c 0.04364,0.118188 0.0642,0.165278 0.134944,0.30911 l 0.05352,0.108814 0.03693,0.0102 c 0.03521,0.0097 0.03794,0.01151 0.05854,0.03828 0.01188,0.01545 0.03003,0.04632 0.04033,0.06862 0.01531,0.03315 0.01844,0.0495 0.01714,0.08975 l -0.0016,0.04922 -0.03465,0.06112 c -0.03713,0.06549 -0.04387,0.07409 -0.09032,0.11533 l -0.03015,0.02677 0.01978,0.07603 c 0.01088,0.04182 0.02234,0.0985 0.02547,0.125956 0.005,0.04386 0.0037,0.05558 -0.0109,0.09648 -0.02244,0.06298 -0.05577,0.129842 -0.0893,0.17915 -0.02763,0.04064 -0.02778,0.04108 -0.02444,0.07285 0.0055,0.05275 0.02388,0.134965 0.04827,0.216549 l 0.02302,0.07698 0.05038,0.05235 0.05038,0.05235 0.03673,0.106952 c 0.0202,0.05882 0.03863,0.10985 0.04095,0.113393 0.0023,0.0035 0.0188,0.009 0.03661,0.01209 0.01781,0.0031 0.03619,0.0082 0.04085,0.01136 0.01166,0.0079 0.0724,0.115599 0.08141,0.144395 0.0064,0.02043 0.0047,0.03132 -0.01294,0.08378 -0.03352,0.09964 -0.06535,0.172207 -0.08055,0.18368 -0.0074,0.0056 -0.03189,0.01623 -0.0545,0.02371 -0.02261,0.0075 -0.04047,0.01503 -0.03968,0.01676 7.88e-4,0.0017 0.02507,0.04475 0.05395,0.09559 0.04195,0.07385 0.126251,0.232751 0.128813,0.2428 3.13e-4,0.0012 -0.022,0.06323 -0.04954,0.137917 l -0.05008,0.135789 0.0047,0.07167 0.0047,0.07167 -0.04648,0.08055 c -0.02556,0.0443 -0.04992,0.08943 -0.05413,0.100276 -0.0076,0.01955 -0.0073,0.01951 0.02954,-0.0038 z"
     id="path2082"
     inkscape:connector-curvature="0" />
  <path
     style="fill:#ffff00;stroke:#000000;stroke-width:0.05171783px;stroke-linecap:butt;stroke-linejoin:miter;stroke-opacity:1"
     d="m 4.5415531,6.4066025 0.179266,-0.318001 -0.01017,-0.135947 0.09955,-0.268497 -0.160285,-0.301742 -0.116032,-0.07826 -0.08031,-0.105804 -0.0054,-0.14563 0.122785,-0.136642 0.09501,-0.01337 -0.08219,-0.236161 -0.101675,-0.107302 -0.05861,-0.194439 -0.02196,-0.156809 0.074,-0.105002 0.06349,-0.150817 -0.01845,-0.141537 -0.0411,-0.118081 -0.143115,-0.135252 -0.01145,-0.110993 0.03956,-0.102408 0.07143,-0.0551 0.06536,-0.02046 -0.143711,-0.290563 -0.09398,-0.257023 0.06733,-0.225678 0.105271,-0.212999 0.08194,-0.0093 0.112277,-0.182457 0.157218,-0.139237 0.14987,-0.07965 0.100736,0.04213 0.17439,0.02725 0.261115,0.0083 0.165758,0.111795 0.162851,0.251835 0.110902,0.178071 0.05767,0.129261 0.03691,0.283073 -0.0112,0.13445 -0.07878,0.114683 -0.216173,0.03493 -0.206603,0.01557 0.01401,0.06109 0.05511,0.179166 -0.05742,0.116182 -0.121159,0.02156 -0.15525,-0.06598 0.06818,0.175076 0.06246,0.119578 0.02546,0.17208 -0.03162,0.19813 0.0063,0.210807 -0.01376,0.184356 -0.01726,0.169084 0.08288,0.0559 0.09946,0.06708 0.01973,0.116583 -0.02871,0.05809 -0.0587,0.141135 -0.05836,0.051 0.01845,0.141537 0.01589,0.191443 0.02067,0.181762 -0.03991,0.19254 -0.0887,0.22418 -0.07049,0.120274 -0.02871,0.05809 -0.02077,0.153812 5.63e-4,0.15531 -0.105865,0.05769 -0.09373,-0.01158 -0.132607,-0.08944 -0.140895,-0.09503 z"
     id="path2084"
     inkscape:connector-curvature="0" />
  <path
     style="fill:#ffff00;stroke:#000000;stroke-width:0.05171783px;stroke-linecap:butt;stroke-linejoin:miter;stroke-opacity:1"
     d="m 4.5012851,3.2683535 0.07638,0.02156 0.03848,0.04536 0.0324,0.08006 -0.0032,0.06251 -0.02397,0.04851 -0.05625,0.09141 -0.03099,0.0179 -0.05463,0.05691"
     id="path2086"
     inkscape:connector-curvature="0" />
  <path
     style="fill:none;stroke:#000000;stroke-width:0.05171783px;stroke-linecap:butt;stroke-linejoin:miter;stroke-opacity:1"
     d="m 5.2303691,3.5148135 -0.01141,-0.122223 0.0056,-0.06736 c 0,0 -0.0063,-0.0048 0.01488,-0.03012 0.0176,-0.02103 0.073,-0.0917 0.073,-0.0917 l 0.08035,-0.01695 0.102277,0.01634"
     id="path2088"
     inkscape:connector-curvature="0" />
  <path
     style="fill:none;stroke:#000000;stroke-width:0.05171783px;stroke-linecap:butt;stroke-linejoin:miter;stroke-opacity:1"
     d="m 5.3301431,4.7439245 -0.09799,0.02221 -0.04602,0.05951 -0.02894,0.103363 0.0033,0.06046 0.04679,0.05096 0.08112,0.09351 0.05989,0.04686 0.03811,0.05292"
     id="path2090"
     inkscape:connector-curvature="0" />
  <path
     style="fill:none;stroke:#000000;stroke-width:0.05171783px;stroke-linecap:butt;stroke-linejoin:miter;stroke-opacity:1"
     d="m 4.6659881,4.9027095 0.0815,0.01513 0.0479,0.07111 0.0265,0.06961 -0.03069,0.09571 -0.02462,0.06101 -0.02877,0.05821 -0.03339,0.02275 -0.08035,0.01695 -0.09019,-0.009"
     id="path2092"
     inkscape:connector-curvature="0" />
  <path
     style="fill:none;stroke:#000000;stroke-width:0.05171783px;stroke-linecap:butt;stroke-linejoin:miter;stroke-opacity:1"
     d="m 4.5415531,6.4066025 0.111948,-0.07757 0.07988,-0.0496 0.1107,-0.02235 0.102224,0.0172 0.08609,0.03866 0.0848,0.06366 0.0757,0.120748"
     id="path2094"
     inkscape:connector-curvature="0" />
  <path
     style="fill:#008000;fill-opacity:1;stroke:none;stroke-width:0.00457125;stroke-opacity:0.02617804"
     d="m 4.6351911,6.2955925 c 0.0034,-0.0068 0.03007,-0.05413 0.05914,-0.105113 l 0.05288,-0.0927 -0.0017,-0.02394 c -9.07e-4,-0.01317 -0.0032,-0.04481 -0.005,-0.07032 l -0.0034,-0.04639 0.04961,-0.133513 c 0.02728,-0.07343 0.05002,-0.136063 0.05052,-0.139178 0.0016,-0.01008 -0.170292,-0.328207 -0.181563,-0.335972 -0.01014,-0.007 -0.0092,-0.0076 0.02707,-0.0174 0.02067,-0.0056 0.04669,-0.01644 0.05783,-0.02413 0.01996,-0.01378 0.02059,-0.01477 0.04472,-0.06968 0.01346,-0.03064 0.03352,-0.08371 0.04458,-0.117928 l 0.02011,-0.06222 -0.01504,-0.03966 c -0.0084,-0.02221 -0.02781,-0.0591 -0.04406,-0.08385 l -0.02902,-0.04419 -0.03865,-0.0069 -0.03865,-0.0069 -0.03915,-0.113216 -0.03915,-0.113216 -0.05051,-0.0527 -0.05051,-0.0527 -0.02839,-0.09453 c -0.0306,-0.101896 -0.05158,-0.219522 -0.04243,-0.237865 0.0027,-0.0055 0.01787,-0.02813 0.03369,-0.05041 0.02601,-0.03663 0.03201,-0.04826 0.06281,-0.121557 0.02183,-0.05196 0.03372,-0.08505 0.03312,-0.09218 -0.0064,-0.07546 -0.02078,-0.153777 -0.03618,-0.196608 -0.0097,-0.02688 -0.01574,-0.05061 -0.0135,-0.05273 0.0022,-0.0021 0.01028,-0.01084 0.01788,-0.01937 0.0076,-0.0085 0.02201,-0.02027 0.03202,-0.02606 0.01528,-0.0088 0.02281,-0.01803 0.04687,-0.05715 0.05036,-0.08189 0.05869,-0.102074 0.06114,-0.148033 0.0019,-0.03645 5e-4,-0.04398 -0.01584,-0.08428 -0.01295,-0.0319 -0.02456,-0.05214 -0.04158,-0.0725 l -0.02361,-0.02824 -0.03621,-0.0098 -0.03622,-0.0098 -0.06967,-0.140556 c -0.05565,-0.112255 -0.07821,-0.163843 -0.112075,-0.25621 -0.02332,-0.06361 -0.0431,-0.118155 -0.04395,-0.121212 -8.44e-4,-0.0031 0.01298,-0.05435 0.03074,-0.113977 0.03219,-0.108098 0.03243,-0.108706 0.07992,-0.204657 l 0.04762,-0.09624 0.03187,-0.003 c 0.01753,-0.0016 0.03573,-0.0035 0.04045,-0.0042 0.0068,-10e-4 0.02027,-0.02041 0.0653,-0.0941 l 0.05672,-0.09284 0.07784,-0.06935 c 0.0724,-0.0645 0.08253,-0.07184 0.144842,-0.104841 0.03685,-0.01952 0.06888,-0.03561 0.07118,-0.03577 0.0023,-1.25e-4 0.02368,0.0082 0.04752,0.0185 0.06422,0.02783 0.18576,0.04562 0.347858,0.05092 l 0.127868,0.0042 0.08094,0.05459 0.08094,0.05459 0.08102,0.125548 c 0.147554,0.228638 0.183695,0.288801 0.212359,0.353504 l 0.02736,0.06176 0.01805,0.138719 c 0.01628,0.125186 0.01753,0.144572 0.01279,0.198713 l -0.0053,0.05999 -0.03347,0.04866 c -0.01841,0.02676 -0.0352,0.04903 -0.03731,0.04947 -0.05781,0.01212 -0.223769,0.03383 -0.303126,0.03965 -0.08193,0.006 -0.115406,0.0059 -0.154218,-7.31e-4 -0.04195,-0.0071 -0.05684,-0.0068 -0.09682,0.0017 -0.04676,0.01001 -0.04745,0.01037 -0.06694,0.03511 -0.01083,0.01375 -0.03315,0.04207 -0.0496,0.06294 l -0.02991,0.03795 -0.0035,0.04505 c -0.0019,0.02478 -0.0021,0.05946 -3.75e-4,0.07708 0.0039,0.04064 0.003,0.04759 -0.0062,0.04389 -0.0105,-0.0043 0.08055,0.226179 0.11713,0.296413 0.02965,0.05692 0.02968,0.05704 0.04147,0.13843 l 0.01179,0.08146 -0.01552,0.095 c -0.01463,0.08956 -0.01534,0.101103 -0.0124,0.201315 0.003,0.103625 -0.0022,0.20879 -0.0181,0.365668 l -0.0073,0.07208 -0.02845,0.0064 c -0.0601,0.01343 -0.06115,0.01405 -0.09014,0.05344 l -0.02666,0.03622 -0.01542,0.05676 c -0.01276,0.04699 -0.01508,0.06313 -0.01344,0.09372 l 0.002,0.03695 0.07262,0.08129 c 0.03994,0.04471 0.0847,0.09084 0.09946,0.102523 0.04469,0.03536 0.05346,0.05178 0.06253,0.117012 0.0043,0.03108 0.01172,0.102757 0.01645,0.159285 0.0047,0.05653 0.01329,0.144007 0.01904,0.194394 l 0.01045,0.09161 -0.01885,0.09099 c -0.01806,0.08719 -0.02063,0.09551 -0.06153,0.199121 -0.03877,0.09821 -0.04639,0.11453 -0.08299,0.177936 -0.05837,0.101122 -0.06177,0.108951 -0.06823,0.157082 -0.0031,0.02312 -0.0065,0.0423 -0.0076,0.04262 -0.0011,3.75e-4 -0.0098,-0.0125 -0.01937,-0.02849 -0.01548,-0.0259 -0.02241,-0.0329 -0.06352,-0.06416 -0.06423,-0.04884 -0.118602,-0.07319 -0.193154,-0.08652 -0.05057,-0.009 -0.06025,-0.0089 -0.114821,0.002 -0.05269,0.01046 -0.06478,0.01507 -0.104352,0.0398 -0.05358,0.03348 -0.05337,0.0334 -0.04546,0.01774 z"
     id="path2096"
     inkscape:connector-curvature="0" />
  <path
     id="path2098"
     d="m 4.6788491,6.2761015 c 0.07691,-0.04858 0.176589,-0.05864 0.279594,-0.0282 0.06661,0.01968 0.17043,0.08936 0.197085,0.132268 0.0099,0.01586 0.01814,0.0283 0.01842,0.02765 3.12e-4,-6.56e-4 0.0042,-0.02051 0.0087,-0.04411 0.0073,-0.03818 0.01448,-0.05474 0.06503,-0.149986 0.07657,-0.144259 0.11689,-0.247496 0.143907,-0.368469 l 0.02079,-0.0931 -0.02019,-0.203509 c -0.0236,-0.237893 -0.03093,-0.290287 -0.04397,-0.314046 -0.0053,-0.0096 -0.02576,-0.0322 -0.04553,-0.05019 -0.01977,-0.01799 -0.0666,-0.06657 -0.104079,-0.107968 l -0.06814,-0.07527 1.25e-4,-0.04054 c 1.25e-4,-0.04378 0.01765,-0.121778 0.03453,-0.153882 0.02396,-0.04557 0.05497,-0.07145 0.09841,-0.0821 l 0.0415,-0.01018 0.0095,-0.104382 c 0.01214,-0.133767 0.01642,-0.22609 0.01473,-0.317922 -0.0019,-0.102008 3.13e-4,-0.135391 0.01424,-0.220767 0.0067,-0.04095 0.01175,-0.08364 0.01122,-0.09487 -0.0024,-0.05082 -0.02073,-0.14829 -0.03265,-0.173372 -0.0295,-0.06208 -0.106749,-0.245103 -0.120255,-0.284916 -0.008,-0.02346 -0.01257,-0.04652 -0.01024,-0.05123 0.0023,-0.0047 0.0033,-0.02985 0.0022,-0.05587 -0.0011,-0.02602 -7.69e-4,-0.06172 7.5e-4,-0.07933 l 0.0028,-0.03202 0.04779,-0.06029 0.04779,-0.06029 0.04437,-0.01227 c 0.03095,-0.0086 0.06413,-0.0103 0.109668,-0.0058 0.03591,0.0036 0.106591,0.0031 0.157066,-0.001 0.09791,-0.008 0.275044,-0.03152 0.291544,-0.03866 0.0055,-0.0024 0.0244,-0.02573 0.04206,-0.05192 l 0.03211,-0.04762 0.0034,-0.06309 c 0.0021,-0.03863 -0.0029,-0.11398 -0.01276,-0.194335 -0.02179,-0.176802 -0.03262,-0.200384 -0.24011,-0.522798 l -0.09521,-0.147944 -0.08312,-0.05606 -0.08312,-0.05606 -0.06872,-0.0019 c -0.191241,-0.0053 -0.316669,-0.0215 -0.396547,-0.05124 -0.02698,-0.01004 -0.05377,-0.01732 -0.05953,-0.01617 -0.03314,0.0066 -0.146221,0.08139 -0.213394,0.141109 -0.07194,0.06396 -0.07445,0.06696 -0.127811,0.152876 -0.02994,0.0482 -0.05726,0.09031 -0.06071,0.09358 -0.0035,0.0033 -0.02217,0.0073 -0.0416,0.0091 l -0.03532,0.0031 -0.04938,0.09991 c -0.04327,0.08755 -0.05321,0.11294 -0.08034,0.205164 l -0.03096,0.105249 0.03663,0.09919 c 0.04364,0.118188 0.0642,0.165278 0.134943,0.30911 l 0.05352,0.108814 0.03693,0.0102 c 0.03521,0.0097 0.03794,0.01151 0.05854,0.03828 0.01188,0.01545 0.03003,0.04632 0.04033,0.06862 0.01531,0.03315 0.01844,0.0495 0.01714,0.08975 l -0.0016,0.04922 -0.03465,0.06112 c -0.03714,0.06549 -0.04387,0.07409 -0.09032,0.11533 l -0.03015,0.02677 0.01978,0.07603 c 0.01088,0.04182 0.02234,0.0985 0.02547,0.125956 0.005,0.04386 0.0037,0.05558 -0.0109,0.09648 -0.02244,0.06298 -0.05577,0.129842 -0.0893,0.17915 -0.02763,0.04064 -0.02778,0.04108 -0.02444,0.07285 0.0055,0.05275 0.02388,0.134965 0.04827,0.216549 l 0.02302,0.07698 0.05038,0.05235 0.05038,0.05235 0.03673,0.106952 c 0.0202,0.05882 0.03863,0.10985 0.04095,0.113393 0.0023,0.0035 0.0188,0.009 0.03661,0.01209 0.01781,0.0031 0.03619,0.0082 0.04085,0.01136 0.01166,0.0079 0.0724,0.115599 0.08141,0.144395 0.0064,0.02043 0.0047,0.03132 -0.01294,0.08378 -0.03352,0.09964 -0.06535,0.172207 -0.08055,0.18368 -0.0074,0.0056 -0.03189,0.01623 -0.0545,0.02371 -0.02261,0.0075 -0.04047,0.01503 -0.03968,0.01676 7.88e-4,0.0017 0.02507,0.04475 0.05395,0.09559 0.04195,0.07385 0.12625,0.232751 0.128813,0.2428 3.12e-4,0.0012 -0.022,0.06323 -0.04954,0.137917 l -0.05008,0.135789 0.0047,0.07167 0.0047,0.07167 -0.04648,0.08055 c -0.02556,0.0443 -0.04992,0.08943 -0.05413,0.100276 -0.0076,0.01955 -0.0073,0.01951 0.02954,-0.0038 z"
     style="fill:url(#linearGradient2118);fill-opacity:1;fill-rule:nonzero;stroke:#000000;stroke-width:0.00633973;stroke-miterlimit:4;stroke-dasharray:0.00633973, 0.01267946;stroke-dashoffset:0;stroke-opacity:0.96254536"
     inkscape:connector-curvature="0" />
  <path
     id="path2100"
     d="m 6.8142801,6.4066025 0.179266,-0.318001 -0.01017,-0.135947 0.09955,-0.268497 -0.160285,-0.301742 -0.116032,-0.07826 -0.08031,-0.105804 -0.0054,-0.14563 0.122785,-0.136642 0.09501,-0.01337 -0.08219,-0.236161 -0.101675,-0.107302 -0.05861,-0.194439 -0.02196,-0.156809 0.074,-0.105002 0.06349,-0.150817 -0.01845,-0.141537 -0.04109,-0.118081 -0.143115,-0.135252 -0.01145,-0.110993 0.03956,-0.102408 0.07143,-0.0551 0.06536,-0.02046 -0.143711,-0.290563 -0.09398,-0.257023 0.06733,-0.225678 0.105271,-0.212999 0.08194,-0.0093 0.112277,-0.182457 0.157218,-0.139237 0.14987,-0.07965 0.100736,0.04213 0.17439,0.02725 0.261115,0.0083 0.165758,0.111795 0.162851,0.251835 0.110902,0.178071 0.05767,0.129261 0.03691,0.283073 -0.0112,0.13445 -0.07878,0.114683 -0.216173,0.03493 -0.206603,0.01557 0.01401,0.06109 0.05511,0.179166 -0.05742,0.116182 -0.121159,0.02156 -0.15525,-0.06598 0.06818,0.175076 0.06246,0.119578 0.02546,0.17208 -0.03162,0.19813 0.0063,0.210807 -0.01376,0.184356 -0.01726,0.169084 0.08288,0.0559 0.09946,0.06708 0.01973,0.116583 -0.02871,0.05809 -0.0587,0.141135 -0.05836,0.051 0.01845,0.141537 0.01589,0.191443 0.02067,0.181762 -0.03991,0.19254 -0.0887,0.22418 -0.07049,0.120274 -0.02871,0.05809 -0.02077,0.153812 5.63e-4,0.15531 -0.105865,0.05769 -0.09373,-0.01158 -0.132607,-0.08944 -0.140895,-0.09503 z"
     style="fill:#ffff00;stroke:#000000;stroke-width:0.05171783px;stroke-linecap:butt;stroke-linejoin:miter;stroke-opacity:1"
     inkscape:connector-curvature="0" />
  <path
     id="path2102"
     d="m 6.7740121,3.2683535 0.07638,0.02156 0.03848,0.04536 0.0324,0.08006 -0.0032,0.06251 -0.02397,0.04851 -0.05625,0.09141 -0.03099,0.0179 -0.05463,0.05691"
     style="fill:#ffff00;stroke:#000000;stroke-width:0.05171783px;stroke-linecap:butt;stroke-linejoin:miter;stroke-opacity:1"
     inkscape:connector-curvature="0" />
  <path
     id="path2104"
     d="m 7.5030961,3.5148135 -0.01141,-0.122223 0.0056,-0.06736 c 0,0 -0.0063,-0.0048 0.01488,-0.03012 0.0176,-0.02103 0.073,-0.0917 0.073,-0.0917 l 0.08035,-0.01695 0.102277,0.01634"
     style="fill:none;stroke:#000000;stroke-width:0.05171783px;stroke-linecap:butt;stroke-linejoin:miter;stroke-opacity:1"
     inkscape:connector-curvature="0" />
  <path
     id="path2106"
     d="m 7.6028701,4.7439245 -0.09799,0.02221 -0.04602,0.05951 -0.02894,0.103363 0.0033,0.06046 0.04679,0.05096 0.08112,0.09351 0.05989,0.04686 0.03811,0.05292"
     style="fill:none;stroke:#000000;stroke-width:0.05171783px;stroke-linecap:butt;stroke-linejoin:miter;stroke-opacity:1"
     inkscape:connector-curvature="0" />
  <path
     id="path2108"
     d="m 6.9387151,4.9027095 0.0815,0.01513 0.0479,0.07111 0.0265,0.06961 -0.03069,0.09571 -0.02462,0.06101 -0.02877,0.05821 -0.03339,0.02275 -0.08035,0.01695 -0.09019,-0.009"
     style="fill:none;stroke:#000000;stroke-width:0.05171783px;stroke-linecap:butt;stroke-linejoin:miter;stroke-opacity:1"
     inkscape:connector-curvature="0" />
  <path
     id="path2110"
     d="m 6.8142801,6.4066025 0.111948,-0.07757 0.07988,-0.0496 0.1107,-0.02235 0.102224,0.0172 0.08609,0.03866 0.0848,0.06366 0.0757,0.120748"
     style="fill:none;stroke:#000000;stroke-width:0.05171783px;stroke-linecap:butt;stroke-linejoin:miter;stroke-opacity:1"
     inkscape:connector-curvature="0" />
  <path
     id="path2112"
     d="m 6.9079181,6.2955925 c 0.0034,-0.0068 0.03007,-0.05413 0.05914,-0.105113 l 0.05288,-0.0927 -0.0017,-0.02394 c -9.07e-4,-0.01317 -0.0032,-0.04481 -0.005,-0.07032 l -0.0034,-0.04639 0.04961,-0.133513 c 0.02728,-0.07343 0.05002,-0.136063 0.05052,-0.139178 0.0016,-0.01008 -0.170292,-0.328207 -0.181563,-0.335972 -0.01014,-0.007 -0.0092,-0.0076 0.02707,-0.0174 0.02067,-0.0056 0.04669,-0.01644 0.05783,-0.02413 0.01996,-0.01378 0.02059,-0.01477 0.04472,-0.06968 0.01346,-0.03064 0.03352,-0.08371 0.04458,-0.117928 l 0.02011,-0.06222 -0.01504,-0.03966 c -0.0084,-0.02221 -0.02781,-0.0591 -0.04406,-0.08385 l -0.02902,-0.04419 -0.03865,-0.0069 -0.03865,-0.0069 -0.03915,-0.113216 -0.03915,-0.113216 -0.05051,-0.0527 -0.05051,-0.0527 -0.02839,-0.09453 c -0.0306,-0.101896 -0.05158,-0.219522 -0.04243,-0.237865 0.0027,-0.0055 0.01787,-0.02813 0.03369,-0.05041 0.02601,-0.03663 0.03201,-0.04826 0.06281,-0.121557 0.02183,-0.05196 0.03372,-0.08505 0.03312,-0.09218 -0.0064,-0.07546 -0.02078,-0.153777 -0.03618,-0.196608 -0.0097,-0.02688 -0.01574,-0.05061 -0.0135,-0.05273 0.0022,-0.0021 0.01028,-0.01084 0.01788,-0.01937 0.0076,-0.0085 0.02201,-0.02027 0.03202,-0.02606 0.01528,-0.0088 0.02281,-0.01803 0.04687,-0.05715 0.05036,-0.08189 0.05869,-0.102074 0.06114,-0.148033 0.0019,-0.03645 5e-4,-0.04398 -0.01584,-0.08428 -0.01295,-0.0319 -0.02456,-0.05214 -0.04158,-0.0725 l -0.02361,-0.02824 -0.03621,-0.0098 -0.03622,-0.0098 -0.06967,-0.140556 c -0.05565,-0.112255 -0.07821,-0.163843 -0.112075,-0.25621 -0.02332,-0.06361 -0.0431,-0.118155 -0.04395,-0.121212 -8.44e-4,-0.0031 0.01298,-0.05435 0.03074,-0.113977 0.03219,-0.108098 0.03243,-0.108706 0.07992,-0.204657 l 0.04762,-0.09624 0.03187,-0.003 c 0.01753,-0.0016 0.03573,-0.0035 0.04045,-0.0042 0.0068,-10e-4 0.02027,-0.02041 0.0653,-0.0941 l 0.05672,-0.09284 0.07784,-0.06935 c 0.07239,-0.0645 0.08253,-0.07184 0.144842,-0.104841 0.03685,-0.01952 0.06888,-0.03561 0.07118,-0.03577 0.0023,-1.25e-4 0.02368,0.0082 0.04752,0.0185 0.06422,0.02783 0.18576,0.04562 0.347858,0.05092 l 0.127868,0.0042 0.08094,0.05459 0.08094,0.05459 0.08102,0.125548 c 0.147554,0.228638 0.183695,0.288801 0.212359,0.353504 l 0.02736,0.06176 0.01805,0.138719 c 0.01628,0.125186 0.01753,0.144572 0.01279,0.198713 l -0.0053,0.05999 -0.03347,0.04866 c -0.01841,0.02676 -0.0352,0.04903 -0.03731,0.04947 -0.05781,0.01212 -0.223769,0.03383 -0.303126,0.03965 -0.08193,0.006 -0.115406,0.0059 -0.154218,-7.31e-4 -0.04195,-0.0071 -0.05684,-0.0068 -0.09682,0.0017 -0.04676,0.01001 -0.04745,0.01037 -0.06694,0.03511 -0.01083,0.01375 -0.03315,0.04207 -0.0496,0.06294 l -0.02991,0.03795 -0.0035,0.04505 c -0.0019,0.02478 -0.0021,0.05946 -3.75e-4,0.07708 0.004,0.04064 0.003,0.04759 -0.0062,0.04389 -0.0105,-0.0043 0.08055,0.226179 0.11713,0.296413 0.02964,0.05692 0.02968,0.05704 0.04147,0.13843 l 0.01179,0.08146 -0.01552,0.095 c -0.01463,0.08956 -0.01534,0.101103 -0.0124,0.201315 0.003,0.103625 -0.0022,0.20879 -0.0181,0.365668 l -0.0073,0.07208 -0.02845,0.0064 c -0.0601,0.01343 -0.06115,0.01405 -0.09014,0.05344 l -0.02666,0.03622 -0.01542,0.05676 c -0.01276,0.04699 -0.01508,0.06313 -0.01344,0.09372 l 0.002,0.03695 0.07262,0.08129 c 0.03994,0.04471 0.0847,0.09084 0.09946,0.102523 0.04469,0.03536 0.05346,0.05178 0.06253,0.117012 0.0043,0.03108 0.01172,0.102757 0.01645,0.159285 0.0047,0.05653 0.01329,0.144007 0.01904,0.194394 l 0.01045,0.09161 -0.01884,0.09099 c -0.01806,0.08719 -0.02063,0.09551 -0.06154,0.199121 -0.03877,0.09821 -0.04638,0.11453 -0.08299,0.177936 -0.05837,0.101122 -0.06177,0.108951 -0.06823,0.157082 -0.0031,0.02312 -0.0065,0.0423 -0.0076,0.04262 -0.0011,3.75e-4 -0.0098,-0.0125 -0.01937,-0.02849 -0.01548,-0.0259 -0.02241,-0.0329 -0.06352,-0.06416 -0.06423,-0.04884 -0.118602,-0.07319 -0.193154,-0.08652 -0.05057,-0.009 -0.06025,-0.0089 -0.114821,0.002 -0.05269,0.01046 -0.06478,0.01507 -0.104352,0.0398 -0.05359,0.03348 -0.05337,0.0334 -0.04546,0.01774 z"
     style="fill:#008000;fill-opacity:1;stroke:none;stroke-width:0.00457125;stroke-opacity:0.02617804"
     inkscape:connector-curvature="0" />
  <path
     style="fill:url(#linearGradient2120);fill-opacity:1;fill-rule:nonzero;stroke:#000000;stroke-width:0.00633973;stroke-miterlimit:4;stroke-dasharray:0.00633973, 0.01267946;stroke-dashoffset:0;stroke-opacity:0.96254536"
     d="m 6.9515761,6.2761015 c 0.07691,-0.04858 0.176589,-0.05864 0.279594,-0.0282 0.06661,0.01968 0.17043,0.08936 0.197085,0.132268 0.0099,0.01586 0.01814,0.0283 0.01842,0.02765 3.12e-4,-6.56e-4 0.0042,-0.02051 0.0087,-0.04411 0.0073,-0.03818 0.01448,-0.05474 0.06503,-0.149986 0.07657,-0.144259 0.11689,-0.247496 0.143907,-0.368469 l 0.02079,-0.0931 -0.02019,-0.203509 c -0.0236,-0.237893 -0.03093,-0.290287 -0.04397,-0.314046 -0.0053,-0.0096 -0.02576,-0.0322 -0.04553,-0.05019 -0.01977,-0.01799 -0.0666,-0.06657 -0.104079,-0.107968 l -0.06814,-0.07527 1.25e-4,-0.04054 c 1.25e-4,-0.04378 0.01765,-0.121778 0.03453,-0.153882 0.02396,-0.04557 0.05497,-0.07145 0.09841,-0.0821 l 0.0415,-0.01018 0.0095,-0.104382 c 0.01214,-0.133767 0.01642,-0.22609 0.01473,-0.317922 -0.0019,-0.102008 3.13e-4,-0.135391 0.01424,-0.220767 0.0067,-0.04095 0.01175,-0.08364 0.01122,-0.09487 -0.0024,-0.05082 -0.02073,-0.14829 -0.03265,-0.173372 -0.0295,-0.06208 -0.106749,-0.245103 -0.120255,-0.284916 -0.008,-0.02346 -0.01257,-0.04652 -0.01024,-0.05123 0.0023,-0.0047 0.0033,-0.02985 0.0022,-0.05587 -0.0011,-0.02602 -7.69e-4,-0.06172 7.5e-4,-0.07933 l 0.0028,-0.03202 0.04779,-0.06029 0.04779,-0.06029 0.04437,-0.01227 c 0.03095,-0.0086 0.06413,-0.0103 0.109668,-0.0058 0.03591,0.0036 0.106591,0.0031 0.157066,-0.001 0.09791,-0.008 0.275044,-0.03152 0.291544,-0.03866 0.0055,-0.0024 0.0244,-0.02573 0.04206,-0.05192 l 0.03211,-0.04762 0.0034,-0.06309 c 0.0021,-0.03863 -0.0029,-0.11398 -0.01276,-0.194335 -0.02179,-0.176802 -0.03262,-0.200384 -0.24011,-0.522798 l -0.09521,-0.147944 -0.08312,-0.05606 -0.08312,-0.05606 -0.06872,-0.0019 c -0.191241,-0.0053 -0.316669,-0.0215 -0.396547,-0.05124 -0.02698,-0.01004 -0.05377,-0.01732 -0.05953,-0.01617 -0.03314,0.0066 -0.146221,0.08139 -0.213394,0.141109 -0.07194,0.06396 -0.07445,0.06696 -0.127811,0.152876 -0.02994,0.0482 -0.05726,0.09031 -0.06071,0.09358 -0.0035,0.0033 -0.02217,0.0073 -0.0416,0.0091 l -0.03532,0.0031 -0.04938,0.09991 c -0.04327,0.08755 -0.05321,0.11294 -0.08034,0.205164 l -0.03096,0.105249 0.03663,0.09919 c 0.04365,0.118188 0.0642,0.165278 0.134943,0.30911 l 0.05352,0.108814 0.03693,0.0102 c 0.03521,0.0097 0.03794,0.01151 0.05854,0.03828 0.01188,0.01545 0.03003,0.04632 0.04033,0.06862 0.01531,0.03315 0.01844,0.0495 0.01714,0.08975 l -0.0016,0.04922 -0.03465,0.06112 c -0.03714,0.06549 -0.04387,0.07409 -0.09032,0.11533 l -0.03015,0.02677 0.01978,0.07603 c 0.01088,0.04182 0.02234,0.0985 0.02547,0.125956 0.005,0.04386 0.0037,0.05558 -0.0109,0.09648 -0.02244,0.06298 -0.05577,0.129842 -0.0893,0.17915 -0.02763,0.04064 -0.02778,0.04108 -0.02444,0.07285 0.0055,0.05275 0.02388,0.134965 0.04827,0.216549 l 0.02302,0.07698 0.05038,0.05235 0.05038,0.05235 0.03673,0.106952 c 0.0202,0.05882 0.03863,0.10985 0.04095,0.113393 0.0023,0.0035 0.0188,0.009 0.03661,0.01209 0.01781,0.0031 0.03619,0.0082 0.04085,0.01136 0.01166,0.0079 0.0724,0.115599 0.08141,0.144395 0.0064,0.02043 0.0047,0.03132 -0.01294,0.08378 -0.03352,0.09964 -0.06535,0.172207 -0.08055,0.18368 -0.0074,0.0056 -0.03189,0.01623 -0.0545,0.02371 -0.02261,0.0075 -0.04047,0.01503 -0.03968,0.01676 7.88e-4,0.0017 0.02507,0.04475 0.05395,0.09559 0.04195,0.07385 0.12625,0.232751 0.128813,0.2428 3.12e-4,0.0012 -0.022,0.06323 -0.04954,0.137917 l -0.05008,0.135789 0.0047,0.07167 0.0047,0.07167 -0.04648,0.08055 c -0.02556,0.0443 -0.04992,0.08943 -0.05413,0.100276 -0.0076,0.01955 -0.0073,0.01951 0.02954,-0.0038 z"
     id="path2114"
     inkscape:connector-curvature="0" />
</svg>
