<?xml version="1.0" encoding="UTF-8" standalone="no"?>
<svg
   xmlns:dc="http://purl.org/dc/elements/1.1/"
   xmlns:cc="http://creativecommons.org/ns#"
   xmlns:rdf="http://www.w3.org/1999/02/22-rdf-syntax-ns#"
   xmlns:svg="http://www.w3.org/2000/svg"
   xmlns="http://www.w3.org/2000/svg"
   xmlns:xlink="http://www.w3.org/1999/xlink"
   xmlns:sodipodi="http://sodipodi.sourceforge.net/DTD/sodipodi-0.dtd"
   xmlns:inkscape="http://www.inkscape.org/namespaces/inkscape"
   version="1.1"
   id="svg815"
   width="160"
   height="250"
   viewBox="0 0 160 250"
   sodipodi:docname="clubs07.svg"
   inkscape:version="0.92.5 (2060ec1f9f, 2020-04-08)">
  <sodipodi:namedview
     pagecolor="#ffffff"
     bordercolor="#666666"
     borderopacity="1"
     objecttolerance="10"
     gridtolerance="10"
     guidetolerance="10"
     inkscape:pageopacity="0"
     inkscape:pageshadow="2"
     inkscape:window-width="1918"
     inkscape:window-height="1017"
     id="namedview5011"
     showgrid="false"
     inkscape:zoom="12.668456"
     inkscape:cx="58.939394"
     inkscape:cy="240.15152"
     inkscape:window-x="0"
     inkscape:window-y="0"
     inkscape:window-maximized="1"
     inkscape:current-layer="svg815"
     inkscape:snap-page="true" />
  <metadata
     id="metadata821">
    <rdf:RDF>
      <cc:Work
         rdf:about="">
        <dc:format>image/svg+xml</dc:format>
        <dc:type
           rdf:resource="http://purl.org/dc/dcmitype/StillImage" />
        <dc:title></dc:title>
      </cc:Work>
    </rdf:RDF>
  </metadata>
  <defs
     id="defs819">
    <linearGradient
       gradientTransform="matrix(-0.11382866,-0.04897331,0.04897331,-0.11382866,11.360684,16.77034)"
       xlink:href="#linearGradient28"
       id="linearGradient30"
       x1="68.058258"
       y1="52.766853"
       x2="93.905167"
       y2="48.329338"
       gradientUnits="userSpaceOnUse" />
    <linearGradient
       id="linearGradient28">
      <stop
         style="stop-color:#d45500;stop-opacity:1;"
         offset="0"
         id="stop24" />
      <stop
         style="stop-color:#d45500;stop-opacity:0;"
         offset="1"
         id="stop26" />
    </linearGradient>
    <linearGradient
       xlink:href="#linearGradient28"
       id="linearGradient202"
       gradientUnits="userSpaceOnUse"
       gradientTransform="matrix(-0.10421379,0,0,-0.10421379,21.478984,12.331316)"
       x1="68.058258"
       y1="52.766853"
       x2="93.905167"
       y2="48.329338" />
    <linearGradient
       gradientTransform="matrix(0.09270834,0,0,0.10071509,9.635358,3.0600958)"
       xlink:href="#linearGradient28"
       id="linearGradient30-4"
       x1="68.058258"
       y1="52.766853"
       x2="93.905167"
       y2="48.329338"
       gradientUnits="userSpaceOnUse" />
    <linearGradient
       xlink:href="#linearGradient28"
       id="linearGradient367"
       gradientUnits="userSpaceOnUse"
       gradientTransform="matrix(0.0625,0,0,0.11444754,18.072663,2.4148925)"
       x1="68.058258"
       y1="52.766853"
       x2="93.905167"
       y2="48.329338" />
    <linearGradient
       xlink:href="#linearGradient28"
       id="linearGradient349"
       gradientUnits="userSpaceOnUse"
       gradientTransform="matrix(-0.0625,0,0,-0.11444754,30.014458,13.048996)"
       x1="68.058258"
       y1="52.766853"
       x2="93.905167"
       y2="48.329338" />
    <linearGradient
       gradientTransform="matrix(0.0625,0,0,0.11444754,22.258269,2.5882975)"
       xlink:href="#linearGradient28"
       id="linearGradient30-6"
       x1="68.058258"
       y1="52.766853"
       x2="93.905167"
       y2="48.329338"
       gradientUnits="userSpaceOnUse" />
    <linearGradient
       xlink:href="#linearGradient28"
       id="linearGradient554"
       gradientUnits="userSpaceOnUse"
       gradientTransform="matrix(-0.04739556,-0.02774335,0.02569172,-0.05118036,39.13871,8.9395546)"
       x1="68.058258"
       y1="52.766853"
       x2="93.905167"
       y2="48.329338" />
    <linearGradient
       xlink:href="#linearGradient28"
       id="linearGradient552"
       gradientUnits="userSpaceOnUse"
       gradientTransform="matrix(0.04739556,-0.02774335,-0.02569172,-0.05118036,30.774237,8.9206156)"
       x1="68.058258"
       y1="52.766853"
       x2="93.905167"
       y2="48.329338" />
    <linearGradient
       xlink:href="#linearGradient28"
       id="linearGradient518"
       gradientUnits="userSpaceOnUse"
       gradientTransform="matrix(-0.04739556,0.02774335,0.02569172,0.05118036,39.15765,6.5759136)"
       x1="68.058258"
       y1="52.766853"
       x2="93.905167"
       y2="48.329338" />
    <linearGradient
       gradientTransform="matrix(0.04739556,0.02774335,-0.02569172,0.05118036,30.793177,6.5948536)"
       xlink:href="#linearGradient28"
       id="linearGradient30-2"
       x1="68.058258"
       y1="52.766853"
       x2="93.905167"
       y2="48.329338"
       gradientUnits="userSpaceOnUse" />
    <linearGradient
       gradientTransform="matrix(-0.00182956,0.04406484,-0.05671844,-0.00142139,47.989828,4.511358)"
       xlink:href="#linearGradient28"
       id="linearGradient30-3"
       x1="68.058258"
       y1="52.766853"
       x2="93.905167"
       y2="48.329338"
       gradientUnits="userSpaceOnUse" />
    <linearGradient
       xlink:href="#linearGradient28"
       id="linearGradient1562"
       gradientUnits="userSpaceOnUse"
       gradientTransform="matrix(-0.0625,0,0,-0.0625,51.889458,7.060849)"
       x1="68.058258"
       y1="52.766853"
       x2="93.905167"
       y2="48.329338" />
    <linearGradient
       xlink:href="#linearGradient28"
       id="linearGradient1560"
       gradientUnits="userSpaceOnUse"
       gradientTransform="matrix(-0.0625,0,0,-0.0625,47.798548,7.004031)"
       x1="68.058258"
       y1="52.766853"
       x2="93.905167"
       y2="48.329338" />
    <linearGradient
       xlink:href="#linearGradient28"
       id="linearGradient1526"
       gradientUnits="userSpaceOnUse"
       gradientTransform="matrix(0.0625,0,0,0.0625,38.167361,8.526273)"
       x1="68.058258"
       y1="52.766853"
       x2="93.905167"
       y2="48.329338" />
    <linearGradient
       gradientTransform="matrix(0.0625,0,0,0.0625,42.25827,8.583091)"
       xlink:href="#linearGradient28"
       id="linearGradient30-9"
       x1="68.058258"
       y1="52.766853"
       x2="93.905167"
       y2="48.329338"
       gradientUnits="userSpaceOnUse" />
    <linearGradient
       xlink:href="#linearGradient28"
       id="linearGradient2120"
       gradientUnits="userSpaceOnUse"
       gradientTransform="matrix(-0.04785026,0,0,-0.05589801,61.027177,6.8616735)"
       x1="68.058258"
       y1="52.766853"
       x2="93.905167"
       y2="48.329338" />
    <linearGradient
       xlink:href="#linearGradient28"
       id="linearGradient2118"
       gradientUnits="userSpaceOnUse"
       gradientTransform="matrix(-0.04785026,0,0,-0.05589801,58.75445,6.8616735)"
       x1="68.058258"
       y1="52.766853"
       x2="93.905167"
       y2="48.329338" />
    <linearGradient
       xlink:href="#linearGradient28"
       id="linearGradient2116"
       gradientUnits="userSpaceOnUse"
       gradientTransform="matrix(-0.04785026,0,0,-0.05589801,56.405965,6.8616735)"
       x1="68.058258"
       y1="52.766853"
       x2="93.905167"
       y2="48.329338" />
    <linearGradient
       xlink:href="#linearGradient28"
       id="linearGradient2066"
       gradientUnits="userSpaceOnUse"
       gradientTransform="matrix(0.04785026,0,0,0.05589801,49.067214,8.5932485)"
       x1="68.058258"
       y1="52.766853"
       x2="93.905167"
       y2="48.329338" />
    <linearGradient
       xlink:href="#linearGradient28"
       id="linearGradient2048"
       gradientUnits="userSpaceOnUse"
       gradientTransform="matrix(0.04785026,0,0,0.05589801,51.339942,8.5932485)"
       x1="68.058258"
       y1="52.766853"
       x2="93.905167"
       y2="48.329338" />
    <linearGradient
       gradientTransform="matrix(0.04785026,0,0,0.05589801,53.688426,8.5932485)"
       xlink:href="#linearGradient28"
       id="linearGradient30-42"
       x1="68.058258"
       y1="52.766853"
       x2="93.905167"
       y2="48.329338"
       gradientUnits="userSpaceOnUse" />
    <linearGradient
       gradientTransform="matrix(-7.81785e-4,0.04887137,0.04887137,7.81785e-4,2.7655714,3.8708137)"
       xlink:href="#linearGradient28"
       id="linearGradient30-7"
       x1="68.058258"
       y1="52.766853"
       x2="93.905167"
       y2="48.329338"
       gradientUnits="userSpaceOnUse" />
    <linearGradient
       xlink:href="#linearGradient28"
       id="linearGradient2120-2"
       gradientUnits="userSpaceOnUse"
       gradientTransform="matrix(-0.04785026,0,0,-0.05589801,11.035656,6.8616741)"
       x1="68.058258"
       y1="52.766853"
       x2="93.905167"
       y2="48.329338" />
    <linearGradient
       xlink:href="#linearGradient28"
       id="linearGradient2118-5"
       gradientUnits="userSpaceOnUse"
       gradientTransform="matrix(-0.04785026,0,0,-0.05589801,8.7629294,6.8616741)"
       x1="68.058258"
       y1="52.766853"
       x2="93.905167"
       y2="48.329338" />
    <linearGradient
       xlink:href="#linearGradient28"
       id="linearGradient2116-4"
       gradientUnits="userSpaceOnUse"
       gradientTransform="matrix(-0.04785026,0,0,-0.05589801,6.4144444,6.8616741)"
       x1="68.058258"
       y1="52.766853"
       x2="93.905167"
       y2="48.329338" />
    <linearGradient
       xlink:href="#linearGradient28"
       id="linearGradient2066-4"
       gradientUnits="userSpaceOnUse"
       gradientTransform="matrix(0.04785026,0,0,0.05589801,-0.92430663,8.593248)"
       x1="68.058258"
       y1="52.766853"
       x2="93.905167"
       y2="48.329338" />
    <linearGradient
       xlink:href="#linearGradient28"
       id="linearGradient2048-9"
       gradientUnits="userSpaceOnUse"
       gradientTransform="matrix(0.04785026,0,0,0.05589801,1.3484204,8.593248)"
       x1="68.058258"
       y1="52.766853"
       x2="93.905167"
       y2="48.329338" />
    <linearGradient
       gradientTransform="matrix(0.04785026,0,0,0.05589801,3.6969054,8.593248)"
       xlink:href="#linearGradient28"
       id="linearGradient30-93"
       x1="68.058258"
       y1="52.766853"
       x2="93.905167"
       y2="48.329338"
       gradientUnits="userSpaceOnUse" />
    <linearGradient
       xlink:href="#linearGradient28"
       id="linearGradient2337"
       gradientUnits="userSpaceOnUse"
       gradientTransform="matrix(-0.0417883,0,0,-0.04857198,75.583944,6.4314344)"
       x1="68.058258"
       y1="52.766853"
       x2="93.905167"
       y2="48.329338" />
    <linearGradient
       xlink:href="#linearGradient28"
       id="linearGradient2335"
       gradientUnits="userSpaceOnUse"
       gradientTransform="matrix(0.0417883,0,0,0.04857198,70.628178,2.0064654)"
       x1="68.058258"
       y1="52.766853"
       x2="93.905167"
       y2="48.329338" />
    <linearGradient
       xlink:href="#linearGradient28"
       id="linearGradient2333"
       gradientUnits="userSpaceOnUse"
       gradientTransform="matrix(-0.0417883,0,0,-0.04857198,79.296068,6.4974754)"
       x1="68.058258"
       y1="52.766853"
       x2="93.905167"
       y2="48.329338" />
    <linearGradient
       xlink:href="#linearGradient28"
       id="linearGradient2331"
       gradientUnits="userSpaceOnUse"
       gradientTransform="matrix(0.0417883,0,0,0.04857198,74.340299,2.0725074)"
       x1="68.058258"
       y1="52.766853"
       x2="93.905167"
       y2="48.329338" />
    <linearGradient
       xlink:href="#linearGradient28"
       id="linearGradient2265"
       gradientUnits="userSpaceOnUse"
       gradientTransform="matrix(-0.0417883,0,0,-0.04857198,75.640764,13.685222)"
       x1="68.058258"
       y1="52.766853"
       x2="93.905167"
       y2="48.329338" />
    <linearGradient
       xlink:href="#linearGradient28"
       id="linearGradient2263"
       gradientUnits="userSpaceOnUse"
       gradientTransform="matrix(0.0417883,0,0,0.04857198,70.684995,9.2602534)"
       x1="68.058258"
       y1="52.766853"
       x2="93.905167"
       y2="48.329338" />
    <linearGradient
       xlink:href="#linearGradient28"
       id="linearGradient2229"
       gradientUnits="userSpaceOnUse"
       gradientTransform="matrix(-0.0417883,0,0,-0.04857198,79.352887,13.751263)"
       x1="68.058258"
       y1="52.766853"
       x2="93.905167"
       y2="48.329338" />
    <linearGradient
       gradientTransform="matrix(0.0417883,0,0,0.04857198,74.397116,9.3262944)"
       xlink:href="#linearGradient28"
       id="linearGradient30-5"
       x1="68.058258"
       y1="52.766853"
       x2="93.905167"
       y2="48.329338"
       gradientUnits="userSpaceOnUse" />
    <linearGradient
       gradientTransform="matrix(0,0.0625,-0.070221,0,88.204672,3.0537241)"
       xlink:href="#linearGradient28"
       id="linearGradient30-7-7"
       x1="68.058258"
       y1="52.766853"
       x2="93.905167"
       y2="48.329338"
       gradientUnits="userSpaceOnUse" />
    <linearGradient
       xlink:href="#linearGradient28"
       id="linearGradient2337-9"
       gradientUnits="userSpaceOnUse"
       gradientTransform="matrix(-0.0417883,0,0,-0.04857198,85.583944,6.4314336)"
       x1="68.058258"
       y1="52.766853"
       x2="93.905167"
       y2="48.329338" />
    <linearGradient
       xlink:href="#linearGradient28"
       id="linearGradient2335-2"
       gradientUnits="userSpaceOnUse"
       gradientTransform="matrix(0.0417883,0,0,0.04857198,80.628177,2.0064647)"
       x1="68.058258"
       y1="52.766853"
       x2="93.905167"
       y2="48.329338" />
    <linearGradient
       xlink:href="#linearGradient28"
       id="linearGradient2333-8"
       gradientUnits="userSpaceOnUse"
       gradientTransform="matrix(-0.0417883,0,0,-0.04857198,89.296066,6.4974746)"
       x1="68.058258"
       y1="52.766853"
       x2="93.905167"
       y2="48.329338" />
    <linearGradient
       xlink:href="#linearGradient28"
       id="linearGradient2331-3"
       gradientUnits="userSpaceOnUse"
       gradientTransform="matrix(0.0417883,0,0,0.04857198,84.340298,2.0725065)"
       x1="68.058258"
       y1="52.766853"
       x2="93.905167"
       y2="48.329338" />
    <linearGradient
       xlink:href="#linearGradient28"
       id="linearGradient2265-0"
       gradientUnits="userSpaceOnUse"
       gradientTransform="matrix(-0.0417883,0,0,-0.04857198,85.640762,13.685222)"
       x1="68.058258"
       y1="52.766853"
       x2="93.905167"
       y2="48.329338" />
    <linearGradient
       xlink:href="#linearGradient28"
       id="linearGradient2263-1"
       gradientUnits="userSpaceOnUse"
       gradientTransform="matrix(0.0417883,0,0,0.04857198,80.684995,9.2602526)"
       x1="68.058258"
       y1="52.766853"
       x2="93.905167"
       y2="48.329338" />
    <linearGradient
       xlink:href="#linearGradient28"
       id="linearGradient2229-7"
       gradientUnits="userSpaceOnUse"
       gradientTransform="matrix(-0.0417883,0,0,-0.04857198,89.352884,13.751263)"
       x1="68.058258"
       y1="52.766853"
       x2="93.905167"
       y2="48.329338" />
    <linearGradient
       gradientTransform="matrix(0.0417883,0,0,0.04857198,84.397116,9.3262946)"
       xlink:href="#linearGradient28"
       id="linearGradient30-8"
       x1="68.058258"
       y1="52.766853"
       x2="93.905167"
       y2="48.329338"
       gradientUnits="userSpaceOnUse" />
    <linearGradient
       gradientUnits="userSpaceOnUse"
       y2="48.329338"
       x2="93.905167"
       y1="52.766853"
       x1="68.058258"
       id="linearGradient30-37"
       xlink:href="#linearGradient28"
       gradientTransform="matrix(-0.02567333,-0.01104562,0.01104562,-0.02567333,98.847603,4.8327149)" />
    <linearGradient
       gradientUnits="userSpaceOnUse"
       y2="71.008263"
       x2="88.849586"
       y1="58.644627"
       x1="82.105782"
       id="linearGradient1063"
       xlink:href="#linearGradient882"
       gradientTransform="matrix(0.0625,0,0,0.0625,89.999998,-1.2353516e-7)" />
    <linearGradient
       id="linearGradient882">
      <stop
         style="stop-color:#d16208;stop-opacity:1"
         offset="0"
         id="stop878" />
      <stop
         style="stop-color:#d16250;stop-opacity:0;"
         offset="1"
         id="stop880" />
    </linearGradient>
    <linearGradient
       gradientUnits="userSpaceOnUse"
       y2="68.472336"
       x2="56.128345"
       y1="63.697319"
       x1="61.166279"
       id="linearGradient876"
       xlink:href="#linearGradient882"
       gradientTransform="matrix(0.0625,0,0,0.0625,89.999998,-1.2353516e-7)" />
    <linearGradient
       gradientUnits="userSpaceOnUse"
       y2="48.329338"
       x2="93.905167"
       y1="52.766853"
       x1="68.058258"
       id="linearGradient30-0"
       xlink:href="#linearGradient28"
       gradientTransform="matrix(-0.02881053,-0.01239536,0.01239536,-0.02881053,108.70072,5.4503207)" />
    <linearGradient
       gradientUnits="userSpaceOnUse"
       y2="48.329338"
       x2="93.905167"
       y1="52.766853"
       x1="68.058258"
       id="linearGradient30-80"
       xlink:href="#linearGradient28"
       gradientTransform="matrix(-0.02849684,-0.0122604,0.0122604,-0.02849684,118.86314,5.4302307)" />
    <linearGradient
       xlink:href="#linearGradient846"
       id="linearGradient848"
       x1="72.37397"
       y1="53.171356"
       x2="72.19931"
       y2="45.564011"
       gradientUnits="userSpaceOnUse"
       gradientTransform="matrix(0.0625,0,0,0.0625,110,-2.6464844e-7)" />
    <linearGradient
       id="linearGradient846">
      <stop
         style="stop-color:#423abf;stop-opacity:1;"
         offset="0"
         id="stop842" />
      <stop
         style="stop-color:#423abf;stop-opacity:0;"
         offset="1"
         id="stop844" />
    </linearGradient>
  </defs>
  <flowRoot
     style="font-style:normal;font-variant:normal;font-weight:bold;font-stretch:normal;font-size:1px;line-height:1.25;font-family:'DejaVu Sans';-inkscape-font-specification:'DejaVu Sans Bold';letter-spacing:0px;word-spacing:0px;fill:#000000;fill-opacity:1;stroke:none;stroke-width:0.0625"
     id="flowRoot100"
     xml:space="preserve"><flowRegion
       style="stroke-width:0.0625"
       id="flowRegion102"><rect
         style="stroke-width:0.00390625"
         y="0.73863637"
         x="0.66287881"
         height="1.3636364"
         width="1.5151515"
         id="rect104" /></flowRegion><flowPara
       style="stroke-width:0.0625"
       id="flowPara106" /></flowRoot>  <rect
     y="0"
     x="0.0084763719"
     height="15.625"
     width="10"
     id="clubs07"
     style="fill:#ffffff;fill-opacity:1;stroke:#1a1a1a;stroke-width:0.0625;stroke-opacity:1" />
  <rect
     y="1.306818"
     x="1.3531724"
     height="12.973484"
     width="7.2537889"
     id="rect108-05"
     style="fill:none;fill-opacity:1;stroke:#1a1a1a;stroke-width:0.0625;stroke-opacity:1" />
  <g
     id="flowRoot915-02"
     style="font-style:normal;font-variant:normal;font-weight:bold;font-stretch:normal;font-size:16px;line-height:1.25;font-family:'DejaVu Sans';-inkscape-font-specification:'DejaVu Sans Bold';text-align:start;letter-spacing:0px;word-spacing:0px;text-anchor:start;fill:#000000;fill-opacity:1;stroke:none"
     transform="matrix(0.0625,0,0,0.0625,0.19787237,-1.4687501e-7)"
     aria-label="7">
    <path
       id="path4857"
       d="M 4.1015625,7.0371094 H 12.890625 V 8.7324219 L 8.34375,18.701172 H 5.4140625 L 9.71875,9.2480469 H 4.1015625 Z"
       inkscape:connector-curvature="0" />
  </g>
  <path
     style="fill:#ffff00;stroke:#000000;stroke-width:0.05171783px;stroke-linecap:butt;stroke-linejoin:miter;stroke-opacity:1"
     d="m 7.9408834,9.04832 -0.179267,0.318001 0.01017,0.135947 -0.09955,0.268497 0.160285,0.301742 0.116031,0.07826 0.08031,0.105804 0.0054,0.14563 -0.122785,0.136642 -0.09501,0.01337 0.08219,0.236161 0.101675,0.107302 0.05861,0.194439 0.02196,0.156809 -0.074,0.105002 -0.06349,0.150817 0.01845,0.141537 0.0411,0.118081 0.143115,0.135252 0.01145,0.110993 -0.03956,0.102408 -0.07143,0.0551 -0.06536,0.02046 0.143711,0.290563 0.09398,0.257023 -0.06733,0.225678 -0.105271,0.212999 -0.08194,0.0093 -0.112277,0.182457 -0.157219,0.139237 -0.149869,0.07965 -0.100737,-0.04212 -0.17439,-0.02725 -0.261115,-0.0083 -0.165758,-0.111795 -0.16285,-0.251835 -0.110903,-0.178071 -0.05767,-0.129261 -0.03691,-0.283073 0.0112,-0.13445 0.07878,-0.114683 0.216173,-0.03493 0.206603,-0.01556 -0.01401,-0.06109 -0.05511,-0.179166 0.05742,-0.116182 0.12116,-0.02156 0.155249,0.06598 -0.06818,-0.175076 -0.06246,-0.119578 -0.02546,-0.17208 0.03162,-0.19813 -0.0063,-0.210807 0.01376,-0.184356 0.01726,-0.169084 -0.08288,-0.0559 -0.09945,-0.06708 -0.01974,-0.116583 0.02871,-0.05809 0.0587,-0.141135 0.05836,-0.051 -0.01845,-0.141537 -0.01589,-0.191443 -0.02067,-0.181762 0.03991,-0.19254 0.0887,-0.22418 0.07049,-0.120274 0.02871,-0.05809 0.02076,-0.153812 -5.62e-4,-0.15531 0.105865,-0.05769 0.09373,0.01158 0.132606,0.08944 0.140895,0.09503 z"
     id="path2551-9"
     inkscape:connector-curvature="0" />
  <path
     style="fill:#ffff00;stroke:#000000;stroke-width:0.05171783px;stroke-linecap:butt;stroke-linejoin:miter;stroke-opacity:1"
     d="m 7.9811504,12.186569 -0.07638,-0.02156 -0.03848,-0.04536 -0.0324,-0.08006 0.0032,-0.06251 0.02397,-0.04851 0.05625,-0.09141 0.03099,-0.0179 0.05463,-0.05691"
     id="path2553-4"
     inkscape:connector-curvature="0" />
  <path
     style="fill:none;stroke:#000000;stroke-width:0.05171783px;stroke-linecap:butt;stroke-linejoin:miter;stroke-opacity:1"
     d="m 7.2520664,11.940109 0.01141,0.122223 -0.0056,0.06736 c 0,0 0.0063,0.0048 -0.01489,0.03012 -0.0176,0.02103 -0.073,0.0917 -0.073,0.0917 l -0.08035,0.01695 -0.102277,-0.01634"
     id="path2555-3"
     inkscape:connector-curvature="0" />
  <path
     style="fill:none;stroke:#000000;stroke-width:0.05171783px;stroke-linecap:butt;stroke-linejoin:miter;stroke-opacity:1"
     d="m 7.1522924,10.710998 0.09799,-0.02221 0.04602,-0.05951 0.02894,-0.103363 -0.0033,-0.06046 -0.04679,-0.05096 -0.08112,-0.09351 -0.05989,-0.04686 -0.03811,-0.05292"
     id="path2557-5"
     inkscape:connector-curvature="0" />
  <path
     style="fill:none;stroke:#000000;stroke-width:0.05171783px;stroke-linecap:butt;stroke-linejoin:miter;stroke-opacity:1"
     d="m 7.8164484,10.552213 -0.0815,-0.01513 -0.0479,-0.07111 -0.0265,-0.06961 0.0307,-0.09571 0.02461,-0.06101 0.02877,-0.05821 0.03339,-0.02275 0.08035,-0.01695 0.09019,0.009"
     id="path2559-1"
     inkscape:connector-curvature="0" />
  <path
     style="fill:none;stroke:#000000;stroke-width:0.05171783px;stroke-linecap:butt;stroke-linejoin:miter;stroke-opacity:1"
     d="m 7.9408834,9.04832 -0.111948,0.07757 -0.07988,0.0496 -0.1107,0.02235 -0.102224,-0.01721 -0.08608,-0.03866 -0.0848,-0.06366 -0.0757,-0.120748"
     id="path2561-7"
     inkscape:connector-curvature="0" />
  <path
     style="fill:#008000;fill-opacity:1;stroke:none;stroke-width:0.00457125;stroke-opacity:0.02617804"
     d="m 7.8472454,9.15933 c -0.0034,0.0068 -0.03007,0.05413 -0.05914,0.105113 l -0.05288,0.0927 0.0017,0.02394 c 9.06e-4,0.01317 0.0032,0.04481 0.005,0.07032 l 0.0034,0.04639 -0.04961,0.133513 c -0.02728,0.07343 -0.05002,0.136063 -0.05052,0.139178 -0.0016,0.01008 0.170293,0.328207 0.181563,0.335972 0.01014,0.007 0.0092,0.0076 -0.02707,0.0174 -0.02067,0.0056 -0.04669,0.01644 -0.05783,0.02413 -0.01996,0.01378 -0.02059,0.01477 -0.04472,0.06968 -0.01346,0.03064 -0.03352,0.08371 -0.04458,0.117928 l -0.02011,0.06222 0.01504,0.03966 c 0.0084,0.02221 0.02781,0.0591 0.04406,0.08385 l 0.02902,0.04419 0.03865,0.0069 0.03865,0.0069 0.03915,0.113216 0.03915,0.113216 0.05051,0.0527 0.05051,0.0527 0.02839,0.09453 c 0.0306,0.101896 0.05158,0.219522 0.04243,0.237865 -0.0027,0.0054 -0.01787,0.02813 -0.03369,0.05041 -0.02601,0.03663 -0.03201,0.04826 -0.06281,0.121557 -0.02183,0.05196 -0.03372,0.08505 -0.03312,0.09218 0.0064,0.07546 0.02078,0.153777 0.03618,0.196608 0.0097,0.02688 0.01574,0.05061 0.0135,0.05273 -0.0022,0.0021 -0.01028,0.01084 -0.01788,0.01937 -0.0076,0.0085 -0.02201,0.02027 -0.03202,0.02606 -0.01528,0.0088 -0.02281,0.01803 -0.04687,0.05715 -0.05036,0.08188 -0.05869,0.102074 -0.06113,0.148033 -0.0019,0.03644 -5e-4,0.04398 0.01584,0.08428 0.01295,0.0319 0.02456,0.05215 0.04158,0.0725 l 0.02361,0.02824 0.03621,0.0098 0.03622,0.0098 0.06967,0.140556 c 0.05565,0.112255 0.07821,0.163843 0.112076,0.25621 0.02332,0.06361 0.0431,0.118155 0.04395,0.121212 8.44e-4,0.0031 -0.01298,0.05435 -0.03074,0.113977 -0.03219,0.108098 -0.03243,0.108706 -0.07992,0.204657 l -0.04762,0.09624 -0.03187,0.003 c -0.01753,0.0016 -0.03573,0.0035 -0.04045,0.0042 -0.0068,0.001 -0.02027,0.02041 -0.0653,0.0941 l -0.05672,0.09284 -0.07784,0.06935 c -0.07239,0.0645 -0.08253,0.07184 -0.144842,0.104842 -0.03685,0.01952 -0.06888,0.03561 -0.07118,0.03577 -0.0023,1.25e-4 -0.02368,-0.0082 -0.04752,-0.0185 -0.06422,-0.02783 -0.18576,-0.04562 -0.347858,-0.05092 l -0.127867,-0.0042 -0.08094,-0.05459 -0.08094,-0.05459 -0.08102,-0.125549 C 6.6291434,13.012226 6.5930024,12.952063 6.5643384,12.88736 l -0.02736,-0.06176 -0.01805,-0.138719 c -0.01628,-0.125186 -0.01753,-0.144572 -0.01279,-0.198713 l 0.0053,-0.05999 0.03347,-0.04866 c 0.01841,-0.02676 0.0352,-0.04903 0.03732,-0.04947 0.05781,-0.01212 0.223768,-0.03383 0.303125,-0.03965 0.08193,-0.006 0.115406,-0.0059 0.154218,7.31e-4 0.04195,0.0071 0.05684,0.0068 0.09682,-0.0017 0.04676,-0.01001 0.04745,-0.01037 0.06693,-0.03511 0.01083,-0.01375 0.03315,-0.04207 0.0496,-0.06294 l 0.02991,-0.03795 0.0035,-0.04505 c 0.0019,-0.02477 0.0021,-0.05946 3.75e-4,-0.07708 -0.0039,-0.04064 -0.003,-0.04759 0.0062,-0.04389 0.0105,0.0043 -0.08055,-0.226179 -0.11713,-0.296413 -0.02965,-0.05692 -0.02968,-0.05704 -0.04147,-0.13843 l -0.01179,-0.08146 0.01552,-0.095 c 0.01463,-0.08956 0.01534,-0.101103 0.0124,-0.201315 -0.003,-0.103625 0.0022,-0.20879 0.0181,-0.365668 l 0.0073,-0.07208 0.02845,-0.0064 c 0.0601,-0.01343 0.06115,-0.01405 0.09014,-0.05344 l 0.02666,-0.03622 0.01542,-0.05677 c 0.01276,-0.04699 0.01508,-0.06313 0.01344,-0.09372 l -0.002,-0.03695 -0.07262,-0.08129 c -0.03994,-0.04471 -0.0847,-0.09084 -0.09946,-0.102523 -0.04469,-0.03536 -0.05346,-0.05178 -0.06253,-0.117012 -0.0043,-0.03108 -0.01172,-0.102757 -0.01645,-0.159285 -0.0047,-0.05653 -0.01329,-0.144007 -0.01904,-0.194394 l -0.01045,-0.09161 0.01884,-0.09099 c 0.01806,-0.08718 0.02063,-0.09551 0.06154,-0.199121 0.03878,-0.09821 0.04639,-0.11453 0.08299,-0.177936 0.05837,-0.101122 0.06177,-0.108951 0.06823,-0.157082 0.0031,-0.02312 0.0065,-0.0423 0.0076,-0.04262 0.0011,-3.75e-4 0.0098,0.0125 0.01937,0.02849 0.01548,0.0259 0.02241,0.0329 0.06352,0.06416 0.06423,0.04884 0.118601,0.07319 0.193153,0.08652 0.05057,0.009 0.06025,0.0089 0.114821,-0.002 0.05269,-0.01046 0.06478,-0.01508 0.104352,-0.0398 0.05358,-0.03348 0.05337,-0.0334 0.04546,-0.01774 z"
     id="path2563-43"
     inkscape:connector-curvature="0" />
  <path
     id="path2581-1"
     d="m 7.8035864,9.178822 c -0.07691,0.04858 -0.176589,0.05863 -0.279593,0.0282 -0.06661,-0.01968 -0.170431,-0.08936 -0.197085,-0.132269 -0.0099,-0.01586 -0.01814,-0.0283 -0.01842,-0.02765 -3.12e-4,6.56e-4 -0.0042,0.02051 -0.0087,0.04411 -0.0073,0.03818 -0.01448,0.05474 -0.06503,0.149985 -0.07657,0.144259 -0.11689,0.247496 -0.143907,0.368469 l -0.02079,0.0931 0.02019,0.203509 c 0.0236,0.237893 0.03093,0.290287 0.04397,0.314046 0.0053,0.0096 0.02576,0.0322 0.04553,0.05019 0.01977,0.01799 0.0666,0.06657 0.104079,0.107968 l 0.06814,0.07526 -1.25e-4,0.04054 c -1.25e-4,0.04378 -0.01765,0.121778 -0.03453,0.153882 -0.02396,0.04557 -0.05497,0.07145 -0.09841,0.0821 l -0.0415,0.01018 -0.0095,0.104382 c -0.01214,0.133767 -0.01641,0.22609 -0.01473,0.317922 0.0019,0.102008 -3.12e-4,0.135391 -0.01424,0.220767 -0.0067,0.04095 -0.01175,0.08364 -0.01122,0.09487 0.0024,0.05082 0.02073,0.14829 0.03265,0.173372 0.0295,0.06208 0.106748,0.245103 0.120254,0.284916 0.008,0.02346 0.01257,0.04652 0.01024,0.05123 -0.0023,0.0047 -0.0033,0.02985 -0.0022,0.05587 0.0011,0.02602 7.69e-4,0.06172 -7.5e-4,0.07933 l -0.0028,0.03202 -0.04779,0.06029 -0.04779,0.06029 -0.04437,0.01227 c -0.03095,0.0086 -0.06413,0.0103 -0.109668,0.0058 -0.03591,-0.0036 -0.106591,-0.0031 -0.157066,0.001 -0.09791,0.008 -0.275044,0.03152 -0.291544,0.03866 -0.0055,0.0024 -0.0244,0.02573 -0.04206,0.05192 l -0.03211,0.04762 -0.0034,0.06309 c -0.0021,0.03863 0.0029,0.11398 0.01276,0.194335 0.02179,0.176802 0.03262,0.200384 0.240111,0.522798 l 0.09521,0.147944 0.08312,0.05606 0.08312,0.05606 0.06872,0.0019 c 0.19124,0.0053 0.316668,0.0215 0.396547,0.05124 0.02698,0.01004 0.05377,0.01732 0.05953,0.01617 0.03314,-0.0066 0.14622,-0.08139 0.213393,-0.141109 0.07194,-0.06396 0.07444,-0.06696 0.127811,-0.152876 0.02994,-0.0482 0.05726,-0.09031 0.06071,-0.09358 0.0035,-0.0033 0.02217,-0.0073 0.0416,-0.0091 l 0.03532,-0.0031 0.04938,-0.09991 c 0.04327,-0.08755 0.05321,-0.11294 0.08034,-0.205164 l 0.03096,-0.105249 -0.03663,-0.09919 c -0.04364,-0.118188 -0.0642,-0.165278 -0.134943,-0.30911 l -0.05352,-0.108814 -0.03694,-0.0102 c -0.03521,-0.0097 -0.03794,-0.01151 -0.05854,-0.03828 -0.01188,-0.01545 -0.03003,-0.04632 -0.04032,-0.06862 -0.01531,-0.03315 -0.01843,-0.0495 -0.01714,-0.08975 l 0.0016,-0.04922 0.03465,-0.06112 c 0.03714,-0.06549 0.04387,-0.07409 0.09032,-0.11533 l 0.03015,-0.02677 -0.01978,-0.07603 c -0.01088,-0.04182 -0.02234,-0.0985 -0.02547,-0.125956 -0.005,-0.04386 -0.0037,-0.05558 0.01091,-0.09648 0.02244,-0.06297 0.05577,-0.129842 0.0893,-0.17915 0.02763,-0.04064 0.02778,-0.04108 0.02444,-0.07285 -0.0055,-0.05275 -0.02388,-0.134965 -0.04827,-0.216549 l -0.02302,-0.07698 -0.05038,-0.05235 -0.05038,-0.05235 -0.03673,-0.106952 c -0.0202,-0.05882 -0.03863,-0.10985 -0.04095,-0.113393 -0.0023,-0.0035 -0.0188,-0.009 -0.03661,-0.01209 -0.01781,-0.0031 -0.0362,-0.0082 -0.04085,-0.01136 -0.01166,-0.0079 -0.07241,-0.115599 -0.08141,-0.144395 -0.0064,-0.02043 -0.0047,-0.03132 0.01294,-0.08378 0.03352,-0.09964 0.06534,-0.172207 0.08055,-0.18368 0.0074,-0.0056 0.03189,-0.01623 0.0545,-0.02371 0.02261,-0.0075 0.04047,-0.01503 0.03968,-0.01676 -7.88e-4,-0.0017 -0.02507,-0.04475 -0.05395,-0.0956 -0.04195,-0.07385 -0.12625,-0.232751 -0.128813,-0.2428 -3.12e-4,-0.0012 0.022,-0.06323 0.04954,-0.137917 l 0.05008,-0.135789 -0.0047,-0.07167 -0.0047,-0.07167 0.04648,-0.08055 c 0.02556,-0.0443 0.04992,-0.08943 0.05413,-0.100276 0.0076,-0.01955 0.0073,-0.01951 -0.02954,0.0038 z"
     style="fill:url(#linearGradient30-93);fill-opacity:1;fill-rule:nonzero;stroke:#000000;stroke-width:0.00633973;stroke-miterlimit:4;stroke-dasharray:0.00633973, 0.01267946;stroke-dashoffset:0;stroke-opacity:0.96254536"
     inkscape:connector-curvature="0" />
  <path
     id="path2032-4"
     d="m 5.5923974,9.04832 -0.179266,0.318001 0.01017,0.135947 -0.09955,0.268497 0.160285,0.301742 0.116032,0.07826 0.08031,0.105804 0.0054,0.14563 -0.122785,0.136642 -0.09501,0.01337 0.08219,0.236161 0.101675,0.107302 0.05861,0.194439 0.02196,0.156809 -0.074,0.105002 -0.06349,0.150817 0.01845,0.141537 0.04109,0.118081 0.143115,0.135252 0.01145,0.110993 -0.03956,0.102408 -0.07143,0.0551 -0.06536,0.02046 0.143711,0.290563 0.09398,0.257023 -0.06733,0.225678 -0.105271,0.212999 -0.08194,0.0093 -0.112277,0.182457 -0.157218,0.139237 -0.14987,0.07965 -0.100736,-0.04212 -0.17439,-0.02725 -0.261115,-0.0083 -0.165758,-0.111795 -0.162851,-0.251835 -0.110902,-0.178071 -0.05767,-0.129261 -0.03691,-0.283073 0.0112,-0.13445 0.07878,-0.114683 0.216173,-0.03493 0.206603,-0.01556 -0.01401,-0.06109 -0.05511,-0.179166 0.05742,-0.116182 0.121159,-0.02156 0.15525,0.06598 -0.06818,-0.175076 -0.06246,-0.119578 -0.02546,-0.17208 0.03162,-0.19813 -0.0063,-0.210807 0.01376,-0.184356 0.01726,-0.169084 -0.08288,-0.0559 -0.09946,-0.06708 -0.01973,-0.116583 0.02871,-0.05809 0.0587,-0.141135 0.05836,-0.051 -0.01845,-0.141537 -0.01589,-0.191443 -0.02067,-0.181762 0.03991,-0.19254 0.0887,-0.22418 0.07049,-0.120274 0.02871,-0.05809 0.02077,-0.153812 -5.63e-4,-0.15531 0.105865,-0.05769 0.09373,0.01158 0.132607,0.08944 0.140895,0.09503 z"
     style="fill:#ffff00;stroke:#000000;stroke-width:0.05171783px;stroke-linecap:butt;stroke-linejoin:miter;stroke-opacity:1"
     inkscape:connector-curvature="0" />
  <path
     id="path2034-6"
     d="m 5.6326654,12.186569 -0.07638,-0.02156 -0.03848,-0.04536 -0.0324,-0.08006 0.0032,-0.06251 0.02397,-0.04851 0.05625,-0.09141 0.03099,-0.0179 0.05463,-0.05691"
     style="fill:#ffff00;stroke:#000000;stroke-width:0.05171783px;stroke-linecap:butt;stroke-linejoin:miter;stroke-opacity:1"
     inkscape:connector-curvature="0" />
  <path
     id="path2036-9"
     d="m 4.9035814,11.940109 0.01141,0.122223 -0.0056,0.06736 c 0,0 0.0063,0.0048 -0.01489,0.03012 -0.0176,0.02103 -0.073,0.0917 -0.073,0.0917 l -0.08035,0.01695 -0.102277,-0.01634"
     style="fill:none;stroke:#000000;stroke-width:0.05171783px;stroke-linecap:butt;stroke-linejoin:miter;stroke-opacity:1"
     inkscape:connector-curvature="0" />
  <path
     id="path2038-4"
     d="m 4.8038074,10.710998 0.09799,-0.02221 0.04602,-0.05951 0.02894,-0.103363 -0.0033,-0.06046 -0.04679,-0.05096 -0.08112,-0.09351 -0.05989,-0.04686 -0.03811,-0.05292"
     style="fill:none;stroke:#000000;stroke-width:0.05171783px;stroke-linecap:butt;stroke-linejoin:miter;stroke-opacity:1"
     inkscape:connector-curvature="0" />
  <path
     id="path2040-2"
     d="m 5.4679624,10.552213 -0.0815,-0.01513 -0.0479,-0.07111 -0.0265,-0.06961 0.03069,-0.09571 0.02461,-0.06101 0.02877,-0.05821 0.03339,-0.02275 0.08035,-0.01695 0.09019,0.009"
     style="fill:none;stroke:#000000;stroke-width:0.05171783px;stroke-linecap:butt;stroke-linejoin:miter;stroke-opacity:1"
     inkscape:connector-curvature="0" />
  <path
     id="path2042-2"
     d="m 5.5923974,9.04832 -0.111948,0.07757 -0.07988,0.0496 -0.1107,0.02235 -0.102224,-0.01721 -0.08608,-0.03866 -0.0848,-0.06366 -0.0757,-0.120748"
     style="fill:none;stroke:#000000;stroke-width:0.05171783px;stroke-linecap:butt;stroke-linejoin:miter;stroke-opacity:1"
     inkscape:connector-curvature="0" />
  <path
     id="path2044-6"
     d="m 5.4987594,9.15933 c -0.0034,0.0068 -0.03006,0.05413 -0.05914,0.105113 l -0.05288,0.0927 0.0017,0.02394 c 9.07e-4,0.01317 0.0032,0.04481 0.005,0.07032 l 0.0034,0.04639 -0.04961,0.133513 c -0.02728,0.07343 -0.05002,0.136063 -0.05052,0.139178 -0.0016,0.01008 0.170292,0.328207 0.181563,0.335972 0.01014,0.007 0.0092,0.0076 -0.02707,0.0174 -0.02067,0.0056 -0.04669,0.01644 -0.05783,0.02413 -0.01996,0.01378 -0.02059,0.01477 -0.04471,0.06968 -0.01346,0.03064 -0.03352,0.08371 -0.04458,0.117928 l -0.02011,0.06222 0.01504,0.03966 c 0.0084,0.02221 0.02781,0.0591 0.04406,0.08385 l 0.02902,0.04419 0.03865,0.0069 0.03865,0.0069 0.03915,0.113216 0.03915,0.113216 0.05051,0.0527 0.05051,0.0527 0.02839,0.09453 c 0.0306,0.101896 0.05158,0.219522 0.04243,0.237865 -0.0027,0.0054 -0.01787,0.02813 -0.03369,0.05041 -0.02601,0.03663 -0.03201,0.04826 -0.06281,0.121557 -0.02183,0.05196 -0.03372,0.08505 -0.03312,0.09218 0.0064,0.07546 0.02078,0.153777 0.03618,0.196608 0.0097,0.02688 0.01574,0.05061 0.0135,0.05273 -0.0022,0.0021 -0.01028,0.01084 -0.01788,0.01937 -0.0076,0.0085 -0.02201,0.02027 -0.03202,0.02606 -0.01528,0.0088 -0.02281,0.01803 -0.04687,0.05715 -0.05036,0.08188 -0.05869,0.102074 -0.06113,0.148033 -0.0019,0.03644 -5e-4,0.04398 0.01584,0.08428 0.01295,0.0319 0.02456,0.05215 0.04158,0.0725 l 0.02361,0.02824 0.03621,0.0098 0.03622,0.0098 0.06967,0.140556 c 0.05564,0.112255 0.07821,0.163843 0.112075,0.25621 0.02332,0.06361 0.0431,0.118155 0.04395,0.121212 8.44e-4,0.0031 -0.01298,0.05435 -0.03074,0.113977 -0.03219,0.108098 -0.03243,0.108706 -0.07992,0.204657 l -0.04762,0.09624 -0.03187,0.003 c -0.01753,0.0016 -0.03573,0.0035 -0.04045,0.0042 -0.0068,0.001 -0.02027,0.02041 -0.0653,0.0941 l -0.05672,0.09284 -0.07784,0.06935 c -0.0724,0.0645 -0.08253,0.07184 -0.144842,0.104842 -0.03685,0.01952 -0.06888,0.03561 -0.07118,0.03577 -0.0023,1.25e-4 -0.02368,-0.0082 -0.04752,-0.0185 -0.06422,-0.02783 -0.18576,-0.04562 -0.347858,-0.05092 l -0.127868,-0.0042 -0.08094,-0.05459 -0.08094,-0.05459 -0.08102,-0.125549 C 4.2806654,13.012226 4.2445244,12.952063 4.2158604,12.88736 l -0.02736,-0.06176 -0.01805,-0.138719 c -0.01628,-0.125186 -0.01753,-0.144572 -0.01279,-0.198713 l 0.0053,-0.05999 0.03347,-0.04866 c 0.01841,-0.02676 0.0352,-0.04903 0.03731,-0.04947 0.05781,-0.01212 0.223769,-0.03383 0.303126,-0.03965 0.08193,-0.006 0.115406,-0.0059 0.154218,7.31e-4 0.04195,0.0071 0.05684,0.0068 0.09682,-0.0017 0.04676,-0.01001 0.04745,-0.01037 0.06694,-0.03511 0.01083,-0.01375 0.03315,-0.04207 0.0496,-0.06294 l 0.02991,-0.03795 0.0035,-0.04505 c 0.0019,-0.02477 0.0021,-0.05946 3.75e-4,-0.07708 -0.004,-0.04064 -0.003,-0.04759 0.0062,-0.04389 0.0105,0.0043 -0.08055,-0.226179 -0.11713,-0.296413 -0.02965,-0.05692 -0.02968,-0.05704 -0.04147,-0.13843 l -0.01179,-0.08146 0.01552,-0.095 c 0.01463,-0.08956 0.01534,-0.101103 0.0124,-0.201315 -0.003,-0.103625 0.0022,-0.20879 0.0181,-0.365668 l 0.0073,-0.07208 0.02845,-0.0064 c 0.0601,-0.01343 0.06115,-0.01405 0.09014,-0.05344 l 0.02666,-0.03622 0.01542,-0.05677 c 0.01276,-0.04699 0.01508,-0.06313 0.01344,-0.09372 l -0.002,-0.03695 -0.07262,-0.08129 c -0.03994,-0.04471 -0.0847,-0.09084 -0.09946,-0.102523 -0.04469,-0.03536 -0.05346,-0.05178 -0.06253,-0.117012 -0.0043,-0.03108 -0.01172,-0.102757 -0.01645,-0.159285 -0.0047,-0.05653 -0.01329,-0.144007 -0.01904,-0.194394 l -0.01045,-0.09161 0.01884,-0.09099 c 0.01806,-0.08718 0.02063,-0.09551 0.06154,-0.199121 0.03878,-0.09821 0.04639,-0.11453 0.08299,-0.177936 0.05837,-0.101122 0.06177,-0.108951 0.06823,-0.157082 0.0031,-0.02312 0.0065,-0.0423 0.0076,-0.04262 0.0011,-3.75e-4 0.0098,0.0125 0.01937,0.02849 0.01548,0.0259 0.02241,0.0329 0.06352,0.06416 0.06422,0.04884 0.118602,0.07319 0.193154,0.08652 0.05057,0.009 0.06025,0.0089 0.114821,-0.002 0.05269,-0.01046 0.06478,-0.01508 0.104352,-0.0398 0.05358,-0.03348 0.05337,-0.0334 0.04546,-0.01774 z"
     style="fill:#008000;fill-opacity:1;stroke:none;stroke-width:0.00457125;stroke-opacity:0.02617804"
     inkscape:connector-curvature="0" />
  <path
     style="fill:url(#linearGradient2048-9);fill-opacity:1;fill-rule:nonzero;stroke:#000000;stroke-width:0.00633973;stroke-miterlimit:4;stroke-dasharray:0.00633973, 0.01267946;stroke-dashoffset:0;stroke-opacity:0.96254536"
     d="m 5.4551014,9.178822 c -0.07691,0.04858 -0.176589,0.05863 -0.279594,0.0282 -0.06661,-0.01968 -0.17043,-0.08936 -0.197085,-0.132269 -0.0099,-0.01586 -0.01814,-0.0283 -0.01842,-0.02765 -3.12e-4,6.56e-4 -0.0042,0.02051 -0.0087,0.04411 -0.0073,0.03818 -0.01448,0.05474 -0.06503,0.149985 -0.07657,0.144259 -0.11689,0.247496 -0.143907,0.368469 l -0.02079,0.0931 0.02019,0.203509 c 0.0236,0.237893 0.03093,0.290287 0.04397,0.314046 0.0053,0.0096 0.02576,0.0322 0.04553,0.05019 0.01977,0.01799 0.0666,0.06657 0.104079,0.107968 l 0.06814,0.07526 -1.25e-4,0.04054 c -1.25e-4,0.04378 -0.01765,0.121778 -0.03453,0.153882 -0.02396,0.04557 -0.05497,0.07145 -0.09841,0.0821 l -0.0415,0.01018 -0.0095,0.104382 c -0.01214,0.133767 -0.01641,0.22609 -0.01473,0.317922 0.0019,0.102008 -3.13e-4,0.135391 -0.01424,0.220767 -0.0067,0.04095 -0.01175,0.08364 -0.01122,0.09487 0.0024,0.05082 0.02073,0.14829 0.03265,0.173372 0.0295,0.06208 0.106749,0.245103 0.120255,0.284916 0.008,0.02346 0.01257,0.04652 0.01024,0.05123 -0.0023,0.0047 -0.0033,0.02985 -0.0022,0.05587 0.0011,0.02602 7.69e-4,0.06172 -7.5e-4,0.07933 l -0.0028,0.03202 -0.04779,0.06029 -0.04779,0.06029 -0.04437,0.01227 c -0.03095,0.0086 -0.06413,0.0103 -0.109668,0.0058 -0.03591,-0.0036 -0.106591,-0.0031 -0.157066,0.001 -0.09791,0.008 -0.275044,0.03152 -0.291544,0.03866 -0.0055,0.0024 -0.0244,0.02573 -0.04206,0.05192 l -0.03211,0.04762 -0.0034,0.06309 c -0.0021,0.03863 0.0029,0.11398 0.01276,0.194335 0.02179,0.176802 0.03262,0.200384 0.24011,0.522798 l 0.09521,0.147944 0.08312,0.05606 0.08312,0.05606 0.06872,0.0019 c 0.191241,0.0053 0.316669,0.0215 0.396547,0.05124 0.02698,0.01004 0.05377,0.01732 0.05953,0.01617 0.03314,-0.0066 0.146221,-0.08139 0.213394,-0.141109 0.07194,-0.06396 0.07445,-0.06696 0.127811,-0.152876 0.02994,-0.0482 0.05726,-0.09031 0.06071,-0.09358 0.0035,-0.0033 0.02217,-0.0073 0.0416,-0.0091 l 0.03532,-0.0031 0.04938,-0.09991 c 0.04327,-0.08755 0.05321,-0.11294 0.08034,-0.205164 l 0.03096,-0.105249 -0.03663,-0.09919 c -0.04364,-0.118188 -0.0642,-0.165278 -0.134943,-0.30911 l -0.05352,-0.108814 -0.03693,-0.0102 c -0.03521,-0.0097 -0.03794,-0.01151 -0.05854,-0.03828 -0.01188,-0.01545 -0.03003,-0.04632 -0.04033,-0.06862 -0.01531,-0.03315 -0.01844,-0.0495 -0.01714,-0.08975 l 0.0016,-0.04922 0.03465,-0.06112 c 0.03714,-0.06549 0.04387,-0.07409 0.09032,-0.11533 l 0.03015,-0.02677 -0.01978,-0.07603 c -0.01088,-0.04182 -0.02234,-0.0985 -0.02547,-0.125956 -0.005,-0.04386 -0.0037,-0.05558 0.0109,-0.09648 0.02244,-0.06297 0.05577,-0.129842 0.0893,-0.17915 0.02763,-0.04064 0.02778,-0.04108 0.02444,-0.07285 -0.0055,-0.05275 -0.02388,-0.134965 -0.04827,-0.216549 l -0.02302,-0.07698 -0.05038,-0.05235 -0.05038,-0.05235 -0.03673,-0.106952 c -0.0202,-0.05882 -0.03863,-0.10985 -0.04095,-0.113393 -0.0023,-0.0035 -0.0188,-0.009 -0.03661,-0.01209 -0.01781,-0.0031 -0.0362,-0.0082 -0.04085,-0.01136 -0.01166,-0.0079 -0.07241,-0.115599 -0.08141,-0.144395 -0.0064,-0.02043 -0.0047,-0.03132 0.01294,-0.08378 0.03352,-0.09964 0.06535,-0.172207 0.08055,-0.18368 0.0074,-0.0056 0.03189,-0.01623 0.0545,-0.02371 0.02261,-0.0075 0.04047,-0.01503 0.03968,-0.01676 -7.88e-4,-0.0017 -0.02507,-0.04475 -0.05395,-0.0956 -0.04195,-0.07385 -0.12625,-0.232751 -0.128813,-0.2428 -3.12e-4,-0.0012 0.02199,-0.06323 0.04954,-0.137917 l 0.05008,-0.135789 -0.0047,-0.07167 -0.0047,-0.07167 0.04648,-0.08055 c 0.02556,-0.0443 0.04992,-0.08943 0.05413,-0.100276 0.0076,-0.01955 0.0073,-0.01951 -0.02954,0.0038 z"
     id="path2046-4"
     inkscape:connector-curvature="0" />
  <path
     style="fill:#ffff00;stroke:#000000;stroke-width:0.05171783px;stroke-linecap:butt;stroke-linejoin:miter;stroke-opacity:1"
     d="m 3.3196704,9.04832 -0.179266,0.318001 0.01017,0.135947 -0.09955,0.268497 0.160285,0.301742 0.116031,0.07826 0.08031,0.105804 0.0054,0.14563 -0.122785,0.136642 -0.09501,0.01337 0.08219,0.236161 0.101676,0.107302 0.05861,0.194439 0.02196,0.156809 -0.074,0.105002 -0.06349,0.150817 0.01845,0.141537 0.04109,0.118081 0.143115,0.135252 0.01145,0.110993 -0.03956,0.102408 -0.07143,0.0551 -0.06536,0.02046 0.143711,0.290563 0.09398,0.257023 -0.06733,0.225678 -0.10527,0.212999 -0.08194,0.0093 -0.112277,0.182457 -0.157219,0.139237 -0.149869,0.07965 -0.100736,-0.04212 -0.17439,-0.02725 -0.261115,-0.0083 -0.165758,-0.111795 -0.162851,-0.251835 -0.110902,-0.178071 -0.05767,-0.129261 -0.03691,-0.283073 0.0112,-0.13445 0.07878,-0.114683 0.216172,-0.03493 0.206604,-0.01556 -0.01401,-0.06109 -0.05511,-0.179166 0.05742,-0.116182 0.121159,-0.02156 0.15525,0.06598 -0.06818,-0.175076 -0.06246,-0.119578 -0.02546,-0.17208 0.03162,-0.19813 -0.0063,-0.210807 0.01376,-0.184356 0.01726,-0.169084 -0.08288,-0.0559 -0.09946,-0.06708 -0.01974,-0.116583 0.02871,-0.05809 0.0587,-0.141135 0.05836,-0.051 -0.01845,-0.141537 -0.01589,-0.191443 -0.02067,-0.181762 0.03991,-0.19254 0.0887,-0.22418 0.07049,-0.120274 0.02871,-0.05809 0.02077,-0.153812 -5.63e-4,-0.15531 0.105865,-0.05769 0.09373,0.01158 0.132606,0.08944 0.140895,0.09503 z"
     id="path2050-1"
     inkscape:connector-curvature="0" />
  <path
     style="fill:#ffff00;stroke:#000000;stroke-width:0.05171783px;stroke-linecap:butt;stroke-linejoin:miter;stroke-opacity:1"
     d="m 3.3599384,12.186569 -0.07638,-0.02156 -0.03848,-0.04536 -0.0324,-0.08006 0.0032,-0.06251 0.02397,-0.04851 0.05625,-0.09141 0.03099,-0.0179 0.05463,-0.05691"
     id="path2052-2"
     inkscape:connector-curvature="0" />
  <path
     style="fill:none;stroke:#000000;stroke-width:0.05171783px;stroke-linecap:butt;stroke-linejoin:miter;stroke-opacity:1"
     d="m 2.6308534,11.940109 0.01141,0.122223 -0.0056,0.06736 c 0,0 0.0063,0.0048 -0.01489,0.03012 -0.0176,0.02103 -0.073,0.0917 -0.073,0.0917 l -0.08035,0.01695 -0.102277,-0.01634"
     id="path2054-8"
     inkscape:connector-curvature="0" />
  <path
     style="fill:none;stroke:#000000;stroke-width:0.05171783px;stroke-linecap:butt;stroke-linejoin:miter;stroke-opacity:1"
     d="m 2.5310804,10.710998 0.09799,-0.02221 0.04602,-0.05951 0.02894,-0.103363 -0.0033,-0.06046 -0.04679,-0.05096 -0.08112,-0.09351 -0.05989,-0.04686 -0.03811,-0.05292"
     id="path2056-8"
     inkscape:connector-curvature="0" />
  <path
     style="fill:none;stroke:#000000;stroke-width:0.05171783px;stroke-linecap:butt;stroke-linejoin:miter;stroke-opacity:1"
     d="m 3.1952354,10.552213 -0.0815,-0.01513 -0.0479,-0.07111 -0.0265,-0.06961 0.0307,-0.09571 0.02461,-0.06101 0.02877,-0.05821 0.03339,-0.02275 0.08035,-0.01695 0.09018,0.009"
     id="path2058-9"
     inkscape:connector-curvature="0" />
  <path
     style="fill:none;stroke:#000000;stroke-width:0.05171783px;stroke-linecap:butt;stroke-linejoin:miter;stroke-opacity:1"
     d="m 3.3196704,9.04832 -0.111948,0.07757 -0.07988,0.0496 -0.1107,0.02235 -0.102225,-0.01721 -0.08608,-0.03866 -0.0848,-0.06366 -0.0757,-0.120748"
     id="path2060-2"
     inkscape:connector-curvature="0" />
  <path
     style="fill:#008000;fill-opacity:1;stroke:none;stroke-width:0.00457125;stroke-opacity:0.02617804"
     d="m 3.2260324,9.15933 c -0.0034,0.0068 -0.03007,0.05413 -0.05914,0.105113 l -0.05288,0.0927 0.0017,0.02394 c 9.06e-4,0.01317 0.0032,0.04481 0.005,0.07032 l 0.0034,0.04639 -0.04961,0.133513 c -0.02728,0.07343 -0.05002,0.136063 -0.05052,0.139178 -0.0016,0.01008 0.170292,0.328207 0.181563,0.335972 0.01014,0.007 0.0092,0.0076 -0.02707,0.0174 -0.02067,0.0056 -0.04669,0.01644 -0.05783,0.02413 -0.01996,0.01378 -0.02059,0.01477 -0.04472,0.06968 -0.01346,0.03064 -0.03352,0.08371 -0.04458,0.117928 l -0.02011,0.06222 0.01504,0.03966 c 0.0084,0.02221 0.02781,0.0591 0.04406,0.08385 l 0.02902,0.04419 0.03865,0.0069 0.03865,0.0069 0.03915,0.113216 0.03915,0.113216 0.05051,0.0527 0.05051,0.0527 0.02839,0.09453 c 0.0306,0.101896 0.05158,0.219522 0.04243,0.237865 -0.0027,0.0054 -0.01787,0.02813 -0.03369,0.05041 -0.02601,0.03663 -0.03201,0.04826 -0.06281,0.121557 -0.02183,0.05196 -0.03372,0.08505 -0.03312,0.09218 0.0064,0.07546 0.02078,0.153777 0.03618,0.196608 0.0097,0.02688 0.01574,0.05061 0.0135,0.05273 -0.0022,0.0021 -0.01028,0.01084 -0.01788,0.01937 -0.0076,0.0085 -0.02201,0.02027 -0.03202,0.02606 -0.01528,0.0088 -0.02281,0.01803 -0.04687,0.05715 -0.05036,0.08188 -0.05869,0.102074 -0.06113,0.148033 -0.0019,0.03644 -5e-4,0.04398 0.01584,0.08428 0.01295,0.0319 0.02456,0.05215 0.04158,0.0725 l 0.02361,0.02824 0.03621,0.0098 0.03622,0.0098 0.06967,0.140556 c 0.05564,0.112255 0.07821,0.163843 0.112075,0.25621 0.02332,0.06361 0.0431,0.118155 0.04395,0.121212 8.44e-4,0.0031 -0.01298,0.05435 -0.03074,0.113977 -0.03219,0.108098 -0.03243,0.108706 -0.07992,0.204657 l -0.04762,0.09624 -0.03187,0.003 c -0.01753,0.0016 -0.03573,0.0035 -0.04045,0.0042 -0.0068,0.001 -0.02027,0.02041 -0.0653,0.0941 l -0.05672,0.09284 -0.07784,0.06935 c -0.0724,0.0645 -0.08253,0.07184 -0.144842,0.104842 -0.03685,0.01952 -0.06888,0.03561 -0.07118,0.03577 -0.0023,1.25e-4 -0.02368,-0.0082 -0.04752,-0.0185 -0.06422,-0.02783 -0.18576,-0.04562 -0.347858,-0.05092 l -0.127868,-0.0042 -0.08094,-0.05459 -0.08094,-0.05459 -0.08102,-0.125549 C 2.0079274,13.012226 1.9717874,12.952063 1.9431234,12.88736 l -0.02736,-0.06176 -0.01805,-0.138719 c -0.01628,-0.125186 -0.01753,-0.144572 -0.01279,-0.198713 l 0.0053,-0.05999 0.03347,-0.04866 c 0.01841,-0.02676 0.0352,-0.04903 0.03731,-0.04947 0.05781,-0.01212 0.223768,-0.03383 0.303126,-0.03965 0.08193,-0.006 0.115405,-0.0059 0.154217,7.31e-4 0.04195,0.0071 0.05684,0.0068 0.09682,-0.0017 0.04676,-0.01001 0.04745,-0.01037 0.06694,-0.03511 0.01083,-0.01375 0.03315,-0.04207 0.0496,-0.06294 l 0.02991,-0.03795 0.0035,-0.04505 c 0.0019,-0.02477 0.0021,-0.05946 3.75e-4,-0.07708 -0.0039,-0.04064 -0.003,-0.04759 0.0062,-0.04389 0.0105,0.0043 -0.08055,-0.226179 -0.11713,-0.296413 -0.02965,-0.05692 -0.02968,-0.05704 -0.04147,-0.13843 l -0.01179,-0.08146 0.01552,-0.095 c 0.01463,-0.08956 0.01534,-0.101103 0.0124,-0.201315 -0.003,-0.103625 0.0022,-0.20879 0.0181,-0.365668 l 0.0073,-0.07208 0.02845,-0.0064 c 0.0601,-0.01343 0.06115,-0.01405 0.09014,-0.05344 l 0.02666,-0.03622 0.01542,-0.05677 c 0.01276,-0.04699 0.01508,-0.06313 0.01344,-0.09372 l -0.002,-0.03695 -0.07262,-0.08129 c -0.03994,-0.04471 -0.0847,-0.09084 -0.09946,-0.102523 -0.04469,-0.03536 -0.05346,-0.05178 -0.06253,-0.117012 -0.0043,-0.03108 -0.01172,-0.102757 -0.01645,-0.159285 -0.0047,-0.05653 -0.01329,-0.144007 -0.01904,-0.194394 l -0.01045,-0.09161 0.01884,-0.09099 c 0.01806,-0.08718 0.02063,-0.09551 0.06154,-0.199121 0.03878,-0.09821 0.04638,-0.11453 0.08299,-0.177936 0.05837,-0.101122 0.06177,-0.108951 0.06823,-0.157082 0.0031,-0.02312 0.0065,-0.0423 0.0076,-0.04262 0.0011,-3.75e-4 0.0098,0.0125 0.01937,0.02849 0.01548,0.0259 0.02241,0.0329 0.06352,0.06416 0.06422,0.04884 0.118601,0.07319 0.193154,0.08652 0.05057,0.009 0.06025,0.0089 0.11482,-0.002 0.05269,-0.01046 0.06478,-0.01508 0.104352,-0.0398 0.05359,-0.03348 0.05337,-0.0334 0.04546,-0.01774 z"
     id="path2062-8"
     inkscape:connector-curvature="0" />
  <path
     id="path2064-8"
     d="m 3.1823744,9.178822 c -0.07691,0.04858 -0.176589,0.05863 -0.279594,0.0282 -0.06661,-0.01968 -0.17043,-0.08936 -0.197085,-0.132269 -0.0099,-0.01586 -0.01814,-0.0283 -0.01842,-0.02765 -3.13e-4,6.56e-4 -0.0042,0.02051 -0.0087,0.04411 -0.0073,0.03818 -0.01448,0.05474 -0.06503,0.149985 -0.07657,0.144259 -0.11689,0.247496 -0.143907,0.368469 l -0.02079,0.0931 0.02019,0.203509 c 0.0236,0.237893 0.03093,0.290287 0.04397,0.314046 0.0053,0.0096 0.02576,0.0322 0.04553,0.05019 0.01977,0.01799 0.0666,0.06657 0.104079,0.107968 l 0.06814,0.07526 -1.25e-4,0.04054 c -1.25e-4,0.04378 -0.01765,0.121778 -0.03453,0.153882 -0.02396,0.04557 -0.05497,0.07145 -0.09841,0.0821 l -0.0415,0.01018 -0.0095,0.104382 c -0.01214,0.133767 -0.01641,0.22609 -0.01472,0.317922 0.0019,0.102008 -3.13e-4,0.135391 -0.01424,0.220767 -0.0067,0.04095 -0.01175,0.08364 -0.01122,0.09487 0.0024,0.05082 0.02073,0.14829 0.03265,0.173372 0.0295,0.06208 0.106748,0.245103 0.120255,0.284916 0.008,0.02346 0.01257,0.04652 0.01024,0.05123 -0.0023,0.0047 -0.0033,0.02985 -0.0022,0.05587 0.0011,0.02602 7.68e-4,0.06172 -7.5e-4,0.07933 l -0.0028,0.03202 -0.04779,0.06029 -0.04779,0.06029 -0.04437,0.01227 c -0.03095,0.0086 -0.06412,0.0103 -0.109667,0.0058 -0.03591,-0.0036 -0.106591,-0.0031 -0.157066,0.001 -0.09791,0.008 -0.275044,0.03152 -0.291545,0.03866 -0.0055,0.0024 -0.0244,0.02573 -0.04206,0.05192 l -0.03211,0.04762 -0.0034,0.06309 c -0.0021,0.03863 0.0029,0.11398 0.01276,0.194335 0.02179,0.176802 0.03262,0.200384 0.240111,0.522798 l 0.09521,0.147944 0.08312,0.05606 0.08312,0.05606 0.06872,0.0019 c 0.191241,0.0053 0.316668,0.0215 0.396547,0.05124 0.02698,0.01004 0.05377,0.01732 0.05953,0.01617 0.03314,-0.0066 0.146221,-0.08139 0.213393,-0.141109 0.07194,-0.06396 0.07445,-0.06696 0.127812,-0.152876 0.02994,-0.0482 0.05726,-0.09031 0.06071,-0.09358 0.0035,-0.0033 0.02217,-0.0073 0.0416,-0.0091 l 0.03532,-0.0031 0.04938,-0.09991 c 0.04327,-0.08755 0.05321,-0.11294 0.08034,-0.205164 l 0.03096,-0.105249 -0.03663,-0.09919 c -0.04364,-0.118188 -0.0642,-0.165278 -0.134943,-0.30911 l -0.05352,-0.108814 -0.03693,-0.0102 c -0.03521,-0.0097 -0.03794,-0.01151 -0.05854,-0.03828 -0.01188,-0.01545 -0.03003,-0.04632 -0.04033,-0.06862 -0.01531,-0.03315 -0.01843,-0.0495 -0.01714,-0.08975 l 0.0016,-0.04922 0.03465,-0.06112 c 0.03713,-0.06549 0.04386,-0.07409 0.09032,-0.11533 l 0.03015,-0.02677 -0.01978,-0.07603 c -0.01088,-0.04182 -0.02234,-0.0985 -0.02547,-0.125956 -0.005,-0.04386 -0.0037,-0.05558 0.0109,-0.09648 0.02244,-0.06297 0.05577,-0.129842 0.0893,-0.17915 0.02763,-0.04064 0.02778,-0.04108 0.02444,-0.07285 -0.0055,-0.05275 -0.02388,-0.134965 -0.04827,-0.216549 l -0.02302,-0.07698 -0.05038,-0.05235 -0.05038,-0.05235 -0.03673,-0.106952 c -0.0202,-0.05882 -0.03863,-0.10985 -0.04095,-0.113393 -0.0023,-0.0035 -0.0188,-0.009 -0.03661,-0.01209 -0.01781,-0.0031 -0.0362,-0.0082 -0.04085,-0.01136 -0.01166,-0.0079 -0.07241,-0.115599 -0.08141,-0.144395 -0.0064,-0.02043 -0.0047,-0.03132 0.01294,-0.08378 0.03352,-0.09964 0.06534,-0.172207 0.08055,-0.18368 0.0074,-0.0056 0.03189,-0.01623 0.0545,-0.02371 0.02261,-0.0075 0.04047,-0.01503 0.03968,-0.01676 -7.87e-4,-0.0017 -0.02507,-0.04475 -0.05395,-0.0956 -0.04195,-0.07385 -0.126251,-0.232751 -0.128813,-0.2428 -3.13e-4,-0.0012 0.022,-0.06323 0.04954,-0.137917 l 0.05008,-0.135789 -0.0047,-0.07167 -0.0047,-0.07167 0.04648,-0.08055 c 0.02556,-0.0443 0.04992,-0.08943 0.05413,-0.100276 0.0076,-0.01955 0.0073,-0.01951 -0.02954,0.0038 z"
     style="fill:url(#linearGradient2066-4);fill-opacity:1;fill-rule:nonzero;stroke:#000000;stroke-width:0.00633973;stroke-miterlimit:4;stroke-dasharray:0.00633973, 0.01267946;stroke-dashoffset:0;stroke-opacity:0.96254536"
     inkscape:connector-curvature="0" />
  <path
     id="path2068-8"
     d="m 2.1704664,6.4066028 0.179266,-0.3180014 -0.01017,-0.1359469 0.09955,-0.2684975 -0.160285,-0.3017413 -0.116032,-0.078258 -0.08032,-0.1058043 -0.0054,-0.1456294 0.122785,-0.1366419 0.09501,-0.013373 -0.08219,-0.2361613 -0.101675,-0.1073018 -0.05861,-0.1944394 -0.02196,-0.1568088 0.074,-0.1050018 0.06349,-0.1508169 -0.01845,-0.1415369 -0.0411,-0.1180812 -0.143115,-0.1352519 -0.01145,-0.1109931 0.03956,-0.1024082 0.07143,-0.055095 0.06536,-0.02046 -0.143684,-0.2905621 -0.09398,-0.2570237 0.06733,-0.2256775 0.105271,-0.2129993 0.08194,-0.00928 0.112277,-0.1824568 0.157218,-0.1392369 0.14987,-0.079647 0.100736,0.042124 0.17439,0.027254 0.261115,0.00829 0.165758,0.111795 0.162851,0.251835 0.110902,0.1780705 0.05767,0.1292613 0.03691,0.2830731 -0.0112,0.1344494 -0.07878,0.1146837 -0.216173,0.034929 -0.206603,0.015565 0.01401,0.061087 0.05511,0.1791668 -0.05742,0.1161819 -0.121159,0.021556 -0.15525,-0.065981 0.06818,0.1750757 0.06246,0.1195781 0.02546,0.1720806 -0.03162,0.1981294 0.0063,0.2108069 -0.01376,0.1843562 -0.01726,0.1690838 0.08288,0.055898 0.09945,0.067077 0.01973,0.1165831 -0.02871,0.058092 -0.0587,0.141135 -0.05836,0.051003 0.01845,0.1415363 0.01589,0.1914431 0.02067,0.1817619 -0.03991,0.1925406 -0.0887,0.2241794 -0.07049,0.1202745 -0.02871,0.058091 -0.02077,0.1538125 5.63e-4,0.1553101 -0.105865,0.05769 -0.09373,-0.011581 -0.132607,-0.089437 -0.140895,-0.095027 z"
     style="fill:#ffff00;stroke:#000000;stroke-width:0.05171783px;stroke-linecap:butt;stroke-linejoin:miter;stroke-opacity:1"
     inkscape:connector-curvature="0" />
  <path
     id="path2070-6"
     d="m 2.1301984,3.2683532 0.07638,0.021556 0.03848,0.045358 0.0324,0.080062 -0.0032,0.062508 -0.02397,0.048506 -0.05625,0.091411 -0.03099,0.017902 -0.05463,0.056906"
     style="fill:#ffff00;stroke:#000000;stroke-width:0.05171783px;stroke-linecap:butt;stroke-linejoin:miter;stroke-opacity:1"
     inkscape:connector-curvature="0" />
  <path
     id="path2072-8"
     d="m 2.8592824,3.5148132 -0.01141,-0.1222231 0.0056,-0.067359 c 0,0 -0.0063,-0.00476 0.01488,-0.030119 0.0176,-0.021026 0.073,-0.091696 0.073,-0.091696 l 0.08035,-0.016951 0.102277,0.016336"
     style="fill:none;stroke:#000000;stroke-width:0.05171783px;stroke-linecap:butt;stroke-linejoin:miter;stroke-opacity:1"
     inkscape:connector-curvature="0" />
  <path
     id="path2074-3"
     d="m 2.9590564,4.7439239 -0.09798,0.022208 -0.04602,0.059507 -0.02894,0.1033637 0.0033,0.060458 0.04679,0.050959 0.08112,0.093514 0.05989,0.046859 0.03811,0.052919"
     style="fill:none;stroke:#000000;stroke-width:0.05171783px;stroke-linecap:butt;stroke-linejoin:miter;stroke-opacity:1"
     inkscape:connector-curvature="0" />
  <path
     id="path2076-8"
     d="m 2.2949014,4.9027095 0.0815,0.015131 0.0479,0.071111 0.0265,0.069611 -0.03069,0.095712 -0.02461,0.061008 -0.02877,0.058207 -0.03339,0.022753 -0.08035,0.01695 -0.09018,-0.00903"
     style="fill:none;stroke:#000000;stroke-width:0.05171783px;stroke-linecap:butt;stroke-linejoin:miter;stroke-opacity:1"
     inkscape:connector-curvature="0" />
  <path
     id="path2078-3"
     d="m 2.1704664,6.4066028 0.111948,-0.077568 0.07988,-0.049605 0.1107,-0.02235 0.102224,0.017205 0.08608,0.038658 0.0848,0.063661 0.0757,0.1207481"
     style="fill:none;stroke:#000000;stroke-width:0.05171783px;stroke-linecap:butt;stroke-linejoin:miter;stroke-opacity:1"
     inkscape:connector-curvature="0" />
  <path
     id="path2080-3"
     d="m 2.2641044,6.2955922 c 0.0034,-0.00683 0.03007,-0.054126 0.05914,-0.1051133 l 0.05288,-0.092702 -0.0017,-0.023936 c -9.07e-4,-0.013165 -0.0032,-0.044811 -0.005,-0.070324 l -0.0034,-0.046388 0.04961,-0.1335131 c 0.02728,-0.073432 0.05002,-0.1360631 0.05052,-0.1391781 0.0016,-0.010077 -0.170292,-0.3282063 -0.181563,-0.3359713 -0.01014,-0.00699 -0.0092,-0.0076 0.02707,-0.017398 0.02067,-0.00559 0.04669,-0.016444 0.05783,-0.024129 0.01996,-0.013777 0.02059,-0.014766 0.04471,-0.069681 0.01346,-0.030638 0.03352,-0.083706 0.04458,-0.1179281 l 0.02011,-0.062224 -0.01504,-0.039657 c -0.0084,-0.022209 -0.02781,-0.059101 -0.04406,-0.083846 l -0.02902,-0.044189 -0.03865,-0.0069 -0.03865,-0.0069 -0.03915,-0.1132157 -0.03915,-0.1132162 -0.05051,-0.052704 -0.05051,-0.052702 -0.02839,-0.094532 c -0.0306,-0.1018957 -0.05158,-0.2195213 -0.04243,-0.2378644 0.0027,-0.00545 0.01787,-0.028129 0.03369,-0.050407 0.02601,-0.036633 0.03201,-0.04826 0.06281,-0.1215575 0.02183,-0.051957 0.03372,-0.085046 0.03312,-0.092181 -0.0064,-0.075457 -0.02078,-0.1537763 -0.03618,-0.1966075 -0.0097,-0.026883 -0.01574,-0.050609 -0.0135,-0.052726 0.0022,-0.00211 0.01028,-0.010836 0.01788,-0.019372 0.0076,-0.00854 0.02201,-0.020266 0.03202,-0.026064 0.01528,-0.00885 0.02281,-0.018027 0.04687,-0.057152 0.05036,-0.081885 0.05869,-0.1020737 0.06114,-0.1480331 0.0019,-0.036444 5e-4,-0.043979 -0.01584,-0.084281 -0.01295,-0.031903 -0.02456,-0.052145 -0.04158,-0.072501 l -0.02361,-0.028241 -0.03621,-0.0098 -0.03622,-0.0098 -0.06967,-0.1405562 c -0.05564,-0.112255 -0.07821,-0.1638425 -0.112075,-0.25621 -0.02332,-0.06361 -0.0431,-0.118155 -0.04395,-0.1212119 -8.44e-4,-0.00306 0.01298,-0.054346 0.03074,-0.1139763 0.03219,-0.1080987 0.03243,-0.1087062 0.07992,-0.2046573 l 0.04762,-0.096245 0.03187,-0.00296 c 0.01753,-0.00162 0.03573,-0.00352 0.04045,-0.00422 0.0068,-0.00101 0.02027,-0.020408 0.0653,-0.094104 l 0.05672,-0.092837 0.07784,-0.069351 c 0.0724,-0.0645 0.08253,-0.071837 0.144842,-0.1048412 0.03685,-0.019518 0.06888,-0.035614 0.07118,-0.035768 0.0023,-1.25e-4 0.02368,0.00817 0.04752,0.018503 0.06422,0.027832 0.18576,0.045624 0.347858,0.050921 l 0.127868,0.00418 0.08094,0.05459 0.08094,0.054591 0.08102,0.1255487 c 0.147554,0.2286381 0.183695,0.2888011 0.212359,0.3535036 l 0.02736,0.06176 0.01805,0.1387194 c 0.01629,0.1251856 0.01753,0.1445719 0.01279,0.1987131 l -0.0053,0.059994 -0.03347,0.048661 c -0.01841,0.026764 -0.0352,0.049025 -0.03732,0.049468 -0.05781,0.012118 -0.223769,0.033829 -0.303126,0.039656 -0.08193,0.00602 -0.115406,0.00586 -0.154218,-7.313e-4 -0.04195,-0.0071 -0.05684,-0.00684 -0.09682,0.00171 -0.04676,0.010009 -0.04745,0.010371 -0.06694,0.035109 -0.01083,0.013748 -0.03315,0.042072 -0.0496,0.062943 l -0.02991,0.037947 -0.0035,0.045047 c -0.0019,0.024776 -0.0021,0.059464 -3.75e-4,0.077084 0.004,0.040642 0.003,0.047587 -0.0062,0.043891 -0.0105,-0.00425 0.08055,0.2261794 0.11713,0.2964131 0.02965,0.056923 0.02968,0.057043 0.04147,0.1384306 l 0.0118,0.081459 -0.01552,0.095004 c -0.01463,0.089556 -0.01534,0.1011031 -0.0124,0.2013144 0.003,0.1036256 -0.0022,0.2087906 -0.0181,0.3656681 l -0.0073,0.072081 -0.02845,0.00636 c -0.0601,0.013427 -0.06115,0.014046 -0.09014,0.053436 l -0.02666,0.036221 -0.01542,0.056766 c -0.01276,0.046992 -0.01508,0.063128 -0.01344,0.093717 l 0.002,0.036952 0.07262,0.081288 c 0.03994,0.044708 0.0847,0.090844 0.09946,0.1025231 0.04469,0.035364 0.05346,0.051782 0.06253,0.1170125 0.0043,0.031078 0.01172,0.1027563 0.01645,0.159285 0.0047,0.056529 0.01329,0.1440069 0.01904,0.1943938 l 0.01045,0.091613 -0.01884,0.09099 c -0.01806,0.087185 -0.02063,0.095513 -0.06153,0.1991212 -0.03878,0.098214 -0.04639,0.1145301 -0.08299,0.1779363 -0.05837,0.101122 -0.06177,0.1089514 -0.06823,0.157082 -0.0031,0.023121 -0.0065,0.0423 -0.0076,0.042621 -0.0011,3.75e-4 -0.0098,-0.012498 -0.01937,-0.028487 -0.01548,-0.025902 -0.02241,-0.032897 -0.06352,-0.064161 -0.06423,-0.048836 -0.118602,-0.073194 -0.193154,-0.086522 -0.05057,-0.00904 -0.06025,-0.00887 -0.114821,0.00196 -0.05269,0.010465 -0.06478,0.015075 -0.104352,0.039802 -0.05358,0.033481 -0.05337,0.033398 -0.04546,0.017736 z"
     style="fill:#008000;fill-opacity:1;stroke:none;stroke-width:0.00457125;stroke-opacity:0.02617804"
     inkscape:connector-curvature="0" />
  <path
     style="fill:url(#linearGradient2116-4);fill-opacity:1;fill-rule:nonzero;stroke:#000000;stroke-width:0.00633973;stroke-miterlimit:4;stroke-dasharray:0.00633973, 0.01267946;stroke-dashoffset:0;stroke-opacity:0.96254536"
     d="m 2.3077624,6.2761009 c 0.07691,-0.048582 0.176589,-0.058635 0.279594,-0.0282 0.06661,0.01968 0.17043,0.089359 0.197085,0.1322688 0.0099,0.015863 0.01814,0.028305 0.01842,0.027649 3.12e-4,-6.562e-4 0.0042,-0.020508 0.0087,-0.044113 0.0073,-0.03818 0.01448,-0.054742 0.06504,-0.1499851 0.07657,-0.1442594 0.11689,-0.2474963 0.143907,-0.3684694 l 0.02079,-0.093103 -0.02019,-0.2035082 c -0.0236,-0.2378931 -0.03093,-0.2902875 -0.04397,-0.3140462 -0.0053,-0.00962 -0.02576,-0.032201 -0.04553,-0.050187 -0.01977,-0.017986 -0.0666,-0.066572 -0.104079,-0.1079681 l -0.06814,-0.075265 1.25e-4,-0.040537 c 1.25e-4,-0.043778 0.01765,-0.1217775 0.03453,-0.1538813 0.02396,-0.045573 0.05497,-0.071449 0.09841,-0.082104 l 0.0415,-0.010182 0.0095,-0.1043819 c 0.01214,-0.1337675 0.01642,-0.2260906 0.01473,-0.3179219 -0.0019,-0.1020087 3.13e-4,-0.1353918 0.01424,-0.2207675 0.0067,-0.040946 0.01175,-0.083638 0.01122,-0.094871 -0.0024,-0.050823 -0.02073,-0.1482894 -0.03265,-0.1733719 -0.0295,-0.06208 -0.106749,-0.2451031 -0.120255,-0.2849156 -0.008,-0.023464 -0.01257,-0.046517 -0.01024,-0.051226 0.0023,-0.00471 0.0033,-0.029851 0.0022,-0.055871 -0.0011,-0.026019 -7.69e-4,-0.061718 7.5e-4,-0.079329 l 0.0028,-0.032021 0.04779,-0.060288 0.04779,-0.060288 0.04437,-0.012266 c 0.03095,-0.00856 0.06413,-0.010301 0.109668,-0.00577 0.03591,0.00357 0.106591,0.00311 0.157066,-0.00104 0.09791,-0.00804 0.275044,-0.031523 0.291544,-0.038658 0.0055,-0.00236 0.0244,-0.025731 0.04206,-0.051921 l 0.03211,-0.047621 0.0034,-0.063094 c 0.0021,-0.038631 -0.0029,-0.11398 -0.01276,-0.1943356 -0.02179,-0.1768013 -0.03262,-0.2003838 -0.24011,-0.5227974 l -0.09523,-0.1479409 -0.08312,-0.056057 -0.08312,-0.056059 -0.06872,-0.00191 c -0.191241,-0.0053 -0.316669,-0.021504 -0.396547,-0.051236 -0.02698,-0.010043 -0.05377,-0.017321 -0.05953,-0.016172 -0.03314,0.00661 -0.146221,0.081387 -0.213394,0.1411088 -0.07194,0.063958 -0.07444,0.066956 -0.127811,0.1528762 -0.02994,0.048201 -0.05726,0.090312 -0.06071,0.093581 -0.0035,0.00327 -0.02217,0.00734 -0.0416,0.00905 l -0.03532,0.00311 -0.04938,0.099913 c -0.04327,0.087548 -0.05321,0.1129405 -0.08034,0.2051637 l -0.03096,0.1052493 0.03663,0.099186 c 0.04364,0.1181887 0.0642,0.1652781 0.134943,0.3091106 l 0.05352,0.1088137 0.03693,0.0102 c 0.03521,0.00972 0.03794,0.011513 0.05854,0.038283 0.01188,0.015446 0.03003,0.046323 0.04033,0.068616 0.01531,0.033148 0.01843,0.049501 0.01714,0.089748 l -0.0016,0.049215 -0.03465,0.061114 c -0.03714,0.065491 -0.04387,0.074085 -0.09032,0.11533 l -0.03015,0.026769 0.01978,0.076034 c 0.01088,0.041818 0.02234,0.098499 0.02547,0.1259562 0.005,0.043855 0.0037,0.055581 -0.0109,0.096478 -0.02244,0.062975 -0.05577,0.1298419 -0.0893,0.17915 -0.02763,0.040641 -0.02778,0.041083 -0.02444,0.072853 0.0055,0.05275 0.02388,0.134965 0.04827,0.2165493 l 0.02302,0.07698 0.05038,0.052349 0.05038,0.05235 0.03673,0.1069519 c 0.0202,0.058824 0.03863,0.1098506 0.04095,0.1133937 0.0023,0.00354 0.0188,0.00898 0.03661,0.012086 0.01781,0.0031 0.03619,0.00822 0.04085,0.011356 0.01166,0.00787 0.0724,0.1155994 0.08141,0.144395 0.0064,0.020426 0.0047,0.031317 -0.01294,0.083778 -0.03352,0.099641 -0.06535,0.1722063 -0.08055,0.18368 -0.0074,0.00556 -0.03189,0.016225 -0.0545,0.023713 -0.02261,0.00749 -0.04047,0.015028 -0.03968,0.016757 7.88e-4,0.00173 0.02507,0.044747 0.05395,0.095596 0.04195,0.073849 0.12625,0.2327506 0.128813,0.2428 3.12e-4,0.00117 -0.022,0.063233 -0.04954,0.1379169 l -0.05008,0.1357887 0.0047,0.071673 0.0047,0.071673 -0.04648,0.080551 c -0.02556,0.044301 -0.04992,0.089426 -0.05413,0.1002763 -0.0076,0.019546 -0.0073,0.019511 0.02954,-0.00377 z"
     id="path2082-3"
     inkscape:connector-curvature="0" />
  <path
     style="fill:#ffff00;stroke:#000000;stroke-width:0.05171783px;stroke-linecap:butt;stroke-linejoin:miter;stroke-opacity:1"
     d="m 4.5189504,6.4066028 0.179267,-0.3180014 -0.01017,-0.1359469 0.09955,-0.2684975 -0.160285,-0.3017413 -0.116032,-0.078258 -0.08032,-0.1058043 -0.0054,-0.1456294 0.122785,-0.1366419 0.09501,-0.013373 -0.08219,-0.2361613 -0.101675,-0.1073018 -0.05861,-0.1944394 -0.02196,-0.1568088 0.074,-0.1050018 0.06349,-0.1508169 -0.01845,-0.1415369 -0.0411,-0.1180812 -0.143115,-0.1352519 -0.01145,-0.1109931 0.03956,-0.1024082 0.07143,-0.055095 0.06536,-0.02046 -0.143711,-0.2905625 -0.09398,-0.2570237 0.06733,-0.2256775 0.105271,-0.2129993 0.08194,-0.00928 0.112276,-0.1824568 0.157219,-0.1392369 0.14987,-0.079647 0.100736,0.042124 0.17439,0.027254 0.261115,0.00829 0.165758,0.111795 0.162851,0.251835 0.110902,0.1780705 0.05767,0.1292613 0.03691,0.2830731 -0.0112,0.1344494 -0.07878,0.1146837 -0.216173,0.034929 -0.206603,0.015565 0.01401,0.061087 0.05511,0.1791668 -0.05742,0.1161819 -0.12116,0.021556 -0.155249,-0.065981 0.06818,0.1750757 0.06246,0.1195781 0.02546,0.1720806 -0.03162,0.1981294 0.0063,0.2108069 -0.01376,0.1843562 -0.01726,0.1690838 0.08288,0.055898 0.09946,0.067077 0.01973,0.1165831 -0.02871,0.058092 -0.0587,0.141135 -0.05836,0.051003 0.01845,0.1415363 0.01589,0.1914431 0.02067,0.1817619 -0.03991,0.1925406 -0.0887,0.2241794 -0.07049,0.1202745 -0.02871,0.058091 -0.02077,0.1538125 5.62e-4,0.1553101 -0.105865,0.05769 L 4.9711844,6.698767 4.8385774,6.60933 4.6976824,6.514303 Z"
     id="path2084-8"
     inkscape:connector-curvature="0" />
  <path
     style="fill:#ffff00;stroke:#000000;stroke-width:0.05171783px;stroke-linecap:butt;stroke-linejoin:miter;stroke-opacity:1"
     d="m 4.4786834,3.2683532 0.07638,0.021556 0.03848,0.045358 0.0324,0.080062 -0.0032,0.062508 -0.02397,0.048506 -0.05625,0.091411 -0.03099,0.017902 -0.05463,0.056906"
     id="path2086-0"
     inkscape:connector-curvature="0" />
  <path
     style="fill:none;stroke:#000000;stroke-width:0.05171783px;stroke-linecap:butt;stroke-linejoin:miter;stroke-opacity:1"
     d="m 5.2077674,3.5148132 -0.01141,-0.1222231 0.0056,-0.067359 c 0,0 -0.0063,-0.00476 0.01488,-0.030119 0.0176,-0.021026 0.073,-0.091696 0.073,-0.091696 l 0.08035,-0.016951 0.102277,0.016336"
     id="path2088-4"
     inkscape:connector-curvature="0" />
  <path
     style="fill:none;stroke:#000000;stroke-width:0.05171783px;stroke-linecap:butt;stroke-linejoin:miter;stroke-opacity:1"
     d="m 5.3075414,4.7439239 -0.09799,0.022208 -0.04602,0.059507 -0.02894,0.1033637 0.0033,0.060458 0.04679,0.050959 0.08112,0.093514 0.05989,0.046859 0.03811,0.052919"
     id="path2090-7"
     inkscape:connector-curvature="0" />
  <path
     style="fill:none;stroke:#000000;stroke-width:0.05171783px;stroke-linecap:butt;stroke-linejoin:miter;stroke-opacity:1"
     d="m 4.6433854,4.9027095 0.0815,0.015131 0.0479,0.071111 0.0265,0.069611 -0.0307,0.095712 -0.02461,0.061008 -0.02877,0.058207 -0.03339,0.022753 -0.08035,0.01695 -0.09019,-0.00903"
     id="path2092-6"
     inkscape:connector-curvature="0" />
  <path
     style="fill:none;stroke:#000000;stroke-width:0.05171783px;stroke-linecap:butt;stroke-linejoin:miter;stroke-opacity:1"
     d="m 4.5189504,6.4066028 0.111949,-0.077568 0.07988,-0.049605 0.1107,-0.02235 0.102224,0.017205 0.08608,0.038658 0.0848,0.063661 0.0757,0.1207481"
     id="path2094-8"
     inkscape:connector-curvature="0" />
  <path
     style="fill:#008000;fill-opacity:1;stroke:none;stroke-width:0.00457125;stroke-opacity:0.02617804"
     d="m 4.6125894,6.2955922 c 0.0034,-0.00683 0.03006,-0.054126 0.05914,-0.1051133 l 0.05288,-0.092702 -0.0017,-0.023936 c -9.07e-4,-0.013165 -0.0032,-0.044811 -0.005,-0.070324 l -0.0034,-0.046388 0.04961,-0.1335131 c 0.02728,-0.073432 0.05002,-0.1360631 0.05052,-0.1391781 0.0016,-0.010077 -0.170293,-0.3282063 -0.181563,-0.3359713 -0.01014,-0.00699 -0.0092,-0.0076 0.02707,-0.017398 0.02067,-0.00559 0.04669,-0.016444 0.05783,-0.024129 0.01996,-0.013777 0.02059,-0.014766 0.04472,-0.069681 0.01346,-0.030638 0.03352,-0.083706 0.04458,-0.1179281 l 0.02011,-0.062224 -0.01504,-0.039657 c -0.0084,-0.022209 -0.02781,-0.059101 -0.04406,-0.083846 l -0.02902,-0.044189 -0.03865,-0.0069 -0.03865,-0.0069 -0.03915,-0.1132157 -0.03915,-0.1132162 -0.05051,-0.052704 -0.05051,-0.052702 -0.02839,-0.094532 c -0.0306,-0.1018957 -0.05158,-0.2195213 -0.04243,-0.2378644 0.0027,-0.00545 0.01787,-0.028129 0.03369,-0.050407 0.02601,-0.036633 0.03202,-0.04826 0.06281,-0.1215575 0.02183,-0.051957 0.03372,-0.085046 0.03312,-0.092181 -0.0064,-0.075457 -0.02078,-0.1537763 -0.03618,-0.1966075 -0.0097,-0.026883 -0.01574,-0.050609 -0.0135,-0.052726 0.0022,-0.00211 0.01028,-0.010836 0.01788,-0.019372 0.0076,-0.00854 0.02201,-0.020266 0.03202,-0.026064 0.01528,-0.00885 0.02281,-0.018027 0.04687,-0.057152 0.05036,-0.081885 0.05869,-0.1020737 0.06114,-0.1480331 0.0019,-0.036444 5e-4,-0.043979 -0.01584,-0.084281 -0.01295,-0.031903 -0.02456,-0.052145 -0.04158,-0.072501 l -0.02361,-0.028241 -0.03621,-0.0098 -0.03622,-0.0098 -0.06967,-0.1405562 c -0.05565,-0.112255 -0.07821,-0.1638425 -0.112076,-0.25621 -0.02332,-0.06361 -0.0431,-0.118155 -0.04395,-0.1212119 -8.44e-4,-0.00306 0.01298,-0.054346 0.03074,-0.1139763 0.03219,-0.1080987 0.03243,-0.1087062 0.07992,-0.2046573 l 0.04762,-0.096245 0.03187,-0.00296 c 0.01753,-0.00162 0.03573,-0.00352 0.04045,-0.00422 0.0068,-0.00101 0.02027,-0.020408 0.0653,-0.094104 l 0.05672,-0.092837 0.07784,-0.069351 c 0.07239,-0.0645 0.08253,-0.071837 0.144842,-0.1048412 0.03685,-0.019518 0.06888,-0.035614 0.07118,-0.035768 0.0023,-1.25e-4 0.02368,0.00817 0.04752,0.018503 0.06422,0.027832 0.18576,0.045624 0.347858,0.050921 l 0.127868,0.00418 0.08094,0.05459 0.08094,0.054591 0.08102,0.1255487 c 0.147554,0.2286381 0.183695,0.2888011 0.212359,0.3535036 l 0.02736,0.06176 0.01805,0.1387194 c 0.01628,0.1251856 0.01753,0.1445719 0.01279,0.1987131 l -0.0053,0.059994 -0.03347,0.048661 c -0.01841,0.026764 -0.0352,0.049025 -0.03732,0.049468 -0.05781,0.012118 -0.223768,0.033829 -0.303125,0.039656 -0.08193,0.00602 -0.115406,0.00586 -0.154218,-7.313e-4 -0.04195,-0.0071 -0.05684,-0.00684 -0.09682,0.00171 -0.04676,0.010009 -0.04745,0.010371 -0.06693,0.035109 -0.01083,0.013748 -0.03315,0.042072 -0.0496,0.062943 l -0.02991,0.037947 -0.0035,0.045047 c -0.0019,0.024776 -0.0021,0.059464 -3.75e-4,0.077084 0.004,0.040642 0.003,0.047587 -0.0062,0.043891 -0.0105,-0.00425 0.08055,0.2261794 0.11713,0.2964131 0.02965,0.056923 0.02968,0.057043 0.04147,0.1384306 l 0.01179,0.081459 -0.01552,0.095004 c -0.01463,0.089556 -0.01534,0.1011031 -0.0124,0.2013144 0.003,0.1036256 -0.0022,0.2087906 -0.0181,0.3656681 l -0.0073,0.072081 -0.02845,0.00636 c -0.0601,0.013427 -0.06115,0.014046 -0.09014,0.053436 l -0.02666,0.036221 -0.01542,0.056766 c -0.01276,0.046992 -0.01508,0.063128 -0.01344,0.093717 l 0.002,0.036952 0.07262,0.081288 c 0.03994,0.044708 0.0847,0.090844 0.09946,0.1025231 0.04469,0.035364 0.05346,0.051782 0.06253,0.1170125 0.0043,0.031078 0.01172,0.1027563 0.01645,0.159285 0.0047,0.056529 0.01329,0.1440069 0.01904,0.1943938 l 0.01045,0.091613 -0.01885,0.09099 c -0.01806,0.087185 -0.02063,0.095513 -0.06153,0.1991212 -0.03878,0.098214 -0.04639,0.1145301 -0.08299,0.1779363 -0.05837,0.101122 -0.06177,0.1089514 -0.06823,0.157082 -0.0031,0.023121 -0.0065,0.0423 -0.0076,0.042621 -0.0011,3.75e-4 -0.0098,-0.012498 -0.01937,-0.028487 -0.01548,-0.025902 -0.02241,-0.032897 -0.06352,-0.064161 -0.06423,-0.048836 -0.118602,-0.073194 -0.193154,-0.086522 -0.05057,-0.00904 -0.06025,-0.00887 -0.114821,0.00196 -0.05269,0.010465 -0.06478,0.015075 -0.104352,0.039802 -0.05358,0.033481 -0.05337,0.033398 -0.04546,0.017736 z"
     id="path2096-9"
     inkscape:connector-curvature="0" />
  <path
     id="path2098-0"
     d="m 4.6562474,6.2761009 c 0.07691,-0.048582 0.176589,-0.058635 0.279593,-0.0282 0.06661,0.01968 0.170431,0.089359 0.197085,0.1322688 0.0099,0.015863 0.01814,0.028305 0.01842,0.027649 3.12e-4,-6.562e-4 0.0042,-0.020508 0.0087,-0.044113 0.0073,-0.03818 0.01448,-0.054742 0.06503,-0.1499851 0.07657,-0.1442594 0.11689,-0.2474963 0.143907,-0.3684694 l 0.02079,-0.093103 -0.02019,-0.2035082 c -0.0236,-0.2378931 -0.03093,-0.2902875 -0.04397,-0.3140462 -0.0053,-0.00962 -0.02576,-0.032201 -0.04553,-0.050187 -0.01977,-0.017986 -0.0666,-0.066572 -0.104079,-0.1079681 l -0.06814,-0.075265 1.25e-4,-0.040537 c 1.25e-4,-0.043778 0.01765,-0.1217775 0.03453,-0.1538813 0.02396,-0.045573 0.05497,-0.071449 0.09841,-0.082104 l 0.0415,-0.010182 0.0095,-0.1043819 c 0.01214,-0.1337675 0.01641,-0.2260906 0.01473,-0.3179219 -0.0019,-0.1020087 3.12e-4,-0.1353918 0.01424,-0.2207675 0.0067,-0.040946 0.01175,-0.083638 0.01122,-0.094871 -0.0024,-0.050823 -0.02073,-0.1482894 -0.03265,-0.1733719 -0.0295,-0.06208 -0.106748,-0.2451031 -0.120254,-0.2849156 -0.008,-0.023464 -0.01257,-0.046517 -0.01024,-0.051226 0.0023,-0.00471 0.0033,-0.029851 0.0022,-0.055871 -0.0011,-0.026019 -7.69e-4,-0.061718 7.5e-4,-0.079329 l 0.0028,-0.032021 0.04779,-0.060288 0.04779,-0.060288 0.04437,-0.012266 c 0.03095,-0.00856 0.06413,-0.010301 0.109668,-0.00577 0.03591,0.00357 0.106591,0.00311 0.157066,-0.00104 0.09791,-0.00804 0.275044,-0.031523 0.291544,-0.038658 0.0055,-0.00236 0.0244,-0.025731 0.04206,-0.051921 l 0.03211,-0.047621 0.0034,-0.063094 c 0.0021,-0.038631 -0.0029,-0.11398 -0.01276,-0.1943356 -0.02179,-0.1768013 -0.03262,-0.2003838 -0.24011,-0.5227974 l -0.09521,-0.1479438 -0.08312,-0.056057 -0.08312,-0.056059 -0.06872,-0.00191 c -0.19124,-0.0053 -0.316668,-0.021504 -0.396546,-0.051236 -0.02698,-0.010043 -0.05377,-0.017321 -0.05953,-0.016172 -0.03314,0.00661 -0.14622,0.081387 -0.213393,0.1411088 -0.07194,0.063958 -0.07444,0.066956 -0.127811,0.1528762 -0.02994,0.048201 -0.05726,0.090312 -0.06071,0.093581 -0.0035,0.00327 -0.02217,0.00734 -0.0416,0.00905 l -0.03532,0.00311 -0.04938,0.099913 c -0.04327,0.087548 -0.05321,0.1129405 -0.08034,0.2051637 l -0.03096,0.1052493 0.03663,0.099186 c 0.04364,0.1181887 0.0642,0.1652781 0.134943,0.3091106 l 0.05352,0.1088137 0.03693,0.0102 c 0.03521,0.00972 0.03794,0.011513 0.05854,0.038283 0.01188,0.015446 0.03003,0.046323 0.04033,0.068616 0.01531,0.033148 0.01843,0.049501 0.01714,0.089748 l -0.0016,0.049215 -0.03465,0.061114 c -0.03714,0.065491 -0.04387,0.074085 -0.09032,0.11533 l -0.03015,0.026769 0.01978,0.076034 c 0.01088,0.041818 0.02234,0.098499 0.02547,0.1259562 0.005,0.043855 0.0037,0.055581 -0.01091,0.096478 -0.02244,0.062975 -0.05577,0.1298419 -0.0893,0.17915 -0.02763,0.040641 -0.02778,0.041083 -0.02444,0.072853 0.0055,0.05275 0.02388,0.134965 0.04827,0.2165493 l 0.02302,0.07698 0.05038,0.052349 0.05038,0.05235 0.03673,0.1069519 c 0.0202,0.058824 0.03863,0.1098506 0.04095,0.1133937 0.0023,0.00354 0.0188,0.00898 0.03661,0.012086 0.01781,0.0031 0.0362,0.00822 0.04085,0.011356 0.01166,0.00787 0.07241,0.1155994 0.08141,0.144395 0.0064,0.020426 0.0047,0.031317 -0.01294,0.083778 -0.03352,0.099641 -0.06534,0.1722063 -0.08055,0.18368 -0.0074,0.00556 -0.03189,0.016225 -0.0545,0.023713 -0.02261,0.00749 -0.04047,0.015028 -0.03968,0.016757 7.88e-4,0.00173 0.02507,0.044747 0.05395,0.095596 0.04195,0.073849 0.12625,0.2327506 0.128813,0.2428 3.12e-4,0.00117 -0.022,0.063233 -0.04954,0.1379169 l -0.05008,0.1357887 0.0047,0.071673 0.0047,0.071673 -0.04648,0.080551 c -0.02556,0.044301 -0.04992,0.089426 -0.05413,0.1002763 -0.0076,0.019546 -0.0073,0.019511 0.02954,-0.00377 z"
     style="fill:url(#linearGradient2118-5);fill-opacity:1;fill-rule:nonzero;stroke:#000000;stroke-width:0.00633973;stroke-miterlimit:4;stroke-dasharray:0.00633973, 0.01267946;stroke-dashoffset:0;stroke-opacity:0.96254536"
     inkscape:connector-curvature="0" />
  <path
     id="path2100-6"
     d="m 6.7916784,6.4066028 0.179266,-0.3180014 -0.01017,-0.1359469 0.09955,-0.2684975 -0.160285,-0.3017413 -0.116031,-0.078257 -0.08031,-0.1058043 -0.0054,-0.1456294 0.122785,-0.1366419 0.09501,-0.013373 -0.08219,-0.2361613 -0.101676,-0.1073018 -0.05861,-0.1944394 -0.02196,-0.1568088 0.074,-0.1050018 0.06349,-0.1508169 -0.01845,-0.1415369 -0.0411,-0.1180812 -0.143115,-0.1352519 -0.01145,-0.1109931 0.03956,-0.1024082 0.07143,-0.055095 0.06536,-0.02046 -0.143711,-0.2905625 -0.09398,-0.2570237 0.06733,-0.2256775 0.10527,-0.2129993 0.08194,-0.00928 0.112277,-0.1824568 0.157218,-0.1392369 0.14987,-0.079647 0.100736,0.042124 0.17439,0.027254 0.261115,0.00829 0.165758,0.111795 0.162851,0.251835 0.110902,0.1780705 0.05767,0.1292613 0.03691,0.2830731 -0.0112,0.1344494 -0.07878,0.1146837 -0.216173,0.034929 -0.206603,0.015565 0.01401,0.061087 0.05511,0.1791668 -0.05742,0.1161819 -0.121159,0.021556 -0.15525,-0.065981 0.06818,0.1750757 0.06246,0.1195781 0.02546,0.1720806 -0.03162,0.1981294 0.0063,0.2108069 -0.01376,0.1843562 -0.01726,0.1690838 0.08288,0.055898 0.09945,0.067077 0.01973,0.1165831 -0.02871,0.058092 -0.0587,0.141135 -0.05836,0.051003 0.01845,0.1415363 0.01589,0.1914431 0.02067,0.1817619 -0.03991,0.1925406 -0.0887,0.2241794 -0.07049,0.1202745 -0.02871,0.058091 -0.02077,0.1538125 5.63e-4,0.1553101 -0.105865,0.05769 -0.09373,-0.011581 -0.132606,-0.089437 -0.140895,-0.095027 z"
     style="fill:#ffff00;stroke:#000000;stroke-width:0.05171783px;stroke-linecap:butt;stroke-linejoin:miter;stroke-opacity:1"
     inkscape:connector-curvature="0" />
  <path
     id="path2102-8"
     d="m 6.7514104,3.2683532 0.07638,0.021556 0.03848,0.045358 0.0324,0.080062 -0.0032,0.062508 -0.02397,0.048506 -0.05625,0.091411 -0.03099,0.017902 -0.05463,0.056906"
     style="fill:#ffff00;stroke:#000000;stroke-width:0.05171783px;stroke-linecap:butt;stroke-linejoin:miter;stroke-opacity:1"
     inkscape:connector-curvature="0" />
  <path
     id="path2104-7"
     d="m 7.4804954,3.5148132 -0.01141,-0.1222231 0.0056,-0.067359 c 0,0 -0.0063,-0.00476 0.01489,-0.030119 0.0176,-0.021026 0.073,-0.091696 0.073,-0.091696 l 0.08035,-0.016951 0.102276,0.016336"
     style="fill:none;stroke:#000000;stroke-width:0.05171783px;stroke-linecap:butt;stroke-linejoin:miter;stroke-opacity:1"
     inkscape:connector-curvature="0" />
  <path
     id="path2106-9"
     d="m 7.5802684,4.7439239 -0.09798,0.022208 -0.04602,0.059507 -0.02894,0.1033637 0.0033,0.060458 0.04679,0.050959 0.08112,0.093514 0.05989,0.046859 0.03811,0.052919"
     style="fill:none;stroke:#000000;stroke-width:0.05171783px;stroke-linecap:butt;stroke-linejoin:miter;stroke-opacity:1"
     inkscape:connector-curvature="0" />
  <path
     id="path2108-0"
     d="m 6.9161134,4.9027095 0.0815,0.015131 0.0479,0.071111 0.0265,0.069611 -0.03069,0.095712 -0.02461,0.061008 -0.02877,0.058207 -0.03339,0.022753 -0.08035,0.01695 -0.09018,-0.00903"
     style="fill:none;stroke:#000000;stroke-width:0.05171783px;stroke-linecap:butt;stroke-linejoin:miter;stroke-opacity:1"
     inkscape:connector-curvature="0" />
  <path
     id="path2110-3"
     d="m 6.7916784,6.4066028 0.111948,-0.077568 0.07988,-0.049605 0.1107,-0.02235 0.102225,0.017205 0.08608,0.038658 0.0848,0.063661 0.0757,0.1207481"
     style="fill:none;stroke:#000000;stroke-width:0.05171783px;stroke-linecap:butt;stroke-linejoin:miter;stroke-opacity:1"
     inkscape:connector-curvature="0" />
  <path
     id="path2112-3"
     d="m 6.8853164,6.2955922 c 0.0034,-0.00683 0.03007,-0.054126 0.05914,-0.1051133 l 0.05288,-0.092702 -0.0017,-0.023936 c -9.06e-4,-0.013165 -0.0032,-0.044811 -0.005,-0.070324 l -0.0034,-0.046388 0.04961,-0.1335131 c 0.02728,-0.073432 0.05002,-0.1360631 0.05052,-0.1391781 0.0016,-0.010077 -0.170292,-0.3282063 -0.181563,-0.3359713 -0.01014,-0.00699 -0.0092,-0.0076 0.02707,-0.017398 0.02067,-0.00559 0.04669,-0.016444 0.05783,-0.024129 0.01996,-0.013777 0.02059,-0.014766 0.04471,-0.069681 0.01346,-0.030638 0.03352,-0.083706 0.04458,-0.1179281 l 0.02011,-0.062224 -0.01504,-0.039657 c -0.0084,-0.022209 -0.02781,-0.059101 -0.04406,-0.083846 l -0.02902,-0.044189 -0.03865,-0.0069 -0.03865,-0.0069 -0.03915,-0.1132157 -0.03915,-0.1132162 -0.05051,-0.052704 -0.05051,-0.052702 -0.02839,-0.094532 c -0.0306,-0.1018957 -0.05158,-0.2195213 -0.04243,-0.2378644 0.0027,-0.00545 0.01788,-0.028129 0.03369,-0.050407 0.02601,-0.036633 0.03201,-0.04826 0.06281,-0.1215575 0.02183,-0.051957 0.03372,-0.085046 0.03312,-0.092181 -0.0064,-0.075457 -0.02078,-0.1537763 -0.03618,-0.1966075 -0.0097,-0.026883 -0.01574,-0.050609 -0.0135,-0.052726 0.0022,-0.00211 0.01028,-0.010836 0.01788,-0.019372 0.0076,-0.00854 0.02201,-0.020266 0.03202,-0.026064 0.01528,-0.00885 0.02281,-0.018027 0.04687,-0.057152 0.05036,-0.081885 0.05869,-0.1020737 0.06114,-0.1480331 0.0019,-0.036444 5e-4,-0.043979 -0.01584,-0.084281 -0.01295,-0.031903 -0.02456,-0.052145 -0.04158,-0.072501 l -0.02361,-0.028241 -0.03621,-0.0098 -0.03622,-0.0098 -0.06967,-0.1405562 c -0.05564,-0.112255 -0.07821,-0.1638425 -0.112075,-0.25621 -0.02332,-0.06361 -0.0431,-0.118155 -0.04395,-0.1212119 -8.44e-4,-0.00306 0.01298,-0.054346 0.03074,-0.1139763 0.03219,-0.1080987 0.03243,-0.1087062 0.07992,-0.2046573 l 0.04762,-0.096245 0.03187,-0.00296 c 0.01753,-0.00162 0.03573,-0.00352 0.04045,-0.00422 0.0068,-0.00101 0.02027,-0.020408 0.0653,-0.094104 l 0.05672,-0.092837 0.07784,-0.069351 c 0.07239,-0.0645 0.08253,-0.071837 0.144842,-0.1048412 0.03685,-0.019518 0.06888,-0.035614 0.07118,-0.035768 0.0023,-1.25e-4 0.02368,0.00817 0.04752,0.018503 0.06422,0.027832 0.18576,0.045624 0.347858,0.050921 l 0.127868,0.00418 0.08094,0.05459 0.08094,0.054591 0.08102,0.1255487 c 0.147555,0.2286381 0.183695,0.2888011 0.212359,0.3535036 l 0.02736,0.06176 0.01805,0.1387194 c 0.01629,0.1251856 0.01753,0.1445719 0.01279,0.1987131 l -0.0053,0.059994 -0.03347,0.048661 c -0.01841,0.026764 -0.0352,0.049025 -0.03732,0.049468 -0.05781,0.012118 -0.223768,0.033829 -0.303126,0.039656 -0.08193,0.00602 -0.115406,0.00586 -0.154217,-7.313e-4 -0.04195,-0.0071 -0.05684,-0.00684 -0.09682,0.00171 -0.04676,0.010009 -0.04745,0.010371 -0.06694,0.035109 -0.01083,0.013748 -0.03315,0.042072 -0.0496,0.062943 l -0.02991,0.037947 -0.0035,0.045047 c -0.0019,0.024776 -0.0021,0.059464 -3.75e-4,0.077084 0.004,0.040642 0.003,0.047587 -0.0062,0.043891 -0.0105,-0.00425 0.08055,0.2261794 0.11713,0.2964131 0.02965,0.056923 0.02968,0.057043 0.04147,0.1384306 l 0.0118,0.081459 -0.01552,0.095004 c -0.01463,0.089556 -0.01534,0.1011031 -0.0124,0.2013144 0.003,0.1036256 -0.0022,0.2087906 -0.0181,0.3656681 l -0.0073,0.072081 -0.02845,0.00636 c -0.0601,0.013427 -0.06115,0.014046 -0.09014,0.053436 l -0.02666,0.036221 -0.01542,0.056766 c -0.01276,0.046992 -0.01508,0.063128 -0.01344,0.093717 l 0.002,0.036952 0.07262,0.081288 c 0.03994,0.044708 0.0847,0.090844 0.09946,0.1025231 0.04469,0.035364 0.05346,0.051782 0.06253,0.1170125 0.0043,0.031078 0.01172,0.1027563 0.01645,0.159285 0.0047,0.056529 0.01329,0.1440069 0.01904,0.1943938 l 0.01045,0.091613 -0.01884,0.09099 c -0.01806,0.087185 -0.02063,0.095513 -0.06153,0.1991212 -0.03878,0.098214 -0.04638,0.1145301 -0.08299,0.1779363 -0.05837,0.101122 -0.06177,0.1089514 -0.06823,0.157082 -0.0031,0.023121 -0.0065,0.0423 -0.0076,0.042621 -0.0011,3.75e-4 -0.0098,-0.012498 -0.01937,-0.028487 -0.01548,-0.025902 -0.02241,-0.032897 -0.06352,-0.064161 -0.06423,-0.048836 -0.118601,-0.073194 -0.193154,-0.086522 -0.05057,-0.00904 -0.06025,-0.00887 -0.114821,0.00196 -0.05269,0.010465 -0.06478,0.015075 -0.104351,0.039802 -0.05359,0.033481 -0.05337,0.033398 -0.04546,0.017736 z"
     style="fill:#008000;fill-opacity:1;stroke:none;stroke-width:0.00457125;stroke-opacity:0.02617804"
     inkscape:connector-curvature="0" />
  <path
     style="fill:url(#linearGradient2120-2);fill-opacity:1;fill-rule:nonzero;stroke:#000000;stroke-width:0.00633973;stroke-miterlimit:4;stroke-dasharray:0.00633973, 0.01267946;stroke-dashoffset:0;stroke-opacity:0.96254536"
     d="m 6.9289744,6.2761009 c 0.07691,-0.048582 0.176589,-0.058635 0.279594,-0.0282 0.06661,0.01968 0.17043,0.089359 0.197085,0.1322688 0.0099,0.015863 0.01814,0.028305 0.01842,0.027649 3.13e-4,-6.562e-4 0.0042,-0.020508 0.0087,-0.044113 0.0073,-0.03818 0.01448,-0.054742 0.06504,-0.1499851 0.07657,-0.1442594 0.11689,-0.2474963 0.143907,-0.3684694 l 0.02079,-0.093103 -0.02019,-0.2035082 c -0.0236,-0.2378931 -0.03093,-0.2902875 -0.04397,-0.3140462 -0.0053,-0.00962 -0.02576,-0.032201 -0.04553,-0.050187 -0.01977,-0.017986 -0.0666,-0.066572 -0.104079,-0.1079681 l -0.06814,-0.075265 1.25e-4,-0.040537 c 1.25e-4,-0.043778 0.01765,-0.1217775 0.03453,-0.1538813 0.02396,-0.045573 0.05497,-0.071449 0.09841,-0.082104 l 0.0415,-0.010182 0.0095,-0.1043819 c 0.01214,-0.1337675 0.01641,-0.2260906 0.01472,-0.3179219 -0.0019,-0.1020087 3.13e-4,-0.1353918 0.01424,-0.2207675 0.0067,-0.040946 0.01175,-0.083638 0.01122,-0.094871 -0.0024,-0.050823 -0.02073,-0.1482894 -0.03265,-0.1733719 -0.0295,-0.06208 -0.106748,-0.2451031 -0.120255,-0.2849156 -0.008,-0.023464 -0.01257,-0.046517 -0.01024,-0.051226 0.0023,-0.00471 0.0033,-0.029851 0.0022,-0.055871 -0.0011,-0.026019 -7.69e-4,-0.061718 7.5e-4,-0.079329 l 0.0028,-0.032021 0.04779,-0.060288 0.04779,-0.060288 0.04437,-0.012266 c 0.03095,-0.00856 0.06413,-0.010301 0.109668,-0.00577 0.03591,0.00357 0.106591,0.00311 0.157066,-0.00104 0.09791,-0.00804 0.275044,-0.031523 0.291545,-0.038658 0.0055,-0.00236 0.0244,-0.025731 0.04206,-0.051921 l 0.03211,-0.047621 0.0034,-0.063094 c 0.0021,-0.038631 -0.0029,-0.11398 -0.01276,-0.1943356 -0.02179,-0.1768013 -0.03262,-0.2003838 -0.24011,-0.5227974 l -0.09521,-0.1479438 -0.08312,-0.056057 -0.08312,-0.056059 -0.06872,-0.00191 c -0.191241,-0.0053 -0.316668,-0.021504 -0.396547,-0.051236 -0.02698,-0.010043 -0.05377,-0.017321 -0.05953,-0.016172 -0.03314,0.00661 -0.146221,0.081387 -0.213393,0.1411088 -0.07194,0.063958 -0.07445,0.066956 -0.127812,0.1528762 -0.02994,0.048201 -0.05726,0.090312 -0.06071,0.093581 -0.0035,0.00327 -0.02217,0.00734 -0.0416,0.00905 l -0.03532,0.00311 -0.04938,0.099913 c -0.04327,0.087548 -0.05321,0.1129405 -0.08034,0.2051637 l -0.03096,0.1052493 0.03663,0.099186 c 0.04365,0.1181887 0.0642,0.1652781 0.134944,0.3091106 l 0.05352,0.1088137 0.03693,0.0102 c 0.03521,0.00972 0.03794,0.011513 0.05854,0.038283 0.01188,0.015446 0.03003,0.046323 0.04033,0.068616 0.01531,0.033148 0.01843,0.049501 0.01714,0.089748 l -0.0016,0.049215 -0.03465,0.061114 c -0.03714,0.065491 -0.04386,0.074085 -0.09032,0.11533 l -0.03015,0.026769 0.01978,0.076034 c 0.01088,0.041818 0.02234,0.098499 0.02547,0.1259562 0.005,0.043855 0.0037,0.055581 -0.0109,0.096478 -0.02244,0.062975 -0.05577,0.1298419 -0.0893,0.17915 -0.02763,0.040641 -0.02778,0.041083 -0.02444,0.072853 0.0055,0.05275 0.02388,0.134965 0.04827,0.2165493 l 0.02302,0.07698 0.05038,0.052349 0.05038,0.05235 0.03673,0.1069519 c 0.0202,0.058824 0.03863,0.1098506 0.04095,0.1133937 0.0023,0.00354 0.0188,0.00898 0.03661,0.012086 0.01781,0.0031 0.03619,0.00822 0.04085,0.011356 0.01166,0.00787 0.0724,0.1155994 0.08141,0.144395 0.0064,0.020426 0.0047,0.031317 -0.01294,0.083778 -0.03352,0.099641 -0.06535,0.1722063 -0.08055,0.18368 -0.0074,0.00556 -0.03189,0.016225 -0.0545,0.023713 -0.02261,0.00749 -0.04047,0.015028 -0.03968,0.016757 7.88e-4,0.00173 0.02507,0.044747 0.05395,0.095596 0.04195,0.073849 0.126251,0.2327506 0.128813,0.2428 3.13e-4,0.00117 -0.022,0.063233 -0.04954,0.1379169 l -0.05008,0.1357887 0.0047,0.071673 0.0047,0.071673 -0.04648,0.080551 c -0.02556,0.044301 -0.04992,0.089426 -0.05413,0.1002763 -0.0076,0.019546 -0.0073,0.019511 0.02954,-0.00377 z"
     id="path2114-3"
     inkscape:connector-curvature="0" />
  <path
     style="fill:#ffff00;stroke:#000000;stroke-width:0.04887762px;stroke-linecap:butt;stroke-linejoin:miter;stroke-opacity:1"
     d="m 3.0940984,8.211721 0.280957,-0.178644 0.118691,0.01228 0.236372,-0.09792 0.261193,0.167926 0.06652,0.119602 0.09119,0.08351 0.127235,0.0075 0.121472,-0.123493 0.01324,-0.09685 0.205133,0.08725 0.09215,0.105346 0.169039,0.06258 0.136738,0.02462 0.09301,-0.07411 0.132896,-0.06273 0.123443,0.02083 0.102567,0.04362 0.115911,0.148061 0.09685,0.01324 0.09018,-0.03897 0.04934,-0.07219 0.01896,-0.06647 0.251689,0.150841 0.223179,0.09958 0.198409,-0.06561 0.187945,-0.104538 0.0095,-0.08356 0.161355,-0.112121 0.124303,-0.158626 0.07208,-0.151954 -0.03518,-0.103475 -0.02098,-0.178493 -0.003,-0.266803 -0.09503,-0.1708587 -0.217518,-0.1698475 -0.153875,-0.1157594 -0.112069,-0.06071 -0.246887,-0.041652 -0.117731,0.00955 -0.101555,0.078858 -0.03407,0.2202975 -0.01698,0.2107938 -0.05318,-0.015165 -0.155745,-0.058789 -0.102516,0.057021 -0.02083,0.1234433 0.05515,0.159485 -0.151954,-0.07208 -0.103526,-0.06546 -0.150034,-0.02841 -0.17374,0.02952 -0.184204,-0.0094 -0.161407,0.01147 -0.148111,0.01527 -0.04752,-0.08543 -0.05702,-0.1025156 -0.101606,-0.021787 -0.05126,0.02851 -0.124353,0.057981 -0.04555,0.058891 -0.123443,-0.02083 -0.167119,-0.01891 -0.158575,-0.023657 -0.168989,0.038065 -0.197448,0.08745 -0.106307,0.07032 -0.05126,0.02851 -0.134817,0.01906 -0.135777,-0.0028 -0.05217,0.107319 0.0086,0.09589 0.07603,0.136687 0.08078,0.145231 z"
     id="path2551-3"
     inkscape:connector-curvature="0" />
  <path
     style="fill:#ffff00;stroke:#000000;stroke-width:0.04887762px;stroke-linecap:butt;stroke-linejoin:miter;stroke-opacity:1"
     d="m 5.8371974,8.296739 -0.0176,-0.07831 -0.03903,-0.03994 -0.06947,-0.03421 -0.0547,0.0024 -0.0428,0.02381 -0.08084,0.05617 -0.01616,0.0314 -0.05064,0.055"
     id="path2553-6-7"
     inkscape:connector-curvature="0" />
  <path
     style="fill:none;stroke:#000000;stroke-width:0.04887762px;stroke-linecap:butt;stroke-linejoin:miter;stroke-opacity:1"
     d="m 5.6336304,7.548649 0.106672,0.01336 0.05898,-0.0048 c 0,0 0.0041,0.0065 0.02658,-0.01478 0.01867,-0.01768 0.08136,-0.07328 0.08136,-0.07328 l 0.01613,-0.08183 -0.01261,-0.1046882"
     id="path2555-0-3"
     inkscape:connector-curvature="0" />
  <path
     style="fill:none;stroke:#000000;stroke-width:0.04887762px;stroke-linecap:butt;stroke-linejoin:miter;stroke-opacity:1"
     d="m 4.5606544,7.429556 -0.02102,0.09976 -0.05278,0.04617 -0.09084,0.02811 -0.0528,-0.0043 -0.04379,-0.0485 -0.08043,-0.08416 -0.03999,-0.06182 -0.04564,-0.03966"
     id="path2557-6-2"
     inkscape:connector-curvature="0" />
  <path
     style="fill:none;stroke:#000000;stroke-width:0.04887762px;stroke-linecap:butt;stroke-linejoin:miter;stroke-opacity:1"
     d="m 4.4109774,8.105663 -0.0119,-0.08345 -0.06139,-0.04992 -0.06043,-0.02804 -0.08418,0.03001 -0.05374,0.02429 -0.05136,0.02857 -0.02044,0.03378 -0.01613,0.08183 0.0064,0.09224"
     id="path2559-2-6"
     inkscape:connector-curvature="0" />
  <path
     style="fill:none;stroke:#000000;stroke-width:0.04887762px;stroke-linecap:butt;stroke-linejoin:miter;stroke-opacity:1"
     d="m 3.0940984,8.211721 0.06965,-0.113253 0.04467,-0.08089 0.02135,-0.11275 -0.01337,-0.104646 -0.03239,-0.08846 -0.05427,-0.0875 -0.104332,-0.079"
     id="path2561-6"
     inkscape:connector-curvature="0" />
  <path
     style="fill:#008000;fill-opacity:1;stroke:none;stroke-width:0.00432021;stroke-opacity:0.02617804"
     d="m 3.1926844,8.117637 c 0.006,-0.0034 0.04781,-0.02995 0.09287,-0.05894 l 0.08191,-0.05271 0.0209,0.002 c 0.01149,0.0011 0.03913,0.0039 0.0614,0.0061 l 0.0405,0.0041 0.117541,-0.0488 c 0.06465,-0.02684 0.119776,-0.04918 0.122508,-0.04965 0.0088,-0.0015 0.284167,0.178516 0.290772,0.190136 0.0059,0.01045 0.0065,0.0095 0.01565,-0.02741 0.0052,-0.02103 0.01514,-0.04746 0.02204,-0.05873 0.01237,-0.02019 0.01325,-0.02083 0.06165,-0.04469 0.02701,-0.01332 0.07373,-0.03306 0.103833,-0.04388 l 0.05473,-0.01967 0.03443,0.01592 c 0.01928,0.0089 0.05122,0.02923 0.07259,0.04617 l 0.03816,0.03026 0.0054,0.03957 0.0054,0.03957 0.09834,0.04157 0.09834,0.04157 0.04525,0.05232 0.04525,0.05232 0.08218,0.03031 c 0.08859,0.03267 0.191084,0.05575 0.207271,0.04667 0.0048,-0.0027 0.02488,-0.01786 0.04462,-0.03371 0.03245,-0.02605 0.04272,-0.03202 0.107304,-0.06245 0.04578,-0.02157 0.07491,-0.03325 0.08113,-0.03253 0.06587,0.0076 0.134107,0.02338 0.171302,0.0397 0.02335,0.01024 0.04399,0.01678 0.04588,0.01453 0.0019,-0.0023 0.0096,-0.01035 0.01723,-0.01799 0.0076,-0.0076 0.01808,-0.02219 0.02331,-0.03234 0.008,-0.01548 0.01613,-0.02304 0.05073,-0.04707 0.07241,-0.05029 0.0902,-0.05852 0.130423,-0.06037 0.03189,-0.0015 0.03846,1.25e-4 0.07343,0.01736 0.02768,0.01367 0.04519,0.02581 0.06271,0.04348 l 0.0243,0.02451 0.008,0.03712 0.008,0.03712 0.121749,0.07313 c 0.09723,0.0584 0.141969,0.08217 0.222173,0.118051 0.05523,0.02471 0.102598,0.04567 0.105256,0.04658 0.0027,9.06e-4 0.04773,-0.0125 0.100152,-0.0298 0.09504,-0.03136 0.09557,-0.0316 0.180237,-0.07876 l 0.08492,-0.04729 0.0031,-0.0325 c 0.0017,-0.01788 0.0037,-0.03644 0.0043,-0.04125 9.94e-4,-0.0069 0.01817,-0.02042 0.08334,-0.06538 l 0.08209,-0.05663 0.06191,-0.07853 c 0.05757,-0.07304 0.06415,-0.08329 0.09403,-0.146467 0.01767,-0.03736 0.03226,-0.06985 0.03244,-0.0722 1.88e-4,-0.0023 -0.0068,-0.0243 -0.0154,-0.0488 -0.02328,-0.06598 -0.03685,-0.190362 -0.03883,-0.355993 l -0.0016,-0.130655 -0.04641,-0.08343 -0.0464,-0.083431 -0.108443,-0.084509 C 6.5811514,6.9273691 6.5291434,6.8896159 6.4730414,6.8594359 l -0.05355,-0.028807 -0.120986,-0.020371 c -0.109184,-0.018383 -0.126113,-0.019928 -0.173525,-0.015839 l -0.05254,0.00453 -0.04309,0.033504 c -0.0237,0.018429 -0.04344,0.035267 -0.04386,0.03742 -0.01154,0.058874 -0.03323,0.22807 -0.03962,0.3090394 -0.0066,0.083596 -0.007,0.1177862 -0.0019,0.1575175 0.0055,0.04294 0.0051,0.05815 -0.0031,0.09886 -0.0095,0.04762 -0.0098,0.04832 -0.03179,0.06787 -0.0122,0.01087 -0.03733,0.03327 -0.05584,0.04978 l -0.03366,0.03002 -0.03944,0.003 c -0.02169,0.0016 -0.05202,0.0013 -0.0674,-6.88e-4 -0.03547,-0.0046 -0.04156,-0.0037 -0.03847,0.0057 0.0035,0.01079 -0.196431,-0.08543 -0.257239,-0.123775 -0.04928,-0.03107 -0.04939,-0.03111 -0.120352,-0.04429 l -0.07103,-0.01319 -0.08332,0.01452 c -0.07854,0.01369 -0.08864,0.01426 -0.176211,0.0099 -0.09055,-0.0046 -0.18258,-7.06e-4 -0.319997,0.01337 l -0.06314,0.0065 -0.006,0.02897 c -0.01272,0.0612 -0.01328,0.06226 -0.04819,0.09131 l -0.0321,0.02672 -0.04988,0.01495 c -0.04129,0.01238 -0.05544,0.01451 -0.08216,0.01241 l -0.03228,-0.0025 -0.06988,-0.07531 c -0.03844,-0.04142 -0.07804,-0.08778 -0.08801,-0.103014 -0.03019,-0.04614 -0.0444,-0.05533 -0.101282,-0.0655 -0.0271,-0.0049 -0.08965,-0.01341 -0.138993,-0.01903 -0.04935,-0.0056 -0.125687,-0.01559 -0.169646,-0.02216 l -0.07993,-0.01195 -0.07986,0.01797 c -0.07652,0.01722 -0.08384,0.01974 -0.175095,0.06006 -0.0865,0.03823 -0.100891,0.04577 -0.156926,0.08227 -0.08936,0.0582 -0.09626,0.06157 -0.13845,0.06749 -0.02026,0.0029 -0.03709,0.0061 -0.03739,0.0072 -2.94e-4,0.0011 0.01077,0.0102 0.02459,0.02018 0.02239,0.01618 0.0284,0.02335 0.05506,0.06578 0.04165,0.06628 0.06206,0.122156 0.07249,0.198486 0.0071,0.05178 0.0068,0.06166 -0.0036,0.117243 -0.01001,0.05367 -0.01424,0.06595 -0.0365,0.106022 -0.03015,0.05426 -0.03007,0.05405 -0.01625,0.04618 z"
     id="path2563-1-5"
     inkscape:connector-curvature="0" />
  <path
     id="path2581-8"
     d="m 3.2104384,8.07332 c 0.04373,-0.07788 0.05415,-0.179538 0.02922,-0.285166 -0.01612,-0.0683 -0.07534,-0.175317 -0.112422,-0.203141 -0.01371,-0.01029 -0.02445,-0.01893 -0.02387,-0.0192 5.75e-4,-3.12e-4 0.018,-0.004 0.03871,-0.0083 0.0335,-0.0069 0.0481,-0.01403 0.132193,-0.06433 0.127376,-0.07619 0.218295,-0.115923 0.324503,-0.141824 l 0.08174,-0.01993 0.177597,0.02346 c 0.207602,0.02743 0.253291,0.03566 0.27385,0.0493 0.0083,0.0055 0.02773,0.02676 0.04313,0.0472 0.0154,0.02044 0.05712,0.06895 0.0927,0.10781 l 0.06469,0.07065 0.03544,4.38e-4 c 0.03828,5e-4 0.106758,-0.01632 0.135102,-0.03311 0.04023,-0.02383 0.06336,-0.05515 0.07339,-0.09936 l 0.0096,-0.04224 0.09141,-0.0082 c 0.117151,-0.01053 0.197939,-0.0136 0.278199,-0.01059 0.08916,0.0033 0.118377,0.0016 0.193248,-0.01146 0.03591,-0.0063 0.07332,-0.01083 0.08313,-0.01014 0.0444,0.0031 0.12931,0.02324 0.151045,0.03577 0.05379,0.031 0.212549,0.112454 0.247136,0.126805 0.02038,0.0085 0.04046,0.01349 0.04462,0.01118 0.0042,-0.0023 0.02615,-0.003 0.04888,-0.0015 0.02273,0.0015 0.05395,0.0016 0.06937,3.13e-4 l 0.02804,-0.0024 0.05349,-0.04797 0.05349,-0.04797 0.01145,-0.04515 c 0.008,-0.03149 0.01005,-0.06535 0.0068,-0.111928 -0.0025,-0.036727 -9.77e-4,-0.1089089 0.0035,-0.1604027 0.0086,-0.09989 0.03205,-0.2804719 0.03856,-0.297225 0.0022,-0.00556 0.0229,-0.024559 0.04608,-0.04223 l 0.04216,-0.032128 0.05522,-0.00261 c 0.03381,-0.00159 0.0996,0.00451 0.169699,0.01575 0.15422,0.024731 0.17466,0.036123 0.453155,0.2525457 l 0.127792,0.099308 0.04765,0.085674 0.04765,0.085674 5.62e-4,0.07022 c 0.0015,0.195396 0.01363,0.323727 0.03831,0.405726 0.0083,0.0277 0.01427,0.05516 0.01317,0.06103 -0.0063,0.03375 -0.07355,0.148202 -0.126857,0.215973 -0.05709,0.07258 -0.05976,0.0751 -0.135747,0.128401 -0.04263,0.0299 -0.0799,0.05722 -0.08281,0.0607 -0.0029,0.0035 -0.0068,0.02254 -0.0086,0.04236 l -0.0033,0.03603 -0.08816,0.04904 c -0.07725,0.04297 -0.09961,0.05277 -0.180687,0.07919 l -0.09252,0.03015 -0.08612,-0.0388 c -0.10262,-0.04623 -0.143453,-0.06788 -0.26805,-0.142146 l -0.09426,-0.05618 -0.0083,-0.03787 c -0.0079,-0.03609 -0.0094,-0.03892 -0.03252,-0.06032 -0.01331,-0.01235 -0.04001,-0.03132 -0.05933,-0.04215 -0.02873,-0.0161 -0.04298,-0.01952 -0.07819,-0.01876 l -0.04305,9.25e-4 -0.054,0.03454 c -0.05787,0.03701 -0.06549,0.04377 -0.102307,0.09063 l -0.0239,0.03042 -0.06615,-0.02127 c -0.03638,-0.0117 -0.08575,-0.0242 -0.109706,-0.02777 -0.03826,-0.0057 -0.04854,-0.0045 -0.08453,0.0098 -0.05543,0.02204 -0.114431,0.05515 -0.158089,0.0887 -0.03598,0.02765 -0.03637,0.0278 -0.0641,0.02394 -0.04603,-0.0064 -0.117609,-0.02628 -0.188539,-0.05233 l -0.06693,-0.02458 -0.04495,-0.05219 -0.04494,-0.05219 -0.09291,-0.039 c -0.0511,-0.02145 -0.09541,-0.04099 -0.09847,-0.04341 -0.0031,-0.0024 -0.0075,-0.01932 -0.01,-0.03756 -0.0024,-0.01823 -0.0066,-0.03708 -0.0093,-0.04188 -0.0067,-0.01202 -0.09989,-0.07557 -0.124914,-0.08517 -0.01775,-0.0068 -0.0273,-0.0053 -0.07346,0.01204 -0.08766,0.03284 -0.151626,0.06433 -0.161907,0.0797 -0.005,0.0074 -0.01471,0.03234 -0.02162,0.05533 -0.0069,0.02299 -0.0138,0.04112 -0.0153,0.04029 -0.0015,-8.32e-4 -0.03871,-0.02623 -0.0827,-0.05644 -0.06388,-0.04388 -0.20143,-0.1322 -0.210174,-0.134957 -0.001,-3.13e-4 -0.05564,0.02158 -0.12139,0.04867 l -0.119538,0.04925 -0.06259,-0.0058 -0.06259,-0.0058 -0.07118,0.04634 c -0.03915,0.02549 -0.079,0.04974 -0.08856,0.05388 -0.01721,0.0075 -0.01718,0.0072 0.0038,-0.03012 z"
     style="fill:url(#linearGradient30-7);fill-opacity:1;fill-rule:nonzero;stroke:#000000;stroke-width:0.00599157;stroke-miterlimit:4;stroke-dasharray:0.00599157, 0.01198314;stroke-dashoffset:0;stroke-opacity:0.96254536"
     inkscape:connector-curvature="0" />
</svg>
