<?xml version="1.0" encoding="UTF-8" standalone="no"?>
<svg
   xmlns:dc="http://purl.org/dc/elements/1.1/"
   xmlns:cc="http://creativecommons.org/ns#"
   xmlns:rdf="http://www.w3.org/1999/02/22-rdf-syntax-ns#"
   xmlns:svg="http://www.w3.org/2000/svg"
   xmlns="http://www.w3.org/2000/svg"
   xmlns:xlink="http://www.w3.org/1999/xlink"
   xmlns:sodipodi="http://sodipodi.sourceforge.net/DTD/sodipodi-0.dtd"
   xmlns:inkscape="http://www.inkscape.org/namespaces/inkscape"
   version="1.1"
   id="svg815"
   width="160"
   height="250"
   viewBox="0 0 160 250"
   sodipodi:docname="clubs10.svg"
   inkscape:version="0.92.5 (2060ec1f9f, 2020-04-08)">
  <sodipodi:namedview
     pagecolor="#ffffff"
     bordercolor="#666666"
     borderopacity="1"
     objecttolerance="10"
     gridtolerance="10"
     guidetolerance="10"
     inkscape:pageopacity="0"
     inkscape:pageshadow="2"
     inkscape:window-width="1918"
     inkscape:window-height="1017"
     id="namedview5011"
     showgrid="false"
     inkscape:zoom="12.988073"
     inkscape:cx="57.272727"
     inkscape:cy="242.72727"
     inkscape:window-x="0"
     inkscape:window-y="0"
     inkscape:window-maximized="1"
     inkscape:current-layer="svg815"
     inkscape:snap-page="true" />
  <metadata
     id="metadata821">
    <rdf:RDF>
      <cc:Work
         rdf:about="">
        <dc:format>image/svg+xml</dc:format>
        <dc:type
           rdf:resource="http://purl.org/dc/dcmitype/StillImage" />
        <dc:title></dc:title>
      </cc:Work>
    </rdf:RDF>
  </metadata>
  <defs
     id="defs819">
    <linearGradient
       gradientTransform="matrix(-0.11382866,-0.04897331,0.04897331,-0.11382866,11.360684,16.77034)"
       xlink:href="#linearGradient28"
       id="linearGradient30"
       x1="68.058258"
       y1="52.766853"
       x2="93.905167"
       y2="48.329338"
       gradientUnits="userSpaceOnUse" />
    <linearGradient
       id="linearGradient28">
      <stop
         style="stop-color:#d45500;stop-opacity:1;"
         offset="0"
         id="stop24" />
      <stop
         style="stop-color:#d45500;stop-opacity:0;"
         offset="1"
         id="stop26" />
    </linearGradient>
    <linearGradient
       xlink:href="#linearGradient28"
       id="linearGradient202"
       gradientUnits="userSpaceOnUse"
       gradientTransform="matrix(-0.10421379,0,0,-0.10421379,21.478984,12.331316)"
       x1="68.058258"
       y1="52.766853"
       x2="93.905167"
       y2="48.329338" />
    <linearGradient
       gradientTransform="matrix(0.09270834,0,0,0.10071509,9.635358,3.0600958)"
       xlink:href="#linearGradient28"
       id="linearGradient30-4"
       x1="68.058258"
       y1="52.766853"
       x2="93.905167"
       y2="48.329338"
       gradientUnits="userSpaceOnUse" />
    <linearGradient
       xlink:href="#linearGradient28"
       id="linearGradient367"
       gradientUnits="userSpaceOnUse"
       gradientTransform="matrix(0.0625,0,0,0.11444754,18.072663,2.4148925)"
       x1="68.058258"
       y1="52.766853"
       x2="93.905167"
       y2="48.329338" />
    <linearGradient
       xlink:href="#linearGradient28"
       id="linearGradient349"
       gradientUnits="userSpaceOnUse"
       gradientTransform="matrix(-0.0625,0,0,-0.11444754,30.014458,13.048996)"
       x1="68.058258"
       y1="52.766853"
       x2="93.905167"
       y2="48.329338" />
    <linearGradient
       gradientTransform="matrix(0.0625,0,0,0.11444754,22.258269,2.5882975)"
       xlink:href="#linearGradient28"
       id="linearGradient30-6"
       x1="68.058258"
       y1="52.766853"
       x2="93.905167"
       y2="48.329338"
       gradientUnits="userSpaceOnUse" />
    <linearGradient
       xlink:href="#linearGradient28"
       id="linearGradient554"
       gradientUnits="userSpaceOnUse"
       gradientTransform="matrix(-0.04739556,-0.02774335,0.02569172,-0.05118036,39.13871,8.9395546)"
       x1="68.058258"
       y1="52.766853"
       x2="93.905167"
       y2="48.329338" />
    <linearGradient
       xlink:href="#linearGradient28"
       id="linearGradient552"
       gradientUnits="userSpaceOnUse"
       gradientTransform="matrix(0.04739556,-0.02774335,-0.02569172,-0.05118036,30.774237,8.9206156)"
       x1="68.058258"
       y1="52.766853"
       x2="93.905167"
       y2="48.329338" />
    <linearGradient
       xlink:href="#linearGradient28"
       id="linearGradient518"
       gradientUnits="userSpaceOnUse"
       gradientTransform="matrix(-0.04739556,0.02774335,0.02569172,0.05118036,39.15765,6.5759136)"
       x1="68.058258"
       y1="52.766853"
       x2="93.905167"
       y2="48.329338" />
    <linearGradient
       gradientTransform="matrix(0.04739556,0.02774335,-0.02569172,0.05118036,30.793177,6.5948536)"
       xlink:href="#linearGradient28"
       id="linearGradient30-2"
       x1="68.058258"
       y1="52.766853"
       x2="93.905167"
       y2="48.329338"
       gradientUnits="userSpaceOnUse" />
    <linearGradient
       gradientTransform="matrix(-0.00182956,0.04406484,-0.05671844,-0.00142139,47.989828,4.511358)"
       xlink:href="#linearGradient28"
       id="linearGradient30-3"
       x1="68.058258"
       y1="52.766853"
       x2="93.905167"
       y2="48.329338"
       gradientUnits="userSpaceOnUse" />
    <linearGradient
       xlink:href="#linearGradient28"
       id="linearGradient1562"
       gradientUnits="userSpaceOnUse"
       gradientTransform="matrix(-0.0625,0,0,-0.0625,51.889458,7.060849)"
       x1="68.058258"
       y1="52.766853"
       x2="93.905167"
       y2="48.329338" />
    <linearGradient
       xlink:href="#linearGradient28"
       id="linearGradient1560"
       gradientUnits="userSpaceOnUse"
       gradientTransform="matrix(-0.0625,0,0,-0.0625,47.798548,7.004031)"
       x1="68.058258"
       y1="52.766853"
       x2="93.905167"
       y2="48.329338" />
    <linearGradient
       xlink:href="#linearGradient28"
       id="linearGradient1526"
       gradientUnits="userSpaceOnUse"
       gradientTransform="matrix(0.0625,0,0,0.0625,38.167361,8.526273)"
       x1="68.058258"
       y1="52.766853"
       x2="93.905167"
       y2="48.329338" />
    <linearGradient
       gradientTransform="matrix(0.0625,0,0,0.0625,42.25827,8.583091)"
       xlink:href="#linearGradient28"
       id="linearGradient30-9"
       x1="68.058258"
       y1="52.766853"
       x2="93.905167"
       y2="48.329338"
       gradientUnits="userSpaceOnUse" />
    <linearGradient
       xlink:href="#linearGradient28"
       id="linearGradient2120"
       gradientUnits="userSpaceOnUse"
       gradientTransform="matrix(-0.04785026,0,0,-0.05589801,61.027177,6.8616735)"
       x1="68.058258"
       y1="52.766853"
       x2="93.905167"
       y2="48.329338" />
    <linearGradient
       xlink:href="#linearGradient28"
       id="linearGradient2118"
       gradientUnits="userSpaceOnUse"
       gradientTransform="matrix(-0.04785026,0,0,-0.05589801,58.75445,6.8616735)"
       x1="68.058258"
       y1="52.766853"
       x2="93.905167"
       y2="48.329338" />
    <linearGradient
       xlink:href="#linearGradient28"
       id="linearGradient2116"
       gradientUnits="userSpaceOnUse"
       gradientTransform="matrix(-0.04785026,0,0,-0.05589801,56.405965,6.8616735)"
       x1="68.058258"
       y1="52.766853"
       x2="93.905167"
       y2="48.329338" />
    <linearGradient
       xlink:href="#linearGradient28"
       id="linearGradient2066"
       gradientUnits="userSpaceOnUse"
       gradientTransform="matrix(0.04785026,0,0,0.05589801,49.067214,8.5932485)"
       x1="68.058258"
       y1="52.766853"
       x2="93.905167"
       y2="48.329338" />
    <linearGradient
       xlink:href="#linearGradient28"
       id="linearGradient2048"
       gradientUnits="userSpaceOnUse"
       gradientTransform="matrix(0.04785026,0,0,0.05589801,51.339942,8.5932485)"
       x1="68.058258"
       y1="52.766853"
       x2="93.905167"
       y2="48.329338" />
    <linearGradient
       gradientTransform="matrix(0.04785026,0,0,0.05589801,53.688426,8.5932485)"
       xlink:href="#linearGradient28"
       id="linearGradient30-42"
       x1="68.058258"
       y1="52.766853"
       x2="93.905167"
       y2="48.329338"
       gradientUnits="userSpaceOnUse" />
    <linearGradient
       gradientTransform="matrix(-7.81785e-4,0.04887137,0.04887137,7.81785e-4,62.757095,3.8708137)"
       xlink:href="#linearGradient28"
       id="linearGradient30-7"
       x1="68.058258"
       y1="52.766853"
       x2="93.905167"
       y2="48.329338"
       gradientUnits="userSpaceOnUse" />
    <linearGradient
       xlink:href="#linearGradient28"
       id="linearGradient2120-2"
       gradientUnits="userSpaceOnUse"
       gradientTransform="matrix(-0.04785026,0,0,-0.05589801,71.02718,6.8616741)"
       x1="68.058258"
       y1="52.766853"
       x2="93.905167"
       y2="48.329338" />
    <linearGradient
       xlink:href="#linearGradient28"
       id="linearGradient2118-5"
       gradientUnits="userSpaceOnUse"
       gradientTransform="matrix(-0.04785026,0,0,-0.05589801,68.754453,6.8616741)"
       x1="68.058258"
       y1="52.766853"
       x2="93.905167"
       y2="48.329338" />
    <linearGradient
       xlink:href="#linearGradient28"
       id="linearGradient2116-4"
       gradientUnits="userSpaceOnUse"
       gradientTransform="matrix(-0.04785026,0,0,-0.05589801,66.405968,6.8616741)"
       x1="68.058258"
       y1="52.766853"
       x2="93.905167"
       y2="48.329338" />
    <linearGradient
       xlink:href="#linearGradient28"
       id="linearGradient2066-4"
       gradientUnits="userSpaceOnUse"
       gradientTransform="matrix(0.04785026,0,0,0.05589801,59.067217,8.593248)"
       x1="68.058258"
       y1="52.766853"
       x2="93.905167"
       y2="48.329338" />
    <linearGradient
       xlink:href="#linearGradient28"
       id="linearGradient2048-9"
       gradientUnits="userSpaceOnUse"
       gradientTransform="matrix(0.04785026,0,0,0.05589801,61.339944,8.593248)"
       x1="68.058258"
       y1="52.766853"
       x2="93.905167"
       y2="48.329338" />
    <linearGradient
       gradientTransform="matrix(0.04785026,0,0,0.05589801,63.688429,8.593248)"
       xlink:href="#linearGradient28"
       id="linearGradient30-93"
       x1="68.058258"
       y1="52.766853"
       x2="93.905167"
       y2="48.329338"
       gradientUnits="userSpaceOnUse" />
    <linearGradient
       xlink:href="#linearGradient28"
       id="linearGradient2337"
       gradientUnits="userSpaceOnUse"
       gradientTransform="matrix(-0.0417883,0,0,-0.04857198,75.583944,6.4314344)"
       x1="68.058258"
       y1="52.766853"
       x2="93.905167"
       y2="48.329338" />
    <linearGradient
       xlink:href="#linearGradient28"
       id="linearGradient2335"
       gradientUnits="userSpaceOnUse"
       gradientTransform="matrix(0.0417883,0,0,0.04857198,70.628178,2.0064654)"
       x1="68.058258"
       y1="52.766853"
       x2="93.905167"
       y2="48.329338" />
    <linearGradient
       xlink:href="#linearGradient28"
       id="linearGradient2333"
       gradientUnits="userSpaceOnUse"
       gradientTransform="matrix(-0.0417883,0,0,-0.04857198,79.296068,6.4974754)"
       x1="68.058258"
       y1="52.766853"
       x2="93.905167"
       y2="48.329338" />
    <linearGradient
       xlink:href="#linearGradient28"
       id="linearGradient2331"
       gradientUnits="userSpaceOnUse"
       gradientTransform="matrix(0.0417883,0,0,0.04857198,74.340299,2.0725074)"
       x1="68.058258"
       y1="52.766853"
       x2="93.905167"
       y2="48.329338" />
    <linearGradient
       xlink:href="#linearGradient28"
       id="linearGradient2265"
       gradientUnits="userSpaceOnUse"
       gradientTransform="matrix(-0.0417883,0,0,-0.04857198,75.640764,13.685222)"
       x1="68.058258"
       y1="52.766853"
       x2="93.905167"
       y2="48.329338" />
    <linearGradient
       xlink:href="#linearGradient28"
       id="linearGradient2263"
       gradientUnits="userSpaceOnUse"
       gradientTransform="matrix(0.0417883,0,0,0.04857198,70.684995,9.2602534)"
       x1="68.058258"
       y1="52.766853"
       x2="93.905167"
       y2="48.329338" />
    <linearGradient
       xlink:href="#linearGradient28"
       id="linearGradient2229"
       gradientUnits="userSpaceOnUse"
       gradientTransform="matrix(-0.0417883,0,0,-0.04857198,79.352887,13.751263)"
       x1="68.058258"
       y1="52.766853"
       x2="93.905167"
       y2="48.329338" />
    <linearGradient
       gradientTransform="matrix(0.0417883,0,0,0.04857198,74.397116,9.3262944)"
       xlink:href="#linearGradient28"
       id="linearGradient30-5"
       x1="68.058258"
       y1="52.766853"
       x2="93.905167"
       y2="48.329338"
       gradientUnits="userSpaceOnUse" />
    <linearGradient
       gradientTransform="matrix(0,0.0625,-0.070221,0,88.204672,3.0537241)"
       xlink:href="#linearGradient28"
       id="linearGradient30-7-7"
       x1="68.058258"
       y1="52.766853"
       x2="93.905167"
       y2="48.329338"
       gradientUnits="userSpaceOnUse" />
    <linearGradient
       xlink:href="#linearGradient28"
       id="linearGradient2337-9"
       gradientUnits="userSpaceOnUse"
       gradientTransform="matrix(-0.0417883,0,0,-0.04857198,85.583944,6.4314336)"
       x1="68.058258"
       y1="52.766853"
       x2="93.905167"
       y2="48.329338" />
    <linearGradient
       xlink:href="#linearGradient28"
       id="linearGradient2335-2"
       gradientUnits="userSpaceOnUse"
       gradientTransform="matrix(0.0417883,0,0,0.04857198,80.628177,2.0064647)"
       x1="68.058258"
       y1="52.766853"
       x2="93.905167"
       y2="48.329338" />
    <linearGradient
       xlink:href="#linearGradient28"
       id="linearGradient2333-8"
       gradientUnits="userSpaceOnUse"
       gradientTransform="matrix(-0.0417883,0,0,-0.04857198,89.296066,6.4974746)"
       x1="68.058258"
       y1="52.766853"
       x2="93.905167"
       y2="48.329338" />
    <linearGradient
       xlink:href="#linearGradient28"
       id="linearGradient2331-3"
       gradientUnits="userSpaceOnUse"
       gradientTransform="matrix(0.0417883,0,0,0.04857198,84.340298,2.0725065)"
       x1="68.058258"
       y1="52.766853"
       x2="93.905167"
       y2="48.329338" />
    <linearGradient
       xlink:href="#linearGradient28"
       id="linearGradient2265-0"
       gradientUnits="userSpaceOnUse"
       gradientTransform="matrix(-0.0417883,0,0,-0.04857198,85.640762,13.685222)"
       x1="68.058258"
       y1="52.766853"
       x2="93.905167"
       y2="48.329338" />
    <linearGradient
       xlink:href="#linearGradient28"
       id="linearGradient2263-1"
       gradientUnits="userSpaceOnUse"
       gradientTransform="matrix(0.0417883,0,0,0.04857198,80.684995,9.2602526)"
       x1="68.058258"
       y1="52.766853"
       x2="93.905167"
       y2="48.329338" />
    <linearGradient
       xlink:href="#linearGradient28"
       id="linearGradient2229-7"
       gradientUnits="userSpaceOnUse"
       gradientTransform="matrix(-0.0417883,0,0,-0.04857198,89.352884,13.751263)"
       x1="68.058258"
       y1="52.766853"
       x2="93.905167"
       y2="48.329338" />
    <linearGradient
       gradientTransform="matrix(0.0417883,0,0,0.04857198,84.397116,9.3262946)"
       xlink:href="#linearGradient28"
       id="linearGradient30-8"
       x1="68.058258"
       y1="52.766853"
       x2="93.905167"
       y2="48.329338"
       gradientUnits="userSpaceOnUse" />
    <linearGradient
       gradientUnits="userSpaceOnUse"
       y2="48.329338"
       x2="93.905167"
       y1="52.766853"
       x1="68.058258"
       id="linearGradient30-37"
       xlink:href="#linearGradient28"
       gradientTransform="matrix(-0.02567333,-0.01104562,0.01104562,-0.02567333,8.8419521,4.8327149)" />
    <linearGradient
       gradientUnits="userSpaceOnUse"
       y2="71.008263"
       x2="88.849586"
       y1="58.644627"
       x1="82.105782"
       id="linearGradient1063"
       xlink:href="#linearGradient882"
       gradientTransform="matrix(0.0625,0,0,0.0625,-0.00565291,-1.2353516e-7)" />
    <linearGradient
       id="linearGradient882">
      <stop
         style="stop-color:#d16208;stop-opacity:1"
         offset="0"
         id="stop878" />
      <stop
         style="stop-color:#d16250;stop-opacity:0;"
         offset="1"
         id="stop880" />
    </linearGradient>
    <linearGradient
       gradientUnits="userSpaceOnUse"
       y2="68.472336"
       x2="56.128345"
       y1="63.697319"
       x1="61.166279"
       id="linearGradient876"
       xlink:href="#linearGradient882"
       gradientTransform="matrix(0.0625,0,0,0.0625,-0.00565291,-1.2353516e-7)" />
    <linearGradient
       gradientUnits="userSpaceOnUse"
       y2="48.329338"
       x2="93.905167"
       y1="52.766853"
       x1="68.058258"
       id="linearGradient30-0"
       xlink:href="#linearGradient28"
       gradientTransform="matrix(-0.02881053,-0.01239536,0.01239536,-0.02881053,108.70072,5.4503207)" />
    <linearGradient
       gradientUnits="userSpaceOnUse"
       y2="48.329338"
       x2="93.905167"
       y1="52.766853"
       x1="68.058258"
       id="linearGradient30-80"
       xlink:href="#linearGradient28"
       gradientTransform="matrix(-0.02849684,-0.0122604,0.0122604,-0.02849684,118.86314,5.4302307)" />
    <linearGradient
       xlink:href="#linearGradient846"
       id="linearGradient848"
       x1="72.37397"
       y1="53.171356"
       x2="72.19931"
       y2="45.564011"
       gradientUnits="userSpaceOnUse"
       gradientTransform="matrix(0.0625,0,0,0.0625,110,-2.6464844e-7)" />
    <linearGradient
       id="linearGradient846">
      <stop
         style="stop-color:#423abf;stop-opacity:1;"
         offset="0"
         id="stop842" />
      <stop
         style="stop-color:#423abf;stop-opacity:0;"
         offset="1"
         id="stop844" />
    </linearGradient>
  </defs>
  <flowRoot
     style="font-style:normal;font-variant:normal;font-weight:bold;font-stretch:normal;font-size:1px;line-height:1.25;font-family:'DejaVu Sans';-inkscape-font-specification:'DejaVu Sans Bold';letter-spacing:0px;word-spacing:0px;fill:#000000;fill-opacity:1;stroke:none;stroke-width:0.0625"
     id="flowRoot100"
     xml:space="preserve"><flowRegion
       style="stroke-width:0.0625"
       id="flowRegion102"><rect
         style="stroke-width:0.00390625"
         y="0.73863637"
         x="0.66287881"
         height="1.3636364"
         width="1.5151515"
         id="rect104" /></flowRegion><flowPara
       style="stroke-width:0.0625"
       id="flowPara106" /></flowRoot>  <rect
     style="fill:#ffffff;fill-opacity:1;stroke:#1a1a1a;stroke-width:0.0625;stroke-opacity:1"
     id="clubs10"
     width="10"
     height="15.625"
     x="-0.0056509147"
     y="0" />
  <rect
     style="fill:none;fill-opacity:1;stroke:#1a1a1a;stroke-width:0.0625;stroke-opacity:1"
     id="rect108-5"
     width="7.2537889"
     height="12.973484"
     x="1.3390452"
     y="1.306818" />
  <g
     id="flowRoot915-2"
     style="font-style:normal;font-variant:normal;font-weight:bold;font-stretch:normal;font-size:16px;line-height:1.25;font-family:'DejaVu Sans';-inkscape-font-specification:'DejaVu Sans Bold';text-align:start;letter-spacing:0px;word-spacing:0px;text-anchor:start;fill:#000000;fill-opacity:1;stroke:none"
     transform="matrix(0.0625,0,0,0.0625,0.18374109,-1.2353516e-7)"
     aria-label="10">
    <path
       id="path6441"
       d="M 4.90625,16.623047 H 7.5625 V 9.0839844 l -2.7265625,0.5625 v -2.046875 l 2.7109375,-0.5625 h 2.859375 v 9.5859376 h 2.65625 v 2.078125 H 4.90625 Z"
       inkscape:connector-curvature="0" />
    <path
       id="path6443"
       d="m 21.523437,12.857422 q 0,-2.1875 -0.414062,-3.0781251 -0.40625,-0.8984375 -1.375,-0.8984375 -0.96875,0 -1.382813,0.8984375 -0.414062,0.8906251 -0.414062,3.0781251 0,2.210937 0.414062,3.117187 0.414063,0.90625 1.382813,0.90625 0.960937,0 1.375,-0.90625 0.414062,-0.90625 0.414062,-3.117187 z m 3.007813,0.02344 q 0,2.898438 -1.25,4.476563 -1.25,1.570312 -3.546875,1.570312 -2.304688,0 -3.554688,-1.570312 -1.249999,-1.578125 -1.249999,-4.476563 0,-2.9062496 1.249999,-4.4765621 1.25,-1.578125 3.554688,-1.578125 2.296875,0 3.546875,1.578125 1.25,1.5703125 1.25,4.4765621 z"
       inkscape:connector-curvature="0" />
  </g>
  <path
     id="path927"
     d="m 3.7301601,3.6156339 -0.26405,-0.190703 -0.05868,-0.141804 -0.01467,-0.127135 0.02445,-0.102686 0.06357,-0.107576 0.112465,-0.09291 0.141805,-0.0978 0.117355,-0.07824 0.0978,-0.02445 0.122245,-0.01956 0.132025,-0.02445 0.05379,-0.0098 0.0049,-0.03912 0.02445,-0.08313 0.02934,-0.06846 0.07335,-0.0489 0.122245,-0.0098 0.136915,0.0098 0.176033,0.01467 0.117355,0.02934 0.07824,0.06357 0.112466,0.09291 0.03912,0.07824 0.02934,0.09291 0.02445,0.09291 -0.0098,0.08313 0.01467,0.06357 0.0978,0.01956 0.117356,0.06357 0.08313,0.06357 0.08802,0.07335 0.07335,0.06357 0.03912,0.03423 0.05868,0.07824 v 0.06846 l -0.01467,0.05868 -0.03912,0.07335 -0.07824,0.05379 -0.06357,0.03423 -0.117355,0.01956 -0.112465,-0.0049 -0.136915,-0.151584 -0.09291,-0.107575 -0.07824,-0.0978 -0.05379,-0.0098 -0.07335,-0.04401 -0.02445,-0.04401 -0.08313,-0.08313 -0.112466,-0.02934 h -0.08313 l -0.127135,-0.0049 h -0.156474 l -0.08313,0.02934 -0.122245,0.05379 -0.09291,0.03912 -0.0978,0.06846 v 0.07824 l -0.02445,0.05379 -0.05868,0.03912 -0.05379,0.0489 z"
     style="fill:#008000;fill-opacity:0.61780108;stroke:#000000;stroke-width:0.0625;stroke-opacity:0.22110554"
     inkscape:connector-curvature="0" />
  <path
     id="path929"
     d="m 4.5243761,3.0850829 c -0.06153,-0.002 -0.12293,7.94e-4 -0.182983,0.01221 -0.105563,0.02006 -0.204033,0.07081 -0.29834,0.122315 -0.03492,0.01907 -0.0794,0.03307 -0.09778,0.06836 -0.01204,0.02313 0.0055,0.05276 0,0.07825 -0.0042,0.01925 -0.02441,0.05383 -0.02441,0.05383 l 0.0098,0.176025 0.01953,0.185792 0.04407,0.136962 0.03418,0.136841 0.04407,0.0636 0.04883,0.127197 0.04407,0.03906 0.08801,0.04895 0.0049,0.127075 0.02441,0.0343 0.08801,0.08313 0.08801,0.03906 h 0.07336 l 0.176026,-0.04395 0.07336,-0.02454 0.07336,-0.04883 0.05383,-0.0343 0.03906,-0.102661 -0.0293,-0.08801 0.0049,-0.112427 -0.01953,-0.141845 0.05371,-0.03906 0.0636,-0.0343 0.05383,-0.0636 -0.005,-0.09778 -0.03418,-0.08801 -0.0293,-0.07336 -0.03919,-0.03906 -0.0049,-0.0929 c 0,0 -0.0047,-0.07189 -0.0098,-0.107544 -0.006,-0.04273 -0.02441,-0.127197 -0.02441,-0.127197 0,0 -0.06056,-0.0975 -0.107544,-0.127075 -0.03279,-0.02064 -0.07415,-0.02423 -0.112549,-0.02942 -0.06058,-0.0082 -0.122189,-0.01506 -0.183715,-0.01709 z"
     style="fill:#ffaaaa;fill-opacity:0.61780108;stroke:#000000;stroke-width:0.0625;stroke-opacity:0.22110554"
     inkscape:connector-curvature="0" />
  <path
     id="path934"
     d="m 4.0773361,3.3271349 h 0.08802 l 0.06846,0.0098 0.05379,0.03423"
     style="fill:#ffaaaa;fill-opacity:0.61780108;stroke:#000000;stroke-width:0.0625;stroke-opacity:0.22110554"
     inkscape:connector-curvature="0" />
  <path
     id="path936"
     d="m 4.5223091,3.3760329 0.04401,-0.03423 h 0.06357 0.05379 0.03423"
     style="fill:#ffaaaa;fill-opacity:0.61780108;stroke:#000000;stroke-width:0.0625;stroke-opacity:0.22110554"
     inkscape:connector-curvature="0" />
  <path
     id="path938"
     d="m 4.2827081,3.4689399 -0.185813,-0.0049"
     style="fill:#ffaaaa;fill-opacity:0.61780108;stroke:#000000;stroke-width:0.0625;stroke-opacity:0.22110554"
     inkscape:connector-curvature="0" />
  <path
     id="path940"
     d="m 4.5320881,3.4689399 0.0489,0.03912 0.06846,0.0049 h 0.05868 l 0.02934,-0.01956 -0.06846,-0.03423"
     style="fill:#ffaaaa;fill-opacity:0.61780108;stroke:#000000;stroke-width:0.0625;stroke-opacity:0.22110554"
     inkscape:connector-curvature="0" />
  <path
     id="path942"
     d="m 4.3413861,3.4249309 -0.01956,0.08313 -0.04401,0.06357 -0.06357,0.06846 -0.03423,0.03423 -0.0098,0.03912 0.03423,0.06846 0.04401,0.0049 h 0.07824 l 0.06357,-0.0049 0.02445,-0.05868"
     style="fill:none;fill-opacity:0.61780108;stroke:#000000;stroke-width:0.0625;stroke-opacity:0.22110554"
     inkscape:connector-curvature="0" />
  <path
     id="path944"
     d="m 4.1702421,3.9774789 0.08313,-0.04401 h 0.06357 l 0.08313,0.0049 0.03912,0.02934 -0.05379,0.02445 -0.09291,0.0049 z"
     style="fill:#ffaaaa;fill-opacity:0.61780108;stroke:#000000;stroke-width:0.0625;stroke-opacity:0.22110554"
     inkscape:connector-curvature="0" />
  <path
     id="path949"
     d="m 4.2533801,4.3344729 -0.264726,0.01539 -0.142654,0.01646 -0.192034,0.02743 -0.186547,0.09327 -0.137167,0.07681 -0.02743,0.02195 -0.378581,0.241414 -0.252388,0.09876 -0.14814,0.120707 -0.11522,0.208494 -0.09327,0.142654 -0.170087,0.208494 -0.104247,0.142654 -0.04389,0.07133 -0.01646,0.07681 -0.06035,0.07133 -0.109734,0.104247 -0.02195,0.104247 -0.06035,0.153627 -0.04389,0.13168 -0.03292,0.197521 -0.03292,0.362121 -0.02195,0.307254 v 0.312741 l -0.01097,0.186547 0.06035,0.164601 0.08779,0.181061 0.126194,0.137167 0.109734,0.14814 0.11522,0.142654 0.07681,0.09876 0.06035,0.07681 0.04389,0.03841 0.01646,-0.510262 0.07681,-0.543182 0.04938,-0.159114 -0.0055,-0.170087 -0.01097,-0.246901 0.01097,-0.1646 0.04938,-0.109734 0.03292,-0.137167 0.05487,-0.126194 0.142654,-0.170087 0.06584,-0.06584 h 0.07133 l 0.1646,0.05487 0.08779,-0.159113 0.01646,-0.203007 v -0.170088 -0.18106 l -0.04938,-0.09327 -0.03292,-0.137167 0.03841,-0.07681 0.07133,-0.03292 0.03292,-0.01097 0.137167,-0.06035 0.159114,-0.06584 0.109733,-0.06035 0.06035,-0.05487 0.06035,-0.06035 0.01097,-0.120707 0.01646,-0.120707 0.09327,-0.137167 0.04389,-0.104247 0.126194,-0.06035 0.137167,-0.0055 0.06035,-0.01097 h 0.04938 l 0.04465,-0.08035 z"
     style="fill:#ff0000;fill-opacity:0.61780108;stroke:#000000;stroke-width:0.0625;stroke-opacity:0.22110554"
     inkscape:connector-curvature="0" />
  <path
     id="path957"
     d="m 2.2658351,8.8160239 0.422474,0.411501 0.01097,-0.323715 0.03841,-0.274333 -0.0055,-0.219468 -0.09876,-0.142654 0.09876,-0.07133 0.01646,-0.307255 0.04389,-0.213981 -0.04389,-0.213981 0.09876,-0.142653 0.05487,-0.164601 -0.01646,-0.192034 0.05487,-0.120707 0.08779,-0.109733 0.06035,-0.03841 0.01646,-0.109734 -0.120707,-0.115221 -0.1646,-0.05487 h -0.07133 l -0.208494,0.235927 -0.05487,0.126194 -0.0823,0.246901 -0.01097,0.1646 0.01646,0.416988 -0.04938,0.159114 -0.07681,0.543182 -0.01646,0.510262"
     style="fill:#d4aa00;fill-opacity:0.61780108;stroke:#000000;stroke-width:0.0625;stroke-opacity:0.22110554"
     inkscape:connector-curvature="0" />
  <path
     id="path959"
     d="m 2.6883091,9.2275249 0.11568,0.115634 0.159412,0.09465 0.109596,0.07971 0.05978,0.02491 0.169375,-0.104614 0.05978,-0.164394 0.06974,-0.129522 0.0548,-0.154432 0.04982,-0.199265 v -0.144467 l -0.02491,-0.219192 0.01,-0.229155 -0.02989,-0.184321 0.03985,-0.07472 -0.02989,-0.154431 -0.02989,-0.159412 v -0.169376 -0.139485 l -0.01,-0.09465 -0.01993,-0.03487 -0.119559,0.02491 -0.09963,0.06974 -0.144467,0.005 -0.129523,0.02989 -0.199793,0.145179 0.04389,0.21398 -0.04389,0.213982 -0.01646,0.307254 -0.09876,0.07133 0.09876,0.142654 0.0055,0.219467 -0.03841,0.274334 -0.01097,0.323714"
     style="fill:#499ca7;fill-opacity:1;stroke:#000000;stroke-width:0.0625;stroke-opacity:0.22110554"
     inkscape:connector-curvature="0" />
  <path
     id="path963"
     d="m 3.4416381,7.1861109 0.02989,-0.07472 0.01494,-0.08469 -0.005,-0.104615 v -0.08469 -0.05978 l -0.01494,-0.0548 h -0.04484 -0.129522 l -0.03985,0.02491 -0.08469,0.03985 -0.07881,-0.0949 -0.06035,0.03841 -0.08779,0.109733 -0.05487,0.120707 0.01646,0.192034 -0.05487,0.164601 -0.09876,0.142653 0.199793,-0.145179 0.129523,-0.02989 0.144467,-0.005 0.09963,-0.06974 z"
     style="fill:#589866;fill-opacity:1;stroke:#000000;stroke-width:0.0625;stroke-opacity:0.22110554"
     inkscape:connector-curvature="0" />
  <path
     id="path965"
     d="m 3.5263261,7.0615699 0.06974,0.04483 h 0.149449 0.119559 l 0.07971,-0.03985 0.134504,-0.01993 0.104615,-0.01 0.03487,-0.01993 0.06476,-0.09963 -0.01494,-0.0548 v -0.0548 l -0.01494,-0.06476 -0.03487,-0.04484 -0.03487,-0.05978 -0.0548,-0.03487 h -0.08967 -0.144467 l -0.03985,0.03487 -0.07971,0.0548 -0.08469,0.02989 -0.114578,0.02491 -0.03985,0.02491 -0.0548,0.005 z"
     style="fill:#f9beb5;fill-opacity:1;stroke:#000000;stroke-width:0.0625;stroke-opacity:0.22110554"
     inkscape:connector-curvature="0" />
  <path
     id="path967"
     d="m 5.5572491,4.6245409 0.137282,0.08356 0.14325,0.02388 0.214877,0.02984 0.08953,0.06566 0.167126,0.02984 0.06566,0.131314 0.179063,0.268595 0.08953,0.07163 0.107438,0.131313 0.14922,0.179063 0.149219,0.14922 0.0776,0.03581 0.101469,0.02984 0.125344,0.137282 0.07759,0.14922 0.006,0.155188 0.0955,0.220845 0.10147,0.226813 0.08953,0.202938 0.05372,0.137282 0.10147,0.179064 0.07162,0.107438 0.006,0.08953 v 0.411846 l -0.04775,0.214876 -0.08953,0.08953 -0.119376,0.131313 -0.07162,0.07163 -0.08953,0.08356 -0.04775,-0.04178 v -0.143251 l 0.01194,-0.208907 v -0.149219 l -0.03581,-0.08953 -0.06566,-0.10147 -0.02388,-0.07759 0.06566,-0.131313 -0.07162,-0.179064 -0.07163,-0.167126 -0.04775,-0.155188 -0.01791,-0.131313 v -0.143251 -0.214876 l -0.03581,-0.155188 -0.113407,-0.185032 -0.0955,-0.143251 -0.179064,-0.125344 -0.125344,-0.07163 -0.137282,-0.08953 -0.08356,0.03581 -0.07163,-0.202939 -0.06566,-0.161157 -0.07759,-0.185032 -0.03581,-0.161157 -0.05372,-0.143251 -0.08953,-0.08356 -0.328283,-0.0955 z"
     style="fill:#f5231e;fill-opacity:1;stroke:#000000;stroke-width:0.0625;stroke-opacity:0.22110554"
     inkscape:connector-curvature="0" />
  <path
     id="path969"
     d="m 7.4911331,8.4206839 -0.02984,0.08953 -0.02984,0.10147 -0.07759,0.04178 -0.07162,0.03581 -0.137282,0.101469 -0.06566,-0.01791 0.04775,-0.155188 0.01194,-0.131314 -0.01791,-0.191 v -0.226805 l -0.04775,-0.226814 -0.07759,-0.131313 -0.07759,-0.155188 -0.03581,-0.185032 -0.05969,-0.155189 -0.01194,-0.14325 -0.02388,-0.143251 -0.05372,-0.113407 v -0.256657 -0.202938 l -0.04775,-0.107438 -0.107438,-0.173095 -0.08356,-0.119375 -0.04775,-0.07759 0.01791,-0.08356 0.08356,-0.03581 0.262626,0.161157 0.179064,0.125344 0.208907,0.328283 0.03581,0.155188 v 0.358127 l 0.01791,0.131313 0.04775,0.155188 0.143251,0.34619 -0.06566,0.131313 0.02388,0.07759 0.06566,0.10147 0.03581,0.08953 z"
     style="fill:#dfb523;fill-opacity:1;stroke:#000000;stroke-width:0.0625;stroke-opacity:0.22110554"
     inkscape:connector-curvature="0" />
  <path
     id="path971"
     d="m 7.0792871,8.7728419 -0.107438,0.08356 -0.107438,0.01791 -0.191001,0.01791 -0.143251,-0.101469 -0.137281,-0.173094 -0.08953,-0.155189 -0.113407,-0.173094 -0.08356,-0.214876 -0.06566,-0.214876 -0.02388,-0.268595 v -0.179064 l -0.01194,-0.185032 v -0.167126 -0.155188 -0.191001 l -0.01791,-0.107437 0.03581,-0.04178 0.137282,0.05969 0.08356,0.125344 0.161157,0.0955 0.125344,0.05372 0.107439,0.02388 0.05969,-0.04775 0.03581,-0.05969 0.05372,0.113407 0.02388,0.143251 0.01194,0.14325 0.05969,0.155189 0.03581,0.185032 0.07759,0.155188 0.07759,0.131313 0.04775,0.226814 v 0.226814 l 0.01791,0.191 -0.01194,0.131314 z"
     style="fill:#499ca7;fill-opacity:1;stroke:#000000;stroke-width:0.0625;stroke-opacity:0.22110554"
     inkscape:connector-curvature="0" />
  <path
     id="path973"
     d="m 6.4465971,5.8779849 -0.107438,0.05372 -0.14922,-0.02388 h -0.04775 l -0.107438,-0.04178 -0.05372,0.04178 -0.04178,0.131313 0.006,0.119375 -0.02984,0.06566 -0.03581,0.03581 -0.05372,0.04775 -0.01194,0.107438 0.113407,0.06566 0.0955,0.08356 0.137282,0.05969 0.08356,0.125344 0.161157,0.0955 0.125344,0.05372 0.107439,0.02388 0.05969,-0.04775 0.03581,-0.05969 v -0.459595 l -0.04775,-0.107438 z"
     style="fill:#589866;fill-opacity:1;stroke:#000000;stroke-width:0.0625;stroke-opacity:0.22110554"
     inkscape:connector-curvature="0" />
  <path
     id="path975"
     d="m 5.8258441,6.3077359 -0.113407,0.02985 -0.173094,-0.02388 h -0.161158 l -0.107438,-0.006 -0.05372,-0.05969 -0.006,-0.05969 -0.006,-0.0955 v -0.10147 l -0.01791,-0.07163 -0.02388,-0.04178 -0.006,-0.04178 0.05372,-0.04775 0.04775,-0.02984 0.05969,-0.006 0.0955,0.03581 0.155188,0.02388 0.119376,0.01194 0.08953,0.04178 0.01194,0.02984 0.131313,0.04775 0.01791,0.0955 0.006,0.119375 -0.02984,0.06566 z"
     style="fill:#f9beb5;fill-opacity:1;stroke:#000000;stroke-width:0.0625;stroke-opacity:0.22110554"
     inkscape:connector-curvature="0" />
  <path
     id="path979"
     d="m 4.2582631,4.4615479 -0.04465,0.08035 h -0.04938 l -0.06035,0.01097 -0.137167,0.0055 -0.126194,0.06035 -0.04389,0.104247 -0.04793,0.0734 0.09722,0.05792 0.103426,0.01034 0.01034,0.06619 0.0083,0.09308 0.04758,0.04344 0.08067,0.02069 0.06826,-0.02482 0.05585,-0.02069 0.03103,-0.03103 0.04551,-0.03103 h 0.04137 l 0.0393,0.01655 0.02896,0.0724 0.06412,0.05171 0.04551,0.04758 0.06826,0.02896 0.02069,0.0331 0.01862,0.02275 0.03103,0.02896 0.06619,0.0083 0.01655,-0.04137 0.02689,-0.01862 0.03516,-0.01241 0.0083,-0.03103 0.01241,-0.04137 0.02275,-0.02896 0.01241,-0.03516 0.0062,-0.03103 0.0083,-0.03516 0.0083,-0.01241 0.01655,-0.02069 0.04137,0.01655 0.03723,0.02068 0.04758,0.01655 0.05378,0.0021 h 0.07033 l 0.0331,-0.01448 0.02275,-0.03723 0.01241,-0.03103 v -0.0393 l -0.01655,-0.01862 -0.0331,-0.01862 -0.0062,-0.04137 v -0.02275 l 0.02275,-0.02069 0.02689,-0.01241 0.04964,-0.0041 0.03723,-0.02069 0.02689,-0.02896 0.01034,-0.02896 0.01241,-0.0331 -0.04964,-0.02689 -0.02069,-0.03516 -0.0393,-0.01448 -0.05171,-0.0331 -0.03103,-0.04137 -0.06826,-0.03723 -0.04758,-0.04137 -0.08759,-0.07267 -0.03906,0.102661 -0.127198,0.08313 -0.249389,0.06848 h -0.07336 l -0.08801,-0.03906 -0.08801,-0.08313 z"
     style="fill:#ff5555;fill-opacity:1;stroke:#000000;stroke-width:0.0625;stroke-opacity:0.22110554"
     inkscape:connector-curvature="0" />
  <path
     id="path981"
     d="m 3.7486911,4.7963569 -0.04535,0.06377 0.0288,0.09137 0.03723,0.05171 0.05171,0.0331 0.0393,0.04758 0.01034,0.03516 0.01448,0.03516 0.04758,0.04137 0.04758,0.05999 0.101356,0.0062 0.07033,-0.01862 0.05792,-0.01862 0.02482,-0.01448 h 0.0724 l 0.06826,0.0021 0.04137,0.02275 0.04344,0.05171 0.04758,0.03723 0.06826,0.03516 0.04344,0.01862 0.04551,-0.0083 0.05171,-0.01034 0.06619,0.0021 0.02896,-0.02069 0.04758,-0.02896 0.02689,-0.03516 0.02275,-0.04137 0.03103,-0.02482 0.03103,-0.03103 0.0041,-0.02482 0.04344,-0.0083 0.06412,0.0021 h 0.04137 l 0.04551,0.0062 h 0.05171 l 0.05378,-0.0021 h 0.03103 l 0.0393,-0.01034 v -0.03103 l 0.01241,-0.04344 0.0083,-0.0393 0.02689,-0.02275 0.01862,-0.01034 0.05171,-0.01241 0.03723,-0.02275 0.04137,-0.02482 0.03103,-0.0331 0.02275,-0.05792 0.01241,-0.06826 0.0062,-0.06826 -0.05724,-0.08287 -0.05239,0.0043 h -0.07447 l -0.04344,0.02275 -0.04344,0.01448 -0.02275,0.06206 -0.02689,0.02896 -0.03723,0.02069 -0.04964,0.0041 -0.04964,0.0331 v 0.02275 l 0.0062,0.04137 0.0331,0.01862 0.01655,0.05792 -0.01241,0.03103 -0.05585,0.05171 -0.124111,-0.0021 -0.04758,-0.01655 -0.0786,-0.03723 -0.02482,0.0331 -0.01448,0.06619 -0.01241,0.03516 -0.02275,0.02896 -0.02069,0.0724 -0.03516,0.01241 -0.02689,0.01862 -0.01655,0.04137 -0.06619,-0.0083 -0.04964,-0.05171 -0.02069,-0.0331 -0.06826,-0.02896 -0.04551,-0.04758 -0.06412,-0.05171 -0.02896,-0.0724 -0.0393,-0.01655 h -0.04137 l -0.04551,0.03103 -0.03103,0.03103 -0.12411,0.04551 -0.08067,-0.02069 -0.04758,-0.04344 -0.0083,-0.09308 -0.01034,-0.06619 -0.103425,-0.01034 -0.09722,-0.05792"
     style="fill:#d4a657;fill-opacity:1;stroke:#000000;stroke-width:0.0625;stroke-opacity:0.22110554"
     inkscape:connector-curvature="0" />
  <path
     id="path983"
     d="m 4.9477161,4.3637699 0.135163,0.114037 0.06826,0.03723 0.03103,0.04137 0.05171,0.0331 0.05999,0.04964 0.02482,0.01448 0.05378,-0.02896 0.05378,-0.01862 0.130998,0.01849 0.137282,0.08356 -0.127622,-0.106187 -0.04137,-0.0083 -0.06205,-0.01241 -0.07447,-0.03516 -0.08688,-0.05792 -0.08274,-0.03723 -0.0786,-0.03516 -0.0786,-0.01862 z"
     style="fill:#d6201a;fill-opacity:1;stroke:#000000;stroke-width:0.0625;stroke-opacity:0.22110554"
     inkscape:connector-curvature="0" />
  <path
     id="path985"
     d="m 3.7033461,4.8601239 -0.02743,0.241414 -0.120708,0.115221 -0.406014,0.186547 -0.104247,0.04389 -0.03841,0.07681 0.03292,0.137167 0.04938,0.09327 -0.01646,0.554155 -0.08779,0.159113 0.120707,0.115221 -0.01646,0.109734 0.07881,0.0949 0.124541,-0.06476 h 0.174357 l 0.01494,0.0548 0.0548,-0.005 0.03985,-0.02491 0.114578,-0.02491 0.08469,-0.02989 0.119559,-0.08967 h 0.234137 l 0.0548,0.03487 0.06974,0.104615 0.01494,0.06476 v 0.0548 l 0.01494,0.0548 -0.06476,0.09963 -0.127089,0.04187 -0.146901,0.0079 v 0 l -0.07971,0.03985 -0.162006,0.01134 -0.107002,-0.01134 -0.06974,-0.04483 -0.0548,0.04982 -0.02989,0.07472 0.05023,0.0668 0.114049,0.0084 h 0.143618 l 0.101378,0.0169 0.09293,0.01267 h 0.06336 0.105601 l 0.105602,0.0084 0.09293,0.0084 0.13517,0.05069 0.07603,0.0042 0.185859,0.0084 h 0.06336 0.08448 0.07603 l 0.09293,-0.01267 0.08448,-0.0042 0.06758,-0.0169 0.06336,-0.02534 0.109826,-0.01267 0.06759,-0.04224 0.135169,-0.04646 0.05491,-0.02534 0.118274,-0.01267 0.07181,-0.0042 0.06336,-0.02957 0.07181,-0.03379 0.05914,-0.04224 -0.0055,-0.456657 0.03581,-0.04178 -0.0955,-0.08356 -0.113407,-0.06566 0.01194,-0.107438 -0.113406,0.02984 -0.173095,-0.02388 -0.268595,-0.006 -0.05372,-0.05969 -0.01194,-0.256657 -0.04775,-0.155189 0.101469,-0.07759 0.05969,-0.006 0.0955,0.03581 0.274564,0.03581 0.08953,0.04178 0.01194,0.02984 0.131314,0.04775 0.01791,0.0955 0.04178,-0.131313 0.05372,-0.04178 0.107439,0.04178 0.196969,0.02388 0.107438,-0.05372 0.01791,-0.08356 -0.214876,-0.549128 -0.08953,-0.304408 -0.08953,-0.08356 -0.328283,-0.0955 -0.127795,-0.05441 -0.0062,0.06826 -0.03516,0.126179 -0.03103,0.0331 -0.130316,0.05999 -0.05378,0.0724 -0.01241,0.07447 -0.0393,0.01034 -0.182029,-0.0041 -0.148932,0.0062 -0.06619,0.08067 -0.04964,0.07653 -0.04757,0.02896 -0.09515,0.01862 -0.09722,0.01862 -0.04344,-0.01862 -0.06826,-0.03516 -0.09101,-0.08895 -0.04137,-0.02275 -0.09791,0.0048 -0.06757,0.0076 -0.128248,0.03723 -0.101357,-0.0062 -0.09515,-0.101357 -0.06412,-0.117905 -0.05171,-0.0331 z"
     style="fill:#589866;fill-opacity:1;stroke:#000000;stroke-width:0.0625;stroke-opacity:0.22110554"
     inkscape:connector-curvature="0" />
  <path
     id="path1037"
     d="m 3.4918681,7.2529149 0.09096,0.05796 0.118007,0.0751 0.155555,0.06169 0.144827,0.0295 0.155555,0.04291 0.158236,0.05632 0.09387,0.01609 0.112643,0.03755 0.123371,0.008 h 0.08314 l 0.120689,-0.01073 0.101915,0.01609 0.09655,-0.0027 h 0.09119 l 0.07241,-0.02146 0.06705,-0.02682 0.150191,-0.01877 0.02414,-0.04828 0.07241,-0.04023 0.101915,-0.0295 0.08851,-0.05632 0.08582,-0.04291 0.06437,-0.04828 0.06169,-0.04023 0.03755,-0.03487 0.01341,-0.01073 0.01467,-0.159534 -0.194307,0.105601 -0.190083,0.0169 -0.190082,0.07181 -0.06759,0.04224 -0.109826,0.01267 -0.130946,0.04224 -0.08448,0.0042 -0.09293,0.01267 -0.485767,-0.01267 -0.13517,-0.05069 -0.198531,-0.0169 h -0.168962 l -0.141087,-0.01761 -0.05322,-0.01196 h -0.143618 l -0.114049,-0.0084"
     style="fill:#b59719;fill-opacity:1;stroke:#000000;stroke-width:0.0625;stroke-opacity:0.22110554"
     inkscape:connector-curvature="0" />
  <path
     id="path1039"
     d="m 3.9208611,3.4200439 -0.112464,0.08801 -0.07824,0.107576 0.0084,0.102341 -0.03512,0.04215 0.007,0.08781 -0.04566,0.06322 -0.0843,0.04917 -0.09484,0.07025 -0.0562,0.06674 -0.03864,0.04566 -0.01054,0.06322 0.01405,0.101859 0.05269,0.06674 0.04917,0.007 0.157759,0.01194 0.599414,-0.05928 -0.08801,-0.04895 -0.04407,-0.03906 -0.04883,-0.127197 -0.04407,-0.0636 -0.03418,-0.136841 -0.02384,-0.08845 -0.02022,-0.04851 -0.01841,-0.109547 z"
     style="fill:url(#linearGradient876);fill-opacity:1;stroke:#000000;stroke-width:0.0625;stroke-opacity:0.22110554"
     inkscape:connector-curvature="0" />
  <path
     id="path1041"
     d="m 5.5669091,4.6019169 0.0543,-0.04799 0.07025,-0.04917 0.04566,-0.05269 0.01054,-0.108884 -0.01756,-0.122934 -0.08781,-0.07376 -0.09835,-0.04215 -0.01054,-0.05971 -0.03864,-0.03512 -0.02107,-0.05971 -0.03161,-0.07727 -0.03161,-0.02107 -0.03161,-0.04566 -0.0281,-0.05971 0.0126,-0.07665 -0.308058,-0.356955 -0.127135,-0.05379 0.03908,0.327626 0.03919,0.03906 0.06348,0.161377 0.005,0.09778 -0.05383,0.0636 -0.11731,0.07336 0.01953,0.141845 -0.0049,0.112427 0.0293,0.08801 0.193081,0.05198 0.161343,0.0724 0.08688,0.05792 0.07447,0.03516 z"
     style="fill:url(#linearGradient1063);fill-opacity:1;stroke:#000000;stroke-width:0.0625;stroke-opacity:0.22110554"
     inkscape:connector-curvature="0" />
  <path
     id="path1073"
     d="m 3.4918681,7.2529159 0.0085,0.156933 -0.003,0.193939 0.01515,0.06667 0.01878,0.267884 -0.03985,0.07472 0.02989,0.184321 0.02755,0.05186 0.06667,0.03636 0.133333,0.04545 0.118182,0.03636 0.07879,0.04848 0.08485,0.003 h 0.106061 l 0.03939,-0.02121 0.07273,-0.0303 0.10303,-0.01818 h 0.121212 l 0.1,0.0303 0.06364,0.06667 0.109091,0.03939 0.07576,0.03636 0.09697,0.03636 0.109091,-0.003 0.07879,-0.05151 0.130303,-0.08182 0.04545,-0.03939 0.09091,-0.0061 h 0.09394 l 0.106061,0.01818 0.08182,0.01818 0.09697,0.0091 0.05758,0.01818 0.0697,0.03636 0.07576,-0.003 0.05152,-0.03636 0.03636,-0.06364 0.03333,-0.04848 0.06061,-0.02727 0.05317,-0.0084 -0.149219,-0.429753 -0.02388,-0.268595 v -0.179063 l -0.03901,-0.189594 -0.05096,0.04559 -0.06169,0.04023 -0.06437,0.04828 -0.08582,0.04291 -0.08851,0.05632 -0.101915,0.0295 -0.07241,0.04023 -0.02414,0.04828 -0.150191,0.01877 -0.139462,0.04828 -0.187739,0.0027 -0.101915,-0.01609 -0.120689,0.01073 h -0.08314 l -0.123371,-0.008 -0.112643,-0.03755 -0.09387,-0.01609 -0.158237,-0.05632 -0.155555,-0.04291 -0.144827,-0.0295 -0.155554,-0.06169 z"
     style="fill:#445500;fill-opacity:1;stroke:#000000;stroke-width:0.0625;stroke-opacity:0.22110554"
     inkscape:connector-curvature="0" />
  <path
     id="path1075"
     d="m 3.5213441,8.1973829 -0.01,0.229155 0.02491,0.219192 v 0.144467 l -0.04982,0.199265 -0.0548,0.154432 -0.06974,0.129522 -0.05978,0.164394 -0.169375,0.104614 0.0227,0.176061 0.05376,0.13261 0.0681,0.1792031 0.06093,0.182787 0.0215,0.107521 0.0036,0.125442 0.03942,0.129026 0.0036,0.121857 0.01792,0.07885 0.07885,0.02509 0.143362,-0.01075 0.161282,0.0036 h 0.139778 0.100353 0.103938 l 0.139778,0.0036 h 0.05018 l 0.06093,-0.0036 0.02509,-0.08602 -0.01075,-0.08602 0.0036,-0.08602 0.03226,-0.09319 0.01792,-0.09318 0.02509,-0.154114 0.0036,-0.139778 0.03942,-0.1003541 0.0215,-0.114689 0.02509,-0.125442 0.02509,-0.118274 0.05018,-0.13261 0.05376,-0.09677 0.07168,-0.07885 0.04659,-0.05018 0.03226,-0.09318 0.02509,-0.103937 v 0.215042 l 0.02867,0.118274 0.0681,0.125442 0.0896,0.168451 0.03942,0.114689 0.0896,0.172034 0.0896,0.1075221 0.07527,0.11469 0.09677,0.111105 0.0896,0.0896 0.06093,0.121857 0.0215,0.154114 0.0072,0.103937 0.04301,0.05018 0.182786,0.02867 0.164866,-0.01075 0.186371,-0.01792 0.179203,-0.01075 0.08243,-0.04659 0.02509,-0.04301 v -0.0896 l -0.02867,-0.186371 -0.0215,-0.172034 -0.02509,-0.11469 -0.02867,-0.136194 V 9.8260249 9.6396539 l -0.01792,-0.211459 -0.0036,-0.189955 -0.03942,-0.229379 -0.0215,-0.125441 0.0215,-0.189955 0.03226,-0.02509 0.01534,-0.05071 -0.202938,-0.328286 -0.113774,0.03563 -0.0697,0.112121 -0.05152,0.03636 -0.07576,0.003 -0.0697,-0.03636 -0.05758,-0.01818 -0.284848,-0.04546 -0.184848,0.0061 -0.254546,0.172727 -0.109091,0.003 -0.09697,-0.03636 -0.07576,-0.03636 -0.109091,-0.03939 -0.06364,-0.06667 -0.1,-0.0303 h -0.121213 l -0.10303,0.01818 -0.112121,0.05152 -0.160545,0.02362 -0.03036,-0.02665 -0.07879,-0.04849 -0.251515,-0.08182 -0.06667,-0.03636 z"
     style="fill:#aa0044;fill-opacity:1;stroke:#000000;stroke-width:0.0625;stroke-opacity:0.22110554"
     inkscape:connector-curvature="0" />
  <path
     id="path1077"
     d="m 3.4242831,10.77578 0.0596,0.09917 0.0292,0.06814 0.141139,0.01947 0.126538,-0.0292 h 0.150872 l 0.160606,-0.0097 0.136272,-0.0049 h 0.121671 0.0438 l 0.0087,-0.125058 z"
     style="fill:#f2c95f;fill-opacity:1;stroke:#000000;stroke-width:0.0625;stroke-opacity:0.22110554"
     inkscape:connector-curvature="0" />
  <path
     id="path1079"
     d="m 5.6894021,10.808034 -0.04464,0.06205 -0.0146,0.06814 0.09247,0.0049 0.102204,-0.0146 0.10707,-0.0097 0.111938,0.0097 0.136272,0.0049 0.111937,-0.0146 0.0584,-0.01947 0.102205,-0.01947 0.0438,-0.0146 0.02433,-0.073 -0.01064,-0.08454 -0.107521,0.0896 -0.203047,0.0047 -0.327393,0.03476 z"
     style="fill:#f2c95f;fill-opacity:1;stroke:#000000;stroke-width:0.0625;stroke-opacity:0.22110554"
     inkscape:connector-curvature="0" />
  <path
     id="path1081"
     d="m 3.5130801,10.94309 v 0.452617 l 0.0146,0.17034 0.0584,0.175207 0.0146,0.18494 0.04867,0.18494 0.0292,0.141138 0.0584,0.17034 0.0097,0.111938 -0.0584,0.073 -0.02433,0.09734 -0.04867,0.111937 0.0097,0.0584 0.05354,0.09734 0.0584,0.0097 0.102204,0.0146 0.126538,-0.03407 0.116804,-0.02433 0.0584,-0.0292 0.03893,-0.073 0.03407,-0.141139 0.0146,-0.08274 V 12.48585 12.330111 12.203573 l 0.03893,-0.08274 0.04867,-0.175206 0.0438,-0.09247 0.06327,-0.107071 0.0097,-0.111938 -0.0049,-0.204407 v -0.146006 l 0.0097,-0.170339 -0.0049,-0.04867 -0.0438,-0.0292 0.0049,-0.116806 -0.613223,0.0146 -0.126539,0.0292 z"
     style="fill:#4e945b;fill-opacity:1;stroke:#000000;stroke-width:0.0625;stroke-opacity:0.22110554"
     inkscape:connector-curvature="0" />
  <path
     id="path1083"
     d="m 3.6152841,12.816827 -0.0876,0.01947 -0.073,0.0292 -0.0097,0.0584 v 0.06327 l 0.0146,0.09734 0.03893,0.04867 0.107071,-0.0097 0.0438,-0.0146 h 0.06327 0.0584 l 0.06327,0.01947 0.0584,0.0049 h 0.06814 l 0.04867,0.0146 0.0146,0.04867 0.0438,0.04867 0.06327,-0.02433 0.0438,-0.0438 v -0.07787 -0.07787 l -0.09247,-0.08274 v 0 l -0.243342,0.0584 -0.160606,-0.02433 z"
     style="fill:#f0c55f;fill-opacity:1;stroke:#000000;stroke-width:0.0625;stroke-opacity:0.22110554"
     inkscape:connector-curvature="0" />
  <path
     id="path1085"
     d="m 3.6055501,13.123439 -0.06327,0.0584 -0.03893,0.03407 -0.06814,0.0876 v 0.073 l 0.0049,0.150872 0.06327,0.06814 0.0584,0.05354 h 0.121672 l 0.0876,-0.02433 0.121671,-0.09247 0.0876,-0.07787 0.04867,-0.0584 0.0146,-0.05354 0.02433,-0.09734 -0.0584,-0.09734 -0.292011,-0.05841 z"
     style="fill:#eb665f;fill-opacity:1;stroke:#000000;stroke-width:0.0625;stroke-opacity:0.22110554"
     inkscape:connector-curvature="0" />
  <path
     id="path55"
     d="m 5.6301601,10.938223 0.0078,0.123691 -0.0093,0.306061 v 0.190129 l 0.0093,0.125206 v 0.0742 l 0.04174,0.120569 0.06956,0.111295 0.09738,0.106658 0.143756,0.162304 0.06029,0.120569 0.06028,0.125207 0.0093,0.12057 0.02782,0.15303 0.01391,0.143755 0.01855,0.07883 0.09275,0.06028 0.08347,0.06956 h 0.07883 l 0.106658,0.0046 0.0371,-0.02319 0.04637,-0.02319 0.06028,-0.0093 0.09275,-0.0046 0.01391,-0.06956 0.0093,-0.06956 -0.0371,-0.05565 -0.08347,-0.07883 -0.02319,-0.08811 v -0.20404 l -0.01855,-0.268962 -0.01391,-0.361708 -0.02319,-0.319973 v -0.217952 l -0.03246,-0.15303 -0.03246,-0.148393 -0.04109,-0.173504 -0.204408,0.05354 -0.111937,0.0146 -0.24821,-0.0146 -0.209274,0.02433 z"
     style="fill:#4e945b;fill-opacity:1;stroke:#000000;stroke-width:0.0625;stroke-opacity:0.22110554"
     inkscape:connector-curvature="0" />
  <path
     id="path57"
     d="m 6.7786901,13.074495 -0.09275,0.0046 -0.06028,0.0093 -0.04637,0.02319 v 0.106656 l 0.04637,0.03246 0.06028,0.02319 0.07883,0.01391 0.08811,-0.0046 0.01855,-0.04174 0.02782,-0.02319 0.06029,-0.01391 0.02319,0.01391 0.04174,0.01391 0.05565,0.0046 0.04637,-0.02319 0.01855,-0.02319 v -0.05565 -0.06956 l -0.02319,-0.06956 -0.05101,-0.04174 -0.04174,-0.06492 -0.06492,-0.02319 -0.05101,0.02782 -0.04637,0.05101 -0.06492,-0.0093 z"
     style="fill:#f0c55f;fill-opacity:1;stroke:#000000;stroke-width:0.0625;stroke-opacity:0.22110554"
     inkscape:connector-curvature="0" />
  <path
     id="path59"
     d="m 6.1804811,13.000299 -0.07883,0.01391 -0.01391,0.115932 0.01391,0.07883 0.0371,0.08347 0.04174,0.09738 0.10202,0.02782 0.129844,0.02782 0.10202,0.0371 h 0.106658 l 0.09738,0.0093 0.10202,0.01855 0.125207,0.01855 0.15303,-0.0046 0.166942,0.0046 0.162305,-0.0046 0.0742,-0.01391 0.06956,-0.02319 0.0371,-0.06029 -0.01391,-0.06028 -0.139118,-0.06956 -0.125207,-0.0371 -0.07883,-0.02319 -0.106657,-0.04637 -0.01855,0.02319 -0.04637,0.02319 -0.05565,-0.0046 -0.06492,-0.02782 -0.06029,0.01391 -0.04637,0.06492 -0.08811,0.0046 -0.139119,-0.0371 -0.08347,-0.115932 -0.185491,-0.0046 z"
     style="fill:#eb665f;fill-opacity:1;stroke:#000000;stroke-width:0.0625;stroke-opacity:0.22110554"
     inkscape:connector-curvature="0" />
  <path
     id="path61"
     d="m 3.1327771,9.5424239 -0.169376,-0.104614 -0.159412,-0.09465 -0.162351,-0.143572 -0.375803,-0.383563 -0.06194,0.07089 -0.03127,0.198026 0.01563,0.213659 0.01042,0.312673 -0.02606,0.08859 -0.04169,0.06254 -0.01563,0.09901 0.01042,0.2032371 -0.01563,0.145914 -0.05732,0.09901 -0.01042,0.151125 v 0.140702 l 0.08859,0.125069 0.114647,0.02085 0.166758,0.07296 0.06775,0.04169 0.02084,0.08859 v 0.06253 l 0.02085,0.06254 0.13028,0.05732 0.125068,0.02084 0.104225,0.05732 0.07296,0.0052 0.140703,0.0052 0.03127,0.07817 0.08338,0.07296 0.151125,0.01563 h 0.08859 l 0.0637,0.0074 v -0.452617 l -0.0888,-0.167309 -0.0215,-0.200707 -0.03942,-0.129026 -0.0036,-0.125441 -0.05631,-0.146525 -0.07817,-0.2240821 -0.06254,-0.151125 -0.02084,-0.145913 z"
     style="fill:#c6b551;fill-opacity:1;stroke:#000000;stroke-width:0.0625;stroke-opacity:0.22110554"
     inkscape:connector-curvature="0" />
  <path
     id="path63"
     d="m 4.8901591,9.0410979 -0.05734,0.197122 v 0 l -0.118274,0.129026 -0.05376,0.09677 -0.05018,0.13261 -0.111106,0.4587591 -0.0036,0.139778 -0.04301,0.247299 -0.03226,0.09319 0.0072,0.172034 -0.03384,0.211073 -0.0049,0.116806 0.0438,0.0292 0.0049,0.04867 0.0017,0.212327 v 0.06775 l 0.119858,0.0052 0.114646,-0.02085 0.08338,-0.0469 0.166758,-0.03127 0.145914,-0.109435 0.06775,-0.04169 0.06253,-0.02085 0.06253,-0.02085 0.06253,-0.01042 0.06775,-0.01563 0.0938,-0.03648 h 0.06253 l 0.08843,0.01756 -0.0078,-0.123691 0.0146,-0.06813 0.04464,-0.06205 -0.04301,-0.05018 -0.02395,-0.161669 -0.0047,-0.09638 -0.06093,-0.121857 -0.186371,-0.200707 -0.07527,-0.11469 -0.179203,-0.2795561 -0.197122,-0.408582 -0.02867,-0.118273 z"
     style="fill:#c6b551;fill-opacity:1;stroke:#000000;stroke-width:0.0625;stroke-opacity:0.22110554"
     inkscape:connector-curvature="0" />
  <path
     id="path65"
     d="m 6.3928781,8.6176539 -0.0476,0.07579 -0.0215,0.189955 0.06093,0.35482 0.0036,0.189955 0.01792,0.211459 0.0031,0.294732 -0.0031,0.07442 0.02918,0.134023 0.02458,0.116861 0.0588,0.159333 -0.01042,0.114647 0.0018,0.08442 v 0.0896 l -0.02509,0.04301 0.0114,0.114535 0.100482,-0.04495 0.161547,-0.109435 0.09901,-0.07817 0.182392,-0.104223 0.140703,-0.07817 0.07296,-0.07296 -0.01563,-0.151125 -0.0469,-0.140703 -0.04169,-0.1094352 -0.06253,-0.08338 -0.01563,-0.13028 0.01563,-0.07817 -0.03127,-0.07296 -0.02085,-0.06254 v -0.114647 l -0.0052,-0.119857 v -0.09901 -0.151125 l -0.0052,-0.119857 v -0.104224 l -0.159848,0.0343 -0.191002,0.01791 -0.14325,-0.101469 z"
     style="fill:#c6b551;fill-opacity:1;stroke:#000000;stroke-width:0.0625;stroke-opacity:0.22110554"
     inkscape:connector-curvature="0" />
  <path
     id="path2551-02"
     d="m 6.6548331,3.6440379 0.159021,-0.104674 0.02141,-0.06479 0.106466,-0.100339 -0.02637,-0.175586 -0.04679,-0.06273 -0.02218,-0.06713 0.02589,-0.06813 0.09288,-0.03441 0.05362,0.01579 0.0026,-0.127439 -0.03335,-0.07275 0.007,-0.102832 0.0192,-0.07709 0.06045,-0.03115 0.06386,-0.05461 0.01807,-0.06927 0.0013,-0.06372 -0.05006,-0.09516 0.01579,-0.05362 0.04146,-0.0379 0.04921,-0.0088 0.03911,0.0057 -0.01969,-0.166626 3.75e-4,-0.139742 0.08072,-0.08811 0.09857,-0.07353 0.0458,0.01465 0.09629,-0.05788 0.111867,-0.02766 0.09615,-0.002 0.04573,0.0426 0.08818,0.05277 0.138459,0.06408 0.06684,0.08961 0.03761,0.153257 0.02432,0.107386 0.0054,0.07268 -0.03614,0.138531 -0.03257,0.05917 -0.06493,0.03449 -0.122886,-0.03386 -0.113926,-0.04054 -0.0046,0.03129 -0.0058,0.09501 -0.05377,0.04011 -0.06927,-0.01807 -0.07026,-0.06614 0.002,0.09615 0.0099,0.06934 -0.02034,0.08491 -0.05612,0.0837 -0.03827,0.09828 -0.04381,0.0815 -0.04267,0.07367 0.03342,0.04481 0.04011,0.05376 -0.01245,0.0581 -0.02688,0.02005 -0.05939,0.05127 -0.04139,0.01 -0.01807,0.06927 -0.02931,0.0916 -0.02482,0.08825 -0.05946,0.07922 -0.09189,0.08249 -0.06159,0.03897 -0.02688,0.02005 -0.04153,0.06585 -0.03037,0.07147 -0.0682,0.0021 -0.048,-0.02696 -0.05347,-0.07169 -0.05682,-0.07617 z"
     style="fill:#ffff00;stroke:#000000;stroke-width:0.02794862px;stroke-linecap:butt;stroke-linejoin:miter;stroke-opacity:1"
     inkscape:connector-curvature="0" />
  <path
     id="path2553-909"
     d="m 7.2533561,2.1933799 0.03672,0.02753 0.01168,0.02972 0.0016,0.04425 -0.01407,0.02797 -0.02245,0.01675 -0.04824,0.029 -0.02017,0.0011 -0.04056,0.01352"
     style="fill:#ffff00;stroke:#000000;stroke-width:0.02794862px;stroke-linecap:butt;stroke-linejoin:miter;stroke-opacity:1"
     inkscape:connector-curvature="0" />
  <path
     id="path2555-9"
     d="m 7.5958341,2.4748759 0.01803,-0.05877 0.01632,-0.02964 c 0,0 -0.0025,-0.0037 0.01394,-0.0104 0.0136,-0.0056 0.05729,-0.02526 0.05729,-0.02526 l 0.04646,0.01076 0.05165,0.03111"
     style="fill:none;stroke:#000000;stroke-width:0.02794862px;stroke-linecap:butt;stroke-linejoin:miter;stroke-opacity:1"
     inkscape:connector-curvature="0" />
  <path
     id="path2557-45"
     d="m 7.4064891,3.0624239 -0.05696,-0.01242 -0.03645,0.01671 -0.03595,0.04079 -0.01016,0.02854 0.01503,0.03421 0.02504,0.06168 0.02287,0.03535 0.01,0.0331"
     style="fill:none;stroke:#000000;stroke-width:0.02794862px;stroke-linecap:butt;stroke-linejoin:miter;stroke-opacity:1"
     inkscape:connector-curvature="0" />
  <path
     id="path2559-10"
     d="m 7.0187711,2.9820409 0.04074,0.02576 0.01165,0.04372 4.38e-4,0.03809 -0.03538,0.03687 -0.02526,0.02234 -0.02694,0.02009 -0.02241,0.0027 -0.04646,-0.01076 -0.0466,-0.02497"
     style="fill:none;stroke:#000000;stroke-width:0.02794862px;stroke-linecap:butt;stroke-linejoin:miter;stroke-opacity:1"
     inkscape:connector-curvature="0" />
  <path
     id="path2561-37"
     d="m 6.6548331,3.6440379 0.07539,-0.0098 0.05266,-0.0043 0.06381,0.01529 0.05145,0.0315 0.03855,0.03763 0.03292,0.04882 0.01675,0.07293"
     style="fill:none;stroke:#000000;stroke-width:0.02794862px;stroke-linecap:butt;stroke-linejoin:miter;stroke-opacity:1"
     inkscape:connector-curvature="0" />
  <path
     id="path2563-88"
     d="m 6.7270091,3.6146669 c 0.0032,-0.0023 0.02683,-0.01792 0.0525,-0.03463 l 0.04669,-0.03037 0.0038,-0.01138 c 0.0021,-0.0063 0.0072,-0.02131 0.0112,-0.03346 l 0.0074,-0.02208 0.053,-0.04987 c 0.02915,-0.02743 0.05372,-0.05095 0.05461,-0.05226 0.0029,-0.0043 -0.02651,-0.190051 -0.03103,-0.19622 -0.0041,-0.0055 -0.0034,-0.0056 0.01796,-0.0017 0.0122,0.0022 0.0283,0.0032 0.0358,0.0023 0.01343,-0.0017 0.01397,-0.002 0.03776,-0.02168 0.01327,-0.01096 0.03452,-0.03071 0.04722,-0.04387 l 0.02308,-0.02394 -2.5e-4,-0.02169 c -1.25e-4,-0.01214 -0.0032,-0.03356 -0.0071,-0.04868 l -0.0068,-0.02699 -0.01937,-0.01209 -0.01937,-0.01209 0.0014,-0.06104 0.0014,-0.06104 -0.01669,-0.03586 -0.01668,-0.03586 0.0035,-0.04997 c 0.0037,-0.05386 0.0157,-0.11273 0.02424,-0.119045 0.0025,-0.0019 0.01515,-0.0088 0.02804,-0.01537 0.02119,-0.01082 0.02671,-0.01478 0.05772,-0.04133 0.02198,-0.01882 0.0349,-0.03128 0.03598,-0.03469 0.01149,-0.03613 0.01924,-0.07542 0.01944,-0.09865 1.25e-4,-0.01458 0.0016,-0.02688 0.0032,-0.02733 0.0016,-4.5e-4 0.0077,-0.0026 0.01342,-0.0048 0.0058,-0.0022 0.01581,-0.0042 0.02233,-0.0046 0.0099,-5.37e-4 0.0158,-0.003 0.03644,-0.01543 0.0432,-0.02598 0.05166,-0.03333 0.06205,-0.05388 0.0082,-0.01629 0.009,-0.02008 0.0082,-0.04237 -6.44e-4,-0.01764 -0.0029,-0.02962 -0.008,-0.0429 l -0.0071,-0.01842 -0.01749,-0.01286 -0.0175,-0.01286 -0.0096,-0.08064 c -0.0077,-0.0644 -0.0096,-0.09331 -0.0095,-0.143545 5.6e-5,-0.0346 2.5e-4,-0.06422 3.75e-4,-0.06582 1.25e-4,-0.0016 0.0177,-0.02196 0.03901,-0.04525 0.03863,-0.04222 0.03888,-0.04244 0.08332,-0.07555 l 0.04457,-0.03321 0.01768,0.006 c 0.0097,0.0033 0.01987,0.0066 0.02253,0.0074 0.0039,0.0011 0.01491,-0.0047 0.05363,-0.02815 l 0.04878,-0.02954 0.05547,-0.01388 c 0.05159,-0.01291 0.05848,-0.01394 0.09843,-0.01472 0.02363,-4.56e-4 0.04399,-4.56e-4 0.04526,3e-6 0.0013,4.5e-4 0.01109,0.0092 0.02184,0.01947 0.02896,0.02761 0.09065,0.06383 0.176576,0.103685 l 0.06778,0.03143 0.03264,0.04376 0.03264,0.04376 0.01866,0.07637 c 0.03399,0.139071 0.04149,0.175046 0.04408,0.21138 l 0.0025,0.03468 -0.01773,0.06788 c -0.016,0.06126 -0.01916,0.07045 -0.03241,0.09422 l -0.01468,0.02634 -0.02757,0.01462 c -0.01517,0.008 -0.02857,0.01439 -0.0298,0.01411 -0.03341,-0.0078 -0.126744,-0.03612 -0.170473,-0.05176 -0.04515,-0.01615 -0.06308,-0.02395 -0.0826,-0.03592 -0.0211,-0.01295 -0.02914,-0.01626 -0.05228,-0.02156 -0.02707,-0.0062 -0.02751,-0.0062 -0.04285,6.73e-4 -0.0085,0.0038 -0.0261,0.01167 -0.03905,0.01746 l -0.02355,0.01052 -0.01079,0.01988 c -0.0059,0.01093 -0.01289,0.02682 -0.01545,0.03531 -0.0059,0.01958 -0.0078,0.02254 -0.01198,0.01874 -0.0048,-0.0044 -0.0015,0.122476 0.0043,0.163177 0.0047,0.03299 0.0047,0.03305 -0.0051,0.07315 l -0.0098,0.04014 -0.0271,0.04005 c -0.02555,0.03776 -0.02821,0.04289 -0.04644,0.0896 -0.01885,0.04829 -0.04242,0.0954 -0.08197,0.16377 l -0.01817,0.03142 -0.01652,-0.0036 c -0.0349,-0.0077 -0.03558,-0.0077 -0.05892,0.0037 l -0.02146,0.01048 -0.01949,0.02251 c -0.01613,0.01864 -0.02056,0.02551 -0.02573,0.03994 l -0.0062,0.01743 0.0229,0.0541 c 0.0126,0.02975 0.02749,0.06128 0.0331,0.07005 0.01699,0.02656 0.01845,0.03612 0.01043,0.06818 -0.0038,0.01527 -0.01402,0.0499 -0.02265,0.07695 -0.0086,0.02705 -0.02133,0.06921 -0.0282,0.09368 l -0.0125,0.04449 -0.02809,0.03744 c -0.02692,0.03588 -0.02994,0.0391 -0.07236,0.07725 -0.04021,0.03616 -0.04752,0.0419 -0.07968,0.06257 -0.0513,0.03297 -0.05467,0.03578 -0.06765,0.0564 -0.0062,0.0099 -0.01187,0.01792 -0.01252,0.01781 -6.5e-4,-1.12e-4 -0.0028,-0.008 -0.0048,-0.01756 -0.0032,-0.01547 -0.0055,-0.02028 -0.0214,-0.04413 -0.02481,-0.03726 -0.04917,-0.06099 -0.08654,-0.08433 -0.02535,-0.01583 -0.03057,-0.01798 -0.06199,-0.0256 -0.03034,-0.0074 -0.03773,-0.008 -0.06385,-0.0058 -0.03537,0.003 -0.03524,0.003 -0.0279,-0.0023 z"
     style="fill:#008000;fill-opacity:1;stroke:none;stroke-width:0.00247033;stroke-opacity:0.02617804"
     inkscape:connector-curvature="0" />
  <path
     style="fill:url(#linearGradient30-37);fill-opacity:1;fill-rule:nonzero;stroke:#000000;stroke-width:0.00342603;stroke-miterlimit:4;stroke-dasharray:0.00342603, 0.00685206;stroke-dashoffset:0;stroke-opacity:0.96254536"
     d="m 6.7542851,3.6157929 c 0.05087,-0.0046 0.106333,0.01383 0.155584,0.05159 0.03185,0.02442 0.07378,0.08038 0.07961,0.106245 0.0022,0.0096 0.0041,0.01719 0.0044,0.01695 2.5e-4,-2.25e-4 0.0063,-0.0084 0.01339,-0.01825 0.01146,-0.01585 0.01859,-0.0218 0.06453,-0.05387 0.06959,-0.04858 0.111622,-0.08669 0.150022,-0.136015 l 0.02955,-0.03796 0.02938,-0.09813 c 0.03435,-0.114709 0.04076,-0.140467 0.03847,-0.154388 -9.32e-4,-0.0056 -0.0075,-0.02074 -0.01451,-0.03356 -0.0071,-0.01282 -0.02258,-0.04595 -0.03451,-0.07361 l -0.02169,-0.0503 0.0081,-0.01859 c 0.0087,-0.02007 0.03353,-0.05186 0.04893,-0.06271 0.02186,-0.0154 0.04361,-0.02013 0.06902,-0.01499 l 0.02428,0.0049 0.02571,-0.04575 c 0.03295,-0.05864 0.05348,-0.100051 0.07072,-0.142619 0.01915,-0.04728 0.02691,-0.06212 0.05127,-0.09811 0.01168,-0.01726 0.02283,-0.0357 0.02477,-0.04098 0.0088,-0.02389 0.01818,-0.07289 0.01674,-0.08716 -0.0036,-0.03532 -0.0088,-0.137215 -0.0082,-0.158617 3.75e-4,-0.01262 0.0025,-0.02427 0.0046,-0.02589 0.0022,-0.0016 0.0077,-0.01294 0.01223,-0.02515 0.0045,-0.01221 0.01178,-0.02852 0.01608,-0.03626 l 0.0078,-0.01407 0.03755,-0.01666 0.03755,-0.01666 0.02623,0.0046 c 0.0183,0.0032 0.03644,0.01007 0.05998,0.02267 0.01856,0.0099 0.05658,0.02603 0.08448,0.03578 0.05412,0.01891 0.1538,0.04901 0.164063,0.04954 0.0034,1.68e-4 0.01817,-0.0062 0.03283,-0.01414 l 0.02664,-0.01446 0.0143,-0.02819 c 0.0088,-0.01726 0.02099,-0.05301 0.03155,-0.0922 0.02324,-0.08623 0.02209,-0.09956 -0.02552,-0.295542 l -0.02185,-0.08993 -0.03352,-0.04493 -0.03352,-0.04493 -0.0365,-0.01674 c -0.10156,-0.04658 -0.165654,-0.08298 -0.202637,-0.11507 -0.01249,-0.01084 -0.02543,-0.02037 -0.02875,-0.02117 -0.01908,-0.0046 -0.09453,0.0036 -0.142377,0.01555 -0.05124,0.01277 -0.05317,0.01357 -0.09878,0.04071 -0.02559,0.01523 -0.04857,0.02826 -0.05107,0.02897 -0.0025,7.04e-4 -0.01335,-0.0017 -0.02411,-0.0054 l -0.01957,-0.0067 -0.04624,0.03449 c -0.04051,0.03022 -0.05087,0.03959 -0.08365,0.07568 l -0.03741,0.04119 5.6e-5,0.05401 c 5.7e-5,0.06436 0.0018,0.09073 0.01132,0.173121 l 0.0072,0.06233 0.0178,0.01321 c 0.01697,0.01259 0.01808,0.01405 0.02384,0.03109 0.0033,0.0098 0.007,0.02821 0.0081,0.04082 0.0017,0.01876 1.25e-4,0.02699 -0.0085,0.04518 l -0.01057,0.02224 -0.03067,0.02007 c -0.03287,0.02151 -0.03817,0.0239 -0.07125,0.03212 l -0.02147,0.0053 -0.0044,0.03949 c -0.0024,0.02172 -0.0075,0.0504 -0.01123,0.06373 -0.006,0.02129 -0.009,0.02638 -0.02491,0.04179 -0.02448,0.02374 -0.05558,0.04676 -0.08331,0.06167 -0.02286,0.01229 -0.02302,0.01246 -0.02751,0.02782 -0.0074,0.02551 -0.01386,0.0675 -0.01689,0.110601 l -0.0029,0.04067 0.01669,0.03567 0.01669,0.03567 -0.0014,0.0576 c -7.88e-4,0.03168 -9.81e-4,0.05937 -4.38e-4,0.06153 5.63e-4,0.0022 0.0083,0.0085 0.01725,0.014 0.0089,0.0055 0.0178,0.01213 0.01967,0.01465 0.0047,0.0063 0.01601,0.06981 0.01515,0.08511 -6.25e-4,0.01086 -0.0037,0.01547 -0.0235,0.03549 -0.03767,0.03803 -0.06909,0.06401 -0.07952,0.06577 -0.005,8.51e-4 -0.02031,8.8e-5 -0.03393,-0.0017 -0.01361,-0.0018 -0.02468,-0.0024 -0.0246,-0.0015 6.2e-5,9.75e-4 0.0046,0.02634 0.01006,0.05636 0.0079,0.0436 0.02175,0.136043 0.02114,0.14125 -6.3e-5,6.06e-4 -0.0243,0.02397 -0.05383,0.05191 l -0.0537,0.05081 -0.01164,0.03401 -0.01164,0.03401 -0.04085,0.02627 c -0.02247,0.01445 -0.04446,0.02955 -0.04886,0.03356 -0.0079,0.0072 -0.0078,0.0073 0.0166,0.0051 z"
     id="path2581-6"
     inkscape:connector-curvature="0" />
</svg>
