<?xml version="1.0" encoding="UTF-8" standalone="no"?>
<svg
   xmlns:dc="http://purl.org/dc/elements/1.1/"
   xmlns:cc="http://creativecommons.org/ns#"
   xmlns:rdf="http://www.w3.org/1999/02/22-rdf-syntax-ns#"
   xmlns:svg="http://www.w3.org/2000/svg"
   xmlns="http://www.w3.org/2000/svg"
   xmlns:xlink="http://www.w3.org/1999/xlink"
   xmlns:sodipodi="http://sodipodi.sourceforge.net/DTD/sodipodi-0.dtd"
   xmlns:inkscape="http://www.inkscape.org/namespaces/inkscape"
   version="1.1"
   id="svg815"
   width="160"
   height="250"
   viewBox="0 0 160 250"
   sodipodi:docname="clubs02.svg"
   inkscape:version="0.92.5 (2060ec1f9f, 2020-04-08)">
  <sodipodi:namedview
     pagecolor="#ffffff"
     bordercolor="#666666"
     borderopacity="1"
     objecttolerance="10"
     gridtolerance="10"
     guidetolerance="10"
     inkscape:pageopacity="0"
     inkscape:pageshadow="2"
     inkscape:window-width="1918"
     inkscape:window-height="1017"
     id="namedview5011"
     showgrid="false"
     inkscape:zoom="35.489501"
     inkscape:cx="10.042407"
     inkscape:cy="241.57567"
     inkscape:window-x="0"
     inkscape:window-y="0"
     inkscape:window-maximized="1"
     inkscape:current-layer="svg815"
     inkscape:snap-page="true" />
  <metadata
     id="metadata821">
    <rdf:RDF>
      <cc:Work
         rdf:about="">
        <dc:format>image/svg+xml</dc:format>
        <dc:type
           rdf:resource="http://purl.org/dc/dcmitype/StillImage" />
        <dc:title></dc:title>
      </cc:Work>
    </rdf:RDF>
  </metadata>
  <defs
     id="defs819">
    <linearGradient
       gradientTransform="matrix(-0.11382866,-0.04897331,0.04897331,-0.11382866,11.360684,16.77034)"
       xlink:href="#linearGradient28"
       id="linearGradient30"
       x1="68.058258"
       y1="52.766853"
       x2="93.905167"
       y2="48.329338"
       gradientUnits="userSpaceOnUse" />
    <linearGradient
       id="linearGradient28">
      <stop
         style="stop-color:#d45500;stop-opacity:1;"
         offset="0"
         id="stop24" />
      <stop
         style="stop-color:#d45500;stop-opacity:0;"
         offset="1"
         id="stop26" />
    </linearGradient>
    <linearGradient
       xlink:href="#linearGradient28"
       id="linearGradient202"
       gradientUnits="userSpaceOnUse"
       gradientTransform="matrix(-0.10421379,0,0,-0.10421379,11.430942,12.359493)"
       x1="68.058258"
       y1="52.766853"
       x2="93.905167"
       y2="48.329338" />
    <linearGradient
       gradientTransform="matrix(0.09270834,0,0,0.10071509,-0.41268405,3.0882732)"
       xlink:href="#linearGradient28"
       id="linearGradient30-4"
       x1="68.058258"
       y1="52.766853"
       x2="93.905167"
       y2="48.329338"
       gradientUnits="userSpaceOnUse" />
    <linearGradient
       xlink:href="#linearGradient28"
       id="linearGradient367"
       gradientUnits="userSpaceOnUse"
       gradientTransform="matrix(0.0625,0,0,0.11444754,18.072663,2.4148925)"
       x1="68.058258"
       y1="52.766853"
       x2="93.905167"
       y2="48.329338" />
    <linearGradient
       xlink:href="#linearGradient28"
       id="linearGradient349"
       gradientUnits="userSpaceOnUse"
       gradientTransform="matrix(-0.0625,0,0,-0.11444754,30.014458,13.048996)"
       x1="68.058258"
       y1="52.766853"
       x2="93.905167"
       y2="48.329338" />
    <linearGradient
       gradientTransform="matrix(0.0625,0,0,0.11444754,22.258269,2.5882975)"
       xlink:href="#linearGradient28"
       id="linearGradient30-6"
       x1="68.058258"
       y1="52.766853"
       x2="93.905167"
       y2="48.329338"
       gradientUnits="userSpaceOnUse" />
    <linearGradient
       xlink:href="#linearGradient28"
       id="linearGradient554"
       gradientUnits="userSpaceOnUse"
       gradientTransform="matrix(-0.04739556,-0.02774335,0.02569172,-0.05118036,39.13871,8.9395546)"
       x1="68.058258"
       y1="52.766853"
       x2="93.905167"
       y2="48.329338" />
    <linearGradient
       xlink:href="#linearGradient28"
       id="linearGradient552"
       gradientUnits="userSpaceOnUse"
       gradientTransform="matrix(0.04739556,-0.02774335,-0.02569172,-0.05118036,30.774237,8.9206156)"
       x1="68.058258"
       y1="52.766853"
       x2="93.905167"
       y2="48.329338" />
    <linearGradient
       xlink:href="#linearGradient28"
       id="linearGradient518"
       gradientUnits="userSpaceOnUse"
       gradientTransform="matrix(-0.04739556,0.02774335,0.02569172,0.05118036,39.15765,6.5759136)"
       x1="68.058258"
       y1="52.766853"
       x2="93.905167"
       y2="48.329338" />
    <linearGradient
       gradientTransform="matrix(0.04739556,0.02774335,-0.02569172,0.05118036,30.793177,6.5948536)"
       xlink:href="#linearGradient28"
       id="linearGradient30-2"
       x1="68.058258"
       y1="52.766853"
       x2="93.905167"
       y2="48.329338"
       gradientUnits="userSpaceOnUse" />
    <linearGradient
       gradientTransform="matrix(-0.00182956,0.04406484,-0.05671844,-0.00142139,47.989828,4.511358)"
       xlink:href="#linearGradient28"
       id="linearGradient30-3"
       x1="68.058258"
       y1="52.766853"
       x2="93.905167"
       y2="48.329338"
       gradientUnits="userSpaceOnUse" />
    <linearGradient
       xlink:href="#linearGradient28"
       id="linearGradient1562"
       gradientUnits="userSpaceOnUse"
       gradientTransform="matrix(-0.0625,0,0,-0.0625,51.889458,7.060849)"
       x1="68.058258"
       y1="52.766853"
       x2="93.905167"
       y2="48.329338" />
    <linearGradient
       xlink:href="#linearGradient28"
       id="linearGradient1560"
       gradientUnits="userSpaceOnUse"
       gradientTransform="matrix(-0.0625,0,0,-0.0625,47.798548,7.004031)"
       x1="68.058258"
       y1="52.766853"
       x2="93.905167"
       y2="48.329338" />
    <linearGradient
       xlink:href="#linearGradient28"
       id="linearGradient1526"
       gradientUnits="userSpaceOnUse"
       gradientTransform="matrix(0.0625,0,0,0.0625,38.167361,8.526273)"
       x1="68.058258"
       y1="52.766853"
       x2="93.905167"
       y2="48.329338" />
    <linearGradient
       gradientTransform="matrix(0.0625,0,0,0.0625,42.25827,8.583091)"
       xlink:href="#linearGradient28"
       id="linearGradient30-9"
       x1="68.058258"
       y1="52.766853"
       x2="93.905167"
       y2="48.329338"
       gradientUnits="userSpaceOnUse" />
    <linearGradient
       xlink:href="#linearGradient28"
       id="linearGradient2120"
       gradientUnits="userSpaceOnUse"
       gradientTransform="matrix(-0.04785026,0,0,-0.05589801,61.027177,6.8616735)"
       x1="68.058258"
       y1="52.766853"
       x2="93.905167"
       y2="48.329338" />
    <linearGradient
       xlink:href="#linearGradient28"
       id="linearGradient2118"
       gradientUnits="userSpaceOnUse"
       gradientTransform="matrix(-0.04785026,0,0,-0.05589801,58.75445,6.8616735)"
       x1="68.058258"
       y1="52.766853"
       x2="93.905167"
       y2="48.329338" />
    <linearGradient
       xlink:href="#linearGradient28"
       id="linearGradient2116"
       gradientUnits="userSpaceOnUse"
       gradientTransform="matrix(-0.04785026,0,0,-0.05589801,56.405965,6.8616735)"
       x1="68.058258"
       y1="52.766853"
       x2="93.905167"
       y2="48.329338" />
    <linearGradient
       xlink:href="#linearGradient28"
       id="linearGradient2066"
       gradientUnits="userSpaceOnUse"
       gradientTransform="matrix(0.04785026,0,0,0.05589801,49.067214,8.5932485)"
       x1="68.058258"
       y1="52.766853"
       x2="93.905167"
       y2="48.329338" />
    <linearGradient
       xlink:href="#linearGradient28"
       id="linearGradient2048"
       gradientUnits="userSpaceOnUse"
       gradientTransform="matrix(0.04785026,0,0,0.05589801,51.339942,8.5932485)"
       x1="68.058258"
       y1="52.766853"
       x2="93.905167"
       y2="48.329338" />
    <linearGradient
       gradientTransform="matrix(0.04785026,0,0,0.05589801,53.688426,8.5932485)"
       xlink:href="#linearGradient28"
       id="linearGradient30-42"
       x1="68.058258"
       y1="52.766853"
       x2="93.905167"
       y2="48.329338"
       gradientUnits="userSpaceOnUse" />
    <linearGradient
       gradientTransform="matrix(-7.81785e-4,0.04887137,0.04887137,7.81785e-4,62.757095,3.8708137)"
       xlink:href="#linearGradient28"
       id="linearGradient30-7"
       x1="68.058258"
       y1="52.766853"
       x2="93.905167"
       y2="48.329338"
       gradientUnits="userSpaceOnUse" />
    <linearGradient
       xlink:href="#linearGradient28"
       id="linearGradient2120-2"
       gradientUnits="userSpaceOnUse"
       gradientTransform="matrix(-0.04785026,0,0,-0.05589801,71.02718,6.8616741)"
       x1="68.058258"
       y1="52.766853"
       x2="93.905167"
       y2="48.329338" />
    <linearGradient
       xlink:href="#linearGradient28"
       id="linearGradient2118-5"
       gradientUnits="userSpaceOnUse"
       gradientTransform="matrix(-0.04785026,0,0,-0.05589801,68.754453,6.8616741)"
       x1="68.058258"
       y1="52.766853"
       x2="93.905167"
       y2="48.329338" />
    <linearGradient
       xlink:href="#linearGradient28"
       id="linearGradient2116-4"
       gradientUnits="userSpaceOnUse"
       gradientTransform="matrix(-0.04785026,0,0,-0.05589801,66.405968,6.8616741)"
       x1="68.058258"
       y1="52.766853"
       x2="93.905167"
       y2="48.329338" />
    <linearGradient
       xlink:href="#linearGradient28"
       id="linearGradient2066-4"
       gradientUnits="userSpaceOnUse"
       gradientTransform="matrix(0.04785026,0,0,0.05589801,59.067217,8.593248)"
       x1="68.058258"
       y1="52.766853"
       x2="93.905167"
       y2="48.329338" />
    <linearGradient
       xlink:href="#linearGradient28"
       id="linearGradient2048-9"
       gradientUnits="userSpaceOnUse"
       gradientTransform="matrix(0.04785026,0,0,0.05589801,61.339944,8.593248)"
       x1="68.058258"
       y1="52.766853"
       x2="93.905167"
       y2="48.329338" />
    <linearGradient
       gradientTransform="matrix(0.04785026,0,0,0.05589801,63.688429,8.593248)"
       xlink:href="#linearGradient28"
       id="linearGradient30-93"
       x1="68.058258"
       y1="52.766853"
       x2="93.905167"
       y2="48.329338"
       gradientUnits="userSpaceOnUse" />
    <linearGradient
       xlink:href="#linearGradient28"
       id="linearGradient2337"
       gradientUnits="userSpaceOnUse"
       gradientTransform="matrix(-0.0417883,0,0,-0.04857198,75.583944,6.4314344)"
       x1="68.058258"
       y1="52.766853"
       x2="93.905167"
       y2="48.329338" />
    <linearGradient
       xlink:href="#linearGradient28"
       id="linearGradient2335"
       gradientUnits="userSpaceOnUse"
       gradientTransform="matrix(0.0417883,0,0,0.04857198,70.628178,2.0064654)"
       x1="68.058258"
       y1="52.766853"
       x2="93.905167"
       y2="48.329338" />
    <linearGradient
       xlink:href="#linearGradient28"
       id="linearGradient2333"
       gradientUnits="userSpaceOnUse"
       gradientTransform="matrix(-0.0417883,0,0,-0.04857198,79.296068,6.4974754)"
       x1="68.058258"
       y1="52.766853"
       x2="93.905167"
       y2="48.329338" />
    <linearGradient
       xlink:href="#linearGradient28"
       id="linearGradient2331"
       gradientUnits="userSpaceOnUse"
       gradientTransform="matrix(0.0417883,0,0,0.04857198,74.340299,2.0725074)"
       x1="68.058258"
       y1="52.766853"
       x2="93.905167"
       y2="48.329338" />
    <linearGradient
       xlink:href="#linearGradient28"
       id="linearGradient2265"
       gradientUnits="userSpaceOnUse"
       gradientTransform="matrix(-0.0417883,0,0,-0.04857198,75.640764,13.685222)"
       x1="68.058258"
       y1="52.766853"
       x2="93.905167"
       y2="48.329338" />
    <linearGradient
       xlink:href="#linearGradient28"
       id="linearGradient2263"
       gradientUnits="userSpaceOnUse"
       gradientTransform="matrix(0.0417883,0,0,0.04857198,70.684995,9.2602534)"
       x1="68.058258"
       y1="52.766853"
       x2="93.905167"
       y2="48.329338" />
    <linearGradient
       xlink:href="#linearGradient28"
       id="linearGradient2229"
       gradientUnits="userSpaceOnUse"
       gradientTransform="matrix(-0.0417883,0,0,-0.04857198,79.352887,13.751263)"
       x1="68.058258"
       y1="52.766853"
       x2="93.905167"
       y2="48.329338" />
    <linearGradient
       gradientTransform="matrix(0.0417883,0,0,0.04857198,74.397116,9.3262944)"
       xlink:href="#linearGradient28"
       id="linearGradient30-5"
       x1="68.058258"
       y1="52.766853"
       x2="93.905167"
       y2="48.329338"
       gradientUnits="userSpaceOnUse" />
    <linearGradient
       gradientTransform="matrix(0,0.0625,-0.070221,0,88.204672,3.0537241)"
       xlink:href="#linearGradient28"
       id="linearGradient30-7-7"
       x1="68.058258"
       y1="52.766853"
       x2="93.905167"
       y2="48.329338"
       gradientUnits="userSpaceOnUse" />
    <linearGradient
       xlink:href="#linearGradient28"
       id="linearGradient2337-9"
       gradientUnits="userSpaceOnUse"
       gradientTransform="matrix(-0.0417883,0,0,-0.04857198,85.583944,6.4314336)"
       x1="68.058258"
       y1="52.766853"
       x2="93.905167"
       y2="48.329338" />
    <linearGradient
       xlink:href="#linearGradient28"
       id="linearGradient2335-2"
       gradientUnits="userSpaceOnUse"
       gradientTransform="matrix(0.0417883,0,0,0.04857198,80.628177,2.0064647)"
       x1="68.058258"
       y1="52.766853"
       x2="93.905167"
       y2="48.329338" />
    <linearGradient
       xlink:href="#linearGradient28"
       id="linearGradient2333-8"
       gradientUnits="userSpaceOnUse"
       gradientTransform="matrix(-0.0417883,0,0,-0.04857198,89.296066,6.4974746)"
       x1="68.058258"
       y1="52.766853"
       x2="93.905167"
       y2="48.329338" />
    <linearGradient
       xlink:href="#linearGradient28"
       id="linearGradient2331-3"
       gradientUnits="userSpaceOnUse"
       gradientTransform="matrix(0.0417883,0,0,0.04857198,84.340298,2.0725065)"
       x1="68.058258"
       y1="52.766853"
       x2="93.905167"
       y2="48.329338" />
    <linearGradient
       xlink:href="#linearGradient28"
       id="linearGradient2265-0"
       gradientUnits="userSpaceOnUse"
       gradientTransform="matrix(-0.0417883,0,0,-0.04857198,85.640762,13.685222)"
       x1="68.058258"
       y1="52.766853"
       x2="93.905167"
       y2="48.329338" />
    <linearGradient
       xlink:href="#linearGradient28"
       id="linearGradient2263-1"
       gradientUnits="userSpaceOnUse"
       gradientTransform="matrix(0.0417883,0,0,0.04857198,80.684995,9.2602526)"
       x1="68.058258"
       y1="52.766853"
       x2="93.905167"
       y2="48.329338" />
    <linearGradient
       xlink:href="#linearGradient28"
       id="linearGradient2229-7"
       gradientUnits="userSpaceOnUse"
       gradientTransform="matrix(-0.0417883,0,0,-0.04857198,89.352884,13.751263)"
       x1="68.058258"
       y1="52.766853"
       x2="93.905167"
       y2="48.329338" />
    <linearGradient
       gradientTransform="matrix(0.0417883,0,0,0.04857198,84.397116,9.3262946)"
       xlink:href="#linearGradient28"
       id="linearGradient30-8"
       x1="68.058258"
       y1="52.766853"
       x2="93.905167"
       y2="48.329338"
       gradientUnits="userSpaceOnUse" />
    <linearGradient
       gradientUnits="userSpaceOnUse"
       y2="48.329338"
       x2="93.905167"
       y1="52.766853"
       x1="68.058258"
       id="linearGradient30-37"
       xlink:href="#linearGradient28"
       gradientTransform="matrix(-0.02567333,-0.01104562,0.01104562,-0.02567333,98.847603,4.8327149)" />
    <linearGradient
       gradientUnits="userSpaceOnUse"
       y2="71.008263"
       x2="88.849586"
       y1="58.644627"
       x1="82.105782"
       id="linearGradient1063"
       xlink:href="#linearGradient882"
       gradientTransform="matrix(0.0625,0,0,0.0625,89.999998,-1.2353516e-7)" />
    <linearGradient
       id="linearGradient882">
      <stop
         style="stop-color:#d16208;stop-opacity:1"
         offset="0"
         id="stop878" />
      <stop
         style="stop-color:#d16250;stop-opacity:0;"
         offset="1"
         id="stop880" />
    </linearGradient>
    <linearGradient
       gradientUnits="userSpaceOnUse"
       y2="68.472336"
       x2="56.128345"
       y1="63.697319"
       x1="61.166279"
       id="linearGradient876"
       xlink:href="#linearGradient882"
       gradientTransform="matrix(0.0625,0,0,0.0625,89.999998,-1.2353516e-7)" />
    <linearGradient
       gradientUnits="userSpaceOnUse"
       y2="48.329338"
       x2="93.905167"
       y1="52.766853"
       x1="68.058258"
       id="linearGradient30-0"
       xlink:href="#linearGradient28"
       gradientTransform="matrix(-0.02881053,-0.01239536,0.01239536,-0.02881053,108.70072,5.4503207)" />
    <linearGradient
       gradientUnits="userSpaceOnUse"
       y2="48.329338"
       x2="93.905167"
       y1="52.766853"
       x1="68.058258"
       id="linearGradient30-80"
       xlink:href="#linearGradient28"
       gradientTransform="matrix(-0.02849684,-0.0122604,0.0122604,-0.02849684,118.86314,5.4302307)" />
    <linearGradient
       xlink:href="#linearGradient846"
       id="linearGradient848"
       x1="72.37397"
       y1="53.171356"
       x2="72.19931"
       y2="45.564011"
       gradientUnits="userSpaceOnUse"
       gradientTransform="matrix(0.0625,0,0,0.0625,110,-2.6464844e-7)" />
    <linearGradient
       id="linearGradient846">
      <stop
         style="stop-color:#423abf;stop-opacity:1;"
         offset="0"
         id="stop842" />
      <stop
         style="stop-color:#423abf;stop-opacity:0;"
         offset="1"
         id="stop844" />
    </linearGradient>
  </defs>
  <flowRoot
     style="font-style:normal;font-variant:normal;font-weight:bold;font-stretch:normal;font-size:1px;line-height:1.25;font-family:'DejaVu Sans';-inkscape-font-specification:'DejaVu Sans Bold';letter-spacing:0px;word-spacing:0px;fill:#000000;fill-opacity:1;stroke:none;stroke-width:0.0625"
     id="flowRoot100"
     xml:space="preserve"><flowRegion
       style="stroke-width:0.0625"
       id="flowRegion102"><rect
         style="stroke-width:0.00390625"
         y="0.73863637"
         x="0.66287881"
         height="1.3636364"
         width="1.5151515"
         id="rect104" /></flowRegion><flowPara
       style="stroke-width:0.0625"
       id="flowPara106" /></flowRoot>  <rect
     y="0.028177423"
     x="-0.048041858"
     height="15.625"
     width="10"
     id="clubs02"
     style="fill:#ffffff;fill-opacity:1;stroke:#1a1a1a;stroke-width:0.0625;stroke-opacity:1" />
  <rect
     y="1.3350011"
     x="1.2966542"
     height="12.973484"
     width="7.2537889"
     id="rect108-3"
     style="fill:none;fill-opacity:1;stroke:#1a1a1a;stroke-width:0.0625;stroke-opacity:1" />
  <g
     id="flowRoot915-9"
     style="font-style:normal;font-variant:normal;font-weight:bold;font-stretch:normal;font-size:16px;line-height:1.25;font-family:'DejaVu Sans';-inkscape-font-specification:'DejaVu Sans Bold';text-align:start;letter-spacing:0px;word-spacing:0px;text-anchor:start;fill:#000000;fill-opacity:1;stroke:none"
     transform="matrix(0.0625,0,0,0.0625,0.14135245,0.02818317)"
     aria-label="2">
    <path
       id="path3157"
       d="m 7.640625,16.490234 h 5.132813 v 2.210938 H 4.296875 V 16.490234 L 8.5546875,12.732422 Q 9.125,12.216797 9.3984375,11.724609 9.671875,11.232422 9.671875,10.701172 q 0,-0.8203126 -0.5546875,-1.3203126 -0.546875,-0.5 -1.4609375,-0.5 -0.703125,0 -1.5390625,0.3046875 Q 5.28125,9.4824219 4.328125,10.076172 V 7.5136719 Q 5.34375,7.1777344 6.3359375,7.0058594 7.328125,6.8261719 8.28125,6.8261719 q 2.09375,0 3.25,0.921875 1.164063,0.921875 1.164063,2.5703121 0,0.953125 -0.492188,1.78125 -0.492187,0.820313 -2.070312,2.203125 z"
       inkscape:connector-curvature="0" />
  </g>
  <path
     style="fill:#ffff00;stroke:#000000;stroke-width:0.09662882px;stroke-linecap:butt;stroke-linejoin:miter;stroke-opacity:1"
     d="m 7.8098864,3.9082132 -0.347323,0.57296 0.01969,0.24494 -0.19287,0.48377 0.31055,0.54367 0.224806,0.141 0.155607,0.19064 0.01042,0.26239 -0.237892,0.24619 -0.184086,0.0241 0.159245,0.4255 0.196993,0.19334 0.113556,0.3503298 0.04254,0.28253 -0.143365,0.18919 -0.123006,0.27174 0.03575,0.25501 0.07962,0.21276 0.27728,0.24369 0.02218,0.19999 -0.07665,0.18451 -0.138397,0.0993 -0.126643,0.0369 0.278435,0.52353 0.182088,0.46309 -0.130457,0.40662 -0.203958,0.38378 -0.158758,0.0167 -0.217532,0.32874 -0.304606,0.25087 -0.290367,0.14351 -0.195174,-0.0759 -0.337875,-0.0491 -0.505902,-0.0149 -0.321151,-0.20143 -0.315518,-0.45375 -0.214869,-0.32084 -0.111738,-0.2329 -0.0715,-0.51003 0.02169,-0.24225 0.152636,-0.20663 0.418828,-0.0629 0.400285,-0.0281 -0.02715,-0.11006 -0.10677,-0.32282 0.11125,-0.20933 0.234743,-0.0388 0.300791,0.11888 -0.132097,-0.31544 -0.121009,-0.21546 -0.04933,-0.31004 0.06126,-0.35699 -0.01224,-0.37982 0.02666,-0.3321698 0.03345,-0.30465 -0.160575,-0.10071 -0.192691,-0.12086 -0.03824,-0.21006 0.05562,-0.10466 0.113735,-0.2543 0.113068,-0.0919 -0.03575,-0.25502 -0.03078,-0.34493 -0.04005,-0.3275 0.07732,-0.34691 0.171843,-0.40392 0.136579,-0.2167 0.05563,-0.10467 0.04023,-0.27713 -0.0012,-0.27984 0.205112,-0.10394 0.181601,0.0209 0.256922,0.16114 0.272978,0.17122 z"
     id="path2551-1"
     inkscape:connector-curvature="0" />
  <path
     style="fill:#ffff00;stroke:#000000;stroke-width:0.09662882px;stroke-linecap:butt;stroke-linejoin:miter;stroke-opacity:1"
     d="m 7.8879034,9.562593 -0.147979,-0.0388 -0.07456,-0.0817 -0.06278,-0.14425 0.0062,-0.11263 0.04645,-0.0874 0.108984,-0.16471 0.06005,-0.0323 0.105849,-0.10253"
     id="path2553-9"
     inkscape:connector-curvature="0" />
  <path
     style="fill:none;stroke:#000000;stroke-width:0.09662882px;stroke-linecap:butt;stroke-linejoin:miter;stroke-opacity:1"
     d="m 6.4753264,9.118533 0.02211,0.22022 -0.01087,0.12136 c 0,0 0.01229,0.009 -0.02884,0.0543 -0.0341,0.0379 -0.141437,0.16521 -0.141437,0.16521 l -0.155675,0.0305 -0.198159,-0.0294"
     id="path2555-6"
     inkscape:connector-curvature="0" />
  <path
     style="fill:none;stroke:#000000;stroke-width:0.09662882px;stroke-linecap:butt;stroke-linejoin:miter;stroke-opacity:1"
     d="m 6.2820174,6.9039632 0.189843,-0.04 0.08916,-0.10722 0.05607,-0.18624 -0.0065,-0.10893 -0.09065,-0.0918 -0.157165,-0.1685 -0.116028,-0.0844 -0.07384,-0.0954"
     id="path2557-9"
     inkscape:connector-curvature="0" />
  <path
     style="fill:none;stroke:#000000;stroke-width:0.09662882px;stroke-linecap:butt;stroke-linejoin:miter;stroke-opacity:1"
     d="m 7.5687974,6.6178732 -0.157908,-0.0273 -0.09281,-0.12813 -0.05133,-0.12542 0.05947,-0.17245 0.04769,-0.10993 0.05573,-0.10487 0.06469,-0.041 0.155675,-0.0305 0.174731,0.0163"
     id="path2559-3"
     inkscape:connector-curvature="0" />
  <path
     style="fill:none;stroke:#000000;stroke-width:0.09662882px;stroke-linecap:butt;stroke-linejoin:miter;stroke-opacity:1"
     d="m 7.8098864,3.9082132 -0.216895,0.13976 -0.154765,0.0894 -0.214478,0.0403 -0.198054,-0.031 -0.166786,-0.0696 -0.164298,-0.1147 -0.146661,-0.21756"
     id="path2561-3"
     inkscape:connector-curvature="0" />
  <path
     style="fill:#008000;fill-opacity:1;stroke:none;stroke-width:0.00854086;stroke-opacity:0.02617804"
     d="m 7.6284664,4.1082232 c -0.0067,0.0123 -0.05825,0.0975 -0.114592,0.18939 l -0.102445,0.16703 0.0032,0.0431 c 0.0018,0.0237 0.0061,0.0807 0.0097,0.12671 l 0.0065,0.0836 -0.09611,0.24056 c -0.05286,0.13231 -0.09691,0.24516 -0.09788,0.25077 -0.0032,0.0182 0.329936,0.59135 0.351772,0.60534 0.01964,0.0126 0.01778,0.0137 -0.05245,0.0313 -0.04005,0.0101 -0.09047,0.0296 -0.112044,0.0435 -0.03867,0.0248 -0.0399,0.0266 -0.08663,0.12555 -0.02607,0.0552 -0.06494,0.15082 -0.08637,0.21248 l -0.03896,0.11211 0.02914,0.0715 c 0.01632,0.04 0.05388,0.10648 0.08537,0.15107 l 0.05623,0.0796 0.07488,0.0124 0.07488,0.0124 0.07585,0.20399 0.07585,0.20399 0.09786,0.095 0.09786,0.095 0.055,0.17032 c 0.05928,0.18359 0.09994,0.39552 0.08222,0.42858 -0.0053,0.01 -0.03463,0.0507 -0.06528,0.0908 -0.05039,0.066 -0.06203,0.087 -0.121698,0.21902 -0.0423,0.0936 -0.06533,0.15323 -0.06416,0.16608 0.01234,0.13596 0.04027,0.27707 0.0701,0.35425 0.01872,0.0484 0.03049,0.0912 0.02615,0.095 -0.0043,0.004 -0.01992,0.0195 -0.03465,0.0349 -0.01472,0.0154 -0.04264,0.0365 -0.06204,0.047 -0.02961,0.0159 -0.04419,0.0325 -0.09081,0.10297 -0.09756,0.14754 -0.113717,0.18391 -0.118447,0.26672 -0.0037,0.0657 -0.001,0.0792 0.03069,0.15186 0.02509,0.0575 0.04758,0.094 0.08056,0.13063 l 0.04575,0.0509 0.07017,0.0177 0.07017,0.0177 0.134991,0.25325 c 0.107812,0.2022598 0.151534,0.2952098 0.217144,0.4616298 0.04518,0.11461 0.0835,0.21289 0.08515,0.21839 0.0016,0.006 -0.02515,0.0979 -0.05955,0.20537 -0.06236,0.19476 -0.06282,0.19586 -0.154838,0.36874 l -0.09227,0.17341 -0.06174,0.005 c -0.03396,0.003 -0.06922,0.006 -0.07836,0.008 -0.0132,0.002 -0.03928,0.0368 -0.126521,0.16955 l -0.109899,0.16727 -0.150818,0.12496 c -0.140262,0.11621 -0.1599,0.12943 -0.280627,0.1889 -0.0714,0.0352 -0.133453,0.0642 -0.137906,0.0644 -0.0044,2.5e-4 -0.04588,-0.0147 -0.09207,-0.0333 -0.124421,-0.0501 -0.359905,-0.0822 -0.673964,-0.0917 l -0.24774,-0.008 -0.156818,-0.0984 -0.156818,-0.0983 -0.156982,-0.22621 c -0.285882,-0.41196 -0.355904,-0.52035 -0.411438,-0.63693 l -0.05301,-0.11128 -0.03496,-0.24994 c -0.03155,-0.22556 -0.03397,-0.26049 -0.02477,-0.35803 l 0.01019,-0.1080998 0.06485,-0.0877 c 0.03567,-0.0482 0.0682,-0.0883 0.0723,-0.0891 0.112006,-0.0218 0.433543,-0.061 0.587295,-0.0714 0.158741,-0.0108 0.223595,-0.0106 0.298792,10e-4 0.08127,0.0128 0.11012,0.0123 0.187579,-0.003 0.0906,-0.018 0.09193,-0.0187 0.129685,-0.0633 0.02098,-0.0248 0.06422,-0.0758 0.0961,-0.11341 l 0.05795,-0.0684 0.0068,-0.0812 c 0.0038,-0.0446 0.0041,-0.10714 7.44e-4,-0.13889 -0.0077,-0.0732 -0.0058,-0.0857 0.01194,-0.0791 0.02035,0.008 -0.156066,-0.40752 -0.226936,-0.53406 -0.05744,-0.10257 -0.05751,-0.10278 -0.08034,-0.24942 l -0.02285,-0.14677 0.03007,-0.17118 c 0.02835,-0.16136 0.02973,-0.18216 0.02403,-0.36272 -0.0059,-0.18671 0.0042,-0.37619 0.03506,-0.6588498 l 0.01418,-0.12987 0.05512,-0.0114 c 0.116449,-0.0242 0.118471,-0.0253 0.174636,-0.0963 l 0.05164,-0.0653 0.02987,-0.10228 c 0.02473,-0.0847 0.02921,-0.11374 0.02603,-0.16886 l -0.0038,-0.0666 -0.140704,-0.14646 c -0.07739,-0.0805 -0.1641,-0.16368 -0.192696,-0.18472 -0.08658,-0.0637 -0.103583,-0.0933 -0.121156,-0.21083 -0.0084,-0.056 -0.02271,-0.18514 -0.03187,-0.287 -0.0092,-0.10185 -0.02575,-0.25946 -0.03689,-0.35025 l -0.02024,-0.16506 0.03651,-0.16394 c 0.03499,-0.15709 0.03997,-0.1721 0.119222,-0.35877 0.07512,-0.17696 0.08987,-0.20636 0.160781,-0.3206 0.113093,-0.1822 0.119682,-0.19631 0.132199,-0.28303 0.006,-0.0417 0.01267,-0.0762 0.01479,-0.0768 0.0021,-6.1e-4 0.01901,0.0225 0.03753,0.0513 0.02999,0.0467 0.04341,0.0593 0.123072,0.1156 0.124435,0.088 0.229787,0.13188 0.37423,0.15589 0.09798,0.0163 0.116723,0.016 0.22246,-0.004 0.102093,-0.0189 0.125508,-0.0272 0.202181,-0.0717 0.10382,-0.0603 0.103405,-0.0602 0.08808,-0.0319 z"
     id="path2563-8"
     inkscape:connector-curvature="0" />
  <path
     id="path2581-0"
     d="m 7.5438804,4.1433432 c -0.14902,0.0875 -0.342137,0.10565 -0.541705,0.0508 -0.129046,-0.0355 -0.330203,-0.161 -0.381845,-0.23832 -0.01909,-0.0286 -0.03515,-0.051 -0.03569,-0.0498 -5.62e-4,10e-4 -0.0081,0.0369 -0.01687,0.0795 -0.01414,0.0688 -0.02806,0.0986 -0.126003,0.27023 -0.148353,0.25992 -0.226471,0.44593 -0.278815,0.6639 l -0.04029,0.16775 0.03911,0.36667 c 0.04572,0.42863 0.05994,0.52303 0.08519,0.56584 0.01022,0.0173 0.04992,0.058 0.08821,0.0904 0.03829,0.0324 0.129038,0.11995 0.20165,0.19454 l 0.132021,0.13561 -2.5e-4,0.073 c -2.5e-4,0.0789 -0.03419,0.21941 -0.06689,0.27725 -0.04642,0.0821 -0.106511,0.12874 -0.190666,0.14794 l -0.08041,0.0183 -0.01835,0.18807 c -0.02352,0.2410198 -0.0318,0.4073598 -0.02853,0.5728198 0.0036,0.1838 -5.62e-4,0.24395 -0.02759,0.39777 -0.01298,0.0738 -0.02276,0.1507 -0.02174,0.17094 0.0046,0.0916 0.04016,0.26718 0.06325,0.31238 0.05715,0.11185 0.20682,0.44161 0.232987,0.51335 0.01542,0.0423 0.02435,0.0838 0.01984,0.0923 -0.0045,0.008 -0.0064,0.0538 -0.0043,0.10067 0.0022,0.0469 0.0015,0.1112 -0.0015,0.14293 l -0.0054,0.0577 -0.09259,0.10862 -0.09259,0.10863 -0.08597,0.0221 c -0.05996,0.0154 -0.124241,0.0186 -0.212478,0.0104 -0.06958,-0.006 -0.206517,-0.006 -0.30431,0.002 -0.189703,0.0145 -0.532888,0.0568 -0.564857,0.0696 -0.0106,0.004 -0.04727,0.0464 -0.08149,0.0935 l -0.06221,0.0858 -0.0066,0.11368 c -0.0041,0.0696 0.0055,0.20536 0.02472,0.35015 0.04222,0.31855 0.06321,0.36104 0.465205,0.94196 l 0.184462,0.26655 0.161034,0.10101 0.161035,0.101 0.133151,0.003 c 0.370522,0.01 0.613535,0.0387 0.768297,0.0923 0.05228,0.0181 0.104185,0.0312 0.115343,0.0291 0.0642,-0.0119 0.283298,-0.14664 0.413443,-0.25424 0.139377,-0.11524 0.144236,-0.12064 0.24763,-0.27545 0.05801,-0.0868 0.110938,-0.16272 0.11763,-0.16861 0.0067,-0.006 0.04296,-0.0132 0.0806,-0.0163 l 0.06843,-0.006 0.09567,-0.18002 c 0.08383,-0.15774 0.103094,-0.2035 0.15566,-0.36966 l 0.05999,-0.18963 -0.07096,-0.17871 c -0.08456,-0.21295 -0.124386,-0.29779 -0.261448,-0.55695 l -0.10369,-0.19605 -0.07156,-0.0184 c -0.06821,-0.0175 -0.07352,-0.0207 -0.113415,-0.069 -0.02302,-0.0278 -0.05818,-0.0835 -0.07813,-0.12363 -0.02967,-0.0597 -0.03572,-0.0892 -0.03321,-0.1617 l 0.0031,-0.0887 0.06714,-0.11011 c 0.07195,-0.118 0.08499,-0.13348 0.174991,-0.2078 l 0.05842,-0.0482 -0.03833,-0.13699 c -0.02108,-0.0754 -0.04328,-0.17748 -0.04934,-0.22695 -0.0097,-0.079 -0.0071,-0.10014 0.02113,-0.17383 0.04348,-0.11347 0.108053,-0.23394 0.173013,-0.32278 0.05354,-0.0732 0.05382,-0.074 0.04734,-0.13127 -0.01076,-0.095 -0.04626,-0.24317 -0.09352,-0.39017 l -0.04459,-0.1387 -0.09761,-0.0943 -0.09761,-0.0943 -0.07115,-0.1927 c -0.03914,-0.10599 -0.07484,-0.19793 -0.07934,-0.20431 -0.0045,-0.006 -0.03642,-0.0162 -0.07093,-0.0218 -0.03451,-0.006 -0.07013,-0.0148 -0.07915,-0.0205 -0.0226,-0.0142 -0.140284,-0.20828 -0.157737,-0.26017 -0.01238,-0.0368 -0.0091,-0.0564 0.02507,-0.15095 0.06495,-0.17952 0.126602,-0.31027 0.156069,-0.33094 0.01426,-0.01 0.06178,-0.0292 0.10559,-0.0427 0.04381,-0.0135 0.07841,-0.0271 0.07687,-0.0302 -0.0015,-0.003 -0.04857,-0.0806 -0.104533,-0.17224 -0.08127,-0.13306 -0.244606,-0.41936 -0.24957,-0.43747 -5.62e-4,-0.002 0.04261,-0.11393 0.09598,-0.24849 l 0.09703,-0.24466 -0.0091,-0.12914 -0.0091,-0.12914 0.09005,-0.14513 c 0.04953,-0.0798 0.09672,-0.16113 0.104874,-0.18067 0.01469,-0.0352 0.01416,-0.0352 -0.05724,0.007 z"
     style="fill:url(#linearGradient30-4);fill-opacity:1;fill-rule:nonzero;stroke:#000000;stroke-width:0.01184506;stroke-miterlimit:4;stroke-dasharray:0.01184506, 0.02369012;stroke-dashoffset:0;stroke-opacity:0.96254536"
     inkscape:connector-curvature="0" />
  <path
     id="path186"
     d="m 2.1879204,11.511083 0.390427,-0.59287 -0.02214,-0.25345 0.216806,-0.50058 -0.34909,-0.56255 -0.252705,-0.1459 -0.174919,-0.19726 -0.01172,-0.2715 0.267415,-0.25475 0.206931,-0.0249 -0.179007,-0.44029 -0.221441,-0.20005 -0.127648,-0.3625 -0.04782,-0.29235 0.161158,-0.1957598 0.13827,-0.28118 -0.04019,-0.26387 -0.0895,-0.22015 -0.311692,-0.25216 -0.02493,-0.20693 0.08616,-0.19092 0.155573,-0.10272 0.142359,-0.0381 -0.31299,-0.54172 -0.204686,-0.47918 0.146648,-0.42074 0.22927,-0.39711 0.17846,-0.0173 0.244528,-0.34017 0.342409,-0.25958 0.326403,-0.14849 0.219396,0.0785 0.379806,0.0508 0.568687,0.0155 0.361006,0.20843 0.354675,0.46951 0.241535,0.33199 0.125605,0.24098 0.08038,0.52775 -0.02438,0.25066 -0.171579,0.21381 -0.470805,0.0651 -0.449963,0.029 0.03052,0.11389 0.12002,0.33403 -0.125056,0.21661 -0.263876,0.0402 -0.338119,-0.12302 0.148491,0.32641 0.136026,0.22293 0.05545,0.32082 -0.06886,0.3693898 0.01376,0.39302 -0.02997,0.3437 -0.0376,0.31524 0.180503,0.10421 0.216604,0.12506 0.04298,0.21735 -0.06253,0.1083 -0.127849,0.26313 -0.1271,0.0951 0.04019,0.26388 0.0346,0.35692 0.04503,0.33887 -0.08691,0.35896 -0.19317,0.41795 -0.153528,0.22423 -0.06253,0.10831 -0.04523,0.28676 0.0013,0.28955 -0.230567,0.10756 -0.204138,-0.0216 -0.288807,-0.16675 -0.306855,-0.17716 z"
     style="fill:#ffff00;stroke:#000000;stroke-width:0.1042138px;stroke-linecap:butt;stroke-linejoin:miter;stroke-opacity:1"
     inkscape:connector-curvature="0" />
  <path
     id="path188"
     d="m 2.1002214,5.6602732 0.166344,0.0402 0.08381,0.0846 0.07057,0.14926 -0.007,0.11654 -0.05221,0.0904 -0.122509,0.17042 -0.0675,0.0334 -0.118985,0.10609"
     style="fill:#ffff00;stroke:#000000;stroke-width:0.1042138px;stroke-linecap:butt;stroke-linejoin:miter;stroke-opacity:1"
     inkscape:connector-curvature="0" />
  <path
     id="path190"
     d="m 3.6881054,6.1197532 -0.02485,-0.22786 0.01222,-0.12558 c 0,0 -0.01382,-0.009 0.03242,-0.0562 0.03833,-0.0392 0.158989,-0.17095 0.158989,-0.17095 l 0.174995,-0.0316 0.22275,0.0304"
     style="fill:none;stroke:#000000;stroke-width:0.1042138px;stroke-linecap:butt;stroke-linejoin:miter;stroke-opacity:1"
     inkscape:connector-curvature="0" />
  <path
     id="path192"
     d="m 3.9054034,8.411263 -0.213403,0.0414 -0.100225,0.11094 -0.06303,0.19271 0.0073,0.11271 0.101899,0.095 0.176668,0.17434 0.130429,0.0874 0.083,0.0987"
     style="fill:none;stroke:#000000;stroke-width:0.1042138px;stroke-linecap:butt;stroke-linejoin:miter;stroke-opacity:1"
     inkscape:connector-curvature="0" />
  <path
     id="path194"
     d="m 2.4589294,8.707293 0.177506,0.0282 0.104322,0.13257 0.05771,0.12978 -0.06685,0.17844 -0.05361,0.11374 -0.06265,0.10852 -0.07272,0.0424 -0.174995,0.0316 -0.196414,-0.0168"
     style="fill:none;stroke:#000000;stroke-width:0.1042138px;stroke-linecap:butt;stroke-linejoin:miter;stroke-opacity:1"
     inkscape:connector-curvature="0" />
  <path
     id="path196"
     d="m 2.1879204,11.511083 0.243813,-0.14461 0.173971,-0.0925 0.241096,-0.0417 0.222634,0.0321 0.187485,0.0721 0.184688,0.11869 0.164863,0.22512"
     style="fill:none;stroke:#000000;stroke-width:0.1042138px;stroke-linecap:butt;stroke-linejoin:miter;stroke-opacity:1"
     inkscape:connector-curvature="0" />
  <path
     id="path198"
     d="m 2.3918554,11.304123 c 0.0075,-0.0128 0.06548,-0.10091 0.128813,-0.19597 l 0.11516,-0.17283 -0.0036,-0.0446 c -0.002,-0.0245 -0.0069,-0.0835 -0.01094,-0.13111 l -0.0073,-0.0865 0.108039,-0.24892 c 0.05942,-0.1369 0.108934,-0.25367 0.110032,-0.25947 0.0035,-0.0188 -0.370883,-0.6119 -0.395429,-0.62637 -0.02208,-0.013 -0.01999,-0.0142 0.05896,-0.0324 0.04502,-0.0104 0.101698,-0.0307 0.12595,-0.045 0.04347,-0.0257 0.04485,-0.0275 0.09739,-0.12991 0.02931,-0.0571 0.073,-0.15605 0.09708,-0.21986 l 0.0438,-0.116 -0.03276,-0.0739 c -0.01834,-0.0414 -0.06057,-0.11018 -0.09596,-0.15632 l -0.06321,-0.0824 -0.08417,-0.0129 -0.08417,-0.0129 -0.08526,-0.21108 -0.08526,-0.21107 -0.110003,-0.0983 -0.110001,-0.0983 -0.06182,-0.17624 c -0.06664,-0.18997 -0.112338,-0.40926 -0.09242,-0.44346 0.0059,-0.0102 0.03893,-0.0524 0.07338,-0.094 0.05664,-0.0683 0.06972,-0.09 0.1368,-0.2266298 0.04755,-0.0969 0.07344,-0.15855 0.07212,-0.17185 -0.01388,-0.14068 -0.04527,-0.2867 -0.0788,-0.36655 -0.02104,-0.0501 -0.03428,-0.0943 -0.0294,-0.0983 0.0049,-0.004 0.0224,-0.0202 0.03895,-0.0361 0.01655,-0.0159 0.04793,-0.0378 0.06974,-0.0486 0.03328,-0.0165 0.04968,-0.0336 0.102078,-0.10655 0.109672,-0.15266 0.12783,-0.1903 0.133147,-0.27599 0.0042,-0.0679 0.0011,-0.082 -0.0345,-0.15713 -0.0282,-0.0595 -0.05349,-0.0972 -0.09056,-0.13516 l -0.05143,-0.0526 -0.07887,-0.0183 -0.07888,-0.0183 -0.151744,-0.26205 c -0.121191,-0.20928 -0.170338,-0.30546 -0.244091,-0.47766 -0.05079,-0.1186 -0.09386,-0.22029 -0.09572,-0.22598 -0.0018,-0.006 0.02827,-0.10133 0.06694,-0.2125 0.0701,-0.20153 0.07062,-0.20267 0.174054,-0.38155 l 0.103718,-0.17944 0.0694,-0.005 c 0.03817,-0.003 0.07781,-0.007 0.08809,-0.008 0.01483,-0.002 0.04415,-0.038 0.142223,-0.17544 l 0.123538,-0.17309 0.169535,-0.12929 c 0.157669,-0.12025 0.179745,-0.13393 0.315454,-0.19546 0.08026,-0.0364 0.150016,-0.0664 0.155021,-0.0667 0.005,-3.1e-4 0.05158,0.0152 0.103497,0.0345 0.139862,0.0519 0.404571,0.0851 0.757605,0.0949 l 0.278485,0.008 0.17628,0.10178 0.17628,0.10177 0.176464,0.23407 c 0.321361,0.42626 0.400073,0.53843 0.462499,0.65906 l 0.05959,0.11514 0.0393,0.25862 c 0.03547,0.23339 0.03818,0.26953 0.02785,0.37047 l -0.01145,0.11185 -0.0729,0.0907 c -0.0401,0.0499 -0.07667,0.0914 -0.08127,0.0922 -0.125906,0.0226 -0.487346,0.0631 -0.66018,0.0739 -0.178441,0.0112 -0.251344,0.0109 -0.335873,-10e-4 -0.09136,-0.0132 -0.123786,-0.0128 -0.210859,0.003 -0.101836,0.0187 -0.103338,0.0193 -0.145777,0.0654 -0.02358,0.0256 -0.07219,0.0784 -0.108023,0.11735 l -0.06514,0.0707 -0.0077,0.084 c -0.0042,0.0462 -0.0046,0.11086 -8.34e-4,0.14371 0.0086,0.0758 0.0065,0.0887 -0.01342,0.0818 -0.02288,-0.008 0.175434,0.42168 0.255098,0.55262 0.06457,0.10613 0.06464,0.10635 0.09031,0.25809 l 0.02569,0.15186 -0.03381,0.17713 c -0.03187,0.1669598 -0.03342,0.1884898 -0.02702,0.3753198 0.0066,0.1932 -0.0047,0.38926 -0.03941,0.68174 l -0.01594,0.13438 -0.06196,0.0118 c -0.1309,0.025 -0.133173,0.0262 -0.196309,0.0996 l -0.05805,0.0675 -0.03357,0.10583 c -0.0278,0.0876 -0.03283,0.1177 -0.02927,0.17473 l 0.0043,0.0689 0.158166,0.15155 c 0.08699,0.0833 0.184465,0.16936 0.21661,0.19114 0.09733,0.0659 0.116438,0.0965 0.136192,0.21815 0.0094,0.0579 0.02553,0.19157 0.03582,0.29696 0.01029,0.10539 0.02895,0.26848 0.04146,0.36242 l 0.02275,0.1708 -0.04105,0.16964 c -0.03933,0.16254 -0.04493,0.17807 -0.134018,0.37123 -0.08445,0.18311 -0.10102,0.21353 -0.180735,0.33174 -0.127127,0.18853 -0.134534,0.20312 -0.148604,0.29286 -0.0068,0.0431 -0.01424,0.0789 -0.01663,0.0795 -0.0024,6.3e-4 -0.02137,-0.0233 -0.04218,-0.0531 -0.03372,-0.0483 -0.0488,-0.0613 -0.138346,-0.11961 -0.139878,-0.0911 -0.258304,-0.13646 -0.420674,-0.16131 -0.110138,-0.0169 -0.131208,-0.0165 -0.250068,0.004 -0.114763,0.0195 -0.141083,0.0281 -0.227271,0.0742 -0.116705,0.0624 -0.116239,0.0623 -0.09901,0.0331 z"
     style="fill:#008000;fill-opacity:1;stroke:none;stroke-width:0.00921129;stroke-opacity:0.02617804"
     inkscape:connector-curvature="0" />
  <path
     style="fill:url(#linearGradient202);fill-opacity:1;fill-rule:nonzero;stroke:#000000;stroke-width:0.01277485;stroke-miterlimit:4;stroke-dasharray:0.01277485, 0.0255497;stroke-dashoffset:0;stroke-opacity:0.96254536"
     d="m 2.4869394,11.267783 c 0.167514,-0.0906 0.384597,-0.10932 0.608932,-0.0526 0.145063,0.0367 0.371183,0.1666 0.429234,0.2466 0.02146,0.0296 0.03952,0.0528 0.04012,0.0515 6.25e-4,-10e-4 0.0091,-0.0382 0.01897,-0.0822 0.0159,-0.0712 0.03154,-0.10205 0.141641,-0.27962 0.166764,-0.26895 0.254577,-0.46142 0.313417,-0.68696 l 0.04528,-0.17357 -0.04397,-0.37942 c -0.0514,-0.44351 -0.06737,-0.5412 -0.09576,-0.58549 -0.01149,-0.0179 -0.05611,-0.06 -0.09916,-0.0936 -0.04305,-0.0335 -0.145051,-0.12411 -0.226674,-0.20129 l -0.148406,-0.14032 3.13e-4,-0.0756 c 3.12e-4,-0.0816 0.03843,-0.22704 0.07519,-0.28689 0.05218,-0.085 0.11973,-0.13321 0.214329,-0.15308 l 0.09039,-0.019 0.02063,-0.1946 c 0.02644,-0.24939 0.03575,-0.42152 0.03207,-0.59272 -0.0041,-0.19018 6.25e-4,-0.25242 0.03102,-0.4115898 0.01459,-0.0763 0.02559,-0.15593 0.02444,-0.17688 -0.0052,-0.0948 -0.04514,-0.27646 -0.0711,-0.32322 -0.06425,-0.11574 -0.232489,-0.45696 -0.261903,-0.53119 -0.01734,-0.0437 -0.02737,-0.0867 -0.02231,-0.0955 0.0051,-0.009 0.0072,-0.0557 0.0048,-0.10417 -0.0024,-0.0485 -0.0017,-0.11506 0.0016,-0.14789 l 0.006,-0.0597 0.104082,-0.1124 0.10408,-0.1124 0.09664,-0.0229 c 0.06741,-0.016 0.13966,-0.0192 0.238846,-0.0108 0.07821,0.007 0.232147,0.006 0.342076,-0.002 0.213246,-0.015 0.599021,-0.0588 0.634958,-0.0721 0.01192,-0.004 0.05314,-0.048 0.0916,-0.0968 l 0.06993,-0.0888 0.0074,-0.11763 c 0.0046,-0.072 -0.0062,-0.2125 -0.02779,-0.36231 -0.04747,-0.32962 -0.07105,-0.37359 -0.522941,-0.97468 l -0.207353,-0.27582 -0.181019,-0.10452 -0.18102,-0.10451 -0.149675,-0.004 c -0.416503,-0.01 -0.689674,-0.0401 -0.863643,-0.0955 -0.05877,-0.0187 -0.117115,-0.0323 -0.129658,-0.0301 -0.07217,0.0123 -0.318456,0.15173 -0.464752,0.26307 -0.156675,0.11924 -0.162137,0.12483 -0.278362,0.28502 -0.0652,0.0899 -0.124707,0.16837 -0.132229,0.17447 -0.0075,0.006 -0.04829,0.0137 -0.0906,0.0169 l -0.07692,0.006 -0.107545,0.18627 c -0.09424,0.16322 -0.115888,0.21056 -0.174978,0.3825 l -0.06743,0.19622 0.07977,0.18492 c 0.09505,0.22034 0.139823,0.30814 0.293894,0.57629 l 0.116558,0.20287 0.08044,0.019 c 0.07668,0.0181 0.08264,0.0215 0.12749,0.0714 0.02588,0.0288 0.0654,0.0864 0.08783,0.12792 0.03335,0.0618 0.04015,0.0923 0.03734,0.16732 l -0.0034,0.0918 -0.07547,0.11394 c -0.08088,0.1221 -0.09553,0.13812 -0.19671,0.21501 l -0.06566,0.0499 0.04308,0.14175 c 0.0237,0.078 0.04865,0.18364 0.05546,0.23483 0.01088,0.0818 0.008,0.10362 -0.02375,0.17987 -0.04888,0.11741 -0.121464,0.2420698 -0.194484,0.3339998 -0.06018,0.0758 -0.0605,0.0766 -0.05322,0.13582 0.01209,0.0984 0.05201,0.25163 0.105129,0.40373 l 0.05012,0.14352 0.109724,0.0976 0.109722,0.0976 0.07999,0.1994 c 0.04399,0.10967 0.08412,0.2048 0.08919,0.21141 0.0051,0.007 0.04094,0.0167 0.07973,0.0225 0.03879,0.006 0.07883,0.0153 0.08897,0.0212 0.0254,0.0147 0.157694,0.21552 0.177312,0.2692 0.01392,0.0381 0.01026,0.0584 -0.02818,0.1562 -0.07301,0.18576 -0.142315,0.32105 -0.175438,0.34244 -0.01603,0.0104 -0.06945,0.0303 -0.118694,0.0442 -0.04925,0.014 -0.08814,0.028 -0.08641,0.0312 0.0017,0.003 0.0546,0.0834 0.117505,0.17822 0.09136,0.13769 0.274963,0.43393 0.280543,0.45267 6.25e-4,0.002 -0.0479,0.11789 -0.107895,0.25713 l -0.109078,0.25315 0.01026,0.13363 0.01026,0.13362 -0.101223,0.15018 c -0.05567,0.0826 -0.108723,0.16672 -0.117889,0.18695 -0.01651,0.0364 -0.01592,0.0364 0.06435,-0.007 z"
     id="path200"
     inkscape:connector-curvature="0" />
</svg>
