<?xml version="1.0" encoding="UTF-8" standalone="no"?>
<svg
   xmlns:dc="http://purl.org/dc/elements/1.1/"
   xmlns:cc="http://creativecommons.org/ns#"
   xmlns:rdf="http://www.w3.org/1999/02/22-rdf-syntax-ns#"
   xmlns:svg="http://www.w3.org/2000/svg"
   xmlns="http://www.w3.org/2000/svg"
   xmlns:xlink="http://www.w3.org/1999/xlink"
   xmlns:sodipodi="http://sodipodi.sourceforge.net/DTD/sodipodi-0.dtd"
   xmlns:inkscape="http://www.inkscape.org/namespaces/inkscape"
   version="1.1"
   id="svg815"
   width="160"
   height="250"
   viewBox="0 0 160 250"
   sodipodi:docname="clubs05.svg"
   inkscape:version="0.92.5 (2060ec1f9f, 2020-04-08)">
  <sodipodi:namedview
     pagecolor="#ffffff"
     bordercolor="#666666"
     borderopacity="1"
     objecttolerance="10"
     gridtolerance="10"
     guidetolerance="10"
     inkscape:pageopacity="0"
     inkscape:pageshadow="2"
     inkscape:window-width="1918"
     inkscape:window-height="1017"
     id="namedview5011"
     showgrid="false"
     inkscape:zoom="3.3"
     inkscape:cx="80"
     inkscape:cy="125"
     inkscape:window-x="0"
     inkscape:window-y="0"
     inkscape:window-maximized="1"
     inkscape:current-layer="svg815" />
  <metadata
     id="metadata821">
    <rdf:RDF>
      <cc:Work
         rdf:about="">
        <dc:format>image/svg+xml</dc:format>
        <dc:type
           rdf:resource="http://purl.org/dc/dcmitype/StillImage" />
        <dc:title></dc:title>
      </cc:Work>
    </rdf:RDF>
  </metadata>
  <defs
     id="defs819">
    <linearGradient
       gradientTransform="matrix(-0.11382866,-0.04897331,0.04897331,-0.11382866,11.360684,16.77034)"
       xlink:href="#linearGradient28"
       id="linearGradient30"
       x1="68.058258"
       y1="52.766853"
       x2="93.905167"
       y2="48.329338"
       gradientUnits="userSpaceOnUse" />
    <linearGradient
       id="linearGradient28">
      <stop
         style="stop-color:#d45500;stop-opacity:1;"
         offset="0"
         id="stop24" />
      <stop
         style="stop-color:#d45500;stop-opacity:0;"
         offset="1"
         id="stop26" />
    </linearGradient>
    <linearGradient
       xlink:href="#linearGradient28"
       id="linearGradient202"
       gradientUnits="userSpaceOnUse"
       gradientTransform="matrix(-0.10421379,0,0,-0.10421379,21.478984,12.331316)"
       x1="68.058258"
       y1="52.766853"
       x2="93.905167"
       y2="48.329338" />
    <linearGradient
       gradientTransform="matrix(0.09270834,0,0,0.10071509,9.635358,3.0600958)"
       xlink:href="#linearGradient28"
       id="linearGradient30-4"
       x1="68.058258"
       y1="52.766853"
       x2="93.905167"
       y2="48.329338"
       gradientUnits="userSpaceOnUse" />
    <linearGradient
       xlink:href="#linearGradient28"
       id="linearGradient367"
       gradientUnits="userSpaceOnUse"
       gradientTransform="matrix(0.0625,0,0,0.11444754,18.072663,2.4148925)"
       x1="68.058258"
       y1="52.766853"
       x2="93.905167"
       y2="48.329338" />
    <linearGradient
       xlink:href="#linearGradient28"
       id="linearGradient349"
       gradientUnits="userSpaceOnUse"
       gradientTransform="matrix(-0.0625,0,0,-0.11444754,30.014458,13.048996)"
       x1="68.058258"
       y1="52.766853"
       x2="93.905167"
       y2="48.329338" />
    <linearGradient
       gradientTransform="matrix(0.0625,0,0,0.11444754,22.258269,2.5882975)"
       xlink:href="#linearGradient28"
       id="linearGradient30-6"
       x1="68.058258"
       y1="52.766853"
       x2="93.905167"
       y2="48.329338"
       gradientUnits="userSpaceOnUse" />
    <linearGradient
       xlink:href="#linearGradient28"
       id="linearGradient554"
       gradientUnits="userSpaceOnUse"
       gradientTransform="matrix(-0.04739556,-0.02774335,0.02569172,-0.05118036,39.13871,8.9395546)"
       x1="68.058258"
       y1="52.766853"
       x2="93.905167"
       y2="48.329338" />
    <linearGradient
       xlink:href="#linearGradient28"
       id="linearGradient552"
       gradientUnits="userSpaceOnUse"
       gradientTransform="matrix(0.04739556,-0.02774335,-0.02569172,-0.05118036,30.774237,8.9206156)"
       x1="68.058258"
       y1="52.766853"
       x2="93.905167"
       y2="48.329338" />
    <linearGradient
       xlink:href="#linearGradient28"
       id="linearGradient518"
       gradientUnits="userSpaceOnUse"
       gradientTransform="matrix(-0.04739556,0.02774335,0.02569172,0.05118036,39.15765,6.5759136)"
       x1="68.058258"
       y1="52.766853"
       x2="93.905167"
       y2="48.329338" />
    <linearGradient
       gradientTransform="matrix(0.04739556,0.02774335,-0.02569172,0.05118036,30.793177,6.5948536)"
       xlink:href="#linearGradient28"
       id="linearGradient30-2"
       x1="68.058258"
       y1="52.766853"
       x2="93.905167"
       y2="48.329338"
       gradientUnits="userSpaceOnUse" />
    <linearGradient
       gradientTransform="matrix(-0.00182956,0.04406484,-0.05671844,-0.00142139,8.0300908,4.511358)"
       xlink:href="#linearGradient28"
       id="linearGradient30-3"
       x1="68.058258"
       y1="52.766853"
       x2="93.905167"
       y2="48.329338"
       gradientUnits="userSpaceOnUse" />
    <linearGradient
       xlink:href="#linearGradient28"
       id="linearGradient1562"
       gradientUnits="userSpaceOnUse"
       gradientTransform="matrix(-0.0625,0,0,-0.0625,11.929721,7.060849)"
       x1="68.058258"
       y1="52.766853"
       x2="93.905167"
       y2="48.329338" />
    <linearGradient
       xlink:href="#linearGradient28"
       id="linearGradient1560"
       gradientUnits="userSpaceOnUse"
       gradientTransform="matrix(-0.0625,0,0,-0.0625,7.8388108,7.004031)"
       x1="68.058258"
       y1="52.766853"
       x2="93.905167"
       y2="48.329338" />
    <linearGradient
       xlink:href="#linearGradient28"
       id="linearGradient1526"
       gradientUnits="userSpaceOnUse"
       gradientTransform="matrix(0.0625,0,0,0.0625,-1.7923762,8.526273)"
       x1="68.058258"
       y1="52.766853"
       x2="93.905167"
       y2="48.329338" />
    <linearGradient
       gradientTransform="matrix(0.0625,0,0,0.0625,2.2985328,8.583091)"
       xlink:href="#linearGradient28"
       id="linearGradient30-9"
       x1="68.058258"
       y1="52.766853"
       x2="93.905167"
       y2="48.329338"
       gradientUnits="userSpaceOnUse" />
    <linearGradient
       xlink:href="#linearGradient28"
       id="linearGradient2120"
       gradientUnits="userSpaceOnUse"
       gradientTransform="matrix(-0.04785026,0,0,-0.05589801,61.027177,6.8616735)"
       x1="68.058258"
       y1="52.766853"
       x2="93.905167"
       y2="48.329338" />
    <linearGradient
       xlink:href="#linearGradient28"
       id="linearGradient2118"
       gradientUnits="userSpaceOnUse"
       gradientTransform="matrix(-0.04785026,0,0,-0.05589801,58.75445,6.8616735)"
       x1="68.058258"
       y1="52.766853"
       x2="93.905167"
       y2="48.329338" />
    <linearGradient
       xlink:href="#linearGradient28"
       id="linearGradient2116"
       gradientUnits="userSpaceOnUse"
       gradientTransform="matrix(-0.04785026,0,0,-0.05589801,56.405965,6.8616735)"
       x1="68.058258"
       y1="52.766853"
       x2="93.905167"
       y2="48.329338" />
    <linearGradient
       xlink:href="#linearGradient28"
       id="linearGradient2066"
       gradientUnits="userSpaceOnUse"
       gradientTransform="matrix(0.04785026,0,0,0.05589801,49.067214,8.5932485)"
       x1="68.058258"
       y1="52.766853"
       x2="93.905167"
       y2="48.329338" />
    <linearGradient
       xlink:href="#linearGradient28"
       id="linearGradient2048"
       gradientUnits="userSpaceOnUse"
       gradientTransform="matrix(0.04785026,0,0,0.05589801,51.339942,8.5932485)"
       x1="68.058258"
       y1="52.766853"
       x2="93.905167"
       y2="48.329338" />
    <linearGradient
       gradientTransform="matrix(0.04785026,0,0,0.05589801,53.688426,8.5932485)"
       xlink:href="#linearGradient28"
       id="linearGradient30-42"
       x1="68.058258"
       y1="52.766853"
       x2="93.905167"
       y2="48.329338"
       gradientUnits="userSpaceOnUse" />
    <linearGradient
       gradientTransform="matrix(-7.81785e-4,0.04887137,0.04887137,7.81785e-4,62.757095,3.8708137)"
       xlink:href="#linearGradient28"
       id="linearGradient30-7"
       x1="68.058258"
       y1="52.766853"
       x2="93.905167"
       y2="48.329338"
       gradientUnits="userSpaceOnUse" />
    <linearGradient
       xlink:href="#linearGradient28"
       id="linearGradient2120-2"
       gradientUnits="userSpaceOnUse"
       gradientTransform="matrix(-0.04785026,0,0,-0.05589801,71.02718,6.8616741)"
       x1="68.058258"
       y1="52.766853"
       x2="93.905167"
       y2="48.329338" />
    <linearGradient
       xlink:href="#linearGradient28"
       id="linearGradient2118-5"
       gradientUnits="userSpaceOnUse"
       gradientTransform="matrix(-0.04785026,0,0,-0.05589801,68.754453,6.8616741)"
       x1="68.058258"
       y1="52.766853"
       x2="93.905167"
       y2="48.329338" />
    <linearGradient
       xlink:href="#linearGradient28"
       id="linearGradient2116-4"
       gradientUnits="userSpaceOnUse"
       gradientTransform="matrix(-0.04785026,0,0,-0.05589801,66.405968,6.8616741)"
       x1="68.058258"
       y1="52.766853"
       x2="93.905167"
       y2="48.329338" />
    <linearGradient
       xlink:href="#linearGradient28"
       id="linearGradient2066-4"
       gradientUnits="userSpaceOnUse"
       gradientTransform="matrix(0.04785026,0,0,0.05589801,59.067217,8.593248)"
       x1="68.058258"
       y1="52.766853"
       x2="93.905167"
       y2="48.329338" />
    <linearGradient
       xlink:href="#linearGradient28"
       id="linearGradient2048-9"
       gradientUnits="userSpaceOnUse"
       gradientTransform="matrix(0.04785026,0,0,0.05589801,61.339944,8.593248)"
       x1="68.058258"
       y1="52.766853"
       x2="93.905167"
       y2="48.329338" />
    <linearGradient
       gradientTransform="matrix(0.04785026,0,0,0.05589801,63.688429,8.593248)"
       xlink:href="#linearGradient28"
       id="linearGradient30-93"
       x1="68.058258"
       y1="52.766853"
       x2="93.905167"
       y2="48.329338"
       gradientUnits="userSpaceOnUse" />
    <linearGradient
       xlink:href="#linearGradient28"
       id="linearGradient2337"
       gradientUnits="userSpaceOnUse"
       gradientTransform="matrix(-0.0417883,0,0,-0.04857198,75.583944,6.4314344)"
       x1="68.058258"
       y1="52.766853"
       x2="93.905167"
       y2="48.329338" />
    <linearGradient
       xlink:href="#linearGradient28"
       id="linearGradient2335"
       gradientUnits="userSpaceOnUse"
       gradientTransform="matrix(0.0417883,0,0,0.04857198,70.628178,2.0064654)"
       x1="68.058258"
       y1="52.766853"
       x2="93.905167"
       y2="48.329338" />
    <linearGradient
       xlink:href="#linearGradient28"
       id="linearGradient2333"
       gradientUnits="userSpaceOnUse"
       gradientTransform="matrix(-0.0417883,0,0,-0.04857198,79.296068,6.4974754)"
       x1="68.058258"
       y1="52.766853"
       x2="93.905167"
       y2="48.329338" />
    <linearGradient
       xlink:href="#linearGradient28"
       id="linearGradient2331"
       gradientUnits="userSpaceOnUse"
       gradientTransform="matrix(0.0417883,0,0,0.04857198,74.340299,2.0725074)"
       x1="68.058258"
       y1="52.766853"
       x2="93.905167"
       y2="48.329338" />
    <linearGradient
       xlink:href="#linearGradient28"
       id="linearGradient2265"
       gradientUnits="userSpaceOnUse"
       gradientTransform="matrix(-0.0417883,0,0,-0.04857198,75.640764,13.685222)"
       x1="68.058258"
       y1="52.766853"
       x2="93.905167"
       y2="48.329338" />
    <linearGradient
       xlink:href="#linearGradient28"
       id="linearGradient2263"
       gradientUnits="userSpaceOnUse"
       gradientTransform="matrix(0.0417883,0,0,0.04857198,70.684995,9.2602534)"
       x1="68.058258"
       y1="52.766853"
       x2="93.905167"
       y2="48.329338" />
    <linearGradient
       xlink:href="#linearGradient28"
       id="linearGradient2229"
       gradientUnits="userSpaceOnUse"
       gradientTransform="matrix(-0.0417883,0,0,-0.04857198,79.352887,13.751263)"
       x1="68.058258"
       y1="52.766853"
       x2="93.905167"
       y2="48.329338" />
    <linearGradient
       gradientTransform="matrix(0.0417883,0,0,0.04857198,74.397116,9.3262944)"
       xlink:href="#linearGradient28"
       id="linearGradient30-5"
       x1="68.058258"
       y1="52.766853"
       x2="93.905167"
       y2="48.329338"
       gradientUnits="userSpaceOnUse" />
    <linearGradient
       gradientTransform="matrix(0,0.0625,-0.070221,0,88.204672,3.0537241)"
       xlink:href="#linearGradient28"
       id="linearGradient30-7-7"
       x1="68.058258"
       y1="52.766853"
       x2="93.905167"
       y2="48.329338"
       gradientUnits="userSpaceOnUse" />
    <linearGradient
       xlink:href="#linearGradient28"
       id="linearGradient2337-9"
       gradientUnits="userSpaceOnUse"
       gradientTransform="matrix(-0.0417883,0,0,-0.04857198,85.583944,6.4314336)"
       x1="68.058258"
       y1="52.766853"
       x2="93.905167"
       y2="48.329338" />
    <linearGradient
       xlink:href="#linearGradient28"
       id="linearGradient2335-2"
       gradientUnits="userSpaceOnUse"
       gradientTransform="matrix(0.0417883,0,0,0.04857198,80.628177,2.0064647)"
       x1="68.058258"
       y1="52.766853"
       x2="93.905167"
       y2="48.329338" />
    <linearGradient
       xlink:href="#linearGradient28"
       id="linearGradient2333-8"
       gradientUnits="userSpaceOnUse"
       gradientTransform="matrix(-0.0417883,0,0,-0.04857198,89.296066,6.4974746)"
       x1="68.058258"
       y1="52.766853"
       x2="93.905167"
       y2="48.329338" />
    <linearGradient
       xlink:href="#linearGradient28"
       id="linearGradient2331-3"
       gradientUnits="userSpaceOnUse"
       gradientTransform="matrix(0.0417883,0,0,0.04857198,84.340298,2.0725065)"
       x1="68.058258"
       y1="52.766853"
       x2="93.905167"
       y2="48.329338" />
    <linearGradient
       xlink:href="#linearGradient28"
       id="linearGradient2265-0"
       gradientUnits="userSpaceOnUse"
       gradientTransform="matrix(-0.0417883,0,0,-0.04857198,85.640762,13.685222)"
       x1="68.058258"
       y1="52.766853"
       x2="93.905167"
       y2="48.329338" />
    <linearGradient
       xlink:href="#linearGradient28"
       id="linearGradient2263-1"
       gradientUnits="userSpaceOnUse"
       gradientTransform="matrix(0.0417883,0,0,0.04857198,80.684995,9.2602526)"
       x1="68.058258"
       y1="52.766853"
       x2="93.905167"
       y2="48.329338" />
    <linearGradient
       xlink:href="#linearGradient28"
       id="linearGradient2229-7"
       gradientUnits="userSpaceOnUse"
       gradientTransform="matrix(-0.0417883,0,0,-0.04857198,89.352884,13.751263)"
       x1="68.058258"
       y1="52.766853"
       x2="93.905167"
       y2="48.329338" />
    <linearGradient
       gradientTransform="matrix(0.0417883,0,0,0.04857198,84.397116,9.3262946)"
       xlink:href="#linearGradient28"
       id="linearGradient30-8"
       x1="68.058258"
       y1="52.766853"
       x2="93.905167"
       y2="48.329338"
       gradientUnits="userSpaceOnUse" />
    <linearGradient
       gradientUnits="userSpaceOnUse"
       y2="48.329338"
       x2="93.905167"
       y1="52.766853"
       x1="68.058258"
       id="linearGradient30-37"
       xlink:href="#linearGradient28"
       gradientTransform="matrix(-0.02567333,-0.01104562,0.01104562,-0.02567333,98.847603,4.8327149)" />
    <linearGradient
       gradientUnits="userSpaceOnUse"
       y2="71.008263"
       x2="88.849586"
       y1="58.644627"
       x1="82.105782"
       id="linearGradient1063"
       xlink:href="#linearGradient882"
       gradientTransform="matrix(0.0625,0,0,0.0625,89.999998,-1.2353516e-7)" />
    <linearGradient
       id="linearGradient882">
      <stop
         style="stop-color:#d16208;stop-opacity:1"
         offset="0"
         id="stop878" />
      <stop
         style="stop-color:#d16250;stop-opacity:0;"
         offset="1"
         id="stop880" />
    </linearGradient>
    <linearGradient
       gradientUnits="userSpaceOnUse"
       y2="68.472336"
       x2="56.128345"
       y1="63.697319"
       x1="61.166279"
       id="linearGradient876"
       xlink:href="#linearGradient882"
       gradientTransform="matrix(0.0625,0,0,0.0625,89.999998,-1.2353516e-7)" />
    <linearGradient
       gradientUnits="userSpaceOnUse"
       y2="48.329338"
       x2="93.905167"
       y1="52.766853"
       x1="68.058258"
       id="linearGradient30-0"
       xlink:href="#linearGradient28"
       gradientTransform="matrix(-0.02881053,-0.01239536,0.01239536,-0.02881053,108.70072,5.4503207)" />
    <linearGradient
       gradientUnits="userSpaceOnUse"
       y2="48.329338"
       x2="93.905167"
       y1="52.766853"
       x1="68.058258"
       id="linearGradient30-80"
       xlink:href="#linearGradient28"
       gradientTransform="matrix(-0.02849684,-0.0122604,0.0122604,-0.02849684,118.86314,5.4302307)" />
    <linearGradient
       xlink:href="#linearGradient846"
       id="linearGradient848"
       x1="72.37397"
       y1="53.171356"
       x2="72.19931"
       y2="45.564011"
       gradientUnits="userSpaceOnUse"
       gradientTransform="matrix(0.0625,0,0,0.0625,110,-2.6464844e-7)" />
    <linearGradient
       id="linearGradient846">
      <stop
         style="stop-color:#423abf;stop-opacity:1;"
         offset="0"
         id="stop842" />
      <stop
         style="stop-color:#423abf;stop-opacity:0;"
         offset="1"
         id="stop844" />
    </linearGradient>
  </defs>
  <flowRoot
     style="font-style:normal;font-variant:normal;font-weight:bold;font-stretch:normal;font-size:1px;line-height:1.25;font-family:'DejaVu Sans';-inkscape-font-specification:'DejaVu Sans Bold';letter-spacing:0px;word-spacing:0px;fill:#000000;fill-opacity:1;stroke:none;stroke-width:0.0625"
     id="flowRoot100"
     xml:space="preserve"><flowRegion
       style="stroke-width:0.0625"
       id="flowRegion102"><rect
         style="stroke-width:0.00390625"
         y="0.73863637"
         x="0.66287881"
         height="1.3636364"
         width="1.5151515"
         id="rect104" /></flowRegion><flowPara
       style="stroke-width:0.0625"
       id="flowPara106" /></flowRoot>  <rect
     y="0"
     x="0.040262766"
     height="15.625"
     width="10"
     id="clubs05"
     style="fill:#ffffff;fill-opacity:1;stroke:#1a1a1a;stroke-width:0.0625;stroke-opacity:1" />
  <rect
     y="1.306818"
     x="1.3849589"
     height="12.973484"
     width="7.2537889"
     id="rect108-07"
     style="fill:none;fill-opacity:1;stroke:#1a1a1a;stroke-width:0.0625;stroke-opacity:1" />
  <g
     id="flowRoot915-5"
     style="font-style:normal;font-variant:normal;font-weight:bold;font-stretch:normal;font-size:16px;line-height:1.25;font-family:'DejaVu Sans';-inkscape-font-specification:'DejaVu Sans Bold';text-align:start;letter-spacing:0px;word-spacing:0px;text-anchor:start;fill:#000000;fill-opacity:1;stroke:none"
     transform="matrix(0.0625,0,0,0.0625,0.22965677,-1.2880861e-7)"
     aria-label="5">
    <path
       id="path4015"
       d="M 4.7265625,7.0371094 H 12.203125 V 9.2480469 H 7.125 v 1.8046871 q 0.34375,-0.09375 0.6875,-0.140625 0.3515625,-0.05469 0.7265625,-0.05469 2.1328125,0 3.3203125,1.070312 1.1875,1.0625 1.1875,2.96875 0,1.890625 -1.296875,2.960938 -1.289062,1.070312 -3.5859375,1.070312 -0.9921875,0 -1.96875,-0.195312 -0.96875,-0.1875 -1.9296875,-0.578125 v -2.367188 q 0.953125,0.546875 1.8046875,0.820313 0.859375,0.273437 1.6171875,0.273437 1.09375,0 1.71875,-0.53125 0.632813,-0.539062 0.632813,-1.453125 0,-0.921875 -0.632813,-1.453125 -0.625,-0.53125 -1.71875,-0.53125 -0.6484375,0 -1.3828125,0.171875 -0.734375,0.164063 -1.578125,0.515625 z"
       inkscape:connector-curvature="0" />
  </g>
  <path
     style="fill:#ffff00;stroke:#000000;stroke-width:0.0625px;stroke-linecap:butt;stroke-linejoin:miter;stroke-opacity:1"
     d="m 7.8418378,9.091909 -0.23415,0.355561 0.01328,0.152003 -0.130024,0.300208 0.209358,0.33738 0.151555,0.0875 0.104904,0.118301 0.007,0.162829 -0.160377,0.15278 -0.124102,0.01495 0.107355,0.264054 0.132805,0.119976 0.07655,0.217404 0.02868,0.175329 -0.09665,0.117404 -0.08292,0.168629 0.0241,0.158253 0.05368,0.132028 0.186931,0.151226 0.01495,0.124102 -0.05168,0.114503 -0.0933,0.0616 -0.08538,0.02288 0.187709,0.32488 0.122756,0.28738 -0.08795,0.252331 -0.1375,0.238157 -0.107028,0.01038 -0.146651,0.204006 -0.205352,0.155681 -0.195753,0.08905 -0.131578,-0.0471 -0.227781,-0.03047 -0.341057,-0.0093 -0.216507,-0.125 -0.212708,-0.281579 -0.144856,-0.199103 -0.07533,-0.144526 -0.04821,-0.316506 0.01462,-0.150329 0.102901,-0.128229 0.282355,-0.03906 0.269856,-0.0174 -0.0183,-0.0683 -0.07198,-0.200328 0.075,-0.129904 0.158253,-0.0241 0.20278,0.07377 -0.08905,-0.195753 -0.08158,-0.133702 -0.03325,-0.192403 0.0413,-0.221531 -0.0083,-0.235705 0.01797,-0.20613 0.02255,-0.189054 -0.108253,-0.0625 -0.129904,-0.075 -0.02578,-0.130353 0.0375,-0.06495 0.07668,-0.157804 0.07623,-0.05703 -0.0241,-0.158254 -0.02075,-0.214054 -0.027,-0.203229 0.05212,-0.21528 0.11585,-0.250657 0.09208,-0.13448 0.0375,-0.06495 0.02712,-0.171978 -7.75e-4,-0.173654 0.138277,-0.0645 0.122428,0.01295 0.173205,0.1 0.184031,0.10625 z"
     id="path2551-8"
     inkscape:connector-curvature="0" />
  <path
     style="fill:#ffff00;stroke:#000000;stroke-width:0.0625px;stroke-linecap:butt;stroke-linejoin:miter;stroke-opacity:1"
     d="m 7.8944328,12.60081 -0.09976,-0.0241 -0.05026,-0.05071 -0.04232,-0.08952 0.0042,-0.06989 0.03131,-0.05424 0.07347,-0.102208 0.04048,-0.02002 0.07136,-0.06363"
     id="path2553-7"
     inkscape:connector-curvature="0" />
  <path
     style="fill:none;stroke:#000000;stroke-width:0.0625px;stroke-linecap:butt;stroke-linejoin:miter;stroke-opacity:1"
     d="m 6.9421338,12.325241 0.01491,0.136659 -0.0073,0.07531 c 0,0 0.0083,0.0053 -0.01944,0.03368 -0.02299,0.02351 -0.09535,0.102525 -0.09535,0.102525 l -0.104949,0.01895 -0.13359,-0.01826"
     id="path2555-0"
     inkscape:connector-curvature="0" />
  <path
     style="fill:none;stroke:#000000;stroke-width:0.0625px;stroke-linecap:butt;stroke-linejoin:miter;stroke-opacity:1"
     d="m 6.8118138,10.950963 0.127984,-0.02483 0.06011,-0.06653 0.0378,-0.115572 -0.0044,-0.0676 -0.06111,-0.05698 -0.105953,-0.10456 -0.07822,-0.05239 -0.04978,-0.05917"
     id="path2557-4"
     inkscape:connector-curvature="0" />
  <path
     style="fill:none;stroke:#000000;stroke-width:0.0625px;stroke-linecap:butt;stroke-linejoin:miter;stroke-opacity:1"
     d="m 7.6793058,10.773423 -0.106455,-0.01692 -0.06256,-0.07951 -0.03461,-0.07783 0.04009,-0.107017 0.03215,-0.06821 0.03757,-0.06508 0.04361,-0.02544 0.104949,-0.01895 0.117796,0.0101"
     id="path2559-8"
     inkscape:connector-curvature="0" />
  <path
     style="fill:none;stroke:#000000;stroke-width:0.0625px;stroke-linecap:butt;stroke-linejoin:miter;stroke-opacity:1"
     d="m 7.8418378,9.091909 -0.146222,0.08673 -0.104335,0.05546 -0.144592,0.02499 -0.133521,-0.01924 -0.11244,-0.04322 -0.110762,-0.07118 -0.09887,-0.135009"
     id="path2561-0"
     inkscape:connector-curvature="0" />
  <path
     style="fill:#008000;fill-opacity:1;stroke:none;stroke-width:0.00552427;stroke-opacity:0.02617804"
     d="m 7.7195318,9.216031 c -0.0045,0.0076 -0.03927,0.06052 -0.07725,0.117529 l -0.06907,0.10365 0.0022,0.02676 c 0.0012,0.01472 0.0041,0.0501 0.0066,0.07863 l 0.0044,0.05187 -0.06479,0.149283 c -0.03564,0.08211 -0.06533,0.152132 -0.06599,0.155615 -0.0021,0.01127 0.222428,0.36697 0.237149,0.375653 0.01324,0.0078 0.01199,0.0085 -0.03536,0.01945 -0.027,0.0062 -0.06099,0.01838 -0.07554,0.02698 -0.02607,0.0154 -0.0269,0.01651 -0.0584,0.07791 -0.01758,0.03426 -0.04378,0.09359 -0.05823,0.131857 l -0.02627,0.06957 0.01965,0.04434 c 0.011,0.02483 0.03632,0.06608 0.05755,0.09375 l 0.03791,0.04941 0.05048,0.0077 0.05048,0.0077 0.05114,0.126588 0.05114,0.126587 0.06597,0.05893 0.06597,0.05893 0.03708,0.105697 c 0.03996,0.11393 0.06737,0.245447 0.05543,0.265958 -0.0035,0.0061 -0.02335,0.03145 -0.04401,0.05636 -0.03397,0.04096 -0.04182,0.05396 -0.08204,0.135916 -0.02852,0.05809 -0.04404,0.09509 -0.04325,0.103068 0.0083,0.08437 0.02715,0.171938 0.04726,0.219829 0.01262,0.03006 0.02056,0.05658 0.01763,0.05895 -0.0029,0.0024 -0.01343,0.01212 -0.02336,0.02166 -0.0099,0.0095 -0.02875,0.02266 -0.04182,0.02914 -0.01996,0.0099 -0.02979,0.02016 -0.06122,0.0639 -0.06577,0.09156 -0.07666,0.114128 -0.07985,0.165516 -0.0025,0.04075 -6.75e-4,0.04917 0.02069,0.09424 0.01691,0.03567 0.03208,0.0583 0.05431,0.08106 l 0.03084,0.03158 0.0473,0.01095 0.0473,0.01095 0.091,0.157156 c 0.07268,0.125514 0.102156,0.183195 0.146388,0.286471 0.03046,0.07112 0.05629,0.13211 0.0574,0.135527 0.0011,0.0034 -0.01695,0.06076 -0.04015,0.127439 -0.04204,0.120866 -0.04235,0.121545 -0.104385,0.228829 l -0.0622,0.107613 -0.04162,0.0033 c -0.02289,0.0018 -0.04667,0.0039 -0.05283,0.0047 -0.0089,0.0011 -0.02648,0.02282 -0.0853,0.105218 l -0.07409,0.103802 -0.101675,0.07754 c -0.09456,0.07212 -0.107799,0.08032 -0.189187,0.117224 -0.04813,0.02182 -0.08997,0.03982 -0.09297,0.03999 -0.003,1.88e-4 -0.03093,-0.0091 -0.06207,-0.02069 -0.08388,-0.03112 -0.242632,-0.05101 -0.454357,-0.05693 l -0.167016,-0.0047 -0.10572,-0.06104 -0.105721,-0.06104 -0.10583,-0.140378 C 6.1284188,13.52398 6.0812128,13.456712 6.0437738,13.384367 l -0.03574,-0.06905 -0.02357,-0.155103 c -0.02127,-0.13997 -0.0229,-0.161647 -0.0167,-0.222182 l 0.0069,-0.06708 0.04372,-0.05441 c 0.02405,-0.02992 0.04598,-0.05482 0.04874,-0.05531 0.07551,-0.01355 0.292276,-0.03782 0.39593,-0.04434 0.107015,-0.0067 0.150737,-0.0066 0.201432,7.94e-4 0.05479,0.0079 0.07424,0.0076 0.126458,-0.0019 0.06107,-0.01119 0.06197,-0.01159 0.08743,-0.03925 0.01414,-0.01537 0.0433,-0.04704 0.06478,-0.07038 l 0.03907,-0.04243 0.0046,-0.05037 c 0.0025,-0.0277 0.0028,-0.06649 5e-4,-0.08619 -0.0052,-0.04544 -0.0039,-0.05321 0.0081,-0.04907 0.01372,0.0047 -0.105213,-0.252894 -0.15299,-0.331423 -0.03872,-0.06365 -0.03877,-0.06378 -0.05416,-0.15478 l -0.01541,-0.09108 0.02027,-0.106226 c 0.01911,-0.100134 0.02004,-0.113044 0.0162,-0.225092 -0.004,-0.115864 0.0028,-0.23345 0.02363,-0.408856 l 0.0096,-0.08059 0.03716,-0.0071 c 0.0785,-0.01501 0.07987,-0.01571 0.117732,-0.05975 l 0.03482,-0.0405 0.02014,-0.06347 c 0.01667,-0.05254 0.01969,-0.07058 0.01755,-0.104787 l -0.0026,-0.04132 -0.09486,-0.09089 c -0.05217,-0.04999 -0.110629,-0.101573 -0.129907,-0.114632 -0.05837,-0.03954 -0.06983,-0.0579 -0.08168,-0.130832 -0.0056,-0.03475 -0.01531,-0.114893 -0.02148,-0.178099 -0.0062,-0.0632 -0.01736,-0.161014 -0.02487,-0.217352 l -0.01365,-0.102433 0.02462,-0.101737 c 0.02359,-0.09748 0.02695,-0.106794 0.08037,-0.222638 0.05065,-0.109815 0.06059,-0.128058 0.108393,-0.198953 0.07624,-0.113065 0.08068,-0.121819 0.08912,-0.175635 0.0041,-0.02585 0.0085,-0.0473 0.01,-0.04766 0.0014,-3.75e-4 0.01281,0.01397 0.0253,0.03185 0.02022,0.02896 0.02927,0.03678 0.08297,0.07174 0.08389,0.0546 0.154912,0.08184 0.252289,0.09674 0.06605,0.01011 0.07869,0.0099 0.149974,-0.0022 0.06883,-0.0117 0.08461,-0.01685 0.136301,-0.0445 0.06999,-0.03744 0.06971,-0.03734 0.05938,-0.01983 z"
     id="path2563-4"
     inkscape:connector-curvature="0" />
  <path
     id="path2581-29"
     d="m 7.6625068,9.237824 c -0.100462,0.05432 -0.230654,0.06556 -0.365194,0.03153 -0.087,-0.022 -0.222608,-0.09991 -0.257423,-0.14789 -0.01287,-0.01774 -0.0237,-0.03165 -0.02406,-0.03092 -3.75e-4,7.38e-4 -0.0055,0.02293 -0.01138,0.04932 -0.0095,0.04269 -0.01892,0.06121 -0.08495,0.1677 -0.100012,0.161297 -0.152677,0.276727 -0.187965,0.411988 l -0.02716,0.104098 0.02637,0.227544 c 0.03082,0.26599 0.0404,0.324573 0.05743,0.351138 0.0069,0.01075 0.03365,0.036 0.05947,0.05611 0.02582,0.02011 0.08699,0.07444 0.135943,0.12072 l 0.089,0.08415 -1.88e-4,0.04533 c -1.87e-4,0.04895 -0.02305,0.13616 -0.0451,0.172056 -0.03129,0.05095 -0.0718,0.07989 -0.128538,0.0918 l -0.05421,0.01138 -0.01237,0.11671 c -0.01586,0.149567 -0.02144,0.252794 -0.01923,0.355471 0.0024,0.114058 -3.75e-4,0.151383 -0.0186,0.246841 -0.0087,0.04578 -0.01534,0.09352 -0.01466,0.106077 0.0031,0.05683 0.02707,0.165804 0.04264,0.193849 0.03853,0.06941 0.13943,0.274051 0.157071,0.318566 0.0104,0.02624 0.01642,0.05201 0.01338,0.05728 -0.003,0.0053 -0.0043,0.03338 -0.0029,0.06247 0.0015,0.02909 10e-4,0.06901 -9.81e-4,0.0887 l -0.0036,0.0358 -0.06242,0.06741 -0.06242,0.06741 -0.05796,0.01372 c -0.04042,0.0096 -0.08376,0.01152 -0.143243,0.0064 -0.04691,-0.004 -0.139225,-0.0035 -0.205153,0.0012 -0.127889,0.009 -0.35925,0.03525 -0.380802,0.04322 -0.0071,0.0026 -0.03187,0.02877 -0.05494,0.05805 l -0.04194,0.05324 -0.0045,0.07055 c -0.0027,0.04319 0.0037,0.127441 0.01667,0.217288 0.02847,0.197683 0.04261,0.224049 0.313622,0.584544 l 0.124355,0.165417 0.108563,0.06268 0.108563,0.06268 0.08976,0.0021 c 0.249791,0.0059 0.413619,0.02404 0.517953,0.05729 0.03524,0.01123 0.07024,0.01937 0.07776,0.01808 0.04328,-0.0074 0.190987,-0.091 0.278725,-0.157775 0.09396,-0.07151 0.09724,-0.07486 0.166942,-0.170932 0.0391,-0.05389 0.07479,-0.100979 0.0793,-0.104633 0.0045,-0.0037 0.02896,-0.0082 0.05434,-0.01012 l 0.04613,-0.0035 0.0645,-0.111715 c 0.05652,-0.09789 0.0695,-0.126279 0.10494,-0.229394 l 0.04044,-0.117681 -0.04784,-0.110899 c -0.05701,-0.132148 -0.08386,-0.184799 -0.176257,-0.34562 l -0.0699,-0.121665 -0.04824,-0.0114 c -0.04599,-0.01087 -0.04956,-0.01287 -0.07646,-0.04281 -0.01552,-0.01727 -0.03922,-0.05179 -0.05267,-0.07672 -0.02,-0.03706 -0.02408,-0.05535 -0.02239,-0.100348 l 0.0021,-0.05503 0.04526,-0.06833 c 0.0485,-0.07323 0.05729,-0.08283 0.117972,-0.128951 l 0.03938,-0.02993 -0.02584,-0.08501 c -0.01421,-0.04676 -0.02918,-0.110132 -0.03326,-0.140833 -0.0065,-0.04903 -0.0048,-0.06215 0.01424,-0.107873 0.02931,-0.07041 0.07285,-0.145177 0.116638,-0.200309 0.03609,-0.04544 0.03629,-0.04593 0.03192,-0.08146 -0.0073,-0.05898 -0.03119,-0.150905 -0.06305,-0.242125 l -0.03006,-0.08607 -0.0658,-0.05853 -0.0658,-0.05853 -0.04797,-0.119584 c -0.02638,-0.06577 -0.05045,-0.122825 -0.05349,-0.126786 -0.003,-0.004 -0.02455,-0.01004 -0.04782,-0.01351 -0.02326,-0.0035 -0.04728,-0.0092 -0.05336,-0.0127 -0.01523,-0.0088 -0.09457,-0.129252 -0.10634,-0.161449 -0.0083,-0.02284 -0.0061,-0.03502 0.0169,-0.09367 0.04378,-0.11141 0.08535,-0.192545 0.105215,-0.205375 0.0096,-0.0062 0.04165,-0.01814 0.07118,-0.02651 0.02954,-0.0084 0.05286,-0.0168 0.05183,-0.01874 -0.001,-0.0019 -0.03274,-0.05003 -0.07047,-0.106887 -0.05479,-0.08257 -0.164904,-0.26024 -0.16825,-0.271476 -3.75e-4,-0.0013 0.02873,-0.0707 0.06471,-0.154206 l 0.06542,-0.151826 -0.0061,-0.08014 -0.0061,-0.08014 0.06071,-0.09006 c 0.03339,-0.04953 0.0652,-0.09999 0.0707,-0.11212 0.0099,-0.02186 0.0095,-0.02182 -0.03859,0.0042 z"
     style="fill:url(#linearGradient30-9);fill-opacity:1;fill-rule:nonzero;stroke:#000000;stroke-width:0.00766144;stroke-miterlimit:4;stroke-dasharray:0.00766144, 0.01532289;stroke-dashoffset:0;stroke-opacity:0.96254536"
     inkscape:connector-curvature="0" />
  <path
     id="path1510"
     d="m 3.7509288,9.035091 -0.23415,0.35556 0.01328,0.152004 -0.130023,0.300208 0.209358,0.33738 0.151555,0.0875 0.104904,0.118301 0.007,0.162829 -0.160376,0.15278 -0.124102,0.01495 0.107355,0.264054 0.132805,0.119976 0.07655,0.217404 0.02868,0.175329 -0.09665,0.117403 -0.08293,0.16863 0.0241,0.158253 0.05368,0.132027 0.186931,0.151227 0.01495,0.124102 -0.05167,0.114503 -0.0933,0.0616 -0.08538,0.02288 0.187709,0.32488 0.122756,0.28738 -0.08795,0.252331 -0.1375,0.238157 -0.107027,0.01038 -0.146651,0.204006 -0.205352,0.155681 -0.195753,0.08905 -0.131578,-0.0471 -0.227781,-0.03047 -0.341058,-0.0093 -0.216506,-0.125 -0.212708,-0.281579 -0.144856,-0.199103 -0.07533,-0.144527 -0.0482,-0.316506 0.01462,-0.150328 0.102901,-0.128229 0.282355,-0.03906 0.269856,-0.0174 -0.0183,-0.0683 -0.07198,-0.200328 0.075,-0.129904 0.158253,-0.0241 0.20278,0.07377 -0.08906,-0.195753 -0.08158,-0.133702 -0.03325,-0.192403 0.0413,-0.221531 -0.0083,-0.235705 0.01797,-0.20613 0.02255,-0.189054 -0.108253,-0.0625 -0.129904,-0.075 -0.02578,-0.130353 0.0375,-0.06495 0.07668,-0.157804 0.07623,-0.05703 -0.0241,-0.158254 -0.02075,-0.214054 -0.027,-0.203229 0.05212,-0.215281 0.115849,-0.250656 0.09208,-0.13448 0.0375,-0.06495 0.02712,-0.171978 -7.75e-4,-0.173654 0.138277,-0.0645 0.122428,0.01295 0.173205,0.1 0.184031,0.10625 z"
     style="fill:#ffff00;stroke:#000000;stroke-width:0.0625px;stroke-linecap:butt;stroke-linejoin:miter;stroke-opacity:1"
     inkscape:connector-curvature="0" />
  <path
     id="path1512"
     d="m 3.8035238,12.543992 -0.09976,-0.0241 -0.05027,-0.05071 -0.04232,-0.08952 0.0042,-0.06989 0.03131,-0.05424 0.07347,-0.102207 0.04048,-0.02002 0.07136,-0.06363"
     style="fill:#ffff00;stroke:#000000;stroke-width:0.0625px;stroke-linecap:butt;stroke-linejoin:miter;stroke-opacity:1"
     inkscape:connector-curvature="0" />
  <path
     id="path1514"
     d="m 2.8512248,12.268423 0.0149,0.136658 -0.0073,0.07531 c 0,0 0.0083,0.0053 -0.01944,0.03368 -0.02299,0.02351 -0.09535,0.102525 -0.09535,0.102525 l -0.104949,0.01895 -0.13359,-0.01826"
     style="fill:none;stroke:#000000;stroke-width:0.0625px;stroke-linecap:butt;stroke-linejoin:miter;stroke-opacity:1"
     inkscape:connector-curvature="0" />
  <path
     id="path1516"
     d="m 2.7209048,10.894145 0.127984,-0.02483 0.06011,-0.06654 0.0378,-0.115572 -0.0044,-0.0676 -0.06111,-0.05698 -0.105954,-0.10456 -0.07822,-0.05239 -0.04978,-0.05917"
     style="fill:none;stroke:#000000;stroke-width:0.0625px;stroke-linecap:butt;stroke-linejoin:miter;stroke-opacity:1"
     inkscape:connector-curvature="0" />
  <path
     id="path1518"
     d="m 3.5883968,10.716605 -0.106455,-0.01692 -0.06256,-0.07951 -0.03461,-0.07783 0.04009,-0.107017 0.03215,-0.06821 0.03758,-0.06508 0.04361,-0.02544 0.104949,-0.01895 0.117796,0.0101"
     style="fill:none;stroke:#000000;stroke-width:0.0625px;stroke-linecap:butt;stroke-linejoin:miter;stroke-opacity:1"
     inkscape:connector-curvature="0" />
  <path
     id="path1520"
     d="m 3.7509288,9.035091 -0.146222,0.08673 -0.104335,0.05546 -0.144592,0.02499 -0.133521,-0.01924 -0.11244,-0.04322 -0.110762,-0.07118 -0.09887,-0.135009"
     style="fill:none;stroke:#000000;stroke-width:0.0625px;stroke-linecap:butt;stroke-linejoin:miter;stroke-opacity:1"
     inkscape:connector-curvature="0" />
  <path
     id="path1522"
     d="m 3.6286228,9.159213 c -0.0045,0.0076 -0.03927,0.06052 -0.07725,0.117528 l -0.06907,0.103651 0.0022,0.02676 c 0.0012,0.01472 0.0041,0.0501 0.0066,0.07863 l 0.0044,0.05187 -0.06479,0.149283 c -0.03564,0.08211 -0.06533,0.152132 -0.06599,0.155615 -0.0021,0.01127 0.222428,0.36697 0.237149,0.375653 0.01324,0.0078 0.01199,0.0085 -0.03536,0.01945 -0.027,0.0062 -0.06099,0.01838 -0.07554,0.02698 -0.02607,0.0154 -0.0269,0.01651 -0.0584,0.07791 -0.01758,0.03426 -0.04378,0.09359 -0.05823,0.131857 l -0.02627,0.06957 0.01964,0.04434 c 0.011,0.02483 0.03632,0.06608 0.05755,0.09375 l 0.03791,0.04941 0.05048,0.0077 0.05048,0.0077 0.05113,0.126588 0.05114,0.126587 0.06597,0.05893 0.06597,0.05893 0.03708,0.105697 c 0.03996,0.11393 0.06737,0.245447 0.05543,0.265958 -0.0035,0.0061 -0.02335,0.03145 -0.04401,0.05636 -0.03397,0.04096 -0.04181,0.05396 -0.08204,0.135916 -0.02852,0.05809 -0.04404,0.09509 -0.04325,0.103067 0.0083,0.08437 0.02715,0.171939 0.04726,0.21983 0.01262,0.03006 0.02056,0.05658 0.01763,0.05895 -0.0029,0.0024 -0.01343,0.01212 -0.02336,0.02166 -0.0099,0.0095 -0.02875,0.02266 -0.04182,0.02914 -0.01996,0.0099 -0.02979,0.02016 -0.06122,0.0639 -0.06577,0.09156 -0.07666,0.114128 -0.07985,0.165516 -0.0025,0.04075 -6.75e-4,0.04917 0.02069,0.09424 0.01691,0.03567 0.03208,0.0583 0.05431,0.08106 l 0.03084,0.03158 0.0473,0.01095 0.0473,0.01095 0.091,0.157156 c 0.07268,0.125514 0.102157,0.183194 0.146389,0.286471 0.03046,0.07112 0.05629,0.13211 0.0574,0.135527 0.0011,0.0034 -0.01696,0.06076 -0.04015,0.127439 -0.04204,0.120866 -0.04235,0.121545 -0.104385,0.228829 l -0.0622,0.107613 -0.04162,0.0033 c -0.02289,0.0018 -0.04667,0.0039 -0.05283,0.0047 -0.0089,0.0011 -0.02648,0.02282 -0.08529,0.105218 l -0.07409,0.103802 -0.101675,0.07754 c -0.09456,0.07212 -0.107798,0.08032 -0.189186,0.117223 -0.04813,0.02182 -0.08997,0.03982 -0.09297,0.03999 -0.003,1.88e-4 -0.03093,-0.0091 -0.06207,-0.02069 -0.08388,-0.03112 -0.242633,-0.05101 -0.454358,-0.05693 l -0.167015,-0.0047 -0.10572,-0.06104 -0.105721,-0.06104 -0.10583,-0.140378 c -0.19273,-0.255642 -0.239935,-0.32291 -0.277374,-0.395255 l -0.03574,-0.06905 -0.02357,-0.155103 c -0.02127,-0.139971 -0.0229,-0.161647 -0.0167,-0.222182 l 0.0069,-0.06708 0.04372,-0.05441 c 0.02405,-0.02992 0.04598,-0.05482 0.04874,-0.05531 0.07551,-0.01355 0.292276,-0.03782 0.39593,-0.04434 0.107015,-0.0067 0.150737,-0.0066 0.201431,7.94e-4 0.05479,0.0079 0.07424,0.0076 0.126459,-0.0019 0.06107,-0.01119 0.06197,-0.01159 0.08743,-0.03926 0.01414,-0.01537 0.0433,-0.04704 0.06479,-0.07038 l 0.03907,-0.04243 0.0046,-0.05037 c 0.0025,-0.0277 0.0028,-0.06649 5e-4,-0.08619 -0.0052,-0.04544 -0.0039,-0.05321 0.008,-0.04907 0.01372,0.0047 -0.105213,-0.252894 -0.15299,-0.331423 -0.03872,-0.06365 -0.03877,-0.06378 -0.05416,-0.15478 l -0.01541,-0.09108 0.02027,-0.106227 c 0.01911,-0.100133 0.02004,-0.113043 0.0162,-0.225091 -0.004,-0.115864 0.0028,-0.23345 0.02363,-0.408856 l 0.0096,-0.08059 0.03716,-0.0071 c 0.0785,-0.01501 0.07987,-0.01571 0.117732,-0.05975 l 0.03482,-0.0405 0.02014,-0.06347 c 0.01667,-0.05254 0.01969,-0.07058 0.01755,-0.104786 l -0.0026,-0.04132 -0.09486,-0.09089 c -0.05217,-0.04999 -0.110629,-0.101573 -0.129907,-0.114632 -0.05837,-0.03954 -0.06983,-0.0579 -0.08168,-0.130833 -0.0056,-0.03475 -0.01531,-0.114892 -0.02148,-0.178098 -0.0062,-0.0632 -0.01736,-0.161014 -0.02487,-0.217352 l -0.01365,-0.102433 0.02461,-0.101737 c 0.02359,-0.09748 0.02695,-0.106794 0.08037,-0.222638 0.05065,-0.109815 0.06059,-0.128058 0.108393,-0.198953 0.07624,-0.113065 0.08068,-0.121819 0.08912,-0.175635 0.0041,-0.02585 0.0085,-0.0473 0.01,-0.04765 0.0014,-3.75e-4 0.01282,0.01397 0.0253,0.03185 0.02022,0.02896 0.02927,0.03678 0.08297,0.07174 0.08389,0.0546 0.154912,0.08184 0.252289,0.09674 0.06605,0.01011 0.07869,0.0099 0.149974,-0.0022 0.06883,-0.0117 0.08461,-0.01685 0.1363,-0.0445 0.06999,-0.03744 0.06971,-0.03734 0.05938,-0.01983 z"
     style="fill:#008000;fill-opacity:1;stroke:none;stroke-width:0.00552427;stroke-opacity:0.02617804"
     inkscape:connector-curvature="0" />
  <path
     style="fill:url(#linearGradient1526);fill-opacity:1;fill-rule:nonzero;stroke:#000000;stroke-width:0.00766144;stroke-miterlimit:4;stroke-dasharray:0.00766144, 0.01532289;stroke-dashoffset:0;stroke-opacity:0.96254536"
     d="m 3.5715978,9.181006 c -0.100463,0.05432 -0.230654,0.06556 -0.365194,0.03153 -0.087,-0.022 -0.222609,-0.09991 -0.257424,-0.147891 -0.01287,-0.01774 -0.0237,-0.03165 -0.02406,-0.03091 -3.75e-4,7.38e-4 -0.0055,0.02293 -0.01138,0.04932 -0.0095,0.04269 -0.01891,0.06121 -0.08495,0.1677 -0.100012,0.161296 -0.152677,0.276727 -0.187965,0.411988 l -0.02716,0.104098 0.02637,0.227544 c 0.03082,0.26599 0.04041,0.324573 0.05743,0.351138 0.0069,0.01075 0.03365,0.036 0.05947,0.05611 0.02582,0.02011 0.08699,0.07444 0.135943,0.12072 l 0.089,0.08415 -1.88e-4,0.04532 c -1.87e-4,0.04895 -0.02305,0.136161 -0.0451,0.172057 -0.03129,0.05095 -0.07181,0.07989 -0.128538,0.0918 l -0.05421,0.01138 -0.01237,0.11671 c -0.01586,0.149567 -0.02144,0.252793 -0.01923,0.355471 0.0025,0.114057 -3.75e-4,0.151383 -0.0186,0.246841 -0.0087,0.04578 -0.01535,0.09352 -0.01466,0.106077 0.0031,0.05683 0.02707,0.165804 0.04264,0.193849 0.03853,0.06941 0.13943,0.274051 0.157072,0.318566 0.0104,0.02624 0.01642,0.05201 0.01338,0.05728 -0.003,0.0053 -0.0043,0.03338 -0.0029,0.06247 0.0014,0.02909 0.001,0.06901 -9.81e-4,0.0887 l -0.0036,0.0358 -0.06242,0.06741 -0.06242,0.06741 -0.05796,0.01372 c -0.04042,0.0096 -0.08376,0.01152 -0.143243,0.0064 -0.04691,-0.004 -0.139225,-0.0035 -0.205153,0.0012 -0.127889,0.009 -0.35925,0.03525 -0.380802,0.04322 -0.0071,0.0026 -0.03187,0.02877 -0.05494,0.05805 l -0.04194,0.05324 -0.0045,0.07055 c -0.0027,0.04319 0.0037,0.127442 0.01667,0.217289 0.02846,0.197683 0.04261,0.224049 0.313621,0.584544 l 0.124356,0.165417 0.108563,0.06268 0.108563,0.06268 0.08976,0.0021 c 0.249791,0.0059 0.413619,0.02404 0.517953,0.05729 0.03525,0.01123 0.07024,0.01937 0.07776,0.01808 0.04328,-0.0074 0.190986,-0.091 0.278725,-0.157775 0.09396,-0.07151 0.09724,-0.07486 0.166941,-0.170932 0.0391,-0.05389 0.07479,-0.100979 0.0793,-0.104634 0.0045,-0.0037 0.02896,-0.0082 0.05434,-0.01012 l 0.04613,-0.0035 0.0645,-0.111714 c 0.05652,-0.09789 0.0695,-0.126279 0.10494,-0.229394 l 0.04044,-0.117681 -0.04784,-0.110899 c -0.05701,-0.132148 -0.08386,-0.184799 -0.176257,-0.34562 l -0.0699,-0.121665 -0.04824,-0.0114 c -0.04599,-0.01087 -0.04956,-0.01287 -0.07646,-0.04281 -0.01552,-0.01727 -0.03922,-0.05179 -0.05267,-0.07672 -0.02,-0.03706 -0.02408,-0.05535 -0.02239,-0.100348 l 0.0021,-0.05503 0.04526,-0.06833 c 0.0485,-0.07323 0.05729,-0.08283 0.117973,-0.128951 l 0.03938,-0.02993 -0.02584,-0.08501 c -0.01421,-0.04676 -0.02918,-0.110132 -0.03326,-0.140833 -0.0065,-0.04903 -0.0048,-0.06215 0.01424,-0.107873 0.02931,-0.07041 0.07285,-0.145177 0.116638,-0.200309 0.03609,-0.04544 0.03629,-0.04594 0.03192,-0.08146 -0.0073,-0.05898 -0.03119,-0.150905 -0.06305,-0.242125 l -0.03006,-0.08607 -0.0658,-0.05853 -0.0658,-0.05853 -0.04797,-0.119584 c -0.02638,-0.06577 -0.05045,-0.122825 -0.05349,-0.126786 -0.003,-0.004 -0.02455,-0.01004 -0.04782,-0.01351 -0.02326,-0.0035 -0.04728,-0.0092 -0.05336,-0.0127 -0.01523,-0.0088 -0.09457,-0.129252 -0.10634,-0.161449 -0.0083,-0.02284 -0.0062,-0.03502 0.0169,-0.09367 0.04378,-0.11141 0.08535,-0.192545 0.105215,-0.205375 0.0096,-0.0062 0.04165,-0.01814 0.07118,-0.02651 0.02954,-0.0084 0.05286,-0.0168 0.05183,-0.01874 -10e-4,-0.0019 -0.03274,-0.05003 -0.07047,-0.106886 -0.05479,-0.08257 -0.164903,-0.26024 -0.16825,-0.271476 -3.75e-4,-0.0013 0.02873,-0.0707 0.06471,-0.154206 l 0.06542,-0.151827 -0.0061,-0.08014 -0.0062,-0.08014 0.06071,-0.09006 c 0.03339,-0.04953 0.0652,-0.09999 0.0707,-0.11212 0.0099,-0.02185 0.0095,-0.02182 -0.03859,0.0042 z"
     id="path1524"
     inkscape:connector-curvature="0" />
  <path
     id="path1528"
     d="m 2.2955068,6.495213 0.23415,-0.355561 -0.01328,-0.152003 0.130024,-0.300208 -0.209358,-0.33738 -0.151555,-0.0875 -0.104904,-0.118302 -0.007,-0.162828 0.160376,-0.15278 0.124103,-0.01495 -0.107356,-0.264055 -0.132804,-0.119976 -0.07655,-0.217404 -0.02868,-0.175328 0.09665,-0.117404 0.08293,-0.168629 -0.0241,-0.158254 -0.05368,-0.132027 -0.18693,-0.151226 -0.01495,-0.124103 0.05167,-0.114503 0.0933,-0.0616 0.08538,-0.02288 -0.187709,-0.32488 -0.122756,-0.28738 0.08795,-0.252331 0.1375,-0.238157 0.107027,-0.01038 0.146651,-0.204006 0.205353,-0.1556814 0.195753,-0.089054 0.131578,0.047099 0.22778,0.030473 0.341058,0.00927 0.216506,0.1249994 0.212708,0.281579 0.144856,0.199103 0.07533,0.144527 0.04821,0.316506 -0.01462,0.150329 -0.1029,0.128228 -0.282356,0.03905 -0.269855,0.0174 0.0183,0.0683 0.07198,0.200329 -0.075,0.129903 -0.158253,0.0241 -0.20278,-0.07377 0.08905,0.195753 0.08158,0.133702 0.03325,0.192404 -0.0413,0.22153 0.0083,0.235705 -0.01797,0.20613 -0.02255,0.189055 0.108253,0.0625 0.129903,0.075 0.02578,0.130352 -0.0375,0.06495 -0.07668,0.157805 -0.07623,0.05703 0.0241,0.158254 0.02075,0.214055 0.027,0.203228 -0.05212,0.215281 -0.115849,0.250657 -0.09208,0.134479 -0.0375,0.06495 -0.02712,0.171979 7.75e-4,0.173654 -0.138277,0.0645 -0.122428,-0.01295 -0.173205,-0.1 -0.18403,-0.10625 z"
     style="fill:#ffff00;stroke:#000000;stroke-width:0.0625px;stroke-linecap:butt;stroke-linejoin:miter;stroke-opacity:1"
     inkscape:connector-curvature="0" />
  <path
     id="path1530"
     d="m 2.2429108,2.986311 0.09976,0.0241 0.05027,0.05071 0.04232,0.08952 -0.0042,0.06989 -0.03131,0.05424 -0.07347,0.102207 -0.04048,0.02002 -0.07136,0.06363"
     style="fill:#ffff00;stroke:#000000;stroke-width:0.0625px;stroke-linecap:butt;stroke-linejoin:miter;stroke-opacity:1"
     inkscape:connector-curvature="0" />
  <path
     id="path1532"
     d="m 3.1952108,3.26188 -0.01491,-0.136658 0.0073,-0.07531 c 0,0 -0.0083,-0.0053 0.01944,-0.03368 0.02299,-0.02351 0.09535,-0.102526 0.09535,-0.102526 l 0.10495,-0.01895 0.13359,0.01826"
     style="fill:none;stroke:#000000;stroke-width:0.0625px;stroke-linecap:butt;stroke-linejoin:miter;stroke-opacity:1"
     inkscape:connector-curvature="0" />
  <path
     id="path1534"
     d="m 3.3255308,4.636159 -0.127984,0.02483 -0.06011,0.06654 -0.0378,0.115572 0.0044,0.0676 0.06111,0.05698 0.105953,0.10456 0.07822,0.05239 0.04978,0.05917"
     style="fill:none;stroke:#000000;stroke-width:0.0625px;stroke-linecap:butt;stroke-linejoin:miter;stroke-opacity:1"
     inkscape:connector-curvature="0" />
  <path
     id="path1536"
     d="m 2.4580388,4.813699 0.106455,0.01692 0.06256,0.07951 0.03461,0.07783 -0.04009,0.107016 -0.03215,0.06821 -0.03758,0.06508 -0.04361,0.02544 -0.10495,0.01895 -0.117795,-0.0101"
     style="fill:none;stroke:#000000;stroke-width:0.0625px;stroke-linecap:butt;stroke-linejoin:miter;stroke-opacity:1"
     inkscape:connector-curvature="0" />
  <path
     id="path1538"
     d="m 2.2955068,6.495213 0.146222,-0.08673 0.104335,-0.05546 0.144592,-0.02499 0.13352,0.01924 0.11244,0.04322 0.110763,0.07118 0.09887,0.135009"
     style="fill:none;stroke:#000000;stroke-width:0.0625px;stroke-linecap:butt;stroke-linejoin:miter;stroke-opacity:1"
     inkscape:connector-curvature="0" />
  <path
     id="path1540"
     d="m 2.4178118,6.37109 c 0.0045,-0.0076 0.03927,-0.06052 0.07725,-0.117528 l 0.06907,-0.103651 -0.0022,-0.02676 c -0.0012,-0.01472 -0.0041,-0.0501 -0.0066,-0.07863 l -0.0044,-0.05187 0.06479,-0.149282 c 0.03564,-0.08211 0.06533,-0.152133 0.06599,-0.155616 0.0021,-0.01127 -0.222428,-0.366969 -0.23715,-0.375652 -0.01324,-0.0078 -0.01199,-0.0085 0.03536,-0.01945 0.027,-0.0062 0.06099,-0.01839 0.07554,-0.02698 0.02607,-0.0154 0.0269,-0.01651 0.0584,-0.07791 0.01758,-0.03426 0.04378,-0.09359 0.05823,-0.131857 l 0.02627,-0.06957 -0.01964,-0.04434 c -0.011,-0.02483 -0.03633,-0.06608 -0.05755,-0.09375 l -0.03791,-0.04941 -0.05048,-0.0077 -0.05048,-0.0077 -0.05113,-0.126588 -0.05114,-0.126588 -0.06597,-0.05893 -0.06597,-0.05893 -0.03708,-0.105696 c -0.03996,-0.11393 -0.06737,-0.245448 -0.05543,-0.265959 0.0035,-0.0061 0.02335,-0.03145 0.04401,-0.05636 0.03397,-0.04096 0.04182,-0.05396 0.08204,-0.135916 0.02852,-0.05809 0.04404,-0.09509 0.04325,-0.103067 -0.0083,-0.08437 -0.02715,-0.171939 -0.04726,-0.219829 -0.01262,-0.03006 -0.02056,-0.05659 -0.01763,-0.05895 0.0029,-0.0024 0.01343,-0.01212 0.02336,-0.02166 0.0099,-0.0095 0.02875,-0.02266 0.04182,-0.02914 0.01996,-0.0099 0.02979,-0.02016 0.06122,-0.0639 0.06577,-0.09156 0.07666,-0.114128 0.07985,-0.165517 0.0025,-0.04075 6.75e-4,-0.04917 -0.02069,-0.09423 -0.01692,-0.03567 -0.03208,-0.0583 -0.05431,-0.08106 l -0.03084,-0.03158 -0.0473,-0.01095 -0.0473,-0.01095 -0.09101,-0.157157 c -0.07268,-0.125513 -0.102157,-0.183194 -0.146389,-0.286471 -0.03046,-0.07112 -0.05629,-0.13211 -0.0574,-0.135527 -0.0011,-0.0034 0.01695,-0.06076 0.04015,-0.127439 0.04204,-0.120866 0.04235,-0.121545 0.104385,-0.228829 l 0.0622,-0.107613 0.04162,-0.0033 c 0.02289,-0.0018 0.04667,-0.0039 0.05283,-0.0047 0.0089,-0.0011 0.02648,-0.02282 0.08529,-0.105218 l 0.07409,-0.103802 0.101675,-0.07754 c 0.09456,-0.07212 0.107798,-0.08032 0.189187,-0.1172235 0.04813,-0.021824 0.08997,-0.03982 0.09297,-0.039992 0.003,-1.875e-4 0.03093,0.00914 0.06207,0.020689 0.08388,0.031118 0.242633,0.051011 0.454358,0.056935 l 0.167016,0.0047 0.10572,0.06104 0.10572,0.06104 0.105831,0.140378 c 0.192729,0.255642 0.239934,0.32291 0.277373,0.395255 l 0.03574,0.06905 0.02357,0.155103 c 0.02127,0.139971 0.0229,0.161648 0.0167,0.222182 l -0.0069,0.06708 -0.04372,0.05441 c -0.02405,0.02992 -0.04598,0.05482 -0.04874,0.05531 -0.07551,0.01355 -0.292275,0.03782 -0.395929,0.04434 -0.107016,0.0067 -0.150738,0.0066 -0.201432,-7.94e-4 -0.05479,-0.0079 -0.07424,-0.0076 -0.126458,0.0019 -0.06108,0.01119 -0.06198,0.01159 -0.08743,0.03925 -0.01414,0.01537 -0.0433,0.04704 -0.06478,0.07038 l -0.03907,0.04243 -0.0046,0.05037 c -0.0025,0.0277 -0.0028,0.06649 -5e-4,0.08619 0.0052,0.04544 0.0039,0.05321 -0.008,0.04908 -0.01372,-0.0047 0.105213,0.252894 0.152991,0.331422 0.03872,0.06365 0.03877,0.06378 0.05416,0.15478 l 0.01541,0.09108 -0.02027,0.106226 c -0.01911,0.100133 -0.02004,0.113044 -0.0162,0.225091 0.004,0.115865 -0.0028,0.233451 -0.02363,0.408856 l -0.0096,0.0806 -0.03716,0.0071 c -0.0785,0.01501 -0.07987,0.01571 -0.117732,0.05975 l -0.03482,0.0405 -0.02014,0.06347 c -0.01667,0.05254 -0.01969,0.07058 -0.01755,0.104786 l 0.0026,0.04132 0.09486,0.09089 c 0.05217,0.04999 0.11063,0.101573 0.129908,0.114631 0.05837,0.03954 0.06983,0.0579 0.08168,0.130833 0.0056,0.03475 0.01531,0.114892 0.02148,0.178098 0.0062,0.06321 0.01736,0.161014 0.02487,0.217353 l 0.01365,0.102433 -0.02462,0.101737 c -0.02358,0.09748 -0.02695,0.106793 -0.08037,0.222638 -0.05065,0.109814 -0.06058,0.128057 -0.108392,0.198953 -0.07624,0.113064 -0.08068,0.121819 -0.08912,0.175634 -0.0041,0.02585 -0.0085,0.0473 -0.01,0.04766 -0.0014,3.75e-4 -0.01282,-0.01397 -0.0253,-0.03185 -0.02022,-0.02896 -0.02927,-0.03678 -0.08297,-0.07174 -0.08389,-0.0546 -0.154912,-0.08184 -0.25229,-0.09674 -0.06605,-0.01011 -0.07869,-0.0099 -0.149973,0.0022 -0.06883,0.0117 -0.08461,0.01686 -0.136301,0.0445 -0.06999,0.03744 -0.06971,0.03734 -0.05938,0.01983 z"
     style="fill:#008000;fill-opacity:1;stroke:none;stroke-width:0.00552427;stroke-opacity:0.02617804"
     inkscape:connector-curvature="0" />
  <path
     style="fill:url(#linearGradient1560);fill-opacity:1;fill-rule:nonzero;stroke:#000000;stroke-width:0.00766144;stroke-miterlimit:4;stroke-dasharray:0.00766144, 0.01532289;stroke-dashoffset:0;stroke-opacity:0.96254536"
     d="m 2.4748368,6.349298 c 0.100463,-0.05432 0.230654,-0.06556 0.365194,-0.03153 0.087,0.02201 0.222609,0.09991 0.257424,0.147891 0.01287,0.01774 0.0237,0.03165 0.02406,0.03091 3.75e-4,-7.37e-4 0.0055,-0.02293 0.01138,-0.04932 0.0095,-0.04269 0.01892,-0.06121 0.08495,-0.167699 0.100013,-0.161297 0.152677,-0.276728 0.187965,-0.411988 l 0.02716,-0.104098 -0.02637,-0.227545 c -0.03082,-0.26599 -0.04041,-0.324572 -0.05743,-0.351137 -0.0069,-0.01075 -0.03365,-0.036 -0.05947,-0.05612 -0.02582,-0.02011 -0.08699,-0.07443 -0.135944,-0.12072 l -0.089,-0.08415 1.87e-4,-0.04532 c 1.88e-4,-0.04895 0.02305,-0.136161 0.0451,-0.172056 0.03129,-0.05096 0.0718,-0.07989 0.128539,-0.0918 l 0.05421,-0.01138 0.01237,-0.116711 c 0.01586,-0.149566 0.02144,-0.252793 0.01923,-0.355471 -0.0025,-0.114057 3.75e-4,-0.151383 0.0186,-0.246841 0.0087,-0.04578 0.01535,-0.09352 0.01466,-0.106077 -0.0031,-0.05683 -0.02707,-0.165803 -0.04264,-0.193848 -0.03853,-0.06941 -0.13943,-0.274052 -0.157071,-0.318567 -0.0104,-0.02624 -0.01642,-0.05201 -0.01338,-0.05728 0.003,-0.0053 0.0043,-0.03338 0.0029,-0.06247 -0.0015,-0.02909 -0.001,-0.06901 9.81e-4,-0.0887 l 0.0036,-0.0358 0.06242,-0.06741 0.06242,-0.06741 0.05796,-0.01371 c 0.04043,-0.0096 0.08376,-0.01152 0.143243,-0.0065 0.04691,0.004 0.139225,0.0035 0.205153,-0.0012 0.12789,-0.009 0.35925,-0.03525 0.380803,-0.04322 0.0071,-0.0026 0.03187,-0.02877 0.05494,-0.05805 l 0.04194,-0.05324 0.0045,-0.07055 c 0.0027,-0.04319 -0.0037,-0.127441 -0.01667,-0.217289 -0.02846,-0.197683 -0.04261,-0.224049 -0.313621,-0.584544 l -0.124356,-0.165417 -0.108563,-0.06268 -0.108562,-0.06268 -0.08976,-0.0021 c -0.24979,-0.0059 -0.413618,-0.02404 -0.517953,-0.057286 -0.03525,-0.01123 -0.07024,-0.019367 -0.07776,-0.018083 -0.04328,0.00739 -0.190987,0.091 -0.278725,0.157775 -0.09396,0.07151 -0.09724,0.07486 -0.166942,0.170932 -0.0391,0.05389 -0.07479,0.100979 -0.0793,0.104633 -0.0045,0.0037 -0.02896,0.0082 -0.05434,0.01012 l -0.04613,0.0035 -0.0645,0.111715 c -0.05651,0.09789 -0.0695,0.126279 -0.104939,0.229394 l -0.04044,0.117681 0.04784,0.110899 c 0.05701,0.132149 0.08386,0.184799 0.176257,0.34562 l 0.0699,0.121665 0.04824,0.0114 c 0.04599,0.01087 0.04956,0.01287 0.07646,0.0428 0.01552,0.01727 0.03922,0.05179 0.05267,0.07672 0.02,0.03706 0.02408,0.05535 0.02239,0.100347 l -0.0021,0.05503 -0.04526,0.06833 c -0.0485,0.07323 -0.0573,0.08283 -0.117973,0.128952 l -0.03938,0.02993 0.02584,0.08501 c 0.01421,0.04676 0.02918,0.110133 0.03326,0.140833 0.0065,0.04903 0.0048,0.06215 -0.01424,0.107874 -0.02931,0.07041 -0.07285,0.145176 -0.116637,0.200308 -0.03609,0.04544 -0.03629,0.04594 -0.03192,0.08146 0.0073,0.05898 0.03119,0.150905 0.06305,0.242125 l 0.03006,0.08607 0.0658,0.05853 0.0658,0.05853 0.04797,0.119583 c 0.02638,0.06577 0.05045,0.122825 0.05349,0.126787 0.003,0.004 0.02455,0.01004 0.04782,0.01351 0.02326,0.0035 0.04728,0.0092 0.05336,0.0127 0.01523,0.0088 0.09457,0.129251 0.106339,0.161448 0.0083,0.02284 0.0061,0.03502 -0.0169,0.09367 -0.04378,0.111409 -0.08535,0.192544 -0.105215,0.205374 -0.0096,0.0062 -0.04165,0.01814 -0.07118,0.02651 -0.02953,0.0084 -0.05286,0.0168 -0.05182,0.01874 10e-4,0.0019 0.03274,0.05003 0.07047,0.106886 0.05479,0.08257 0.164903,0.26024 0.16825,0.271476 3.75e-4,0.0013 -0.02873,0.0707 -0.06471,0.154207 l -0.06542,0.151826 0.0061,0.08014 0.0062,0.08014 -0.06071,0.09006 c -0.03339,0.04953 -0.0652,0.09999 -0.0707,0.11212 -0.0099,0.02185 -0.0095,0.02182 0.03859,-0.0042 z"
     id="path1542"
     inkscape:connector-curvature="0" />
  <path
     style="fill:#ffff00;stroke:#000000;stroke-width:0.0625px;stroke-linecap:butt;stroke-linejoin:miter;stroke-opacity:1"
     d="m 6.3864158,6.552031 0.23415,-0.355561 -0.01328,-0.152003 0.130024,-0.300208 -0.209358,-0.33738 -0.151555,-0.0875 -0.104904,-0.118301 -0.007,-0.162829 0.160376,-0.15278 0.124103,-0.01495 -0.107356,-0.264054 -0.132804,-0.119977 -0.07655,-0.217403 -0.02868,-0.175329 0.09665,-0.117404 0.08292,-0.168629 -0.0241,-0.158253 -0.05368,-0.132028 -0.18693,-0.151226 -0.01495,-0.124103 0.05167,-0.114503 0.0933,-0.0616 0.08538,-0.02288 -0.187709,-0.32488 -0.122756,-0.28738 0.08795,-0.252331 0.1375,-0.238157 0.107027,-0.01038 0.146651,-0.204006 0.205353,-0.155681 0.195753,-0.089055 0.131578,0.0471 0.22778,0.03047 0.341058,0.0093 0.216506,0.125 0.212708,0.281579 0.144857,0.199103 0.07533,0.144527 0.04821,0.316506 -0.01462,0.150329 -0.102901,0.128229 -0.282356,0.03905 -0.269855,0.0174 0.0183,0.0683 0.07198,0.200328 -0.075,0.129903 -0.158253,0.0241 -0.20278,-0.07377 0.08905,0.195753 0.08158,0.133702 0.03325,0.192404 -0.0413,0.221531 0.0083,0.235705 -0.01797,0.20613 -0.02255,0.189054 0.108253,0.0625 0.129903,0.075 0.02578,0.130352 -0.0375,0.06495 -0.07668,0.157805 -0.07623,0.05703 0.0241,0.158253 0.02075,0.214055 0.027,0.203228 -0.05212,0.215281 -0.115849,0.250657 -0.09208,0.134479 -0.0375,0.06495 -0.02712,0.171979 7.75e-4,0.173654 -0.138277,0.0645 -0.122428,-0.01295 -0.173205,-0.1 -0.18403,-0.10625 z"
     id="path1544"
     inkscape:connector-curvature="0" />
  <path
     style="fill:#ffff00;stroke:#000000;stroke-width:0.0625px;stroke-linecap:butt;stroke-linejoin:miter;stroke-opacity:1"
     d="m 6.3338198,3.043129 0.09976,0.0241 0.05027,0.05072 0.04232,0.08952 -0.0042,0.06989 -0.03131,0.05424 -0.07347,0.102208 -0.04048,0.02001 -0.07136,0.06363"
     id="path1546"
     inkscape:connector-curvature="0" />
  <path
     style="fill:none;stroke:#000000;stroke-width:0.0625px;stroke-linecap:butt;stroke-linejoin:miter;stroke-opacity:1"
     d="m 7.2861198,3.318698 -0.01491,-0.136658 0.0073,-0.07531 c 0,0 -0.0083,-0.0053 0.01944,-0.03368 0.02299,-0.02351 0.09535,-0.102526 0.09535,-0.102526 l 0.10495,-0.01895 0.13359,0.01826"
     id="path1548"
     inkscape:connector-curvature="0" />
  <path
     style="fill:none;stroke:#000000;stroke-width:0.0625px;stroke-linecap:butt;stroke-linejoin:miter;stroke-opacity:1"
     d="m 7.4164398,4.692977 -0.127984,0.02483 -0.06011,0.06654 -0.0378,0.115571 0.0044,0.0676 0.06111,0.05698 0.105953,0.10456 0.07822,0.05239 0.04978,0.05917"
     id="path1550"
     inkscape:connector-curvature="0" />
  <path
     style="fill:none;stroke:#000000;stroke-width:0.0625px;stroke-linecap:butt;stroke-linejoin:miter;stroke-opacity:1"
     d="m 6.5489478,4.870517 0.106455,0.01692 0.06256,0.07951 0.03461,0.07783 -0.04009,0.107017 -0.03215,0.06821 -0.03757,0.06508 -0.04361,0.02544 -0.10495,0.01895 -0.117795,-0.0101"
     id="path1552"
     inkscape:connector-curvature="0" />
  <path
     style="fill:none;stroke:#000000;stroke-width:0.0625px;stroke-linecap:butt;stroke-linejoin:miter;stroke-opacity:1"
     d="m 6.3864158,6.552031 0.146222,-0.08673 0.104335,-0.05546 0.144592,-0.02499 0.13352,0.01924 0.11244,0.04322 0.110763,0.07118 0.09887,0.135009"
     id="path1554"
     inkscape:connector-curvature="0" />
  <path
     style="fill:#008000;fill-opacity:1;stroke:none;stroke-width:0.00552427;stroke-opacity:0.02617804"
     d="m 6.5087208,6.427908 c 0.0045,-0.0076 0.03927,-0.06052 0.07725,-0.117528 l 0.06907,-0.103651 -0.0022,-0.02676 c -0.0012,-0.01472 -0.0041,-0.0501 -0.0066,-0.07863 l -0.0044,-0.05187 0.06479,-0.149282 c 0.03564,-0.08211 0.06533,-0.152133 0.06599,-0.155616 0.0021,-0.01127 -0.222428,-0.366969 -0.23715,-0.375652 -0.01324,-0.0078 -0.01199,-0.0085 0.03536,-0.01945 0.027,-0.0062 0.06099,-0.01839 0.07554,-0.02698 0.02607,-0.0154 0.0269,-0.01651 0.05841,-0.07791 0.01758,-0.03426 0.04378,-0.09359 0.05823,-0.131857 l 0.02627,-0.06957 -0.01965,-0.04434 c -0.011,-0.02483 -0.03632,-0.06608 -0.05755,-0.09375 l -0.03791,-0.04941 -0.05048,-0.0077 -0.05048,-0.0077 -0.05114,-0.126588 -0.05114,-0.126588 -0.06597,-0.05893 -0.06597,-0.05893 -0.03708,-0.105697 c -0.03997,-0.11393 -0.06737,-0.245448 -0.05543,-0.265958 0.0035,-0.0061 0.02335,-0.03145 0.04401,-0.05636 0.03397,-0.04096 0.04182,-0.05396 0.08204,-0.135915 0.02852,-0.05809 0.04404,-0.09509 0.04325,-0.103068 -0.0083,-0.08437 -0.02715,-0.171939 -0.04726,-0.219829 -0.01262,-0.03006 -0.02056,-0.05659 -0.01763,-0.05895 0.0029,-0.0024 0.01343,-0.01212 0.02336,-0.02166 0.0099,-0.0095 0.02875,-0.02266 0.04182,-0.02914 0.01996,-0.0099 0.02979,-0.02016 0.06122,-0.0639 0.06577,-0.09156 0.07666,-0.114128 0.07985,-0.165516 0.0025,-0.04075 6.75e-4,-0.04917 -0.02069,-0.09424 -0.01691,-0.03567 -0.03208,-0.0583 -0.05431,-0.08106 l -0.03084,-0.03158 -0.0473,-0.01095 -0.0473,-0.01095 -0.091,-0.157157 c -0.07268,-0.125513 -0.102157,-0.183194 -0.146389,-0.286471 -0.03046,-0.07112 -0.05629,-0.13211 -0.0574,-0.135527 -0.0011,-0.0034 0.01696,-0.06076 0.04015,-0.127438 0.04204,-0.120867 0.04235,-0.121545 0.104385,-0.22883 l 0.0622,-0.107613 0.04162,-0.0033 c 0.02289,-0.0018 0.04667,-0.0039 0.05283,-0.0047 0.0089,-0.0011 0.02648,-0.02282 0.0853,-0.105218 l 0.07409,-0.103802 0.101675,-0.07754 c 0.09456,-0.07212 0.107798,-0.08032 0.189187,-0.117223 0.04813,-0.02182 0.08997,-0.03982 0.09297,-0.03999 0.003,-1.88e-4 0.03093,0.0091 0.06207,0.02069 0.08388,0.03112 0.242633,0.05101 0.454358,0.05693 l 0.167016,0.0047 0.10572,0.06104 0.10572,0.06104 0.105831,0.140378 c 0.192729,0.255642 0.239935,0.32291 0.277374,0.395255 l 0.03574,0.06905 0.02357,0.155103 c 0.02127,0.139971 0.0229,0.161648 0.0167,0.222182 l -0.0069,0.06708 -0.04372,0.05441 c -0.02405,0.02992 -0.04598,0.05482 -0.04874,0.05531 -0.07551,0.01355 -0.292276,0.03782 -0.39593,0.04434 -0.107016,0.0067 -0.150738,0.0066 -0.201432,-7.94e-4 -0.05479,-0.0079 -0.07424,-0.0076 -0.126458,0.0019 -0.06107,0.01119 -0.06198,0.01159 -0.08743,0.03925 -0.01414,0.01537 -0.0433,0.04704 -0.06478,0.07038 l -0.03907,0.04243 -0.0046,0.05037 c -0.0025,0.0277 -0.0028,0.06649 -5e-4,0.08619 0.0052,0.04544 0.0039,0.05321 -0.0081,0.04907 -0.01372,-0.0047 0.105213,0.252894 0.152991,0.331422 0.03872,0.06365 0.03877,0.06378 0.05416,0.15478 l 0.01541,0.09108 -0.02028,0.106226 c -0.01911,0.100133 -0.02004,0.113044 -0.0162,0.225091 0.004,0.115865 -0.0028,0.233451 -0.02364,0.408857 l -0.0096,0.08059 -0.03716,0.0071 c -0.0785,0.01501 -0.07987,0.01571 -0.117732,0.05975 l -0.03482,0.0405 -0.02014,0.06347 c -0.01667,0.05254 -0.01969,0.07058 -0.01755,0.104786 l 0.0026,0.04132 0.09486,0.09089 c 0.05217,0.04999 0.11063,0.101573 0.129908,0.114632 0.05837,0.03954 0.06983,0.0579 0.08168,0.130832 0.0056,0.03475 0.01531,0.114893 0.02148,0.178098 0.0062,0.06321 0.01736,0.161015 0.02487,0.217353 l 0.01364,0.102433 -0.02461,0.101737 c -0.02359,0.09748 -0.02695,0.106793 -0.08037,0.222638 -0.05065,0.109814 -0.06059,0.128057 -0.108392,0.198953 -0.07624,0.113064 -0.08068,0.121819 -0.08912,0.175634 -0.0041,0.02585 -0.0085,0.0473 -0.01,0.04766 -0.0014,3.75e-4 -0.01282,-0.01397 -0.0253,-0.03185 -0.02022,-0.02896 -0.02927,-0.03678 -0.08297,-0.07174 -0.08389,-0.0546 -0.154912,-0.08184 -0.25229,-0.09674 -0.06605,-0.01011 -0.07869,-0.0099 -0.149973,0.0022 -0.06883,0.0117 -0.08461,0.01686 -0.136301,0.0445 -0.06999,0.03744 -0.06971,0.03734 -0.05938,0.01983 z"
     id="path1556"
     inkscape:connector-curvature="0" />
  <path
     id="path1558"
     d="m 6.5657458,6.406116 c 0.100463,-0.05432 0.230654,-0.06556 0.365194,-0.03153 0.087,0.022 0.222609,0.09991 0.257424,0.14789 0.01287,0.01774 0.0237,0.03165 0.02406,0.03092 3.75e-4,-7.38e-4 0.0055,-0.02293 0.01138,-0.04932 0.0095,-0.04269 0.01892,-0.06121 0.08495,-0.167699 0.100013,-0.161297 0.152677,-0.276728 0.187965,-0.411988 l 0.02716,-0.104098 -0.02637,-0.227545 c -0.03082,-0.26599 -0.04041,-0.324572 -0.05743,-0.351137 -0.0069,-0.01075 -0.03365,-0.036 -0.05947,-0.05612 -0.02582,-0.02011 -0.08699,-0.07443 -0.135944,-0.12072 l -0.089,-0.08415 1.87e-4,-0.04532 c 1.88e-4,-0.04895 0.02305,-0.136161 0.0451,-0.172056 0.03129,-0.05096 0.0718,-0.07989 0.128539,-0.0918 l 0.05421,-0.01138 0.01237,-0.116711 c 0.01586,-0.149566 0.02144,-0.252793 0.01923,-0.35547 -0.0024,-0.114058 3.75e-4,-0.151384 0.0186,-0.246842 0.0087,-0.04578 0.01534,-0.09352 0.01466,-0.106077 -0.0031,-0.05683 -0.02707,-0.165803 -0.04264,-0.193848 -0.03853,-0.06941 -0.13943,-0.274052 -0.157071,-0.318567 -0.0104,-0.02624 -0.01642,-0.05201 -0.01338,-0.05728 0.003,-0.0053 0.0043,-0.03338 0.0029,-0.06247 -0.0014,-0.02909 -0.001,-0.06901 9.81e-4,-0.0887 l 0.0036,-0.0358 0.06242,-0.06741 0.06242,-0.06741 0.05796,-0.01371 c 0.04043,-0.0096 0.08376,-0.01152 0.143243,-0.0065 0.04691,0.004 0.139225,0.0035 0.205153,-0.0012 0.12789,-0.009 0.35925,-0.03525 0.380803,-0.04322 0.0071,-0.0026 0.03187,-0.02877 0.05494,-0.05805 l 0.04194,-0.05324 0.0045,-0.07055 c 0.0027,-0.04319 -0.0037,-0.127441 -0.01666,-0.217289 -0.02847,-0.197683 -0.04261,-0.224049 -0.313622,-0.584544 l -0.124356,-0.165417 -0.108563,-0.06268 -0.108562,-0.06268 -0.08976,-0.0021 c -0.24979,-0.0059 -0.413618,-0.02404 -0.517953,-0.05729 -0.03524,-0.01123 -0.07024,-0.01937 -0.07776,-0.01808 -0.04328,0.0074 -0.190987,0.091 -0.278725,0.157775 -0.09396,0.07151 -0.09724,0.07486 -0.166942,0.170932 -0.0391,0.05389 -0.07479,0.100979 -0.0793,0.104634 -0.0045,0.0037 -0.02896,0.0082 -0.05434,0.01012 l -0.04613,0.0035 -0.0645,0.111714 c -0.05652,0.09789 -0.0695,0.12628 -0.104939,0.229395 l -0.04044,0.11768 0.04784,0.1109 c 0.05701,0.132148 0.08386,0.184798 0.176257,0.34562 l 0.0699,0.121665 0.04824,0.0114 c 0.04599,0.01087 0.04956,0.01287 0.07646,0.0428 0.01552,0.01727 0.03922,0.05179 0.05267,0.07672 0.02,0.03706 0.02408,0.05535 0.02239,0.100347 l -0.0021,0.05503 -0.04526,0.06833 c -0.0485,0.07323 -0.05729,0.08283 -0.117973,0.128952 l -0.03938,0.02993 0.02584,0.08501 c 0.01421,0.04676 0.02918,0.110133 0.03326,0.140834 0.0065,0.04903 0.0048,0.06215 -0.01424,0.107873 -0.02931,0.07041 -0.07285,0.145177 -0.116637,0.200308 -0.03609,0.04544 -0.03629,0.04594 -0.03192,0.08146 0.0073,0.05898 0.03119,0.150905 0.06305,0.242125 l 0.03006,0.08607 0.0658,0.05853 0.0658,0.05853 0.04797,0.119584 c 0.02638,0.06577 0.05045,0.122825 0.05349,0.126786 0.003,0.004 0.02455,0.01004 0.04782,0.01351 0.02326,0.0035 0.04728,0.0092 0.05336,0.0127 0.01523,0.0088 0.09457,0.129252 0.106339,0.161448 0.0083,0.02284 0.0061,0.03502 -0.0169,0.09367 -0.04378,0.111409 -0.08535,0.192544 -0.105215,0.205374 -0.0096,0.0062 -0.04165,0.01814 -0.07118,0.02651 -0.02954,0.0084 -0.05286,0.0168 -0.05183,0.01874 0.001,0.0019 0.03274,0.05003 0.07047,0.106886 0.05479,0.08257 0.164903,0.26024 0.16825,0.271477 3.75e-4,0.0013 -0.02873,0.0707 -0.06471,0.154206 l -0.06542,0.151826 0.0061,0.08014 0.0061,0.08014 -0.06071,0.09006 c -0.03339,0.04954 -0.0652,0.09999 -0.0707,0.11212 -0.0099,0.02186 -0.0095,0.02182 0.03859,-0.0042 z"
     style="fill:url(#linearGradient1562);fill-opacity:1;fill-rule:nonzero;stroke:#000000;stroke-width:0.00766144;stroke-miterlimit:4;stroke-dasharray:0.00766144, 0.01532289;stroke-dashoffset:0;stroke-opacity:0.96254536"
     inkscape:connector-curvature="0" />
  <path
     style="fill:#ffff00;stroke:#000000;stroke-width:0.05001889px;stroke-linecap:butt;stroke-linejoin:miter;stroke-opacity:1"
     d="m 7.4060728,8.408025 -0.315816,-0.173171 -0.138331,0.0059 -0.268631,-0.0985 -0.312299,0.139933 -0.08384,0.104862 -0.110428,0.07127 -0.147972,0.0012 -0.133953,-0.116545 -0.0099,-0.08784 -0.24277,0.06968 -0.112765,0.0909 -0.199534,0.04903 -0.15995,0.01623 -0.103713,-0.07081 -0.150604,-0.0623 -0.144319,0.01339 -0.121385,0.03484 -0.142709,0.128353 -0.11306,0.0077 -0.102399,-0.03904 -0.05317,-0.06718 -0.01826,-0.06072 -0.300321,0.124953 -0.26439,0.08001 -0.226415,-0.06775 -0.212102,-0.102359 -0.0063,-0.07569 -0.180843,-0.108034 -0.135267,-0.148322 -0.07509,-0.140039 0.0466,-0.0917 0.03432,-0.159901 0.0184,-0.240248 0.119775,-0.149802 0.261757,-0.143563 0.184925,-0.0976 0.133363,-0.04982 0.28864,-0.02679 0.135993,0.01373 0.113356,0.07546 0.02718,0.199959 0.0079,0.190654 0.06252,-0.01135 0.183905,-0.04619 0.115691,0.05583 0.01724,0.112123 -0.07289,0.141289 0.180252,-0.05833 0.123722,-0.05448 0.175579,-0.01907 0.199828,0.03416 0.214143,-4.38e-4 0.186536,0.01736 0.170906,0.0202 0.05989,-0.0749 0.07186,-0.08988 0.119048,-0.01521 0.05785,0.02792 0.140963,0.05765 0.04952,0.05504 0.14432,-0.01339 0.194861,-0.0098 0.18522,-0.01442 0.19384,0.04164 0.224079,0.08738 0.119344,0.06798 0.05785,0.02792 0.155277,0.02303 0.157612,0.0034 0.05449,0.09896 -0.01534,0.08602 -0.09582,0.119842 -0.101808,0.127331 z"
     id="path2551-5"
     inkscape:connector-curvature="0" />
  <path
     style="fill:#ffff00;stroke:#000000;stroke-width:0.05001889px;stroke-linecap:butt;stroke-linejoin:miter;stroke-opacity:1"
     d="m 4.2202218,8.365306 0.02479,-0.06979 0.04749,-0.03429 0.08248,-0.0278 0.0633,0.0045 0.0483,0.02331 0.0906,0.05412 0.01698,0.029 0.05565,0.05176"
     id="path2553-3"
     inkscape:connector-curvature="0" />
  <path
     style="fill:none;stroke:#000000;stroke-width:0.05001889px;stroke-linecap:butt;stroke-linejoin:miter;stroke-opacity:1"
     d="m 4.4981758,7.700166 -0.124453,0.0074 -0.06813,-0.0069 c 0,0 -0.0051,0.0057 -0.02999,-0.01447 -0.02066,-0.01674 -0.09025,-0.06956 -0.09025,-0.06956 l -0.01413,-0.07442 0.02048,-0.09377"
     id="path2555-5"
     inkscape:connector-curvature="0" />
  <path
     style="fill:none;stroke:#000000;stroke-width:0.05001889px;stroke-linecap:butt;stroke-linejoin:miter;stroke-opacity:1"
     d="m 5.7491418,7.63954 0.01879,0.0908 0.05862,0.04389 0.103775,0.02928 0.06147,-0.0015 0.0535,-0.04179 0.09799,-0.07232 0.04984,-0.05396 0.05515,-0.03375"
     id="path2557-6-6"
     inkscape:connector-curvature="0" />
  <path
     style="fill:none;stroke:#000000;stroke-width:0.05001889px;stroke-linecap:butt;stroke-linejoin:miter;stroke-opacity:1"
     d="m 5.8848638,8.255192 0.01847,-0.07467 0.07399,-0.0423 0.07164,-0.02263 0.09594,0.0307 0.06096,0.02422 0.05796,0.02797 0.02181,0.03133 0.01413,0.07443 -0.01262,0.08282"
     id="path2559-2"
     inkscape:connector-curvature="0" />
  <path
     style="fill:none;stroke:#000000;stroke-width:0.05001889px;stroke-linecap:butt;stroke-linejoin:miter;stroke-opacity:1"
     d="m 7.4060728,8.408025 -0.07443,-0.105065 -0.04728,-0.07482 -0.01845,-0.102511 0.02137,-0.0937 0.04252,-0.07829 0.06784,-0.07647 0.125415,-0.06664"
     id="path2561-9"
     inkscape:connector-curvature="0" />
  <path
     style="fill:#008000;fill-opacity:1;stroke:none;stroke-width:0.00442109;stroke-opacity:0.02617804"
     d="m 7.2970118,8.318972 c -0.0068,-0.0033 -0.05377,-0.02906 -0.104394,-0.05714 l -0.09204,-0.05105 -0.02435,9.19e-4 c -0.01339,5e-4 -0.04559,0.0018 -0.07155,0.0028 l -0.0472,0.0019 -0.133576,-0.04908 c -0.07347,-0.02699 -0.136148,-0.04952 -0.139289,-0.05006 -0.01016,-0.0018 -0.339534,0.148474 -0.347845,0.158656 -0.0075,0.0092 -0.0081,0.0083 -0.01662,-0.02537 -0.0049,-0.01918 -0.0149,-0.04342 -0.02227,-0.05387 -0.01322,-0.01873 -0.0142,-0.01934 -0.06899,-0.04295 -0.03057,-0.01317 -0.08365,-0.03299 -0.117955,-0.04405 l -0.06237,-0.0201 -0.04081,0.01284 c -0.02286,0.0072 -0.06103,0.02411 -0.08676,0.03844 l -0.04595,0.0256 -0.0085,0.03542 -0.0085,0.03542 -0.116374,0.03317 -0.116376,0.03317 -0.05541,0.04517 -0.05541,0.04517 -0.09701,0.02374 c -0.104561,0.02559 -0.224715,0.04192 -0.242978,0.03303 -0.0054,-0.0026 -0.02786,-0.01718 -0.04986,-0.03231 -0.03618,-0.02488 -0.04774,-0.03071 -0.120941,-0.06093 -0.05188,-0.02143 -0.085,-0.03321 -0.09227,-0.03284 -0.07681,0.0039 -0.156829,0.01523 -0.200877,0.02832 -0.02765,0.0082 -0.05195,0.01321 -0.05401,0.01109 -0.0021,-0.0021 -0.0106,-0.0097 -0.01897,-0.01696 -0.0084,-0.0072 -0.01972,-0.02078 -0.02522,-0.03015 -0.0084,-0.0143 -0.01742,-0.02146 -0.0562,-0.04462 -0.08116,-0.04846 -0.101327,-0.05665 -0.147867,-0.06006 -0.03691,-0.0027 -0.04461,-0.0016 -0.08612,0.01244 -0.03287,0.01112 -0.05385,0.02129 -0.07515,0.03645 l -0.02956,0.02103 -0.01132,0.0331 -0.01132,0.0331 -0.145283,0.06059 c -0.11603,0.04839 -0.169238,0.06786 -0.264256,0.09669 -0.06544,0.01986 -0.121537,0.03668 -0.12467,0.03739 -0.0031,7e-4 -0.05465,-0.01333 -0.114475,-0.0312 -0.108455,-0.03239 -0.109062,-0.03262 -0.204606,-0.0788 l -0.09584,-0.0463 -0.0018,-0.02942 c -9.82e-4,-0.01618 -0.0022,-0.03299 -0.0027,-0.03736 -7.62e-4,-0.0063 -0.01993,-0.01919 -0.09299,-0.06253 l -0.09203,-0.0546 -0.0674,-0.07345 c -0.06268,-0.06831 -0.06973,-0.07783 -0.100841,-0.13605 -0.0184,-0.03443 -0.0335,-0.06434 -0.03357,-0.06646 -5.7e-5,-0.0021 0.0092,-0.0216 0.02059,-0.04329 0.0307,-0.05843 0.0534,-0.169905 0.06497,-0.319044 l 0.0091,-0.117646 0.05848,-0.07315 0.05849,-0.07315 0.13049,-0.07142 c 0.237635,-0.130067 0.300063,-0.161819 0.366811,-0.18657 l 0.06371,-0.02363 0.141446,-0.01309 c 0.127645,-0.01181 0.147364,-0.01247 0.202117,-0.0067 l 0.06067,0.0064 0.0481,0.03206 c 0.02645,0.01763 0.0484,0.03366 0.04877,0.03562 0.01008,0.05354 0.02577,0.206925 0.02865,0.280153 0.003,0.0756 0.0015,0.106425 -0.0066,0.142 -0.0088,0.03845 -0.0091,0.05217 -0.002,0.0892 0.0084,0.04331 0.0087,0.04396 0.03307,0.06253 0.01354,0.01032 0.04142,0.0316 0.06197,0.04728 l 0.03736,0.02851 0.04557,0.0044 c 0.02507,0.0024 0.06026,0.0035 0.0782,0.0023 0.04139,-0.0026 0.0484,-0.0015 0.0443,0.0068 -0.0047,0.0096 0.232579,-0.06843 0.305242,-0.100327 0.05889,-0.02585 0.05902,-0.02588 0.142049,-0.03467 l 0.08311,-0.0088 0.09581,0.01671 c 0.09031,0.01575 0.102,0.0167 0.203794,0.01654 0.105263,-1.87e-4 0.211773,0.0073 0.370343,0.02596 l 0.07286,0.0086 0.0054,0.02636 c 0.01133,0.05569 0.01191,0.05667 0.05077,0.08436 l 0.03573,0.02547 0.05701,0.01564 c 0.04719,0.01295 0.06348,0.01549 0.09458,0.01476 l 0.03757,-8.88e-4 0.08526,-0.06481 c 0.04689,-0.03565 0.09542,-0.07569 0.107831,-0.08898 0.03759,-0.04025 0.05459,-0.04792 0.12112,-0.05461 0.0317,-0.0032 0.104713,-0.0082 0.162252,-0.01109 0.05754,-0.0029 0.146628,-0.0086 0.197975,-0.01259 l 0.09336,-0.0073 0.09161,0.01967 c 0.08777,0.01885 0.09612,0.02143 0.19969,0.06173 0.09817,0.0382 0.114438,0.04563 0.177376,0.08094 0.100374,0.05632 0.108188,0.05965 0.156779,0.06683 0.02334,0.0034 0.04267,0.0071 0.04295,0.0081 2.5e-4,0.001 -0.01306,0.0087 -0.02965,0.01711 -0.02687,0.0136 -0.03424,0.0198 -0.06753,0.05687 -0.05201,0.0579 -0.0788,0.107357 -0.09518,0.175673 -0.01111,0.04634 -0.01131,0.05525 -0.0024,0.105787 0.0086,0.04879 0.01282,0.06004 0.0364,0.09711 0.03192,0.0502 0.03185,0.05 0.01626,0.04232 z"
     id="path2563-1"
     inkscape:connector-curvature="0" />
  <path
     id="path2581-2"
     d="m 7.2789048,8.278271 c -0.04635,-0.07207 -0.05274,-0.16411 -0.01792,-0.258192 0.02251,-0.06084 0.09719,-0.154676 0.141745,-0.17813 0.01647,-0.0087 0.02942,-0.01599 0.02876,-0.01626 -6.5e-4,-2.5e-4 -0.02065,-0.0044 -0.04443,-0.0091 -0.03846,-0.0077 -0.05499,-0.01473 -0.1497,-0.0637 -0.143448,-0.07418 -0.246659,-0.113937 -0.368375,-0.141892 l -0.09367,-0.02152 -0.207268,0.01342 c -0.242287,0.01568 -0.295731,0.02111 -0.320336,0.03251 -0.01,0.0046 -0.03366,0.02291 -0.05266,0.04065 -0.01901,0.01774 -0.0701,0.05964 -0.113532,0.0931 l -0.07898,0.06084 -0.04113,-0.0012 c -0.04442,-0.0012 -0.12289,-0.01935 -0.15482,-0.03571 -0.04532,-0.02322 -0.07039,-0.05244 -0.07955,-0.09271 l -0.0087,-0.03848 -0.105552,-0.01138 c -0.135266,-0.01458 -0.228781,-0.02087 -0.322024,-0.02164 -0.103579,-8.68e-4 -0.137369,-0.0037 -0.223463,-0.01873 -0.04129,-0.0072 -0.08442,-0.01295 -0.09584,-0.01275 -0.05166,8.94e-4 -0.151258,0.01532 -0.177164,0.02566 -0.06412,0.02559 -0.252782,0.09207 -0.293696,0.103496 -0.02411,0.0067 -0.04768,0.01039 -0.05237,0.0081 -0.0047,-0.0023 -0.03016,-0.0038 -0.05661,-0.0035 -0.02644,3.75e-4 -0.06265,-8.63e-4 -0.08046,-0.0027 l -0.03239,-0.0034 -0.05935,-0.04554 -0.05935,-0.04554 -0.01075,-0.04118 c -0.0075,-0.02872 -0.008,-0.05931 -0.0017,-0.101139 0.005,-0.03298 0.0072,-0.09808 0.005,-0.144667 -0.0044,-0.09037 -0.02147,-0.254086 -0.02808,-0.269463 -0.0022,-0.0051 -0.02517,-0.02312 -0.05108,-0.04005 l -0.04709,-0.03078 -0.06389,-0.0047 c -0.03912,-0.0029 -0.115762,-2.5e-4 -0.197676,0.0068 -0.18023,0.01557 -0.204572,0.02495 -0.539652,0.207821 l -0.153755,0.08391 -0.06006,0.07512 -0.06006,0.07512 -0.0046,0.06324 c -0.01269,0.175976 -0.03393,0.29107 -0.06715,0.363873 -0.01122,0.02459 -0.01963,0.04908 -0.01869,0.05441 0.0054,0.03068 0.07699,0.136723 0.135022,0.2001 0.06215,0.06787 0.06509,0.07026 0.150232,0.121587 0.04776,0.0288 0.08945,0.05503 0.09263,0.05829 0.0032,0.0033 0.0066,0.02061 0.0076,0.03854 l 0.0018,0.0326 0.09949,0.04801 c 0.08718,0.04207 0.112564,0.05187 0.205103,0.0792 l 0.105611,0.03119 0.102042,-0.03121 c 0.121592,-0.03719 0.170158,-0.05492 0.318807,-0.116408 l 0.112457,-0.04652 0.01176,-0.03375 c 0.01121,-0.03217 0.01313,-0.03465 0.04108,-0.05293 0.01613,-0.01055 0.04815,-0.02648 0.07117,-0.03539 0.03422,-0.01326 0.05093,-0.01572 0.09172,-0.0135 l 0.04988,0.0027 0.06069,0.03346 c 0.06503,0.03586 0.0735,0.04228 0.113569,0.08611 l 0.02601,0.02845 0.07791,-0.01628 c 0.04285,-0.009 0.100799,-0.01807 0.128779,-0.02025 0.04469,-0.0035 0.05654,-0.002 0.09748,0.0125 0.06304,0.02227 0.129614,0.05466 0.178364,0.08679 0.04018,0.02648 0.04062,0.02663 0.07299,0.02436 0.05374,-0.0038 0.137859,-0.01856 0.221573,-0.03895 l 0.07899,-0.01924 0.05504,-0.04506 0.05504,-0.04506 0.109927,-0.0311 c 0.06046,-0.0171 0.112939,-0.03278 0.116622,-0.03483 0.0037,-0.002 0.0098,-0.01708 0.01367,-0.0334 0.0038,-0.01632 0.0097,-0.03312 0.01309,-0.03733 0.0084,-0.01054 0.120064,-0.06374 0.149627,-0.0713 0.02097,-0.0054 0.03196,-0.0035 0.08451,0.01405 0.09982,0.0334 0.172234,0.06455 0.183296,0.07885 0.0054,0.0069 0.01524,0.02978 0.02198,0.05079 0.0067,0.02101 0.0137,0.03765 0.01548,0.03697 0.0018,-6.82e-4 0.04636,-0.02195 0.09906,-0.04725 0.07654,-0.03675 0.240994,-0.110345 0.251289,-0.112449 0.0012,-2.5e-4 0.06332,0.02186 0.138047,0.04913 l 0.135867,0.04958 0.0729,-0.0025 0.0729,-0.0025 0.07996,0.04485 c 0.04397,0.02467 0.08883,0.04825 0.09968,0.0524 0.01954,0.0075 0.01952,0.0072 -0.0027,-0.0273 z"
     style="fill:url(#linearGradient30-3);fill-opacity:1;fill-rule:nonzero;stroke:#000000;stroke-width:0.00613147;stroke-miterlimit:4;stroke-dasharray:0.00613147, 0.01226294;stroke-dashoffset:0;stroke-opacity:0.96254536"
     inkscape:connector-curvature="0" />
</svg>
