<?xml version="1.0" encoding="UTF-8" standalone="no"?>
<svg
   xmlns:dc="http://purl.org/dc/elements/1.1/"
   xmlns:cc="http://creativecommons.org/ns#"
   xmlns:rdf="http://www.w3.org/1999/02/22-rdf-syntax-ns#"
   xmlns:svg="http://www.w3.org/2000/svg"
   xmlns="http://www.w3.org/2000/svg"
   xmlns:xlink="http://www.w3.org/1999/xlink"
   xmlns:sodipodi="http://sodipodi.sourceforge.net/DTD/sodipodi-0.dtd"
   xmlns:inkscape="http://www.inkscape.org/namespaces/inkscape"
   version="1.1"
   id="svg815"
   width="160"
   height="250"
   viewBox="0 0 160 250"
   sodipodi:docname="clubs04.svg"
   inkscape:version="0.92.5 (2060ec1f9f, 2020-04-08)">
  <sodipodi:namedview
     pagecolor="#ffffff"
     bordercolor="#666666"
     borderopacity="1"
     objecttolerance="10"
     gridtolerance="10"
     guidetolerance="10"
     inkscape:pageopacity="0"
     inkscape:pageshadow="2"
     inkscape:window-width="1918"
     inkscape:window-height="1017"
     id="namedview5011"
     showgrid="false"
     inkscape:zoom="30.14138"
     inkscape:cx="19.883492"
     inkscape:cy="241.82492"
     inkscape:window-x="0"
     inkscape:window-y="0"
     inkscape:window-maximized="1"
     inkscape:current-layer="svg815"
     inkscape:snap-page="false"
     inkscape:snap-grids="false" />
  <metadata
     id="metadata821">
    <rdf:RDF>
      <cc:Work
         rdf:about="">
        <dc:format>image/svg+xml</dc:format>
        <dc:type
           rdf:resource="http://purl.org/dc/dcmitype/StillImage" />
        <dc:title></dc:title>
      </cc:Work>
    </rdf:RDF>
  </metadata>
  <defs
     id="defs819">
    <linearGradient
       gradientTransform="matrix(-0.11382866,-0.04897331,0.04897331,-0.11382866,11.360684,16.77034)"
       xlink:href="#linearGradient28"
       id="linearGradient30"
       x1="68.058258"
       y1="52.766853"
       x2="93.905167"
       y2="48.329338"
       gradientUnits="userSpaceOnUse" />
    <linearGradient
       id="linearGradient28">
      <stop
         style="stop-color:#d45500;stop-opacity:1;"
         offset="0"
         id="stop24" />
      <stop
         style="stop-color:#d45500;stop-opacity:0;"
         offset="1"
         id="stop26" />
    </linearGradient>
    <linearGradient
       xlink:href="#linearGradient28"
       id="linearGradient202"
       gradientUnits="userSpaceOnUse"
       gradientTransform="matrix(-0.10421379,0,0,-0.10421379,21.478984,12.331316)"
       x1="68.058258"
       y1="52.766853"
       x2="93.905167"
       y2="48.329338" />
    <linearGradient
       gradientTransform="matrix(0.09270834,0,0,0.10071509,9.635358,3.0600958)"
       xlink:href="#linearGradient28"
       id="linearGradient30-4"
       x1="68.058258"
       y1="52.766853"
       x2="93.905167"
       y2="48.329338"
       gradientUnits="userSpaceOnUse" />
    <linearGradient
       xlink:href="#linearGradient28"
       id="linearGradient367"
       gradientUnits="userSpaceOnUse"
       gradientTransform="matrix(0.0625,0,0,0.11444754,18.072663,2.4148925)"
       x1="68.058258"
       y1="52.766853"
       x2="93.905167"
       y2="48.329338" />
    <linearGradient
       xlink:href="#linearGradient28"
       id="linearGradient349"
       gradientUnits="userSpaceOnUse"
       gradientTransform="matrix(-0.0625,0,0,-0.11444754,30.014458,13.048996)"
       x1="68.058258"
       y1="52.766853"
       x2="93.905167"
       y2="48.329338" />
    <linearGradient
       gradientTransform="matrix(0.0625,0,0,0.11444754,22.258269,2.5882975)"
       xlink:href="#linearGradient28"
       id="linearGradient30-6"
       x1="68.058258"
       y1="52.766853"
       x2="93.905167"
       y2="48.329338"
       gradientUnits="userSpaceOnUse" />
    <linearGradient
       xlink:href="#linearGradient28"
       id="linearGradient554"
       gradientUnits="userSpaceOnUse"
       gradientTransform="matrix(-0.04739556,-0.02774335,0.02569172,-0.05118036,9.1467186,9.0059086)"
       x1="68.058258"
       y1="52.766853"
       x2="93.905167"
       y2="48.329338" />
    <linearGradient
       xlink:href="#linearGradient28"
       id="linearGradient552"
       gradientUnits="userSpaceOnUse"
       gradientTransform="matrix(0.04739556,-0.02774335,-0.02569172,-0.05118036,0.78224617,8.9869696)"
       x1="68.058258"
       y1="52.766853"
       x2="93.905167"
       y2="48.329338" />
    <linearGradient
       xlink:href="#linearGradient28"
       id="linearGradient518"
       gradientUnits="userSpaceOnUse"
       gradientTransform="matrix(-0.04739556,0.02774335,0.02569172,0.05118036,9.1656586,6.6422675)"
       x1="68.058258"
       y1="52.766853"
       x2="93.905167"
       y2="48.329338" />
    <linearGradient
       gradientTransform="matrix(0.04739556,0.02774335,-0.02569172,0.05118036,0.80118617,6.6612075)"
       xlink:href="#linearGradient28"
       id="linearGradient30-2"
       x1="68.058258"
       y1="52.766853"
       x2="93.905167"
       y2="48.329338"
       gradientUnits="userSpaceOnUse" />
    <linearGradient
       gradientTransform="matrix(-0.00182956,0.04406484,-0.05671844,-0.00142139,47.989828,4.511358)"
       xlink:href="#linearGradient28"
       id="linearGradient30-3"
       x1="68.058258"
       y1="52.766853"
       x2="93.905167"
       y2="48.329338"
       gradientUnits="userSpaceOnUse" />
    <linearGradient
       xlink:href="#linearGradient28"
       id="linearGradient1562"
       gradientUnits="userSpaceOnUse"
       gradientTransform="matrix(-0.0625,0,0,-0.0625,51.889458,7.060849)"
       x1="68.058258"
       y1="52.766853"
       x2="93.905167"
       y2="48.329338" />
    <linearGradient
       xlink:href="#linearGradient28"
       id="linearGradient1560"
       gradientUnits="userSpaceOnUse"
       gradientTransform="matrix(-0.0625,0,0,-0.0625,47.798548,7.004031)"
       x1="68.058258"
       y1="52.766853"
       x2="93.905167"
       y2="48.329338" />
    <linearGradient
       xlink:href="#linearGradient28"
       id="linearGradient1526"
       gradientUnits="userSpaceOnUse"
       gradientTransform="matrix(0.0625,0,0,0.0625,38.167361,8.526273)"
       x1="68.058258"
       y1="52.766853"
       x2="93.905167"
       y2="48.329338" />
    <linearGradient
       gradientTransform="matrix(0.0625,0,0,0.0625,42.25827,8.583091)"
       xlink:href="#linearGradient28"
       id="linearGradient30-9"
       x1="68.058258"
       y1="52.766853"
       x2="93.905167"
       y2="48.329338"
       gradientUnits="userSpaceOnUse" />
    <linearGradient
       xlink:href="#linearGradient28"
       id="linearGradient2120"
       gradientUnits="userSpaceOnUse"
       gradientTransform="matrix(-0.04785026,0,0,-0.05589801,61.027177,6.8616735)"
       x1="68.058258"
       y1="52.766853"
       x2="93.905167"
       y2="48.329338" />
    <linearGradient
       xlink:href="#linearGradient28"
       id="linearGradient2118"
       gradientUnits="userSpaceOnUse"
       gradientTransform="matrix(-0.04785026,0,0,-0.05589801,58.75445,6.8616735)"
       x1="68.058258"
       y1="52.766853"
       x2="93.905167"
       y2="48.329338" />
    <linearGradient
       xlink:href="#linearGradient28"
       id="linearGradient2116"
       gradientUnits="userSpaceOnUse"
       gradientTransform="matrix(-0.04785026,0,0,-0.05589801,56.405965,6.8616735)"
       x1="68.058258"
       y1="52.766853"
       x2="93.905167"
       y2="48.329338" />
    <linearGradient
       xlink:href="#linearGradient28"
       id="linearGradient2066"
       gradientUnits="userSpaceOnUse"
       gradientTransform="matrix(0.04785026,0,0,0.05589801,49.067214,8.5932485)"
       x1="68.058258"
       y1="52.766853"
       x2="93.905167"
       y2="48.329338" />
    <linearGradient
       xlink:href="#linearGradient28"
       id="linearGradient2048"
       gradientUnits="userSpaceOnUse"
       gradientTransform="matrix(0.04785026,0,0,0.05589801,51.339942,8.5932485)"
       x1="68.058258"
       y1="52.766853"
       x2="93.905167"
       y2="48.329338" />
    <linearGradient
       gradientTransform="matrix(0.04785026,0,0,0.05589801,53.688426,8.5932485)"
       xlink:href="#linearGradient28"
       id="linearGradient30-42"
       x1="68.058258"
       y1="52.766853"
       x2="93.905167"
       y2="48.329338"
       gradientUnits="userSpaceOnUse" />
    <linearGradient
       gradientTransform="matrix(-7.81785e-4,0.04887137,0.04887137,7.81785e-4,62.757095,3.8708137)"
       xlink:href="#linearGradient28"
       id="linearGradient30-7"
       x1="68.058258"
       y1="52.766853"
       x2="93.905167"
       y2="48.329338"
       gradientUnits="userSpaceOnUse" />
    <linearGradient
       xlink:href="#linearGradient28"
       id="linearGradient2120-2"
       gradientUnits="userSpaceOnUse"
       gradientTransform="matrix(-0.04785026,0,0,-0.05589801,71.02718,6.8616741)"
       x1="68.058258"
       y1="52.766853"
       x2="93.905167"
       y2="48.329338" />
    <linearGradient
       xlink:href="#linearGradient28"
       id="linearGradient2118-5"
       gradientUnits="userSpaceOnUse"
       gradientTransform="matrix(-0.04785026,0,0,-0.05589801,68.754453,6.8616741)"
       x1="68.058258"
       y1="52.766853"
       x2="93.905167"
       y2="48.329338" />
    <linearGradient
       xlink:href="#linearGradient28"
       id="linearGradient2116-4"
       gradientUnits="userSpaceOnUse"
       gradientTransform="matrix(-0.04785026,0,0,-0.05589801,66.405968,6.8616741)"
       x1="68.058258"
       y1="52.766853"
       x2="93.905167"
       y2="48.329338" />
    <linearGradient
       xlink:href="#linearGradient28"
       id="linearGradient2066-4"
       gradientUnits="userSpaceOnUse"
       gradientTransform="matrix(0.04785026,0,0,0.05589801,59.067217,8.593248)"
       x1="68.058258"
       y1="52.766853"
       x2="93.905167"
       y2="48.329338" />
    <linearGradient
       xlink:href="#linearGradient28"
       id="linearGradient2048-9"
       gradientUnits="userSpaceOnUse"
       gradientTransform="matrix(0.04785026,0,0,0.05589801,61.339944,8.593248)"
       x1="68.058258"
       y1="52.766853"
       x2="93.905167"
       y2="48.329338" />
    <linearGradient
       gradientTransform="matrix(0.04785026,0,0,0.05589801,63.688429,8.593248)"
       xlink:href="#linearGradient28"
       id="linearGradient30-93"
       x1="68.058258"
       y1="52.766853"
       x2="93.905167"
       y2="48.329338"
       gradientUnits="userSpaceOnUse" />
    <linearGradient
       xlink:href="#linearGradient28"
       id="linearGradient2337"
       gradientUnits="userSpaceOnUse"
       gradientTransform="matrix(-0.0417883,0,0,-0.04857198,75.583944,6.4314344)"
       x1="68.058258"
       y1="52.766853"
       x2="93.905167"
       y2="48.329338" />
    <linearGradient
       xlink:href="#linearGradient28"
       id="linearGradient2335"
       gradientUnits="userSpaceOnUse"
       gradientTransform="matrix(0.0417883,0,0,0.04857198,70.628178,2.0064654)"
       x1="68.058258"
       y1="52.766853"
       x2="93.905167"
       y2="48.329338" />
    <linearGradient
       xlink:href="#linearGradient28"
       id="linearGradient2333"
       gradientUnits="userSpaceOnUse"
       gradientTransform="matrix(-0.0417883,0,0,-0.04857198,79.296068,6.4974754)"
       x1="68.058258"
       y1="52.766853"
       x2="93.905167"
       y2="48.329338" />
    <linearGradient
       xlink:href="#linearGradient28"
       id="linearGradient2331"
       gradientUnits="userSpaceOnUse"
       gradientTransform="matrix(0.0417883,0,0,0.04857198,74.340299,2.0725074)"
       x1="68.058258"
       y1="52.766853"
       x2="93.905167"
       y2="48.329338" />
    <linearGradient
       xlink:href="#linearGradient28"
       id="linearGradient2265"
       gradientUnits="userSpaceOnUse"
       gradientTransform="matrix(-0.0417883,0,0,-0.04857198,75.640764,13.685222)"
       x1="68.058258"
       y1="52.766853"
       x2="93.905167"
       y2="48.329338" />
    <linearGradient
       xlink:href="#linearGradient28"
       id="linearGradient2263"
       gradientUnits="userSpaceOnUse"
       gradientTransform="matrix(0.0417883,0,0,0.04857198,70.684995,9.2602534)"
       x1="68.058258"
       y1="52.766853"
       x2="93.905167"
       y2="48.329338" />
    <linearGradient
       xlink:href="#linearGradient28"
       id="linearGradient2229"
       gradientUnits="userSpaceOnUse"
       gradientTransform="matrix(-0.0417883,0,0,-0.04857198,79.352887,13.751263)"
       x1="68.058258"
       y1="52.766853"
       x2="93.905167"
       y2="48.329338" />
    <linearGradient
       gradientTransform="matrix(0.0417883,0,0,0.04857198,74.397116,9.3262944)"
       xlink:href="#linearGradient28"
       id="linearGradient30-5"
       x1="68.058258"
       y1="52.766853"
       x2="93.905167"
       y2="48.329338"
       gradientUnits="userSpaceOnUse" />
    <linearGradient
       gradientTransform="matrix(0,0.0625,-0.070221,0,88.204672,3.0537241)"
       xlink:href="#linearGradient28"
       id="linearGradient30-7-7"
       x1="68.058258"
       y1="52.766853"
       x2="93.905167"
       y2="48.329338"
       gradientUnits="userSpaceOnUse" />
    <linearGradient
       xlink:href="#linearGradient28"
       id="linearGradient2337-9"
       gradientUnits="userSpaceOnUse"
       gradientTransform="matrix(-0.0417883,0,0,-0.04857198,85.583944,6.4314336)"
       x1="68.058258"
       y1="52.766853"
       x2="93.905167"
       y2="48.329338" />
    <linearGradient
       xlink:href="#linearGradient28"
       id="linearGradient2335-2"
       gradientUnits="userSpaceOnUse"
       gradientTransform="matrix(0.0417883,0,0,0.04857198,80.628177,2.0064647)"
       x1="68.058258"
       y1="52.766853"
       x2="93.905167"
       y2="48.329338" />
    <linearGradient
       xlink:href="#linearGradient28"
       id="linearGradient2333-8"
       gradientUnits="userSpaceOnUse"
       gradientTransform="matrix(-0.0417883,0,0,-0.04857198,89.296066,6.4974746)"
       x1="68.058258"
       y1="52.766853"
       x2="93.905167"
       y2="48.329338" />
    <linearGradient
       xlink:href="#linearGradient28"
       id="linearGradient2331-3"
       gradientUnits="userSpaceOnUse"
       gradientTransform="matrix(0.0417883,0,0,0.04857198,84.340298,2.0725065)"
       x1="68.058258"
       y1="52.766853"
       x2="93.905167"
       y2="48.329338" />
    <linearGradient
       xlink:href="#linearGradient28"
       id="linearGradient2265-0"
       gradientUnits="userSpaceOnUse"
       gradientTransform="matrix(-0.0417883,0,0,-0.04857198,85.640762,13.685222)"
       x1="68.058258"
       y1="52.766853"
       x2="93.905167"
       y2="48.329338" />
    <linearGradient
       xlink:href="#linearGradient28"
       id="linearGradient2263-1"
       gradientUnits="userSpaceOnUse"
       gradientTransform="matrix(0.0417883,0,0,0.04857198,80.684995,9.2602526)"
       x1="68.058258"
       y1="52.766853"
       x2="93.905167"
       y2="48.329338" />
    <linearGradient
       xlink:href="#linearGradient28"
       id="linearGradient2229-7"
       gradientUnits="userSpaceOnUse"
       gradientTransform="matrix(-0.0417883,0,0,-0.04857198,89.352884,13.751263)"
       x1="68.058258"
       y1="52.766853"
       x2="93.905167"
       y2="48.329338" />
    <linearGradient
       gradientTransform="matrix(0.0417883,0,0,0.04857198,84.397116,9.3262946)"
       xlink:href="#linearGradient28"
       id="linearGradient30-8"
       x1="68.058258"
       y1="52.766853"
       x2="93.905167"
       y2="48.329338"
       gradientUnits="userSpaceOnUse" />
    <linearGradient
       gradientUnits="userSpaceOnUse"
       y2="48.329338"
       x2="93.905167"
       y1="52.766853"
       x1="68.058258"
       id="linearGradient30-37"
       xlink:href="#linearGradient28"
       gradientTransform="matrix(-0.02567333,-0.01104562,0.01104562,-0.02567333,98.847603,4.8327149)" />
    <linearGradient
       gradientUnits="userSpaceOnUse"
       y2="71.008263"
       x2="88.849586"
       y1="58.644627"
       x1="82.105782"
       id="linearGradient1063"
       xlink:href="#linearGradient882"
       gradientTransform="matrix(0.0625,0,0,0.0625,89.999998,-1.2353516e-7)" />
    <linearGradient
       id="linearGradient882">
      <stop
         style="stop-color:#d16208;stop-opacity:1"
         offset="0"
         id="stop878" />
      <stop
         style="stop-color:#d16250;stop-opacity:0;"
         offset="1"
         id="stop880" />
    </linearGradient>
    <linearGradient
       gradientUnits="userSpaceOnUse"
       y2="68.472336"
       x2="56.128345"
       y1="63.697319"
       x1="61.166279"
       id="linearGradient876"
       xlink:href="#linearGradient882"
       gradientTransform="matrix(0.0625,0,0,0.0625,89.999998,-1.2353516e-7)" />
    <linearGradient
       gradientUnits="userSpaceOnUse"
       y2="48.329338"
       x2="93.905167"
       y1="52.766853"
       x1="68.058258"
       id="linearGradient30-0"
       xlink:href="#linearGradient28"
       gradientTransform="matrix(-0.02881053,-0.01239536,0.01239536,-0.02881053,108.70072,5.4503207)" />
    <linearGradient
       gradientUnits="userSpaceOnUse"
       y2="48.329338"
       x2="93.905167"
       y1="52.766853"
       x1="68.058258"
       id="linearGradient30-80"
       xlink:href="#linearGradient28"
       gradientTransform="matrix(-0.02849684,-0.0122604,0.0122604,-0.02849684,118.86314,5.4302307)" />
    <linearGradient
       xlink:href="#linearGradient846"
       id="linearGradient848"
       x1="72.37397"
       y1="53.171356"
       x2="72.19931"
       y2="45.564011"
       gradientUnits="userSpaceOnUse"
       gradientTransform="matrix(0.0625,0,0,0.0625,110,-2.6464844e-7)" />
    <linearGradient
       id="linearGradient846">
      <stop
         style="stop-color:#423abf;stop-opacity:1;"
         offset="0"
         id="stop842" />
      <stop
         style="stop-color:#423abf;stop-opacity:0;"
         offset="1"
         id="stop844" />
    </linearGradient>
  </defs>
  <flowRoot
     style="font-style:normal;font-variant:normal;font-weight:bold;font-stretch:normal;font-size:1px;line-height:1.25;font-family:'DejaVu Sans';-inkscape-font-specification:'DejaVu Sans Bold';letter-spacing:0px;word-spacing:0px;fill:#000000;fill-opacity:1;stroke:none;stroke-width:0.0625"
     id="flowRoot100"
     xml:space="preserve"><flowRegion
       style="stroke-width:0.0625"
       id="flowRegion102"><rect
         style="stroke-width:0.00390625"
         y="0.73863637"
         x="0.66287881"
         height="1.3636364"
         width="1.5151515"
         id="rect104" /></flowRegion><flowPara
       style="stroke-width:0.0625"
       id="flowPara106" /></flowRoot>  <rect
     y="0.066353992"
     x="0.0080092615"
     height="15.625"
     width="10"
     id="clubs04"
     style="fill:#ffffff;fill-opacity:1;stroke:#1a1a1a;stroke-width:0.0625;stroke-opacity:1" />
  <rect
     y="1.3731718"
     x="1.3527052"
     height="12.973484"
     width="7.2537889"
     id="rect108-2"
     style="fill:none;fill-opacity:1;stroke:#1a1a1a;stroke-width:0.0625;stroke-opacity:1" />
  <g
     id="flowRoot915-99"
     style="font-style:normal;font-variant:normal;font-weight:bold;font-stretch:normal;font-size:16px;line-height:1.25;font-family:'DejaVu Sans';-inkscape-font-specification:'DejaVu Sans Bold';text-align:start;letter-spacing:0px;word-spacing:0px;text-anchor:start;fill:#000000;fill-opacity:1;stroke:none"
     transform="matrix(0.0625,0,0,0.0625,0.19740315,0.06635459)"
     aria-label="4">
    <path
       id="path3675"
       d="M 8.921875,9.5136719 5.625,14.396484 h 3.296875 z m -0.5,-2.4765625 h 3.34375 v 7.3593746 h 1.664063 v 2.179688 h -1.664063 v 2.125 h -2.84375 v -2.125 H 3.75 v -2.578125 z"
       inkscape:connector-curvature="0" />
  </g>
  <path
     style="fill:#ffff00;stroke:#000000;stroke-width:0.05602228px;stroke-linecap:butt;stroke-linejoin:miter;stroke-opacity:1"
     d="m 4.7956772,9.5385094 -0.323723,0.1872248 -0.05241,0.130367 -0.222007,0.1881188 0.02008,0.369209 0.07896,0.138926 0.03092,0.143442 -0.06161,0.136457 -0.184421,0.05392 -0.100257,-0.04284 -0.02713,0.263885 0.05139,0.157198 -0.03131,0.21201 -0.05033,0.156305 -0.121554,0.05324 -0.132202,0.101279 -0.04678,0.14029 -0.01357,0.131942 0.07959,0.206814 -0.03968,0.108263 -0.08626,0.07083 -0.09607,0.009 -0.07415,-0.01917 0.0088,0.349363 -0.02504,0.289821 -0.17042,0.167591 -0.202169,0.133988 -0.08543,-0.03901 -0.19507,0.10196 -0.21972,0.03633 -0.185053,-0.01397 -0.08042,-0.09698 -0.160207,-0.126063 -0.254823,-0.158985 -0.1128,-0.198467 -0.04556,-0.325001 -0.028,-0.227342 0.0023,-0.151789 0.09355,-0.280581 0.07288,-0.11661 0.130743,-0.05933 0.230173,0.09335 0.211793,0.105536 0.0142,-0.06405 0.02776,-0.195997 0.110274,-0.07309 0.129916,0.05051 0.123448,0.150425 0.01293,-0.19983 -0.0069,-0.145698 0.05387,-0.172318 0.122382,-0.163076 0.09063,-0.196679 0.09836,-0.160819 0.09481,-0.144805 -0.0564,-0.09923 -0.06768,-0.11908 0.03404,-0.118186 0.05514,-0.03654 0.123013,-0.09519 0.08125,-0.01286 0.04678,-0.1402898 0.07225,-0.184498 0.06306,-0.1784068 0.128021,-0.153154 0.190889,-0.1538338 0.125104,-0.06925 0.05514,-0.03654 0.09126,-0.128791 0.0708,-0.1425471 0.131375,0.0086 0.08752,0.06495 0.09024,0.158773 0.09588,0.168697 z"
     id="path2551-6"
     inkscape:connector-curvature="0" />
  <path
     style="fill:#ffff00;stroke:#000000;stroke-width:0.05602228px;stroke-linecap:butt;stroke-linejoin:miter;stroke-opacity:1"
     d="m 3.3931662,12.435244 -0.06574,-0.06402 -0.01727,-0.06384 0.0047,-0.09209 0.03191,-0.05537 0.04604,-0.03051 0.09773,-0.05108 0.03893,0.0016 0.08027,-0.02043"
     id="path2553-0"
     inkscape:connector-curvature="0" />
  <path
     style="fill:none;stroke:#000000;stroke-width:0.05602228px;stroke-linecap:butt;stroke-linejoin:miter;stroke-opacity:1"
     d="m 2.7842872,11.786865 -0.04487,0.118524 -0.03652,0.05842 c 0,0 0.0041,0.008 -0.02859,0.01895 -0.0271,0.009 -0.114451,0.04163 -0.114451,0.04163 l -0.08738,-0.03107 -0.0938,-0.07426"
     id="path2555-27"
     inkscape:connector-curvature="0" />
  <path
     style="fill:none;stroke:#000000;stroke-width:0.05602228px;stroke-linecap:butt;stroke-linejoin:miter;stroke-opacity:1"
     d="m 3.2503832,10.60364 0.107261,0.03648 0.07293,-0.0278 0.07617,-0.07786 0.02448,-0.05729 -0.02292,-0.07379 -0.03737,-0.132654 -0.03778,-0.07763 -0.01343,-0.07055"
     id="path2557-61"
     inkscape:connector-curvature="0" />
  <path
     style="fill:none;stroke:#000000;stroke-width:0.05602228px;stroke-linecap:butt;stroke-linejoin:miter;stroke-opacity:1"
     d="m 3.9812082,10.843329 -0.07377,-0.06111 -0.01476,-0.09288 0.0057,-0.0791 0.07439,-0.06984 0.05242,-0.04159 0.05525,-0.03662 0.04353,-0.0015 0.08738,0.03107 0.08518,0.06056"
     id="path2559-32"
     inkscape:connector-curvature="0" />
  <path
     style="fill:none;stroke:#000000;stroke-width:0.05602228px;stroke-linecap:butt;stroke-linejoin:miter;stroke-opacity:1"
     d="m 4.7956772,9.5385094 -0.146537,0.0061 -0.101919,-8.94e-4 -0.119922,-0.04372 -0.09334,-0.07502 -0.0675,-0.08531 -0.05473,-0.107455 -0.01948,-0.154447"
     id="path2561-1"
     inkscape:connector-curvature="0" />
  <path
     style="fill:#008000;fill-opacity:1;stroke:none;stroke-width:0.00495172;stroke-opacity:0.02617804"
     d="m 4.6519062,9.5858604 c -0.0065,0.0043 -0.05466,0.03213 -0.106895,0.06195 l -0.09498,0.05422 -0.0094,0.02288 c -0.0052,0.01258 -0.01746,0.04287 -0.02735,0.0673 l -0.01798,0.04443 -0.1105,0.09348 c -0.06077,0.05141 -0.112079,0.09558 -0.11401,0.09814 -0.0062,0.0083 0.01782,0.399241 0.02542,0.412887 0.0068,0.01227 0.0056,0.01228 -0.03481,2.5e-4 -0.02304,-0.0069 -0.05381,-0.01202 -0.06837,-0.01144 -0.0261,10e-4 -0.02719,0.0016 -0.07632,0.03787 -0.02741,0.02025 -0.07167,0.05721 -0.09835,0.08213 l -0.04852,0.04531 -0.0033,0.04503 c -0.0019,0.02522 3.82e-4,0.07024 0.0051,0.102317 l 0.0084,0.05729 0.03511,0.02872 0.03511,0.02872 -0.01326,0.126359 -0.01326,0.12636 0.0258,0.07754 0.0258,0.07754 -0.01533,0.103012 c -0.01653,0.111035 -0.0498,0.2309 -0.0673,0.242392 -0.0052,0.0034 -0.03063,0.01539 -0.05654,0.02662 -0.0426,0.01846 -0.05389,0.02563 -0.118086,0.07488 -0.04551,0.03491 -0.07249,0.05832 -0.07517,0.0652 -0.02837,0.07278 -0.05009,0.152848 -0.05453,0.200992 -0.0028,0.03021 -0.0077,0.05546 -0.01086,0.0561 -0.0032,6.38e-4 -0.01517,0.004 -0.02662,0.0074 -0.01145,0.0034 -0.03111,0.0058 -0.04369,0.0053 -0.0192,-7.57e-4 -0.03088,0.0033 -0.07269,0.02515 -0.08751,0.04578 -0.105051,0.05943 -0.128592,0.100094 -0.01867,0.03225 -0.02073,0.03997 -0.02305,0.08635 -0.0018,0.03672 3.62e-4,0.06198 0.0079,0.09049 l 0.01041,0.03955 0.03137,0.02997 0.03137,0.02997 0.0044,0.169091 c 0.0035,0.135044 0.0022,0.195361 -0.0067,0.299567 -0.0061,0.07176 -0.01162,0.133171 -0.01218,0.136463 -5.69e-4,0.0033 -0.03784,0.04223 -0.08283,0.08654 -0.08157,0.08031 -0.08208,0.08073 -0.173222,0.141048 l -0.09141,0.06051 -0.03292,-0.01577 c -0.01811,-0.0087 -0.03701,-0.01749 -0.042,-0.01959 -0.0072,-0.003 -0.02946,0.0069 -0.107933,0.0483 l -0.09885,0.05211 -0.108979,0.01837 c -0.101351,0.01708 -0.114763,0.01792 -0.191652,0.01201 -0.04547,-0.0035 -0.0846,-0.0073 -0.08694,-0.0085 -0.0024,-0.0012 -0.0197,-0.02121 -0.03856,-0.04449 -0.05082,-0.06272 -0.163026,-0.149475 -0.321148,-0.248309 l -0.124734,-0.07796 -0.05508,-0.09691 -0.05508,-0.09691 -0.02255,-0.16193 c -0.04107,-0.294894 -0.04921,-0.370932 -0.04786,-0.446794 l 0.0013,-0.07241 0.04588,-0.137474 c 0.04141,-0.124062 0.04908,-0.142536 0.07867,-0.189356 l 0.03278,-0.05188 0.05552,-0.02515 c 0.03054,-0.01383 0.0574,-0.02448 0.0597,-0.02366 0.06283,0.02242 0.23719,0.09877 0.318471,0.139442 0.08392,0.042 0.117003,0.06154 0.152426,0.09006 0.03828,0.03083 0.05315,0.03922 0.09669,0.05456 0.05091,0.01795 0.05176,0.01802 0.08244,0.0067 0.01704,-0.0063 0.05217,-0.0193 0.07806,-0.02887 l 0.04707,-0.0174 0.02419,-0.0392 c 0.01331,-0.02156 0.02943,-0.05322 0.03581,-0.07036 0.01477,-0.03951 0.01892,-0.0453 0.02628,-0.03661 0.0085,0.01 0.02417,-0.253795 0.02022,-0.339308 -0.0032,-0.06931 -0.0032,-0.06944 0.02255,-0.15079 l 0.02576,-0.08142 0.05904,-0.07799 c 0.05566,-0.07351 0.06167,-0.08367 0.104814,-0.177132 0.04462,-0.09664 0.09811,-0.189915 0.185991,-0.324315 l 0.04038,-0.06175 0.0311,0.01068 c 0.0657,0.02255 0.06702,0.02259 0.11384,0.0033 l 0.04305,-0.01771 0.04136,-0.04304 c 0.03424,-0.03563 0.04395,-0.04906 0.05638,-0.07802 l 0.01502,-0.03498 -0.03457,-0.116533 c -0.01901,-0.06409 -0.04214,-0.132284 -0.05139,-0.151536 -0.02801,-0.05829 -0.02915,-0.07841 -0.0082,-0.143392 0.01,-0.03096 0.03562,-0.1008806 0.05692,-0.1553786 0.0213,-0.0545 0.05302,-0.139559 0.07049,-0.189025 l 0.03176,-0.08994 0.06049,-0.07238 c 0.05796,-0.06936 0.06433,-0.07549 0.15247,-0.146638 0.08355,-0.06744 0.09858,-0.07797 0.16398,-0.1148058 0.104294,-0.05874 0.111261,-0.06394 0.139782,-0.104263 0.0137,-0.01937 0.02592,-0.03494 0.02715,-0.0346 0.0012,3.75e-4 0.004,0.01713 0.0061,0.03731 0.0034,0.03269 0.0071,0.04311 0.03343,0.09557 0.04117,0.08195 0.08383,0.1357818 0.151551,0.1912098 0.04594,0.0376 0.05559,0.04306 0.114631,0.06478 0.057,0.02097 0.07109,0.02376 0.121655,0.02406 0.06847,4.37e-4 0.06822,3.75e-4 0.05318,0.01012 z"
     id="path2563-5"
     inkscape:connector-curvature="0" />
  <path
     id="path2581-99"
     d="m 4.5997042,9.5783924 c -0.09851,-1.25e-4 -0.201861,-0.0487 -0.289898,-0.136287 -0.05693,-0.05664 -0.12774,-0.1806308 -0.134419,-0.2353728 -0.0025,-0.02024 -0.005,-0.03644 -0.0055,-0.036 -5.88e-4,4.38e-4 -0.01358,0.01634 -0.0289,0.03534 -0.02478,0.03073 -0.0395,0.04172 -0.133353,0.09962 -0.142147,0.08769 -0.229533,0.1588358 -0.311894,0.2539348 l -0.06339,0.07319 -0.07354,0.1980378 c -0.08597,0.2314978 -0.10278,0.2837238 -0.10079,0.3130338 8.07e-4,0.01187 0.01072,0.04442 0.02203,0.07235 0.01131,0.02793 0.03537,0.09957 0.05347,0.1592 l 0.0329,0.108422 -0.01877,0.03703 c -0.02026,0.04 -0.07345,0.101269 -0.104925,0.120877 -0.04468,0.02783 -0.08729,0.03354 -0.135211,0.01812 l -0.04579,-0.01474 -0.05736,0.09008 c -0.07351,0.115439 -0.120175,0.197491 -0.160708,0.282552 -0.04503,0.09449 -0.06251,0.123799 -0.115575,0.193878 -0.02545,0.03361 -0.05008,0.06977 -0.05472,0.08036 -0.02101,0.04791 -0.04763,0.147793 -0.04735,0.177669 6.86e-4,0.07394 -0.0069,0.286309 -0.01184,0.330592 -0.0029,0.0261 -0.0089,0.04988 -0.0134,0.05284 -0.0045,0.003 -0.01701,0.0254 -0.02787,0.04987 -0.01086,0.02447 -0.0276,0.05696 -0.03721,0.0722 l -0.01746,0.02771 -0.07505,0.02749 -0.07504,0.02749 -0.04959,-0.0145 c -0.03459,-0.01011 -0.06825,-0.02775 -0.111276,-0.0583 -0.03393,-0.02409 -0.10415,-0.06465 -0.156049,-0.09012 -0.100676,-0.04941 -0.286919,-0.130606 -0.306542,-0.13364 -0.0065,-10e-4 -0.03599,0.0094 -0.06552,0.02315 l -0.05369,0.02498 -0.03238,0.05579 c -0.01983,0.03416 -0.04956,0.106017 -0.07668,0.185333 -0.05967,0.174516 -0.05979,0.202386 -0.0025,0.617889 l 0.02631,0.190658 0.05656,0.09952 0.05656,0.09952 0.0672,0.04158 c 0.186987,0.115732 0.303776,0.203291 0.36923,0.276827 0.02211,0.02484 0.0453,0.04704 0.05153,0.04932 0.03586,0.01316 0.182238,0.01026 0.276222,-0.0055 0.10065,-0.01685 0.104513,-0.01814 0.196861,-0.06587 0.05181,-0.02678 0.09822,-0.04949 0.103148,-0.05048 0.0049,-9.87e-4 0.02534,0.0061 0.04537,0.01583 l 0.03641,0.01763 0.09483,-0.06285 c 0.0831,-0.05507 0.104615,-0.07256 0.173875,-0.141266 l 0.07904,-0.07841 0.0093,-0.11205 c 0.01109,-0.133519 0.01237,-0.188552 0.0084,-0.361262 l -0.003,-0.13066 -0.0319,-0.03075 c -0.0304,-0.02932 -0.03229,-0.03254 -0.04039,-0.06899 -0.0047,-0.02103 -0.0085,-0.05983 -0.0084,-0.08621 6.9e-5,-0.03923 0.0045,-0.05601 0.02427,-0.09211 l 0.02418,-0.04415 0.06241,-0.03587 c 0.06688,-0.03843 0.0775,-0.0424 0.14247,-0.05323 l 0.04217,-0.007 0.01535,-0.08109 c 0.0084,-0.0446 0.02314,-0.103138 0.03267,-0.13009 0.01521,-0.04305 0.02191,-0.05302 0.05514,-0.08201 0.05117,-0.04465 0.114918,-0.08655 0.17079,-0.112256 0.04605,-0.02119 0.0464,-0.02151 0.05769,-0.05254 0.01875,-0.05152 0.03838,-0.137418 0.05172,-0.226259 l 0.01259,-0.08383 -0.02584,-0.07714 -0.02584,-0.07714 0.01278,-0.119219 c 0.007,-0.06557 0.01223,-0.122975 0.01156,-0.127565 -6.74e-4,-0.0046 -0.01449,-0.01912 -0.0307,-0.03229 -0.01621,-0.01317 -0.03207,-0.02851 -0.03524,-0.03408 -0.0079,-0.01396 -0.01859,-0.147823 -0.01427,-0.179411 0.0031,-0.02241 0.0097,-0.0314 0.05132,-0.0692 0.079,-0.0718 0.143872,-0.119786 0.16421,-0.121474 0.0098,-8.19e-4 0.03904,0.0036 0.06488,0.0099 0.02584,0.0063 0.04699,0.0097 0.047,0.0077 1.2e-5,-0.002 -0.0043,-0.0555 -0.0095,-0.118809 -0.0076,-0.09194 -0.01807,-0.286306 -0.01599,-0.296993 2.56e-4,-0.0012 0.05085,-0.04514 0.112459,-0.09755 l 0.112019,-0.09529 0.02828,-0.06835 0.02828,-0.06836 0.08306,-0.0468 c 0.04568,-0.02574 0.09055,-0.05294 0.0997,-0.06043 0.01649,-0.0135 0.01621,-0.01363 -0.031,-0.01368 z"
     style="fill:url(#linearGradient30-2);fill-opacity:1;fill-rule:nonzero;stroke:#000000;stroke-width:0.00686739;stroke-miterlimit:4;stroke-dasharray:0.00686739, 0.01373477;stroke-dashoffset:0;stroke-opacity:0.96254536"
     inkscape:connector-curvature="0" />
  <path
     id="path502"
     d="m 5.1711692,9.5195694 0.323722,0.1872258 0.05242,0.130367 0.222007,0.1881178 -0.02008,0.369209 -0.07896,0.138927 -0.03092,0.143441 0.06161,0.136458 0.18442,0.05392 0.100257,-0.04284 0.02713,0.263885 -0.05139,0.157197 0.03131,0.212011 0.05033,0.156304 0.121554,0.05324 0.132203,0.101279 0.04678,0.14029 0.01357,0.131942 -0.07959,0.206814 0.03968,0.108263 0.08626,0.07083 0.09607,0.009 0.07415,-0.01917 -0.0088,0.349362 0.02504,0.289822 0.170419,0.167591 0.202169,0.133987 0.08543,-0.03901 0.19507,0.10196 0.21972,0.03633 0.185053,-0.01397 0.08042,-0.09698 0.160207,-0.126064 0.254823,-0.158985 0.1128,-0.198466 0.04556,-0.325001 0.028,-0.227342 -0.0023,-0.15179 -0.09355,-0.28058 -0.07288,-0.116611 -0.130744,-0.05933 -0.230172,0.09335 -0.211793,0.105536 -0.0142,-0.06405 -0.02777,-0.195998 -0.110274,-0.07308 -0.129916,0.05051 -0.123448,0.150426 -0.01293,-0.19983 0.0069,-0.145699 -0.05387,-0.172317 -0.122382,-0.163076 -0.09063,-0.19668 -0.09836,-0.160819 -0.09481,-0.144804 0.0564,-0.09923 0.06768,-0.11908 -0.03404,-0.118185 -0.05514,-0.03654 -0.123013,-0.09519 -0.08125,-0.01286 -0.04678,-0.1402898 -0.07225,-0.184498 -0.06306,-0.1784078 -0.128022,-0.153153 -0.190889,-0.1538348 -0.125103,-0.06925 -0.05514,-0.03654 -0.09126,-0.128791 -0.0708,-0.1425471 -0.131375,0.0086 -0.08752,0.06495 -0.09024,0.158774 -0.09588,0.168696 z"
     style="fill:#ffff00;stroke:#000000;stroke-width:0.05602228px;stroke-linecap:butt;stroke-linejoin:miter;stroke-opacity:1"
     inkscape:connector-curvature="0" />
  <path
     id="path504"
     d="m 6.5736802,12.416305 0.06574,-0.06402 0.01727,-0.06384 -0.0047,-0.09209 -0.03191,-0.05537 -0.04604,-0.03051 -0.09773,-0.05108 -0.03893,0.0016 -0.08027,-0.02043"
     style="fill:#ffff00;stroke:#000000;stroke-width:0.05602228px;stroke-linecap:butt;stroke-linejoin:miter;stroke-opacity:1"
     inkscape:connector-curvature="0" />
  <path
     id="path506"
     d="m 7.1825582,11.767926 0.04487,0.118524 0.03652,0.05842 c 0,0 -0.0041,0.008 0.02859,0.01895 0.0271,0.009 0.114452,0.04163 0.114452,0.04163 l 0.08738,-0.03107 0.0938,-0.07426"
     style="fill:none;stroke:#000000;stroke-width:0.05602228px;stroke-linecap:butt;stroke-linejoin:miter;stroke-opacity:1"
     inkscape:connector-curvature="0" />
  <path
     id="path508"
     d="m 6.7164622,10.584701 -0.107261,0.03648 -0.07293,-0.0278 -0.07617,-0.07786 -0.02448,-0.05729 0.02292,-0.07378 0.03737,-0.132655 0.03778,-0.07763 0.01343,-0.07055"
     style="fill:none;stroke:#000000;stroke-width:0.05602228px;stroke-linecap:butt;stroke-linejoin:miter;stroke-opacity:1"
     inkscape:connector-curvature="0" />
  <path
     id="path510"
     d="m 5.9856372,10.82439 0.07377,-0.06111 0.01476,-0.09288 -0.0057,-0.0791 -0.07439,-0.06984 -0.05242,-0.04159 -0.05525,-0.03662 -0.04353,-0.0015 -0.08738,0.03107 -0.08518,0.06056"
     style="fill:none;stroke:#000000;stroke-width:0.05602228px;stroke-linecap:butt;stroke-linejoin:miter;stroke-opacity:1"
     inkscape:connector-curvature="0" />
  <path
     id="path512"
     d="m 5.1711692,9.5195694 0.146536,0.0061 0.10192,-8.94e-4 0.119921,-0.04372 0.09334,-0.07502 0.0675,-0.08531 0.05473,-0.107455 0.01948,-0.154446"
     style="fill:none;stroke:#000000;stroke-width:0.05602228px;stroke-linecap:butt;stroke-linejoin:miter;stroke-opacity:1"
     inkscape:connector-curvature="0" />
  <path
     id="path514"
     d="m 5.3149402,9.5669204 c 0.0065,0.0043 0.05466,0.03213 0.106895,0.06195 l 0.09498,0.05422 0.0094,0.02288 c 0.0052,0.01258 0.01746,0.04286 0.02735,0.0673 l 0.01798,0.04443 0.1105,0.09348 c 0.06077,0.05142 0.11208,0.09558 0.114011,0.09814 0.0062,0.0083 -0.01782,0.399241 -0.02542,0.412886 -0.0068,0.01227 -0.0056,0.01228 0.03481,2.5e-4 0.02304,-0.0069 0.05381,-0.01202 0.06837,-0.01144 0.0261,10e-4 0.02718,0.0016 0.07632,0.03787 0.02741,0.02025 0.07167,0.05721 0.09836,0.08213 l 0.04852,0.04531 0.0033,0.04503 c 0.0019,0.02522 -3.75e-4,0.07024 -0.0051,0.102318 l -0.0084,0.05729 -0.03511,0.02872 -0.03511,0.02872 0.01326,0.12636 0.01326,0.12636 -0.02581,0.07754 -0.0258,0.07754 0.01533,0.103012 c 0.01653,0.111036 0.0498,0.2309 0.0673,0.242393 0.0052,0.0034 0.03063,0.01539 0.05654,0.02662 0.0426,0.01846 0.05389,0.02563 0.118087,0.07488 0.0455,0.03491 0.07249,0.05832 0.07517,0.0652 0.02837,0.07278 0.05009,0.152849 0.05453,0.200992 0.0028,0.03021 0.0077,0.05546 0.01086,0.0561 0.0032,6.37e-4 0.01517,0.004 0.02662,0.0074 0.01145,0.0034 0.03111,0.0058 0.0437,0.0053 0.0192,-7.56e-4 0.03088,0.0033 0.07269,0.02515 0.08751,0.04578 0.10505,0.05943 0.128592,0.100093 0.01866,0.03225 0.02072,0.03997 0.02305,0.08635 0.0018,0.03672 -3.75e-4,0.06198 -0.0079,0.09049 l -0.01041,0.03955 -0.03137,0.02997 -0.03137,0.02997 -0.0044,0.16909 c -0.0035,0.135045 -0.0022,0.195362 0.0067,0.299568 0.0061,0.07176 0.01162,0.133171 0.01218,0.136462 5.63e-4,0.0033 0.03784,0.04223 0.08283,0.08654 0.08157,0.08031 0.08208,0.08073 0.173223,0.141049 l 0.09141,0.06051 0.03292,-0.01577 c 0.01811,-0.0087 0.03701,-0.01749 0.042,-0.01959 0.0072,-0.003 0.02946,0.0069 0.107934,0.0483 l 0.09885,0.05211 0.108979,0.01837 c 0.101352,0.01708 0.114764,0.01792 0.191653,0.01201 0.04547,-0.0035 0.0846,-0.0073 0.08694,-0.0085 0.0023,-0.0012 0.0197,-0.02121 0.03856,-0.04449 0.05082,-0.06272 0.163027,-0.149476 0.321149,-0.248309 l 0.124733,-0.07796 0.05508,-0.09691 0.05508,-0.09691 0.02255,-0.16193 c 0.04107,-0.294893 0.04921,-0.370931 0.04786,-0.446793 l -0.0013,-0.07241 -0.04588,-0.137474 c -0.04141,-0.124062 -0.04908,-0.142536 -0.07867,-0.189356 l -0.03278,-0.05188 -0.05552,-0.02515 c -0.03054,-0.01383 -0.0574,-0.02448 -0.0597,-0.02366 -0.06283,0.02242 -0.23719,0.09877 -0.318471,0.139441 -0.08392,0.042 -0.117003,0.06155 -0.152426,0.09006 -0.03828,0.03083 -0.05315,0.03922 -0.09669,0.05456 -0.05091,0.01795 -0.05176,0.01801 -0.08244,0.0067 -0.01704,-0.0063 -0.05217,-0.0193 -0.07806,-0.02887 l -0.04707,-0.0174 -0.02419,-0.0392 c -0.01331,-0.02156 -0.02943,-0.05322 -0.03581,-0.07036 -0.01477,-0.0395 -0.01893,-0.0453 -0.02628,-0.03661 -0.0085,0.01 -0.02417,-0.253794 -0.02022,-0.339308 0.0032,-0.06931 0.0032,-0.06944 -0.02255,-0.15079 l -0.02576,-0.08142 -0.05904,-0.07799 c -0.05566,-0.07351 -0.06167,-0.08367 -0.104814,-0.177132 -0.04462,-0.09664 -0.09811,-0.189916 -0.185991,-0.324315 l -0.04038,-0.06175 -0.0311,0.01068 c -0.0657,0.02255 -0.06702,0.02259 -0.113839,0.0033 l -0.04305,-0.01771 -0.04136,-0.04304 c -0.03424,-0.03563 -0.04395,-0.04906 -0.05638,-0.07802 l -0.01502,-0.03498 0.03457,-0.116533 c 0.01901,-0.06409 0.04214,-0.132284 0.05139,-0.151536 0.02801,-0.05829 0.02916,-0.07841 0.0082,-0.143393 -0.01,-0.03096 -0.03562,-0.1008796 -0.05692,-0.1553776 -0.0213,-0.0545 -0.05302,-0.139559 -0.07049,-0.189025 l -0.03176,-0.08994 -0.06049,-0.07238 c -0.05796,-0.06936 -0.06433,-0.07549 -0.152469,-0.1466368 -0.08355,-0.06744 -0.09858,-0.07797 -0.16398,-0.114806 -0.104294,-0.05874 -0.111262,-0.06394 -0.139782,-0.104264 -0.0137,-0.01937 -0.02592,-0.03494 -0.02715,-0.0346 -0.0012,3.75e-4 -0.004,0.01713 -0.0061,0.03731 -0.0034,0.03269 -0.0071,0.04311 -0.03343,0.09557 -0.04117,0.08195 -0.08383,0.1357828 -0.151551,0.1912108 -0.04594,0.0376 -0.05559,0.04306 -0.114631,0.06478 -0.057,0.02097 -0.07109,0.02376 -0.121655,0.02406 -0.06847,4.38e-4 -0.06822,3.75e-4 -0.05318,0.01012 z"
     style="fill:#008000;fill-opacity:1;stroke:none;stroke-width:0.00495172;stroke-opacity:0.02617804"
     inkscape:connector-curvature="0" />
  <path
     style="fill:url(#linearGradient518);fill-opacity:1;fill-rule:nonzero;stroke:#000000;stroke-width:0.00686739;stroke-miterlimit:4;stroke-dasharray:0.00686739, 0.01373477;stroke-dashoffset:0;stroke-opacity:0.96254536"
     d="m 5.3671412,9.5594534 c 0.09851,-1.25e-4 0.201862,-0.0487 0.289899,-0.136287 0.05693,-0.05664 0.12774,-0.1806308 0.134418,-0.2353738 0.0025,-0.02024 0.005,-0.03644 0.0055,-0.03599 5.62e-4,4.37e-4 0.01358,0.01634 0.0289,0.03534 0.02478,0.03073 0.0395,0.04173 0.133353,0.09962 0.142147,0.08769 0.229532,0.1588348 0.311894,0.2539348 l 0.06339,0.07319 0.07354,0.1980388 c 0.08597,0.2314978 0.10278,0.2837228 0.100789,0.3130338 -8.06e-4,0.01186 -0.01072,0.04442 -0.02203,0.07235 -0.01131,0.02793 -0.03537,0.09957 -0.05346,0.159201 l -0.0329,0.108421 0.01877,0.03703 c 0.02026,0.04 0.07345,0.101268 0.104925,0.120876 0.04468,0.02783 0.08729,0.03354 0.135211,0.01812 l 0.04579,-0.01474 0.05736,0.09008 c 0.07351,0.11544 0.120175,0.197491 0.160708,0.282553 0.04503,0.09449 0.06251,0.123799 0.115575,0.193877 0.02545,0.03361 0.05008,0.06977 0.05472,0.08036 0.02101,0.04791 0.04763,0.147793 0.04735,0.177668 -6.88e-4,0.07395 0.0069,0.286309 0.01184,0.330592 0.0029,0.0261 0.0089,0.04988 0.0134,0.05284 0.0045,0.003 0.01701,0.0254 0.02787,0.04987 0.01086,0.02447 0.0276,0.05695 0.03721,0.0722 l 0.01746,0.02771 0.07505,0.02749 0.07504,0.02749 0.04959,-0.0145 c 0.03459,-0.01011 0.06825,-0.02775 0.111276,-0.0583 0.03393,-0.02409 0.10415,-0.06465 0.156049,-0.09012 0.100676,-0.04941 0.286918,-0.130605 0.306542,-0.13364 0.0065,-10e-4 0.03599,0.0094 0.06552,0.02315 l 0.05369,0.02498 0.03238,0.05579 c 0.01983,0.03416 0.04956,0.106017 0.07668,0.185334 0.05967,0.174515 0.05979,0.202385 0.0025,0.617888 l -0.02631,0.190659 -0.05656,0.09952 -0.05656,0.09952 -0.0672,0.04159 c -0.186987,0.115732 -0.303775,0.203291 -0.36923,0.276826 -0.02211,0.02484 -0.0453,0.04704 -0.05153,0.04932 -0.03586,0.01316 -0.182238,0.01026 -0.276221,-0.0055 -0.100651,-0.01685 -0.104514,-0.01814 -0.196862,-0.06587 -0.05181,-0.02677 -0.09822,-0.04949 -0.103148,-0.05048 -0.0049,-9.87e-4 -0.02534,0.0061 -0.04536,0.01583 l -0.03641,0.01763 -0.09483,-0.06285 c -0.0831,-0.05507 -0.104614,-0.07256 -0.173875,-0.141265 l -0.07904,-0.07842 -0.0093,-0.112049 c -0.01109,-0.13352 -0.01237,-0.188552 -0.0084,-0.361263 l 0.003,-0.13066 0.03189,-0.03075 c 0.0304,-0.02932 0.03229,-0.03254 0.04039,-0.06899 0.0047,-0.02103 0.0085,-0.05982 0.0084,-0.0862 -6.3e-5,-0.03923 -0.0045,-0.05601 -0.02427,-0.09211 l -0.02418,-0.04415 -0.06241,-0.03587 c -0.06688,-0.03843 -0.0775,-0.0424 -0.14247,-0.05323 l -0.04217,-0.007 -0.01535,-0.08109 c -0.0084,-0.0446 -0.02314,-0.103138 -0.03267,-0.130091 -0.01521,-0.04305 -0.02191,-0.05302 -0.05514,-0.08201 -0.05117,-0.04465 -0.114918,-0.08655 -0.17079,-0.112255 -0.04605,-0.02119 -0.0464,-0.02151 -0.05769,-0.05254 -0.01875,-0.05152 -0.03838,-0.137419 -0.05172,-0.22626 l -0.01259,-0.08383 0.02584,-0.07714 0.02584,-0.07714 -0.01278,-0.119219 c -0.007,-0.06557 -0.01223,-0.122975 -0.01156,-0.127566 6.75e-4,-0.0046 0.01449,-0.01912 0.0307,-0.03229 0.01622,-0.01317 0.03207,-0.02851 0.03525,-0.03408 0.0079,-0.01396 0.01859,-0.147823 0.01427,-0.179411 -0.0031,-0.02241 -0.0097,-0.03141 -0.05132,-0.06921 -0.079,-0.0718 -0.143872,-0.119785 -0.16421,-0.121474 -0.0098,-8.18e-4 -0.03904,0.0036 -0.06488,0.0099 -0.02584,0.0063 -0.04699,0.0097 -0.047,0.0077 -1.2e-5,-0.002 0.0043,-0.05551 0.0095,-0.11881 0.0076,-0.09194 0.01807,-0.286306 0.01599,-0.296993 -2.5e-4,-0.0012 -0.05085,-0.04514 -0.11246,-0.09755 l -0.112019,-0.09529 -0.02828,-0.06835 -0.02828,-0.06835 -0.08306,-0.0468 c -0.04568,-0.02574 -0.09055,-0.05294 -0.0997,-0.06043 -0.01649,-0.0135 -0.01621,-0.01363 0.031,-0.01368 z"
     id="path516"
     inkscape:connector-curvature="0" />
  <path
     id="path520"
     d="m 4.7767372,6.1096675 -0.323722,-0.187226 -0.05242,-0.130367 -0.222007,-0.188118 0.02008,-0.369209 0.07896,-0.138927 0.03092,-0.143441 -0.06161,-0.136458 -0.18442,-0.05392 -0.100257,0.04284 -0.02713,-0.263885 0.05139,-0.157197 -0.03131,-0.212011 -0.05032,-0.156304 -0.121554,-0.05324 -0.132203,-0.101278 -0.04678,-0.14029 -0.01357,-0.131943 0.07959,-0.206814 -0.03968,-0.108263 -0.08626,-0.07083 -0.09608,-0.009 -0.07415,0.01916 0.0088,-0.349362 -0.02504,-0.289822 -0.170419,-0.167591 -0.202169,-0.133987 -0.08543,0.03901 -0.19507,-0.10196 -0.21972,-0.03633 -0.185052,0.01397 -0.08042,0.09698 -0.160206,0.126064 -0.254823,0.158985 -0.1128,0.198466 -0.04556,0.325001 -0.028,0.227342 0.0023,0.151789 0.09355,0.280581 0.07288,0.116611 0.130743,0.05933 0.230172,-0.09335 0.211794,-0.105536 0.0142,0.06405 0.02777,0.195998 0.110273,0.07308 0.129917,-0.05051 0.123447,-0.150426 0.01294,0.19983 -0.0069,0.145699 0.05387,0.172317 0.122382,0.163077 0.09063,0.196679 0.09836,0.160819 0.09481,0.144804 -0.0564,0.09923 -0.06768,0.11908 0.03404,0.118185 0.05514,0.03654 0.123013,0.09519 0.08125,0.01286 0.04677,0.14029 0.07225,0.184498 0.06306,0.178408 0.128021,0.153154 0.190889,0.153834 0.125104,0.06925 0.05514,0.03654 0.09126,0.128791 0.0708,0.142547 0.131375,-0.0086 0.08752,-0.06495 0.09024,-0.158773 0.09588,-0.168698 z"
     style="fill:#ffff00;stroke:#000000;stroke-width:0.05602228px;stroke-linecap:butt;stroke-linejoin:miter;stroke-opacity:1"
     inkscape:connector-curvature="0" />
  <path
     id="path522"
     d="m 3.3742272,3.2129315 -0.06574,0.06402 -0.01727,0.06384 0.0047,0.09209 0.03191,0.05537 0.04604,0.03051 0.09773,0.05108 0.03892,-0.0016 0.08027,0.02043"
     style="fill:#ffff00;stroke:#000000;stroke-width:0.05602228px;stroke-linecap:butt;stroke-linejoin:miter;stroke-opacity:1"
     inkscape:connector-curvature="0" />
  <path
     id="path524"
     d="m 2.7653482,3.8613105 -0.04487,-0.118524 -0.03652,-0.05842 c 0,0 0.0041,-0.008 -0.02859,-0.01895 -0.0271,-0.009 -0.114452,-0.04163 -0.114452,-0.04163 l -0.08738,0.03107 -0.0938,0.07426"
     style="fill:none;stroke:#000000;stroke-width:0.05602228px;stroke-linecap:butt;stroke-linejoin:miter;stroke-opacity:1"
     inkscape:connector-curvature="0" />
  <path
     id="path526"
     d="m 3.2314442,5.0445355 0.10726,-0.03648 0.07293,0.0278 0.07617,0.07786 0.02448,0.05729 -0.02292,0.07378 -0.03737,0.132655 -0.03778,0.07763 -0.01343,0.07055"
     style="fill:none;stroke:#000000;stroke-width:0.05602228px;stroke-linecap:butt;stroke-linejoin:miter;stroke-opacity:1"
     inkscape:connector-curvature="0" />
  <path
     id="path528"
     d="m 3.9622692,4.8048465 -0.07377,0.06111 -0.01476,0.09288 0.0057,0.0791 0.07439,0.06984 0.05242,0.04159 0.05525,0.03662 0.04353,0.0015 0.08738,-0.03107 0.08518,-0.06056"
     style="fill:none;stroke:#000000;stroke-width:0.05602228px;stroke-linecap:butt;stroke-linejoin:miter;stroke-opacity:1"
     inkscape:connector-curvature="0" />
  <path
     id="path530"
     d="m 4.7767372,6.1096675 -0.146536,-0.0061 -0.10192,8.94e-4 -0.119921,0.04372 -0.09334,0.07502 -0.0675,0.08531 -0.05474,0.107455 -0.01948,0.154447"
     style="fill:none;stroke:#000000;stroke-width:0.05602228px;stroke-linecap:butt;stroke-linejoin:miter;stroke-opacity:1"
     inkscape:connector-curvature="0" />
  <path
     id="path532"
     d="m 4.6329672,6.0623165 c -0.0065,-0.0043 -0.05466,-0.03213 -0.106896,-0.06195 l -0.09498,-0.05422 -0.0094,-0.02288 c -0.0052,-0.01258 -0.01746,-0.04286 -0.02735,-0.0673 l -0.01798,-0.04443 -0.110501,-0.09348 c -0.06077,-0.05142 -0.112079,-0.09558 -0.11401,-0.09814 -0.0062,-0.0083 0.01783,-0.399241 0.02542,-0.412886 0.0068,-0.01227 0.0056,-0.01228 -0.03481,-2.5e-4 -0.02304,0.0069 -0.05381,0.01202 -0.06837,0.01144 -0.0261,-0.001 -0.02718,-0.0016 -0.07632,-0.03787 -0.02741,-0.02025 -0.07167,-0.05721 -0.09836,-0.08213 l -0.04852,-0.04531 -0.0033,-0.04503 c -0.0019,-0.02522 3.81e-4,-0.07024 0.0051,-0.102318 l 0.0084,-0.05729 0.03511,-0.02872 0.03511,-0.02872 -0.01326,-0.126359 -0.01326,-0.12636 0.02581,-0.07754 0.0258,-0.07754 -0.01533,-0.103012 c -0.01653,-0.111036 -0.0498,-0.2309 -0.0673,-0.242393 -0.0052,-0.0034 -0.03063,-0.01539 -0.05654,-0.02662 -0.0426,-0.01846 -0.05389,-0.02563 -0.118086,-0.07488 -0.04551,-0.03491 -0.07249,-0.05832 -0.07517,-0.0652 -0.02837,-0.07278 -0.05009,-0.152848 -0.05453,-0.200992 -0.0028,-0.03022 -0.0077,-0.05546 -0.01086,-0.0561 -0.0032,-6.37e-4 -0.01517,-0.004 -0.02662,-0.0074 -0.01145,-0.0034 -0.03111,-0.0058 -0.0437,-0.0053 -0.0192,7.56e-4 -0.03088,-0.0033 -0.07269,-0.02515 -0.08751,-0.04578 -0.10505,-0.05943 -0.128592,-0.100093 -0.01867,-0.03225 -0.02073,-0.03997 -0.02305,-0.08635 -0.0018,-0.03672 3.62e-4,-0.06198 0.0079,-0.09049 l 0.01041,-0.03955 0.03137,-0.02997 0.03137,-0.02997 0.0044,-0.16909 c 0.0035,-0.135045 0.0022,-0.195362 -0.0067,-0.299568 -0.0061,-0.07176 -0.01162,-0.133171 -0.01218,-0.136462 -5.68e-4,-0.0033 -0.03783,-0.04223 -0.08283,-0.08654 -0.08157,-0.08031 -0.08208,-0.08073 -0.173222,-0.141049 l -0.09141,-0.06051 -0.03292,0.01577 c -0.01811,0.0087 -0.03701,0.01749 -0.042,0.01959 -0.0072,0.003 -0.02946,-0.0069 -0.107934,-0.0483 l -0.09885,-0.05211 -0.108979,-0.01837 c -0.101352,-0.01708 -0.114764,-0.01792 -0.191652,-0.01201 -0.04547,0.0035 -0.0846,0.0073 -0.08694,0.0085 -0.0024,0.0012 -0.0197,0.02121 -0.03856,0.04449 -0.05082,0.06272 -0.163027,0.149476 -0.321149,0.248309 l -0.124733,0.07796 -0.05508,0.09691 -0.05508,0.09691 -0.02255,0.16193 c -0.04107,0.294894 -0.04921,0.370932 -0.04786,0.446794 l 0.0013,0.07241 0.04588,0.137474 c 0.04141,0.124062 0.04908,0.142536 0.07867,0.189356 l 0.03278,0.05188 0.05552,0.02515 c 0.03054,0.01383 0.0574,0.02448 0.0597,0.02366 0.06283,-0.02242 0.237189,-0.09877 0.318471,-0.139441 0.08392,-0.042 0.117003,-0.06155 0.152426,-0.09007 0.03828,-0.03083 0.05315,-0.03922 0.09669,-0.05456 0.05092,-0.01795 0.05176,-0.01802 0.08244,-0.0067 0.01704,0.0063 0.05217,0.0193 0.07806,0.02887 l 0.04707,0.0174 0.02419,0.0392 c 0.01331,0.02156 0.02943,0.05322 0.03581,0.07036 0.01477,0.0395 0.01892,0.0453 0.02628,0.03661 0.0085,-0.01 0.02417,0.253794 0.02022,0.339308 -0.0032,0.06931 -0.0032,0.06944 0.02255,0.15079 l 0.02576,0.08142 0.05904,0.07799 c 0.05566,0.07351 0.06167,0.08367 0.104814,0.177132 0.04462,0.09664 0.09811,0.189916 0.185991,0.324315 l 0.04038,0.06175 0.0311,-0.01068 c 0.0657,-0.02255 0.06702,-0.02259 0.113839,-0.0033 l 0.04305,0.01771 0.04136,0.04304 c 0.03424,0.03563 0.04395,0.04906 0.05638,0.07802 l 0.01502,0.03498 -0.03457,0.116534 c -0.01901,0.06409 -0.04214,0.132283 -0.05139,0.151535 -0.02801,0.05829 -0.02915,0.07841 -0.0082,0.143393 0.01,0.03096 0.03562,0.10088 0.05692,0.155378 0.0213,0.0545 0.05302,0.139559 0.07049,0.189025 l 0.03176,0.08994 0.06049,0.07238 c 0.05796,0.06936 0.06433,0.07549 0.15247,0.146637 0.08355,0.06744 0.09858,0.07797 0.163979,0.114806 0.104294,0.05874 0.111261,0.06394 0.139782,0.104264 0.0137,0.01937 0.02592,0.03494 0.02715,0.0346 0.0012,-3.75e-4 0.004,-0.01713 0.0061,-0.03731 0.0034,-0.03269 0.0071,-0.04311 0.03343,-0.09557 0.04117,-0.08195 0.08383,-0.135783 0.151551,-0.191211 0.04594,-0.0376 0.05559,-0.04306 0.114631,-0.06478 0.057,-0.02097 0.07109,-0.02376 0.121655,-0.02406 0.06846,-4.38e-4 0.06821,-3.75e-4 0.05318,-0.01012 z"
     style="fill:#008000;fill-opacity:1;stroke:none;stroke-width:0.00495172;stroke-opacity:0.02617804"
     inkscape:connector-curvature="0" />
  <path
     style="fill:url(#linearGradient552);fill-opacity:1;fill-rule:nonzero;stroke:#000000;stroke-width:0.00686739;stroke-miterlimit:4;stroke-dasharray:0.00686739, 0.01373477;stroke-dashoffset:0;stroke-opacity:0.96254536"
     d="m 4.5807652,6.0697835 c -0.09851,1.25e-4 -0.201862,0.0487 -0.289899,0.136287 -0.05693,0.05664 -0.12774,0.180632 -0.134419,0.235374 -0.0025,0.02024 -0.005,0.03644 -0.0055,0.036 -5.87e-4,-4.38e-4 -0.01358,-0.01634 -0.0289,-0.03534 -0.02478,-0.03073 -0.0395,-0.04172 -0.133353,-0.09962 -0.142147,-0.08769 -0.229533,-0.158836 -0.311894,-0.253936 l -0.06339,-0.07319 -0.07354,-0.198038 c -0.08596,-0.231499 -0.10278,-0.283724 -0.100789,-0.313035 8.06e-4,-0.01186 0.01072,-0.04442 0.02203,-0.07235 0.01131,-0.02793 0.03537,-0.09957 0.05347,-0.159201 l 0.0329,-0.108421 -0.01877,-0.03703 c -0.02026,-0.04 -0.07345,-0.101268 -0.104924,-0.120876 -0.04468,-0.02784 -0.08729,-0.03354 -0.135211,-0.01812 l -0.04579,0.01474 -0.05736,-0.09008 c -0.0735,-0.115439 -0.120174,-0.197491 -0.160708,-0.282553 -0.04503,-0.09449 -0.06251,-0.123799 -0.115575,-0.193877 -0.02545,-0.03361 -0.05008,-0.06977 -0.05472,-0.08036 -0.02101,-0.04791 -0.04762,-0.147793 -0.04735,-0.177668 6.86e-4,-0.07394 -0.0069,-0.286309 -0.01184,-0.330592 -0.0029,-0.0261 -0.0089,-0.04988 -0.0134,-0.05284 -0.0045,-0.003 -0.01702,-0.0254 -0.02787,-0.04987 -0.01086,-0.02447 -0.0276,-0.05695 -0.03721,-0.0722 l -0.01746,-0.02771 -0.07505,-0.02749 -0.07504,-0.02749 -0.04959,0.0145 c -0.03459,0.01011 -0.06825,0.02775 -0.111277,0.0583 -0.03393,0.02409 -0.10415,0.06465 -0.156049,0.09012 -0.100676,0.04941 -0.286918,0.130606 -0.306541,0.13364 -0.0065,10e-4 -0.03599,-0.0094 -0.06552,-0.02315 l -0.05369,-0.02498 -0.03238,-0.05579 c -0.01983,-0.03416 -0.04956,-0.106017 -0.07668,-0.185333 -0.05967,-0.174516 -0.05979,-0.202386 -0.0025,-0.617889 l 0.02631,-0.190659 0.05656,-0.09952 0.05656,-0.09952 0.0672,-0.04158 c 0.186988,-0.115732 0.303776,-0.203291 0.36923,-0.276826 0.02211,-0.02484 0.0453,-0.04704 0.05154,-0.04932 0.03586,-0.01316 0.182238,-0.01026 0.276221,0.0055 0.100651,0.01685 0.104513,0.01814 0.196861,0.06587 0.05181,0.02677 0.09822,0.04949 0.103149,0.05048 0.0049,9.87e-4 0.02534,-0.0061 0.04536,-0.01583 l 0.03641,-0.01763 0.09483,0.06285 c 0.0831,0.05507 0.104614,0.07256 0.173875,0.141266 l 0.07904,0.07842 0.0093,0.112049 c 0.01109,0.133519 0.01237,0.188552 0.0084,0.361263 l -0.003,0.13066 -0.0319,0.03075 c -0.0304,0.02931 -0.03229,0.03254 -0.04039,0.06899 -0.0047,0.02103 -0.0085,0.05982 -0.0084,0.0862 6.9e-5,0.03923 0.0045,0.05601 0.02427,0.09211 l 0.02418,0.04415 0.06241,0.03587 c 0.06688,0.03843 0.0775,0.0424 0.142469,0.05323 l 0.04217,0.007 0.01535,0.08109 c 0.0084,0.0446 0.02314,0.103138 0.03267,0.130091 0.01521,0.04305 0.02191,0.05302 0.05514,0.08201 0.05117,0.04465 0.114918,0.08655 0.17079,0.112255 0.04605,0.02119 0.0464,0.02151 0.05769,0.05254 0.01874,0.05152 0.03838,0.137418 0.05172,0.226259 l 0.01258,0.08383 -0.02584,0.07714 -0.02584,0.07714 0.01278,0.119219 c 0.007,0.06557 0.01223,0.122975 0.01156,0.127566 -6.75e-4,0.0046 -0.01449,0.01912 -0.03071,0.03229 -0.01621,0.01317 -0.03207,0.02851 -0.03524,0.03408 -0.0079,0.01397 -0.01859,0.147823 -0.01427,0.179412 0.0031,0.02241 0.0097,0.0314 0.05132,0.0692 0.079,0.0718 0.143872,0.119786 0.164211,0.121474 0.0098,8.18e-4 0.03904,-0.0036 0.06488,-0.0099 0.02584,-0.0063 0.04699,-0.0097 0.047,-0.0077 1.2e-5,0.002 -0.0043,0.05551 -0.0095,0.11881 -0.0076,0.09194 -0.01807,0.286306 -0.01599,0.296993 2.56e-4,0.0012 0.05085,0.04514 0.112459,0.09755 l 0.112019,0.09529 0.02828,0.06835 0.02828,0.06835 0.08306,0.0468 c 0.04568,0.02574 0.09055,0.05294 0.0997,0.06043 0.01649,0.0135 0.01621,0.01363 -0.031,0.01368 z"
     id="path534"
     inkscape:connector-curvature="0" />
  <path
     style="fill:#ffff00;stroke:#000000;stroke-width:0.05602228px;stroke-linecap:butt;stroke-linejoin:miter;stroke-opacity:1"
     d="m 5.1522302,6.1286065 0.323722,-0.187225 0.05241,-0.130367 0.222007,-0.188119 -0.02008,-0.369209 -0.07896,-0.138927 -0.03092,-0.143441 0.06161,-0.136457 0.184421,-0.05392 0.100257,0.04284 0.02713,-0.263885 -0.05139,-0.157198 0.03131,-0.21201 0.05032,-0.156305 0.121555,-0.05324 0.132202,-0.101279 0.04678,-0.14029 0.01357,-0.131943 -0.07959,-0.206814 0.03967,-0.108263 0.08626,-0.07083 0.09608,-0.009 0.07415,0.01917 -0.0088,-0.349362 0.02504,-0.289821 0.17042,-0.167592 0.202168,-0.133987 0.08543,0.03901 0.19507,-0.10196 0.21972,-0.03633 0.185052,0.01397 0.08042,0.09697 0.160206,0.126064 0.254823,0.158985 0.1128,0.198466 0.04556,0.325002 0.028,0.227341 -0.0023,0.15179 -0.09355,0.280581 -0.07288,0.11661 -0.130744,0.05933 -0.230173,-0.09335 -0.211793,-0.105535 -0.0142,0.06405 -0.02777,0.195997 -0.110274,0.07309 -0.129916,-0.05051 -0.123447,-0.150426 -0.01293,0.19983 0.0069,0.145699 -0.05387,0.172318 -0.122381,0.163076 -0.09063,0.196679 -0.09836,0.160819 -0.09481,0.144804 0.0564,0.09923 0.06768,0.11908 -0.03404,0.118186 -0.05514,0.03654 -0.123013,0.09519 -0.08125,0.01286 -0.04677,0.14029 -0.07225,0.184498 -0.06306,0.178407 -0.128022,0.153154 -0.190889,0.153835 -0.125104,0.06925 -0.05514,0.03654 -0.09126,0.128792 -0.07079,0.142547 -0.131375,-0.0086 -0.08752,-0.06495 -0.09024,-0.158773 -0.09588,-0.168697 z"
     id="path536"
     inkscape:connector-curvature="0" />
  <path
     style="fill:#ffff00;stroke:#000000;stroke-width:0.05602228px;stroke-linecap:butt;stroke-linejoin:miter;stroke-opacity:1"
     d="m 6.5547402,3.2318705 0.06575,0.06402 0.01727,0.06384 -0.0047,0.09209 -0.03191,0.05537 -0.04604,0.03051 -0.09773,0.05108 -0.03893,-0.0016 -0.08027,0.02043"
     id="path538"
     inkscape:connector-curvature="0" />
  <path
     style="fill:none;stroke:#000000;stroke-width:0.05602228px;stroke-linecap:butt;stroke-linejoin:miter;stroke-opacity:1"
     d="m 7.1636182,3.8802495 0.04487,-0.118523 0.03651,-0.05842 c 0,0 -0.0041,-0.008 0.02859,-0.01895 0.0271,-0.009 0.114451,-0.04163 0.114451,-0.04163 l 0.08738,0.03107 0.0938,0.07426"
     id="path540"
     inkscape:connector-curvature="0" />
  <path
     style="fill:none;stroke:#000000;stroke-width:0.05602228px;stroke-linecap:butt;stroke-linejoin:miter;stroke-opacity:1"
     d="m 6.6975232,5.0634745 -0.107261,-0.03648 -0.07293,0.0278 -0.07617,0.07786 -0.02448,0.05729 0.02292,0.07379 0.03737,0.132654 0.03778,0.07763 0.01343,0.07055"
     id="path542"
     inkscape:connector-curvature="0" />
  <path
     style="fill:none;stroke:#000000;stroke-width:0.05602228px;stroke-linecap:butt;stroke-linejoin:miter;stroke-opacity:1"
     d="m 5.9666982,4.8237865 0.07377,0.06111 0.01476,0.09288 -0.0057,0.0791 -0.07439,0.06984 -0.05242,0.04159 -0.05525,0.03662 -0.04353,0.0015 -0.08738,-0.03107 -0.08518,-0.06056"
     id="path544"
     inkscape:connector-curvature="0" />
  <path
     style="fill:none;stroke:#000000;stroke-width:0.05602228px;stroke-linecap:butt;stroke-linejoin:miter;stroke-opacity:1"
     d="m 5.1522302,6.1286065 0.146535,-0.0061 0.10192,8.94e-4 0.119921,0.04372 0.09334,0.07502 0.0675,0.08531 0.05473,0.107455 0.01948,0.154447"
     id="path546"
     inkscape:connector-curvature="0" />
  <path
     style="fill:#008000;fill-opacity:1;stroke:none;stroke-width:0.00495172;stroke-opacity:0.02617804"
     d="m 5.2960002,6.0812555 c 0.0065,-0.0043 0.05466,-0.03213 0.106895,-0.06195 l 0.09498,-0.05422 0.0094,-0.02288 c 0.0052,-0.01258 0.01746,-0.04287 0.02735,-0.0673 l 0.01799,-0.04443 0.1105,-0.09348 c 0.06077,-0.05142 0.112079,-0.09558 0.11401,-0.09814 0.0062,-0.0083 -0.01782,-0.39924 -0.02542,-0.412886 -0.0068,-0.01227 -0.0056,-0.01228 0.03481,-2.5e-4 0.02304,0.0069 0.05381,0.01202 0.06837,0.01144 0.0261,-10e-4 0.02719,-0.0016 0.07632,-0.03787 0.02741,-0.02025 0.07167,-0.05721 0.09836,-0.08213 l 0.04852,-0.04531 0.0033,-0.04503 c 0.0019,-0.02522 -3.75e-4,-0.07024 -0.0051,-0.102317 l -0.0084,-0.05729 -0.03511,-0.02872 -0.03511,-0.02872 0.01326,-0.126359 0.01326,-0.12636 -0.02581,-0.07754 -0.0258,-0.07754 0.01533,-0.103012 c 0.01653,-0.111035 0.0498,-0.2309 0.0673,-0.242392 0.0052,-0.0034 0.03063,-0.01539 0.05654,-0.02662 0.0426,-0.01846 0.05389,-0.02563 0.118086,-0.07488 0.04551,-0.03491 0.07249,-0.05832 0.07517,-0.0652 0.02837,-0.07278 0.05009,-0.152848 0.05453,-0.200992 0.0028,-0.03022 0.0077,-0.05546 0.01086,-0.0561 0.0032,-6.38e-4 0.01517,-0.004 0.02662,-0.0074 0.01145,-0.0034 0.03111,-0.0058 0.04369,-0.0053 0.0192,7.56e-4 0.03088,-0.0033 0.07269,-0.02515 0.08751,-0.04578 0.105051,-0.05943 0.128592,-0.100093 0.01867,-0.03225 0.02073,-0.03997 0.02305,-0.08635 0.0018,-0.03672 -3.75e-4,-0.06198 -0.0079,-0.09049 l -0.01041,-0.03955 -0.03137,-0.02997 -0.03137,-0.02997 -0.0044,-0.169091 c -0.0035,-0.135044 -0.0022,-0.195361 0.0067,-0.299568 0.0061,-0.07176 0.01162,-0.133171 0.01218,-0.136462 5.63e-4,-0.0033 0.03784,-0.04223 0.08283,-0.08654 0.08157,-0.08031 0.08208,-0.08073 0.173222,-0.141049 l 0.09141,-0.06051 0.03292,0.01577 c 0.01811,0.0087 0.03701,0.01749 0.042,0.01959 0.0072,0.003 0.02946,-0.0069 0.107934,-0.0483 l 0.09885,-0.05211 0.108979,-0.01837 c 0.101352,-0.01708 0.114763,-0.01792 0.191652,-0.01201 0.04547,0.0035 0.0846,0.0073 0.08694,0.0085 0.0023,0.0012 0.0197,0.02121 0.03856,0.04449 0.05082,0.06272 0.163026,0.149476 0.321148,0.24831 l 0.124734,0.07796 0.05508,0.09691 0.05508,0.09691 0.02255,0.16193 c 0.04106,0.294894 0.04921,0.370932 0.04786,0.446794 l -0.0013,0.07241 -0.04588,0.137475 c -0.04141,0.124062 -0.04908,0.142535 -0.07867,0.189355 l -0.03278,0.05188 -0.05552,0.02515 c -0.03054,0.01383 -0.0574,0.02448 -0.0597,0.02366 -0.06283,-0.02242 -0.237189,-0.09877 -0.318471,-0.139442 -0.08392,-0.042 -0.117002,-0.06155 -0.152425,-0.09007 -0.03828,-0.03083 -0.05315,-0.03922 -0.09669,-0.05456 -0.05091,-0.01795 -0.05176,-0.01802 -0.08243,-0.0067 -0.01704,0.0063 -0.05217,0.0193 -0.07806,0.02887 l -0.04707,0.0174 -0.02419,0.0392 c -0.01331,0.02156 -0.02943,0.05322 -0.03581,0.07036 -0.01476,0.0395 -0.01892,0.0453 -0.02628,0.03661 -0.0085,-0.01 -0.02417,0.253794 -0.02022,0.339308 0.0032,0.06931 0.0032,0.06944 -0.02255,0.15079 l -0.02576,0.08142 -0.05904,0.07799 c -0.05565,0.07351 -0.06167,0.08367 -0.104813,0.177131 -0.04462,0.09664 -0.09811,0.189916 -0.185991,0.324315 l -0.04038,0.06175 -0.0311,-0.01068 c -0.0657,-0.02255 -0.06702,-0.02259 -0.113839,-0.0033 l -0.04305,0.01771 -0.04136,0.04304 c -0.03424,0.03563 -0.04395,0.04906 -0.05638,0.07802 l -0.01502,0.03498 0.03457,0.116533 c 0.01901,0.06409 0.04214,0.132284 0.05139,0.151536 0.02801,0.05829 0.02916,0.07841 0.0082,0.143392 -0.01,0.03096 -0.03562,0.100881 -0.05692,0.155379 -0.0213,0.0545 -0.05302,0.139559 -0.07049,0.189025 l -0.03176,0.08994 -0.06049,0.07238 c -0.05796,0.06936 -0.06433,0.07549 -0.15247,0.146638 -0.08355,0.06744 -0.09858,0.07797 -0.16398,0.114806 -0.104294,0.05874 -0.111261,0.06394 -0.139782,0.104264 -0.0137,0.01937 -0.02592,0.03494 -0.02715,0.0346 -0.0012,-3.75e-4 -0.004,-0.01713 -0.0061,-0.03731 -0.0034,-0.03269 -0.0071,-0.04311 -0.03343,-0.09557 -0.04117,-0.08195 -0.08383,-0.135783 -0.151551,-0.191211 -0.04594,-0.0376 -0.05559,-0.04306 -0.114632,-0.06478 -0.057,-0.02097 -0.07109,-0.02376 -0.121655,-0.02406 -0.06846,-4.37e-4 -0.06822,-3.75e-4 -0.05318,-0.01012 z"
     id="path548"
     inkscape:connector-curvature="0" />
  <path
     id="path550"
     d="m 5.3482022,6.0887235 c 0.09851,1.25e-4 0.201861,0.0487 0.289898,0.136286 0.05693,0.05664 0.12774,0.180632 0.134419,0.235375 0.0025,0.02024 0.005,0.03644 0.0055,0.03599 5.63e-4,-4.37e-4 0.01358,-0.01634 0.0289,-0.03534 0.02478,-0.03073 0.0395,-0.04173 0.133353,-0.09962 0.142147,-0.08769 0.229533,-0.158836 0.311894,-0.253935 l 0.06339,-0.07319 0.07354,-0.198038 c 0.08597,-0.231498 0.10278,-0.283724 0.10079,-0.313034 -8.06e-4,-0.01187 -0.01072,-0.04442 -0.02203,-0.07235 -0.01131,-0.02793 -0.03537,-0.09957 -0.05347,-0.1592 l -0.0329,-0.108422 0.01877,-0.03703 c 0.02026,-0.04 0.07345,-0.101268 0.104924,-0.120876 0.04468,-0.02783 0.08729,-0.03354 0.135212,-0.01812 l 0.04579,0.01474 0.05736,-0.09008 c 0.0735,-0.115439 0.120175,-0.197491 0.160708,-0.282552 0.04503,-0.09449 0.06251,-0.1238 0.115575,-0.193878 0.02545,-0.03361 0.05008,-0.06977 0.05472,-0.08036 0.02101,-0.04791 0.04762,-0.147793 0.04735,-0.177669 -6.87e-4,-0.07394 0.0069,-0.286309 0.01184,-0.330592 0.0029,-0.0261 0.0089,-0.04988 0.0134,-0.05284 0.0045,-0.003 0.01701,-0.0254 0.02787,-0.04987 0.01086,-0.02447 0.0276,-0.05696 0.03721,-0.0722 l 0.01746,-0.02771 0.07504,-0.02749 0.07504,-0.02749 0.04959,0.0145 c 0.03459,0.01011 0.06825,0.02775 0.111277,0.0583 0.03393,0.02409 0.10415,0.06465 0.156048,0.09012 0.100677,0.04941 0.286919,0.130606 0.306542,0.13364 0.0065,0.001 0.03599,-0.0094 0.06552,-0.02315 l 0.05369,-0.02498 0.03238,-0.05579 c 0.01983,-0.03416 0.04956,-0.106017 0.07668,-0.185333 0.05968,-0.174516 0.05979,-0.202386 0.0025,-0.617889 l -0.02631,-0.190659 -0.05656,-0.09952 -0.05656,-0.09952 -0.0672,-0.04159 c -0.186987,-0.115732 -0.303776,-0.20329 -0.36923,-0.276826 -0.02211,-0.02484 -0.0453,-0.04704 -0.05154,-0.04932 -0.03586,-0.01316 -0.182238,-0.01026 -0.276221,0.0055 -0.10065,0.01685 -0.104513,0.01814 -0.196861,0.06587 -0.05181,0.02678 -0.09822,0.04949 -0.103148,0.05048 -0.0049,9.88e-4 -0.02534,-0.0061 -0.04536,-0.01583 l -0.03641,-0.01763 -0.09483,0.06285 c -0.0831,0.05507 -0.104615,0.07256 -0.173875,0.141265 l -0.07904,0.07842 -0.0093,0.112049 c -0.01109,0.13352 -0.01237,0.188552 -0.0084,0.361263 l 0.003,0.13066 0.0319,0.03075 c 0.0304,0.02932 0.03229,0.03254 0.04039,0.06899 0.0047,0.02103 0.0085,0.05982 0.0084,0.08621 -6.2e-5,0.03923 -0.0045,0.05601 -0.02427,0.09211 l -0.02418,0.04415 -0.06241,0.03587 c -0.06688,0.03843 -0.0775,0.0424 -0.142469,0.05323 l -0.04217,0.007 -0.01535,0.08109 c -0.0084,0.0446 -0.02314,0.103138 -0.03267,0.13009 -0.01521,0.04305 -0.02191,0.05302 -0.05514,0.08201 -0.05117,0.04465 -0.114918,0.08655 -0.17079,0.112256 -0.04605,0.02119 -0.0464,0.02151 -0.05769,0.05254 -0.01874,0.05152 -0.03838,0.137418 -0.05172,0.226259 l -0.01258,0.08383 0.02584,0.07714 0.02584,0.07714 -0.01278,0.119218 c -0.007,0.06557 -0.01223,0.122975 -0.01156,0.127566 6.75e-4,0.0046 0.01449,0.01912 0.03071,0.03229 0.01621,0.01317 0.03207,0.02851 0.03524,0.03408 0.0079,0.01396 0.01859,0.147823 0.01427,0.179411 -0.0031,0.02241 -0.0097,0.0314 -0.05132,0.0692 -0.079,0.0718 -0.143872,0.119786 -0.16421,0.121474 -0.0098,8.19e-4 -0.03904,-0.0036 -0.06488,-0.0099 -0.02584,-0.0063 -0.04699,-0.0097 -0.047,-0.0077 -1.2e-5,0.002 0.0043,0.0555 0.0095,0.118809 0.0076,0.09194 0.01808,0.286306 0.01599,0.296993 -2.5e-4,0.0012 -0.05085,0.04514 -0.112459,0.09755 l -0.112019,0.09529 -0.02828,0.06835 -0.02828,0.06836 -0.08306,0.0468 c -0.04568,0.02574 -0.09055,0.05294 -0.0997,0.06043 -0.01649,0.0135 -0.01621,0.01363 0.031,0.01368 z"
     style="fill:url(#linearGradient554);fill-opacity:1;fill-rule:nonzero;stroke:#000000;stroke-width:0.00686739;stroke-miterlimit:4;stroke-dasharray:0.00686739, 0.01373477;stroke-dashoffset:0;stroke-opacity:0.96254536"
     inkscape:connector-curvature="0" />
</svg>
