<?xml version="1.0" encoding="UTF-8" standalone="no"?>
<svg
   xmlns:dc="http://purl.org/dc/elements/1.1/"
   xmlns:cc="http://creativecommons.org/ns#"
   xmlns:rdf="http://www.w3.org/1999/02/22-rdf-syntax-ns#"
   xmlns:svg="http://www.w3.org/2000/svg"
   xmlns="http://www.w3.org/2000/svg"
   xmlns:xlink="http://www.w3.org/1999/xlink"
   xmlns:sodipodi="http://sodipodi.sourceforge.net/DTD/sodipodi-0.dtd"
   xmlns:inkscape="http://www.inkscape.org/namespaces/inkscape"
   version="1.1"
   id="svg815"
   width="160"
   height="250"
   viewBox="0 0 160 250"
   sodipodi:docname="clubs11.svg"
   inkscape:version="0.92.5 (2060ec1f9f, 2020-04-08)">
  <sodipodi:namedview
     pagecolor="#ffffff"
     bordercolor="#666666"
     borderopacity="1"
     objecttolerance="10"
     gridtolerance="10"
     guidetolerance="10"
     inkscape:pageopacity="0"
     inkscape:pageshadow="2"
     inkscape:window-width="1918"
     inkscape:window-height="1017"
     id="namedview5011"
     showgrid="false"
     inkscape:zoom="3.3"
     inkscape:cx="80"
     inkscape:cy="125"
     inkscape:window-x="0"
     inkscape:window-y="0"
     inkscape:window-maximized="1"
     inkscape:current-layer="svg815"
     inkscape:snap-page="true" />
  <metadata
     id="metadata821">
    <rdf:RDF>
      <cc:Work
         rdf:about="">
        <dc:format>image/svg+xml</dc:format>
        <dc:type
           rdf:resource="http://purl.org/dc/dcmitype/StillImage" />
        <dc:title></dc:title>
      </cc:Work>
    </rdf:RDF>
  </metadata>
  <defs
     id="defs819">
    <linearGradient
       gradientTransform="matrix(-0.11382866,-0.04897331,0.04897331,-0.11382866,11.360684,16.77034)"
       xlink:href="#linearGradient28"
       id="linearGradient30"
       x1="68.058258"
       y1="52.766853"
       x2="93.905167"
       y2="48.329338"
       gradientUnits="userSpaceOnUse" />
    <linearGradient
       id="linearGradient28">
      <stop
         style="stop-color:#d45500;stop-opacity:1;"
         offset="0"
         id="stop24" />
      <stop
         style="stop-color:#d45500;stop-opacity:0;"
         offset="1"
         id="stop26" />
    </linearGradient>
    <linearGradient
       xlink:href="#linearGradient28"
       id="linearGradient202"
       gradientUnits="userSpaceOnUse"
       gradientTransform="matrix(-0.10421379,0,0,-0.10421379,21.478984,12.331316)"
       x1="68.058258"
       y1="52.766853"
       x2="93.905167"
       y2="48.329338" />
    <linearGradient
       gradientTransform="matrix(0.09270834,0,0,0.10071509,9.635358,3.0600958)"
       xlink:href="#linearGradient28"
       id="linearGradient30-4"
       x1="68.058258"
       y1="52.766853"
       x2="93.905167"
       y2="48.329338"
       gradientUnits="userSpaceOnUse" />
    <linearGradient
       xlink:href="#linearGradient28"
       id="linearGradient367"
       gradientUnits="userSpaceOnUse"
       gradientTransform="matrix(0.0625,0,0,0.11444754,18.072663,2.4148925)"
       x1="68.058258"
       y1="52.766853"
       x2="93.905167"
       y2="48.329338" />
    <linearGradient
       xlink:href="#linearGradient28"
       id="linearGradient349"
       gradientUnits="userSpaceOnUse"
       gradientTransform="matrix(-0.0625,0,0,-0.11444754,30.014458,13.048996)"
       x1="68.058258"
       y1="52.766853"
       x2="93.905167"
       y2="48.329338" />
    <linearGradient
       gradientTransform="matrix(0.0625,0,0,0.11444754,22.258269,2.5882975)"
       xlink:href="#linearGradient28"
       id="linearGradient30-6"
       x1="68.058258"
       y1="52.766853"
       x2="93.905167"
       y2="48.329338"
       gradientUnits="userSpaceOnUse" />
    <linearGradient
       xlink:href="#linearGradient28"
       id="linearGradient554"
       gradientUnits="userSpaceOnUse"
       gradientTransform="matrix(-0.04739556,-0.02774335,0.02569172,-0.05118036,39.13871,8.9395546)"
       x1="68.058258"
       y1="52.766853"
       x2="93.905167"
       y2="48.329338" />
    <linearGradient
       xlink:href="#linearGradient28"
       id="linearGradient552"
       gradientUnits="userSpaceOnUse"
       gradientTransform="matrix(0.04739556,-0.02774335,-0.02569172,-0.05118036,30.774237,8.9206156)"
       x1="68.058258"
       y1="52.766853"
       x2="93.905167"
       y2="48.329338" />
    <linearGradient
       xlink:href="#linearGradient28"
       id="linearGradient518"
       gradientUnits="userSpaceOnUse"
       gradientTransform="matrix(-0.04739556,0.02774335,0.02569172,0.05118036,39.15765,6.5759136)"
       x1="68.058258"
       y1="52.766853"
       x2="93.905167"
       y2="48.329338" />
    <linearGradient
       gradientTransform="matrix(0.04739556,0.02774335,-0.02569172,0.05118036,30.793177,6.5948536)"
       xlink:href="#linearGradient28"
       id="linearGradient30-2"
       x1="68.058258"
       y1="52.766853"
       x2="93.905167"
       y2="48.329338"
       gradientUnits="userSpaceOnUse" />
    <linearGradient
       gradientTransform="matrix(-0.00182956,0.04406484,-0.05671844,-0.00142139,47.989828,4.511358)"
       xlink:href="#linearGradient28"
       id="linearGradient30-3"
       x1="68.058258"
       y1="52.766853"
       x2="93.905167"
       y2="48.329338"
       gradientUnits="userSpaceOnUse" />
    <linearGradient
       xlink:href="#linearGradient28"
       id="linearGradient1562"
       gradientUnits="userSpaceOnUse"
       gradientTransform="matrix(-0.0625,0,0,-0.0625,51.889458,7.060849)"
       x1="68.058258"
       y1="52.766853"
       x2="93.905167"
       y2="48.329338" />
    <linearGradient
       xlink:href="#linearGradient28"
       id="linearGradient1560"
       gradientUnits="userSpaceOnUse"
       gradientTransform="matrix(-0.0625,0,0,-0.0625,47.798548,7.004031)"
       x1="68.058258"
       y1="52.766853"
       x2="93.905167"
       y2="48.329338" />
    <linearGradient
       xlink:href="#linearGradient28"
       id="linearGradient1526"
       gradientUnits="userSpaceOnUse"
       gradientTransform="matrix(0.0625,0,0,0.0625,38.167361,8.526273)"
       x1="68.058258"
       y1="52.766853"
       x2="93.905167"
       y2="48.329338" />
    <linearGradient
       gradientTransform="matrix(0.0625,0,0,0.0625,42.25827,8.583091)"
       xlink:href="#linearGradient28"
       id="linearGradient30-9"
       x1="68.058258"
       y1="52.766853"
       x2="93.905167"
       y2="48.329338"
       gradientUnits="userSpaceOnUse" />
    <linearGradient
       xlink:href="#linearGradient28"
       id="linearGradient2120"
       gradientUnits="userSpaceOnUse"
       gradientTransform="matrix(-0.04785026,0,0,-0.05589801,61.027177,6.8616735)"
       x1="68.058258"
       y1="52.766853"
       x2="93.905167"
       y2="48.329338" />
    <linearGradient
       xlink:href="#linearGradient28"
       id="linearGradient2118"
       gradientUnits="userSpaceOnUse"
       gradientTransform="matrix(-0.04785026,0,0,-0.05589801,58.75445,6.8616735)"
       x1="68.058258"
       y1="52.766853"
       x2="93.905167"
       y2="48.329338" />
    <linearGradient
       xlink:href="#linearGradient28"
       id="linearGradient2116"
       gradientUnits="userSpaceOnUse"
       gradientTransform="matrix(-0.04785026,0,0,-0.05589801,56.405965,6.8616735)"
       x1="68.058258"
       y1="52.766853"
       x2="93.905167"
       y2="48.329338" />
    <linearGradient
       xlink:href="#linearGradient28"
       id="linearGradient2066"
       gradientUnits="userSpaceOnUse"
       gradientTransform="matrix(0.04785026,0,0,0.05589801,49.067214,8.5932485)"
       x1="68.058258"
       y1="52.766853"
       x2="93.905167"
       y2="48.329338" />
    <linearGradient
       xlink:href="#linearGradient28"
       id="linearGradient2048"
       gradientUnits="userSpaceOnUse"
       gradientTransform="matrix(0.04785026,0,0,0.05589801,51.339942,8.5932485)"
       x1="68.058258"
       y1="52.766853"
       x2="93.905167"
       y2="48.329338" />
    <linearGradient
       gradientTransform="matrix(0.04785026,0,0,0.05589801,53.688426,8.5932485)"
       xlink:href="#linearGradient28"
       id="linearGradient30-42"
       x1="68.058258"
       y1="52.766853"
       x2="93.905167"
       y2="48.329338"
       gradientUnits="userSpaceOnUse" />
    <linearGradient
       gradientTransform="matrix(-7.81785e-4,0.04887137,0.04887137,7.81785e-4,62.757095,3.8708137)"
       xlink:href="#linearGradient28"
       id="linearGradient30-7"
       x1="68.058258"
       y1="52.766853"
       x2="93.905167"
       y2="48.329338"
       gradientUnits="userSpaceOnUse" />
    <linearGradient
       xlink:href="#linearGradient28"
       id="linearGradient2120-2"
       gradientUnits="userSpaceOnUse"
       gradientTransform="matrix(-0.04785026,0,0,-0.05589801,71.02718,6.8616741)"
       x1="68.058258"
       y1="52.766853"
       x2="93.905167"
       y2="48.329338" />
    <linearGradient
       xlink:href="#linearGradient28"
       id="linearGradient2118-5"
       gradientUnits="userSpaceOnUse"
       gradientTransform="matrix(-0.04785026,0,0,-0.05589801,68.754453,6.8616741)"
       x1="68.058258"
       y1="52.766853"
       x2="93.905167"
       y2="48.329338" />
    <linearGradient
       xlink:href="#linearGradient28"
       id="linearGradient2116-4"
       gradientUnits="userSpaceOnUse"
       gradientTransform="matrix(-0.04785026,0,0,-0.05589801,66.405968,6.8616741)"
       x1="68.058258"
       y1="52.766853"
       x2="93.905167"
       y2="48.329338" />
    <linearGradient
       xlink:href="#linearGradient28"
       id="linearGradient2066-4"
       gradientUnits="userSpaceOnUse"
       gradientTransform="matrix(0.04785026,0,0,0.05589801,59.067217,8.593248)"
       x1="68.058258"
       y1="52.766853"
       x2="93.905167"
       y2="48.329338" />
    <linearGradient
       xlink:href="#linearGradient28"
       id="linearGradient2048-9"
       gradientUnits="userSpaceOnUse"
       gradientTransform="matrix(0.04785026,0,0,0.05589801,61.339944,8.593248)"
       x1="68.058258"
       y1="52.766853"
       x2="93.905167"
       y2="48.329338" />
    <linearGradient
       gradientTransform="matrix(0.04785026,0,0,0.05589801,63.688429,8.593248)"
       xlink:href="#linearGradient28"
       id="linearGradient30-93"
       x1="68.058258"
       y1="52.766853"
       x2="93.905167"
       y2="48.329338"
       gradientUnits="userSpaceOnUse" />
    <linearGradient
       xlink:href="#linearGradient28"
       id="linearGradient2337"
       gradientUnits="userSpaceOnUse"
       gradientTransform="matrix(-0.0417883,0,0,-0.04857198,75.583944,6.4314344)"
       x1="68.058258"
       y1="52.766853"
       x2="93.905167"
       y2="48.329338" />
    <linearGradient
       xlink:href="#linearGradient28"
       id="linearGradient2335"
       gradientUnits="userSpaceOnUse"
       gradientTransform="matrix(0.0417883,0,0,0.04857198,70.628178,2.0064654)"
       x1="68.058258"
       y1="52.766853"
       x2="93.905167"
       y2="48.329338" />
    <linearGradient
       xlink:href="#linearGradient28"
       id="linearGradient2333"
       gradientUnits="userSpaceOnUse"
       gradientTransform="matrix(-0.0417883,0,0,-0.04857198,79.296068,6.4974754)"
       x1="68.058258"
       y1="52.766853"
       x2="93.905167"
       y2="48.329338" />
    <linearGradient
       xlink:href="#linearGradient28"
       id="linearGradient2331"
       gradientUnits="userSpaceOnUse"
       gradientTransform="matrix(0.0417883,0,0,0.04857198,74.340299,2.0725074)"
       x1="68.058258"
       y1="52.766853"
       x2="93.905167"
       y2="48.329338" />
    <linearGradient
       xlink:href="#linearGradient28"
       id="linearGradient2265"
       gradientUnits="userSpaceOnUse"
       gradientTransform="matrix(-0.0417883,0,0,-0.04857198,75.640764,13.685222)"
       x1="68.058258"
       y1="52.766853"
       x2="93.905167"
       y2="48.329338" />
    <linearGradient
       xlink:href="#linearGradient28"
       id="linearGradient2263"
       gradientUnits="userSpaceOnUse"
       gradientTransform="matrix(0.0417883,0,0,0.04857198,70.684995,9.2602534)"
       x1="68.058258"
       y1="52.766853"
       x2="93.905167"
       y2="48.329338" />
    <linearGradient
       xlink:href="#linearGradient28"
       id="linearGradient2229"
       gradientUnits="userSpaceOnUse"
       gradientTransform="matrix(-0.0417883,0,0,-0.04857198,79.352887,13.751263)"
       x1="68.058258"
       y1="52.766853"
       x2="93.905167"
       y2="48.329338" />
    <linearGradient
       gradientTransform="matrix(0.0417883,0,0,0.04857198,74.397116,9.3262944)"
       xlink:href="#linearGradient28"
       id="linearGradient30-5"
       x1="68.058258"
       y1="52.766853"
       x2="93.905167"
       y2="48.329338"
       gradientUnits="userSpaceOnUse" />
    <linearGradient
       gradientTransform="matrix(0,0.0625,-0.070221,0,88.204672,3.0537241)"
       xlink:href="#linearGradient28"
       id="linearGradient30-7-7"
       x1="68.058258"
       y1="52.766853"
       x2="93.905167"
       y2="48.329338"
       gradientUnits="userSpaceOnUse" />
    <linearGradient
       xlink:href="#linearGradient28"
       id="linearGradient2337-9"
       gradientUnits="userSpaceOnUse"
       gradientTransform="matrix(-0.0417883,0,0,-0.04857198,85.583944,6.4314336)"
       x1="68.058258"
       y1="52.766853"
       x2="93.905167"
       y2="48.329338" />
    <linearGradient
       xlink:href="#linearGradient28"
       id="linearGradient2335-2"
       gradientUnits="userSpaceOnUse"
       gradientTransform="matrix(0.0417883,0,0,0.04857198,80.628177,2.0064647)"
       x1="68.058258"
       y1="52.766853"
       x2="93.905167"
       y2="48.329338" />
    <linearGradient
       xlink:href="#linearGradient28"
       id="linearGradient2333-8"
       gradientUnits="userSpaceOnUse"
       gradientTransform="matrix(-0.0417883,0,0,-0.04857198,89.296066,6.4974746)"
       x1="68.058258"
       y1="52.766853"
       x2="93.905167"
       y2="48.329338" />
    <linearGradient
       xlink:href="#linearGradient28"
       id="linearGradient2331-3"
       gradientUnits="userSpaceOnUse"
       gradientTransform="matrix(0.0417883,0,0,0.04857198,84.340298,2.0725065)"
       x1="68.058258"
       y1="52.766853"
       x2="93.905167"
       y2="48.329338" />
    <linearGradient
       xlink:href="#linearGradient28"
       id="linearGradient2265-0"
       gradientUnits="userSpaceOnUse"
       gradientTransform="matrix(-0.0417883,0,0,-0.04857198,85.640762,13.685222)"
       x1="68.058258"
       y1="52.766853"
       x2="93.905167"
       y2="48.329338" />
    <linearGradient
       xlink:href="#linearGradient28"
       id="linearGradient2263-1"
       gradientUnits="userSpaceOnUse"
       gradientTransform="matrix(0.0417883,0,0,0.04857198,80.684995,9.2602526)"
       x1="68.058258"
       y1="52.766853"
       x2="93.905167"
       y2="48.329338" />
    <linearGradient
       xlink:href="#linearGradient28"
       id="linearGradient2229-7"
       gradientUnits="userSpaceOnUse"
       gradientTransform="matrix(-0.0417883,0,0,-0.04857198,89.352884,13.751263)"
       x1="68.058258"
       y1="52.766853"
       x2="93.905167"
       y2="48.329338" />
    <linearGradient
       gradientTransform="matrix(0.0417883,0,0,0.04857198,84.397116,9.3262946)"
       xlink:href="#linearGradient28"
       id="linearGradient30-8"
       x1="68.058258"
       y1="52.766853"
       x2="93.905167"
       y2="48.329338"
       gradientUnits="userSpaceOnUse" />
    <linearGradient
       gradientUnits="userSpaceOnUse"
       y2="48.329338"
       x2="93.905167"
       y1="52.766853"
       x1="68.058258"
       id="linearGradient30-37"
       xlink:href="#linearGradient28"
       gradientTransform="matrix(-0.02567333,-0.01104562,0.01104562,-0.02567333,98.847603,4.8327149)" />
    <linearGradient
       gradientUnits="userSpaceOnUse"
       y2="71.008263"
       x2="88.849586"
       y1="58.644627"
       x1="82.105782"
       id="linearGradient1063"
       xlink:href="#linearGradient882"
       gradientTransform="matrix(0.0625,0,0,0.0625,89.999998,-1.2353516e-7)" />
    <linearGradient
       id="linearGradient882">
      <stop
         style="stop-color:#d16208;stop-opacity:1"
         offset="0"
         id="stop878" />
      <stop
         style="stop-color:#d16250;stop-opacity:0;"
         offset="1"
         id="stop880" />
    </linearGradient>
    <linearGradient
       gradientUnits="userSpaceOnUse"
       y2="68.472336"
       x2="56.128345"
       y1="63.697319"
       x1="61.166279"
       id="linearGradient876"
       xlink:href="#linearGradient882"
       gradientTransform="matrix(0.0625,0,0,0.0625,89.999998,-1.2353516e-7)" />
    <linearGradient
       gradientUnits="userSpaceOnUse"
       y2="48.329338"
       x2="93.905167"
       y1="52.766853"
       x1="68.058258"
       id="linearGradient30-0"
       xlink:href="#linearGradient28"
       gradientTransform="matrix(-0.02881053,-0.01239536,0.01239536,-0.02881053,8.7611142,5.4503207)" />
    <linearGradient
       gradientUnits="userSpaceOnUse"
       y2="48.329338"
       x2="93.905167"
       y1="52.766853"
       x1="68.058258"
       id="linearGradient30-80"
       xlink:href="#linearGradient28"
       gradientTransform="matrix(-0.02849684,-0.0122604,0.0122604,-0.02849684,118.86314,5.4302307)" />
    <linearGradient
       xlink:href="#linearGradient846"
       id="linearGradient848"
       x1="72.37397"
       y1="53.171356"
       x2="72.19931"
       y2="45.564011"
       gradientUnits="userSpaceOnUse"
       gradientTransform="matrix(0.0625,0,0,0.0625,110,-2.6464844e-7)" />
    <linearGradient
       id="linearGradient846">
      <stop
         style="stop-color:#423abf;stop-opacity:1;"
         offset="0"
         id="stop842" />
      <stop
         style="stop-color:#423abf;stop-opacity:0;"
         offset="1"
         id="stop844" />
    </linearGradient>
  </defs>
  <flowRoot
     style="font-style:normal;font-variant:normal;font-weight:bold;font-stretch:normal;font-size:1px;line-height:1.25;font-family:'DejaVu Sans';-inkscape-font-specification:'DejaVu Sans Bold';letter-spacing:0px;word-spacing:0px;fill:#000000;fill-opacity:1;stroke:none;stroke-width:0.0625"
     id="flowRoot100"
     xml:space="preserve"><flowRegion
       style="stroke-width:0.0625"
       id="flowRegion102"><rect
         style="stroke-width:0.00390625"
         y="0.73863637"
         x="0.66287881"
         height="1.3636364"
         width="1.5151515"
         id="rect104" /></flowRegion><flowPara
       style="stroke-width:0.0625"
       id="flowPara106" /></flowRoot>  <rect
     style="fill:#ffffff;fill-opacity:1;stroke:#1a1a1a;stroke-width:0.0625;stroke-opacity:1"
     id="clubs11"
     width="10"
     height="15.625"
     x="0.060394153"
     y="0" />
  <rect
     style="fill:none;fill-opacity:1;stroke:#1a1a1a;stroke-width:0.0625;stroke-opacity:1"
     id="rect108-6"
     width="7.2537889"
     height="12.973484"
     x="1.4050978"
     y="1.306818" />
  <g
     id="flowRoot915-09"
     style="font-style:normal;font-variant:normal;font-weight:bold;font-stretch:normal;font-size:16px;line-height:1.25;font-family:'DejaVu Sans';-inkscape-font-specification:'DejaVu Sans Bold';text-align:start;letter-spacing:0px;word-spacing:0px;text-anchor:start;fill:#000000;fill-opacity:1;stroke:none"
     transform="matrix(0.0625,0,0,0.0625,0.24979415,-3.2226563e-7)"
     aria-label="11">
    <path
       id="path6830"
       d="M 4.90625,16.623047 H 7.5625 V 9.0839844 l -2.7265625,0.5625 v -2.046875 l 2.7109375,-0.5625 h 2.859375 v 9.5859376 h 2.65625 v 2.078125 H 4.90625 Z"
       inkscape:connector-curvature="0" />
    <path
       id="path6832"
       d="m 16.039062,16.623047 h 2.65625 V 9.0839844 l -2.726562,0.5625 v -2.046875 l 2.710937,-0.5625 h 2.859375 v 9.5859376 h 2.65625 v 2.078125 h -8.15625 z"
       inkscape:connector-curvature="0" />
  </g>
  <path
     style="fill:#df6a64;fill-opacity:1;stroke:#000000;stroke-width:0.05652938;stroke-opacity:0"
     d="m 3.2414642,4.4970407 -0.0989,-0.02579 -0.10746,-0.06017 v -0.06017 l 0.0215,-0.116049 0.0473,-0.06877 0.15903,-0.08166 0.12465,-0.08166 0.10315,-0.06447 0.0731,-0.02579 0.0817,-0.03439 0.0473,-0.05588 0.0688,-0.07307 0.043,-0.06447 0.086,-0.06877 0.11175,-0.07737 0.0946,-0.06447 0.10746,-0.03868 0.12894,-0.04298 h 0.12894 l 0.15473,0.0043 0.12465,0.05588 0.10745,0.03439 0.0473,0.05158 0.10745,0.103154 0.043,0.06447 0.0387,0.141837 -0.0172,0.111751 -0.0473,0.05588 -0.0559,0.05588 -0.086,0.03438 -0.0731,0.02149 h -0.0516 l -0.0559,-0.06017 -0.0473,-0.09026 -0.086,-0.09886 -0.10745,-0.03009 h -0.12894 l -0.21061,-0.0043 -0.13324,0.04728 -0.13324,0.107453 -0.0387,0.03009 -0.0602,0.04728 -0.10745,0.103154 -0.10316,0.08166 -0.0602,0.06877 -0.0817,0.06447 -0.0602,0.06017 z"
     id="path879"
     inkscape:connector-curvature="0" />
  <path
     style="fill:#659c5e;fill-opacity:1;stroke:#bc0033;stroke-width:0.05652938;stroke-opacity:0.38219898"
     d="m 3.6454842,3.8781137 -0.0903,-0.08596 -0.0903,-0.04298 -0.11605,-0.08166 -0.12465,-0.02149 -0.17192,0.03009 -0.009,0.05588 -0.0645,0.06877 -0.0989,0.01719 -0.16763,0.0043 -0.0731,-0.03868 -0.0903,-0.06017 -0.0688,-0.04728 -0.0172,-0.116048 0.004,-0.103155 0.0903,-0.09456 0.0645,-0.09456 0.12465,-0.06877 0.086,-0.06447 0.13754,-0.05158 h 0.16332 l 0.11605,0.0129 0.13754,0.07307 0.10746,0.05588 0.10315,0.06877 0.0688,0.09456 0.0172,0.06017 0.12894,-0.04728 0.0946,-0.04298 0.0989,-0.06447 0.10316,-0.01719 0.0903,0.01719 0.0516,0.02149 0.0817,0.07737 -0.2364,0.08166 -0.20631,0.141838 -0.12894,0.133241 z"
     id="path889"
     inkscape:connector-curvature="0" />
  <path
     style="fill:#deb392;fill-opacity:0.66492148;stroke:#000000;stroke-width:0.05652938;stroke-opacity:0"
     d="m 4.1182742,3.8437287 -0.13324,0.04728 -0.14184,0.111751 -0.004,0.176222 0.0129,0.210607 -0.009,0.124645 0.0129,0.09026 0.0258,0.07737 0.0774,0.01289 0.0301,0.03439 0.0301,0.03439 -0.0172,0.03868 v 0.07307 l 0.0688,0.04298 0.12035,0.0086 0.11605,0.01719 0.10745,-0.01289 0.0903,-0.02149 0.0301,-0.02149 0.004,-0.05588 -0.0172,-0.03868 0.0301,-0.01719 0.086,-0.03438 0.0129,-0.08166 -0.009,-0.103155 0.009,-0.03439 0.0258,-0.05588 0.0129,-0.07737 -0.0129,-0.06017 -0.0301,-0.05588 -0.0172,-0.05158 v -0.06017 -0.09456 -0.04728 l 0.0215,-0.04298 -0.086,-0.09886 -0.10746,-0.03009 z"
     id="path907"
     inkscape:connector-curvature="0" />
  <path
     style="fill:#3c3833;fill-opacity:1;stroke:#000000;stroke-width:0.05652938;stroke-opacity:0"
     d="m 4.0409042,4.0457397 0.0688,-0.03439 h 0.0903 l 0.0731,0.02149"
     id="path909"
     inkscape:connector-curvature="0" />
  <path
     style="fill:#3c3833;fill-opacity:1;stroke:#000000;stroke-width:0.05652938;stroke-opacity:0"
     d="m 4.4105442,4.0371437 0.0344,-0.03868 0.12035,-0.0043"
     id="path911"
     inkscape:connector-curvature="0" />
  <path
     style="fill:#cba483;fill-opacity:1;stroke:#000000;stroke-width:0.05652938;stroke-opacity:0"
     d="m 4.0452042,4.1359997 0.0903,-0.03439 h 0.0516 l 0.043,0.0086 0.0215,0.01719 -0.0301,0.02149 -0.0602,0.0043 h -0.0516 z"
     id="path913"
     inkscape:connector-curvature="0" />
  <path
     style="fill:#cba483;fill-opacity:1;stroke:#000000;stroke-width:0.05652938;stroke-opacity:0"
     d="m 4.4750142,4.1488937 0.0473,0.0043 0.0387,-0.0043 0.043,-0.02149 0.0129,-0.02579 -0.0774,-0.01719 -0.0688,0.0043 -0.0473,0.03009 z"
     id="path915"
     inkscape:connector-curvature="0" />
  <path
     style="fill:#f0bf92;fill-opacity:0.6701571;stroke:#000000;stroke-width:0.05652938;stroke-opacity:0"
     d="m 4.3417742,4.0973167 0.0172,0.07737 0.0387,0.02579 0.0215,0.03009 0.0473,0.06877 v 0.03868 l -0.0645,0.02579 -0.0645,-0.02579 -0.0473,-0.0043 0.004,-0.03009"
     id="path917"
     inkscape:connector-curvature="0" />
  <path
     style="fill:#f0bf92;fill-opacity:0.6701571;stroke:#000000;stroke-width:0.05652938;stroke-opacity:0"
     d="m 4.1440642,4.5400217 0.0817,-0.0043 0.0688,-0.05588 0.043,-0.01719 0.0559,-0.0043 h 0.0731 l 0.0258,0.02149 0.0387,0.02579 0.0301,0.02149 h 0.0301"
     id="path919"
     inkscape:connector-curvature="0" />
  <path
     style="fill:#3c3833;fill-opacity:1;stroke:#000000;stroke-width:0.05652938;stroke-opacity:0"
     d="m 3.8431942,4.5142327 -0.13324,-0.02579 -0.0516,0.03438 -0.0559,0.02579 -0.11175,-0.02149 -0.13324,-0.02579 -0.11605,-0.0043 0.15903,-0.103155 0.0817,-0.06447 0.0602,-0.06877 0.10315,-0.08166 0.10745,-0.103154 0.0903,-0.07307 -0.004,0.176222 0.0172,0.141838 -0.004,0.06877 z"
     id="path921"
     inkscape:connector-curvature="0" />
  <path
     style="fill:#3c3833;fill-opacity:1;stroke:#000000;stroke-width:0.05652938;stroke-opacity:0"
     d="m 4.6211542,4.6173877 -0.0688,0.159029 -0.0172,0.111751 0.15043,-0.01289 0.15903,0.08166 0.12464,-0.01289 0.13325,-0.05158 0.10745,-0.06877 0.0387,-0.120346 -0.0559,-0.13754 -0.19772,-0.107452 -0.0989,-0.167626 -0.0172,-0.184819 -0.12464,0.02149 -0.0559,-0.06017 -0.0473,-0.09026 -0.0215,0.04298 -0.009,0.15903 0.009,0.04298 0.0172,0.05158 0.0301,0.05588 0.0129,0.06017 -0.0129,0.07737 z"
     id="path923"
     inkscape:connector-curvature="0" />
  <path
     style="fill:#df6a64;fill-opacity:1;stroke:#bc0033;stroke-width:0.05652938;stroke-opacity:0.38219898"
     d="m 3.6025042,4.5486177 -0.0688,0.06017 -0.0602,0.03439 -0.0516,0.01719 -0.0344,0.03009 -0.0344,0.03439 -0.0387,0.03868 v 0.05588 0.111751 l 0.0387,0.06877 0.0946,-0.0043 0.15043,-0.06017 0.0903,-0.03009 0.10315,-0.04298 0.0645,-0.01289 h 0.0473 l 0.043,0.0043 0.0559,0.02149 0.0172,-0.111751 -0.0602,-0.06877 -0.0774,-0.01289 -0.0258,-0.07737 -0.0129,-0.09026 -0.0903,-0.04728 -0.043,0.02149 z"
     id="path925"
     inkscape:connector-curvature="0" />
  <path
     style="fill:#659c5e;fill-opacity:1;stroke:#bc0033;stroke-width:0.05652938;stroke-opacity:0.38219898"
     d="m 3.4477642,4.9956207 0.034,0.05338 0.0698,0.01329 0.0831,0.02658 0.003,0.06644 0.0133,0.06644 0.0731,0.08638 0.0764,0.06977 0.0897,0.0897 0.11296,0.09967 0.0598,0.0299 0.12624,0.01993 0.0698,-0.03654 0.0831,-0.05316 0.0465,-0.0598 0.0332,-0.04983 0.0332,-0.05648 0.0166,-0.05648 0.0299,-0.03987 0.0299,-0.01329 0.0498,0.01 0.0864,0.0299 0.093,0.03987 0.0864,0.03322 0.0698,0.01 h 0.0764 l 0.0764,-0.0299 0.0897,-0.09967 0.0432,-0.04651 0.0199,-0.05648 0.0233,-0.0598 0.0233,-0.03987 0.0498,-0.0299 0.10299,-0.0299 0.0797,0.01329 0.0764,0.01 -0.0266,-0.05648 -0.0997,-0.04319 -0.0997,-0.03987 -0.14221,-0.04259 v 0 l -0.10745,0.06877 -0.13324,0.05158 -0.12465,0.01289 -0.15903,-0.08166 -0.15043,0.01289 -0.0301,0.02149 -0.0903,0.02149 -0.10745,0.01289 -0.11605,-0.01719 -0.12035,-0.0086 -0.12465,-0.06447 -0.0903,-0.0043 -0.0645,0.01289 -0.10315,0.04298 z"
     id="path927-7"
     inkscape:connector-curvature="0" />
  <path
     style="fill:#eac86e;fill-opacity:1;stroke:#bc0033;stroke-width:0.05652938;stroke-opacity:0.38219898"
     d="m 3.4477642,4.9956207 -0.0946,0.0043 -0.0606,0.03642 -0.12624,0.03551 -0.0986,0.04734 -0.11835,0.04734 -0.0552,0.05918 -0.0868,0.09863 -0.0907,0.09863 -0.071,0.118354 -0.0276,0.130189 -0.008,0.118353 0.0316,0.0789 0.0434,0.09468 -0.0197,0.06312 v 0.04734 l 0.13807,0.01972 0.0671,-0.01183 h 0.11047 0.0868 l 0.0671,0.03156 0.071,0.05129 0.0552,0.0434 0.071,0.06312 0.0394,0.04734 0.0355,-0.06707 v -0.06707 l -0.008,-0.07496 -0.0118,-0.08679 0.0355,-0.04734 0.0789,-0.0079 0.075,-0.0434 0.12624,-0.05129 0.0473,-0.04734 0.0434,-0.01183 h 0.0395 l 0.008,-0.102573 0.0552,-0.05918 0.008,-0.05523 -0.0118,-0.09074 -0.24107,-0.284048 -0.0133,-0.06644 -0.003,-0.06644 -0.0831,-0.02658 -0.0698,-0.01329 z"
     id="path929-5"
     inkscape:connector-curvature="0" />
  <path
     style="fill:#d5635e;fill-opacity:1;stroke:#bc0033;stroke-width:0.05652938;stroke-opacity:0.38219898"
     d="m 2.6653642,6.0739037 -0.0316,0.122299 -0.0592,0.126243 -0.0158,0.08285 v 0.173585 l -0.008,0.110464 0.0316,0.09074 0.16175,0.07496 0.14203,0.07101 0.11046,0.05918 0.0947,0.02367 0.071,0.05523 0.0355,-0.01184 -0.0158,-0.0789 0.0118,-0.09468 0.0197,-0.07101 0.0592,-0.07101 0.0434,-0.02367 0.0671,-0.01973 0.0395,-0.01578 0.0434,-0.02762 0.0513,-0.02762 0.0197,-0.06312 -0.0947,-0.0789 -0.1223,-0.02367 -0.0355,-0.05918 0.008,-0.0434 v -0.07101 l 0.0395,-0.01184 -0.26432,-0.189365 -0.26432,0.01183 z"
     id="path931"
     inkscape:connector-curvature="0" />
  <path
     style="fill:#ecc771;fill-opacity:1;stroke:#bc0033;stroke-width:0.05652938;stroke-opacity:0.38219898"
     d="m 3.1979542,7.0522927 0.0789,0.0079 0.11047,-0.01184 0.0868,0.01184 0.0868,-0.01184 h 0.0986 0.0671 l 0.0316,0.01578 0.071,0.0434 0.0434,-0.0079 0.008,-0.0789 -0.0237,-0.03156 -0.0355,-0.118353 0.008,-0.134134 v -0.05918 l 0.0473,-0.0434 -0.0631,-0.03156 -0.11047,0.02367 -0.071,-0.0079 -0.0631,-0.02367 -0.0316,-0.03551 -0.071,0.09074 -0.14991,0.06312 -0.10257,0.09468 -0.0316,0.165695 z"
     id="path933"
     inkscape:connector-curvature="0" />
  <path
     style="fill:#eac86e;fill-opacity:1;stroke:#bc0033;stroke-width:0.05652938;stroke-opacity:0.13089007"
     d="m 5.5781142,5.0058157 0.0394,0.06196 0.0477,0.01362 0.0579,0.108968 v 0.09535 0.07151 l 0.0375,0.08173 0.0204,0.0647 -0.0409,0.09875 -0.0749,0.0647 -0.0545,0.03746 -0.0306,0.03405 -0.0443,-0.02043 -0.0715,-0.05448 -0.0954,-0.108968 -0.0613,-0.0613 -0.0477,-0.09535 -0.0443,-0.0681 -0.0136,-0.06811 6.6e-4,-0.06337 0.0664,-0.156143 0.0498,-0.0299 0.10299,-0.0299 z"
     id="path935"
     inkscape:connector-curvature="0" />
  <path
     style="fill:#dfba9b;fill-opacity:1;stroke:#bc0033;stroke-width:0.05652938;stroke-opacity:0.13089007"
     d="m 3.8765242,6.6341107 0.10643,0.03414 h 0.0409 l 0.0545,-0.02384 0.0749,-0.01022 h 0.0613 0.0613 l 0.0715,0.02384 0.0272,0.01022 0.0443,0.05448 0.0307,0.05448 v 0.04767 l -0.003,0.04767 -0.017,0.05448 -0.0102,0.03065 -0.034,0.04086 -0.11237,0.02384 -0.126,0.01021 -0.13621,0.0068 -0.0715,0.01022 -0.0661,0.05 0.008,-0.0789 -0.0592,-0.149915 0.008,-0.193311 z"
     id="path937"
     inkscape:connector-curvature="0" />
  <path
     style="fill:#dfba9b;fill-opacity:1;stroke:#bc0033;stroke-width:0.05652938;stroke-opacity:0.13089007"
     d="m 5.2088442,6.3753947 -0.13961,-0.01362 -0.0919,0.01362 -0.11578,0.02043 -0.0443,0.03405 -0.0681,0.05789 0.017,0.07492 0.0102,0.102157 v 0.03746 l 0.0409,0.03746 0.0545,0.02724 0.11237,-0.01362 0.0681,-0.02043 0.0545,-0.01362 0.0715,-0.05789 0.0409,-0.0681 0.0102,-0.08513 v -0.05448 l 0.0136,-0.05789 z"
     id="path939"
     inkscape:connector-curvature="0" />
  <path
     style="fill:#d5635e;fill-opacity:1;stroke:#bc0033;stroke-width:0.05652938;stroke-opacity:0.13089007"
     d="m 3.3873242,6.0226177 0.0917,0.162082 0.0715,0.156642 0.0511,0.06129 0.0443,0.05108 0.0919,0.07492 0.0756,0.07392 0.16956,0.0657 0.0953,-0.02384 0.0749,-0.01022 h 0.12259 l 0.0988,0.03405 0.0749,0.108969 v 0.04767 l -0.003,0.04767 -0.0272,0.08513 -0.0341,0.04086 -0.11238,0.02384 -0.11237,0.01703 h -0.14983 l -0.0715,0.01022 -0.0661,0.05 v 0 l -0.0395,0.04875 -0.11578,-0.0647 -0.034,0.05108 -0.0272,0.07492 -0.0409,0.07151 -0.0272,0.03746 -0.0238,0.08513 0.007,0.05448 0.0613,0.0034 0.15664,-0.02043 0.13281,-0.02384 0.19069,-0.02724 0.14643,-0.02043 0.12259,-0.02043 0.0919,-0.03065 0.0987,-0.04767 0.0681,-0.04427 0.0919,-0.04086 0.0375,-0.04767 0.0579,-0.06129 0.0443,-0.07832 0.0409,-0.0647 0.0272,-0.04427 0.0204,-0.06129 0.0238,-0.07492 -0.11238,0.01362 -0.0953,-0.0647 v -0.03746 l -0.0102,-0.102158 -0.017,-0.07491 0.11238,-0.09194 0.20772,-0.03405 0.13961,0.01362 0.0341,0.02043 0.0443,-0.09194 0.0545,-0.09194 0.0341,-0.08854 0.0409,-0.07492 0.0238,-0.06129 0.0102,-0.05108 0.0204,-0.05108 0.0272,-0.0613 0.0272,-0.03405 0.0545,-0.05108 -0.11578,-0.07492 -0.15664,-0.170263 -0.0477,-0.09535 -0.0443,-0.06811 -0.0136,-0.0681 6.7e-4,-0.06337 -0.13289,0.146177 -0.0764,0.0299 h -0.0764 l -0.24917,-0.08306 -0.0864,-0.0299 -0.0498,-0.01 -0.0598,0.05316 -0.0166,0.05648 -0.0665,0.106311 -0.0465,0.0598 -0.0831,0.05316 -0.0698,0.03654 -0.12624,-0.01993 -0.0598,-0.0299 -0.0783,-0.03978 -0.0328,-0.02168 0.0118,0.09074 -0.008,0.05523 -0.0552,0.05918 -0.008,0.102573 -0.0828,0.01184 -0.0473,0.04734 -0.12625,0.05129 -0.075,0.0434 -0.0789,0.0079 z"
     id="path941"
     inkscape:connector-curvature="0" />
  <path
     style="fill:#71ada3;fill-opacity:1;stroke:#bc0033;stroke-width:0.05652938;stroke-opacity:0.13089007"
     d="m 3.5709142,7.4582667 -0.0127,0.134715 0.003,0.114927 v 0.06167 l 0.028,0.06447 0.0364,0.0897 0.0533,0.08409 0.0813,0.05326 0.12054,0.05046 0.12333,0.07008 0.11213,0.05887 0.12614,0.08129 0.10091,0.08409 0.0477,0.06167 0.0897,0.106517 0.0701,0.07008 0.0533,0.06167 0.0196,0.04205 0.014,0.01962 0.0364,0.03644 0.0533,0.112124 0.0112,0.04765 0.0168,0.07008 0.0168,0.05606 0.0364,0.04765 0.0813,0.02243 0.14016,0.0084 0.14015,-0.0084 0.0841,-0.03925 0.12054,-0.06727 0.0336,-0.05046 0.0168,-0.06447 -0.0112,-0.07288 0.0388,0.01115 -0.009,-0.03245 -0.0186,-0.045 -0.009,-0.04813 -0.0232,-0.04005 -0.011,-0.03592 -0.0135,-0.04286 -0.002,-0.04599 -0.01,-0.08081 -0.0217,-0.09321 0.006,-0.07654 -0.002,-0.169121 -0.0756,-0.06071 -0.11213,-0.100912 -0.0645,-0.07849 -0.0645,-0.07849 -0.0701,-0.06447 -0.0449,-0.07008 -0.0336,-0.03364 -0.0196,-0.08129 v -0.09531 -0.08409 l 0.0196,-0.120533 0.0168,-0.13455 0.0112,-0.07008 0.0673,-0.0056 0.014,-0.08409 v -0.100912 l 0.002,-0.150039 -0.0443,0.136208 -0.11237,0.18729 -0.0953,0.108967 -0.0919,0.04086 -0.0681,0.04427 -0.0988,0.04767 -0.0919,0.03065 z"
     id="path943"
     inkscape:connector-curvature="0" />
  <path
     style="fill:#d5635e;fill-opacity:1;stroke:#bc0033;stroke-width:0.05652938;stroke-opacity:0.13089007"
     d="m 4.8083942,9.1374957 0.004,0.08158 v 0.106602 0.09719 l 0.0188,0.09719 0.0408,0.100331 0.10033,0.08779 0.0752,0.10033 0.0596,0.112873 0.0188,0.07525 0.0564,0.1066023 0.0219,0.116006 0.006,0.163038 0.009,0.125414 0.0972,0.02822 0.11288,-0.02508 0.10346,0.0031 0.1066,-0.0063 0.0784,-0.06271 0.022,-0.04076 0.0157,-0.03135 -0.0627,-0.06584 -0.0439,-0.01881 -0.0502,-0.02508 -0.0345,-0.03762 -0.009,-0.07211 v -0.112817 l -0.0188,-0.1128713 -0.009,-0.0972 -0.0251,-0.05957 -0.0251,-0.103466 0.0188,-0.153632 v -0.122277 -0.122278 -0.109737 l -0.0282,-0.09406 -0.0422,-0.126971 -0.0168,0.06447 -0.15417,0.11773 -0.0841,0.03924 -0.173,0.009 -0.10731,-0.009 z"
     id="path945"
     inkscape:connector-curvature="0" />
  <path
     style="fill:#6a9e61;fill-opacity:1;stroke:#bc0033;stroke-width:0.05652938;stroke-opacity:0.13089007"
     d="m 5.2196042,10.507698 -0.009,0.06271 0.009,0.06271 0.0533,0.09406 0.0596,0.04703 0.0909,-0.0094 h 0.13795 l 0.10974,0.0063 0.10347,-0.0031 h 0.12227 0.0533 l -0.006,-0.05644 -0.0157,-0.05957 -0.0188,-0.04703 -0.0188,-0.05644 0.009,-0.04076 v -0.07211 l 0.0188,-0.03135 0.0251,-0.03449 -0.0282,-0.02822 -0.13481,0.0063 -0.0251,0.02508 -0.0376,0.07211 -0.0784,0.06271 -0.21007,0.0031 -0.11287,0.02508 z"
     id="path947"
     inkscape:connector-curvature="0" />
  <path
     style="fill:#6a9e61;fill-opacity:1;stroke:#bc0033;stroke-width:0.05652938;stroke-opacity:0.13089007"
     d="m 6.0630042,10.376013 0.0596,-0.0063 0.0533,0.01881 0.0313,0.03449 0.0314,0.05644 0.0439,0.03135 0.0533,0.0063 h 0.0721 l 0.0282,0.0031 0.0282,0.04076 -0.0188,0.05017 -0.0345,0.05644 -0.0345,0.02508 -0.0596,0.02195 -0.069,0.0094 -0.0251,0.01254 -0.0282,0.01881 h -0.0533 -0.0408 l -0.047,-0.07525 -0.0408,-0.09092 -0.009,-0.05016 v -0.03449 l 0.009,-0.0533 0.0157,-0.03135 z"
     id="path949-9"
     inkscape:connector-curvature="0" />
  <path
     style="fill:#eac86e;fill-opacity:0.45026179;stroke:#bc0033;stroke-width:0.05652938;stroke-opacity:0.13089007"
     d="m 7.8683942,5.8045977 0.0209,0.258758 -0.0584,0.08764 -0.0292,0.0626 -0.008,0.100165 v 0.112685 0.179461 l 0.008,0.16694 v 0.158594 0.104338 l 0.004,0.137727 -0.0292,0.07095 -0.11686,0.07512 -0.10851,0.03756 -0.0876,0.02504 -0.0835,0.0083 -0.0584,-0.04173 -0.12938,-0.09182 v -0.05426 l -0.008,-0.07095 v -0.05843 l -0.0125,-0.1419 -0.0334,-0.0626 -0.0501,-0.05843 -0.0668,-0.09182 -0.0751,-0.104338 -0.0626,-0.100165 -0.0835,-0.05843 -0.0835,-0.04173 h -0.0209 l -0.004,0.100164 v 0.200329 l 0.0543,0.1419 0.0459,0.100164 0.0626,0.108512 0.0167,0.05008 -0.0167,0.04173 -0.0793,0.03756 -0.12938,0.07095 -0.21702,0.01669 -0.17111,0.0042 -0.26711,-0.0083 -0.18363,-0.01669 -0.14608,-0.05843 -0.0125,-0.150246 0.0584,-0.01669 -0.0417,-0.196155 h 0.0751 l 0.0751,0.07512 0.0709,-0.112685 -0.0292,-0.09599 0.0918,-0.07095 0.0125,-0.07095 0.0501,-0.0626 0.025,-0.150246 0.13773,-0.05843 0.0668,0.0793 0.071,-0.229543 0.0793,0.01669 0.0334,0.08764 0.11269,-0.0626 0.0125,-0.162767 0.0334,-0.09182 0.0459,-0.125205 0.0668,0.09182 0.0626,0.121032 0.0835,-0.112685 0.008,-0.129379 0.0459,-0.100165 0.0543,-0.04591 0.0793,-0.04173 0.0918,-0.0167 0.13772,-0.02087 h 0.0793 l 0.0209,-0.0083 -0.004,-0.112685 0.0125,-0.171115 v -0.116856 -0.0793 l 0.0376,-0.06678 0.0918,-0.162768 0.071,0.05008 0.0501,0.09182 0.0334,0.09599 -0.008,0.183635 -0.0125,0.116858 v 0.04591 l -0.008,0.100164 -0.004,0.04174 -0.004,0.05008 0.008,0.08764 0.0543,0.04173 0.0751,0.05008 z"
     id="path951"
     inkscape:connector-curvature="0" />
  <path
     style="fill:#80e5ff;fill-opacity:1;stroke:#bc0033;stroke-width:0.05652938;stroke-opacity:0.13089007"
     d="m 7.6305042,6.0633557 0.004,0.08347 -0.0125,0.07095 -0.0417,0.03756 -0.0709,-0.04173 -0.0584,-0.06678 0.0167,-0.05008 0.0417,-0.03339 z"
     id="path953"
     inkscape:connector-curvature="0" />
  <path
     style="fill:#eac86e;fill-opacity:0.45026179;stroke:#bc0033;stroke-width:0.05652938;stroke-opacity:0.13089007"
     d="m 7.3800942,7.3905347 0.0376,-0.141899 0.0376,-0.208677 0.0417,-0.0083 -0.0334,0.350575 z"
     id="path955"
     inkscape:connector-curvature="0" />
  <path
     style="fill:#659c5e;fill-opacity:1;stroke:#bc0033;stroke-width:0.05652938;stroke-opacity:0.13089007"
     d="m 7.3592242,5.5416647 0.24207,0.0042 0.0209,0.150246 -0.36728,0.02087 0.004,-0.166942 z"
     id="path957-7"
     inkscape:connector-curvature="0" />
  <path
     style="fill:#659c5e;fill-opacity:1;stroke:#bc0033;stroke-width:0.05652938;stroke-opacity:0.13089007"
     d="m 7.0086542,5.7879037 h 0.15442 l 0.008,0.104338 -0.025,0.06678 v 0.321362 0.06678 l 0.025,0.04173 0.0125,0.08764 v 0.100164 0.02922 l -0.1586,-0.0083 -0.0167,-0.187809 v -0.116858 -0.129379 l 0.008,-0.258758 z"
     id="path959-8"
     inkscape:connector-curvature="0" />
  <path
     style="fill:#659c5e;fill-opacity:1;stroke:#bc0033;stroke-width:0.05652938;stroke-opacity:0.13089007"
     d="m 7.2465442,6.6393017 0.004,0.121032 h 0.53004 l 0.0125,-0.121032 z"
     id="path961"
     inkscape:connector-curvature="0" />
  <path
     style="fill:#ff5555;fill-opacity:1;stroke:#bc0033;stroke-width:0.05652938;stroke-opacity:0.13089007"
     d="m 5.6606042,7.2027247 -0.30467,-0.146071 -0.1878,-0.146073 -0.0614,-0.191255 0.0715,-0.05789 0.0409,-0.0681 0.0102,-0.139616 0.0136,-0.05789 0.0443,-0.09194 0.0885,-0.180478 0.0409,-0.07492 0.0341,-0.112373 0.0749,-0.146427 0.13961,-0.122587 0.21248,-0.19221 0.0835,-0.04173 0.10016,-0.09182 0.10434,-0.08764 0.0876,-0.04591 h 0.0668 l 0.11269,-0.04173 0.0668,-0.02922 0.0918,-0.01669 0.0835,-0.01252 0.13355,-0.0083 h 0.10016 0.12521 l 0.10016,0.01252 0.0292,0.0083 0.0751,0.04591 0.0751,-0.0083 0.0543,-0.09599 -0.008,0.479953 -0.10016,0.0083 -0.17946,0.02922 -0.18364,0.09599 -0.0584,0.158596 0.004,0.07095 -0.0835,0.112685 -0.0626,-0.121032 -0.0668,-0.09182 -0.0793,0.217023 -0.0125,0.162768 -0.11268,0.0626 -0.0334,-0.08764 -0.0793,-0.01669 -0.0709,0.229543 -0.0668,-0.0793 -0.13773,0.05843 -0.025,0.150246 -0.0501,0.0626 -0.0125,0.07095 -0.0918,0.07095 0.0292,0.09599 -0.071,0.112685 -0.0751,-0.07512 h -0.0751 l 0.0417,0.196155 -0.0584,0.01669 z"
     id="path963-5"
     inkscape:connector-curvature="0" />
  <path
     style="fill:#ff5555;fill-opacity:1;stroke:#bc0033;stroke-width:0.05652938;stroke-opacity:0.13089007"
     d="m 7.6221642,5.6960867 0.0543,0.04173 0.0751,0.05008 0.11685,0.01669 0.0501,-0.01252 0.0542,0.0042 0.0417,0.02504 0.025,0.06678 0.0125,0.104338 -0.0125,0.0793 -0.004,0.0793 0.0751,-0.03756 0.0376,-0.08347 0.008,-0.141899 0.0125,-0.116859 -0.0167,-0.08764 -0.0417,-0.100164 -0.0125,-0.01669 -0.10851,-0.02087 -0.0376,-0.08764 0.0167,-0.100164 0.008,-0.08347 -0.0417,-0.04591 v -0.09182 l -0.004,-0.04173 -0.0167,-0.108511 -0.004,-0.04591 -0.0835,0.03756 -0.025,0.04591 -0.0542,0.0793 -0.0334,0.03756 -0.025,0.0083 -0.0876,0.396484 z"
     id="path965-3"
     inkscape:connector-curvature="0" />
  <path
     style="fill:#aa0000;fill-opacity:0.46073303;stroke:#bc0033;stroke-width:0.05652938;stroke-opacity:0.13089007"
     d="m 5.1066942,6.7193257 -0.12259,0.03405 -0.0159,0.335043 0.0746,0.135007 0.12699,0.132763 0.0808,0.115447 0.16739,0.150081 0.11545,0.138536 0.11545,0.05195 0.12699,0.08658 0.20203,0.05195 0.1039,0.01732 0.14431,0.02886 0.1674,-0.0058 0.15008,-0.01732 0.075,-0.04618 0.13276,-0.132764 0.0289,-0.05195 0.0173,-0.17317 -0.0173,-0.09813 0.0866,-0.04041 0.0231,-0.08081 0.0462,-0.0635 0.19626,-0.06349 0.0515,-0.09165 -0.0125,-0.200328 -0.30049,0.183635 -0.22537,0.150246 -0.22892,0.02159 h -0.45602 l -0.15394,-0.02577 -0.14607,-0.05843 -0.30467,-0.146072 -0.18781,-0.146073 z"
     id="path967-3"
     inkscape:connector-curvature="0" />
  <path
     style="fill:#aa0000;fill-opacity:0.46073303;stroke:#bc0033;stroke-width:0.05652938;stroke-opacity:0.13089007"
     d="m 4.9681742,7.0884207 0.0458,0.325494 0.0289,0.115446 0.12699,0.167398 0.21358,0.253983 0.15585,0.150081 0.0693,0.167396 0.0808,0.19626 0.0173,0.150081 -0.0173,0.184714 -0.0519,0.05772 -0.0577,0.138536 -0.17138,0.0074 0.006,-0.137352 0.12537,-0.03746 0.006,-0.09236 0.0173,-0.103902 v -0.132764 l -0.0346,-0.126991 -0.0577,-0.09813 -0.13189,-0.107329 -0.46522,-0.486786 -0.0196,-0.08129 v -0.179399 l 0.0477,-0.325161 z"
     id="path971-8"
     inkscape:connector-curvature="0" />
  <path
     style="fill:#aa0000;fill-opacity:0.46073303;stroke:#bc0033;stroke-width:0.05652938;stroke-opacity:0.13089007"
     d="m 3.8805642,8.1115567 -0.0673,0.08162 -0.0289,0.132764 -0.0346,0.190486 0.0115,0.109674 v 0.126992 l 0.052,0.282843 0.0173,0.12122 0.0289,0.115447 0.10968,0.05195 0.17894,-0.06349 0.2713,-0.05772 0.10968,-0.0635 0.075,-0.01732 0.16783,-0.03268 -0.0448,-0.173793 -0.0897,-0.148565 -0.15697,-0.193415 -0.13736,-0.168186 -0.22705,-0.165383 z"
     id="path973-3"
     inkscape:connector-curvature="0" />
  <path
     style="fill:#e9c774;fill-opacity:0.6701571;stroke:#bc0033;stroke-width:0.05652938;stroke-opacity:0.13089007"
     d="m 6.9361442,7.2869237 0.0577,0.109674 0.13854,0.07504 0.0231,0.173171 0.0519,0.12699 v 0.19626 0.115447 l 0.052,0.155852 0.0231,0.132764 0.0289,0.109674 v 0.167398 0.06927 0.126992 0.06927 0.08658 l 0.42138,-0.01155 0.0866,-0.08081 0.0924,0.01154 0.0981,0.01732 0.0693,0.06927 0.0173,0.05772 0.052,0.03463 0.0693,0.01732 0.0404,0.05772 v 0.138536 l -0.052,0.05195 0.006,0.132763 0.006,0.126992 0.0289,0.06927 v 0.15008 0.138536 l 0.0173,0.1096743 0.0693,0.126992 0.0173,0.15008 -0.052,0.190487 -0.0693,0.150081 -0.0635,0.09236 -0.0346,0.138536 -0.0693,0.138535 -0.0462,0.115447 -0.0981,0.09813 -0.0808,-0.15008 -0.0577,-0.115447 -0.0289,-0.08658 v -0.126991 -0.09236 l 0.0462,-0.09236 0.0866,-0.07504 0.0693,-0.01732 0.0981,-0.109675 V 10.32316 l -0.0231,-0.121219 0.006,-0.0635 V 9.9594987 9.8267347 l -0.006,-0.190486 -0.0462,-0.109675 -0.0346,-0.150081 -0.0462,-0.08081 -0.11545,-0.08081 -0.0231,0.103901 -0.12122,0.109674 -0.075,0.04041 -0.0635,0.02886 h -0.0462 l -0.0462,0.0058 -0.0693,0.02886 h -0.17894 l -0.0289,0.109674 0.0635,0.167398 0.0635,0.161624 0.0924,0.2251223 0.0404,0.121219 0.052,0.155853 0.0173,0.03463 0.006,0.138537 -0.0404,0.06927 -0.0981,0.121218 -0.0115,0.09813 -0.0231,0.155853 0.006,0.08081 v 0.115446 l -0.075,0.04041 -0.13854,-0.150081 -0.0808,-0.132764 v -0.09813 -0.05195 l 0.13277,-0.08081 v -0.126991 l 0.006,-0.155853 -0.0462,-0.02886 -0.0462,-0.05195 0.006,-0.132763 v -0.126992 l 0.0346,-0.138535 -0.0693,-0.2020323 -0.075,-0.155853 -0.0577,-0.121219 -0.0404,-0.02886 -0.0635,0.09813 -0.21358,0.02886 -0.2078,0.04618 -0.15586,0.03463 -0.0924,0.05772 h -0.15008 l -0.0635,0.02309 h -0.0751 l -0.006,0.01155 0.0866,0.1904873 0.0866,0.207803 0.0678,0.133657 -0.0345,0.0439 -0.0251,0.119142 0.009,0.05016 0.0408,0.09092 0.047,0.07525 h 0.0941 l 0.008,0.121923 -0.19049,0.01732 -0.0624,-0.126703 -0.022,-0.116007 -0.0376,-0.103467 0.009,-0.112871 0.0439,-0.06584 -0.0583,-0.09852 -0.0635,-0.103902 -0.0231,-0.09236 -0.0635,-0.1558533 -0.0404,-0.08659 -0.0346,-0.05772 -0.052,-0.09813 v 0 l -0.0404,-0.09813 -0.0726,-0.06474 0.009,-0.102658 -0.0115,-0.08081 v -0.103902 l 0.002,-0.06692 v 0 l -0.002,-0.117794 0.0866,-0.04618 0.0577,-0.138536 v 0 l 0.0519,-0.05772 0.0173,-0.184714 -0.0173,-0.150082 -0.0519,-0.167397 -0.0981,-0.196259 -0.0577,-0.05772 -0.20203,-0.225121 -0.15008,-0.17317 -0.0866,-0.115447 -0.0519,-0.265527 -0.0227,-0.175414 0.0747,0.135008 0.20781,0.24821 0.16739,0.150081 0.11545,0.138536 0.24244,0.138535 0.20203,0.05195 0.24821,0.04618 0.1674,-0.0058 0.15008,-0.01732 0.075,-0.04618 0.13276,-0.132764 0.0462,-0.155853 -0.0173,-0.167398 0.0866,-0.04041 0.0231,-0.08081 z"
     id="path977"
     inkscape:connector-curvature="0" />
  <path
     style="fill:#e9c774;fill-opacity:0.6701571;stroke:#bc0033;stroke-width:0.05652938;stroke-opacity:0.13089007"
     d="m 5.3380842,8.1666637 -0.003,0.245657 0.0217,0.09321 0.0124,0.126804 0.0478,0.118832 0.0273,0.09312 0.0953,-0.01615 0.006,-0.09236 0.0173,-0.103902 v -0.132764 l -0.0346,-0.126991 -0.0577,-0.09813 z"
     id="path979-7"
     inkscape:connector-curvature="0" />
  <path
     style="fill:#e9c774;fill-opacity:0.6701571;stroke:#bc0033;stroke-width:0.05652938;stroke-opacity:0.13089007"
     d="m 3.6254842,7.9529007 -0.19229,0.06335 -0.0947,0.02186 -0.0802,0.03644 -0.1822,0.05831 -0.11661,0.0073 -0.18949,0.07288 -0.0364,0.02915 -0.3061,0.10932 -0.13848,0.07288 -0.13118,0.131186 -0.18949,0.18949 -0.0656,0.196779 -0.0875,0.233219 0.007,0.240506 0.0219,0.269659 0.10203,0.262371 0.13118,0.1822023 0.17492,0.167626 0.10932,0.09475 0.16034,0.145761 0.13118,0.109321 0.13848,0.123898 0.0729,0.08017 0.19678,0.138474 -0.007,0.08746 -0.0729,0.211354 -0.0729,0.109321 -0.0583,0.08746 -0.0948,0.06559 0.007,0.08746 0.10932,0.03644 0.0875,0.05102 0.15305,0.138474 0.1822,0.02186 0.0875,0.08017 0.14576,0.182202 0.1822,0.211355 0.10932,0.18949 0.0948,0.145761 0.0948,-0.05102 0.2478,0.240507 0.0292,0.08017 0.17491,-0.02186 0.10204,-0.0583 0.0802,-0.03644 0.0437,-0.06559 -0.0437,-0.04373 -0.16763,-0.03644 -0.0947,-0.131185 -0.0729,-0.131186 -0.1822,-0.0583 -0.21135,-0.247795 -0.17492,-0.167626 -0.16762,-0.174914 -0.0948,-0.0583 -0.0292,-0.109321 0.0437,-0.15305 0.0291,-0.138473 0.0729,-0.08017 0.12389,-0.211354 0.0948,-0.160339 0.1239,-0.18949 0.0656,-0.15305 0.0802,-0.145761 0.0656,-0.08746 0.0802,-0.05831 0.13119,-0.03644 h 0.11661 0.1166 0.0947 l 0.16763,-0.0073 0.21135,0.02186 0.13821,-0.0053 -0.0784,-0.2226083 -0.0784,-0.188121 -0.17558,-0.188119 -0.0408,-0.100331 -0.0224,-0.382572 -0.0364,-0.04765 -0.24287,0.05 -0.38098,0.121219 -0.17894,0.06349 -0.10968,-0.05195 -0.0289,-0.115447 -0.0768,-0.29549 0.008,-0.108573 -0.0115,-0.236666 0.004,-0.106622 0.0146,-0.116609 0.0449,-0.100019 0.0673,-0.08162 z"
     id="path981-9"
     inkscape:connector-curvature="0" />
  <path
     style="fill:#e9c774;fill-opacity:0.6701571;stroke:#bc0033;stroke-width:0.05652938;stroke-opacity:0.13089007"
     d="m 5.2039242,10.219246 -0.15278,0.158346 -0.0729,0.138473 -0.0364,0.08746 -0.0947,0.160337 -0.11661,0.08746 -0.12389,0.06559 -0.15305,0.123899 -0.0146,0.167625 0.0146,0.131186 0.0146,0.07288 0.0802,0.08017 0.13118,0.08017 0.20407,0.182201 0.17491,0.11661 0.10932,0.08017 0.0875,0.07288 0.0364,0.102033 0.051,0.07288 0.0292,0.05102 0.0729,0.02186 0.10204,0.03644 0.12389,0.0073 0.051,0.05102 -0.0656,0.07288 -0.0437,0.05102 -0.1166,0.02186 h -0.10204 l -0.11661,0.0073 -0.0729,-0.08017 -0.13118,-0.02915 -0.0729,-0.05102 -0.0948,-0.109322 -0.007,-0.116609 -0.13848,-0.08746 -0.21135,-0.15305 -0.17492,-0.145762 -0.15305,-0.08746 -0.1822,-0.06559 -0.0292,-0.09474 -0.0292,-0.145761 -0.0146,-0.09475 0.051,-0.174914 0.0364,-0.07288 0.0219,-0.08017 -0.0729,-0.131186 -0.0656,-0.109321 0.0656,-0.15305 0.0802,-0.145761 0.14576,-0.145762 0.13119,-0.03644 0.49559,-0.0073 0.21135,0.02186 z"
     id="path983-3"
     inkscape:connector-curvature="0" />
  <path
     style="fill:#443f39;fill-opacity:1;stroke:#bc0033;stroke-width:0.05652938;stroke-opacity:0.13089007"
     d="m 4.2567442,12.884693 0.0292,0.08017 -0.0583,0.123897 0.0364,0.102033 0.1822,0.02186 h 0.14577 0.13118 l 0.13119,-0.01458 0.14576,0.0073 0.007,-0.08017 v -0.08746 l -0.15305,-0.08746 -0.0875,-0.09475 -0.0802,-0.07288 -0.0437,0.06559 -0.0802,0.03644 -0.10204,0.0583 -0.17491,0.02186 z"
     id="path985-7"
     inkscape:connector-curvature="0" />
  <path
     style="fill:#443f39;fill-opacity:1;stroke:#bc0033;stroke-width:0.05652938;stroke-opacity:0.13089007"
     d="m 5.7470942,12.388546 0.0113,0.02425 0.0291,0.02263 0.0388,0.02587 0.0194,0.02263 0.0517,0.04203 0.0194,0.03072 0.0291,0.03718 0.0436,0.06143 0.0259,0.0388 0.0162,0.05335 0.0178,0.03233 0.0178,0.03718 -0.005,0.04203 -0.0824,0.01778 -0.0695,-0.01132 -0.17783,-0.0065 -0.0695,-0.0291 -0.0824,-0.02263 -0.1164,-0.02425 -0.0663,-0.01132 -0.0566,-0.02748 -0.0307,-0.03072 -0.0194,-0.05011 -0.005,-0.0679 -0.009,-0.07519 0.21864,-0.0073 0.11661,-0.02186 0.10932,-0.123897 z"
     id="path987"
     inkscape:connector-curvature="0" />
  <path
     style="fill:#443f39;fill-opacity:1;stroke:#bc0033;stroke-width:0.05652938;stroke-opacity:0.13089007"
     d="m 7.0054142,10.89463 -0.0606,0.0267 -0.0558,0.05581 -0.0478,0.06379 -0.0133,0.07442 v 0.100995 l 0.016,0.09036 v 0.06379 l 0.0372,0.08771 0.0425,0.07708 0.0797,0.09834 0.0558,0.07708 0.0478,0.03189 0.0266,-0.0691 0.0452,-0.07176 0.0186,-0.05847 0.003,-0.09302 0.0399,-0.02923 -0.0151,-0.09344 -0.13854,-0.150081 -0.0808,-0.132763 z"
     id="path989"
     inkscape:connector-curvature="0" />
  <path
     style="fill:#443f39;fill-opacity:1;stroke:#bc0033;stroke-width:0.05652938;stroke-opacity:0.13089007"
     d="m 7.9520742,10.536746 -0.0185,0.07363 0.0133,0.08771 0.0186,0.114283 0.008,0.03455 0.0425,0.04518 0.0213,0.02924 0.0319,0.03987 0.0106,0.02126 v 0.04784 l -0.018,0.04904 -0.0462,0.115447 -0.0981,0.09813 -0.17537,-0.277695 0.008,-0.293765 0.0462,-0.09236 0.0866,-0.07504 z"
     id="path991"
     inkscape:connector-curvature="0" />
  <path
     style="fill:#443f39;fill-opacity:1;stroke:#bc0033;stroke-width:0.05652938;stroke-opacity:0.13089007"
     d="m 1.9682842,8.7450597 -0.1664,0.127241 -0.10726,0.137062 -0.0834,0.244326 -0.0179,0.22645 0.006,0.315838 0.0536,0.2622053 0.1311,0.315838 0.0715,0.339674 0.0179,0.244328 0.0775,0.333716 0.0834,0.303919 0.11918,0.232409 v 0.232409 l -0.0477,0.101306 -0.0119,0.14898 v 0.214531 l 0.0477,0.131103 0.0536,-0.280083 0.0358,-0.178776 0.10131,-0.214531 -0.006,0.256246 0.0715,0.196653 0.12514,0.208573 -0.0656,-0.572084 0.0834,0.22049 0.0238,0.286043 0.0477,0.160898 0.0656,0.0298 0.0953,0.006 0.0656,-0.006 0.0179,-0.172817 v -0.143021 l 0.0238,-0.113225 0.0417,-0.208572 -0.0298,-0.14898 -0.0238,-0.113225 -0.0119,-0.113225 -0.094,-0.118125 -0.007,-0.08746 0.0948,-0.06559 0.0482,-0.14597 -0.006,-0.154939 -0.0477,-0.107266 -0.0298,-0.113225 -0.0358,-0.131102 0.0127,-0.06173 -0.13183,-0.09321 -0.22645,-0.202613 -0.23837,-0.214531 -0.11758,-0.130999 -0.13119,-0.1822023 -0.10203,-0.262371 -0.0292,-0.510165 z"
     id="path995"
     inkscape:connector-curvature="0" />
  <path
     style="fill:#3c3833;fill-opacity:1;stroke:#bc0033;stroke-width:0.00307304;stroke-opacity:0.13089007"
     d="m 4.0892842,4.1473367 c -0.008,-0.0024 -0.02,-0.006 -0.0276,-0.008 l -0.0138,-0.0036 0.0438,-0.0166 c 0.0417,-0.01579 0.0452,-0.01659 0.0721,-0.01649 0.0351,1.37e-4 0.0634,0.006 0.0756,0.0156 0.005,0.004 0.009,0.008 0.01,0.0089 8e-5,8.45e-4 -0.007,0.0062 -0.0151,0.01196 l -0.0153,0.01042 -0.0577,0.0011 c -0.0439,8.38e-4 -0.061,5.6e-5 -0.0715,-0.0033 z"
     id="path997"
     inkscape:connector-curvature="0" />
  <path
     style="fill:#3c3833;fill-opacity:1;stroke:#bc0033;stroke-width:0.00307304;stroke-opacity:0.13089007"
     d="m 4.4857042,4.1489717 c -0.013,-0.0022 -0.0585,-0.02609 -0.0583,-0.03055 7e-5,-0.0011 0.01,-0.0081 0.0216,-0.01544 0.0208,-0.01295 0.0226,-0.01348 0.0544,-0.01569 0.0289,-0.002 0.0374,-0.0013 0.0698,0.0054 0.0203,0.0042 0.038,0.0087 0.0393,0.0099 0.001,0.0012 1.7e-4,0.0069 -0.003,0.01283 -0.004,0.0084 -0.01,0.01313 -0.0282,0.02211 -0.0208,0.01031 -0.026,0.01153 -0.0527,0.0126 -0.0163,6.52e-4 -0.0358,1.31e-4 -0.0434,-0.0012 z"
     id="path999"
     inkscape:connector-curvature="0" />
  <path
     style="fill:#3c3833;fill-opacity:1;stroke:#bc0033;stroke-width:0.00307304;stroke-opacity:0.13089007"
     d="m 4.2009442,4.5366317 0.0241,-0.0011 0.0351,-0.02859 c 0.0258,-0.02101 0.041,-0.03094 0.0573,-0.03746 0.0216,-0.0086 0.0242,-0.0089 0.0861,-0.01 l 0.0638,-0.0011 0.013,0.01049 c 0.0172,0.01388 0.0794,0.05646 0.0852,0.05837 0.002,8.27e-4 -0.032,0.0025 -0.0768,0.0037 -0.0448,0.0012 -0.11946,0.0035 -0.16594,0.005 -0.0465,0.0016 -0.0983,0.0026 -0.11524,0.0023 -0.0297,-5.5e-4 -0.0299,-6.07e-4 -0.007,-0.0016 z"
     id="path1001"
     inkscape:connector-curvature="0" />
  <path
     id="path2551-87"
     d="m 6.3067442,4.1163907 0.17845,-0.117464 0.024,-0.0727 0.11948,-0.1126 -0.0296,-0.197043 -0.0525,-0.07039 -0.0249,-0.07534 0.0291,-0.07645 0.10422,-0.03862 0.0602,0.01772 0.003,-0.143012 -0.0374,-0.08164 0.008,-0.115398 0.0215,-0.08651 0.0678,-0.03495 0.0717,-0.06129 0.0203,-0.07773 0.001,-0.07151 -0.0562,-0.106784 0.0177,-0.06017 0.0465,-0.04253 0.0552,-0.0099 0.0439,0.0064 -0.0221,-0.186987 4.4e-4,-0.156819 0.0906,-0.09887 0.11062,-0.08251 0.0514,0.01644 0.10806,-0.06496 0.12554,-0.03104 0.10789,-0.0022 0.0513,0.04781 0.099,0.05922 0.15538,0.07191 0.075,0.10056 0.0422,0.171984 0.0273,0.120509 0.006,0.08156 -0.0405,0.15546 -0.0366,0.0664 -0.0729,0.0387 -0.1379,-0.038 -0.12785,-0.0455 -0.005,0.03511 -0.007,0.106621 -0.0603,0.04501 -0.0777,-0.02028 -0.0788,-0.07422 0.002,0.107897 0.0111,0.07781 -0.0228,0.09529 -0.063,0.09393 -0.0429,0.110289 -0.0492,0.09145 -0.0479,0.08268 0.0375,0.05028 0.045,0.06033 -0.014,0.0652 -0.0302,0.0225 -0.0666,0.05754 -0.0464,0.01117 -0.0203,0.07773 -0.0329,0.102788 -0.0279,0.09904 -0.0667,0.0889 -0.10311,0.09257 -0.0691,0.04373 -0.0302,0.0225 -0.0466,0.0739 -0.0341,0.0802 -0.0765,0.0023 -0.0539,-0.03025 -0.06,-0.08045 -0.0638,-0.08548 z"
     style="fill:#ffff00;stroke:#000000;stroke-width:0.03136386px;stroke-linecap:butt;stroke-linejoin:miter;stroke-opacity:1"
     inkscape:connector-curvature="0" />
  <path
     id="path2553-419"
     d="m 6.9784042,2.4884677 0.0412,0.0309 0.0131,0.03335 0.002,0.04966 -0.0158,0.03139 -0.0252,0.01879 -0.0541,0.03254 -0.0226,0.0012 -0.0455,0.01518"
     style="fill:#ffff00;stroke:#000000;stroke-width:0.03136386px;stroke-linecap:butt;stroke-linejoin:miter;stroke-opacity:1"
     inkscape:connector-curvature="0" />
  <path
     id="path2555-09"
     d="m 7.3627342,2.8043617 0.0202,-0.06595 0.0183,-0.03327 c 0,0 -0.003,-0.0041 0.0156,-0.01167 0.0153,-0.0063 0.0643,-0.02835 0.0643,-0.02835 l 0.0521,0.01208 0.058,0.03491"
     style="fill:none;stroke:#000000;stroke-width:0.03136386px;stroke-linecap:butt;stroke-linejoin:miter;stroke-opacity:1"
     inkscape:connector-curvature="0" />
  <path
     id="path2557-88"
     d="m 7.1502442,3.4637057 -0.0639,-0.01394 -0.0409,0.01875 -0.0403,0.04578 -0.0114,0.03203 0.0169,0.03839 0.0281,0.06921 0.0257,0.03966 0.0112,0.03715"
     style="fill:none;stroke:#000000;stroke-width:0.03136386px;stroke-linecap:butt;stroke-linejoin:miter;stroke-opacity:1"
     inkscape:connector-curvature="0" />
  <path
     id="path2559-58"
     d="m 6.7151542,3.3735007 0.0457,0.02891 0.0131,0.04906 5e-4,0.04274 -0.0397,0.04138 -0.0284,0.02507 -0.0302,0.02255 -0.0251,0.0031 -0.0521,-0.01208 -0.0523,-0.02802"
     style="fill:none;stroke:#000000;stroke-width:0.03136386px;stroke-linecap:butt;stroke-linejoin:miter;stroke-opacity:1"
     inkscape:connector-curvature="0" />
  <path
     id="path2561-43"
     d="m 6.3067442,4.1163907 0.0846,-0.01098 0.0591,-0.0049 0.0716,0.01716 0.0577,0.03535 0.0433,0.04222 0.0369,0.05478 0.0188,0.08184"
     style="fill:none;stroke:#000000;stroke-width:0.03136386px;stroke-linecap:butt;stroke-linejoin:miter;stroke-opacity:1"
     inkscape:connector-curvature="0" />
  <path
     id="path2563-7"
     d="m 6.3877342,4.0834307 c 0.004,-0.0026 0.0301,-0.02011 0.0589,-0.03885 l 0.0524,-0.03408 0.004,-0.01277 c 0.002,-0.007 0.008,-0.02392 0.0126,-0.03755 l 0.008,-0.02478 0.0595,-0.05596 c 0.0327,-0.03078 0.0603,-0.05717 0.0613,-0.05865 0.003,-0.0048 -0.0298,-0.213274 -0.0348,-0.220197 -0.005,-0.0062 -0.004,-0.0063 0.0202,-0.002 0.0137,0.0025 0.0318,0.0036 0.0402,0.0025 0.0151,-0.0019 0.0157,-0.0023 0.0424,-0.02433 0.0149,-0.0123 0.0387,-0.03446 0.053,-0.04923 l 0.0259,-0.02686 -2.5e-4,-0.02434 c -1.2e-4,-0.01363 -0.004,-0.03767 -0.008,-0.05463 l -0.008,-0.03029 -0.0217,-0.01357 -0.0217,-0.01357 10e-4,-0.06849 0.002,-0.06849 -0.0187,-0.04025 -0.0187,-0.04025 0.004,-0.05608 c 0.004,-0.06044 0.0176,-0.126505 0.0272,-0.133591 0.003,-0.0021 0.017,-0.0099 0.0315,-0.01725 0.0238,-0.01214 0.03,-0.01658 0.0648,-0.04638 0.0247,-0.02112 0.0392,-0.0351 0.0404,-0.03893 0.0129,-0.04054 0.0216,-0.08464 0.0218,-0.110706 1.3e-4,-0.01636 0.002,-0.03016 0.004,-0.03067 0.002,-5.06e-4 0.009,-0.0029 0.0151,-0.0054 0.007,-0.0024 0.0177,-0.0047 0.0251,-0.0051 0.0112,-6e-4 0.0177,-0.0034 0.0409,-0.01731 0.0485,-0.02916 0.058,-0.0374 0.0696,-0.06046 0.009,-0.01828 0.0101,-0.02253 0.009,-0.04754 -7.2e-4,-0.0198 -0.003,-0.03324 -0.009,-0.04814 l -0.008,-0.02067 -0.0196,-0.01443 -0.0196,-0.01443 -0.0108,-0.09049 c -0.009,-0.07227 -0.0108,-0.104707 -0.0107,-0.161087 7e-5,-0.03883 2.5e-4,-0.07206 4.4e-4,-0.07386 1.9e-4,-0.0018 0.0199,-0.02465 0.0438,-0.05078 0.0434,-0.04738 0.0436,-0.04763 0.0935,-0.08478 l 0.05,-0.03727 0.0198,0.0067 c 0.0109,0.0037 0.0223,0.0074 0.0253,0.0083 0.004,0.0012 0.0167,-0.0053 0.0602,-0.03159 l 0.0547,-0.03315 0.0623,-0.01558 c 0.0579,-0.01449 0.0656,-0.01565 0.11046,-0.01652 0.0265,-5.12e-4 0.0494,-5.12e-4 0.0508,3e-6 0.001,5.07e-4 0.0125,0.01035 0.0245,0.02185 0.0325,0.03098 0.10173,0.07164 0.19815,0.116355 l 0.0761,0.03528 0.0366,0.0491 0.0366,0.0491 0.0209,0.0857 c 0.0381,0.156066 0.0466,0.196436 0.0495,0.23721 l 0.003,0.03892 -0.0199,0.07617 c -0.018,0.06874 -0.0215,0.07906 -0.0364,0.105732 l -0.0165,0.02956 -0.0309,0.01641 c -0.017,0.009 -0.0321,0.01615 -0.0334,0.01583 -0.0375,-0.0087 -0.14223,-0.04053 -0.1913,-0.05808 -0.0507,-0.01812 -0.0708,-0.02688 -0.0927,-0.04031 -0.0237,-0.01453 -0.0327,-0.01825 -0.0587,-0.0242 -0.0304,-0.007 -0.0309,-0.0069 -0.0481,7.55e-4 -0.01,0.0043 -0.0293,0.0131 -0.0438,0.01959 l -0.0264,0.01181 -0.0121,0.0223 c -0.007,0.01227 -0.0145,0.0301 -0.0173,0.03963 -0.007,0.02197 -0.009,0.0253 -0.0134,0.02102 -0.005,-0.0049 -0.002,0.137442 0.005,0.183117 0.005,0.03702 0.005,0.03709 -0.006,0.08209 l -0.011,0.04504 -0.0304,0.04495 c -0.0287,0.04237 -0.0317,0.04814 -0.0521,0.100547 -0.0212,0.0542 -0.0476,0.107053 -0.092,0.183782 l -0.0204,0.03525 -0.0185,-0.0041 c -0.0392,-0.0086 -0.0399,-0.0086 -0.0661,0.0042 l -0.0241,0.01176 -0.0219,0.02526 c -0.0181,0.02091 -0.0231,0.02863 -0.0289,0.04482 l -0.007,0.01956 0.0257,0.06071 c 0.0141,0.03339 0.0309,0.06876 0.0372,0.0786 0.0191,0.0298 0.0207,0.04054 0.0117,0.07651 -0.004,0.01714 -0.0157,0.056 -0.0254,0.08636 -0.01,0.03036 -0.0239,0.07767 -0.0316,0.105124 l -0.014,0.04993 -0.0315,0.04202 c -0.0302,0.04026 -0.0336,0.04388 -0.0812,0.08669 -0.0451,0.04058 -0.0533,0.04701 -0.0894,0.07021 -0.0576,0.037 -0.0614,0.04015 -0.0759,0.06329 -0.007,0.01111 -0.0133,0.02011 -0.0141,0.01999 -7.3e-4,-1.25e-4 -0.003,-0.009 -0.005,-0.0197 -0.004,-0.01736 -0.006,-0.02276 -0.024,-0.04952 -0.0278,-0.04181 -0.0552,-0.06845 -0.0971,-0.09463 -0.0284,-0.01776 -0.0343,-0.02018 -0.0696,-0.02873 -0.034,-0.0083 -0.0423,-0.009 -0.0717,-0.0065 -0.0397,0.0034 -0.0395,0.0034 -0.0313,-0.0026 z"
     style="fill:#008000;fill-opacity:1;stroke:none;stroke-width:0.0027722;stroke-opacity:0.02617804"
     inkscape:connector-curvature="0" />
  <path
     style="fill:url(#linearGradient30-0);fill-opacity:1;fill-rule:nonzero;stroke:#000000;stroke-width:0.00384468;stroke-miterlimit:4;stroke-dasharray:0.00384468, 0.00768936;stroke-dashoffset:0;stroke-opacity:0.96254536"
     d="m 6.4183442,4.0846957 c 0.0571,-0.0051 0.11933,0.01552 0.1746,0.05789 0.0357,0.0274 0.0828,0.0902 0.0893,0.119226 0.002,0.01073 0.005,0.01929 0.005,0.01902 3.1e-4,-2.5e-4 0.007,-0.0095 0.015,-0.02048 0.0129,-0.01779 0.0209,-0.02446 0.0724,-0.06046 0.0781,-0.05452 0.12526,-0.09728 0.16835,-0.152635 l 0.0332,-0.0426 0.033,-0.11012 c 0.0385,-0.128727 0.0458,-0.157632 0.0432,-0.173254 -0.001,-0.0063 -0.008,-0.02327 -0.0163,-0.03766 -0.008,-0.01439 -0.0253,-0.05157 -0.0387,-0.08261 l -0.0243,-0.05645 0.009,-0.02086 c 0.01,-0.02253 0.0376,-0.05819 0.0549,-0.07037 0.0245,-0.01728 0.0489,-0.02258 0.0775,-0.01682 l 0.0273,0.0055 0.0288,-0.05135 c 0.037,-0.0658 0.06,-0.112278 0.0794,-0.160047 0.0215,-0.05306 0.0302,-0.06971 0.0575,-0.110096 0.0131,-0.01937 0.0256,-0.04007 0.0278,-0.04599 0.01,-0.02681 0.0204,-0.0818 0.0188,-0.09782 -0.004,-0.03964 -0.01,-0.153982 -0.009,-0.178 4.4e-4,-0.01416 0.003,-0.02723 0.005,-0.02906 0.002,-0.0018 0.009,-0.01453 0.0137,-0.02822 0.005,-0.0137 0.0132,-0.03201 0.0181,-0.04069 l 0.009,-0.01579 0.0421,-0.01869 0.0421,-0.01869 0.0294,0.0052 c 0.0205,0.0036 0.0409,0.0113 0.0673,0.02544 0.0208,0.01114 0.0635,0.02921 0.0948,0.04015 0.0607,0.02122 0.17259,0.055 0.18411,0.0556 0.004,1.87e-4 0.0204,-0.0069 0.0368,-0.01587 l 0.0299,-0.01623 0.016,-0.03163 c 0.01,-0.01937 0.0236,-0.05949 0.0354,-0.103468 0.0261,-0.09677 0.0248,-0.111731 -0.0286,-0.331656 l -0.0245,-0.100915 -0.0376,-0.05042 -0.0376,-0.05042 -0.041,-0.01879 c -0.11397,-0.05227 -0.18589,-0.09312 -0.2274,-0.129131 -0.014,-0.01217 -0.0285,-0.02286 -0.0323,-0.02376 -0.0214,-0.0052 -0.10608,0.0041 -0.15977,0.01745 -0.0575,0.01433 -0.0597,0.01523 -0.11085,0.04569 -0.0287,0.01709 -0.0545,0.03172 -0.0573,0.03251 -0.003,7.9e-4 -0.015,-0.002 -0.0271,-0.0061 l -0.0219,-0.0075 -0.0519,0.0387 c -0.0455,0.03392 -0.0571,0.04443 -0.0939,0.08493 l -0.042,0.04623 6e-5,0.06061 c 6e-5,0.07222 0.002,0.101817 0.0127,0.194276 l 0.008,0.06995 0.02,0.01483 c 0.019,0.01413 0.0203,0.01576 0.0268,0.03489 0.004,0.01104 0.008,0.03165 0.009,0.04581 0.002,0.02105 1.2e-4,0.03029 -0.01,0.0507 l -0.0119,0.02496 -0.0344,0.02252 c -0.0369,0.02413 -0.0428,0.02682 -0.0799,0.03604 l -0.0241,0.006 -0.005,0.04431 c -0.003,0.02437 -0.008,0.05655 -0.0126,0.07152 -0.007,0.0239 -0.0101,0.0296 -0.028,0.0469 -0.0275,0.02664 -0.0624,0.05247 -0.0935,0.0692 -0.0256,0.01379 -0.0258,0.01398 -0.0309,0.03122 -0.008,0.02863 -0.0156,0.07575 -0.019,0.124116 l -0.003,0.04564 0.0187,0.04003 0.0187,0.04003 -0.002,0.06464 c -8.8e-4,0.03555 -10e-4,0.06662 -5e-4,0.06905 6.2e-4,0.0024 0.009,0.0095 0.0194,0.01571 0.01,0.0062 0.02,0.01361 0.0221,0.01644 0.005,0.0071 0.018,0.07834 0.017,0.09551 -6.8e-4,0.01218 -0.004,0.01736 -0.0264,0.03983 -0.0423,0.04267 -0.0775,0.07183 -0.0892,0.0738 -0.006,9.56e-4 -0.0228,9.4e-5 -0.0381,-0.0019 -0.0153,-0.002 -0.0277,-0.0027 -0.0276,-0.0016 1.2e-4,0.0011 0.005,0.02956 0.0113,0.06325 0.009,0.04893 0.0244,0.152667 0.0237,0.15851 -1.3e-4,6.8e-4 -0.0273,0.02689 -0.0604,0.05825 l -0.0603,0.05701 -0.0131,0.03816 -0.0131,0.03816 -0.0458,0.02948 c -0.0252,0.01621 -0.0499,0.03316 -0.0548,0.03766 -0.009,0.0081 -0.009,0.0082 0.0186,0.0057 z"
     id="path2581-13"
     inkscape:connector-curvature="0" />
</svg>
