<?xml version="1.0" encoding="UTF-8" standalone="no"?>
<svg
   xmlns:osb="http://www.openswatchbook.org/uri/2009/osb"
   xmlns:dc="http://purl.org/dc/elements/1.1/"
   xmlns:cc="http://creativecommons.org/ns#"
   xmlns:rdf="http://www.w3.org/1999/02/22-rdf-syntax-ns#"
   xmlns:svg="http://www.w3.org/2000/svg"
   xmlns="http://www.w3.org/2000/svg"
   xmlns:xlink="http://www.w3.org/1999/xlink"
   xmlns:sodipodi="http://sodipodi.sourceforge.net/DTD/sodipodi-0.dtd"
   xmlns:inkscape="http://www.inkscape.org/namespaces/inkscape"
   viewBox="0 0 160 250"
   height="250"
   width="160"
   id="svg815"
   version="1.1"
   sodipodi:docname="cups05.svg"
   inkscape:version="0.92.5 (2060ec1f9f, 2020-04-08)">
  <sodipodi:namedview
     pagecolor="#ffffff"
     bordercolor="#666666"
     borderopacity="1"
     objecttolerance="10"
     gridtolerance="10"
     guidetolerance="10"
     inkscape:pageopacity="0"
     inkscape:pageshadow="2"
     inkscape:window-width="1918"
     inkscape:window-height="1017"
     id="namedview7762"
     showgrid="false"
     inkscape:zoom="13.169302"
     inkscape:cx="58.787879"
     inkscape:cy="240.45455"
     inkscape:window-x="0"
     inkscape:window-y="0"
     inkscape:window-maximized="1"
     inkscape:current-layer="svg815"
     inkscape:snap-page="true" />
  <metadata
     id="metadata821">
    <rdf:RDF>
      <cc:Work
         rdf:about="">
        <dc:format>image/svg+xml</dc:format>
        <dc:type
           rdf:resource="http://purl.org/dc/dcmitype/StillImage" />
        <dc:title></dc:title>
      </cc:Work>
    </rdf:RDF>
  </metadata>
  <defs
     id="defs819">
    <linearGradient
       id="linearGradient3804"
       osb:paint="solid">
      <stop
         style="stop-color:#000000;stop-opacity:1;"
         offset="0"
         id="stop3802" />
    </linearGradient>
    <linearGradient
       gradientUnits="userSpaceOnUse"
       y2="71.008263"
       x2="88.849586"
       y1="58.644627"
       x1="82.105782"
       id="linearGradient1063"
       xlink:href="#linearGradient882"
       gradientTransform="matrix(0.0625,0,0,0.0625,89.999999,8.2080078e-7)" />
    <linearGradient
       id="linearGradient882">
      <stop
         style="stop-color:#d16208;stop-opacity:1"
         offset="0"
         id="stop878" />
      <stop
         style="stop-color:#d16250;stop-opacity:0;"
         offset="1"
         id="stop880" />
    </linearGradient>
    <linearGradient
       gradientUnits="userSpaceOnUse"
       y2="68.472336"
       x2="56.128345"
       y1="63.697319"
       x1="61.166279"
       id="linearGradient876"
       xlink:href="#linearGradient882"
       gradientTransform="matrix(0.0625,0,0,0.0625,89.999999,8.2080078e-7)" />
    <linearGradient
       xlink:href="#linearGradient846"
       id="linearGradient848"
       x1="72.37397"
       y1="53.171356"
       x2="72.19931"
       y2="45.564011"
       gradientUnits="userSpaceOnUse"
       gradientTransform="matrix(0.0625,0,0,0.0625,110,-2.6855469e-7)" />
    <linearGradient
       id="linearGradient846">
      <stop
         style="stop-color:#423abf;stop-opacity:1;"
         offset="0"
         id="stop842" />
      <stop
         style="stop-color:#423abf;stop-opacity:0;"
         offset="1"
         id="stop844" />
    </linearGradient>
  </defs>
  <flowRoot
     xml:space="preserve"
     id="flowRoot100"
     style="font-style:normal;font-variant:normal;font-weight:bold;font-stretch:normal;font-size:1px;line-height:1.25;font-family:'DejaVu Sans';-inkscape-font-specification:'DejaVu Sans Bold';letter-spacing:0px;word-spacing:0px;fill:#000000;fill-opacity:1;stroke:none;stroke-width:0.0625"><flowRegion
       style="stroke-width:0.0625"
       id="flowRegion102"><rect
         style="stroke-width:0.00390625"
         id="rect104"
         width="1.5151515"
         height="1.3636364"
         x="0.66287881"
         y="0.73863637" /></flowRegion><flowPara
       style="stroke-width:0.0625"
       id="flowPara106" /></flowRoot>  <rect
     style="fill:#ffffff;fill-opacity:1;stroke:#1a1a1a;stroke-width:0.0625;stroke-opacity:1"
     id="cups05"
     width="10"
     height="15.625"
     x="-0.017305925"
     y="0" />
  <rect
     style="fill:none;fill-opacity:1;stroke:#1a1a1a;stroke-width:0.0625;stroke-opacity:1"
     id="rect108-4"
     width="7.2537889"
     height="12.973484"
     x="1.3273901"
     y="1.306818" />
  <g
     id="flowRoot915-7"
     style="font-style:normal;font-variant:normal;font-weight:bold;font-stretch:normal;font-size:16px;line-height:1.25;font-family:'DejaVu Sans';-inkscape-font-specification:'DejaVu Sans Bold';text-align:start;letter-spacing:0px;word-spacing:0px;text-anchor:start;fill:#000000;fill-opacity:1;stroke:none"
     transform="matrix(0.0625,0,0,0.0625,0.17208607,-3.3007814e-7)"
     aria-label="5">
    <path
       id="path5309"
       d="M 4.7265625,7.0371094 H 12.203125 V 9.2480469 H 7.125 v 1.8046871 q 0.34375,-0.09375 0.6875,-0.140625 0.3515625,-0.05469 0.7265625,-0.05469 2.1328125,0 3.3203125,1.070312 1.1875,1.0625 1.1875,2.96875 0,1.890625 -1.296875,2.960938 -1.289062,1.070312 -3.5859375,1.070312 -0.9921875,0 -1.96875,-0.195312 -0.96875,-0.1875 -1.9296875,-0.578125 v -2.367188 q 0.953125,0.546875 1.8046875,0.820313 0.859375,0.273437 1.6171875,0.273437 1.09375,0 1.71875,-0.53125 0.632813,-0.539062 0.632813,-1.453125 0,-0.921875 -0.632813,-1.453125 -0.625,-0.53125 -1.71875,-0.53125 -0.6484375,0 -1.3828125,0.171875 -0.734375,0.164063 -1.578125,0.515625 z"
       inkscape:connector-curvature="0" />
  </g>
  <path
     id="path1422-9"
     d="m 4.5834361,5.3114697 a 1.3457631,0.39615535 0 0 1 -1.345763,0.396155 1.3457631,0.39615535 0 0 1 -1.345764,-0.396155 1.3457631,0.39615535 0 0 1 1.345764,-0.396156 1.3457631,0.39615535 0 0 1 1.345763,0.396156 z"
     style="fill:#000080;fill-opacity:1;stroke:#000000;stroke-width:0.06418993;stroke-opacity:0.22110554"
     inkscape:connector-curvature="0" />
  <path
     id="path1430-39"
     d="m 4.5133381,5.1170037 v 0.06859 l -0.04599,-0.0351 z"
     style="fill:#0085a6;fill-opacity:1;stroke:#000080;stroke-width:0.06418993;stroke-opacity:1"
     inkscape:connector-curvature="0" />
  <path
     id="path1428-2"
     d="m 1.9576781,5.1146587 0.0019,0.07353 0.04838,-0.03741 z"
     style="fill:#000080;fill-opacity:1;stroke:#000080;stroke-width:0.06418993;stroke-opacity:1"
     inkscape:connector-curvature="0" />
  <ellipse
     style="fill:#ffff00;fill-opacity:1;stroke:#000000;stroke-width:0.0299283;stroke-opacity:0.36180905"
     id="path74-8"
     cx="3.2992225"
     cy="3.2058926"
     rx="1.4454892"
     ry="0.51424891" />
  <ellipse
     style="fill:#ff0000;fill-opacity:1;stroke:#000000;stroke-width:0.06418993;stroke-opacity:0.35175883"
     id="path76-30"
     cx="3.2882819"
     cy="3.1876564"
     rx="1.2862301"
     ry="0.41091281" />
  <path
     style="fill:#008000;fill-opacity:1;stroke:#000000;stroke-width:0.06418993;stroke-opacity:0.16582917"
     d="m 1.8440081,3.2460107 0.09239,0.141024 0.106984,0.08267 0.179926,0.08267 0.1702,0.05835 0.277184,0.05349 0.238281,0.04377 0.228555,0.01945 h 0.194515 0.233418 l 0.213966,-0.02918 0.21883,-0.02918 0.189652,-0.06322 0.209103,-0.07294 0.194515,-0.08267 0.131298,-0.126434 0.02432,-0.09726 -0.01945,0.369578 -0.02918,0.131298 -0.06322,0.141023 -0.08753,0.08267 -0.06322,0.07294 -0.141023,0.09726 -0.165338,0.07781 -0.141024,0.05835 -0.123425,0.04377 -0.101811,0.02308 -0.102663,0.03532 -0.07096,0.03886 -0.06968,0.04863 -0.567263,-0.0049 -0.04292,-0.04801 -0.07078,-0.04407 -0.08714,-0.03103 -0.07634,-0.02763 -0.131298,-0.03404 -0.06808,-0.0389 -0.179926,-0.08753 -0.106984,-0.07781 -0.155612,-0.106983 -0.06322,-0.09239 -0.07294,-0.07781 -0.03404,-0.08267 -0.02918,-0.121572 -0.02432,-0.141023 -0.01459,-0.09239 z"
     id="path80-1"
     inkscape:connector-curvature="0" />
  <rect
     style="fill:#0088aa;fill-opacity:1;stroke:#000000;stroke-width:0.06418993;stroke-opacity:0.20100505"
     id="rect87-7"
     width="0.56577617"
     height="0.18458806"
     x="3.0013709"
     y="4.4422779" />
  <path
     id="path1424-8"
     d="m 4.5450821,5.0238777 v 0.323008"
     style="fill:#008000;fill-opacity:1;stroke:#000080;stroke-width:0.06436849;stroke-opacity:0.26633169"
     inkscape:connector-curvature="0" />
  <path
     id="path1426-9"
     d="m 1.9246411,5.0013727 0.0048,0.326013"
     style="fill:#0085a6;fill-opacity:1;stroke:#000080;stroke-width:0.06418993;stroke-opacity:0.32160806"
     inkscape:connector-curvature="0" />
  <path
     style="fill:#0088aa;fill-opacity:1;stroke:#000000;stroke-width:0.06418993;stroke-opacity:0.18592966"
     d="m 4.5834361,4.9902507 a 1.3457631,0.39615535 0 0 1 -1.345763,0.396156 1.3457631,0.39615535 0 0 1 -1.345764,-0.396156 1.3457631,0.39615535 0 0 1 1.345764,-0.396155 1.3457631,0.39615535 0 0 1 1.345763,0.396155 z"
     id="path84-1"
     inkscape:connector-curvature="0" />
  <path
     style="fill:#000080;fill-opacity:1;stroke:#000000;stroke-width:0.06418993;stroke-opacity:0.22110554"
     d="m 7.8328601,5.3114697 a 1.3457631,0.39615535 0 0 1 -1.345764,0.396155 1.3457631,0.39615535 0 0 1 -1.345763,-0.396155 1.3457631,0.39615535 0 0 1 1.345763,-0.396156 1.3457631,0.39615535 0 0 1 1.345764,0.396156 z"
     id="path3996-5"
     inkscape:connector-curvature="0" />
  <path
     style="fill:#0085a6;fill-opacity:1;stroke:#000080;stroke-width:0.06418993;stroke-opacity:1"
     d="m 7.7627611,5.1170037 v 0.06859 l -0.04599,-0.0351 z"
     id="path3998-4"
     inkscape:connector-curvature="0" />
  <path
     style="fill:#000080;fill-opacity:1;stroke:#000080;stroke-width:0.06418993;stroke-opacity:1"
     d="m 5.2071011,5.1146587 0.0019,0.07353 0.04838,-0.03741 z"
     id="path4000-9"
     inkscape:connector-curvature="0" />
  <ellipse
     ry="0.51424891"
     rx="1.4454892"
     cy="3.2058926"
     cx="6.5486465"
     id="ellipse4002-2"
     style="fill:#ffff00;fill-opacity:1;stroke:#000000;stroke-width:0.0299283;stroke-opacity:0.36180905" />
  <ellipse
     ry="0.41091281"
     rx="1.2862301"
     cy="3.1876564"
     cx="6.5377059"
     id="ellipse4004-5"
     style="fill:#ff0000;fill-opacity:1;stroke:#000000;stroke-width:0.06418993;stroke-opacity:0.35175883" />
  <path
     id="path4006-7"
     d="m 5.0934311,3.2460107 0.0924,0.141024 0.106983,0.08267 0.179926,0.08267 0.170201,0.05835 0.277183,0.05349 0.238282,0.04377 0.228555,0.01945 h 0.194514 0.233418 l 0.213966,-0.02918 0.21883,-0.02918 0.189652,-0.06322 0.209104,-0.07294 0.194515,-0.08267 0.131298,-0.126434 0.02432,-0.09726 -0.01945,0.369578 -0.02918,0.131298 -0.06322,0.141023 -0.08753,0.08267 -0.06322,0.07294 -0.141023,0.09726 -0.165338,0.07781 -0.141023,0.05835 -0.123426,0.04377 -0.101811,0.02308 -0.102662,0.03532 -0.07096,0.03886 -0.06968,0.04863 -0.567263,-0.0049 -0.04292,-0.04801 -0.07078,-0.04407 -0.08714,-0.03103 -0.07634,-0.02763 -0.131298,-0.03404 -0.06808,-0.0389 -0.179926,-0.08753 -0.106983,-0.07781 -0.155612,-0.106983 -0.06322,-0.09239 -0.07294,-0.07781 -0.03404,-0.08267 -0.02918,-0.121572 -0.02431,-0.141023 -0.01459,-0.09239 z"
     style="fill:#008000;fill-opacity:1;stroke:#000000;stroke-width:0.06418993;stroke-opacity:0.16582917"
     inkscape:connector-curvature="0" />
  <rect
     y="4.4422779"
     x="6.2507949"
     height="0.18458806"
     width="0.56577617"
     id="rect4008-4"
     style="fill:#0088aa;fill-opacity:1;stroke:#000000;stroke-width:0.06418993;stroke-opacity:0.20100505" />
  <path
     style="fill:#008000;fill-opacity:1;stroke:#000080;stroke-width:0.06436849;stroke-opacity:0.26633169"
     d="m 7.7945051,5.0238777 v 0.323008"
     id="path4010-9"
     inkscape:connector-curvature="0" />
  <path
     style="fill:#0085a6;fill-opacity:1;stroke:#000080;stroke-width:0.06418993;stroke-opacity:0.32160806"
     d="m 5.1740641,5.0013727 0.0048,0.326013"
     id="path4012-9"
     inkscape:connector-curvature="0" />
  <path
     id="path4014-4"
     d="m 7.8328601,4.9902507 a 1.3457631,0.39615535 0 0 1 -1.345764,0.396156 1.3457631,0.39615535 0 0 1 -1.345763,-0.396156 1.3457631,0.39615535 0 0 1 1.345763,-0.396155 1.3457631,0.39615535 0 0 1 1.345764,0.396155 z"
     style="fill:#0088aa;fill-opacity:1;stroke:#000000;stroke-width:0.06418993;stroke-opacity:0.18592966"
     inkscape:connector-curvature="0" />
  <path
     style="fill:#000080;fill-opacity:1;stroke:#000000;stroke-width:0.06418993;stroke-opacity:0.22110554"
     d="m 4.5834361,12.552469 a 1.3457631,0.39615535 0 0 1 -1.345763,0.396155 1.3457631,0.39615535 0 0 1 -1.345764,-0.396155 1.3457631,0.39615535 0 0 1 1.345764,-0.396156 1.3457631,0.39615535 0 0 1 1.345763,0.396156 z"
     id="path4016-5"
     inkscape:connector-curvature="0" />
  <path
     style="fill:#0085a6;fill-opacity:1;stroke:#000080;stroke-width:0.06418993;stroke-opacity:1"
     d="m 4.5133381,12.358003 v 0.06859 l -0.04599,-0.0351 z"
     id="path4018-9"
     inkscape:connector-curvature="0" />
  <path
     style="fill:#000080;fill-opacity:1;stroke:#000080;stroke-width:0.06418993;stroke-opacity:1"
     d="m 1.9576781,12.355657 0.0019,0.07354 0.04838,-0.03741 z"
     id="path4020-3"
     inkscape:connector-curvature="0" />
  <ellipse
     ry="0.51424891"
     rx="1.4454892"
     cy="10.446892"
     cx="3.2992225"
     id="ellipse4022-5"
     style="fill:#ffff00;fill-opacity:1;stroke:#000000;stroke-width:0.0299283;stroke-opacity:0.36180905" />
  <ellipse
     ry="0.41091281"
     rx="1.2862301"
     cy="10.428654"
     cx="3.2882819"
     id="ellipse4024-7"
     style="fill:#ff0000;fill-opacity:1;stroke:#000000;stroke-width:0.06418993;stroke-opacity:0.35175883" />
  <path
     id="path4026-0"
     d="m 1.8440081,10.48701 0.09239,0.141024 0.106984,0.08267 0.179926,0.08267 0.1702,0.05835 0.277184,0.05349 0.238281,0.04377 0.228555,0.01945 h 0.194515 0.233418 l 0.213966,-0.02918 0.21883,-0.02918 0.189652,-0.06322 0.209103,-0.07294 0.194515,-0.08267 0.131298,-0.126434 0.02432,-0.09726 -0.01945,0.369578 -0.02918,0.131298 -0.06322,0.141023 -0.08753,0.08267 -0.06322,0.07294 -0.141023,0.09726 -0.165338,0.07781 -0.141024,0.05836 -0.123425,0.04377 -0.101811,0.02308 -0.102663,0.03532 -0.07096,0.03886 -0.06968,0.04863 -0.567263,-0.0049 -0.04292,-0.04801 -0.07078,-0.04407 -0.08714,-0.03103 -0.07634,-0.02763 -0.131298,-0.03404 -0.06808,-0.0389 -0.179926,-0.08753 -0.106984,-0.07781 -0.155612,-0.106983 -0.06322,-0.09239 -0.07294,-0.07781 -0.03404,-0.08267 -0.02918,-0.121572 -0.02432,-0.141023 -0.01459,-0.09239 z"
     style="fill:#008000;fill-opacity:1;stroke:#000000;stroke-width:0.06418993;stroke-opacity:0.16582917"
     inkscape:connector-curvature="0" />
  <rect
     y="11.683277"
     x="3.0013709"
     height="0.18458806"
     width="0.56577617"
     id="rect4028-8"
     style="fill:#0088aa;fill-opacity:1;stroke:#000000;stroke-width:0.06418993;stroke-opacity:0.20100505" />
  <path
     style="fill:#008000;fill-opacity:1;stroke:#000080;stroke-width:0.06436849;stroke-opacity:0.26633169"
     d="m 4.5450821,12.264877 v 0.323008"
     id="path4030-1"
     inkscape:connector-curvature="0" />
  <path
     style="fill:#0085a6;fill-opacity:1;stroke:#000080;stroke-width:0.06418993;stroke-opacity:0.32160806"
     d="m 1.9246411,12.242372 0.0048,0.326013"
     id="path4032-9"
     inkscape:connector-curvature="0" />
  <path
     id="path4034-9"
     d="m 4.5834361,12.23125 a 1.3457631,0.39615535 0 0 1 -1.345763,0.396156 1.3457631,0.39615535 0 0 1 -1.345764,-0.396156 1.3457631,0.39615535 0 0 1 1.345764,-0.396155 1.3457631,0.39615535 0 0 1 1.345763,0.396155 z"
     style="fill:#0088aa;fill-opacity:1;stroke:#000000;stroke-width:0.06418993;stroke-opacity:0.18592966"
     inkscape:connector-curvature="0" />
  <path
     id="path4036-7"
     d="m 7.8328601,12.552469 a 1.3457631,0.39615535 0 0 1 -1.345764,0.396155 1.3457631,0.39615535 0 0 1 -1.345763,-0.396155 1.3457631,0.39615535 0 0 1 1.345763,-0.396156 1.3457631,0.39615535 0 0 1 1.345764,0.396156 z"
     style="fill:#000080;fill-opacity:1;stroke:#000000;stroke-width:0.06418993;stroke-opacity:0.22110554"
     inkscape:connector-curvature="0" />
  <path
     id="path4038-8"
     d="m 7.7627611,12.358003 v 0.06859 l -0.04599,-0.0351 z"
     style="fill:#0085a6;fill-opacity:1;stroke:#000080;stroke-width:0.06418993;stroke-opacity:1"
     inkscape:connector-curvature="0" />
  <path
     id="path4040-2"
     d="m 5.2071011,12.355657 0.0019,0.07354 0.04838,-0.03741 z"
     style="fill:#000080;fill-opacity:1;stroke:#000080;stroke-width:0.06418993;stroke-opacity:1"
     inkscape:connector-curvature="0" />
  <ellipse
     style="fill:#ffff00;fill-opacity:1;stroke:#000000;stroke-width:0.0299283;stroke-opacity:0.36180905"
     id="ellipse4042-5"
     cx="6.5486465"
     cy="10.446892"
     rx="1.4454892"
     ry="0.51424891" />
  <ellipse
     style="fill:#ff0000;fill-opacity:1;stroke:#000000;stroke-width:0.06418993;stroke-opacity:0.35175883"
     id="ellipse4044-3"
     cx="6.5377059"
     cy="10.428654"
     rx="1.2862301"
     ry="0.41091281" />
  <path
     style="fill:#008000;fill-opacity:1;stroke:#000000;stroke-width:0.06418993;stroke-opacity:0.16582917"
     d="m 5.0934311,10.48701 0.0924,0.141024 0.106983,0.08267 0.179926,0.08267 0.170201,0.05835 0.277183,0.05349 0.238282,0.04377 0.228555,0.01945 h 0.194514 0.233418 l 0.213966,-0.02918 0.21883,-0.02918 0.189652,-0.06322 0.209104,-0.07294 0.194515,-0.08267 0.131298,-0.126434 0.02432,-0.09726 -0.01945,0.369578 -0.02918,0.131298 -0.06322,0.141023 -0.08753,0.08267 -0.06322,0.07294 -0.141023,0.09726 -0.165338,0.07781 -0.141023,0.05836 -0.123426,0.04377 -0.101811,0.02308 -0.102662,0.03532 -0.07096,0.03886 -0.06968,0.04863 -0.567263,-0.0049 -0.04292,-0.04801 -0.07078,-0.04407 -0.08714,-0.03103 -0.07634,-0.02763 -0.131298,-0.03404 -0.06808,-0.0389 -0.179926,-0.08753 -0.106983,-0.07781 -0.155612,-0.106983 -0.06322,-0.09239 -0.07294,-0.07781 -0.03404,-0.08267 -0.02918,-0.121572 -0.02431,-0.141023 -0.01459,-0.09239 z"
     id="path4046-4"
     inkscape:connector-curvature="0" />
  <rect
     style="fill:#0088aa;fill-opacity:1;stroke:#000000;stroke-width:0.06418993;stroke-opacity:0.20100505"
     id="rect4048-9"
     width="0.56577617"
     height="0.18458806"
     x="6.2507949"
     y="11.683277" />
  <path
     id="path4050-0"
     d="m 7.7945051,12.264877 v 0.323008"
     style="fill:#008000;fill-opacity:1;stroke:#000080;stroke-width:0.06436849;stroke-opacity:0.26633169"
     inkscape:connector-curvature="0" />
  <path
     id="path4052-2"
     d="m 5.1740641,12.242372 0.0048,0.326013"
     style="fill:#0085a6;fill-opacity:1;stroke:#000080;stroke-width:0.06418993;stroke-opacity:0.32160806"
     inkscape:connector-curvature="0" />
  <path
     style="fill:#0088aa;fill-opacity:1;stroke:#000000;stroke-width:0.06418993;stroke-opacity:0.18592966"
     d="m 7.8328601,12.23125 a 1.3457631,0.39615535 0 0 1 -1.345764,0.396156 1.3457631,0.39615535 0 0 1 -1.345763,-0.396156 1.3457631,0.39615535 0 0 1 1.345763,-0.396155 1.3457631,0.39615535 0 0 1 1.345764,0.396155 z"
     id="path4054-0"
     inkscape:connector-curvature="0" />
  <path
     style="fill:#000080;fill-opacity:1;stroke:#000000;stroke-width:0.06418993;stroke-opacity:0.22110554"
     d="m 6.3084381,8.9419977 a 1.3457631,0.39615535 0 0 1 -1.345763,0.396156 1.3457631,0.39615535 0 0 1 -1.345763,-0.396156 1.3457631,0.39615535 0 0 1 1.345763,-0.396155 1.3457631,0.39615535 0 0 1 1.345763,0.396155 z"
     id="path4075"
     inkscape:connector-curvature="0" />
  <path
     style="fill:#0085a6;fill-opacity:1;stroke:#000080;stroke-width:0.06418993;stroke-opacity:1"
     d="m 6.2383401,8.7475317 v 0.06859 l -0.04599,-0.0351 z"
     id="path4077"
     inkscape:connector-curvature="0" />
  <path
     style="fill:#000080;fill-opacity:1;stroke:#000080;stroke-width:0.06418993;stroke-opacity:1"
     d="m 3.6826801,8.7451867 0.0019,0.07354 0.04838,-0.03741 z"
     id="path4079"
     inkscape:connector-curvature="0" />
  <ellipse
     ry="0.51424891"
     rx="1.4454892"
     cy="6.8364201"
     cx="5.0242248"
     id="ellipse4081"
     style="fill:#ffff00;fill-opacity:1;stroke:#000000;stroke-width:0.0299283;stroke-opacity:0.36180905" />
  <ellipse
     ry="0.41091281"
     rx="1.2862301"
     cy="6.8181839"
     cx="5.0132842"
     id="ellipse4083"
     style="fill:#ff0000;fill-opacity:1;stroke:#000000;stroke-width:0.06418993;stroke-opacity:0.35175883" />
  <path
     id="path4085"
     d="m 3.5690101,6.8765397 0.09239,0.141024 0.106983,0.08267 0.179926,0.08267 0.170201,0.05835 0.277183,0.05349 0.238282,0.04377 0.228555,0.01945 h 0.194514 0.233418 l 0.213967,-0.02918 0.218829,-0.02918 0.189652,-0.06322 0.209103,-0.07294 0.194516,-0.08267 0.131297,-0.126434 0.02432,-0.09726 -0.01945,0.369578 -0.02918,0.131298 -0.06322,0.141023 -0.08753,0.08267 -0.06322,0.07294 -0.141023,0.09726 -0.165339,0.07781 -0.141023,0.05836 -0.123426,0.04377 -0.101811,0.02308 -0.102663,0.03532 -0.07095,0.03886 -0.06968,0.04863 -0.567263,-0.0049 -0.04292,-0.04801 -0.07078,-0.04408 -0.08714,-0.03103 -0.07634,-0.02763 -0.131297,-0.03404 -0.06808,-0.0389 -0.179926,-0.08753 -0.106983,-0.07781 -0.155612,-0.106983 -0.06322,-0.09239 -0.07294,-0.07781 -0.03404,-0.08267 -0.02918,-0.121572 -0.02431,-0.141024 -0.01459,-0.09239 z"
     style="fill:#008000;fill-opacity:1;stroke:#000000;stroke-width:0.06418993;stroke-opacity:0.16582917"
     inkscape:connector-curvature="0" />
  <rect
     y="8.0728073"
     x="4.7263732"
     height="0.18458806"
     width="0.56577617"
     id="rect4087"
     style="fill:#0088aa;fill-opacity:1;stroke:#000000;stroke-width:0.06418993;stroke-opacity:0.20100505" />
  <path
     style="fill:#008000;fill-opacity:1;stroke:#000080;stroke-width:0.06436849;stroke-opacity:0.26633169"
     d="m 6.2700841,8.6544067 v 0.323007"
     id="path4089"
     inkscape:connector-curvature="0" />
  <path
     style="fill:#0085a6;fill-opacity:1;stroke:#000080;stroke-width:0.06418993;stroke-opacity:0.32160806"
     d="m 3.6496431,8.6319017 0.0048,0.326012"
     id="path4091"
     inkscape:connector-curvature="0" />
  <path
     id="path4093"
     d="m 6.3084381,8.6207797 a 1.3457631,0.39615535 0 0 1 -1.345763,0.396155 1.3457631,0.39615535 0 0 1 -1.345763,-0.396155 1.3457631,0.39615535 0 0 1 1.345763,-0.396156 1.3457631,0.39615535 0 0 1 1.345763,0.396156 z"
     style="fill:#0088aa;fill-opacity:1;stroke:#000000;stroke-width:0.06418993;stroke-opacity:0.18592966"
     inkscape:connector-curvature="0" />
</svg>
