<?xml version="1.0" encoding="UTF-8" standalone="no"?>
<svg
   xmlns:osb="http://www.openswatchbook.org/uri/2009/osb"
   xmlns:dc="http://purl.org/dc/elements/1.1/"
   xmlns:cc="http://creativecommons.org/ns#"
   xmlns:rdf="http://www.w3.org/1999/02/22-rdf-syntax-ns#"
   xmlns:svg="http://www.w3.org/2000/svg"
   xmlns="http://www.w3.org/2000/svg"
   xmlns:xlink="http://www.w3.org/1999/xlink"
   xmlns:sodipodi="http://sodipodi.sourceforge.net/DTD/sodipodi-0.dtd"
   xmlns:inkscape="http://www.inkscape.org/namespaces/inkscape"
   viewBox="0 0 160 250"
   height="250"
   width="160"
   id="svg815"
   version="1.1"
   sodipodi:docname="cups06.svg"
   inkscape:version="0.92.5 (2060ec1f9f, 2020-04-08)">
  <sodipodi:namedview
     pagecolor="#ffffff"
     bordercolor="#666666"
     borderopacity="1"
     objecttolerance="10"
     gridtolerance="10"
     guidetolerance="10"
     inkscape:pageopacity="0"
     inkscape:pageshadow="2"
     inkscape:window-width="1918"
     inkscape:window-height="1017"
     id="namedview7762"
     showgrid="false"
     inkscape:zoom="12.473128"
     inkscape:cx="57.272727"
     inkscape:cy="237.72727"
     inkscape:window-x="0"
     inkscape:window-y="0"
     inkscape:window-maximized="1"
     inkscape:current-layer="svg815"
     inkscape:snap-page="true" />
  <metadata
     id="metadata821">
    <rdf:RDF>
      <cc:Work
         rdf:about="">
        <dc:format>image/svg+xml</dc:format>
        <dc:type
           rdf:resource="http://purl.org/dc/dcmitype/StillImage" />
        <dc:title></dc:title>
      </cc:Work>
    </rdf:RDF>
  </metadata>
  <defs
     id="defs819">
    <linearGradient
       id="linearGradient3804"
       osb:paint="solid">
      <stop
         style="stop-color:#000000;stop-opacity:1;"
         offset="0"
         id="stop3802" />
    </linearGradient>
    <linearGradient
       gradientUnits="userSpaceOnUse"
       y2="71.008263"
       x2="88.849586"
       y1="58.644627"
       x1="82.105782"
       id="linearGradient1063"
       xlink:href="#linearGradient882"
       gradientTransform="matrix(0.0625,0,0,0.0625,89.999999,8.2080078e-7)" />
    <linearGradient
       id="linearGradient882">
      <stop
         style="stop-color:#d16208;stop-opacity:1"
         offset="0"
         id="stop878" />
      <stop
         style="stop-color:#d16250;stop-opacity:0;"
         offset="1"
         id="stop880" />
    </linearGradient>
    <linearGradient
       gradientUnits="userSpaceOnUse"
       y2="68.472336"
       x2="56.128345"
       y1="63.697319"
       x1="61.166279"
       id="linearGradient876"
       xlink:href="#linearGradient882"
       gradientTransform="matrix(0.0625,0,0,0.0625,89.999999,8.2080078e-7)" />
    <linearGradient
       xlink:href="#linearGradient846"
       id="linearGradient848"
       x1="72.37397"
       y1="53.171356"
       x2="72.19931"
       y2="45.564011"
       gradientUnits="userSpaceOnUse"
       gradientTransform="matrix(0.0625,0,0,0.0625,110,-2.6855469e-7)" />
    <linearGradient
       id="linearGradient846">
      <stop
         style="stop-color:#423abf;stop-opacity:1;"
         offset="0"
         id="stop842" />
      <stop
         style="stop-color:#423abf;stop-opacity:0;"
         offset="1"
         id="stop844" />
    </linearGradient>
  </defs>
  <flowRoot
     xml:space="preserve"
     id="flowRoot100"
     style="font-style:normal;font-variant:normal;font-weight:bold;font-stretch:normal;font-size:1px;line-height:1.25;font-family:'DejaVu Sans';-inkscape-font-specification:'DejaVu Sans Bold';letter-spacing:0px;word-spacing:0px;fill:#000000;fill-opacity:1;stroke:none;stroke-width:0.0625"><flowRegion
       style="stroke-width:0.0625"
       id="flowRegion102"><rect
         style="stroke-width:0.00390625"
         id="rect104"
         width="1.5151515"
         height="1.3636364"
         x="0.66287881"
         y="0.73863637" /></flowRegion><flowPara
       style="stroke-width:0.0625"
       id="flowPara106" /></flowRoot>  <rect
     style="fill:#ffffff;fill-opacity:1;stroke:#1a1a1a;stroke-width:0.0625;stroke-opacity:1"
     id="cups06"
     width="10"
     height="15.625"
     x="-0.027548209"
     y="0" />
  <rect
     style="fill:none;fill-opacity:1;stroke:#1a1a1a;stroke-width:0.0625;stroke-opacity:1"
     id="rect108-9"
     width="7.2537889"
     height="12.973484"
     x="1.3171479"
     y="1.306818" />
  <g
     id="flowRoot915-62"
     style="font-style:normal;font-variant:normal;font-weight:bold;font-stretch:normal;font-size:16px;line-height:1.25;font-family:'DejaVu Sans';-inkscape-font-specification:'DejaVu Sans Bold';text-align:start;letter-spacing:0px;word-spacing:0px;text-anchor:start;fill:#000000;fill-opacity:1;stroke:none"
     transform="matrix(0.0625,0,0,0.0625,0.16184679,-3.0029298e-7)"
     aria-label="6">
    <path
       id="path5686"
       d="m 8.8203125,12.943359 q -0.7890625,0 -1.1875,0.515625 -0.390625,0.507813 -0.390625,1.53125 0,1.023438 0.390625,1.539063 0.3984375,0.507812 1.1875,0.507812 0.796875,0 1.1875005,-0.507812 0.398437,-0.515625 0.398437,-1.539063 0,-1.023437 -0.398437,-1.53125 Q 9.6171875,12.943359 8.8203125,12.943359 Z M 12.539063,7.3417969 v 2.15625 q -0.742188,-0.3515625 -1.398438,-0.515625 -0.65625,-0.171875 -1.28125,-0.171875 -1.34375,0 -2.09375,0.75 -0.75,0.7421871 -0.875,2.2109371 0.515625,-0.382812 1.1171875,-0.570312 0.6015625,-0.195313 1.3125,-0.195313 1.7890625,0 2.8828125,1.046875 1.101563,1.046875 1.101563,2.742188 0,1.875 -1.226563,3.007812 -1.226562,1.125 -3.2890625,1.125 -2.2734375,0 -3.5234375,-1.53125 -1.2421875,-1.539062 -1.2421875,-4.359375 0,-2.890625 1.453125,-4.5390621 1.4609375,-1.65625 4,-1.65625 0.8046875,0 1.5625005,0.125 0.757812,0.125 1.5,0.375 z"
       inkscape:connector-curvature="0" />
  </g>
  <path
     id="path1422-1"
     d="m 4.5616128,4.3567327 a 1.3498777,0.39736658 0 0 1 -1.349878,0.397367 1.3498777,0.39736658 0 0 1 -1.349878,-0.397367 1.3498777,0.39736658 0 0 1 1.349878,-0.397366 1.3498777,0.39736658 0 0 1 1.349878,0.397366 z"
     style="fill:#000080;fill-opacity:1;stroke:#000000;stroke-width:0.06438619;stroke-opacity:0.22110554"
     inkscape:connector-curvature="0" />
  <path
     id="path1430-2"
     d="m 4.4912998,4.1616727 v 0.0688 l -0.04613,-0.03521 z"
     style="fill:#0085a6;fill-opacity:1;stroke:#000080;stroke-width:0.06438619;stroke-opacity:1"
     inkscape:connector-curvature="0" />
  <path
     id="path1428-07"
     d="m 1.9278268,4.1593197 0.0019,0.07376 0.04853,-0.03753 z"
     style="fill:#000080;fill-opacity:1;stroke:#000080;stroke-width:0.06438619;stroke-opacity:1"
     inkscape:connector-curvature="0" />
  <ellipse
     style="fill:#ffff00;fill-opacity:1;stroke:#000000;stroke-width:0.0300198;stroke-opacity:0.36180905"
     id="path74-31"
     cx="3.2734694"
     cy="2.2447186"
     rx="1.4499086"
     ry="0.51582122" />
  <ellipse
     style="fill:#ff0000;fill-opacity:1;stroke:#000000;stroke-width:0.06438619;stroke-opacity:0.35175883"
     id="path76-1"
     cx="3.2624984"
     cy="2.2264261"
     rx="1.2901627"
     ry="0.41216916" />
  <path
     style="fill:#008000;fill-opacity:1;stroke:#000000;stroke-width:0.06438619;stroke-opacity:0.16582917"
     d="m 1.8138088,2.2849597 0.09268,0.141455 0.107311,0.08292 0.180476,0.08292 0.170721,0.05853 0.278031,0.05366 0.23901,0.0439 0.229253,0.01951 h 0.19511 0.234132 l 0.21462,-0.02927 0.219498,-0.02927 0.190233,-0.06341 0.209742,-0.07317 0.19511,-0.08292 0.131699,-0.126821 0.02439,-0.09755 -0.01951,0.370708 -0.02927,0.131699 -0.06341,0.141455 -0.0878,0.08292 -0.06341,0.07317 -0.141454,0.09755 -0.165844,0.07804 -0.141455,0.05853 -0.123803,0.0439 -0.102122,0.02315 -0.102977,0.03543 -0.07117,0.03898 -0.06989,0.04878 -0.568998,-0.0049 -0.04305,-0.04816 -0.071,-0.04421 -0.08741,-0.03113 -0.07658,-0.02772 -0.131699,-0.03414 -0.06829,-0.03902 -0.180477,-0.0878 -0.10731,-0.07804 -0.156088,-0.10731 -0.06341,-0.09268 -0.07317,-0.07804 -0.03414,-0.08292 -0.02927,-0.121944 -0.02439,-0.141454 -0.01463,-0.09268 z"
     id="path80-9"
     inkscape:connector-curvature="0" />
  <rect
     style="fill:#0088aa;fill-opacity:1;stroke:#000000;stroke-width:0.06438619;stroke-opacity:0.20100505"
     id="rect87-0"
     width="0.56750602"
     height="0.18515243"
     x="2.97471"
     y="3.4848843" />
  <path
     id="path1424-5"
     d="m 4.5231408,4.0682627 v 0.323995"
     style="fill:#008000;fill-opacity:1;stroke:#000080;stroke-width:0.06456529;stroke-opacity:0.26633169"
     inkscape:connector-curvature="0" />
  <path
     id="path1426-67"
     d="m 1.8946888,4.0456887 0.0048,0.327009"
     style="fill:#0085a6;fill-opacity:1;stroke:#000080;stroke-width:0.06438619;stroke-opacity:0.32160806"
     inkscape:connector-curvature="0" />
  <path
     style="fill:#0088aa;fill-opacity:1;stroke:#000000;stroke-width:0.06438619;stroke-opacity:0.18592966"
     d="m 4.5616128,4.0345327 a 1.3498777,0.39736658 0 0 1 -1.349878,0.397366 1.3498777,0.39736658 0 0 1 -1.349878,-0.397366 1.3498777,0.39736658 0 0 1 1.349878,-0.397367 1.3498777,0.39736658 0 0 1 1.349878,0.397367 z"
     id="path84-7"
     inkscape:connector-curvature="0" />
  <path
     style="fill:#000080;fill-opacity:1;stroke:#000000;stroke-width:0.06438619;stroke-opacity:0.22110554"
     d="m 7.8912688,4.3567327 a 1.3498777,0.39736658 0 0 1 -1.349878,0.397367 1.3498777,0.39736658 0 0 1 -1.349878,-0.397367 1.3498777,0.39736658 0 0 1 1.349878,-0.397366 1.3498777,0.39736658 0 0 1 1.349878,0.397366 z"
     id="path4273"
     inkscape:connector-curvature="0" />
  <path
     style="fill:#0085a6;fill-opacity:1;stroke:#000080;stroke-width:0.06438619;stroke-opacity:1"
     d="m 7.8209558,4.1616727 v 0.0688 l -0.04613,-0.03521 z"
     id="path4275"
     inkscape:connector-curvature="0" />
  <path
     style="fill:#000080;fill-opacity:1;stroke:#000080;stroke-width:0.06438619;stroke-opacity:1"
     d="m 5.2574828,4.1593197 0.0019,0.07376 0.04853,-0.03753 z"
     id="path4277"
     inkscape:connector-curvature="0" />
  <ellipse
     ry="0.51582122"
     rx="1.4499086"
     cy="2.2447186"
     cx="6.603128"
     id="ellipse4279"
     style="fill:#ffff00;fill-opacity:1;stroke:#000000;stroke-width:0.0300198;stroke-opacity:0.36180905" />
  <ellipse
     ry="0.41216916"
     rx="1.2901627"
     cy="2.2264261"
     cx="6.5921569"
     id="ellipse4281"
     style="fill:#ff0000;fill-opacity:1;stroke:#000000;stroke-width:0.06438619;stroke-opacity:0.35175883" />
  <path
     id="path4283"
     d="m 5.1434648,2.2849597 0.09268,0.141455 0.107311,0.08292 0.180476,0.08292 0.170721,0.05853 0.278031,0.05366 0.23901,0.0439 0.229253,0.01951 h 0.19511 0.234132 l 0.21462,-0.02927 0.219498,-0.02927 0.190232,-0.06341 0.209743,-0.07317 0.19511,-0.08292 0.131699,-0.126821 0.02439,-0.09755 -0.01951,0.370708 -0.02927,0.131699 -0.06341,0.141455 -0.0878,0.08292 -0.06341,0.07317 -0.141455,0.09755 -0.165843,0.07804 -0.141455,0.05853 -0.123803,0.0439 -0.102122,0.02315 -0.102977,0.03543 -0.07117,0.03898 -0.06989,0.04878 -0.568997,-0.0049 -0.04305,-0.04816 -0.071,-0.04421 -0.08741,-0.03113 -0.07658,-0.02772 -0.131699,-0.03414 -0.06829,-0.03902 -0.180477,-0.0878 -0.10731,-0.07804 -0.156088,-0.10731 -0.06341,-0.09268 -0.07317,-0.07804 -0.03414,-0.08292 -0.02927,-0.121944 -0.02439,-0.141454 -0.01463,-0.09268 z"
     style="fill:#008000;fill-opacity:1;stroke:#000000;stroke-width:0.06438619;stroke-opacity:0.16582917"
     inkscape:connector-curvature="0" />
  <rect
     y="3.4848843"
     x="6.3043685"
     height="0.18515243"
     width="0.56750602"
     id="rect4285"
     style="fill:#0088aa;fill-opacity:1;stroke:#000000;stroke-width:0.06438619;stroke-opacity:0.20100505" />
  <path
     style="fill:#008000;fill-opacity:1;stroke:#000080;stroke-width:0.06456529;stroke-opacity:0.26633169"
     d="m 7.8527968,4.0682627 v 0.323995"
     id="path4287"
     inkscape:connector-curvature="0" />
  <path
     style="fill:#0085a6;fill-opacity:1;stroke:#000080;stroke-width:0.06438619;stroke-opacity:0.32160806"
     d="m 5.2243448,4.0456887 0.0048,0.327009"
     id="path4289"
     inkscape:connector-curvature="0" />
  <path
     id="path4291"
     d="m 7.8912688,4.0345327 a 1.3498777,0.39736658 0 0 1 -1.349878,0.397366 1.3498777,0.39736658 0 0 1 -1.349878,-0.397366 1.3498777,0.39736658 0 0 1 1.349878,-0.397367 1.3498777,0.39736658 0 0 1 1.349878,0.397367 z"
     style="fill:#0088aa;fill-opacity:1;stroke:#000000;stroke-width:0.06438619;stroke-opacity:0.18592966"
     inkscape:connector-curvature="0" />
  <path
     style="fill:#000080;fill-opacity:1;stroke:#000000;stroke-width:0.06438619;stroke-opacity:0.22110554"
     d="m 4.5616128,8.5890067 a 1.3498777,0.39736658 0 0 1 -1.349878,0.397367 1.3498777,0.39736658 0 0 1 -1.349878,-0.397367 1.3498777,0.39736658 0 0 1 1.349878,-0.397367 1.3498777,0.39736658 0 0 1 1.349878,0.397367 z"
     id="path4293"
     inkscape:connector-curvature="0" />
  <path
     style="fill:#0085a6;fill-opacity:1;stroke:#000080;stroke-width:0.06438619;stroke-opacity:1"
     d="m 4.4912998,8.3939467 v 0.0688 l -0.04613,-0.03521 z"
     id="path4295"
     inkscape:connector-curvature="0" />
  <path
     style="fill:#000080;fill-opacity:1;stroke:#000080;stroke-width:0.06438619;stroke-opacity:1"
     d="m 1.9278268,8.3915937 0.0019,0.07376 0.04853,-0.03753 z"
     id="path4297"
     inkscape:connector-curvature="0" />
  <ellipse
     ry="0.51582122"
     rx="1.4499086"
     cy="6.4769917"
     cx="3.2734694"
     id="ellipse4299"
     style="fill:#ffff00;fill-opacity:1;stroke:#000000;stroke-width:0.0300198;stroke-opacity:0.36180905" />
  <ellipse
     ry="0.41216916"
     rx="1.2901627"
     cy="6.4587002"
     cx="3.2624984"
     id="ellipse4301"
     style="fill:#ff0000;fill-opacity:1;stroke:#000000;stroke-width:0.06438619;stroke-opacity:0.35175883" />
  <path
     id="path4303"
     d="m 1.8138088,6.5172337 0.09268,0.141454 0.107311,0.08292 0.180476,0.08292 0.170721,0.05853 0.278031,0.05366 0.23901,0.0439 0.229253,0.01951 h 0.19511 0.234132 l 0.21462,-0.02927 0.219498,-0.02927 0.190233,-0.06341 0.209742,-0.07317 0.19511,-0.08292 0.131699,-0.126822 0.02439,-0.09755 -0.01951,0.370708 -0.02927,0.131699 -0.06341,0.141455 -0.0878,0.08292 -0.06341,0.07317 -0.141454,0.09755 -0.165844,0.07804 -0.141455,0.05853 -0.123803,0.0439 -0.102122,0.02315 -0.102977,0.03543 -0.07117,0.03898 -0.06989,0.04878 -0.568998,-0.0049 -0.04305,-0.04816 -0.071,-0.04421 -0.08741,-0.03113 -0.07658,-0.02772 -0.131699,-0.03415 -0.06829,-0.03902 -0.180477,-0.0878 -0.10731,-0.07804 -0.156088,-0.10731 -0.06341,-0.09268 -0.07317,-0.07804 -0.03414,-0.08292 -0.02927,-0.121943 -0.02439,-0.141455 -0.01463,-0.09268 z"
     style="fill:#008000;fill-opacity:1;stroke:#000000;stroke-width:0.06438619;stroke-opacity:0.16582917"
     inkscape:connector-curvature="0" />
  <rect
     y="7.7171574"
     x="2.97471"
     height="0.18515243"
     width="0.56750602"
     id="rect4305"
     style="fill:#0088aa;fill-opacity:1;stroke:#000000;stroke-width:0.06438619;stroke-opacity:0.20100505" />
  <path
     style="fill:#008000;fill-opacity:1;stroke:#000080;stroke-width:0.06456529;stroke-opacity:0.26633169"
     d="m 4.5231408,8.3005357 v 0.323996"
     id="path4307"
     inkscape:connector-curvature="0" />
  <path
     style="fill:#0085a6;fill-opacity:1;stroke:#000080;stroke-width:0.06438619;stroke-opacity:0.32160806"
     d="m 1.8946888,8.2779617 0.0048,0.32701"
     id="path4309"
     inkscape:connector-curvature="0" />
  <path
     id="path4311"
     d="m 4.5616128,8.2668067 a 1.3498777,0.39736658 0 0 1 -1.349878,0.397366 1.3498777,0.39736658 0 0 1 -1.349878,-0.397366 1.3498777,0.39736658 0 0 1 1.349878,-0.397367 1.3498777,0.39736658 0 0 1 1.349878,0.397367 z"
     style="fill:#0088aa;fill-opacity:1;stroke:#000000;stroke-width:0.06438619;stroke-opacity:0.18592966"
     inkscape:connector-curvature="0" />
  <path
     id="path4313"
     d="m 7.8912688,8.5890067 a 1.3498777,0.39736658 0 0 1 -1.349878,0.397367 1.3498777,0.39736658 0 0 1 -1.349878,-0.397367 1.3498777,0.39736658 0 0 1 1.349878,-0.397367 1.3498777,0.39736658 0 0 1 1.349878,0.397367 z"
     style="fill:#000080;fill-opacity:1;stroke:#000000;stroke-width:0.06438619;stroke-opacity:0.22110554"
     inkscape:connector-curvature="0" />
  <path
     id="path4315"
     d="m 7.8209558,8.3939467 v 0.0688 l -0.04613,-0.03521 z"
     style="fill:#0085a6;fill-opacity:1;stroke:#000080;stroke-width:0.06438619;stroke-opacity:1"
     inkscape:connector-curvature="0" />
  <path
     id="path4317"
     d="m 5.2574828,8.3915937 0.0019,0.07376 0.04853,-0.03753 z"
     style="fill:#000080;fill-opacity:1;stroke:#000080;stroke-width:0.06438619;stroke-opacity:1"
     inkscape:connector-curvature="0" />
  <ellipse
     style="fill:#ffff00;fill-opacity:1;stroke:#000000;stroke-width:0.0300198;stroke-opacity:0.36180905"
     id="ellipse4319"
     cx="6.603128"
     cy="6.4769917"
     rx="1.4499086"
     ry="0.51582122" />
  <ellipse
     style="fill:#ff0000;fill-opacity:1;stroke:#000000;stroke-width:0.06438619;stroke-opacity:0.35175883"
     id="ellipse4321"
     cx="6.5921569"
     cy="6.4587002"
     rx="1.2901627"
     ry="0.41216916" />
  <path
     style="fill:#008000;fill-opacity:1;stroke:#000000;stroke-width:0.06438619;stroke-opacity:0.16582917"
     d="m 5.1434648,6.5172337 0.09268,0.141454 0.107311,0.08292 0.180476,0.08292 0.170721,0.05853 0.278031,0.05366 0.23901,0.0439 0.229253,0.01951 h 0.19511 0.234132 l 0.21462,-0.02927 0.219498,-0.02927 0.190232,-0.06341 0.209743,-0.07317 0.19511,-0.08292 0.131699,-0.126822 0.02439,-0.09755 -0.01951,0.370708 -0.02927,0.131699 -0.06341,0.141455 -0.0878,0.08292 -0.06341,0.07317 -0.141455,0.09755 -0.165843,0.07804 -0.141455,0.05853 -0.123803,0.0439 -0.102122,0.02315 -0.102977,0.03543 -0.07117,0.03898 -0.06989,0.04878 -0.568997,-0.0049 -0.04305,-0.04816 -0.071,-0.04421 -0.08741,-0.03113 -0.07658,-0.02772 -0.131699,-0.03415 -0.06829,-0.03902 -0.180477,-0.0878 -0.10731,-0.07804 -0.156088,-0.10731 -0.06341,-0.09268 -0.07317,-0.07804 -0.03414,-0.08292 -0.02927,-0.121943 -0.02439,-0.141455 -0.01463,-0.09268 z"
     id="path4323"
     inkscape:connector-curvature="0" />
  <rect
     style="fill:#0088aa;fill-opacity:1;stroke:#000000;stroke-width:0.06438619;stroke-opacity:0.20100505"
     id="rect4325"
     width="0.56750602"
     height="0.18515243"
     x="6.3043685"
     y="7.7171574" />
  <path
     id="path4327"
     d="m 7.8527968,8.3005357 v 0.323996"
     style="fill:#008000;fill-opacity:1;stroke:#000080;stroke-width:0.06456529;stroke-opacity:0.26633169"
     inkscape:connector-curvature="0" />
  <path
     id="path4329"
     d="m 5.2243448,8.2779617 0.0048,0.32701"
     style="fill:#0085a6;fill-opacity:1;stroke:#000080;stroke-width:0.06438619;stroke-opacity:0.32160806"
     inkscape:connector-curvature="0" />
  <path
     style="fill:#0088aa;fill-opacity:1;stroke:#000000;stroke-width:0.06438619;stroke-opacity:0.18592966"
     d="m 7.8912688,8.2668067 a 1.3498777,0.39736658 0 0 1 -1.349878,0.397366 1.3498777,0.39736658 0 0 1 -1.349878,-0.397366 1.3498777,0.39736658 0 0 1 1.349878,-0.397367 1.3498777,0.39736658 0 0 1 1.349878,0.397367 z"
     id="path4331"
     inkscape:connector-curvature="0" />
  <path
     id="path4333"
     d="m 4.5616128,12.881455 a 1.3498777,0.39736658 0 0 1 -1.349878,0.397367 1.3498777,0.39736658 0 0 1 -1.349878,-0.397367 1.3498777,0.39736658 0 0 1 1.349878,-0.397366 1.3498777,0.39736658 0 0 1 1.349878,0.397366 z"
     style="fill:#000080;fill-opacity:1;stroke:#000000;stroke-width:0.06438619;stroke-opacity:0.22110554"
     inkscape:connector-curvature="0" />
  <path
     id="path4335"
     d="m 4.4912998,12.686395 v 0.0688 l -0.04613,-0.03521 z"
     style="fill:#0085a6;fill-opacity:1;stroke:#000080;stroke-width:0.06438619;stroke-opacity:1"
     inkscape:connector-curvature="0" />
  <path
     id="path4337"
     d="m 1.9278268,12.684042 0.0019,0.07376 0.04853,-0.03753 z"
     style="fill:#000080;fill-opacity:1;stroke:#000080;stroke-width:0.06438619;stroke-opacity:1"
     inkscape:connector-curvature="0" />
  <ellipse
     style="fill:#ffff00;fill-opacity:1;stroke:#000000;stroke-width:0.0300198;stroke-opacity:0.36180905"
     id="ellipse4339"
     cx="3.2734694"
     cy="10.76944"
     rx="1.4499086"
     ry="0.51582122" />
  <ellipse
     style="fill:#ff0000;fill-opacity:1;stroke:#000000;stroke-width:0.06438619;stroke-opacity:0.35175883"
     id="ellipse4341"
     cx="3.2624984"
     cy="10.751148"
     rx="1.2901627"
     ry="0.41216916" />
  <path
     style="fill:#008000;fill-opacity:1;stroke:#000000;stroke-width:0.06438619;stroke-opacity:0.16582917"
     d="m 1.8138088,10.809682 0.09268,0.141454 0.107311,0.08292 0.180476,0.08292 0.170721,0.05853 0.278031,0.05366 0.23901,0.0439 0.229253,0.01951 h 0.19511 0.234132 l 0.21462,-0.02927 0.219498,-0.02927 0.190233,-0.06341 0.209742,-0.07317 0.19511,-0.08292 0.131699,-0.126822 0.02439,-0.09755 -0.01951,0.370708 -0.02927,0.1317 -0.06341,0.141454 -0.0878,0.08292 -0.06341,0.07317 -0.141454,0.09755 -0.165844,0.07804 -0.141455,0.05853 -0.123803,0.0439 -0.102122,0.02315 -0.102977,0.03543 -0.07117,0.03898 -0.06989,0.04878 -0.568998,-0.0049 -0.04305,-0.04816 -0.071,-0.04421 -0.08741,-0.03113 -0.07658,-0.02772 -0.131699,-0.03414 -0.06829,-0.03902 -0.180477,-0.0878 -0.10731,-0.07804 -0.156088,-0.107311 -0.06341,-0.09268 -0.07317,-0.07804 -0.03414,-0.08292 -0.02927,-0.121943 -0.02439,-0.141455 -0.01463,-0.09268 z"
     id="path4343"
     inkscape:connector-curvature="0" />
  <rect
     style="fill:#0088aa;fill-opacity:1;stroke:#000000;stroke-width:0.06438619;stroke-opacity:0.20100505"
     id="rect4345"
     width="0.56750602"
     height="0.18515243"
     x="2.97471"
     y="12.009605" />
  <path
     id="path4347"
     d="M 4.5231408,12.592984 V 12.91698"
     style="fill:#008000;fill-opacity:1;stroke:#000080;stroke-width:0.06456529;stroke-opacity:0.26633169"
     inkscape:connector-curvature="0" />
  <path
     id="path4349"
     d="m 1.8946888,12.57041 0.0048,0.32701"
     style="fill:#0085a6;fill-opacity:1;stroke:#000080;stroke-width:0.06438619;stroke-opacity:0.32160806"
     inkscape:connector-curvature="0" />
  <path
     style="fill:#0088aa;fill-opacity:1;stroke:#000000;stroke-width:0.06438619;stroke-opacity:0.18592966"
     d="m 4.5616128,12.559255 a 1.3498777,0.39736658 0 0 1 -1.349878,0.397366 1.3498777,0.39736658 0 0 1 -1.349878,-0.397366 1.3498777,0.39736658 0 0 1 1.349878,-0.397367 1.3498777,0.39736658 0 0 1 1.349878,0.397367 z"
     id="path4351"
     inkscape:connector-curvature="0" />
  <path
     style="fill:#000080;fill-opacity:1;stroke:#000000;stroke-width:0.06438619;stroke-opacity:0.22110554"
     d="m 7.8912688,12.881455 a 1.3498777,0.39736658 0 0 1 -1.349878,0.397367 1.3498777,0.39736658 0 0 1 -1.349878,-0.397367 1.3498777,0.39736658 0 0 1 1.349878,-0.397366 1.3498777,0.39736658 0 0 1 1.349878,0.397366 z"
     id="path4353"
     inkscape:connector-curvature="0" />
  <path
     style="fill:#0085a6;fill-opacity:1;stroke:#000080;stroke-width:0.06438619;stroke-opacity:1"
     d="m 7.8209558,12.686395 v 0.0688 l -0.04613,-0.03521 z"
     id="path4355"
     inkscape:connector-curvature="0" />
  <path
     style="fill:#000080;fill-opacity:1;stroke:#000080;stroke-width:0.06438619;stroke-opacity:1"
     d="m 5.2574828,12.684042 0.0019,0.07376 0.04853,-0.03753 z"
     id="path4357"
     inkscape:connector-curvature="0" />
  <ellipse
     ry="0.51582122"
     rx="1.4499086"
     cy="10.76944"
     cx="6.603128"
     id="ellipse4359"
     style="fill:#ffff00;fill-opacity:1;stroke:#000000;stroke-width:0.0300198;stroke-opacity:0.36180905" />
  <ellipse
     ry="0.41216916"
     rx="1.2901627"
     cy="10.751148"
     cx="6.5921569"
     id="ellipse4361"
     style="fill:#ff0000;fill-opacity:1;stroke:#000000;stroke-width:0.06438619;stroke-opacity:0.35175883" />
  <path
     id="path4363"
     d="m 5.1434648,10.809682 0.09268,0.141454 0.107311,0.08292 0.180476,0.08292 0.170721,0.05853 0.278031,0.05366 0.23901,0.0439 0.229253,0.01951 h 0.19511 0.234132 l 0.21462,-0.02927 0.219498,-0.02927 0.190232,-0.06341 0.209743,-0.07317 0.19511,-0.08292 0.131699,-0.126822 0.02439,-0.09755 -0.01951,0.370708 -0.02927,0.1317 -0.06341,0.141454 -0.0878,0.08292 -0.06341,0.07317 -0.141455,0.09755 -0.165843,0.07804 -0.141455,0.05853 -0.123803,0.0439 -0.102122,0.02315 -0.102977,0.03543 -0.07117,0.03898 -0.06989,0.04878 -0.568997,-0.0049 -0.04305,-0.04816 -0.071,-0.04421 -0.08741,-0.03113 -0.07658,-0.02772 -0.131699,-0.03414 -0.06829,-0.03902 -0.180477,-0.0878 -0.10731,-0.07804 -0.156088,-0.107311 -0.06341,-0.09268 -0.07317,-0.07804 -0.03414,-0.08292 -0.02927,-0.121943 -0.02439,-0.141455 -0.01463,-0.09268 z"
     style="fill:#008000;fill-opacity:1;stroke:#000000;stroke-width:0.06438619;stroke-opacity:0.16582917"
     inkscape:connector-curvature="0" />
  <rect
     y="12.009605"
     x="6.3043685"
     height="0.18515243"
     width="0.56750602"
     id="rect4365"
     style="fill:#0088aa;fill-opacity:1;stroke:#000000;stroke-width:0.06438619;stroke-opacity:0.20100505" />
  <path
     style="fill:#008000;fill-opacity:1;stroke:#000080;stroke-width:0.06456529;stroke-opacity:0.26633169"
     d="M 7.8527968,12.592984 V 12.91698"
     id="path4367"
     inkscape:connector-curvature="0" />
  <path
     style="fill:#0085a6;fill-opacity:1;stroke:#000080;stroke-width:0.06438619;stroke-opacity:0.32160806"
     d="m 5.2243448,12.57041 0.0048,0.32701"
     id="path4369"
     inkscape:connector-curvature="0" />
  <path
     id="path4371"
     d="m 7.8912688,12.559255 a 1.3498777,0.39736658 0 0 1 -1.349878,0.397366 1.3498777,0.39736658 0 0 1 -1.349878,-0.397366 1.3498777,0.39736658 0 0 1 1.349878,-0.397367 1.3498777,0.39736658 0 0 1 1.349878,0.397367 z"
     style="fill:#0088aa;fill-opacity:1;stroke:#000000;stroke-width:0.06438619;stroke-opacity:0.18592966"
     inkscape:connector-curvature="0" />
</svg>
