<?xml version="1.0" encoding="UTF-8" standalone="no"?>
<svg
   xmlns:osb="http://www.openswatchbook.org/uri/2009/osb"
   xmlns:dc="http://purl.org/dc/elements/1.1/"
   xmlns:cc="http://creativecommons.org/ns#"
   xmlns:rdf="http://www.w3.org/1999/02/22-rdf-syntax-ns#"
   xmlns:svg="http://www.w3.org/2000/svg"
   xmlns="http://www.w3.org/2000/svg"
   xmlns:xlink="http://www.w3.org/1999/xlink"
   xmlns:sodipodi="http://sodipodi.sourceforge.net/DTD/sodipodi-0.dtd"
   xmlns:inkscape="http://www.inkscape.org/namespaces/inkscape"
   viewBox="0 0 160 250"
   height="250"
   width="160"
   id="svg815"
   version="1.1"
   sodipodi:docname="cups09.svg"
   inkscape:version="0.92.5 (2060ec1f9f, 2020-04-08)">
  <sodipodi:namedview
     pagecolor="#ffffff"
     bordercolor="#666666"
     borderopacity="1"
     objecttolerance="10"
     gridtolerance="10"
     guidetolerance="10"
     inkscape:pageopacity="0"
     inkscape:pageshadow="2"
     inkscape:window-width="1918"
     inkscape:window-height="1017"
     id="namedview7762"
     showgrid="false"
     inkscape:zoom="12.958352"
     inkscape:cx="57.727273"
     inkscape:cy="242.42424"
     inkscape:window-x="0"
     inkscape:window-y="0"
     inkscape:window-maximized="1"
     inkscape:current-layer="svg815"
     inkscape:snap-page="true" />
  <metadata
     id="metadata821">
    <rdf:RDF>
      <cc:Work
         rdf:about="">
        <dc:format>image/svg+xml</dc:format>
        <dc:type
           rdf:resource="http://purl.org/dc/dcmitype/StillImage" />
        <dc:title></dc:title>
      </cc:Work>
    </rdf:RDF>
  </metadata>
  <defs
     id="defs819">
    <linearGradient
       id="linearGradient3804"
       osb:paint="solid">
      <stop
         style="stop-color:#000000;stop-opacity:1;"
         offset="0"
         id="stop3802" />
    </linearGradient>
    <linearGradient
       gradientUnits="userSpaceOnUse"
       y2="71.008263"
       x2="88.849586"
       y1="58.644627"
       x1="82.105782"
       id="linearGradient1063"
       xlink:href="#linearGradient882"
       gradientTransform="matrix(0.0625,0,0,0.0625,89.999999,8.2080078e-7)" />
    <linearGradient
       id="linearGradient882">
      <stop
         style="stop-color:#d16208;stop-opacity:1"
         offset="0"
         id="stop878" />
      <stop
         style="stop-color:#d16250;stop-opacity:0;"
         offset="1"
         id="stop880" />
    </linearGradient>
    <linearGradient
       gradientUnits="userSpaceOnUse"
       y2="68.472336"
       x2="56.128345"
       y1="63.697319"
       x1="61.166279"
       id="linearGradient876"
       xlink:href="#linearGradient882"
       gradientTransform="matrix(0.0625,0,0,0.0625,89.999999,8.2080078e-7)" />
    <linearGradient
       xlink:href="#linearGradient846"
       id="linearGradient848"
       x1="72.37397"
       y1="53.171356"
       x2="72.19931"
       y2="45.564011"
       gradientUnits="userSpaceOnUse"
       gradientTransform="matrix(0.0625,0,0,0.0625,110,-2.6855469e-7)" />
    <linearGradient
       id="linearGradient846">
      <stop
         style="stop-color:#423abf;stop-opacity:1;"
         offset="0"
         id="stop842" />
      <stop
         style="stop-color:#423abf;stop-opacity:0;"
         offset="1"
         id="stop844" />
    </linearGradient>
  </defs>
  <flowRoot
     xml:space="preserve"
     id="flowRoot100"
     style="font-style:normal;font-variant:normal;font-weight:bold;font-stretch:normal;font-size:1px;line-height:1.25;font-family:'DejaVu Sans';-inkscape-font-specification:'DejaVu Sans Bold';letter-spacing:0px;word-spacing:0px;fill:#000000;fill-opacity:1;stroke:none;stroke-width:0.0625"><flowRegion
       style="stroke-width:0.0625"
       id="flowRegion102"><rect
         style="stroke-width:0.00390625"
         id="rect104"
         width="1.5151515"
         height="1.3636364"
         x="0.66287881"
         y="0.73863637" /></flowRegion><flowPara
       style="stroke-width:0.0625"
       id="flowPara106" /></flowRoot>  <rect
     y="0"
     x="-0.025605706"
     height="15.625"
     width="10"
     id="cups09"
     style="fill:#ffffff;fill-opacity:1;stroke:#1a1a1a;stroke-width:0.0625;stroke-opacity:1" />
  <rect
     y="1.3068199"
     x="1.3190904"
     height="12.973484"
     width="7.2537889"
     id="rect108-5"
     style="fill:none;fill-opacity:1;stroke:#1a1a1a;stroke-width:0.0625;stroke-opacity:1" />
  <g
     id="flowRoot915-97"
     style="font-style:normal;font-variant:normal;font-weight:bold;font-stretch:normal;font-size:16px;line-height:1.25;font-family:'DejaVu Sans';-inkscape-font-specification:'DejaVu Sans Bold';text-align:start;letter-spacing:0px;word-spacing:0px;text-anchor:start;fill:#000000;fill-opacity:1;stroke:none"
     transform="matrix(0.0625,0,0,0.0625,0.16378829,1.4111328e-7)"
     aria-label="9">
    <path
       id="path7284"
       d="m 4.6328125,18.443359 v -2.15625 q 0.71875,0.335938 1.375,0.507813 0.65625,0.164062 1.296875,0.164062 1.34375,0 2.09375,-0.742187 0.7500005,-0.75 0.8828125,-2.21875 Q 9.75,14.388672 9.1484375,14.583984 8.546875,14.779297 7.84375,14.779297 q -1.7890625,0 -2.890625,-1.039063 -1.09375,-1.046875 -1.09375,-2.75 0,-1.8828121 1.21875,-3.0156246 1.2265625,-1.1328125 3.28125,-1.1328125 2.28125,0 3.53125,1.5390625 1.25,1.5390625 1.25,4.3515626 0,2.890625 -1.460937,4.546875 -1.460938,1.648437 -4.007813,1.648437 -0.8203125,0 -1.5703125,-0.125 -0.75,-0.117187 -1.46875,-0.359375 z M 8.34375,12.826172 q 0.7890625,0 1.1875,-0.507813 0.3984375,-0.515625 0.3984375,-1.539062 0,-1.0156251 -0.3984375,-1.5312501 -0.3984375,-0.515625 -1.1875,-0.515625 -0.7890625,0 -1.1875,0.515625 -0.3984375,0.515625 -0.3984375,1.5312501 0,1.023437 0.3984375,1.539062 0.3984375,0.507813 1.1875,0.507813 z"
       inkscape:connector-curvature="0" />
  </g>
  <path
     style="fill:#000080;fill-opacity:1;stroke:#000000;stroke-width:0.03823405;stroke-opacity:0.22110554"
     d="m 3.4343853,3.2832721 a 0.80158944,0.23596571 0 0 1 -0.80159,0.235965 0.80158944,0.23596571 0 0 1 -0.801589,-0.235965 0.80158944,0.23596571 0 0 1 0.801589,-0.235966 0.80158944,0.23596571 0 0 1 0.80159,0.235966 z"
     id="path1422-85"
     inkscape:connector-curvature="0" />
  <path
     style="fill:#0085a6;fill-opacity:1;stroke:#000080;stroke-width:0.03823405;stroke-opacity:1"
     d="m 3.3926323,3.1674401 v 0.04085 l -0.0274,-0.02091 z"
     id="path1430-33"
     inkscape:connector-curvature="0" />
  <path
     style="fill:#000080;fill-opacity:1;stroke:#000080;stroke-width:0.03823405;stroke-opacity:1"
     d="m 1.8703803,3.1660431 0.0012,0.0438 0.02882,-0.02228 z"
     id="path1428-83"
     inkscape:connector-curvature="0" />
  <ellipse
     ry="0.30630687"
     rx="0.86099017"
     cy="2.0291061"
     cx="2.6694551"
     id="path74-7"
     style="fill:#ffff00;fill-opacity:1;stroke:#000000;stroke-width:0.01782647;stroke-opacity:0.36180905" />
  <ellipse
     ry="0.24475583"
     rx="0.76612926"
     cy="2.0182457"
     cx="2.6629395"
     id="path76-93"
     style="fill:#ff0000;fill-opacity:1;stroke:#000000;stroke-width:0.03823405;stroke-opacity:0.35175883" />
  <path
     id="path80-78"
     d="m 1.8026743,2.0530031 0.05503,0.084 0.06372,0.04924 0.107171,0.04924 0.101378,0.03476 0.165102,0.03186 0.141929,0.02607 0.136137,0.01159 h 0.11586 0.139033 l 0.127447,-0.01738 0.130343,-0.01738 0.112965,-0.03766 0.12455,-0.04345 0.115861,-0.04924 0.07821,-0.07531 0.01448,-0.05793 -0.01159,0.220136 -0.01738,0.07821 -0.03766,0.084 -0.05214,0.04924 -0.03766,0.04345 -0.084,0.05793 -0.09848,0.04634 -0.084,0.03476 -0.07352,0.02607 -0.06064,0.01375 -0.06115,0.02104 -0.04226,0.02314 -0.0415,0.02896 -0.337884,-0.0029 -0.02556,-0.0286 -0.04216,-0.02625 -0.05191,-0.01848 -0.04547,-0.01646 -0.07821,-0.02028 -0.04055,-0.02317 -0.107171,-0.05214 -0.06372,-0.04635 -0.09269,-0.06372 -0.03765,-0.05503 -0.04345,-0.04634 -0.02028,-0.04924 -0.01738,-0.07241 -0.01448,-0.084 -0.0087,-0.05503 z"
     style="fill:#008000;fill-opacity:1;stroke:#000000;stroke-width:0.03823405;stroke-opacity:0.16582917"
     inkscape:connector-curvature="0" />
  <rect
     y="2.7655487"
     x="2.4920487"
     height="0.10994791"
     width="0.33699852"
     id="rect87-74"
     style="fill:#0088aa;fill-opacity:1;stroke:#000000;stroke-width:0.03823405;stroke-opacity:0.20100505" />
  <path
     style="fill:#008000;fill-opacity:1;stroke:#000080;stroke-width:0.0383404;stroke-opacity:0.26633169"
     d="m 3.4115393,3.1119711 v 0.192396"
     id="path1424-1"
     inkscape:connector-curvature="0" />
  <path
     style="fill:#0085a6;fill-opacity:1;stroke:#000080;stroke-width:0.03823405;stroke-opacity:0.32160806"
     d="m 1.8507023,3.0985661 0.0029,0.194186"
     id="path1426-90"
     inkscape:connector-curvature="0" />
  <path
     id="path84-9"
     d="m 3.4343853,3.0919411 a 0.80158944,0.23596571 0 0 1 -0.80159,0.235966 0.80158944,0.23596571 0 0 1 -0.801589,-0.235966 0.80158944,0.23596571 0 0 1 0.801589,-0.235966 0.80158944,0.23596571 0 0 1 0.80159,0.235966 z"
     style="fill:#0088aa;fill-opacity:1;stroke:#000000;stroke-width:0.03823405;stroke-opacity:0.18592966"
     inkscape:connector-curvature="0" />
  <path
     id="path5097"
     d="m 3.4343853,5.6317561 a 0.80158944,0.23596571 0 0 1 -0.80159,0.235966 0.80158944,0.23596571 0 0 1 -0.801589,-0.235966 0.80158944,0.23596571 0 0 1 0.801589,-0.235965 0.80158944,0.23596571 0 0 1 0.80159,0.235965 z"
     style="fill:#000080;fill-opacity:1;stroke:#000000;stroke-width:0.03823405;stroke-opacity:0.22110554"
     inkscape:connector-curvature="0" />
  <path
     id="path5099"
     d="m 3.3926323,5.5159251 v 0.04085 l -0.0274,-0.02091 z"
     style="fill:#0085a6;fill-opacity:1;stroke:#000080;stroke-width:0.03823405;stroke-opacity:1"
     inkscape:connector-curvature="0" />
  <path
     id="path5101"
     d="m 1.8703803,5.5145281 0.0012,0.0438 0.02882,-0.02229 z"
     style="fill:#000080;fill-opacity:1;stroke:#000080;stroke-width:0.03823405;stroke-opacity:1"
     inkscape:connector-curvature="0" />
  <ellipse
     style="fill:#ffff00;fill-opacity:1;stroke:#000000;stroke-width:0.01782647;stroke-opacity:0.36180905"
     id="ellipse5103"
     cx="2.6694551"
     cy="4.377594"
     rx="0.86099017"
     ry="0.30630687" />
  <ellipse
     style="fill:#ff0000;fill-opacity:1;stroke:#000000;stroke-width:0.03823405;stroke-opacity:0.35175883"
     id="ellipse5105"
     cx="2.6629395"
     cy="4.3667297"
     rx="0.76612926"
     ry="0.24475583" />
  <path
     style="fill:#008000;fill-opacity:1;stroke:#000000;stroke-width:0.03823405;stroke-opacity:0.16582917"
     d="m 1.8026743,4.4014881 0.05503,0.084 0.06372,0.04924 0.107171,0.04924 0.101378,0.03476 0.165102,0.03186 0.141929,0.02607 0.136137,0.01159 h 0.11586 0.139033 l 0.127447,-0.01738 0.130343,-0.01738 0.112965,-0.03765 0.12455,-0.04345 0.115861,-0.04924 0.07821,-0.07531 0.01448,-0.05793 -0.01159,0.220136 -0.01738,0.07821 -0.03766,0.084 -0.05214,0.04924 -0.03766,0.04345 -0.084,0.05793 -0.09848,0.04634 -0.084,0.03476 -0.07352,0.02607 -0.06064,0.01375 -0.06115,0.02104 -0.04226,0.02314 -0.0415,0.02896 -0.337884,-0.0029 -0.02556,-0.0286 -0.04216,-0.02625 -0.05191,-0.01848 -0.04547,-0.01646 -0.07821,-0.02027 -0.04055,-0.02317 -0.107171,-0.05214 -0.06372,-0.04635 -0.09269,-0.06372 -0.03765,-0.05503 -0.04345,-0.04634 -0.02028,-0.04924 -0.01738,-0.07241 -0.01448,-0.084 -0.0087,-0.05503 z"
     id="path5107"
     inkscape:connector-curvature="0" />
  <rect
     style="fill:#0088aa;fill-opacity:1;stroke:#000000;stroke-width:0.03823405;stroke-opacity:0.20100505"
     id="rect5109"
     width="0.33699852"
     height="0.10994791"
     x="2.4920487"
     y="5.1140327" />
  <path
     id="path5111"
     d="m 3.4115393,5.4604561 v 0.192396"
     style="fill:#008000;fill-opacity:1;stroke:#000080;stroke-width:0.0383404;stroke-opacity:0.26633169"
     inkscape:connector-curvature="0" />
  <path
     id="path5113"
     d="m 1.8507023,5.4470511 0.0029,0.194186"
     style="fill:#0085a6;fill-opacity:1;stroke:#000080;stroke-width:0.03823405;stroke-opacity:0.32160806"
     inkscape:connector-curvature="0" />
  <path
     style="fill:#0088aa;fill-opacity:1;stroke:#000000;stroke-width:0.03823405;stroke-opacity:0.18592966"
     d="m 3.4343853,5.4404261 a 0.80158944,0.23596571 0 0 1 -0.80159,0.235966 0.80158944,0.23596571 0 0 1 -0.801589,-0.235966 0.80158944,0.23596571 0 0 1 0.801589,-0.235966 0.80158944,0.23596571 0 0 1 0.80159,0.235966 z"
     id="path5115"
     inkscape:connector-curvature="0" />
  <path
     id="path5117"
     d="m 3.4343853,10.877969 a 0.80158944,0.23596571 0 0 1 -0.80159,0.235966 0.80158944,0.23596571 0 0 1 -0.801589,-0.235966 0.80158944,0.23596571 0 0 1 0.801589,-0.235966 0.80158944,0.23596571 0 0 1 0.80159,0.235966 z"
     style="fill:#000080;fill-opacity:1;stroke:#000000;stroke-width:0.03823405;stroke-opacity:0.22110554"
     inkscape:connector-curvature="0" />
  <path
     id="path5119"
     d="m 3.3926323,10.762137 v 0.04086 l -0.0274,-0.02091 z"
     style="fill:#0085a6;fill-opacity:1;stroke:#000080;stroke-width:0.03823405;stroke-opacity:1"
     inkscape:connector-curvature="0" />
  <path
     id="path5121"
     d="m 1.8703803,10.76074 0.0012,0.0438 0.02882,-0.02228 z"
     style="fill:#000080;fill-opacity:1;stroke:#000080;stroke-width:0.03823405;stroke-opacity:1"
     inkscape:connector-curvature="0" />
  <ellipse
     style="fill:#ffff00;fill-opacity:1;stroke:#000000;stroke-width:0.01782647;stroke-opacity:0.36180905"
     id="ellipse5123"
     cx="2.6694551"
     cy="9.6238022"
     rx="0.86099017"
     ry="0.30630687" />
  <ellipse
     style="fill:#ff0000;fill-opacity:1;stroke:#000000;stroke-width:0.03823405;stroke-opacity:0.35175883"
     id="ellipse5125"
     cx="2.6629395"
     cy="9.6129417"
     rx="0.76612926"
     ry="0.24475583" />
  <path
     style="fill:#008000;fill-opacity:1;stroke:#000000;stroke-width:0.03823405;stroke-opacity:0.16582917"
     d="m 1.8026743,9.6477011 0.05503,0.084 0.06372,0.04924 0.107171,0.04924 0.101378,0.03476 0.165102,0.03186 0.141929,0.02607 0.136137,0.01159 h 0.11586 0.139033 l 0.127447,-0.01738 0.130343,-0.01738 0.112965,-0.03766 0.12455,-0.04345 0.115861,-0.04924 0.07821,-0.07531 0.01448,-0.05793 -0.01159,0.220135 -0.01738,0.07821 -0.03766,0.084 -0.05214,0.04924 -0.03766,0.04345 -0.084,0.05793 -0.09848,0.04634 -0.084,0.03476 -0.07352,0.02607 -0.06064,0.01375 -0.06115,0.02104 -0.04226,0.02314 -0.0415,0.02896 -0.337884,-0.0029 -0.02556,-0.0286 -0.04216,-0.02625 -0.05191,-0.01848 -0.04547,-0.01646 -0.07821,-0.02028 -0.04055,-0.02317 -0.107171,-0.05214 -0.06372,-0.04635 -0.09269,-0.06372 -0.03765,-0.05503 -0.04345,-0.04634 -0.02028,-0.04924 -0.01738,-0.07241 -0.01448,-0.084 -0.0087,-0.05503 z"
     id="path5127"
     inkscape:connector-curvature="0" />
  <rect
     style="fill:#0088aa;fill-opacity:1;stroke:#000000;stroke-width:0.03823405;stroke-opacity:0.20100505"
     id="rect5129"
     width="0.33699852"
     height="0.10994791"
     x="2.4920487"
     y="10.360245" />
  <path
     id="path5131"
     d="m 3.4115393,10.706668 v 0.192396"
     style="fill:#008000;fill-opacity:1;stroke:#000080;stroke-width:0.0383404;stroke-opacity:0.26633169"
     inkscape:connector-curvature="0" />
  <path
     id="path5133"
     d="m 1.8507023,10.693263 0.0029,0.194186"
     style="fill:#0085a6;fill-opacity:1;stroke:#000080;stroke-width:0.03823405;stroke-opacity:0.32160806"
     inkscape:connector-curvature="0" />
  <path
     style="fill:#0088aa;fill-opacity:1;stroke:#000000;stroke-width:0.03823405;stroke-opacity:0.18592966"
     d="m 3.4343853,10.686638 a 0.80158944,0.23596571 0 0 1 -0.80159,0.235966 0.80158944,0.23596571 0 0 1 -0.801589,-0.235966 0.80158944,0.23596571 0 0 1 0.801589,-0.235965 0.80158944,0.23596571 0 0 1 0.80159,0.235965 z"
     id="path5135"
     inkscape:connector-curvature="0" />
  <path
     style="fill:#000080;fill-opacity:1;stroke:#000000;stroke-width:0.03823405;stroke-opacity:0.22110554"
     d="m 3.4343853,13.226453 a 0.80158944,0.23596571 0 0 1 -0.80159,0.235966 0.80158944,0.23596571 0 0 1 -0.801589,-0.235966 0.80158944,0.23596571 0 0 1 0.801589,-0.235965 0.80158944,0.23596571 0 0 1 0.80159,0.235965 z"
     id="path5137"
     inkscape:connector-curvature="0" />
  <path
     style="fill:#0085a6;fill-opacity:1;stroke:#000080;stroke-width:0.03823405;stroke-opacity:1"
     d="m 3.3926323,13.110622 v 0.04086 l -0.0274,-0.02091 z"
     id="path5139"
     inkscape:connector-curvature="0" />
  <path
     style="fill:#000080;fill-opacity:1;stroke:#000080;stroke-width:0.03823405;stroke-opacity:1"
     d="m 1.8703803,13.109225 0.0012,0.0438 0.02882,-0.02228 z"
     id="path5141"
     inkscape:connector-curvature="0" />
  <ellipse
     ry="0.30630687"
     rx="0.86099017"
     cy="11.97229"
     cx="2.6694551"
     id="ellipse5143"
     style="fill:#ffff00;fill-opacity:1;stroke:#000000;stroke-width:0.01782647;stroke-opacity:0.36180905" />
  <ellipse
     ry="0.24475583"
     rx="0.76612926"
     cy="11.961426"
     cx="2.6629395"
     id="ellipse5145"
     style="fill:#ff0000;fill-opacity:1;stroke:#000000;stroke-width:0.03823405;stroke-opacity:0.35175883" />
  <path
     id="path5147"
     d="m 1.8026743,11.996185 0.05503,0.084 0.06372,0.04924 0.107171,0.04924 0.101378,0.03476 0.165102,0.03186 0.141929,0.02607 0.136137,0.01159 h 0.11586 0.139033 l 0.127447,-0.01738 0.130343,-0.01738 0.112965,-0.03766 0.12455,-0.04345 0.115861,-0.04924 0.07821,-0.07531 0.01448,-0.05793 -0.01159,0.220135 -0.01738,0.07821 -0.03766,0.084 -0.05214,0.04924 -0.03766,0.04345 -0.084,0.05793 -0.09848,0.04634 -0.084,0.03476 -0.07352,0.02607 -0.06064,0.01375 -0.06115,0.02104 -0.04226,0.02314 -0.0415,0.02896 -0.337884,-0.0029 -0.02556,-0.0286 -0.04216,-0.02625 -0.05191,-0.01848 -0.04547,-0.01646 -0.07821,-0.02027 -0.04055,-0.02317 -0.107171,-0.05214 -0.06372,-0.04634 -0.09269,-0.06372 -0.03765,-0.05503 -0.04345,-0.04634 -0.02028,-0.04924 -0.01738,-0.07241 -0.01448,-0.084 -0.0087,-0.05503 z"
     style="fill:#008000;fill-opacity:1;stroke:#000000;stroke-width:0.03823405;stroke-opacity:0.16582917"
     inkscape:connector-curvature="0" />
  <rect
     y="12.708729"
     x="2.4920487"
     height="0.10994791"
     width="0.33699852"
     id="rect5149"
     style="fill:#0088aa;fill-opacity:1;stroke:#000000;stroke-width:0.03823405;stroke-opacity:0.20100505" />
  <path
     style="fill:#008000;fill-opacity:1;stroke:#000080;stroke-width:0.0383404;stroke-opacity:0.26633169"
     d="m 3.4115393,13.055153 v 0.192396"
     id="path5151"
     inkscape:connector-curvature="0" />
  <path
     style="fill:#0085a6;fill-opacity:1;stroke:#000080;stroke-width:0.03823405;stroke-opacity:0.32160806"
     d="m 1.8507023,13.041748 0.0029,0.194186"
     id="path5153"
     inkscape:connector-curvature="0" />
  <path
     id="path5155"
     d="m 3.4343853,13.035123 a 0.80158944,0.23596571 0 0 1 -0.80159,0.235966 0.80158944,0.23596571 0 0 1 -0.801589,-0.235966 0.80158944,0.23596571 0 0 1 0.801589,-0.235965 0.80158944,0.23596571 0 0 1 0.80159,0.235965 z"
     style="fill:#0088aa;fill-opacity:1;stroke:#000000;stroke-width:0.03823405;stroke-opacity:0.18592966"
     inkscape:connector-curvature="0" />
  <path
     style="fill:#000080;fill-opacity:1;stroke:#000000;stroke-width:0.03823405;stroke-opacity:0.22110554"
     d="m 7.8472633,10.877969 a 0.80158944,0.23596571 0 0 1 -0.801589,0.235966 0.80158944,0.23596571 0 0 1 -0.801589,-0.235966 0.80158944,0.23596571 0 0 1 0.801589,-0.235966 0.80158944,0.23596571 0 0 1 0.801589,0.235966 z"
     id="path5157"
     inkscape:connector-curvature="0" />
  <path
     style="fill:#0085a6;fill-opacity:1;stroke:#000080;stroke-width:0.03823405;stroke-opacity:1"
     d="m 7.8055103,10.762137 v 0.04086 l -0.02739,-0.02091 z"
     id="path5159"
     inkscape:connector-curvature="0" />
  <path
     style="fill:#000080;fill-opacity:1;stroke:#000080;stroke-width:0.03823405;stroke-opacity:1"
     d="m 6.2832593,10.76074 0.0012,0.0438 0.02882,-0.02228 z"
     id="path5161"
     inkscape:connector-curvature="0" />
  <ellipse
     ry="0.30630687"
     rx="0.86099017"
     cy="9.6238022"
     cx="7.082335"
     id="ellipse5163"
     style="fill:#ffff00;fill-opacity:1;stroke:#000000;stroke-width:0.01782647;stroke-opacity:0.36180905" />
  <ellipse
     ry="0.24475583"
     rx="0.76612926"
     cy="9.6129417"
     cx="7.0758195"
     id="ellipse5165"
     style="fill:#ff0000;fill-opacity:1;stroke:#000000;stroke-width:0.03823405;stroke-opacity:0.35175883" />
  <path
     id="path5167"
     d="m 6.2155533,9.6477011 0.05503,0.084 0.06372,0.04924 0.107171,0.04924 0.101378,0.03476 0.165101,0.03186 0.14193,0.02607 0.136136,0.01159 h 0.115861 0.139033 l 0.127447,-0.01738 0.130343,-0.01738 0.112965,-0.03766 0.12455,-0.04345 0.115861,-0.04924 0.07821,-0.07531 0.01448,-0.05793 -0.01159,0.220135 -0.01738,0.07821 -0.03766,0.084 -0.05214,0.04924 -0.03765,0.04345 -0.084,0.05793 -0.09848,0.04634 -0.084,0.03476 -0.07352,0.02607 -0.06064,0.01375 -0.06115,0.02104 -0.04227,0.02314 -0.0415,0.02896 -0.337883,-0.0029 -0.02556,-0.0286 -0.04216,-0.02625 -0.05191,-0.01848 -0.04547,-0.01646 -0.07821,-0.02028 -0.04055,-0.02317 -0.107171,-0.05214 -0.06372,-0.04635 -0.09269,-0.06372 -0.03765,-0.05503 -0.04345,-0.04634 -0.02028,-0.04924 -0.01738,-0.07241 -0.01448,-0.084 -0.0087,-0.05503 z"
     style="fill:#008000;fill-opacity:1;stroke:#000000;stroke-width:0.03823405;stroke-opacity:0.16582917"
     inkscape:connector-curvature="0" />
  <rect
     y="10.360245"
     x="6.9049211"
     height="0.10994791"
     width="0.33699852"
     id="rect5169"
     style="fill:#0088aa;fill-opacity:1;stroke:#000000;stroke-width:0.03823405;stroke-opacity:0.20100505" />
  <path
     style="fill:#008000;fill-opacity:1;stroke:#000080;stroke-width:0.0383404;stroke-opacity:0.26633169"
     d="m 7.8244183,10.706668 v 0.192396"
     id="path5171"
     inkscape:connector-curvature="0" />
  <path
     style="fill:#0085a6;fill-opacity:1;stroke:#000080;stroke-width:0.03823405;stroke-opacity:0.32160806"
     d="m 6.2635813,10.693263 0.0029,0.194186"
     id="path5173"
     inkscape:connector-curvature="0" />
  <path
     id="path5175"
     d="m 7.8472633,10.686638 a 0.80158944,0.23596571 0 0 1 -0.801589,0.235966 0.80158944,0.23596571 0 0 1 -0.801589,-0.235966 0.80158944,0.23596571 0 0 1 0.801589,-0.235965 0.80158944,0.23596571 0 0 1 0.801589,0.235965 z"
     style="fill:#0088aa;fill-opacity:1;stroke:#000000;stroke-width:0.03823405;stroke-opacity:0.18592966"
     inkscape:connector-curvature="0" />
  <path
     id="path5177"
     d="m 7.8472633,13.226453 a 0.80158944,0.23596571 0 0 1 -0.801589,0.235966 0.80158944,0.23596571 0 0 1 -0.801589,-0.235966 0.80158944,0.23596571 0 0 1 0.801589,-0.235965 0.80158944,0.23596571 0 0 1 0.801589,0.235965 z"
     style="fill:#000080;fill-opacity:1;stroke:#000000;stroke-width:0.03823405;stroke-opacity:0.22110554"
     inkscape:connector-curvature="0" />
  <path
     id="path5179"
     d="m 7.8055103,13.110622 v 0.04086 l -0.02739,-0.02091 z"
     style="fill:#0085a6;fill-opacity:1;stroke:#000080;stroke-width:0.03823405;stroke-opacity:1"
     inkscape:connector-curvature="0" />
  <path
     id="path5181"
     d="m 6.2832593,13.109225 0.0012,0.0438 0.02882,-0.02228 z"
     style="fill:#000080;fill-opacity:1;stroke:#000080;stroke-width:0.03823405;stroke-opacity:1"
     inkscape:connector-curvature="0" />
  <ellipse
     style="fill:#ffff00;fill-opacity:1;stroke:#000000;stroke-width:0.01782647;stroke-opacity:0.36180905"
     id="ellipse5183"
     cx="7.082335"
     cy="11.97229"
     rx="0.86099017"
     ry="0.30630687" />
  <ellipse
     style="fill:#ff0000;fill-opacity:1;stroke:#000000;stroke-width:0.03823405;stroke-opacity:0.35175883"
     id="ellipse5185"
     cx="7.0758195"
     cy="11.961426"
     rx="0.76612926"
     ry="0.24475583" />
  <path
     style="fill:#008000;fill-opacity:1;stroke:#000000;stroke-width:0.03823405;stroke-opacity:0.16582917"
     d="m 6.2155533,11.996185 0.05503,0.084 0.06372,0.04924 0.107171,0.04924 0.101378,0.03476 0.165101,0.03186 0.14193,0.02607 0.136136,0.01159 h 0.115861 0.139033 l 0.127447,-0.01738 0.130343,-0.01738 0.112965,-0.03766 0.12455,-0.04345 0.115861,-0.04924 0.07821,-0.07531 0.01448,-0.05793 -0.01159,0.220135 -0.01738,0.07821 -0.03766,0.084 -0.05214,0.04924 -0.03765,0.04345 -0.084,0.05793 -0.09848,0.04634 -0.084,0.03476 -0.07352,0.02607 -0.06064,0.01375 -0.06115,0.02104 -0.04227,0.02314 -0.0415,0.02896 -0.337883,-0.0029 -0.02556,-0.0286 -0.04216,-0.02625 -0.05191,-0.01848 -0.04547,-0.01646 -0.07821,-0.02027 -0.04055,-0.02317 -0.107171,-0.05214 -0.06372,-0.04634 -0.09269,-0.06372 -0.03765,-0.05503 -0.04345,-0.04634 -0.02028,-0.04924 -0.01738,-0.07241 -0.01448,-0.084 -0.0087,-0.05503 z"
     id="path5187"
     inkscape:connector-curvature="0" />
  <rect
     style="fill:#0088aa;fill-opacity:1;stroke:#000000;stroke-width:0.03823405;stroke-opacity:0.20100505"
     id="rect5189"
     width="0.33699852"
     height="0.10994791"
     x="6.9049211"
     y="12.708729" />
  <path
     id="path5191"
     d="m 7.8244183,13.055153 v 0.192396"
     style="fill:#008000;fill-opacity:1;stroke:#000080;stroke-width:0.0383404;stroke-opacity:0.26633169"
     inkscape:connector-curvature="0" />
  <path
     id="path5193"
     d="m 6.2635813,13.041748 0.0029,0.194186"
     style="fill:#0085a6;fill-opacity:1;stroke:#000080;stroke-width:0.03823405;stroke-opacity:0.32160806"
     inkscape:connector-curvature="0" />
  <path
     style="fill:#0088aa;fill-opacity:1;stroke:#000000;stroke-width:0.03823405;stroke-opacity:0.18592966"
     d="m 7.8472633,13.035123 a 0.80158944,0.23596571 0 0 1 -0.801589,0.235966 0.80158944,0.23596571 0 0 1 -0.801589,-0.235966 0.80158944,0.23596571 0 0 1 0.801589,-0.235965 0.80158944,0.23596571 0 0 1 0.801589,0.235965 z"
     id="path5195"
     inkscape:connector-curvature="0" />
  <path
     id="path5197"
     d="m 7.8472633,10.877969 a 0.80158944,0.23596571 0 0 1 -0.801589,0.235966 0.80158944,0.23596571 0 0 1 -0.801589,-0.235966 0.80158944,0.23596571 0 0 1 0.801589,-0.235966 0.80158944,0.23596571 0 0 1 0.801589,0.235966 z"
     style="fill:#000080;fill-opacity:1;stroke:#000000;stroke-width:0.03823405;stroke-opacity:0.22110554"
     inkscape:connector-curvature="0" />
  <path
     id="path5199"
     d="m 7.8055103,10.762137 v 0.04086 l -0.02739,-0.02091 z"
     style="fill:#0085a6;fill-opacity:1;stroke:#000080;stroke-width:0.03823405;stroke-opacity:1"
     inkscape:connector-curvature="0" />
  <path
     id="path5201"
     d="m 6.2832593,10.76074 0.0012,0.0438 0.02882,-0.02228 z"
     style="fill:#000080;fill-opacity:1;stroke:#000080;stroke-width:0.03823405;stroke-opacity:1"
     inkscape:connector-curvature="0" />
  <ellipse
     style="fill:#ffff00;fill-opacity:1;stroke:#000000;stroke-width:0.01782647;stroke-opacity:0.36180905"
     id="ellipse5203"
     cx="7.082335"
     cy="9.6238022"
     rx="0.86099017"
     ry="0.30630687" />
  <ellipse
     style="fill:#ff0000;fill-opacity:1;stroke:#000000;stroke-width:0.03823405;stroke-opacity:0.35175883"
     id="ellipse5205"
     cx="7.0758195"
     cy="9.6129417"
     rx="0.76612926"
     ry="0.24475583" />
  <path
     style="fill:#008000;fill-opacity:1;stroke:#000000;stroke-width:0.03823405;stroke-opacity:0.16582917"
     d="m 6.2155533,9.6477011 0.05503,0.084 0.06372,0.04924 0.107171,0.04924 0.101378,0.03476 0.165101,0.03186 0.14193,0.02607 0.136136,0.01159 h 0.115861 0.139033 l 0.127447,-0.01738 0.130343,-0.01738 0.112965,-0.03766 0.12455,-0.04345 0.115861,-0.04924 0.07821,-0.07531 0.01448,-0.05793 -0.01159,0.220135 -0.01738,0.07821 -0.03766,0.084 -0.05214,0.04924 -0.03765,0.04345 -0.084,0.05793 -0.09848,0.04634 -0.084,0.03476 -0.07352,0.02607 -0.06064,0.01375 -0.06115,0.02104 -0.04227,0.02314 -0.0415,0.02896 -0.337883,-0.0029 -0.02556,-0.0286 -0.04216,-0.02625 -0.05191,-0.01848 -0.04547,-0.01646 -0.07821,-0.02028 -0.04055,-0.02317 -0.107171,-0.05214 -0.06372,-0.04635 -0.09269,-0.06372 -0.03765,-0.05503 -0.04345,-0.04634 -0.02028,-0.04924 -0.01738,-0.07241 -0.01448,-0.084 -0.0087,-0.05503 z"
     id="path5207"
     inkscape:connector-curvature="0" />
  <rect
     style="fill:#0088aa;fill-opacity:1;stroke:#000000;stroke-width:0.03823405;stroke-opacity:0.20100505"
     id="rect5209"
     width="0.33699852"
     height="0.10994791"
     x="6.9049211"
     y="10.360245" />
  <path
     id="path5211"
     d="m 7.8244183,10.706668 v 0.192396"
     style="fill:#008000;fill-opacity:1;stroke:#000080;stroke-width:0.0383404;stroke-opacity:0.26633169"
     inkscape:connector-curvature="0" />
  <path
     id="path5213"
     d="m 6.2635813,10.693263 0.0029,0.194186"
     style="fill:#0085a6;fill-opacity:1;stroke:#000080;stroke-width:0.03823405;stroke-opacity:0.32160806"
     inkscape:connector-curvature="0" />
  <path
     style="fill:#0088aa;fill-opacity:1;stroke:#000000;stroke-width:0.03823405;stroke-opacity:0.18592966"
     d="m 7.8472633,10.686638 a 0.80158944,0.23596571 0 0 1 -0.801589,0.235966 0.80158944,0.23596571 0 0 1 -0.801589,-0.235966 0.80158944,0.23596571 0 0 1 0.801589,-0.235965 0.80158944,0.23596571 0 0 1 0.801589,0.235965 z"
     id="path5215"
     inkscape:connector-curvature="0" />
  <path
     style="fill:#000080;fill-opacity:1;stroke:#000000;stroke-width:0.03823405;stroke-opacity:0.22110554"
     d="m 7.8472633,13.226453 a 0.80158944,0.23596571 0 0 1 -0.801589,0.235966 0.80158944,0.23596571 0 0 1 -0.801589,-0.235966 0.80158944,0.23596571 0 0 1 0.801589,-0.235965 0.80158944,0.23596571 0 0 1 0.801589,0.235965 z"
     id="path5217"
     inkscape:connector-curvature="0" />
  <path
     style="fill:#0085a6;fill-opacity:1;stroke:#000080;stroke-width:0.03823405;stroke-opacity:1"
     d="m 7.8055103,13.110622 v 0.04086 l -0.02739,-0.02091 z"
     id="path5219"
     inkscape:connector-curvature="0" />
  <path
     style="fill:#000080;fill-opacity:1;stroke:#000080;stroke-width:0.03823405;stroke-opacity:1"
     d="m 6.2832593,13.109225 0.0012,0.0438 0.02882,-0.02228 z"
     id="path5221"
     inkscape:connector-curvature="0" />
  <ellipse
     ry="0.30630687"
     rx="0.86099017"
     cy="11.97229"
     cx="7.082335"
     id="ellipse5223"
     style="fill:#ffff00;fill-opacity:1;stroke:#000000;stroke-width:0.01782647;stroke-opacity:0.36180905" />
  <ellipse
     ry="0.24475583"
     rx="0.76612926"
     cy="11.961426"
     cx="7.0758195"
     id="ellipse5225"
     style="fill:#ff0000;fill-opacity:1;stroke:#000000;stroke-width:0.03823405;stroke-opacity:0.35175883" />
  <path
     id="path5227"
     d="m 6.2155533,11.996185 0.05503,0.084 0.06372,0.04924 0.107171,0.04924 0.101378,0.03476 0.165101,0.03186 0.14193,0.02607 0.136136,0.01159 h 0.115861 0.139033 l 0.127447,-0.01738 0.130343,-0.01738 0.112965,-0.03766 0.12455,-0.04345 0.115861,-0.04924 0.07821,-0.07531 0.01448,-0.05793 -0.01159,0.220135 -0.01738,0.07821 -0.03766,0.084 -0.05214,0.04924 -0.03765,0.04345 -0.084,0.05793 -0.09848,0.04634 -0.084,0.03476 -0.07352,0.02607 -0.06064,0.01375 -0.06115,0.02104 -0.04227,0.02314 -0.0415,0.02896 -0.337883,-0.0029 -0.02556,-0.0286 -0.04216,-0.02625 -0.05191,-0.01848 -0.04547,-0.01646 -0.07821,-0.02027 -0.04055,-0.02317 -0.107171,-0.05214 -0.06372,-0.04634 -0.09269,-0.06372 -0.03765,-0.05503 -0.04345,-0.04634 -0.02028,-0.04924 -0.01738,-0.07241 -0.01448,-0.084 -0.0087,-0.05503 z"
     style="fill:#008000;fill-opacity:1;stroke:#000000;stroke-width:0.03823405;stroke-opacity:0.16582917"
     inkscape:connector-curvature="0" />
  <rect
     y="12.708729"
     x="6.9049211"
     height="0.10994791"
     width="0.33699852"
     id="rect5229"
     style="fill:#0088aa;fill-opacity:1;stroke:#000000;stroke-width:0.03823405;stroke-opacity:0.20100505" />
  <path
     style="fill:#008000;fill-opacity:1;stroke:#000080;stroke-width:0.0383404;stroke-opacity:0.26633169"
     d="m 7.8244183,13.055153 v 0.192396"
     id="path5231"
     inkscape:connector-curvature="0" />
  <path
     style="fill:#0085a6;fill-opacity:1;stroke:#000080;stroke-width:0.03823405;stroke-opacity:0.32160806"
     d="m 6.2635813,13.041748 0.0029,0.194186"
     id="path5233"
     inkscape:connector-curvature="0" />
  <path
     id="path5235"
     d="m 7.8472633,13.035123 a 0.80158944,0.23596571 0 0 1 -0.801589,0.235966 0.80158944,0.23596571 0 0 1 -0.801589,-0.235966 0.80158944,0.23596571 0 0 1 0.801589,-0.235965 0.80158944,0.23596571 0 0 1 0.801589,0.235965 z"
     style="fill:#0088aa;fill-opacity:1;stroke:#000000;stroke-width:0.03823405;stroke-opacity:0.18592966"
     inkscape:connector-curvature="0" />
  <path
     id="path5237"
     d="m 7.8093853,3.2832721 a 0.80158944,0.23596571 0 0 1 -0.80159,0.235965 0.80158944,0.23596571 0 0 1 -0.801589,-0.235965 0.80158944,0.23596571 0 0 1 0.801589,-0.235966 0.80158944,0.23596571 0 0 1 0.80159,0.235966 z"
     style="fill:#000080;fill-opacity:1;stroke:#000000;stroke-width:0.03823405;stroke-opacity:0.22110554"
     inkscape:connector-curvature="0" />
  <path
     id="path5239"
     d="m 7.7676313,3.1674401 v 0.04085 l -0.02739,-0.02091 z"
     style="fill:#0085a6;fill-opacity:1;stroke:#000080;stroke-width:0.03823405;stroke-opacity:1"
     inkscape:connector-curvature="0" />
  <path
     id="path5241"
     d="m 6.2453803,3.1660431 0.0012,0.0438 0.02882,-0.02228 z"
     style="fill:#000080;fill-opacity:1;stroke:#000080;stroke-width:0.03823405;stroke-opacity:1"
     inkscape:connector-curvature="0" />
  <ellipse
     style="fill:#ffff00;fill-opacity:1;stroke:#000000;stroke-width:0.01782647;stroke-opacity:0.36180905"
     id="ellipse5243"
     cx="7.0444551"
     cy="2.0291061"
     rx="0.86099017"
     ry="0.30630687" />
  <ellipse
     style="fill:#ff0000;fill-opacity:1;stroke:#000000;stroke-width:0.03823405;stroke-opacity:0.35175883"
     id="ellipse5245"
     cx="7.0379395"
     cy="2.0182457"
     rx="0.76612926"
     ry="0.24475583" />
  <path
     style="fill:#008000;fill-opacity:1;stroke:#000000;stroke-width:0.03823405;stroke-opacity:0.16582917"
     d="m 6.1776743,2.0530031 0.05503,0.084 0.06372,0.04924 0.107171,0.04924 0.101378,0.03476 0.165101,0.03186 0.14193,0.02607 0.136137,0.01159 h 0.11586 0.139033 l 0.127447,-0.01738 0.130343,-0.01738 0.112965,-0.03766 0.12455,-0.04345 0.115861,-0.04924 0.07821,-0.07531 0.01448,-0.05793 -0.01159,0.220136 -0.01738,0.07821 -0.03766,0.084 -0.05214,0.04924 -0.03766,0.04345 -0.084,0.05793 -0.09848,0.04634 -0.084,0.03476 -0.07352,0.02607 -0.06064,0.01375 -0.06115,0.02104 -0.04226,0.02314 -0.0415,0.02896 -0.337885,-0.0029 -0.02556,-0.0286 -0.04216,-0.02625 -0.05191,-0.01848 -0.04547,-0.01646 -0.07821,-0.02028 -0.04055,-0.02317 -0.107171,-0.05214 -0.06372,-0.04635 -0.09269,-0.06372 -0.03765,-0.05503 -0.04345,-0.04634 -0.02028,-0.04924 -0.01738,-0.07241 -0.01448,-0.084 -0.0087,-0.05503 z"
     id="path5247"
     inkscape:connector-curvature="0" />
  <rect
     style="fill:#0088aa;fill-opacity:1;stroke:#000000;stroke-width:0.03823405;stroke-opacity:0.20100505"
     id="rect5249"
     width="0.33699852"
     height="0.10994791"
     x="6.8670487"
     y="2.7655487" />
  <path
     id="path5251"
     d="m 7.7865403,3.1119711 v 0.192396"
     style="fill:#008000;fill-opacity:1;stroke:#000080;stroke-width:0.0383404;stroke-opacity:0.26633169"
     inkscape:connector-curvature="0" />
  <path
     id="path5253"
     d="m 6.2257023,3.0985661 0.0029,0.194186"
     style="fill:#0085a6;fill-opacity:1;stroke:#000080;stroke-width:0.03823405;stroke-opacity:0.32160806"
     inkscape:connector-curvature="0" />
  <path
     style="fill:#0088aa;fill-opacity:1;stroke:#000000;stroke-width:0.03823405;stroke-opacity:0.18592966"
     d="m 7.8093853,3.0919411 a 0.80158944,0.23596571 0 0 1 -0.80159,0.235966 0.80158944,0.23596571 0 0 1 -0.801589,-0.235966 0.80158944,0.23596571 0 0 1 0.801589,-0.235966 0.80158944,0.23596571 0 0 1 0.80159,0.235966 z"
     id="path5255"
     inkscape:connector-curvature="0" />
  <path
     style="fill:#000080;fill-opacity:1;stroke:#000000;stroke-width:0.03823405;stroke-opacity:0.22110554"
     d="m 7.8093853,5.6317561 a 0.80158944,0.23596571 0 0 1 -0.80159,0.235966 0.80158944,0.23596571 0 0 1 -0.801589,-0.235966 0.80158944,0.23596571 0 0 1 0.801589,-0.235965 0.80158944,0.23596571 0 0 1 0.80159,0.235965 z"
     id="path5257"
     inkscape:connector-curvature="0" />
  <path
     style="fill:#0085a6;fill-opacity:1;stroke:#000080;stroke-width:0.03823405;stroke-opacity:1"
     d="m 7.7676313,5.5159251 v 0.04085 l -0.02739,-0.02091 z"
     id="path5259"
     inkscape:connector-curvature="0" />
  <path
     style="fill:#000080;fill-opacity:1;stroke:#000080;stroke-width:0.03823405;stroke-opacity:1"
     d="m 6.2453803,5.5145281 0.0012,0.0438 0.02882,-0.02229 z"
     id="path5261"
     inkscape:connector-curvature="0" />
  <ellipse
     ry="0.30630687"
     rx="0.86099017"
     cy="4.377594"
     cx="7.0444551"
     id="ellipse5263"
     style="fill:#ffff00;fill-opacity:1;stroke:#000000;stroke-width:0.01782647;stroke-opacity:0.36180905" />
  <ellipse
     ry="0.24475583"
     rx="0.76612926"
     cy="4.3667297"
     cx="7.0379395"
     id="ellipse5265"
     style="fill:#ff0000;fill-opacity:1;stroke:#000000;stroke-width:0.03823405;stroke-opacity:0.35175883" />
  <path
     id="path5267"
     d="m 6.1776743,4.4014881 0.05503,0.084 0.06372,0.04924 0.107171,0.04924 0.101378,0.03476 0.165101,0.03186 0.14193,0.02607 0.136137,0.01159 h 0.11586 0.139033 l 0.127447,-0.01738 0.130343,-0.01738 0.112965,-0.03765 0.12455,-0.04345 0.115861,-0.04924 0.07821,-0.07531 0.01448,-0.05793 -0.01159,0.220136 -0.01738,0.07821 -0.03766,0.084 -0.05214,0.04924 -0.03766,0.04345 -0.084,0.05793 -0.09848,0.04634 -0.084,0.03476 -0.07352,0.02607 -0.06064,0.01375 -0.06115,0.02104 -0.04226,0.02314 -0.0415,0.02896 -0.337885,-0.0029 -0.02556,-0.0286 -0.04216,-0.02625 -0.05191,-0.01848 -0.04547,-0.01646 -0.07821,-0.02027 -0.04055,-0.02317 -0.107171,-0.05214 -0.06372,-0.04635 -0.09269,-0.06372 -0.03765,-0.05503 -0.04345,-0.04634 -0.02028,-0.04924 -0.01738,-0.07241 -0.01448,-0.084 -0.0087,-0.05503 z"
     style="fill:#008000;fill-opacity:1;stroke:#000000;stroke-width:0.03823405;stroke-opacity:0.16582917"
     inkscape:connector-curvature="0" />
  <rect
     y="5.1140327"
     x="6.8670487"
     height="0.10994791"
     width="0.33699852"
     id="rect5269"
     style="fill:#0088aa;fill-opacity:1;stroke:#000000;stroke-width:0.03823405;stroke-opacity:0.20100505" />
  <path
     style="fill:#008000;fill-opacity:1;stroke:#000080;stroke-width:0.0383404;stroke-opacity:0.26633169"
     d="m 7.7865403,5.4604561 v 0.192396"
     id="path5271"
     inkscape:connector-curvature="0" />
  <path
     style="fill:#0085a6;fill-opacity:1;stroke:#000080;stroke-width:0.03823405;stroke-opacity:0.32160806"
     d="m 6.2257023,5.4470511 0.0029,0.194186"
     id="path5273"
     inkscape:connector-curvature="0" />
  <path
     id="path5275"
     d="m 7.8093853,5.4404261 a 0.80158944,0.23596571 0 0 1 -0.80159,0.235966 0.80158944,0.23596571 0 0 1 -0.801589,-0.235966 0.80158944,0.23596571 0 0 1 0.801589,-0.235966 0.80158944,0.23596571 0 0 1 0.80159,0.235966 z"
     style="fill:#0088aa;fill-opacity:1;stroke:#000000;stroke-width:0.03823405;stroke-opacity:0.18592966"
     inkscape:connector-curvature="0" />
  <path
     style="fill:#000080;fill-opacity:1;stroke:#000000;stroke-width:0.05216411;stroke-opacity:0.22110554"
     d="m 5.9487203,8.4573291 a 1.0936378,0.32193665 0 0 1 -1.093637,0.321936 1.0936378,0.32193665 0 0 1 -1.093638,-0.321936 1.0936378,0.32193665 0 0 1 1.093638,-0.321938 1.0936378,0.32193665 0 0 1 1.093637,0.321938 z"
     id="path5277"
     inkscape:connector-curvature="0" />
  <path
     style="fill:#0085a6;fill-opacity:1;stroke:#000080;stroke-width:0.05216411;stroke-opacity:1"
     d="m 5.8917553,8.2992951 v 0.05574 l -0.03738,-0.02852 z"
     id="path5279"
     inkscape:connector-curvature="0" />
  <path
     style="fill:#000080;fill-opacity:1;stroke:#000080;stroke-width:0.05216411;stroke-opacity:1"
     d="m 3.8148923,8.2973891 0.0016,0.05976 0.03932,-0.0304 z"
     id="path5281"
     inkscape:connector-curvature="0" />
  <ellipse
     ry="0.41790566"
     rx="1.1746804"
     cy="6.7462273"
     cx="4.9051042"
     id="ellipse5283"
     style="fill:#ffff00;fill-opacity:1;stroke:#000000;stroke-width:0.02432131;stroke-opacity:0.36180905" />
  <ellipse
     ry="0.33392933"
     rx="1.0452582"
     cy="6.7314072"
     cx="4.8962083"
     id="ellipse5285"
     style="fill:#ff0000;fill-opacity:1;stroke:#000000;stroke-width:0.05216411;stroke-opacity:0.35175883" />
  <path
     id="path5287"
     d="m 3.7225173,6.7788291 0.07508,0.114602 0.08694,0.06718 0.146218,0.06718 0.138314,0.04742 0.225254,0.04347 0.19364,0.03557 0.185735,0.01581 h 0.158073 0.189688 l 0.17388,-0.02371 0.177832,-0.02371 0.154122,-0.05137 0.169928,-0.05928 0.158074,-0.06718 0.106699,-0.102746 0.01976,-0.07904 -0.01581,0.300338 -0.02371,0.1067 -0.05138,0.114604 -0.07113,0.06718 -0.05137,0.05928 -0.114602,0.07904 -0.134363,0.06323 -0.114603,0.04742 -0.100302,0.03557 -0.08274,0.01875 -0.08343,0.02871 -0.05766,0.03158 -0.05662,0.03952 -0.460988,-0.004 -0.03488,-0.03902 -0.05752,-0.03582 -0.07082,-0.02522 -0.06204,-0.02246 -0.106699,-0.02766 -0.05533,-0.03161 -0.146217,-0.07113 -0.08694,-0.06323 -0.126458,-0.08694 -0.05137,-0.07509 -0.05928,-0.06323 -0.02766,-0.06718 -0.02371,-0.0988 -0.01976,-0.114604 -0.01186,-0.07508 z"
     style="fill:#008000;fill-opacity:1;stroke:#000000;stroke-width:0.05216411;stroke-opacity:0.16582917"
     inkscape:connector-curvature="0" />
  <rect
     y="7.7509766"
     x="4.663054"
     height="0.15000597"
     width="0.45977941"
     id="rect5289"
     style="fill:#0088aa;fill-opacity:1;stroke:#000000;stroke-width:0.05216411;stroke-opacity:0.20100505" />
  <path
     style="fill:#008000;fill-opacity:1;stroke:#000080;stroke-width:0.05230922;stroke-opacity:0.26633169"
     d="m 5.9175523,8.2236161 v 0.262493"
     id="path5291"
     inkscape:connector-curvature="0" />
  <path
     style="fill:#0085a6;fill-opacity:1;stroke:#000080;stroke-width:0.05216411;stroke-opacity:0.32160806"
     d="m 3.7880443,8.2053271 0.0039,0.264936"
     id="path5293"
     inkscape:connector-curvature="0" />
  <path
     id="path5295"
     d="m 5.9487203,8.1962891 a 1.0936378,0.32193665 0 0 1 -1.093637,0.321937 1.0936378,0.32193665 0 0 1 -1.093638,-0.321937 1.0936378,0.32193665 0 0 1 1.093638,-0.321936 1.0936378,0.32193665 0 0 1 1.093637,0.321936 z"
     style="fill:#0088aa;fill-opacity:1;stroke:#000000;stroke-width:0.05216411;stroke-opacity:0.18592966"
     inkscape:connector-curvature="0" />
</svg>
