<?xml version="1.0" encoding="UTF-8" standalone="no"?>
<svg
   xmlns:osb="http://www.openswatchbook.org/uri/2009/osb"
   xmlns:dc="http://purl.org/dc/elements/1.1/"
   xmlns:cc="http://creativecommons.org/ns#"
   xmlns:rdf="http://www.w3.org/1999/02/22-rdf-syntax-ns#"
   xmlns:svg="http://www.w3.org/2000/svg"
   xmlns="http://www.w3.org/2000/svg"
   xmlns:xlink="http://www.w3.org/1999/xlink"
   xmlns:sodipodi="http://sodipodi.sourceforge.net/DTD/sodipodi-0.dtd"
   xmlns:inkscape="http://www.inkscape.org/namespaces/inkscape"
   viewBox="0 0 160 250"
   height="250"
   width="160"
   id="svg815"
   version="1.1"
   sodipodi:docname="cups10.svg"
   inkscape:version="0.92.5 (2060ec1f9f, 2020-04-08)">
  <sodipodi:namedview
     pagecolor="#ffffff"
     bordercolor="#666666"
     borderopacity="1"
     objecttolerance="10"
     gridtolerance="10"
     guidetolerance="10"
     inkscape:pageopacity="0"
     inkscape:pageshadow="2"
     inkscape:window-width="1918"
     inkscape:window-height="1017"
     id="namedview7762"
     showgrid="false"
     inkscape:zoom="10.745351"
     inkscape:cx="65.606061"
     inkscape:cy="235.45455"
     inkscape:window-x="0"
     inkscape:window-y="0"
     inkscape:window-maximized="1"
     inkscape:current-layer="svg815" />
  <metadata
     id="metadata821">
    <rdf:RDF>
      <cc:Work
         rdf:about="">
        <dc:format>image/svg+xml</dc:format>
        <dc:type
           rdf:resource="http://purl.org/dc/dcmitype/StillImage" />
        <dc:title></dc:title>
      </cc:Work>
    </rdf:RDF>
  </metadata>
  <defs
     id="defs819">
    <linearGradient
       id="linearGradient3804"
       osb:paint="solid">
      <stop
         style="stop-color:#000000;stop-opacity:1;"
         offset="0"
         id="stop3802" />
    </linearGradient>
    <linearGradient
       gradientUnits="userSpaceOnUse"
       y2="71.008263"
       x2="88.849586"
       y1="58.644627"
       x1="82.105782"
       id="linearGradient1063"
       xlink:href="#linearGradient882"
       gradientTransform="matrix(0.0625,0,0,0.0625,-0.08547109,8.2080078e-7)" />
    <linearGradient
       id="linearGradient882">
      <stop
         style="stop-color:#d16208;stop-opacity:1"
         offset="0"
         id="stop878" />
      <stop
         style="stop-color:#d16250;stop-opacity:0;"
         offset="1"
         id="stop880" />
    </linearGradient>
    <linearGradient
       gradientUnits="userSpaceOnUse"
       y2="68.472336"
       x2="56.128345"
       y1="63.697319"
       x1="61.166279"
       id="linearGradient876"
       xlink:href="#linearGradient882"
       gradientTransform="matrix(0.0625,0,0,0.0625,-0.08547109,8.2080078e-7)" />
    <linearGradient
       xlink:href="#linearGradient846"
       id="linearGradient848"
       x1="72.37397"
       y1="53.171356"
       x2="72.19931"
       y2="45.564011"
       gradientUnits="userSpaceOnUse"
       gradientTransform="matrix(0.0625,0,0,0.0625,110,-2.6855469e-7)" />
    <linearGradient
       id="linearGradient846">
      <stop
         style="stop-color:#423abf;stop-opacity:1;"
         offset="0"
         id="stop842" />
      <stop
         style="stop-color:#423abf;stop-opacity:0;"
         offset="1"
         id="stop844" />
    </linearGradient>
  </defs>
  <flowRoot
     xml:space="preserve"
     id="flowRoot100"
     style="font-style:normal;font-variant:normal;font-weight:bold;font-stretch:normal;font-size:1px;line-height:1.25;font-family:'DejaVu Sans';-inkscape-font-specification:'DejaVu Sans Bold';letter-spacing:0px;word-spacing:0px;fill:#000000;fill-opacity:1;stroke:none;stroke-width:0.0625"><flowRegion
       style="stroke-width:0.0625"
       id="flowRegion102"><rect
         style="stroke-width:0.00390625"
         id="rect104"
         width="1.5151515"
         height="1.3636364"
         x="0.66287881"
         y="0.73863637" /></flowRegion><flowPara
       style="stroke-width:0.0625"
       id="flowPara106" /></flowRoot>  <rect
     style="fill:#ffffff;fill-opacity:1;stroke:#1a1a1a;stroke-width:0.0625;stroke-opacity:1"
     id="cups10"
     width="10"
     height="15.625"
     x="-0.085470088"
     y="0" />
  <rect
     style="fill:none;fill-opacity:1;stroke:#1a1a1a;stroke-width:0.0625;stroke-opacity:1"
     id="rect108-85"
     width="7.2537889"
     height="12.973484"
     x="1.259226"
     y="1.3068199" />
  <g
     id="flowRoot915-8"
     style="font-style:normal;font-variant:normal;font-weight:bold;font-stretch:normal;font-size:16px;line-height:1.25;font-family:'DejaVu Sans';-inkscape-font-specification:'DejaVu Sans Bold';text-align:start;letter-spacing:0px;word-spacing:0px;text-anchor:start;fill:#000000;fill-opacity:1;stroke:none"
     transform="matrix(0.0625,0,0,0.0625,0.10392291,-1.7919922e-7)"
     aria-label="10">
    <path
       id="path7823"
       d="M 4.90625,16.623047 H 7.5625 V 9.0839844 l -2.7265625,0.5625 v -2.046875 l 2.7109375,-0.5625 h 2.859375 v 9.5859376 h 2.65625 v 2.078125 H 4.90625 Z"
       inkscape:connector-curvature="0" />
    <path
       id="path7825"
       d="m 21.523437,12.857422 q 0,-2.1875 -0.414062,-3.0781251 -0.40625,-0.8984375 -1.375,-0.8984375 -0.96875,0 -1.382813,0.8984375 -0.414062,0.8906251 -0.414062,3.0781251 0,2.210937 0.414062,3.117187 0.414063,0.90625 1.382813,0.90625 0.960937,0 1.375,-0.90625 0.414062,-0.90625 0.414062,-3.117187 z m 3.007813,0.02344 q 0,2.898438 -1.25,4.476563 -1.25,1.570312 -3.546875,1.570312 -2.304688,0 -3.554688,-1.570312 -1.249999,-1.578125 -1.249999,-4.476563 0,-2.9062496 1.249999,-4.4765621 1.25,-1.578125 3.554688,-1.578125 2.296875,0 3.546875,1.578125 1.25,1.5703125 1.25,4.4765621 z"
       inkscape:connector-curvature="0" />
  </g>
  <path
     id="path927"
     d="m 3.6503419,3.6156338 -0.264049,-0.190702 -0.05868,-0.141805 -0.01467,-0.127135 0.02445,-0.102686 0.06357,-0.107575 0.112466,-0.09291 0.141804,-0.0978 0.117356,-0.07824 0.0978,-0.02445 0.122245,-0.01956 0.132025,-0.02445 0.05379,-0.0098 0.0049,-0.03912 0.02445,-0.08313 0.02934,-0.06846 0.07335,-0.0489 0.122245,-0.0098 0.136914,0.0098 0.176033,0.01467 0.117356,0.02934 0.07824,0.06357 0.112465,0.09291 0.03912,0.07824 0.02934,0.09291 0.02445,0.09291 -0.0098,0.08313 0.01467,0.06357 0.0978,0.01956 0.117355,0.06357 0.08313,0.06357 0.08802,0.07335 0.07335,0.06357 0.03912,0.03423 0.05868,0.07824 v 0.06846 l -0.01467,0.05868 -0.03912,0.07335 -0.07824,0.05379 -0.06357,0.03423 -0.117355,0.01956 -0.112466,-0.0049 -0.136914,-0.151584 -0.09291,-0.107576 -0.07824,-0.0978 -0.05379,-0.0098 -0.07335,-0.04401 -0.02445,-0.04401 -0.08313,-0.08313 -0.112466,-0.02934 h -0.08313 l -0.127135,-0.0049 h -0.156473 l -0.08313,0.02934 -0.122245,0.05379 -0.09291,0.03912 -0.0978,0.06846 v 0.07824 l -0.02445,0.05379 -0.05868,0.03912 -0.05379,0.0489 z"
     style="fill:#008000;fill-opacity:0.61780108;stroke:#000000;stroke-width:0.0625;stroke-opacity:0.22110554"
     inkscape:connector-curvature="0" />
  <path
     id="path929"
     d="m 4.4445589,3.0850838 c -0.06153,-0.002 -0.12293,7.93e-4 -0.182983,0.01221 -0.105563,0.02006 -0.204034,0.07081 -0.29834,0.122314 -0.03492,0.01907 -0.0794,0.03307 -0.09778,0.06836 -0.01204,0.02313 0.0055,0.05276 0,0.07825 -0.0042,0.01925 -0.02441,0.05383 -0.02441,0.05383 l 0.0098,0.176026 0.01953,0.185791 0.04407,0.136963 0.03418,0.136841 0.04407,0.0636 0.04883,0.127197 0.04407,0.03906 0.08801,0.04895 0.0049,0.127075 0.02441,0.0343 0.08801,0.08313 0.08801,0.03906 h 0.07336 l 0.176025,-0.04395 0.07336,-0.02454 0.07336,-0.04883 0.05383,-0.0343 0.03906,-0.102661 -0.0293,-0.08801 0.0049,-0.112426 -0.01953,-0.141846 0.05371,-0.03906 0.0636,-0.0343 0.05383,-0.0636 -0.005,-0.09778 -0.03418,-0.08801 -0.0293,-0.07336 -0.03918,-0.03906 -0.0049,-0.09289 c 0,0 -0.0047,-0.07189 -0.0098,-0.107544 -0.006,-0.04273 -0.02441,-0.127197 -0.02441,-0.127197 0,0 -0.06057,-0.0975 -0.107544,-0.127076 -0.03279,-0.02064 -0.07415,-0.02423 -0.112549,-0.02942 -0.06058,-0.0082 -0.12219,-0.01506 -0.183716,-0.01709 z"
     style="fill:#ffaaaa;fill-opacity:0.61780108;stroke:#000000;stroke-width:0.0625;stroke-opacity:0.22110554"
     inkscape:connector-curvature="0" />
  <path
     id="path934"
     d="m 3.9975189,3.3271358 h 0.08802 l 0.06846,0.0098 0.05379,0.03423"
     style="fill:#ffaaaa;fill-opacity:0.61780108;stroke:#000000;stroke-width:0.0625;stroke-opacity:0.22110554"
     inkscape:connector-curvature="0" />
  <path
     id="path936"
     d="m 4.4424909,3.3760338 0.04401,-0.03423 h 0.06357 0.05379 0.03423"
     style="fill:#ffaaaa;fill-opacity:0.61780108;stroke:#000000;stroke-width:0.0625;stroke-opacity:0.22110554"
     inkscape:connector-curvature="0" />
  <path
     id="path938"
     d="m 4.2028909,3.4689398 -0.185813,-0.0049"
     style="fill:#ffaaaa;fill-opacity:0.61780108;stroke:#000000;stroke-width:0.0625;stroke-opacity:0.22110554"
     inkscape:connector-curvature="0" />
  <path
     id="path940"
     d="m 4.4522709,3.4689398 0.0489,0.03912 0.06846,0.0049 h 0.05868 l 0.02934,-0.01956 -0.06846,-0.03423"
     style="fill:#ffaaaa;fill-opacity:0.61780108;stroke:#000000;stroke-width:0.0625;stroke-opacity:0.22110554"
     inkscape:connector-curvature="0" />
  <path
     id="path942"
     d="m 4.2615679,3.4249318 -0.01956,0.08313 -0.04401,0.06357 -0.06357,0.06846 -0.03423,0.03423 -0.0098,0.03912 0.03423,0.06846 0.04401,0.0049 h 0.07824 l 0.06357,-0.0049 0.02445,-0.05868"
     style="fill:none;fill-opacity:0.61780108;stroke:#000000;stroke-width:0.0625;stroke-opacity:0.22110554"
     inkscape:connector-curvature="0" />
  <path
     id="path944"
     d="m 4.0904249,3.9774798 0.08313,-0.04401 h 0.06357 l 0.08313,0.0049 0.03912,0.02934 -0.05379,0.02445 -0.09291,0.0049 z"
     style="fill:#ffaaaa;fill-opacity:0.61780108;stroke:#000000;stroke-width:0.0625;stroke-opacity:0.22110554"
     inkscape:connector-curvature="0" />
  <path
     id="path949"
     d="m 4.1735629,4.3344728 -0.264727,0.01539 -0.142653,0.01646 -0.192034,0.02743 -0.186548,0.09327 -0.137167,0.07681 -0.02743,0.02195 -0.378581,0.241414 -0.252388,0.09876 -0.148141,0.120707 -0.11522,0.208494 -0.09327,0.142654 -0.170087,0.208494 -0.104247,0.142653 -0.04389,0.07133 -0.01646,0.07681 -0.06035,0.07133 -0.109734,0.104247 -0.02195,0.104247 -0.06035,0.153627 -0.04389,0.13168 -0.03292,0.197521 -0.03292,0.362121 -0.02195,0.307255 v 0.31274 l -0.01097,0.186548 0.06035,0.1646 0.08779,0.181061 0.126194,0.137167 0.109733,0.148141 0.115221,0.142653 0.07681,0.09876 0.06035,0.07681 0.04389,0.03841 0.01646,-0.510262 0.07681,-0.543181 0.04938,-0.159115 -0.0055,-0.170086 -0.01097,-0.246902 0.01097,-0.1646 0.04938,-0.109733 0.03292,-0.137168 0.05487,-0.126194 0.142654,-0.170087 0.06584,-0.06584 h 0.07133 l 0.164601,0.05487 0.08779,-0.159114 0.01646,-0.203007 v -0.170087 -0.181061 l -0.04938,-0.09327 -0.03292,-0.137168 0.03841,-0.07681 0.07133,-0.03292 0.03292,-0.01097 0.137168,-0.06035 0.159113,-0.06584 0.109734,-0.06035 0.06035,-0.05487 0.06035,-0.06035 0.01097,-0.120707 0.01646,-0.120708 0.09327,-0.137167 0.04389,-0.104247 0.126193,-0.06035 0.137168,-0.0055 0.06035,-0.01097 h 0.04938 l 0.04466,-0.08035 z"
     style="fill:#ff0000;fill-opacity:0.61780108;stroke:#000000;stroke-width:0.0625;stroke-opacity:0.22110554"
     inkscape:connector-curvature="0" />
  <path
     id="path957"
     d="m 2.1860169,8.8160238 0.422475,0.411501 0.01097,-0.323714 0.03841,-0.274334 -0.0055,-0.219467 -0.09876,-0.142654 0.09876,-0.07133 0.01646,-0.307254 0.04389,-0.213982 -0.04389,-0.21398 0.09876,-0.142654 0.05487,-0.164601 -0.01646,-0.192033 0.05487,-0.120707 0.08779,-0.109734 0.06035,-0.03841 0.01646,-0.109734 -0.120707,-0.11522 -0.164601,-0.05487 h -0.07133 l -0.208494,0.235927 -0.05487,0.126194 -0.0823,0.246901 -0.01097,0.1646 0.01646,0.416988 -0.04938,0.159115 -0.07681,0.543181 -0.01646,0.510262"
     style="fill:#d4aa00;fill-opacity:0.61780108;stroke:#000000;stroke-width:0.0625;stroke-opacity:0.22110554"
     inkscape:connector-curvature="0" />
  <path
     id="path959"
     d="m 2.6084919,9.2275248 0.11568,0.115634 0.159412,0.09465 0.109596,0.07971 0.05978,0.02491 0.169376,-0.104615 0.05978,-0.164394 0.06974,-0.129522 0.0548,-0.154431 0.04982,-0.199265 v -0.144468 l -0.02491,-0.219192 0.01,-0.229155 -0.02989,-0.18432 0.03985,-0.07473 -0.02989,-0.15443 -0.02989,-0.159413 v -0.169375 -0.139486 l -0.01,-0.09465 -0.01993,-0.03487 -0.119559,0.02491 -0.09963,0.06974 -0.144468,0.005 -0.129522,0.02989 -0.199794,0.145179 0.04389,0.213981 -0.04389,0.213981 -0.01646,0.307254 -0.09876,0.07133 0.09876,0.142654 0.0055,0.219467 -0.03841,0.274334 -0.01097,0.323715"
     style="fill:#499ca7;fill-opacity:1;stroke:#000000;stroke-width:0.0625;stroke-opacity:0.22110554"
     inkscape:connector-curvature="0" />
  <path
     id="path963"
     d="m 3.3618209,7.1861108 0.02989,-0.07472 0.01494,-0.08469 -0.005,-0.104614 v -0.08469 -0.05978 l -0.01495,-0.0548 h -0.04483 -0.129522 l -0.03985,0.02491 -0.08469,0.03985 -0.07881,-0.0949 -0.06035,0.03841 -0.08779,0.109734 -0.05487,0.120707 0.01646,0.192033 -0.05487,0.164601 -0.09876,0.142653 0.199794,-0.145179 0.129522,-0.02989 0.144468,-0.005 0.09963,-0.06974 z"
     style="fill:#589866;fill-opacity:1;stroke:#000000;stroke-width:0.0625;stroke-opacity:0.22110554"
     inkscape:connector-curvature="0" />
  <path
     id="path965"
     d="m 3.4465089,7.0615698 0.06974,0.04483 h 0.14945 0.119559 l 0.07971,-0.03985 0.134504,-0.01993 0.104614,-0.01 0.03487,-0.01993 0.06476,-0.09963 -0.01494,-0.0548 v -0.0548 l -0.01495,-0.06476 -0.03487,-0.04483 -0.03487,-0.05978 -0.0548,-0.03487 h -0.08967 -0.144467 l -0.03985,0.03487 -0.07971,0.0548 -0.08469,0.02989 -0.114578,0.02491 -0.03985,0.02491 -0.0548,0.005 z"
     style="fill:#f9beb5;fill-opacity:1;stroke:#000000;stroke-width:0.0625;stroke-opacity:0.22110554"
     inkscape:connector-curvature="0" />
  <path
     id="path967"
     d="m 5.4774309,4.6245408 0.137282,0.08356 0.143251,0.02388 0.214876,0.02984 0.08953,0.06566 0.167126,0.02984 0.06566,0.131313 0.179063,0.268595 0.08953,0.07162 0.107438,0.131313 0.14922,0.179064 0.149219,0.149219 0.07759,0.03581 0.10147,0.02984 0.125344,0.137282 0.07759,0.149219 0.006,0.155188 0.0955,0.220845 0.10147,0.226814 0.08953,0.202938 0.05372,0.137282 0.10147,0.179063 0.07162,0.107439 0.006,0.08953 v 0.411845 l -0.04775,0.214877 -0.08953,0.08953 -0.119375,0.131313 -0.07162,0.07162 -0.08953,0.08356 -0.04775,-0.04178 v -0.143252 l 0.01194,-0.208907 v -0.149219 l -0.03581,-0.08953 -0.06566,-0.101469 -0.02388,-0.07759 0.06566,-0.131313 -0.07163,-0.179064 -0.07162,-0.167125 -0.04775,-0.155189 -0.01791,-0.131313 v -0.14325 -0.214877 l -0.03581,-0.155188 -0.113406,-0.185032 -0.0955,-0.14325 -0.179063,-0.125345 -0.125345,-0.07163 -0.137282,-0.08953 -0.08356,0.03581 -0.07163,-0.202938 -0.06566,-0.161157 -0.07759,-0.185033 -0.03581,-0.161157 -0.05372,-0.14325 -0.08953,-0.08356 -0.328282,-0.0955 z"
     style="fill:#f5231e;fill-opacity:1;stroke:#000000;stroke-width:0.0625;stroke-opacity:0.22110554"
     inkscape:connector-curvature="0" />
  <path
     id="path969"
     d="m 7.4113159,8.4206848 -0.02984,0.08953 -0.02984,0.101469 -0.07759,0.04178 -0.07163,0.03581 -0.137281,0.101468 -0.06566,-0.01791 0.04775,-0.155188 0.01194,-0.131313 -0.01791,-0.191001 v -0.226814 l -0.04775,-0.226813 -0.07759,-0.131313 -0.07759,-0.155189 -0.03581,-0.185031 -0.05969,-0.155189 -0.01194,-0.143251 -0.02387,-0.14325 -0.05372,-0.113407 v -0.256658 -0.202938 l -0.04775,-0.107438 -0.107437,-0.173094 -0.08356,-0.119376 -0.04775,-0.07759 0.01791,-0.08356 0.08356,-0.03581 0.262627,0.161157 0.179063,0.125345 0.208907,0.328282 0.03581,0.155188 v 0.358127 l 0.01791,0.131313 0.04775,0.155189 0.14325,0.346189 -0.06566,0.131313 0.02388,0.07759 0.06566,0.101469 0.03581,0.08953 z"
     style="fill:#dfb523;fill-opacity:1;stroke:#000000;stroke-width:0.0625;stroke-opacity:0.22110554"
     inkscape:connector-curvature="0" />
  <path
     id="path971"
     d="m 6.9994699,8.7728418 -0.107438,0.08356 -0.107438,0.01791 -0.191001,0.01791 -0.143251,-0.10147 -0.137282,-0.173094 -0.08953,-0.155188 -0.113407,-0.173095 -0.08356,-0.214876 -0.06566,-0.214876 -0.02388,-0.268595 v -0.179063 l -0.01194,-0.185033 v -0.167125 -0.155188 -0.191002 l -0.01791,-0.107437 0.03581,-0.04178 0.137282,0.05969 0.08356,0.125344 0.161157,0.0955 0.125344,0.05372 0.107438,0.02388 0.05969,-0.04775 0.03581,-0.05969 0.05372,0.113407 0.02387,0.14325 0.01194,0.143251 0.05969,0.155189 0.03581,0.185031 0.07759,0.155189 0.07759,0.131313 0.04775,0.226813 v 0.226814 l 0.01791,0.191001 -0.01194,0.131313 z"
     style="fill:#499ca7;fill-opacity:1;stroke:#000000;stroke-width:0.0625;stroke-opacity:0.22110554"
     inkscape:connector-curvature="0" />
  <path
     id="path973"
     d="m 6.3667799,5.8779848 -0.107438,0.05372 -0.14922,-0.02388 h -0.04775 l -0.107438,-0.04178 -0.05372,0.04178 -0.04178,0.131313 0.006,0.119376 -0.02984,0.06566 -0.03581,0.03581 -0.05372,0.04775 -0.01194,0.107439 0.113407,0.06566 0.0955,0.08356 0.137282,0.05969 0.08356,0.125344 0.161157,0.0955 0.125344,0.05372 0.107438,0.02388 0.05969,-0.04775 0.03581,-0.05969 v -0.459596 l -0.04775,-0.107438 z"
     style="fill:#589866;fill-opacity:1;stroke:#000000;stroke-width:0.0625;stroke-opacity:0.22110554"
     inkscape:connector-curvature="0" />
  <path
     id="path975"
     d="m 5.7460259,6.3077358 -0.113406,0.02985 -0.173095,-0.02388 h -0.161157 l -0.107438,-0.006 -0.05372,-0.05969 -0.006,-0.05969 -0.006,-0.0955 v -0.101469 l -0.01791,-0.07163 -0.02387,-0.04178 -0.006,-0.04178 0.05372,-0.04775 0.04775,-0.02984 0.05969,-0.006 0.0955,0.03581 0.155188,0.02388 0.119376,0.01194 0.08953,0.04178 0.01194,0.02984 0.131313,0.04775 0.01791,0.0955 0.006,0.119376 -0.02984,0.06566 z"
     style="fill:#f9beb5;fill-opacity:1;stroke:#000000;stroke-width:0.0625;stroke-opacity:0.22110554"
     inkscape:connector-curvature="0" />
  <path
     id="path979"
     d="m 4.1784459,4.4615478 -0.04466,0.08035 h -0.04938 l -0.06035,0.01097 -0.137168,0.0055 -0.126193,0.06035 -0.04389,0.104247 -0.04793,0.0734 0.09722,0.05792 0.103426,0.01034 0.01034,0.06619 0.0083,0.09308 0.04758,0.04344 0.08067,0.02069 0.06826,-0.02482 0.05585,-0.02069 0.03103,-0.03103 0.04551,-0.03103 h 0.04137 l 0.0393,0.01655 0.02896,0.0724 0.06412,0.05171 0.04551,0.04758 0.06826,0.02896 0.02069,0.0331 0.01862,0.02275 0.03103,0.02896 0.06619,0.0083 0.01655,-0.04137 0.02689,-0.01862 0.03516,-0.01241 0.0083,-0.03103 0.01241,-0.04137 0.02275,-0.02896 0.01241,-0.03516 0.0062,-0.03103 0.0083,-0.03516 0.0083,-0.01241 0.01655,-0.02069 0.04137,0.01655 0.03723,0.02069 0.04758,0.01655 0.05378,0.0021 h 0.07033 l 0.0331,-0.01448 0.02275,-0.03723 0.01241,-0.03103 v -0.0393 l -0.01655,-0.01862 -0.0331,-0.01862 -0.0062,-0.04137 v -0.02275 l 0.02275,-0.02069 0.02689,-0.01241 0.04964,-0.0041 0.03723,-0.02069 0.02689,-0.02896 0.01034,-0.02896 0.01241,-0.0331 -0.04964,-0.02689 -0.02069,-0.03516 -0.0393,-0.01448 -0.05171,-0.0331 -0.03103,-0.04137 -0.06826,-0.03723 -0.04758,-0.04137 -0.08759,-0.07267 -0.03906,0.102661 -0.127197,0.08313 -0.24939,0.06848 h -0.07336 l -0.08801,-0.03906 -0.08801,-0.08313 z"
     style="fill:#ff5555;fill-opacity:1;stroke:#000000;stroke-width:0.0625;stroke-opacity:0.22110554"
     inkscape:connector-curvature="0" />
  <path
     id="path981"
     d="m 3.6688729,4.7963568 -0.04534,0.06377 0.0288,0.09137 0.03723,0.05171 0.05171,0.0331 0.0393,0.04758 0.01034,0.03516 0.01448,0.03516 0.04758,0.04137 0.04758,0.05999 0.101357,0.0062 0.07033,-0.01862 0.05792,-0.01862 0.02482,-0.01448 h 0.0724 l 0.06826,0.0021 0.04137,0.02275 0.04344,0.05171 0.04758,0.03723 0.06826,0.03516 0.04344,0.01862 0.04551,-0.0083 0.05171,-0.01034 0.06619,0.0021 0.02896,-0.02069 0.04757,-0.02896 0.02689,-0.03516 0.02275,-0.04137 0.03103,-0.02482 0.03103,-0.03103 0.0041,-0.02482 0.04344,-0.0083 0.06412,0.0021 h 0.04137 l 0.04551,0.0062 h 0.05171 l 0.05378,-0.0021 h 0.03103 l 0.0393,-0.01034 v -0.03103 l 0.01241,-0.04344 0.0083,-0.0393 0.02689,-0.02275 0.01862,-0.01034 0.05171,-0.01241 0.03723,-0.02275 0.04137,-0.02482 0.03103,-0.0331 0.02275,-0.05792 0.01241,-0.06826 0.0062,-0.06826 -0.05724,-0.08287 -0.05239,0.0043 h -0.07445 l -0.04344,0.02275 -0.04344,0.01448 -0.02275,0.06206 -0.02689,0.02896 -0.03723,0.02069 -0.04964,0.0041 -0.04964,0.0331 v 0.02275 l 0.0062,0.04137 0.0331,0.01862 0.01655,0.05792 -0.01241,0.03103 -0.05585,0.05171 -0.124111,-0.0021 -0.04758,-0.01655 -0.0786,-0.03723 -0.02482,0.0331 -0.01448,0.06619 -0.01241,0.03516 -0.02275,0.02896 -0.02069,0.0724 -0.03516,0.01241 -0.02689,0.01862 -0.01655,0.04137 -0.06619,-0.0083 -0.04964,-0.05171 -0.02069,-0.0331 -0.06826,-0.02896 -0.04551,-0.04758 -0.06412,-0.05171 -0.02896,-0.0724 -0.0393,-0.01655 h -0.04137 l -0.04551,0.03103 -0.03103,0.03103 -0.12411,0.04551 -0.08067,-0.02069 -0.04758,-0.04344 -0.0083,-0.09308 -0.01034,-0.06619 -0.103425,-0.01034 -0.09722,-0.05792"
     style="fill:#d4a657;fill-opacity:1;stroke:#000000;stroke-width:0.0625;stroke-opacity:0.22110554"
     inkscape:connector-curvature="0" />
  <path
     id="path983"
     d="m 4.8678989,4.3637698 0.135162,0.114037 0.06826,0.03723 0.03103,0.04137 0.05171,0.0331 0.05999,0.04964 0.02482,0.01448 0.05378,-0.02896 0.05378,-0.01862 0.130997,0.01849 0.137282,0.08356 -0.127621,-0.106187 -0.04137,-0.0083 -0.06206,-0.01241 -0.07447,-0.03516 -0.08688,-0.05792 -0.08274,-0.03723 -0.0786,-0.03516 -0.0786,-0.01862 z"
     style="fill:#d6201a;fill-opacity:1;stroke:#000000;stroke-width:0.0625;stroke-opacity:0.22110554"
     inkscape:connector-curvature="0" />
  <path
     id="path985"
     d="m 3.6235289,4.8601238 -0.02743,0.241415 -0.120707,0.11522 -0.406015,0.186547 -0.104247,0.04389 -0.03841,0.07681 0.03292,0.137168 0.04938,0.09327 -0.01646,0.554155 -0.08779,0.159114 0.120707,0.11522 -0.01646,0.109734 0.07881,0.0949 0.124541,-0.06476 h 0.174357 l 0.01495,0.0548 0.0548,-0.005 0.03985,-0.02491 0.114578,-0.02491 0.08469,-0.02989 0.11956,-0.08967 h 0.234136 l 0.0548,0.03487 0.06974,0.104615 0.01495,0.06476 v 0.0548 l 0.01494,0.0548 -0.06476,0.09963 -0.127089,0.04187 -0.146901,0.0079 v 0 l -0.07971,0.03985 -0.162007,0.01134 -0.107002,-0.01134 -0.06974,-0.04483 -0.0548,0.04982 -0.02989,0.07472 0.05023,0.06681 0.11405,0.0084 h 0.143618 l 0.101377,0.0169 0.09293,0.01267 h 0.06336 0.105601 l 0.105601,0.0084 0.09293,0.0084 0.13517,0.05069 0.07603,0.0042 0.185858,0.0084 h 0.06336 0.08448 0.07603 l 0.09293,-0.01267 0.08448,-0.0042 0.06758,-0.0169 0.06336,-0.02534 0.109825,-0.01267 0.06759,-0.04224 0.13517,-0.04646 0.05491,-0.02535 0.118273,-0.01267 0.07181,-0.0042 0.06336,-0.02957 0.07181,-0.03379 0.05914,-0.04224 -0.0055,-0.456657 0.03581,-0.04178 -0.0955,-0.08356 -0.113407,-0.06566 0.01194,-0.107438 -0.113407,0.02984 -0.173095,-0.02388 -0.268595,-0.006 -0.05372,-0.05969 -0.01194,-0.256657 -0.04775,-0.155188 0.101469,-0.0776 0.05969,-0.006 0.0955,0.03581 0.274564,0.03581 0.08953,0.04178 0.01194,0.02984 0.131313,0.04775 0.01791,0.0955 0.04178,-0.131313 0.05372,-0.04178 0.107438,0.04178 0.19697,0.02388 0.107438,-0.05372 0.01791,-0.08356 -0.214876,-0.549127 -0.08953,-0.304408 -0.08953,-0.08356 -0.328283,-0.0955 -0.127796,-0.05441 -0.0062,0.06826 -0.03516,0.126179 -0.03103,0.0331 -0.130316,0.05999 -0.05378,0.0724 -0.01241,0.07447 -0.0393,0.01034 -0.182028,-0.0041 -0.148933,0.0062 -0.06619,0.08067 -0.04964,0.07654 -0.04758,0.02896 -0.09515,0.01862 -0.09722,0.01862 -0.04344,-0.01862 -0.06826,-0.03516 -0.09101,-0.08895 -0.04137,-0.02275 -0.09791,0.0048 -0.06757,0.0076 -0.128248,0.03723 -0.101357,-0.0062 -0.09515,-0.101357 -0.06412,-0.117905 -0.05171,-0.0331 z"
     style="fill:#589866;fill-opacity:1;stroke:#000000;stroke-width:0.0625;stroke-opacity:0.22110554"
     inkscape:connector-curvature="0" />
  <path
     id="path1037"
     d="m 3.4120499,7.2529158 0.09096,0.05795 0.118007,0.0751 0.155555,0.06169 0.144827,0.0295 0.155554,0.04291 0.158237,0.05632 0.09387,0.01609 0.112643,0.03755 0.123371,0.008 h 0.08314 l 0.120689,-0.01073 0.101915,0.01609 0.09655,-0.0027 h 0.09119 l 0.07241,-0.02146 0.06705,-0.02682 0.15019,-0.01877 0.02414,-0.04828 0.07241,-0.04023 0.101915,-0.0295 0.0885,-0.05632 0.08582,-0.04291 0.06437,-0.04827 0.06169,-0.04023 0.03755,-0.03487 0.01341,-0.01073 0.01467,-0.159534 -0.194307,0.105601 -0.190082,0.0169 -0.190083,0.07181 -0.06759,0.04224 -0.109825,0.01267 -0.130946,0.04224 -0.08448,0.0042 -0.09293,0.01267 -0.485766,-0.01267 -0.13517,-0.05069 -0.198531,-0.0169 h -0.168962 l -0.141088,-0.01761 -0.05322,-0.01196 h -0.143618 l -0.11405,-0.0084"
     style="fill:#b59719;fill-opacity:1;stroke:#000000;stroke-width:0.0625;stroke-opacity:0.22110554"
     inkscape:connector-curvature="0" />
  <path
     id="path1039"
     d="m 3.8410429,3.4200438 -0.112463,0.08801 -0.07824,0.107576 0.0084,0.102342 -0.03512,0.04215 0.007,0.08781 -0.04566,0.06322 -0.0843,0.04917 -0.09484,0.07025 -0.0562,0.06674 -0.03864,0.04566 -0.01054,0.06322 0.01405,0.101859 0.05269,0.06674 0.04917,0.007 0.15776,0.01194 0.599414,-0.05928 -0.08801,-0.04895 -0.04407,-0.03906 -0.04883,-0.127197 -0.04407,-0.0636 -0.03418,-0.136841 -0.02384,-0.08845 -0.02022,-0.04851 -0.01841,-0.109546 z"
     style="fill:url(#linearGradient876);fill-opacity:1;stroke:#000000;stroke-width:0.0625;stroke-opacity:0.22110554"
     inkscape:connector-curvature="0" />
  <path
     id="path1041"
     d="m 5.4870919,4.6019168 0.0543,-0.04799 0.07025,-0.04917 0.04566,-0.05269 0.01054,-0.108885 -0.01756,-0.122934 -0.08781,-0.07376 -0.09835,-0.04215 -0.01054,-0.05971 -0.03864,-0.03512 -0.02107,-0.05971 -0.03161,-0.07727 -0.03161,-0.02107 -0.03161,-0.04566 -0.0281,-0.05971 0.0126,-0.07665 -0.308058,-0.356956 -0.127135,-0.05379 0.03909,0.327626 0.03919,0.03906 0.06348,0.161377 0.005,0.09778 -0.05383,0.0636 -0.117309,0.07336 0.01953,0.141846 -0.0049,0.112426 0.0293,0.08801 0.19308,0.05198 0.161344,0.0724 0.08688,0.05792 0.07447,0.03516 z"
     style="fill:url(#linearGradient1063);fill-opacity:1;stroke:#000000;stroke-width:0.0625;stroke-opacity:0.22110554"
     inkscape:connector-curvature="0" />
  <path
     id="path1073"
     d="m 3.4120499,7.2529158 0.0085,0.156933 -0.003,0.193939 0.01515,0.06667 0.01878,0.267883 -0.03985,0.07473 0.02989,0.18432 0.02755,0.05186 0.06667,0.03636 0.133333,0.04545 0.118182,0.03636 0.07879,0.04849 0.08485,0.003 h 0.10606 l 0.03939,-0.02121 0.07273,-0.0303 0.103031,-0.01818 h 0.121212 l 0.1,0.0303 0.06364,0.06667 0.109091,0.03939 0.07576,0.03636 0.09697,0.03636 0.109091,-0.003 0.07879,-0.05152 0.130303,-0.08182 0.04545,-0.03939 0.09091,-0.0061 h 0.09394 l 0.106061,0.01818 0.08182,0.01818 0.09697,0.0091 0.05758,0.01818 0.0697,0.03636 0.07576,-0.003 0.05152,-0.03636 0.03636,-0.06364 0.03333,-0.04848 0.06061,-0.02727 0.05317,-0.0084 -0.149219,-0.429752 -0.02387,-0.268595 v -0.179063 l -0.03901,-0.189595 -0.05096,0.04559 -0.06169,0.04023 -0.06437,0.04828 -0.08582,0.04291 -0.0885,0.05632 -0.101915,0.0295 -0.07241,0.04023 -0.02414,0.04828 -0.150191,0.01877 -0.139463,0.04828 -0.187738,0.0027 -0.101915,-0.01609 -0.120689,0.01073 h -0.08314 l -0.123371,-0.008 -0.112643,-0.03755 -0.09387,-0.01609 -0.158236,-0.05632 -0.155555,-0.04291 -0.144827,-0.0295 -0.155555,-0.06169 z"
     style="fill:#445500;fill-opacity:1;stroke:#000000;stroke-width:0.0625;stroke-opacity:0.22110554"
     inkscape:connector-curvature="0" />
  <path
     id="path1075"
     d="m 3.4415269,8.1973828 -0.01,0.229155 0.02491,0.219192 v 0.144468 l -0.04982,0.199265 -0.0548,0.154431 -0.06974,0.129522 -0.05978,0.164394 -0.169376,0.104615 0.0227,0.176061 0.05376,0.13261 0.0681,0.1792022 0.06093,0.182787 0.0215,0.107521 0.0036,0.125442 0.03942,0.129026 0.0036,0.121857 0.01792,0.07885 0.07885,0.02509 0.143362,-0.01075 0.161282,0.0036 h 0.139778 0.100353 0.103938 l 0.139778,0.0036 h 0.05018 l 0.06093,-0.0036 0.02509,-0.08602 -0.01075,-0.08602 0.0036,-0.08602 0.03226,-0.09319 0.01792,-0.09318 0.02509,-0.154114 0.0036,-0.139778 0.03942,-0.1003532 0.02151,-0.11469 0.02509,-0.125441 0.02509,-0.118274 0.05018,-0.13261 0.05376,-0.09677 0.07168,-0.07885 0.04659,-0.05018 0.03226,-0.09319 0.02509,-0.103938 v 0.215043 l 0.02867,0.118274 0.0681,0.125441 0.0896,0.168451 0.03942,0.114689 0.0896,0.172035 0.0896,0.1075212 0.07526,0.11469 0.09677,0.111106 0.0896,0.0896 0.06093,0.121857 0.0215,0.154115 0.0072,0.103937 0.04301,0.05018 0.182787,0.02867 0.164866,-0.01075 0.186371,-0.01792 0.179202,-0.01075 0.08243,-0.04659 0.02509,-0.04301 v -0.0896 l -0.02867,-0.18637 -0.0215,-0.172035 -0.02509,-0.11469 -0.02867,-0.136194 v -0.1827862 -0.18637 l -0.01792,-0.21146 -0.0036,-0.189954 -0.03943,-0.22938 -0.0215,-0.125441 0.0215,-0.189955 0.03226,-0.02509 0.01534,-0.05071 -0.202938,-0.328285 -0.113774,0.03563 -0.0697,0.112121 -0.05152,0.03636 -0.07576,0.003 -0.0697,-0.03636 -0.05758,-0.01818 -0.284848,-0.04545 -0.184849,0.0061 -0.254545,0.172728 -0.109091,0.003 -0.09697,-0.03636 -0.07576,-0.03636 -0.10909,-0.03939 -0.06364,-0.06667 -0.1,-0.0303 h -0.121212 l -0.10303,0.01818 -0.112121,0.05151 -0.160546,0.02362 -0.03036,-0.02666 -0.07879,-0.04848 -0.251516,-0.08182 -0.06667,-0.03636 z"
     style="fill:#aa0044;fill-opacity:1;stroke:#000000;stroke-width:0.0625;stroke-opacity:0.22110554"
     inkscape:connector-curvature="0" />
  <path
     id="path1077"
     d="m 3.3444649,10.775781 0.0596,0.09917 0.0292,0.06813 0.141138,0.01947 0.126538,-0.0292 h 0.150873 l 0.160606,-0.0097 0.136271,-0.0049 h 0.121672 0.0438 l 0.0087,-0.125058 z"
     style="fill:#f2c95f;fill-opacity:1;stroke:#000000;stroke-width:0.0625;stroke-opacity:0.22110554"
     inkscape:connector-curvature="0" />
  <path
     id="path1079"
     d="m 5.6095839,10.808035 -0.04464,0.06205 -0.0146,0.06813 0.09247,0.0049 0.102203,-0.0146 0.107071,-0.0097 0.111938,0.0097 0.136271,0.0049 0.111938,-0.0146 0.0584,-0.01947 0.102204,-0.01947 0.0438,-0.0146 0.02433,-0.073 -0.01064,-0.08454 -0.107522,0.0896 -0.203046,0.0047 -0.327393,0.03476 z"
     style="fill:#f2c95f;fill-opacity:1;stroke:#000000;stroke-width:0.0625;stroke-opacity:0.22110554"
     inkscape:connector-curvature="0" />
  <path
     id="path1081"
     d="m 3.4332629,10.94309 v 0.452617 l 0.0146,0.17034 0.0584,0.175207 0.0146,0.18494 0.04867,0.18494 0.0292,0.141139 0.0584,0.17034 0.0097,0.111937 -0.0584,0.073 -0.02433,0.09734 -0.04867,0.111938 0.0097,0.0584 0.05353,0.09734 0.0584,0.0097 0.102203,0.0146 0.126539,-0.03407 0.116804,-0.02433 0.0584,-0.0292 0.03894,-0.073 0.03407,-0.141139 0.0146,-0.08274 v -0.126538 -0.155738 -0.126539 l 0.03894,-0.08274 0.04867,-0.175207 0.0438,-0.09247 0.06327,-0.107071 0.0097,-0.111937 -0.0049,-0.204408 v -0.146005 l 0.0097,-0.17034 -0.0049,-0.04867 -0.0438,-0.0292 0.0049,-0.116806 -0.613223,0.0146 -0.126538,0.0292 z"
     style="fill:#4e945b;fill-opacity:1;stroke:#000000;stroke-width:0.0625;stroke-opacity:0.22110554"
     inkscape:connector-curvature="0" />
  <path
     id="path1083"
     d="m 3.5354659,12.816828 -0.0876,0.01947 -0.073,0.0292 -0.0097,0.0584 v 0.06327 l 0.0146,0.09734 0.03894,0.04867 0.107071,-0.0097 0.0438,-0.0146 h 0.06327 0.0584 l 0.06327,0.01947 0.0584,0.0049 h 0.06814 l 0.04867,0.0146 0.0146,0.04867 0.0438,0.04867 0.06327,-0.02433 0.0438,-0.0438 v -0.07787 -0.07787 l -0.09247,-0.08274 v 0 l -0.243343,0.0584 -0.160606,-0.02433 z"
     style="fill:#f0c55f;fill-opacity:1;stroke:#000000;stroke-width:0.0625;stroke-opacity:0.22110554"
     inkscape:connector-curvature="0" />
  <path
     id="path1085"
     d="m 3.5257329,13.123439 -0.06327,0.0584 -0.03894,0.03407 -0.06814,0.0876 v 0.073 l 0.0049,0.150873 0.06327,0.06813 0.0584,0.05354 h 0.121671 l 0.0876,-0.02434 0.121671,-0.09247 0.0876,-0.07787 0.04867,-0.0584 0.0146,-0.05354 0.02434,-0.09734 -0.0584,-0.09734 -0.292011,-0.0584 z"
     style="fill:#eb665f;fill-opacity:1;stroke:#000000;stroke-width:0.0625;stroke-opacity:0.22110554"
     inkscape:connector-curvature="0" />
  <path
     id="path55"
     d="m 5.5503419,10.938223 0.0078,0.123692 -0.0093,0.30606 v 0.190129 l 0.0093,0.125207 v 0.0742 l 0.04174,0.120569 0.06956,0.111295 0.09738,0.106658 0.143756,0.162304 0.06029,0.12057 0.06029,0.125206 0.0093,0.12057 0.02782,0.15303 0.01391,0.143755 0.01855,0.07883 0.09275,0.06028 0.08347,0.06956 h 0.07883 l 0.106658,0.0046 0.0371,-0.02319 0.04637,-0.02319 0.06028,-0.0093 0.09275,-0.0046 0.01391,-0.06956 0.0093,-0.06956 -0.0371,-0.05565 -0.08347,-0.07883 -0.02319,-0.08811 v -0.204041 l -0.01855,-0.268962 -0.01391,-0.361708 -0.02319,-0.319973 v -0.217952 l -0.03246,-0.15303 -0.03246,-0.148393 -0.04109,-0.173504 -0.204408,0.05353 -0.111938,0.0146 -0.248209,-0.0146 -0.209274,0.02434 z"
     style="fill:#4e945b;fill-opacity:1;stroke:#000000;stroke-width:0.0625;stroke-opacity:0.22110554"
     inkscape:connector-curvature="0" />
  <path
     id="path57"
     d="m 6.6988729,13.074496 -0.09275,0.0046 -0.06028,0.0093 -0.04637,0.02319 v 0.106657 l 0.04637,0.03246 0.06028,0.02319 0.07883,0.01391 0.08811,-0.0046 0.01855,-0.04174 0.02782,-0.02319 0.06029,-0.01391 0.02319,0.01391 0.04174,0.01391 0.05565,0.0046 0.04637,-0.02319 0.01855,-0.02319 v -0.05565 -0.06956 l -0.02319,-0.06956 -0.05101,-0.04173 -0.04174,-0.06492 -0.06492,-0.02319 -0.05101,0.02782 -0.04637,0.05101 -0.06492,-0.0093 z"
     style="fill:#f0c55f;fill-opacity:1;stroke:#000000;stroke-width:0.0625;stroke-opacity:0.22110554"
     inkscape:connector-curvature="0" />
  <path
     id="path59"
     d="m 6.1006639,13.000299 -0.07883,0.01391 -0.01391,0.115933 0.01391,0.07883 0.0371,0.08347 0.04174,0.09738 0.10202,0.02782 0.129844,0.02782 0.10202,0.0371 h 0.106657 l 0.09738,0.0093 0.10202,0.01855 0.125207,0.01855 0.15303,-0.0046 0.166943,0.0046 0.162305,-0.0046 0.0742,-0.01391 0.06956,-0.02319 0.0371,-0.06028 -0.01391,-0.06028 -0.139118,-0.06956 -0.125207,-0.0371 -0.07883,-0.02319 -0.106658,-0.04637 -0.01855,0.02319 -0.04637,0.02319 -0.05565,-0.0046 -0.06492,-0.02782 -0.06029,0.01391 -0.04637,0.06492 -0.08811,0.0046 -0.139119,-0.0371 -0.08347,-0.115932 -0.185492,-0.0046 z"
     style="fill:#eb665f;fill-opacity:1;stroke:#000000;stroke-width:0.0625;stroke-opacity:0.22110554"
     inkscape:connector-curvature="0" />
  <path
     id="path61"
     d="m 3.0529589,9.5424248 -0.169375,-0.104615 -0.159412,-0.09465 -0.162351,-0.143572 -0.375804,-0.383563 -0.06194,0.07089 -0.03127,0.198025 0.01563,0.21366 0.01042,0.312672 -0.02606,0.08859 -0.04169,0.06253 -0.01563,0.09901 0.01042,0.2032362 -0.01563,0.145914 -0.05732,0.09901 -0.01042,0.151125 v 0.140703 l 0.08859,0.125069 0.114646,0.02084 0.166759,0.07296 0.06775,0.04169 0.02085,0.08859 v 0.06254 l 0.02085,0.06253 0.13028,0.05732 0.125069,0.02085 0.104224,0.05732 0.07296,0.0052 0.140702,0.0052 0.03127,0.07817 0.08338,0.07296 0.151125,0.01563 h 0.08859 l 0.06371,0.0074 v -0.452616 l -0.0888,-0.16731 -0.0215,-0.200707 -0.03942,-0.129025 -0.0036,-0.125442 -0.05631,-0.146524 -0.07817,-0.2240822 -0.06253,-0.151125 -0.02085,-0.145914 z"
     style="fill:#c6b551;fill-opacity:1;stroke:#000000;stroke-width:0.0625;stroke-opacity:0.22110554"
     inkscape:connector-curvature="0" />
  <path
     id="path63"
     d="m 4.8103409,9.0410978 -0.05735,0.197123 v 0 l -0.118273,0.129025 -0.05376,0.09677 -0.05018,0.13261 -0.111105,0.4587582 -0.0036,0.139778 -0.04301,0.247299 -0.03226,0.09319 0.0072,0.172034 -0.03384,0.211073 -0.0049,0.116806 0.0438,0.0292 0.0049,0.04867 0.0017,0.212328 v 0.06775 l 0.119858,0.0052 0.114646,-0.02085 0.08338,-0.0469 0.166759,-0.03127 0.145914,-0.109435 0.06775,-0.04169 0.06254,-0.02085 0.06253,-0.02085 0.06253,-0.01042 0.06775,-0.01563 0.0938,-0.03648 h 0.06253 l 0.08843,0.01756 -0.0078,-0.123691 0.0146,-0.06814 0.04464,-0.06205 -0.04301,-0.05018 -0.02395,-0.161668 -0.0047,-0.09638 -0.06093,-0.121858 -0.186371,-0.200707 -0.07526,-0.11469 -0.179203,-0.2795552 -0.197122,-0.408582 -0.02867,-0.118274 z"
     style="fill:#c6b551;fill-opacity:1;stroke:#000000;stroke-width:0.0625;stroke-opacity:0.22110554"
     inkscape:connector-curvature="0" />
  <path
     id="path65"
     d="m 6.3130599,8.6176538 -0.0476,0.07579 -0.0215,0.189955 0.06093,0.354821 0.0036,0.189954 0.01792,0.21146 0.0031,0.294731 -0.0031,0.07443 0.02918,0.134024 0.02458,0.11686 0.0588,0.159333 -0.01042,0.114647 0.0018,0.08442 v 0.0896 l -0.02509,0.04301 0.0114,0.114535 0.100483,-0.04495 0.161547,-0.109435 0.09901,-0.07817 0.182392,-0.104224 0.140702,-0.07817 0.07296,-0.07296 -0.01563,-0.151125 -0.0469,-0.140703 -0.04169,-0.1094354 -0.06253,-0.08338 -0.01563,-0.13028 0.01563,-0.07817 -0.03127,-0.07296 -0.02084,-0.06253 v -0.114647 l -0.0052,-0.119858 v -0.09901 -0.151125 l -0.0052,-0.119858 v -0.104224 l -0.159849,0.0343 -0.191001,0.01791 -0.14325,-0.10147 z"
     style="fill:#c6b551;fill-opacity:1;stroke:#000000;stroke-width:0.0625;stroke-opacity:0.22110554"
     inkscape:connector-curvature="0" />
  <path
     style="fill:#000080;fill-opacity:1;stroke:#000000;stroke-width:0.03039333;stroke-opacity:0.22110554"
     d="m 7.9012239,2.9924198 a 0.63720625,0.18757586 0 0 1 -0.637207,0.187576 0.63720625,0.18757586 0 0 1 -0.637206,-0.187576 0.63720625,0.18757586 0 0 1 0.637206,-0.187576 0.63720625,0.18757586 0 0 1 0.637207,0.187576 z"
     id="path1422-4"
     inkscape:connector-curvature="0" />
  <path
     style="fill:#0085a6;fill-opacity:1;stroke:#000080;stroke-width:0.03039333;stroke-opacity:1"
     d="m 7.8680329,2.9003418 v 0.03248 l -0.02178,-0.01662 z"
     id="path1430-37"
     inkscape:connector-curvature="0" />
  <path
     style="fill:#000080;fill-opacity:1;stroke:#000080;stroke-width:0.03039333;stroke-opacity:1"
     d="m 6.6579519,2.8992318 9.18e-4,0.03482 0.02291,-0.01771 z"
     id="path1428-1"
     inkscape:connector-curvature="0" />
  <ellipse
     ry="0.24349205"
     rx="0.68442565"
     cy="1.9954491"
     cx="7.2931614"
     id="path74-38"
     style="fill:#ffff00;fill-opacity:1;stroke:#000000;stroke-width:0.01417077;stroke-opacity:0.36180905" />
  <ellipse
     ry="0.19456337"
     rx="0.60901791"
     cy="1.9868126"
     cx="7.287981"
     id="path76-09"
     style="fill:#ff0000;fill-opacity:1;stroke:#000000;stroke-width:0.03039333;stroke-opacity:0.35175883" />
  <path
     id="path80-79"
     d="m 6.6041299,2.0144448 0.04375,0.06677 0.05065,0.03914 0.08519,0.03914 0.08059,0.02763 0.131244,0.02533 0.112824,0.02072 0.108219,0.0092 h 0.0921 0.110521 l 0.101311,-0.01382 0.103614,-0.01382 0.0898,-0.02993 0.09901,-0.03454 0.0921,-0.03914 0.06217,-0.05987 0.01151,-0.04605 -0.0092,0.174992 -0.01382,0.06217 -0.02993,0.06677 -0.04145,0.03914 -0.02993,0.03454 -0.06677,0.04605 -0.07829,0.03684 -0.06677,0.02763 -0.05844,0.02072 -0.04821,0.01093 -0.04861,0.01673 -0.0336,0.0184 -0.03299,0.02302 -0.268594,-0.0023 -0.02032,-0.02273 -0.03351,-0.02087 -0.04126,-0.01469 -0.03615,-0.01308 -0.06217,-0.01612 -0.03224,-0.01842 -0.08519,-0.04145 -0.05066,-0.03684 -0.07368,-0.05066 -0.02993,-0.04375 -0.03454,-0.03684 -0.01612,-0.03914 -0.01382,-0.05756 -0.01151,-0.06677 -0.0069,-0.04375 z"
     style="fill:#008000;fill-opacity:1;stroke:#000000;stroke-width:0.03039333;stroke-opacity:0.16582917"
     inkscape:connector-curvature="0" />
  <rect
     y="2.580864"
     x="7.152132"
     height="0.087400734"
     width="0.26788974"
     id="rect87-93"
     style="fill:#0088aa;fill-opacity:1;stroke:#000000;stroke-width:0.03039333;stroke-opacity:0.20100505" />
  <path
     style="fill:#008000;fill-opacity:1;stroke:#000080;stroke-width:0.03047788;stroke-opacity:0.26633169"
     d="m 7.8830629,2.8562478 v 0.152941"
     id="path1424-24"
     inkscape:connector-curvature="0" />
  <path
     style="fill:#0085a6;fill-opacity:1;stroke:#000080;stroke-width:0.03039333;stroke-opacity:0.32160806"
     d="m 6.6423089,2.8455918 0.0023,0.154364"
     id="path1426-3"
     inkscape:connector-curvature="0" />
  <path
     id="path84-71"
     d="m 7.9012239,2.8403258 a 0.63720625,0.18757586 0 0 1 -0.637207,0.187576 0.63720625,0.18757586 0 0 1 -0.637206,-0.187576 0.63720625,0.18757586 0 0 1 0.637206,-0.187576 0.63720625,0.18757586 0 0 1 0.637207,0.187576 z"
     style="fill:#0088aa;fill-opacity:1;stroke:#000000;stroke-width:0.03039333;stroke-opacity:0.18592966"
     inkscape:connector-curvature="0" />
</svg>
