<?xml version="1.0" encoding="UTF-8" standalone="no"?>
<svg
   xmlns:osb="http://www.openswatchbook.org/uri/2009/osb"
   xmlns:dc="http://purl.org/dc/elements/1.1/"
   xmlns:cc="http://creativecommons.org/ns#"
   xmlns:rdf="http://www.w3.org/1999/02/22-rdf-syntax-ns#"
   xmlns:svg="http://www.w3.org/2000/svg"
   xmlns="http://www.w3.org/2000/svg"
   xmlns:xlink="http://www.w3.org/1999/xlink"
   xmlns:sodipodi="http://sodipodi.sourceforge.net/DTD/sodipodi-0.dtd"
   xmlns:inkscape="http://www.inkscape.org/namespaces/inkscape"
   viewBox="0 0 160 250"
   height="250"
   width="160"
   id="svg815"
   version="1.1"
   sodipodi:docname="cups02.svg"
   inkscape:version="0.92.5 (2060ec1f9f, 2020-04-08)">
  <sodipodi:namedview
     pagecolor="#ffffff"
     bordercolor="#666666"
     borderopacity="1"
     objecttolerance="10"
     gridtolerance="10"
     guidetolerance="10"
     inkscape:pageopacity="0"
     inkscape:pageshadow="2"
     inkscape:window-width="1918"
     inkscape:window-height="1017"
     id="namedview7762"
     showgrid="false"
     inkscape:zoom="13.108333"
     inkscape:cx="59.090909"
     inkscape:cy="239.09091"
     inkscape:window-x="0"
     inkscape:window-y="0"
     inkscape:window-maximized="1"
     inkscape:current-layer="svg815"
     inkscape:snap-page="true" />
  <metadata
     id="metadata821">
    <rdf:RDF>
      <cc:Work
         rdf:about="">
        <dc:format>image/svg+xml</dc:format>
        <dc:type
           rdf:resource="http://purl.org/dc/dcmitype/StillImage" />
        <dc:title></dc:title>
      </cc:Work>
    </rdf:RDF>
  </metadata>
  <defs
     id="defs819">
    <linearGradient
       id="linearGradient3804"
       osb:paint="solid">
      <stop
         style="stop-color:#000000;stop-opacity:1;"
         offset="0"
         id="stop3802" />
    </linearGradient>
    <linearGradient
       gradientUnits="userSpaceOnUse"
       y2="71.008263"
       x2="88.849586"
       y1="58.644627"
       x1="82.105782"
       id="linearGradient1063"
       xlink:href="#linearGradient882"
       gradientTransform="matrix(0.0625,0,0,0.0625,89.999999,8.2080078e-7)" />
    <linearGradient
       id="linearGradient882">
      <stop
         style="stop-color:#d16208;stop-opacity:1"
         offset="0"
         id="stop878" />
      <stop
         style="stop-color:#d16250;stop-opacity:0;"
         offset="1"
         id="stop880" />
    </linearGradient>
    <linearGradient
       gradientUnits="userSpaceOnUse"
       y2="68.472336"
       x2="56.128345"
       y1="63.697319"
       x1="61.166279"
       id="linearGradient876"
       xlink:href="#linearGradient882"
       gradientTransform="matrix(0.0625,0,0,0.0625,89.999999,8.2080078e-7)" />
    <linearGradient
       xlink:href="#linearGradient846"
       id="linearGradient848"
       x1="72.37397"
       y1="53.171356"
       x2="72.19931"
       y2="45.564011"
       gradientUnits="userSpaceOnUse"
       gradientTransform="matrix(0.0625,0,0,0.0625,110,-2.6855469e-7)" />
    <linearGradient
       id="linearGradient846">
      <stop
         style="stop-color:#423abf;stop-opacity:1;"
         offset="0"
         id="stop842" />
      <stop
         style="stop-color:#423abf;stop-opacity:0;"
         offset="1"
         id="stop844" />
    </linearGradient>
  </defs>
  <flowRoot
     xml:space="preserve"
     id="flowRoot100"
     style="font-style:normal;font-variant:normal;font-weight:bold;font-stretch:normal;font-size:1px;line-height:1.25;font-family:'DejaVu Sans';-inkscape-font-specification:'DejaVu Sans Bold';letter-spacing:0px;word-spacing:0px;fill:#000000;fill-opacity:1;stroke:none;stroke-width:0.0625"><flowRegion
       style="stroke-width:0.0625"
       id="flowRegion102"><rect
         style="stroke-width:0.00390625"
         id="rect104"
         width="1.5151515"
         height="1.3636364"
         x="0.66287881"
         y="0.73863637" /></flowRegion><flowPara
       style="stroke-width:0.0625"
       id="flowPara106" /></flowRoot>  <rect
     style="fill:#ffffff;fill-opacity:1;stroke:#1a1a1a;stroke-width:0.0625;stroke-opacity:1"
     id="cups02"
     width="10"
     height="15.625"
     x="0"
     y="0" />
  <rect
     style="fill:none;fill-opacity:1;stroke:#1a1a1a;stroke-width:0.0625;stroke-opacity:1"
     id="rect108-8"
     width="7.2537889"
     height="12.973484"
     x="1.344696"
     y="1.3068175" />
  <g
     id="flowRoot915-3"
     style="font-style:normal;font-variant:normal;font-weight:bold;font-stretch:normal;font-size:16px;line-height:1.25;font-family:'DejaVu Sans';-inkscape-font-specification:'DejaVu Sans Bold';text-align:start;letter-spacing:0px;word-spacing:0px;text-anchor:start;fill:#000000;fill-opacity:1;stroke:none"
     transform="matrix(0.0625,0,0,0.0625,0.18939305,-8.5966798e-7)"
     aria-label="2">
    <path
       id="path4478"
       d="m 7.640625,16.490234 h 5.132813 v 2.210938 H 4.296875 V 16.490234 L 8.5546875,12.732422 Q 9.125,12.216797 9.3984375,11.724609 9.671875,11.232422 9.671875,10.701172 q 0,-0.8203126 -0.5546875,-1.3203126 -0.546875,-0.5 -1.4609375,-0.5 -0.703125,0 -1.5390625,0.3046875 Q 5.28125,9.4824219 4.328125,10.076172 V 7.5136719 Q 5.34375,7.1777344 6.3359375,7.0058594 7.328125,6.8261719 8.28125,6.8261719 q 2.09375,0 3.25,0.921875 1.164063,0.921875 1.164063,2.5703121 0,0.953125 -0.492188,1.78125 -0.492187,0.820313 -2.070312,2.203125 z"
       inkscape:connector-curvature="0" />
  </g>
  <path
     id="path1422-8"
     d="M 7.0477701,6.1499643 A 2.1735956,0.63984631 0 0 1 4.874174,6.7898103 2.1735956,0.63984631 0 0 1 2.700578,6.1499643 2.1735956,0.63984631 0 0 1 4.874174,5.5101183 2.1735956,0.63984631 0 0 1 7.0477701,6.1499643 Z"
     style="fill:#000080;fill-opacity:1;stroke:#000000;stroke-width:0.10367572;stroke-opacity:0.22110554"
     inkscape:connector-curvature="0" />
  <path
     id="path1430-3"
     d="m 6.9345521,5.8358753 v 0.11078 l -0.07429,-0.05669 z"
     style="fill:#0085a6;fill-opacity:1;stroke:#000080;stroke-width:0.10367572;stroke-opacity:1"
     inkscape:connector-curvature="0" />
  <path
     id="path1428-3"
     d="m 2.806803,5.8320873 0.0031,0.11877 0.07814,-0.06043 z"
     style="fill:#000080;fill-opacity:1;stroke:#000080;stroke-width:0.10367572;stroke-opacity:1"
     inkscape:connector-curvature="0" />
  <ellipse
     style="fill:#ffff00;fill-opacity:1;stroke:#000000;stroke-width:0.04833839;stroke-opacity:0.36180905"
     id="path74-3"
     cx="4.9735875"
     cy="2.7491627"
     rx="2.3346672"
     ry="0.83058393" />
  <ellipse
     style="fill:#ff0000;fill-opacity:1;stroke:#000000;stroke-width:0.10367572;stroke-opacity:0.35175883"
     id="path76-8"
     cx="4.9559178"
     cy="2.7197094"
     rx="2.0774415"
     ry="0.66368169" />
  <path
     style="fill:#008000;fill-opacity:1;stroke:#000000;stroke-width:0.10367572;stroke-opacity:0.16582917"
     d="m 2.62321,2.8139605 0.14923,0.2277724 0.172793,0.1335216 0.290607,0.1335219 0.274897,0.094251 0.44769,0.086397 0.384858,0.070688 0.369148,0.031417 H 5.026601 5.403605 L 5.74919,3.5444044 6.10263,3.4972784 6.408945,3.3951737 6.746675,3.2773601 7.0608451,3.1438382 l 0.212064,-0.2042094 0.03927,-0.1570846 -0.03142,0.5969205 -0.04713,0.2120644 -0.102106,0.2277724 -0.141375,0.1335218 -0.102105,0.1178133 -0.2277721,0.1570843 -0.267044,0.1256676 -0.227772,0.094251 -0.19935,0.07069 -0.164439,0.03728 -0.165815,0.05705 -0.114603,0.06276 -0.112537,0.07854 -0.916209,-0.0079 -0.06932,-0.07754 -0.11432,-0.07119 L 4.168116,4.5472095 4.044814,4.5025795 3.832749,4.4475995 3.722801,4.3848004 3.432195,4.2434255 3.259402,4.1177571 3.008067,3.9449644 2.905962,3.795734 2.788149,3.6700663 2.733169,3.536545 2.686044,3.3401892 2.646773,3.1124165 2.62321,2.9631864 Z"
     id="path80-0"
     inkscape:connector-curvature="0" />
  <rect
     style="fill:#0088aa;fill-opacity:1;stroke:#000000;stroke-width:0.10367572;stroke-opacity:0.20100505"
     id="rect87-4"
     width="0.91380769"
     height="0.29813555"
     x="4.4925079"
     y="4.7460985" />
  <path
     id="path1424-7"
     d="m 6.9858221,5.6854643 v 0.521702"
     style="fill:#008000;fill-opacity:1;stroke:#000080;stroke-width:0.10396411;stroke-opacity:0.26633169"
     inkscape:connector-curvature="0" />
  <path
     id="path1426-6"
     d="m 2.753444,5.6491153 0.0077,0.526556"
     style="fill:#0085a6;fill-opacity:1;stroke:#000080;stroke-width:0.10367572;stroke-opacity:0.32160806"
     inkscape:connector-curvature="0" />
  <path
     style="fill:#0088aa;fill-opacity:1;stroke:#000000;stroke-width:0.10367572;stroke-opacity:0.18592966"
     d="M 7.0477701,5.6311523 A 2.1735956,0.63984631 0 0 1 4.874174,6.2709983 2.1735956,0.63984631 0 0 1 2.700578,5.6311523 2.1735956,0.63984631 0 0 1 4.874174,4.9913053 2.1735956,0.63984631 0 0 1 7.0477701,5.6311523 Z"
     id="path84-8"
     inkscape:connector-curvature="0" />
  <path
     style="fill:#000080;fill-opacity:1;stroke:#000000;stroke-width:0.10367572;stroke-opacity:0.22110554"
     d="M 7.0477701,12.54852 A 2.1735956,0.63984631 0 0 1 4.874174,13.188366 2.1735956,0.63984631 0 0 1 2.700578,12.54852 2.1735956,0.63984631 0 0 1 4.874174,11.908673 2.1735956,0.63984631 0 0 1 7.0477701,12.54852 Z"
     id="path3898"
     inkscape:connector-curvature="0" />
  <path
     style="fill:#0085a6;fill-opacity:1;stroke:#000080;stroke-width:0.10367572;stroke-opacity:1"
     d="m 6.9345521,12.234431 v 0.11078 l -0.07429,-0.05669 z"
     id="path3900"
     inkscape:connector-curvature="0" />
  <path
     style="fill:#000080;fill-opacity:1;stroke:#000080;stroke-width:0.10367572;stroke-opacity:1"
     d="m 2.806803,12.230642 0.0031,0.118771 0.07814,-0.06043 z"
     id="path3902"
     inkscape:connector-curvature="0" />
  <ellipse
     ry="0.83058393"
     rx="2.3346672"
     cy="9.1477184"
     cx="4.9735875"
     id="ellipse3904"
     style="fill:#ffff00;fill-opacity:1;stroke:#000000;stroke-width:0.04833839;stroke-opacity:0.36180905" />
  <ellipse
     ry="0.66368169"
     rx="2.0774415"
     cy="9.1182652"
     cx="4.9559178"
     id="ellipse3906"
     style="fill:#ff0000;fill-opacity:1;stroke:#000000;stroke-width:0.10367572;stroke-opacity:0.35175883" />
  <path
     id="path3908"
     d="m 2.62321,9.2125163 0.14923,0.227772 0.172793,0.133522 0.290607,0.133522 0.274897,0.09425 0.44769,0.0864 0.384858,0.07069 0.369148,0.03142 h 0.314168 0.377004 l 0.345585,-0.04712 0.35344,-0.04713 0.306315,-0.102105 0.33773,-0.117813 0.3141701,-0.133522 0.212064,-0.20421 0.03927,-0.157084 -0.03142,0.596921 -0.04713,0.212064 -0.102106,0.2277727 -0.141375,0.133521 -0.102105,0.117814 -0.2277721,0.157084 -0.267044,0.125667 -0.227772,0.09425 -0.19935,0.07069 -0.164439,0.03728 -0.165815,0.05705 -0.114603,0.06276 -0.112537,0.07854 -0.916209,-0.0079 -0.06932,-0.07754 -0.11432,-0.07119 L 4.168116,10.945772 4.044814,10.901142 3.832749,10.846162 3.72279,10.783332 3.432184,10.641957 3.259391,10.516289 3.008056,10.343496 2.905951,10.194266 2.788138,10.068598 2.733158,9.9350763 2.686038,9.7387213 2.646768,9.5109483 2.623208,9.3617183 Z"
     style="fill:#008000;fill-opacity:1;stroke:#000000;stroke-width:0.10367572;stroke-opacity:0.16582917"
     inkscape:connector-curvature="0" />
  <rect
     y="11.144655"
     x="4.4925079"
     height="0.29813555"
     width="0.91380769"
     id="rect3910"
     style="fill:#0088aa;fill-opacity:1;stroke:#000000;stroke-width:0.10367572;stroke-opacity:0.20100505" />
  <path
     style="fill:#008000;fill-opacity:1;stroke:#000080;stroke-width:0.10396411;stroke-opacity:0.26633169"
     d="m 6.9858221,12.08402 v 0.521702"
     id="path3912"
     inkscape:connector-curvature="0" />
  <path
     style="fill:#0085a6;fill-opacity:1;stroke:#000080;stroke-width:0.10367572;stroke-opacity:0.32160806"
     d="m 2.753444,12.047671 0.0077,0.526556"
     id="path3914"
     inkscape:connector-curvature="0" />
  <path
     id="path3916"
     d="M 7.0477701,12.029708 A 2.1735956,0.63984631 0 0 1 4.874174,12.669553 2.1735956,0.63984631 0 0 1 2.700578,12.029708 2.1735956,0.63984631 0 0 1 4.874174,11.38986 2.1735956,0.63984631 0 0 1 7.0477701,12.029708 Z"
     style="fill:#0088aa;fill-opacity:1;stroke:#000000;stroke-width:0.10367572;stroke-opacity:0.18592966"
     inkscape:connector-curvature="0" />
</svg>
