<?xml version="1.0" encoding="UTF-8" standalone="no"?>
<svg
   xmlns:osb="http://www.openswatchbook.org/uri/2009/osb"
   xmlns:dc="http://purl.org/dc/elements/1.1/"
   xmlns:cc="http://creativecommons.org/ns#"
   xmlns:rdf="http://www.w3.org/1999/02/22-rdf-syntax-ns#"
   xmlns:svg="http://www.w3.org/2000/svg"
   xmlns="http://www.w3.org/2000/svg"
   xmlns:xlink="http://www.w3.org/1999/xlink"
   xmlns:sodipodi="http://sodipodi.sourceforge.net/DTD/sodipodi-0.dtd"
   xmlns:inkscape="http://www.inkscape.org/namespaces/inkscape"
   viewBox="0 0 160 250"
   height="250"
   width="160"
   id="svg815"
   version="1.1"
   sodipodi:docname="cups04.svg"
   inkscape:version="0.92.5 (2060ec1f9f, 2020-04-08)">
  <sodipodi:namedview
     pagecolor="#ffffff"
     bordercolor="#666666"
     borderopacity="1"
     objecttolerance="10"
     gridtolerance="10"
     guidetolerance="10"
     inkscape:pageopacity="0"
     inkscape:pageshadow="2"
     inkscape:window-width="1918"
     inkscape:window-height="1017"
     id="namedview7762"
     showgrid="false"
     inkscape:zoom="13.230841"
     inkscape:cx="59.090909"
     inkscape:cy="241.81818"
     inkscape:window-x="0"
     inkscape:window-y="0"
     inkscape:window-maximized="1"
     inkscape:current-layer="svg815"
     inkscape:snap-page="true" />
  <metadata
     id="metadata821">
    <rdf:RDF>
      <cc:Work
         rdf:about="">
        <dc:format>image/svg+xml</dc:format>
        <dc:type
           rdf:resource="http://purl.org/dc/dcmitype/StillImage" />
        <dc:title></dc:title>
      </cc:Work>
    </rdf:RDF>
  </metadata>
  <defs
     id="defs819">
    <linearGradient
       id="linearGradient3804"
       osb:paint="solid">
      <stop
         style="stop-color:#000000;stop-opacity:1;"
         offset="0"
         id="stop3802" />
    </linearGradient>
    <linearGradient
       gradientUnits="userSpaceOnUse"
       y2="71.008263"
       x2="88.849586"
       y1="58.644627"
       x1="82.105782"
       id="linearGradient1063"
       xlink:href="#linearGradient882"
       gradientTransform="matrix(0.0625,0,0,0.0625,89.999999,8.2080078e-7)" />
    <linearGradient
       id="linearGradient882">
      <stop
         style="stop-color:#d16208;stop-opacity:1"
         offset="0"
         id="stop878" />
      <stop
         style="stop-color:#d16250;stop-opacity:0;"
         offset="1"
         id="stop880" />
    </linearGradient>
    <linearGradient
       gradientUnits="userSpaceOnUse"
       y2="68.472336"
       x2="56.128345"
       y1="63.697319"
       x1="61.166279"
       id="linearGradient876"
       xlink:href="#linearGradient882"
       gradientTransform="matrix(0.0625,0,0,0.0625,89.999999,8.2080078e-7)" />
    <linearGradient
       xlink:href="#linearGradient846"
       id="linearGradient848"
       x1="72.37397"
       y1="53.171356"
       x2="72.19931"
       y2="45.564011"
       gradientUnits="userSpaceOnUse"
       gradientTransform="matrix(0.0625,0,0,0.0625,110,-2.6855469e-7)" />
    <linearGradient
       id="linearGradient846">
      <stop
         style="stop-color:#423abf;stop-opacity:1;"
         offset="0"
         id="stop842" />
      <stop
         style="stop-color:#423abf;stop-opacity:0;"
         offset="1"
         id="stop844" />
    </linearGradient>
  </defs>
  <flowRoot
     xml:space="preserve"
     id="flowRoot100"
     style="font-style:normal;font-variant:normal;font-weight:bold;font-stretch:normal;font-size:1px;line-height:1.25;font-family:'DejaVu Sans';-inkscape-font-specification:'DejaVu Sans Bold';letter-spacing:0px;word-spacing:0px;fill:#000000;fill-opacity:1;stroke:none;stroke-width:0.0625"><flowRegion
       style="stroke-width:0.0625"
       id="flowRegion102"><rect
         style="stroke-width:0.00390625"
         id="rect104"
         width="1.5151515"
         height="1.3636364"
         x="0.66287881"
         y="0.73863637" /></flowRegion><flowPara
       style="stroke-width:0.0625"
       id="flowPara106" /></flowRoot>  <rect
     style="fill:#ffffff;fill-opacity:1;stroke:#1a1a1a;stroke-width:0.0625;stroke-opacity:1"
     id="cups04"
     width="10"
     height="15.625"
     x="-0.0056509087"
     y="0" />
  <rect
     style="fill:none;fill-opacity:1;stroke:#1a1a1a;stroke-width:0.0625;stroke-opacity:1"
     id="rect108-87"
     width="7.2537889"
     height="12.973484"
     x="1.3390452"
     y="1.3068161" />
  <g
     id="flowRoot915-9"
     style="font-style:normal;font-variant:normal;font-weight:bold;font-stretch:normal;font-size:16px;line-height:1.25;font-family:'DejaVu Sans';-inkscape-font-specification:'DejaVu Sans Bold';text-align:start;letter-spacing:0px;word-spacing:0px;text-anchor:start;fill:#000000;fill-opacity:1;stroke:none"
     transform="matrix(0.0625,0,0,0.0625,0.18374209,-1.2890627e-7)"
     aria-label="4">
    <path
       id="path4982"
       d="M 8.921875,9.5136719 5.625,14.396484 h 3.296875 z m -0.5,-2.4765625 h 3.34375 v 7.3593746 h 1.664063 v 2.179688 h -1.664063 v 2.125 h -2.84375 v -2.125 H 3.75 v -2.578125 z"
       inkscape:connector-curvature="0" />
  </g>
  <path
     id="path1422-6"
     d="M 4.595092,5.3114689 A 1.3457631,0.39615535 0 0 1 3.249329,5.7076239 1.3457631,0.39615535 0 0 1 1.903566,5.3114689 1.3457631,0.39615535 0 0 1 3.249329,4.9153139 1.3457631,0.39615535 0 0 1 4.595092,5.3114689 Z"
     style="fill:#000080;fill-opacity:1;stroke:#000000;stroke-width:0.06418993;stroke-opacity:0.22110554"
     inkscape:connector-curvature="0" />
  <path
     id="path1430-0"
     d="m 4.524994,5.1170039 v 0.06859 l -0.04599,-0.0351 z"
     style="fill:#0085a6;fill-opacity:1;stroke:#000080;stroke-width:0.06418993;stroke-opacity:1"
     inkscape:connector-curvature="0" />
  <path
     id="path1428-4"
     d="m 1.969334,5.1146579 0.0019,0.07354 0.04838,-0.03741 z"
     style="fill:#000080;fill-opacity:1;stroke:#000080;stroke-width:0.06418993;stroke-opacity:1"
     inkscape:connector-curvature="0" />
  <ellipse
     style="fill:#ffff00;fill-opacity:1;stroke:#000000;stroke-width:0.0299283;stroke-opacity:0.36180905"
     id="path74-1"
     cx="3.3108773"
     cy="3.2058907"
     rx="1.4454892"
     ry="0.51424891" />
  <ellipse
     style="fill:#ff0000;fill-opacity:1;stroke:#000000;stroke-width:0.06418993;stroke-opacity:0.35175883"
     id="path76-0"
     cx="3.2999368"
     cy="3.1876564"
     rx="1.2862301"
     ry="0.41091281" />
  <path
     style="fill:#008000;fill-opacity:1;stroke:#000000;stroke-width:0.06418993;stroke-opacity:0.16582917"
     d="m 1.855664,3.2460109 0.09239,0.141023 0.106983,0.08267 0.179926,0.08267 0.170201,0.05836 0.277184,0.05349 0.238281,0.04377 0.228555,0.01945 h 0.194514 0.233419 l 0.213966,-0.02918 0.218829,-0.02918 0.189652,-0.06322 0.209103,-0.07294 0.194516,-0.08267 0.131298,-0.126435 0.02432,-0.09726 -0.01945,0.369579 -0.02918,0.131298 -0.06322,0.141023 -0.08753,0.08267 -0.06322,0.07294 -0.141023,0.09726 -0.165338,0.07781 -0.141024,0.05835 -0.123426,0.04377 -0.101811,0.02308 -0.102662,0.03532 -0.07096,0.03886 -0.06968,0.04863 -0.567263,-0.0049 -0.04292,-0.04801 -0.07078,-0.04407 -0.08714,-0.03103 -0.07634,-0.02763 -0.131298,-0.03404 -0.06808,-0.0389 -0.179927,-0.08753 -0.106983,-0.07781 -0.155612,-0.106983 -0.06322,-0.0924 -0.07294,-0.07781 -0.03404,-0.08267 -0.02918,-0.121572 -0.02431,-0.141024 -0.01459,-0.09239 z"
     id="path80-4"
     inkscape:connector-curvature="0" />
  <rect
     style="fill:#0088aa;fill-opacity:1;stroke:#000000;stroke-width:0.06418993;stroke-opacity:0.20100505"
     id="rect87-8"
     width="0.56577617"
     height="0.18458806"
     x="3.0130258"
     y="4.442276" />
  <path
     id="path1424-70"
     d="m 4.556738,5.0238779 v 0.323007"
     style="fill:#008000;fill-opacity:1;stroke:#000080;stroke-width:0.06436849;stroke-opacity:0.26633169"
     inkscape:connector-curvature="0" />
  <path
     id="path1426-8"
     d="m 1.936297,5.0013729 0.0048,0.326013"
     style="fill:#0085a6;fill-opacity:1;stroke:#000080;stroke-width:0.06418993;stroke-opacity:0.32160806"
     inkscape:connector-curvature="0" />
  <path
     style="fill:#0088aa;fill-opacity:1;stroke:#000000;stroke-width:0.06418993;stroke-opacity:0.18592966"
     d="M 4.595092,4.9902509 A 1.3457631,0.39615535 0 0 1 3.249329,5.3864059 1.3457631,0.39615535 0 0 1 1.903566,4.9902509 1.3457631,0.39615535 0 0 1 3.249329,4.5940949 1.3457631,0.39615535 0 0 1 4.595092,4.9902509 Z"
     id="path84-6"
     inkscape:connector-curvature="0" />
  <path
     style="fill:#000080;fill-opacity:1;stroke:#000000;stroke-width:0.06418993;stroke-opacity:0.22110554"
     d="M 7.844516,5.3114689 A 1.3457631,0.39615535 0 0 1 6.498753,5.7076239 1.3457631,0.39615535 0 0 1 5.152989,5.3114689 1.3457631,0.39615535 0 0 1 6.498753,4.9153139 1.3457631,0.39615535 0 0 1 7.844516,5.3114689 Z"
     id="path3996"
     inkscape:connector-curvature="0" />
  <path
     style="fill:#0085a6;fill-opacity:1;stroke:#000080;stroke-width:0.06418993;stroke-opacity:1"
     d="m 7.774418,5.1170039 v 0.06859 l -0.04599,-0.0351 z"
     id="path3998"
     inkscape:connector-curvature="0" />
  <path
     style="fill:#000080;fill-opacity:1;stroke:#000080;stroke-width:0.06418993;stroke-opacity:1"
     d="m 5.218758,5.1146579 0.0019,0.07354 0.04838,-0.03741 z"
     id="path4000"
     inkscape:connector-curvature="0" />
  <ellipse
     ry="0.51424891"
     rx="1.4454892"
     cy="3.2058907"
     cx="6.5603051"
     id="ellipse4002"
     style="fill:#ffff00;fill-opacity:1;stroke:#000000;stroke-width:0.0299283;stroke-opacity:0.36180905" />
  <ellipse
     ry="0.41091281"
     rx="1.2862301"
     cy="3.1876564"
     cx="6.5493646"
     id="ellipse4004"
     style="fill:#ff0000;fill-opacity:1;stroke:#000000;stroke-width:0.06418993;stroke-opacity:0.35175883" />
  <path
     id="path4006"
     d="m 5.105088,3.2460109 0.09239,0.141023 0.106983,0.08267 0.179927,0.08267 0.1702,0.05836 0.277184,0.05349 0.238281,0.04377 0.228555,0.01945 h 0.194514 0.233419 l 0.213966,-0.02918 0.218829,-0.02918 0.189653,-0.06322 0.209103,-0.07294 0.194515,-0.08267 0.131298,-0.126435 0.02432,-0.09726 -0.01945,0.369579 -0.02918,0.131298 -0.06322,0.141023 -0.08753,0.08267 -0.06322,0.07294 -0.141023,0.09726 -0.165339,0.07781 -0.141023,0.05835 -0.123425,0.04377 -0.101812,0.02308 -0.102662,0.03532 -0.07096,0.03886 -0.06968,0.04863 -0.567263,-0.0049 -0.04292,-0.04801 -0.07078,-0.04407 -0.08714,-0.03103 -0.07634,-0.02763 -0.131298,-0.03404 -0.06808,-0.0389 -0.179926,-0.08753 -0.106984,-0.07781 -0.155612,-0.106983 -0.06322,-0.0924 -0.07294,-0.07781 -0.03404,-0.08267 -0.02918,-0.121572 -0.02432,-0.141024 -0.01459,-0.09239 z"
     style="fill:#008000;fill-opacity:1;stroke:#000000;stroke-width:0.06418993;stroke-opacity:0.16582917"
     inkscape:connector-curvature="0" />
  <rect
     y="4.442276"
     x="6.2624459"
     height="0.18458806"
     width="0.56577617"
     id="rect4008"
     style="fill:#0088aa;fill-opacity:1;stroke:#000000;stroke-width:0.06418993;stroke-opacity:0.20100505" />
  <path
     style="fill:#008000;fill-opacity:1;stroke:#000080;stroke-width:0.06436849;stroke-opacity:0.26633169"
     d="m 7.806161,5.0238779 v 0.323007"
     id="path4010"
     inkscape:connector-curvature="0" />
  <path
     style="fill:#0085a6;fill-opacity:1;stroke:#000080;stroke-width:0.06418993;stroke-opacity:0.32160806"
     d="m 5.185721,5.0013729 0.0048,0.326013"
     id="path4012"
     inkscape:connector-curvature="0" />
  <path
     id="path4014"
     d="M 7.844516,4.9902509 A 1.3457631,0.39615535 0 0 1 6.498753,5.3864059 1.3457631,0.39615535 0 0 1 5.152989,4.9902509 1.3457631,0.39615535 0 0 1 6.498753,4.5940949 1.3457631,0.39615535 0 0 1 7.844516,4.9902509 Z"
     style="fill:#0088aa;fill-opacity:1;stroke:#000000;stroke-width:0.06418993;stroke-opacity:0.18592966"
     inkscape:connector-curvature="0" />
  <path
     style="fill:#000080;fill-opacity:1;stroke:#000000;stroke-width:0.06418993;stroke-opacity:0.22110554"
     d="M 4.595092,12.552468 A 1.3457631,0.39615535 0 0 1 3.249329,12.948623 1.3457631,0.39615535 0 0 1 1.903566,12.552468 1.3457631,0.39615535 0 0 1 3.249329,12.156313 1.3457631,0.39615535 0 0 1 4.595092,12.552468 Z"
     id="path4016"
     inkscape:connector-curvature="0" />
  <path
     style="fill:#0085a6;fill-opacity:1;stroke:#000080;stroke-width:0.06418993;stroke-opacity:1"
     d="m 4.524994,12.358003 v 0.06859 l -0.04599,-0.0351 z"
     id="path4018"
     inkscape:connector-curvature="0" />
  <path
     style="fill:#000080;fill-opacity:1;stroke:#000080;stroke-width:0.06418993;stroke-opacity:1"
     d="m 1.969334,12.355657 0.0019,0.07354 0.04838,-0.03741 z"
     id="path4020"
     inkscape:connector-curvature="0" />
  <ellipse
     ry="0.51424891"
     rx="1.4454892"
     cy="10.446892"
     cx="3.3108773"
     id="ellipse4022"
     style="fill:#ffff00;fill-opacity:1;stroke:#000000;stroke-width:0.0299283;stroke-opacity:0.36180905" />
  <ellipse
     ry="0.41091281"
     rx="1.2862301"
     cy="10.428654"
     cx="3.2999368"
     id="ellipse4024"
     style="fill:#ff0000;fill-opacity:1;stroke:#000000;stroke-width:0.06418993;stroke-opacity:0.35175883" />
  <path
     id="path4026"
     d="m 1.855664,10.48701 0.09239,0.141023 0.106983,0.08267 0.179926,0.08267 0.170201,0.05835 0.277184,0.05349 0.238281,0.04377 0.228555,0.01945 h 0.194514 0.233419 l 0.213966,-0.02918 0.218829,-0.02918 0.189652,-0.06322 0.209103,-0.07294 0.194516,-0.08267 0.131298,-0.126435 0.02432,-0.09726 -0.01945,0.369579 -0.02918,0.131297 -0.06322,0.141023 -0.08753,0.08267 -0.06322,0.07294 -0.141023,0.09726 -0.165338,0.07781 -0.141024,0.05835 -0.123426,0.04377 -0.101811,0.02308 -0.102662,0.03532 -0.07096,0.03886 -0.06968,0.04863 -0.567263,-0.0049 -0.04292,-0.04801 -0.07078,-0.04407 -0.08714,-0.03103 -0.07634,-0.02763 -0.131298,-0.03404 -0.06808,-0.0389 -0.179927,-0.08753 -0.106983,-0.07781 -0.155612,-0.106984 -0.06322,-0.09239 -0.07294,-0.07781 -0.03404,-0.08267 -0.02918,-0.121572 -0.02431,-0.141024 -0.01459,-0.09239 z"
     style="fill:#008000;fill-opacity:1;stroke:#000000;stroke-width:0.06418993;stroke-opacity:0.16582917"
     inkscape:connector-curvature="0" />
  <rect
     y="11.683277"
     x="3.0130258"
     height="0.18458806"
     width="0.56577617"
     id="rect4028"
     style="fill:#0088aa;fill-opacity:1;stroke:#000000;stroke-width:0.06418993;stroke-opacity:0.20100505" />
  <path
     style="fill:#008000;fill-opacity:1;stroke:#000080;stroke-width:0.06436849;stroke-opacity:0.26633169"
     d="m 4.556738,12.264877 v 0.323008"
     id="path4030"
     inkscape:connector-curvature="0" />
  <path
     style="fill:#0085a6;fill-opacity:1;stroke:#000080;stroke-width:0.06418993;stroke-opacity:0.32160806"
     d="m 1.936297,12.242372 0.0048,0.326013"
     id="path4032"
     inkscape:connector-curvature="0" />
  <path
     id="path4034"
     d="M 4.595092,12.23125 A 1.3457631,0.39615535 0 0 1 3.249329,12.627405 1.3457631,0.39615535 0 0 1 1.903566,12.23125 1.3457631,0.39615535 0 0 1 3.249329,11.835095 1.3457631,0.39615535 0 0 1 4.595092,12.23125 Z"
     style="fill:#0088aa;fill-opacity:1;stroke:#000000;stroke-width:0.06418993;stroke-opacity:0.18592966"
     inkscape:connector-curvature="0" />
  <path
     id="path4036"
     d="M 7.844516,12.552468 A 1.3457631,0.39615535 0 0 1 6.498753,12.948623 1.3457631,0.39615535 0 0 1 5.152989,12.552468 1.3457631,0.39615535 0 0 1 6.498753,12.156313 1.3457631,0.39615535 0 0 1 7.844516,12.552468 Z"
     style="fill:#000080;fill-opacity:1;stroke:#000000;stroke-width:0.06418993;stroke-opacity:0.22110554"
     inkscape:connector-curvature="0" />
  <path
     id="path4038"
     d="m 7.774418,12.358003 v 0.06859 l -0.04599,-0.0351 z"
     style="fill:#0085a6;fill-opacity:1;stroke:#000080;stroke-width:0.06418993;stroke-opacity:1"
     inkscape:connector-curvature="0" />
  <path
     id="path4040"
     d="m 5.218758,12.355657 0.0019,0.07354 0.04838,-0.03741 z"
     style="fill:#000080;fill-opacity:1;stroke:#000080;stroke-width:0.06418993;stroke-opacity:1"
     inkscape:connector-curvature="0" />
  <ellipse
     style="fill:#ffff00;fill-opacity:1;stroke:#000000;stroke-width:0.0299283;stroke-opacity:0.36180905"
     id="ellipse4042"
     cx="6.5603051"
     cy="10.446892"
     rx="1.4454892"
     ry="0.51424891" />
  <ellipse
     style="fill:#ff0000;fill-opacity:1;stroke:#000000;stroke-width:0.06418993;stroke-opacity:0.35175883"
     id="ellipse4044"
     cx="6.5493646"
     cy="10.428654"
     rx="1.2862301"
     ry="0.41091281" />
  <path
     style="fill:#008000;fill-opacity:1;stroke:#000000;stroke-width:0.06418993;stroke-opacity:0.16582917"
     d="m 5.105088,10.48701 0.09239,0.141023 0.106983,0.08267 0.179927,0.08267 0.1702,0.05835 0.277184,0.05349 0.238281,0.04377 0.228555,0.01945 h 0.194514 0.233419 l 0.213966,-0.02918 0.218829,-0.02918 0.189653,-0.06322 0.209103,-0.07294 0.194515,-0.08267 0.131298,-0.126435 0.02432,-0.09726 -0.01945,0.369579 -0.02918,0.131297 -0.06322,0.141023 -0.08753,0.08267 -0.06322,0.07294 -0.141023,0.09726 -0.165339,0.07781 -0.141023,0.05835 -0.123425,0.04377 -0.101812,0.02308 -0.102662,0.03532 -0.07096,0.03886 -0.06968,0.04863 -0.567263,-0.0049 -0.04292,-0.04801 -0.07078,-0.04407 -0.08714,-0.03103 -0.07634,-0.02763 -0.131298,-0.03404 -0.06808,-0.0389 -0.179926,-0.08753 -0.106984,-0.07781 -0.155612,-0.106984 -0.06322,-0.09239 -0.07294,-0.07781 -0.03404,-0.08267 -0.02918,-0.121572 -0.02432,-0.141024 -0.01459,-0.09239 z"
     id="path4046"
     inkscape:connector-curvature="0" />
  <rect
     style="fill:#0088aa;fill-opacity:1;stroke:#000000;stroke-width:0.06418993;stroke-opacity:0.20100505"
     id="rect4048"
     width="0.56577617"
     height="0.18458806"
     x="6.2624459"
     y="11.683277" />
  <path
     id="path4050"
     d="m 7.806161,12.264877 v 0.323008"
     style="fill:#008000;fill-opacity:1;stroke:#000080;stroke-width:0.06436849;stroke-opacity:0.26633169"
     inkscape:connector-curvature="0" />
  <path
     id="path4052"
     d="m 5.185721,12.242372 0.0048,0.326013"
     style="fill:#0085a6;fill-opacity:1;stroke:#000080;stroke-width:0.06418993;stroke-opacity:0.32160806"
     inkscape:connector-curvature="0" />
  <path
     style="fill:#0088aa;fill-opacity:1;stroke:#000000;stroke-width:0.06418993;stroke-opacity:0.18592966"
     d="M 7.844516,12.23125 A 1.3457631,0.39615535 0 0 1 6.498753,12.627405 1.3457631,0.39615535 0 0 1 5.152989,12.23125 1.3457631,0.39615535 0 0 1 6.498753,11.835095 1.3457631,0.39615535 0 0 1 7.844516,12.23125 Z"
     id="path4054"
     inkscape:connector-curvature="0" />
</svg>
