<?xml version="1.0" encoding="UTF-8" standalone="no"?>
<svg
   xmlns:osb="http://www.openswatchbook.org/uri/2009/osb"
   xmlns:dc="http://purl.org/dc/elements/1.1/"
   xmlns:cc="http://creativecommons.org/ns#"
   xmlns:rdf="http://www.w3.org/1999/02/22-rdf-syntax-ns#"
   xmlns:svg="http://www.w3.org/2000/svg"
   xmlns="http://www.w3.org/2000/svg"
   xmlns:xlink="http://www.w3.org/1999/xlink"
   xmlns:sodipodi="http://sodipodi.sourceforge.net/DTD/sodipodi-0.dtd"
   xmlns:inkscape="http://www.inkscape.org/namespaces/inkscape"
   viewBox="0 0 160 250"
   height="250"
   width="160"
   id="svg815"
   version="1.1"
   sodipodi:docname="cups11.svg"
   inkscape:version="0.92.5 (2060ec1f9f, 2020-04-08)">
  <sodipodi:namedview
     pagecolor="#ffffff"
     bordercolor="#666666"
     borderopacity="1"
     objecttolerance="10"
     gridtolerance="10"
     guidetolerance="10"
     inkscape:pageopacity="0"
     inkscape:pageshadow="2"
     inkscape:window-width="1918"
     inkscape:window-height="1017"
     id="namedview7762"
     showgrid="false"
     inkscape:zoom="11.280478"
     inkscape:cx="56.363636"
     inkscape:cy="237.57576"
     inkscape:window-x="0"
     inkscape:window-y="0"
     inkscape:window-maximized="1"
     inkscape:current-layer="svg815"
     inkscape:snap-page="true" />
  <metadata
     id="metadata821">
    <rdf:RDF>
      <cc:Work
         rdf:about="">
        <dc:format>image/svg+xml</dc:format>
        <dc:type
           rdf:resource="http://purl.org/dc/dcmitype/StillImage" />
        <dc:title></dc:title>
      </cc:Work>
    </rdf:RDF>
  </metadata>
  <defs
     id="defs819">
    <linearGradient
       id="linearGradient3804"
       osb:paint="solid">
      <stop
         style="stop-color:#000000;stop-opacity:1;"
         offset="0"
         id="stop3802" />
    </linearGradient>
    <linearGradient
       gradientUnits="userSpaceOnUse"
       y2="71.008263"
       x2="88.849586"
       y1="58.644627"
       x1="82.105782"
       id="linearGradient1063"
       xlink:href="#linearGradient882"
       gradientTransform="matrix(0.0625,0,0,0.0625,89.999999,8.2080078e-7)" />
    <linearGradient
       id="linearGradient882">
      <stop
         style="stop-color:#d16208;stop-opacity:1"
         offset="0"
         id="stop878" />
      <stop
         style="stop-color:#d16250;stop-opacity:0;"
         offset="1"
         id="stop880" />
    </linearGradient>
    <linearGradient
       gradientUnits="userSpaceOnUse"
       y2="68.472336"
       x2="56.128345"
       y1="63.697319"
       x1="61.166279"
       id="linearGradient876"
       xlink:href="#linearGradient882"
       gradientTransform="matrix(0.0625,0,0,0.0625,89.999999,8.2080078e-7)" />
    <linearGradient
       xlink:href="#linearGradient846"
       id="linearGradient848"
       x1="72.37397"
       y1="53.171356"
       x2="72.19931"
       y2="45.564011"
       gradientUnits="userSpaceOnUse"
       gradientTransform="matrix(0.0625,0,0,0.0625,110,-2.6855469e-7)" />
    <linearGradient
       id="linearGradient846">
      <stop
         style="stop-color:#423abf;stop-opacity:1;"
         offset="0"
         id="stop842" />
      <stop
         style="stop-color:#423abf;stop-opacity:0;"
         offset="1"
         id="stop844" />
    </linearGradient>
  </defs>
  <flowRoot
     xml:space="preserve"
     id="flowRoot100"
     style="font-style:normal;font-variant:normal;font-weight:bold;font-stretch:normal;font-size:1px;line-height:1.25;font-family:'DejaVu Sans';-inkscape-font-specification:'DejaVu Sans Bold';letter-spacing:0px;word-spacing:0px;fill:#000000;fill-opacity:1;stroke:none;stroke-width:0.0625"><flowRegion
       style="stroke-width:0.0625"
       id="flowRegion102"><rect
         style="stroke-width:0.00390625"
         id="rect104"
         width="1.5151515"
         height="1.3636364"
         x="0.66287881"
         y="0.73863637" /></flowRegion><flowPara
       style="stroke-width:0.0625"
       id="flowPara106" /></flowRoot>  <rect
     style="fill:#ffffff;fill-opacity:1;stroke:#1a1a1a;stroke-width:0.0625;stroke-opacity:1"
     id="cups11"
     width="10"
     height="15.625"
     x="-0.084410541"
     y="0" />
  <rect
     style="fill:none;fill-opacity:1;stroke:#1a1a1a;stroke-width:0.0625;stroke-opacity:1"
     id="rect108-02"
     width="7.2537889"
     height="12.973484"
     x="1.2602931"
     y="1.3068161" />
  <g
     id="flowRoot915-1"
     style="font-style:normal;font-variant:normal;font-weight:bold;font-stretch:normal;font-size:16px;line-height:1.25;font-family:'DejaVu Sans';-inkscape-font-specification:'DejaVu Sans Bold';text-align:start;letter-spacing:0px;word-spacing:0px;text-anchor:start;fill:#000000;fill-opacity:1;stroke:none"
     transform="matrix(0.0625,0,0,0.0625,0.10497946,0)"
     aria-label="11">
    <path
       id="path8213"
       d="M 4.90625,16.623047 H 7.5625 V 9.0839844 l -2.7265625,0.5625 v -2.046875 l 2.7109375,-0.5625 h 2.859375 v 9.5859376 h 2.65625 v 2.078125 H 4.90625 Z"
       inkscape:connector-curvature="0" />
    <path
       id="path8215"
       d="m 16.039062,16.623047 h 2.65625 V 9.0839844 l -2.726562,0.5625 v -2.046875 l 2.710937,-0.5625 h 2.859375 v 9.5859376 h 2.65625 v 2.078125 h -8.15625 z"
       inkscape:connector-curvature="0" />
  </g>
  <path
     style="fill:#df6a64;fill-opacity:1;stroke:#000000;stroke-width:0.05652938;stroke-opacity:0"
     d="M 3.0966494,4.49704 2.9977894,4.47125 2.8903394,4.41108 V 4.35091 l 0.0215,-0.116049 0.0473,-0.06877 0.15903,-0.08166 0.12464,-0.08166 0.10316,-0.06447 0.0731,-0.02579 0.0817,-0.03439 0.0473,-0.05588 0.0688,-0.07307 0.043,-0.06447 0.086,-0.06877 0.11175,-0.07737 0.0946,-0.06447 0.10745,-0.03868 0.12894,-0.04298 h 0.12895 l 0.15473,0.0043 0.12464,0.05588 0.10746,0.03438 0.0473,0.05158 0.10745,0.103154 0.043,0.06447 0.0387,0.141837 -0.0172,0.111751 -0.0473,0.05588 -0.0559,0.05588 -0.086,0.03439 -0.0731,0.02149 h -0.0516 l -0.0559,-0.06017 -0.0473,-0.09026 -0.086,-0.09886 -0.10745,-0.03009 h -0.12895 l -0.2106,-0.0043 -0.13325,0.04728 -0.13324,0.107452 -0.0387,0.03009 -0.0602,0.04728 -0.10745,0.103155 -0.10315,0.08166 -0.0602,0.06877 -0.0817,0.06447 -0.0602,0.06017 z"
     id="path879"
     inkscape:connector-curvature="0" />
  <path
     style="fill:#659c5e;fill-opacity:1;stroke:#bc0033;stroke-width:0.05652938;stroke-opacity:0.38219898"
     d="m 3.5006694,3.878114 -0.0903,-0.08596 -0.0903,-0.04298 -0.11605,-0.08166 -0.12464,-0.02149 -0.17193,0.03009 -0.009,0.05588 -0.0645,0.06877 -0.0989,0.01719 -0.16762,0.0043 -0.0731,-0.03868 -0.0903,-0.06017 -0.0688,-0.04728 -0.0172,-0.116049 0.004,-0.103154 0.0903,-0.09456 0.0645,-0.09456 0.12464,-0.06877 0.086,-0.06447 0.13754,-0.05158 h 0.16333 l 0.11605,0.01289 0.13754,0.07307 0.10745,0.05588 0.10315,0.06877 0.0688,0.09456 0.0172,0.06017 0.12895,-0.04728 0.0946,-0.04298 0.0989,-0.06447 0.10315,-0.01719 0.0903,0.01719 0.0516,0.02149 0.0817,0.07737 -0.2364,0.08166 -0.2063,0.141838 -0.12895,0.133241 z"
     id="path889"
     inkscape:connector-curvature="0" />
  <path
     style="fill:#deb392;fill-opacity:0.66492148;stroke:#000000;stroke-width:0.05652938;stroke-opacity:0"
     d="m 3.9734594,3.843729 -0.13324,0.04728 -0.14184,0.111751 -0.004,0.176222 0.0129,0.210607 -0.009,0.124645 0.0129,0.09026 0.0258,0.07737 0.0774,0.01289 0.0301,0.03439 0.0301,0.03439 -0.0172,0.03868 v 0.07307 l 0.0688,0.04298 0.12035,0.0086 0.11605,0.01719 0.10745,-0.01289 0.0903,-0.02149 0.0301,-0.02149 0.004,-0.05588 -0.0172,-0.03868 0.0301,-0.01719 0.086,-0.03439 0.0129,-0.08166 -0.009,-0.103154 0.009,-0.03439 0.0258,-0.05588 0.0129,-0.07737 -0.0129,-0.06017 -0.0301,-0.05588 -0.0172,-0.05158 V 4.16179 4.06723 4.01995 l 0.0215,-0.04298 -0.086,-0.09886 -0.10745,-0.03009 z"
     id="path907"
     inkscape:connector-curvature="0" />
  <path
     style="fill:#3c3833;fill-opacity:1;stroke:#000000;stroke-width:0.05652938;stroke-opacity:0"
     d="m 3.8960994,4.04574 0.0688,-0.03439 h 0.0903 l 0.0731,0.02149"
     id="path909"
     inkscape:connector-curvature="0" />
  <path
     style="fill:#3c3833;fill-opacity:1;stroke:#000000;stroke-width:0.05652938;stroke-opacity:0"
     d="m 4.2657294,4.037144 0.0344,-0.03868 0.12035,-0.0043"
     id="path911"
     inkscape:connector-curvature="0" />
  <path
     style="fill:#cba483;fill-opacity:1;stroke:#000000;stroke-width:0.05652938;stroke-opacity:0"
     d="m 3.9003894,4.136 0.0903,-0.03439 h 0.0516 l 0.043,0.0086 0.0215,0.01719 -0.0301,0.02149 -0.0602,0.0043 h -0.0516 z"
     id="path913"
     inkscape:connector-curvature="0" />
  <path
     style="fill:#cba483;fill-opacity:1;stroke:#000000;stroke-width:0.05652938;stroke-opacity:0"
     d="m 4.3301994,4.148894 0.0473,0.0043 0.0387,-0.0043 0.043,-0.02149 0.0129,-0.02579 -0.0774,-0.01719 -0.0688,0.0043 -0.0473,0.03009 z"
     id="path915"
     inkscape:connector-curvature="0" />
  <path
     style="fill:#f0bf92;fill-opacity:0.6701571;stroke:#000000;stroke-width:0.05652938;stroke-opacity:0"
     d="m 4.1969594,4.097317 0.0172,0.07737 0.0387,0.02579 0.0215,0.03009 0.0473,0.06877 v 0.03868 l -0.0645,0.02579 -0.0645,-0.02579 -0.0473,-0.0043 0.004,-0.03009"
     id="path917"
     inkscape:connector-curvature="0" />
  <path
     style="fill:#f0bf92;fill-opacity:0.6701571;stroke:#000000;stroke-width:0.05652938;stroke-opacity:0"
     d="m 3.9992494,4.540022 0.0817,-0.0043 0.0688,-0.05588 0.043,-0.01719 0.0559,-0.0043 h 0.0731 l 0.0258,0.02149 0.0387,0.02579 0.0301,0.02149 h 0.0301"
     id="path919"
     inkscape:connector-curvature="0" />
  <path
     style="fill:#3c3833;fill-opacity:1;stroke:#000000;stroke-width:0.05652938;stroke-opacity:0"
     d="m 3.6983794,4.514233 -0.13324,-0.02579 -0.0516,0.03439 -0.0559,0.02579 -0.11175,-0.02149 -0.13324,-0.02579 -0.11605,-0.0043 0.15903,-0.103154 0.0817,-0.06447 0.0602,-0.06877 0.10316,-0.08166 0.10745,-0.103155 0.0903,-0.07307 -0.004,0.176222 0.0172,0.141837 -0.004,0.06877 z"
     id="path921"
     inkscape:connector-curvature="0" />
  <path
     style="fill:#3c3833;fill-opacity:1;stroke:#000000;stroke-width:0.05652938;stroke-opacity:0"
     d="m 4.4763394,4.617387 -0.0688,0.15903 -0.0172,0.111751 0.15043,-0.0129 0.15903,0.08166 0.12465,-0.01289 0.13324,-0.05158 0.10745,-0.06877 0.0387,-0.120347 -0.0559,-0.137539 -0.19771,-0.107452 -0.0989,-0.167626 -0.0172,-0.184819 -0.12465,0.02149 -0.0559,-0.06017 -0.0473,-0.09026 -0.0215,0.04298 -0.009,0.15903 0.009,0.04298 0.0172,0.05158 0.0301,0.05588 0.0129,0.06017 -0.0129,0.07737 z"
     id="path923"
     inkscape:connector-curvature="0" />
  <path
     style="fill:#df6a64;fill-opacity:1;stroke:#bc0033;stroke-width:0.05652938;stroke-opacity:0.38219898"
     d="m 3.4576894,4.548618 -0.0688,0.06017 -0.0602,0.03439 -0.0516,0.01719 -0.0344,0.03009 -0.0344,0.03439 -0.0387,0.03868 v 0.05587 0.111751 l 0.0387,0.06877 0.0946,-0.0043 0.15043,-0.06017 0.0903,-0.03009 0.10316,-0.04298 0.0645,-0.01289 h 0.0473 l 0.043,0.0043 0.0559,0.02149 0.0172,-0.11175 -0.0602,-0.06877 -0.0774,-0.01289 -0.0258,-0.07737 -0.0129,-0.09026 -0.0903,-0.04728 -0.043,0.02149 z"
     id="path925"
     inkscape:connector-curvature="0" />
  <path
     style="fill:#659c5e;fill-opacity:1;stroke:#bc0033;stroke-width:0.05652938;stroke-opacity:0.38219898"
     d="m 3.3029594,4.99562 0.034,0.05338 0.0698,0.01329 0.0831,0.02658 0.003,0.06645 0.0133,0.06644 0.0731,0.08638 0.0764,0.06977 0.0897,0.0897 0.11295,0.09967 0.0598,0.0299 0.12625,0.01993 0.0698,-0.03654 0.0831,-0.05316 0.0465,-0.0598 0.0332,-0.04983 0.0332,-0.05648 0.0166,-0.05648 0.0299,-0.03987 0.0299,-0.01329 0.0498,0.01 0.0864,0.0299 0.093,0.03987 0.0864,0.03322 0.0698,0.01 h 0.0764 l 0.0764,-0.0299 0.0897,-0.09967 0.0432,-0.04651 0.0199,-0.05648 0.0233,-0.0598 0.0233,-0.03987 0.0498,-0.0299 0.10299,-0.0299 0.0797,0.01329 0.0764,0.01 -0.0266,-0.05648 -0.0997,-0.04319 -0.0997,-0.03987 -0.14222,-0.04259 v 0 l -0.10745,0.06877 -0.13324,0.05158 -0.12464,0.01289 -0.15903,-0.08166 -0.15044,0.0129 -0.0301,0.02149 -0.0903,0.02149 -0.10745,0.01289 -0.11605,-0.01719 -0.12035,-0.0086 -0.12464,-0.06447 -0.0903,-0.0043 -0.0645,0.01289 -0.10315,0.04298 z"
     id="path927-7"
     inkscape:connector-curvature="0" />
  <path
     style="fill:#eac86e;fill-opacity:1;stroke:#bc0033;stroke-width:0.05652938;stroke-opacity:0.38219898"
     d="m 3.3029594,4.99562 -0.0946,0.0043 -0.0606,0.03642 -0.12624,0.03551 -0.0986,0.04734 -0.11836,0.04734 -0.0552,0.05918 -0.0868,0.09863 -0.0907,0.09863 -0.071,0.118353 -0.0276,0.130189 -0.008,0.118354 0.0316,0.0789 0.0434,0.09468 -0.0197,0.06312 v 0.04734 l 0.13808,0.01973 0.0671,-0.01184 h 0.11046 0.0868 l 0.0671,0.03156 0.071,0.05129 0.0552,0.0434 0.071,0.06312 0.0395,0.04734 0.0355,-0.06707 v -0.06707 l -0.008,-0.07496 -0.0118,-0.08679 0.0355,-0.04734 0.0789,-0.0079 0.075,-0.0434 0.12625,-0.05129 0.0473,-0.04734 0.0434,-0.01184 h 0.0395 l 0.008,-0.102573 0.0552,-0.05918 0.008,-0.05523 -0.0118,-0.09074 -0.24107,-0.284048 -0.0133,-0.06644 -0.003,-0.06645 -0.0831,-0.02658 -0.0698,-0.01329 z"
     id="path929-5"
     inkscape:connector-curvature="0" />
  <path
     style="fill:#d5635e;fill-opacity:1;stroke:#bc0033;stroke-width:0.05652938;stroke-opacity:0.38219898"
     d="m 2.5205594,6.073904 -0.0316,0.122299 -0.0592,0.126243 -0.0158,0.08285 v 0.173585 l -0.008,0.110463 0.0316,0.09074 0.16175,0.07496 0.14202,0.07101 0.11047,0.05918 0.0947,0.02367 0.071,0.05523 0.0355,-0.01184 -0.0158,-0.0789 0.0118,-0.09468 0.0197,-0.07101 0.0592,-0.07101 0.0434,-0.02367 0.0671,-0.01973 0.0395,-0.01578 0.0434,-0.02762 0.0513,-0.02762 0.0197,-0.06312 -0.0947,-0.0789 -0.1223,-0.02367 -0.0355,-0.05918 0.008,-0.0434 v -0.07101 l 0.0395,-0.01183 -0.26433,-0.189366 -0.26432,0.01184 z"
     id="path931"
     inkscape:connector-curvature="0" />
  <path
     style="fill:#ecc771;fill-opacity:1;stroke:#bc0033;stroke-width:0.05652938;stroke-opacity:0.38219898"
     d="m 3.0531494,7.052293 0.0789,0.0079 0.11046,-0.01184 0.0868,0.01184 0.0868,-0.01184 h 0.0986 0.0671 l 0.0316,0.01578 0.071,0.0434 0.0434,-0.0079 0.008,-0.0789 -0.0237,-0.03156 -0.0355,-0.118353 0.008,-0.134134 v -0.05918 l 0.0473,-0.0434 -0.0631,-0.03156 -0.11046,0.02367 -0.071,-0.0079 -0.0631,-0.02367 -0.0316,-0.0355 -0.071,0.09074 -0.14992,0.06312 -0.10257,0.09468 -0.0316,0.165695 z"
     id="path933"
     inkscape:connector-curvature="0" />
  <path
     style="fill:#eac86e;fill-opacity:1;stroke:#bc0033;stroke-width:0.05652938;stroke-opacity:0.13089007"
     d="m 5.4332994,5.005815 0.0394,0.06196 0.0477,0.01362 0.0579,0.108969 v 0.09535 0.07151 l 0.0375,0.08173 0.0204,0.0647 -0.0409,0.09875 -0.0749,0.0647 -0.0545,0.03746 -0.0306,0.03405 -0.0443,-0.02043 -0.0715,-0.05448 -0.0953,-0.108968 -0.0613,-0.06129 -0.0477,-0.09535 -0.0443,-0.06811 -0.0136,-0.0681 6.6e-4,-0.06337 0.0664,-0.156143 0.0498,-0.0299 0.10299,-0.0299 z"
     id="path935"
     inkscape:connector-curvature="0" />
  <path
     style="fill:#dfba9b;fill-opacity:1;stroke:#bc0033;stroke-width:0.05652938;stroke-opacity:0.13089007"
     d="m 3.7317094,6.63411 0.10643,0.03414 h 0.0409 l 0.0545,-0.02384 0.0749,-0.01022 h 0.0613 0.0613 l 0.0715,0.02384 0.0272,0.01022 0.0443,0.05448 0.0307,0.05448 v 0.04767 l -0.003,0.04767 -0.017,0.05448 -0.0102,0.03065 -0.034,0.04086 -0.11237,0.02384 -0.12599,0.01021 -0.13621,0.0068 -0.0715,0.01022 -0.0661,0.05 0.008,-0.0789 -0.0592,-0.149914 0.008,-0.193311 z"
     id="path937"
     inkscape:connector-curvature="0" />
  <path
     style="fill:#dfba9b;fill-opacity:1;stroke:#bc0033;stroke-width:0.05652938;stroke-opacity:0.13089007"
     d="m 5.0640394,6.375394 -0.13962,-0.01362 -0.0919,0.01362 -0.11578,0.02043 -0.0443,0.03405 -0.0681,0.05789 0.017,0.07492 0.0102,0.102157 v 0.03746 l 0.0409,0.03746 0.0545,0.02724 0.11238,-0.01362 0.0681,-0.02043 0.0545,-0.01362 0.0715,-0.05789 0.0409,-0.06811 0.0102,-0.08513 v -0.05448 l 0.0136,-0.05789 z"
     id="path939"
     inkscape:connector-curvature="0" />
  <path
     style="fill:#d5635e;fill-opacity:1;stroke:#bc0033;stroke-width:0.05652938;stroke-opacity:0.13089007"
     d="m 3.2425094,6.022617 0.0917,0.162082 0.0715,0.156643 0.0511,0.06129 0.0443,0.05108 0.0919,0.07491 0.0756,0.07392 0.16956,0.0657 0.0953,-0.02384 0.0749,-0.01022 h 0.12259 l 0.0987,0.03405 0.0749,0.108969 v 0.04767 l -0.003,0.04767 -0.0272,0.08513 -0.0341,0.04086 -0.11237,0.02384 -0.11238,0.01703 h -0.14983 l -0.0715,0.01022 -0.0661,0.05 v 0 l -0.0395,0.04875 -0.11578,-0.0647 -0.034,0.05108 -0.0272,0.07491 -0.0409,0.07151 -0.0272,0.03746 -0.0238,0.08513 0.007,0.05449 0.0613,0.0034 0.15664,-0.02043 0.13281,-0.02384 0.19069,-0.02724 0.14643,-0.02043 0.12259,-0.02043 0.0919,-0.03065 0.0987,-0.04767 0.0681,-0.04427 0.0919,-0.04086 0.0375,-0.04767 0.0579,-0.06129 0.0443,-0.07832 0.0409,-0.0647 0.0272,-0.04427 0.0204,-0.0613 0.0238,-0.07491 -0.11237,0.01362 -0.0954,-0.0647 v -0.03746 l -0.0102,-0.102158 -0.017,-0.07492 0.11237,-0.09194 0.20772,-0.03405 0.13962,0.01362 0.034,0.02043 0.0443,-0.09194 0.0545,-0.09194 0.034,-0.08854 0.0409,-0.07492 0.0238,-0.0613 0.0102,-0.05108 0.0204,-0.05108 0.0272,-0.06129 0.0272,-0.03405 0.0545,-0.05108 -0.11578,-0.07492 -0.15665,-0.170263 -0.0477,-0.09535 -0.0443,-0.06811 -0.0136,-0.0681 6.7e-4,-0.06337 -0.13289,0.146177 -0.0764,0.0299 h -0.0764 l -0.24916,-0.08305 -0.0864,-0.0299 -0.0498,-0.01 -0.0598,0.05315 -0.0166,0.05648 -0.0664,0.10631 -0.0465,0.0598 -0.0831,0.05316 -0.0698,0.03654 -0.12625,-0.01993 -0.0598,-0.0299 -0.0783,-0.03978 -0.0328,-0.02168 0.0118,0.09074 -0.008,0.05523 -0.0552,0.05918 -0.008,0.102573 -0.0828,0.01184 -0.0473,0.04734 -0.12624,0.05129 -0.075,0.0434 -0.0789,0.0079 z"
     id="path941"
     inkscape:connector-curvature="0" />
  <path
     style="fill:#71ada3;fill-opacity:1;stroke:#bc0033;stroke-width:0.05652938;stroke-opacity:0.13089007"
     d="m 3.4261094,7.458267 -0.0127,0.134715 0.003,0.114927 v 0.06167 l 0.028,0.06447 0.0364,0.0897 0.0533,0.08409 0.0813,0.05326 0.12053,0.05046 0.12334,0.07008 0.11212,0.05887 0.12614,0.08129 0.10092,0.08409 0.0477,0.06167 0.0897,0.106518 0.0701,0.07008 0.0533,0.06167 0.0196,0.04205 0.014,0.01962 0.0364,0.03644 0.0533,0.112125 0.0112,0.04765 0.0168,0.07008 0.0168,0.05606 0.0364,0.04765 0.0813,0.02242 0.14015,0.0084 0.14016,-0.0084 0.0841,-0.03924 0.12053,-0.06727 0.0336,-0.05046 0.0168,-0.06447 -0.0112,-0.07288 0.0388,0.01115 -0.009,-0.03245 -0.0186,-0.045 -0.009,-0.04813 -0.0232,-0.04005 -0.011,-0.03592 -0.0135,-0.04286 -0.002,-0.04599 -0.01,-0.08081 -0.0217,-0.09321 0.006,-0.07653 -0.002,-0.169121 -0.0756,-0.06071 -0.11213,-0.100911 -0.0645,-0.07849 -0.0645,-0.07849 -0.0701,-0.06447 -0.0449,-0.07008 -0.0336,-0.03364 -0.0196,-0.08129 V 7.50329 7.4192 l 0.0196,-0.120534 0.0168,-0.13455 0.0112,-0.07008 0.0673,-0.0056 0.014,-0.08409 V 6.903434 l 0.002,-0.150039 -0.0443,0.136208 -0.11237,0.187289 -0.0953,0.108968 -0.0919,0.04086 -0.0681,0.04427 -0.0988,0.04767 -0.0919,0.03065 z"
     id="path943"
     inkscape:connector-curvature="0" />
  <path
     style="fill:#d5635e;fill-opacity:1;stroke:#bc0033;stroke-width:0.05652938;stroke-opacity:0.13089007"
     d="m 4.6635894,9.137495 0.004,0.08158 v 0.106601 0.0972 l 0.0188,0.09719 0.0408,0.100331 0.10033,0.08779 0.0752,0.10033 0.0596,0.112872 0.0188,0.07525 0.0564,0.106602 0.0219,0.116006 0.006,0.163038 0.009,0.125413 0.0972,0.02822 0.11287,-0.02508 0.10347,0.0031 0.1066,-0.0063 0.0784,-0.06271 0.022,-0.04076 0.0157,-0.03135 -0.0627,-0.06584 -0.0439,-0.01881 -0.0502,-0.02508 -0.0345,-0.03762 -0.009,-0.07211 v -0.112872 l -0.0188,-0.112871 -0.009,-0.0972 -0.0251,-0.05957 -0.0251,-0.103466 0.0188,-0.153632 V 9.391522 9.269244 9.159507 l -0.0282,-0.09406 -0.0422,-0.12697 -0.0168,0.06447 -0.15417,0.11773 -0.0841,0.03924 -0.17301,0.009 -0.1073,-0.009 z"
     id="path945"
     inkscape:connector-curvature="0" />
  <path
     style="fill:#6a9e61;fill-opacity:1;stroke:#bc0033;stroke-width:0.05652938;stroke-opacity:0.13089007"
     d="m 5.0747894,10.507697 -0.009,0.06271 0.009,0.06271 0.0533,0.09406 0.0596,0.04703 0.0909,-0.0094 h 0.13796 l 0.10973,0.0063 0.10347,-0.0031 h 0.12228 0.0533 l -0.006,-0.05644 -0.0157,-0.05957 -0.0188,-0.04703 -0.0188,-0.05644 0.009,-0.04076 v -0.07211 l 0.0188,-0.03135 0.0251,-0.03449 -0.0282,-0.02822 -0.13482,0.0063 -0.0251,0.02508 -0.0376,0.07211 -0.0784,0.06271 -0.21007,0.0031 -0.11287,0.02508 z"
     id="path947"
     inkscape:connector-curvature="0" />
  <path
     style="fill:#6a9e61;fill-opacity:1;stroke:#bc0033;stroke-width:0.05652938;stroke-opacity:0.13089007"
     d="m 5.9181994,10.376013 0.0596,-0.0063 0.0533,0.01881 0.0313,0.03449 0.0314,0.05644 0.0439,0.03135 0.0533,0.0063 h 0.0721 l 0.0282,0.0031 0.0282,0.04076 -0.0188,0.05016 -0.0345,0.05644 -0.0345,0.02508 -0.0596,0.02195 -0.069,0.0094 -0.0251,0.01254 -0.0282,0.01881 h -0.0533 -0.0408 l -0.047,-0.07525 -0.0408,-0.09092 -0.009,-0.05016 v -0.03449 l 0.009,-0.0533 0.0157,-0.03135 z"
     id="path949-1"
     inkscape:connector-curvature="0" />
  <path
     style="fill:#eac86e;fill-opacity:0.45026179;stroke:#bc0033;stroke-width:0.05652938;stroke-opacity:0.13089007"
     d="m 7.7235894,5.804598 0.0209,0.258758 -0.0584,0.08764 -0.0292,0.0626 -0.008,0.100164 v 0.112685 0.179462 l 0.008,0.16694 v 0.158594 0.104338 l 0.004,0.137726 -0.0292,0.07095 -0.11686,0.07512 -0.10851,0.03756 -0.0876,0.02504 -0.0835,0.0083 -0.0584,-0.04173 -0.12938,-0.09182 v -0.05425 l -0.008,-0.07095 v -0.05843 l -0.0125,-0.141899 -0.0334,-0.0626 -0.0501,-0.05843 -0.0668,-0.09182 -0.0751,-0.104339 -0.0626,-0.100164 -0.0835,-0.05843 -0.0835,-0.04174 h -0.0209 l -0.004,0.100164 v 0.200329 l 0.0543,0.1419 0.0459,0.100164 0.0626,0.108512 0.0167,0.05008 -0.0167,0.04173 -0.0793,0.03756 -0.12938,0.07095 -0.21702,0.01669 -0.17112,0.0042 -0.2671,-0.0083 -0.18364,-0.01669 -0.14607,-0.05843 -0.0125,-0.150246 0.0584,-0.01669 -0.0417,-0.196155 h 0.0751 l 0.0751,0.07512 0.0709,-0.112685 -0.0292,-0.09599 0.0918,-0.07095 0.0125,-0.07095 0.0501,-0.0626 0.025,-0.150247 0.13773,-0.05843 0.0668,0.0793 0.071,-0.229544 0.0793,0.01669 0.0334,0.08764 0.11268,-0.0626 0.0125,-0.162767 0.0334,-0.09182 0.0459,-0.125206 0.0668,0.09182 0.0626,0.121032 0.0835,-0.112685 0.008,-0.129379 0.0459,-0.100165 0.0543,-0.04591 0.0793,-0.04173 0.0918,-0.01669 0.13773,-0.02087 h 0.0793 l 0.0209,-0.0083 -0.004,-0.112686 0.0125,-0.171114 v -0.116857 -0.0793 l 0.0376,-0.06678 0.0918,-0.162767 0.0709,0.05008 0.0501,0.09182 0.0334,0.09599 -0.008,0.183634 -0.0125,0.116859 v 0.04591 l -0.008,0.100164 -0.004,0.04173 -0.004,0.05008 0.008,0.08764 0.0543,0.04174 0.0751,0.05008 z"
     id="path951"
     inkscape:connector-curvature="0" />
  <path
     style="fill:#80e5ff;fill-opacity:1;stroke:#bc0033;stroke-width:0.05652938;stroke-opacity:0.13089007"
     d="m 7.4856994,6.063356 0.004,0.08347 -0.0125,0.07095 -0.0417,0.03756 -0.0709,-0.04173 -0.0584,-0.06678 0.0167,-0.05008 0.0417,-0.03339 z"
     id="path953"
     inkscape:connector-curvature="0" />
  <path
     style="fill:#eac86e;fill-opacity:0.45026179;stroke:#bc0033;stroke-width:0.05652938;stroke-opacity:0.13089007"
     d="m 7.2352794,7.390535 0.0376,-0.1419 0.0376,-0.208676 0.0417,-0.0083 -0.0334,0.350576 z"
     id="path955"
     inkscape:connector-curvature="0" />
  <path
     style="fill:#659c5e;fill-opacity:1;stroke:#bc0033;stroke-width:0.05652938;stroke-opacity:0.13089007"
     d="m 7.2144194,5.541664 0.24206,0.0042 0.0209,0.150247 -0.36727,0.02087 0.004,-0.166943 z"
     id="path957-7"
     inkscape:connector-curvature="0" />
  <path
     style="fill:#659c5e;fill-opacity:1;stroke:#bc0033;stroke-width:0.05652938;stroke-opacity:0.13089007"
     d="m 6.8638394,5.787904 h 0.15442 l 0.008,0.104338 -0.025,0.06678 v 0.321361 0.06678 l 0.025,0.04174 0.0125,0.08764 v 0.100165 0.02922 l -0.15859,-0.0083 -0.0167,-0.187809 V 6.292961 6.163581 l 0.008,-0.258758 z"
     id="path959-4"
     inkscape:connector-curvature="0" />
  <path
     style="fill:#659c5e;fill-opacity:1;stroke:#bc0033;stroke-width:0.05652938;stroke-opacity:0.13089007"
     d="m 7.1017294,6.639302 0.004,0.121032 h 0.53004 l 0.0125,-0.121032 z"
     id="path961"
     inkscape:connector-curvature="0" />
  <path
     style="fill:#ff5555;fill-opacity:1;stroke:#bc0033;stroke-width:0.05652938;stroke-opacity:0.13089007"
     d="m 5.5157994,7.202725 -0.30467,-0.146071 -0.18781,-0.146074 -0.0614,-0.191255 0.0715,-0.05789 0.0409,-0.06811 0.0102,-0.139615 0.0136,-0.05789 0.0443,-0.09194 0.0885,-0.180478 0.0409,-0.07492 0.034,-0.112374 0.0749,-0.146426 0.13962,-0.122587 0.21247,-0.19221 0.0835,-0.04173 0.10017,-0.09182 0.10433,-0.08764 0.0876,-0.04591 h 0.0668 l 0.11269,-0.04174 0.0668,-0.02921 0.0918,-0.01669 0.0835,-0.01252 0.13355,-0.0083 h 0.10017 0.1252 l 0.10017,0.01252 0.0292,0.0083 0.0751,0.04591 0.0751,-0.0083 0.0543,-0.09599 -0.008,0.479953 -0.10017,0.0083 -0.17946,0.02922 -0.18363,0.09599 -0.0584,0.158595 0.004,0.07095 -0.0835,0.112685 -0.0626,-0.121032 -0.0668,-0.09182 -0.0793,0.217023 -0.0125,0.162767 -0.11269,0.0626 -0.0334,-0.08764 -0.0793,-0.01669 -0.0709,0.229544 -0.0668,-0.0793 -0.13773,0.05843 -0.025,0.150247 -0.0501,0.0626 -0.0125,0.07095 -0.0918,0.07095 0.0292,0.09599 -0.071,0.112685 -0.0751,-0.07512 h -0.0751 l 0.0417,0.196155 -0.0584,0.0167 z"
     id="path963-1"
     inkscape:connector-curvature="0" />
  <path
     style="fill:#ff5555;fill-opacity:1;stroke:#bc0033;stroke-width:0.05652938;stroke-opacity:0.13089007"
     d="m 7.4773594,5.696086 0.0543,0.04174 0.0751,0.05008 0.11685,0.01669 0.0501,-0.01252 0.0542,0.0042 0.0417,0.02504 0.025,0.06678 0.0125,0.104338 -0.0125,0.0793 -0.004,0.0793 0.0751,-0.03756 0.0376,-0.08347 0.008,-0.1419 0.0125,-0.116858 -0.0167,-0.08764 -0.0417,-0.100164 -0.0125,-0.01669 -0.10851,-0.02087 -0.0376,-0.08764 0.0167,-0.100165 0.008,-0.08347 -0.0417,-0.04591 v -0.09182 l -0.004,-0.04174 -0.0167,-0.108512 -0.004,-0.04591 -0.0835,0.03756 -0.025,0.04591 -0.0543,0.0793 -0.0334,0.03756 -0.025,0.0083 -0.0876,0.396484 z"
     id="path965-7"
     inkscape:connector-curvature="0" />
  <path
     style="fill:#aa0000;fill-opacity:0.46073303;stroke:#bc0033;stroke-width:0.05652938;stroke-opacity:0.13089007"
     d="m 4.9618794,6.719325 -0.12259,0.03405 -0.0159,0.335042 0.0746,0.135008 0.12699,0.132763 0.0808,0.115447 0.1674,0.150081 0.11545,0.138536 0.11544,0.05195 0.12699,0.08658 0.20204,0.05195 0.1039,0.01732 0.14431,0.02886 0.16739,-0.0058 0.15008,-0.01732 0.075,-0.04618 0.13277,-0.132764 0.0289,-0.05195 0.0173,-0.17317 -0.0173,-0.09813 0.0866,-0.04041 0.0231,-0.08081 0.0462,-0.0635 0.19626,-0.0635 0.0515,-0.09165 -0.0125,-0.200329 -0.30049,0.183635 -0.22537,0.150247 -0.22892,0.02159 h -0.45602 l -0.15394,-0.02577 -0.14608,-0.05843 -0.30466,-0.146071 -0.18781,-0.146073 z"
     id="path967-1"
     inkscape:connector-curvature="0" />
  <path
     style="fill:#aa0000;fill-opacity:0.46073303;stroke:#bc0033;stroke-width:0.05652938;stroke-opacity:0.13089007"
     d="m 4.8233694,7.08842 0.0458,0.325495 0.0289,0.115446 0.12699,0.167398 0.21357,0.253983 0.15586,0.15008 0.0693,0.167397 0.0808,0.19626 0.0173,0.150081 -0.0173,0.184714 -0.0519,0.05772 -0.0577,0.138537 -0.17139,0.0074 0.006,-0.137352 0.12537,-0.03746 0.006,-0.09236 0.0173,-0.103902 V 8.499093 l -0.0346,-0.126991 -0.0577,-0.09813 -0.13189,-0.107328 -0.46521,-0.486786 -0.0196,-0.08129 V 7.419169 l 0.0477,-0.325161 z"
     id="path971-1"
     inkscape:connector-curvature="0" />
  <path
     style="fill:#aa0000;fill-opacity:0.46073303;stroke:#bc0033;stroke-width:0.05652938;stroke-opacity:0.13089007"
     d="m 3.7357594,8.111557 -0.0673,0.08162 -0.0289,0.132764 -0.0346,0.190486 0.0115,0.109674 v 0.126991 l 0.052,0.282844 0.0173,0.12122 0.0289,0.115446 0.10967,0.05195 0.17894,-0.0635 0.2713,-0.05772 0.10968,-0.0635 0.075,-0.01732 0.16783,-0.03268 -0.0449,-0.173792 -0.0897,-0.148565 -0.15697,-0.193415 -0.13735,-0.168186 -0.22706,-0.165384 z"
     id="path973-1"
     inkscape:connector-curvature="0" />
  <path
     style="fill:#e9c774;fill-opacity:0.6701571;stroke:#bc0033;stroke-width:0.05652938;stroke-opacity:0.13089007"
     d="m 6.7913394,7.286924 0.0577,0.109674 0.13853,0.07504 0.0231,0.173171 0.052,0.12699 v 0.19626 0.115446 l 0.0519,0.155853 0.0231,0.132764 0.0289,0.109674 v 0.167398 0.06927 0.126992 0.06927 0.08658 l 0.42138,-0.01154 0.0866,-0.08081 0.0924,0.01154 0.0981,0.01732 0.0693,0.06927 0.0173,0.05772 0.052,0.03463 0.0693,0.01732 0.0404,0.05772 v 0.138537 l -0.0519,0.05195 0.006,0.132764 0.006,0.126991 0.0289,0.06927 v 0.150081 0.138536 l 0.0173,0.109674 0.0693,0.126991 0.0173,0.150081 -0.052,0.190487 -0.0693,0.15008 -0.0635,0.09236 -0.0346,0.138535 -0.0693,0.138536 -0.0462,0.115447 -0.0981,0.09813 -0.0808,-0.150081 -0.0577,-0.115447 -0.0289,-0.08658 v -0.126991 -0.09236 l 0.0462,-0.09236 0.0866,-0.07504 0.0693,-0.01732 0.0981,-0.109674 v -0.103902 l -0.0231,-0.121219 0.006,-0.0635 V 9.959509 9.826746 l -0.006,-0.190487 -0.0462,-0.109674 -0.0346,-0.150081 -0.0462,-0.08081 -0.11544,-0.08081 -0.0231,0.103902 -0.12122,0.109674 -0.075,0.04041 -0.0635,0.02886 h -0.0462 l -0.0462,0.0058 -0.0693,0.02886 h -0.17894 l -0.0289,0.109675 0.0635,0.167398 0.0635,0.161624 0.0924,0.225121 0.0404,0.12122 0.0519,0.155852 0.0173,0.03463 0.006,0.138536 -0.0404,0.06927 -0.0981,0.121219 -0.0115,0.09813 -0.0231,0.155853 0.006,0.08081 v 0.115446 l -0.075,0.04041 -0.13854,-0.150081 -0.0808,-0.132763 v -0.09813 -0.05195 l 0.13277,-0.08081 v -0.126991 l 0.006,-0.155854 -0.0462,-0.02886 -0.0462,-0.05195 0.006,-0.132763 V 10.19044 l 0.0346,-0.138536 -0.0693,-0.202032 -0.075,-0.155852 -0.0577,-0.121219 -0.0404,-0.02886 -0.0635,0.09813 -0.21358,0.02886 -0.2078,0.04618 -0.15586,0.03463 -0.0924,0.05772 h -0.15008 l -0.0635,0.02309 h -0.0751 l -0.006,0.01154 0.0866,0.190486 0.0866,0.207804 0.0678,0.133656 -0.0345,0.0439 -0.0251,0.119143 0.009,0.05016 0.0408,0.09092 0.047,0.07525 h 0.0941 l 0.008,0.121922 -0.19048,0.01732 -0.0624,-0.126702 -0.022,-0.116008 -0.0376,-0.103466 0.009,-0.112871 0.0439,-0.06584 -0.0583,-0.09852 -0.0635,-0.103902 -0.0231,-0.09236 -0.0635,-0.155853 -0.0404,-0.08658 -0.0346,-0.05772 -0.0519,-0.09813 v 0 l -0.0404,-0.09813 -0.0726,-0.06474 0.009,-0.102658 -0.0115,-0.08081 V 9.22646 l 0.002,-0.06692 v 0 l -0.002,-0.117794 0.0866,-0.04618 0.0577,-0.138536 v 0 l 0.052,-0.05772 0.0173,-0.184715 -0.0173,-0.150081 -0.052,-0.167397 -0.0981,-0.196259 -0.0577,-0.05772 -0.20204,-0.225122 -0.15008,-0.173169 -0.0866,-0.115447 -0.052,-0.265527 -0.0227,-0.175414 0.0747,0.135007 0.20781,0.24821 0.16739,0.150082 0.11545,0.138535 0.24244,0.138536 0.20203,0.05195 0.24821,0.04618 0.1674,-0.0058 0.15008,-0.01732 0.075,-0.04618 0.13276,-0.132763 0.0462,-0.155854 -0.0173,-0.167397 0.0866,-0.04041 0.0231,-0.08081 z"
     id="path977"
     inkscape:connector-curvature="0" />
  <path
     style="fill:#e9c774;fill-opacity:0.6701571;stroke:#bc0033;stroke-width:0.05652938;stroke-opacity:0.13089007"
     d="m 5.1932694,8.166664 -0.003,0.245656 0.0217,0.09321 0.0124,0.126804 0.0478,0.118832 0.0273,0.09313 0.0953,-0.01615 0.006,-0.09236 0.0173,-0.103902 V 8.49912 l -0.0346,-0.126991 -0.0577,-0.09813 z"
     id="path979-7"
     inkscape:connector-curvature="0" />
  <path
     style="fill:#e9c774;fill-opacity:0.6701571;stroke:#bc0033;stroke-width:0.05652938;stroke-opacity:0.13089007"
     d="m 3.4806794,7.952901 -0.1923,0.06335 -0.0947,0.02186 -0.0802,0.03644 -0.1822,0.0583 -0.11661,0.0073 -0.18949,0.07288 -0.0364,0.02915 -0.3061,0.109321 -0.13847,0.07288 -0.13119,0.131186 -0.18949,0.18949 -0.0656,0.196779 -0.0875,0.233218 0.007,0.240507 0.0219,0.269659 0.10203,0.262371 0.13119,0.182202 0.17491,0.167626 0.10933,0.09474 0.16033,0.145762 0.13119,0.109321 0.13847,0.123898 0.0729,0.08017 0.19678,0.138474 -0.007,0.08746 -0.0729,0.211354 -0.0729,0.109322 -0.0583,0.08746 -0.0948,0.06559 0.007,0.08746 0.10932,0.03644 0.0875,0.05102 0.15305,0.138474 0.1822,0.02186 0.0875,0.08017 0.14577,0.182203 0.1822,0.211354 0.10932,0.18949 0.0947,0.145762 0.0948,-0.05102 0.24779,0.240508 0.0292,0.08017 0.17492,-0.02186 0.10203,-0.0583 0.0802,-0.03644 0.0437,-0.06559 -0.0437,-0.04373 -0.16763,-0.03644 -0.0947,-0.131185 -0.0729,-0.131185 -0.1822,-0.0583 -0.21135,-0.247795 -0.17492,-0.167627 -0.16762,-0.174913 -0.0947,-0.0583 -0.0292,-0.109321 0.0437,-0.15305 0.0292,-0.138474 0.0729,-0.08017 0.1239,-0.211354 0.0948,-0.160338 0.12389,-0.18949 0.0656,-0.15305 0.0802,-0.145762 0.0656,-0.08746 0.0802,-0.0583 0.13119,-0.03644 h 0.11661 0.11661 0.0947 l 0.16762,-0.0073 0.21136,0.02186 0.1382,-0.0053 -0.0784,-0.222608 -0.0784,-0.188121 -0.17558,-0.188119 -0.0408,-0.100331 -0.0224,-0.382573 -0.0364,-0.04765 -0.24287,0.05 -0.38098,0.121218 -0.17894,0.0635 -0.10967,-0.05195 -0.0289,-0.115447 -0.0768,-0.295489 0.007,-0.108574 -0.0115,-0.236665 0.004,-0.106622 0.0146,-0.11661 0.0449,-0.100018 0.0673,-0.08162 z"
     id="path981-0"
     inkscape:connector-curvature="0" />
  <path
     style="fill:#e9c774;fill-opacity:0.6701571;stroke:#bc0033;stroke-width:0.05652938;stroke-opacity:0.13089007"
     d="m 5.0591194,10.219246 -0.15278,0.158346 -0.0729,0.138473 -0.0364,0.08746 -0.0947,0.160337 -0.11661,0.08746 -0.1239,0.06559 -0.15305,0.123898 -0.0146,0.167626 0.0146,0.131185 0.0146,0.07288 0.0802,0.08017 0.13119,0.08017 0.20406,0.182202 0.17492,0.11661 0.10932,0.08017 0.0875,0.07288 0.0364,0.102033 0.051,0.07288 0.0292,0.05102 0.0729,0.02186 0.10203,0.03644 0.1239,0.0073 0.051,0.05102 -0.0656,0.07288 -0.0437,0.05102 -0.11661,0.02186 h -0.10203 l -0.11661,0.0073 -0.0729,-0.08017 -0.13119,-0.02915 -0.0729,-0.05102 -0.0948,-0.109321 -0.007,-0.116609 -0.13847,-0.08746 -0.21136,-0.15305 -0.17491,-0.145762 -0.15305,-0.08746 -0.1822,-0.06559 -0.0292,-0.09474 -0.0292,-0.145761 -0.0146,-0.09475 0.051,-0.174915 0.0364,-0.07288 0.0219,-0.08017 -0.0729,-0.131185 -0.0656,-0.109321 0.0656,-0.15305 0.0802,-0.145762 0.14576,-0.145762 0.13119,-0.03644 0.49559,-0.0073 0.21135,0.02186 z"
     id="path983-4"
     inkscape:connector-curvature="0" />
  <path
     style="fill:#443f39;fill-opacity:1;stroke:#bc0033;stroke-width:0.05652938;stroke-opacity:0.13089007"
     d="m 4.1119394,12.884693 0.0292,0.08017 -0.0583,0.123898 0.0364,0.102033 0.1822,0.02186 h 0.14576 0.13119 l 0.13118,-0.01458 0.14576,0.0073 0.007,-0.08017 v -0.08746 l -0.15305,-0.08746 -0.0875,-0.09474 -0.0802,-0.07288 -0.0437,0.06559 -0.0802,0.03644 -0.10203,0.0583 -0.17491,0.02186 z"
     id="path985-0"
     inkscape:connector-curvature="0" />
  <path
     style="fill:#443f39;fill-opacity:1;stroke:#bc0033;stroke-width:0.05652938;stroke-opacity:0.13089007"
     d="m 5.6022794,12.388546 0.0113,0.02425 0.0291,0.02263 0.0388,0.02587 0.0194,0.02263 0.0517,0.04203 0.0194,0.03072 0.0291,0.03718 0.0436,0.06143 0.0259,0.0388 0.0162,0.05335 0.0178,0.03233 0.0178,0.03718 -0.005,0.04203 -0.0825,0.01778 -0.0695,-0.01132 -0.17783,-0.0065 -0.0695,-0.0291 -0.0825,-0.02263 -0.11639,-0.02425 -0.0663,-0.01131 -0.0566,-0.02748 -0.0307,-0.03072 -0.0194,-0.05012 -0.005,-0.0679 -0.009,-0.07519 0.21864,-0.0073 0.11661,-0.02186 0.10932,-0.123898 z"
     id="path987"
     inkscape:connector-curvature="0" />
  <path
     style="fill:#443f39;fill-opacity:1;stroke:#bc0033;stroke-width:0.05652938;stroke-opacity:0.13089007"
     d="m 6.8605994,10.89463 -0.0605,0.0267 -0.0558,0.05581 -0.0478,0.06379 -0.0133,0.07442 v 0.100994 l 0.0159,0.09036 v 0.06379 l 0.0372,0.08771 0.0425,0.07708 0.0797,0.09834 0.0558,0.07708 0.0478,0.03189 0.0266,-0.0691 0.0452,-0.07176 0.0186,-0.05847 0.003,-0.09302 0.0399,-0.02923 -0.0151,-0.09344 -0.13853,-0.150081 -0.0808,-0.132764 z"
     id="path989"
     inkscape:connector-curvature="0" />
  <path
     style="fill:#443f39;fill-opacity:1;stroke:#bc0033;stroke-width:0.05652938;stroke-opacity:0.13089007"
     d="m 7.8072694,10.536745 -0.0185,0.07363 0.0133,0.08771 0.0186,0.114284 0.008,0.03455 0.0425,0.04518 0.0213,0.02924 0.0319,0.03987 0.0106,0.02126 v 0.04784 l -0.018,0.04904 -0.0462,0.115447 -0.0981,0.09813 -0.17538,-0.277695 0.008,-0.293766 0.0462,-0.09236 0.0866,-0.07504 z"
     id="path991"
     inkscape:connector-curvature="0" />
  <path
     style="fill:#443f39;fill-opacity:1;stroke:#bc0033;stroke-width:0.05652938;stroke-opacity:0.13089007"
     d="m 1.8234794,8.74506 -0.1664,0.12724 -0.10727,0.137062 -0.0834,0.244327 -0.0179,0.22645 0.006,0.315838 0.0536,0.262205 0.1311,0.315838 0.0715,0.339674 0.0179,0.244327 0.0775,0.333716 0.0834,0.303919 0.11919,0.232409 v 0.23241 l -0.0477,0.101306 -0.0119,0.14898 v 0.214531 l 0.0477,0.131103 0.0536,-0.280083 0.0358,-0.178776 0.10131,-0.214531 -0.006,0.256245 0.0715,0.196654 0.12514,0.208572 -0.0656,-0.572083 0.0834,0.22049 0.0238,0.286042 0.0477,0.160898 0.0656,0.0298 0.0953,0.006 0.0656,-0.006 0.0179,-0.172817 v -0.143021 l 0.0238,-0.113225 0.0417,-0.208572 -0.0298,-0.14898 -0.0238,-0.113225 -0.0119,-0.113225 -0.094,-0.118125 -0.007,-0.08746 0.0948,-0.06559 0.0482,-0.14597 -0.006,-0.154939 -0.0477,-0.107265 -0.0298,-0.113225 -0.0358,-0.131103 0.0127,-0.06173 -0.13183,-0.09321 -0.22645,-0.202613 -0.23837,-0.214531 -0.11758,-0.130999 -0.13119,-0.182202 -0.10203,-0.262371 -0.0292,-0.510166 z"
     id="path995"
     inkscape:connector-curvature="0" />
  <path
     style="fill:#3c3833;fill-opacity:1;stroke:#bc0033;stroke-width:0.00307304;stroke-opacity:0.13089007"
     d="m 3.9444694,4.147337 c -0.008,-0.0024 -0.02,-0.006 -0.0276,-0.008 l -0.0138,-0.0036 0.0438,-0.0166 c 0.0417,-0.01579 0.0452,-0.01659 0.0721,-0.01649 0.0351,1.38e-4 0.0634,0.006 0.0756,0.0156 0.005,0.004 0.009,0.008 0.01,0.0089 9e-5,8.45e-4 -0.007,0.0062 -0.0151,0.01196 l -0.0153,0.01042 -0.0577,0.0011 c -0.0439,8.38e-4 -0.061,5.6e-5 -0.0715,-0.0033 z"
     id="path997"
     inkscape:connector-curvature="0" />
  <path
     style="fill:#3c3833;fill-opacity:1;stroke:#bc0033;stroke-width:0.00307304;stroke-opacity:0.13089007"
     d="m 4.3408894,4.148972 c -0.013,-0.0022 -0.0585,-0.02609 -0.0583,-0.03055 7e-5,-0.0011 0.01,-0.0081 0.0216,-0.01544 0.0208,-0.01295 0.0226,-0.01348 0.0544,-0.01569 0.0289,-0.002 0.0374,-0.0013 0.0698,0.0054 0.0203,0.0042 0.038,0.0087 0.0393,0.0099 10e-4,0.0012 1.8e-4,0.0069 -0.003,0.01283 -0.004,0.0084 -0.01,0.01313 -0.0282,0.02211 -0.0208,0.01031 -0.0259,0.01153 -0.0527,0.0126 -0.0163,6.52e-4 -0.0358,1.31e-4 -0.0434,-0.0012 z"
     id="path999"
     inkscape:connector-curvature="0" />
  <path
     style="fill:#3c3833;fill-opacity:1;stroke:#bc0033;stroke-width:0.00307304;stroke-opacity:0.13089007"
     d="m 4.0561394,4.536632 0.0241,-0.0011 0.0351,-0.02859 c 0.0258,-0.02101 0.041,-0.03094 0.0573,-0.03746 0.0216,-0.0086 0.0242,-0.0089 0.0861,-0.01 l 0.0638,-0.0011 0.013,0.01049 c 0.0172,0.01388 0.0794,0.05646 0.0852,0.05837 0.002,8.27e-4 -0.032,0.0025 -0.0768,0.0037 -0.0448,0.0012 -0.11947,0.0035 -0.16595,0.005 -0.0465,0.0016 -0.0983,0.0026 -0.11523,0.0023 -0.0297,-5.5e-4 -0.0299,-6.06e-4 -0.007,-0.0016 z"
     id="path1001"
     inkscape:connector-curvature="0" />
  <path
     style="fill:#000080;fill-opacity:1;stroke:#000000;stroke-width:0.03449041;stroke-opacity:0.22110554"
     d="m 7.6435694,3.406803 a 0.72310281,0.21286144 0 0 1 -0.7231,0.212861 0.72310281,0.21286144 0 0 1 -0.7231,-0.212861 0.72310281,0.21286144 0 0 1 0.7231,-0.212861 0.72310281,0.21286144 0 0 1 0.7231,0.212861 z"
     id="path1422-851"
     inkscape:connector-curvature="0" />
  <path
     style="fill:#0085a6;fill-opacity:1;stroke:#000080;stroke-width:0.03449041;stroke-opacity:1"
     d="m 7.6059094,3.302313 v 0.03685 l -0.0247,-0.01886 z"
     id="path1430-6"
     inkscape:connector-curvature="0" />
  <path
     style="fill:#000080;fill-opacity:1;stroke:#000080;stroke-width:0.03449041;stroke-opacity:1"
     d="m 6.2327094,3.301053 0.001,0.03951 0.026,-0.0201 z"
     id="path1428-6"
     inkscape:connector-curvature="0" />
  <ellipse
     ry="0.27631524"
     rx="0.7766875"
     cy="2.2754402"
     cx="6.9535456"
     id="path74-21"
     style="fill:#ffff00;fill-opacity:1;stroke:#000000;stroke-width:0.01608102;stroke-opacity:0.36180905" />
  <ellipse
     ry="0.22079089"
     rx="0.69111466"
     cy="2.2656403"
     cx="6.9476557"
     id="path76-96"
     style="fill:#ff0000;fill-opacity:1;stroke:#000000;stroke-width:0.03449041;stroke-opacity:0.35175883" />
  <path
     id="path80-48"
     d="m 6.1716294,2.296995 0.0496,0.07577 0.0575,0.04442 0.0967,0.04442 0.0914,0.03135 0.14894,0.02874 0.12803,0.02352 0.12281,0.01045 h 0.10451 0.12542 l 0.11497,-0.01568 0.11758,-0.01568 0.10191,-0.03397 0.11235,-0.03919 0.10452,-0.04442 0.0705,-0.06793 0.0131,-0.05226 -0.0104,0.198581 -0.0157,0.07055 -0.034,0.07577 -0.047,0.04442 -0.034,0.03919 -0.0758,0.05226 -0.0888,0.04181 -0.0758,0.03136 -0.0663,0.02352 -0.0547,0.0124 -0.0552,0.01898 -0.0381,0.02088 -0.0374,0.02613 -0.3048,-0.0026 -0.0231,-0.0258 -0.038,-0.02368 -0.0468,-0.01667 -0.041,-0.01485 -0.0706,-0.01829 -0.0366,-0.0209 -0.0967,-0.04703 -0.0575,-0.04181 -0.0836,-0.05748 -0.034,-0.04965 -0.0392,-0.04181 -0.0183,-0.04442 -0.0157,-0.06532 -0.0131,-0.07578 -0.008,-0.04964 z"
     style="fill:#008000;fill-opacity:1;stroke:#000000;stroke-width:0.03449041;stroke-opacity:0.16582917"
     inkscape:connector-curvature="0" />
  <rect
     y="2.9397697"
     x="6.7934961"
     height="0.099182516"
     width="0.30400178"
     id="rect87-08"
     style="fill:#0088aa;fill-opacity:1;stroke:#000000;stroke-width:0.03449041;stroke-opacity:0.20100505" />
  <path
     style="fill:#008000;fill-opacity:1;stroke:#000080;stroke-width:0.03458635;stroke-opacity:0.26633169"
     d="M 7.6229694,3.252275 V 3.425833"
     id="path1424-10"
     inkscape:connector-curvature="0" />
  <path
     style="fill:#0085a6;fill-opacity:1;stroke:#000080;stroke-width:0.03449041;stroke-opacity:0.32160806"
     d="m 6.2149594,3.240183 0.003,0.175172"
     id="path1426-2"
     inkscape:connector-curvature="0" />
  <path
     id="path84-29"
     d="m 7.6435694,3.234207 a 0.72310281,0.21286144 0 0 1 -0.7231,0.212861 0.72310281,0.21286144 0 0 1 -0.7231,-0.212861 0.72310281,0.21286144 0 0 1 0.7231,-0.212862 0.72310281,0.21286144 0 0 1 0.7231,0.212862 z"
     style="fill:#0088aa;fill-opacity:1;stroke:#000000;stroke-width:0.03449041;stroke-opacity:0.18592966"
     inkscape:connector-curvature="0" />
</svg>
