<?xml version="1.0" encoding="UTF-8" standalone="no"?>
<svg
   xmlns:osb="http://www.openswatchbook.org/uri/2009/osb"
   xmlns:dc="http://purl.org/dc/elements/1.1/"
   xmlns:cc="http://creativecommons.org/ns#"
   xmlns:rdf="http://www.w3.org/1999/02/22-rdf-syntax-ns#"
   xmlns:svg="http://www.w3.org/2000/svg"
   xmlns="http://www.w3.org/2000/svg"
   xmlns:xlink="http://www.w3.org/1999/xlink"
   xmlns:sodipodi="http://sodipodi.sourceforge.net/DTD/sodipodi-0.dtd"
   xmlns:inkscape="http://www.inkscape.org/namespaces/inkscape"
   viewBox="0 0 160 250"
   height="250"
   width="160"
   id="svg815"
   version="1.1"
   sodipodi:docname="cups07.svg"
   inkscape:version="0.92.5 (2060ec1f9f, 2020-04-08)">
  <sodipodi:namedview
     pagecolor="#ffffff"
     bordercolor="#666666"
     borderopacity="1"
     objecttolerance="10"
     gridtolerance="10"
     guidetolerance="10"
     inkscape:pageopacity="0"
     inkscape:pageshadow="2"
     inkscape:window-width="1918"
     inkscape:window-height="1017"
     id="namedview7762"
     showgrid="false"
     inkscape:zoom="13.07806"
     inkscape:cx="58.333333"
     inkscape:cy="242.87879"
     inkscape:window-x="0"
     inkscape:window-y="0"
     inkscape:window-maximized="1"
     inkscape:current-layer="svg815"
     inkscape:snap-page="true" />
  <metadata
     id="metadata821">
    <rdf:RDF>
      <cc:Work
         rdf:about="">
        <dc:format>image/svg+xml</dc:format>
        <dc:type
           rdf:resource="http://purl.org/dc/dcmitype/StillImage" />
        <dc:title></dc:title>
      </cc:Work>
    </rdf:RDF>
  </metadata>
  <defs
     id="defs819">
    <linearGradient
       id="linearGradient3804"
       osb:paint="solid">
      <stop
         style="stop-color:#000000;stop-opacity:1;"
         offset="0"
         id="stop3802" />
    </linearGradient>
    <linearGradient
       gradientUnits="userSpaceOnUse"
       y2="71.008263"
       x2="88.849586"
       y1="58.644627"
       x1="82.105782"
       id="linearGradient1063"
       xlink:href="#linearGradient882"
       gradientTransform="matrix(0.0625,0,0,0.0625,89.999999,8.2080078e-7)" />
    <linearGradient
       id="linearGradient882">
      <stop
         style="stop-color:#d16208;stop-opacity:1"
         offset="0"
         id="stop878" />
      <stop
         style="stop-color:#d16250;stop-opacity:0;"
         offset="1"
         id="stop880" />
    </linearGradient>
    <linearGradient
       gradientUnits="userSpaceOnUse"
       y2="68.472336"
       x2="56.128345"
       y1="63.697319"
       x1="61.166279"
       id="linearGradient876"
       xlink:href="#linearGradient882"
       gradientTransform="matrix(0.0625,0,0,0.0625,89.999999,8.2080078e-7)" />
    <linearGradient
       xlink:href="#linearGradient846"
       id="linearGradient848"
       x1="72.37397"
       y1="53.171356"
       x2="72.19931"
       y2="45.564011"
       gradientUnits="userSpaceOnUse"
       gradientTransform="matrix(0.0625,0,0,0.0625,110,-2.6855469e-7)" />
    <linearGradient
       id="linearGradient846">
      <stop
         style="stop-color:#423abf;stop-opacity:1;"
         offset="0"
         id="stop842" />
      <stop
         style="stop-color:#423abf;stop-opacity:0;"
         offset="1"
         id="stop844" />
    </linearGradient>
  </defs>
  <flowRoot
     xml:space="preserve"
     id="flowRoot100"
     style="font-style:normal;font-variant:normal;font-weight:bold;font-stretch:normal;font-size:1px;line-height:1.25;font-family:'DejaVu Sans';-inkscape-font-specification:'DejaVu Sans Bold';letter-spacing:0px;word-spacing:0px;fill:#000000;fill-opacity:1;stroke:none;stroke-width:0.0625"><flowRegion
       style="stroke-width:0.0625"
       id="flowRegion102"><rect
         style="stroke-width:0.00390625"
         id="rect104"
         width="1.5151515"
         height="1.3636364"
         x="0.66287881"
         y="0.73863637" /></flowRegion><flowPara
       style="stroke-width:0.0625"
       id="flowPara106" /></flowRoot>  <rect
     style="fill:#ffffff;fill-opacity:1;stroke:#1a1a1a;stroke-width:0.0625;stroke-opacity:1"
     id="cups07"
     width="10"
     height="15.625"
     x="-0.02419298"
     y="0" />
  <rect
     style="fill:none;fill-opacity:1;stroke:#1a1a1a;stroke-width:0.0625;stroke-opacity:1"
     id="rect108-06"
     width="7.2537889"
     height="12.973484"
     x="1.3205031"
     y="1.306818" />
  <g
     id="flowRoot915-4"
     style="font-style:normal;font-variant:normal;font-weight:bold;font-stretch:normal;font-size:16px;line-height:1.25;font-family:'DejaVu Sans';-inkscape-font-specification:'DejaVu Sans Bold';text-align:start;letter-spacing:0px;word-spacing:0px;text-anchor:start;fill:#000000;fill-opacity:1;stroke:none"
     transform="matrix(0.0625,0,0,0.0625,0.16520102,1.2060548e-7)"
     aria-label="7">
    <path
       id="path6113"
       d="M 4.1015625,7.0371094 H 12.890625 V 8.7324219 L 8.34375,18.701172 H 5.4140625 L 9.71875,9.2480469 H 4.1015625 Z"
       inkscape:connector-curvature="0" />
  </g>
  <path
     id="path1422-7"
     d="M 3.984185,3.8046041 A 1.0678688,0.31435098 0 0 1 2.916316,4.1189551 1.0678688,0.31435098 0 0 1 1.848447,3.8046041 1.0678688,0.31435098 0 0 1 2.916316,3.4902531 1.0678688,0.31435098 0 0 1 3.984185,3.8046041 Z"
     style="fill:#000080;fill-opacity:1;stroke:#000000;stroke-width:0.05093499;stroke-opacity:0.22110554"
     inkscape:connector-curvature="0" />
  <path
     id="path1430-4"
     d="m 3.928562,3.6502951 v 0.05442 l -0.0365,-0.02785 z"
     style="fill:#0085a6;fill-opacity:1;stroke:#000080;stroke-width:0.05093499;stroke-opacity:1"
     inkscape:connector-curvature="0" />
  <path
     id="path1428-8"
     d="m 1.900634,3.6484341 0.0015,0.05835 0.03839,-0.02969 z"
     style="fill:#000080;fill-opacity:1;stroke:#000080;stroke-width:0.05093499;stroke-opacity:1"
     inkscape:connector-curvature="0" />
  <ellipse
     style="fill:#ffff00;fill-opacity:1;stroke:#000000;stroke-width:0.02374823;stroke-opacity:0.36180905"
     id="path74-5"
     cx="2.9651563"
     cy="2.1338196"
     rx="1.1470019"
     ry="0.40805873" />
  <ellipse
     style="fill:#ff0000;fill-opacity:1;stroke:#000000;stroke-width:0.05093499;stroke-opacity:0.35175883"
     id="path76-82"
     cx="2.9564741"
     cy="2.1193485"
     rx="1.0206292"
     ry="0.3260611" />
  <path
     style="fill:#008000;fill-opacity:1;stroke:#000000;stroke-width:0.05093499;stroke-opacity:0.16582917"
     d="m 1.810437,2.1656541 0.07332,0.111903 0.08489,0.0656 0.142772,0.0656 0.135055,0.04631 0.219946,0.04245 0.189078,0.03473 0.181359,0.01544 h 0.154348 0.185219 l 0.169783,-0.02315 0.173642,-0.02315 0.15049,-0.05016 0.165924,-0.05788 0.154349,-0.0656 0.104185,-0.100326 0.01929,-0.07717 -0.01543,0.293262 -0.02315,0.104186 -0.05016,0.111902 -0.06946,0.0656 -0.05016,0.05788 -0.111902,0.07717 -0.131197,0.06174 -0.111903,0.0463 -0.09794,0.03473 -0.08079,0.01831 -0.08146,0.02803 -0.0563,0.03083 -0.05529,0.03859 -0.450126,-0.0039 -0.03406,-0.0381 -0.05616,-0.03497 -0.06915,-0.02462 -0.06058,-0.02193 -0.104186,-0.02701 -0.05402,-0.03087 -0.142772,-0.06946 -0.08489,-0.06174 -0.123478,-0.08489 -0.05016,-0.07332 -0.05788,-0.06174 -0.02701,-0.0656 -0.02315,-0.09647 -0.01929,-0.111903 -0.01158,-0.07331 z"
     id="path80-6"
     inkscape:connector-curvature="0" />
  <rect
     style="fill:#0088aa;fill-opacity:1;stroke:#000000;stroke-width:0.05093499;stroke-opacity:0.20100505"
     id="rect87-06"
     width="0.44894582"
     height="0.14647143"
     x="2.7288053"
     y="3.1148968" />
  <path
     id="path1424-6"
     d="m 3.953751,3.5763991 v 0.256308"
     style="fill:#008000;fill-opacity:1;stroke:#000080;stroke-width:0.05107667;stroke-opacity:0.26633169"
     inkscape:connector-curvature="0" />
  <path
     id="path1426-4"
     d="m 1.874419,3.5585411 0.0038,0.258693"
     style="fill:#0085a6;fill-opacity:1;stroke:#000080;stroke-width:0.05093499;stroke-opacity:0.32160806"
     inkscape:connector-curvature="0" />
  <path
     style="fill:#0088aa;fill-opacity:1;stroke:#000000;stroke-width:0.05093499;stroke-opacity:0.18592966"
     d="M 3.984185,3.5497161 A 1.0678688,0.31435098 0 0 1 2.916316,3.8640671 1.0678688,0.31435098 0 0 1 1.848447,3.5497161 1.0678688,0.31435098 0 0 1 2.916316,3.2353651 1.0678688,0.31435098 0 0 1 3.984185,3.5497161 Z"
     id="path84-62"
     inkscape:connector-curvature="0" />
  <path
     style="fill:#000080;fill-opacity:1;stroke:#000000;stroke-width:0.05093499;stroke-opacity:0.22110554"
     d="M 7.806223,3.8046041 A 1.0678688,0.31435098 0 0 1 6.738354,4.1189551 1.0678688,0.31435098 0 0 1 5.670485,3.8046041 1.0678688,0.31435098 0 0 1 6.738354,3.4902531 1.0678688,0.31435098 0 0 1 7.806223,3.8046041 Z"
     id="path3996-8"
     inkscape:connector-curvature="0" />
  <path
     style="fill:#0085a6;fill-opacity:1;stroke:#000080;stroke-width:0.05093499;stroke-opacity:1"
     d="m 7.750599,3.6502951 v 0.05442 l -0.0365,-0.02785 z"
     id="path3998-9"
     inkscape:connector-curvature="0" />
  <path
     style="fill:#000080;fill-opacity:1;stroke:#000080;stroke-width:0.05093499;stroke-opacity:1"
     d="m 5.722672,3.6484341 0.0015,0.05835 0.03839,-0.02969 z"
     id="path4000-6"
     inkscape:connector-curvature="0" />
  <ellipse
     ry="0.40805873"
     rx="1.1470019"
     cy="2.1338196"
     cx="6.7871933"
     id="ellipse4002-0"
     style="fill:#ffff00;fill-opacity:1;stroke:#000000;stroke-width:0.02374823;stroke-opacity:0.36180905" />
  <ellipse
     ry="0.3260611"
     rx="1.0206292"
     cy="2.1193485"
     cx="6.778511"
     id="ellipse4004-7"
     style="fill:#ff0000;fill-opacity:1;stroke:#000000;stroke-width:0.05093499;stroke-opacity:0.35175883" />
  <path
     id="path4006-0"
     d="m 5.632475,2.1656541 0.07331,0.111903 0.08489,0.0656 0.142772,0.0656 0.135055,0.04631 0.219946,0.04245 0.189078,0.03473 0.181359,0.01544 h 0.154348 0.185218 l 0.169783,-0.02315 0.173642,-0.02315 0.15049,-0.05016 0.165925,-0.05788 0.154349,-0.0656 0.104185,-0.100326 0.01929,-0.07717 -0.01544,0.293262 -0.02315,0.104186 -0.05016,0.111902 -0.06946,0.0656 -0.05016,0.05788 -0.111902,0.07717 -0.131196,0.06174 -0.111903,0.0463 -0.09794,0.03473 -0.08079,0.01831 -0.08146,0.02803 -0.0563,0.03083 -0.05529,0.03859 -0.450125,-0.0039 -0.03405,-0.0381 -0.05617,-0.03497 -0.06915,-0.02462 -0.06058,-0.02193 -0.104185,-0.02701 -0.05402,-0.03087 -0.142772,-0.06946 -0.08489,-0.06174 -0.123479,-0.08489 -0.05016,-0.07332 -0.05788,-0.06174 -0.02701,-0.0656 -0.02315,-0.09647 -0.01929,-0.111903 -0.01158,-0.07331 z"
     style="fill:#008000;fill-opacity:1;stroke:#000000;stroke-width:0.05093499;stroke-opacity:0.16582917"
     inkscape:connector-curvature="0" />
  <rect
     y="3.1148968"
     x="6.5508423"
     height="0.14647143"
     width="0.44894582"
     id="rect4008-1"
     style="fill:#0088aa;fill-opacity:1;stroke:#000000;stroke-width:0.05093499;stroke-opacity:0.20100505" />
  <path
     style="fill:#008000;fill-opacity:1;stroke:#000080;stroke-width:0.05107667;stroke-opacity:0.26633169"
     d="m 7.775788,3.5763991 v 0.256308"
     id="path4010-0"
     inkscape:connector-curvature="0" />
  <path
     style="fill:#0085a6;fill-opacity:1;stroke:#000080;stroke-width:0.05093499;stroke-opacity:0.32160806"
     d="m 5.696457,3.5585411 0.0038,0.258693"
     id="path4012-1"
     inkscape:connector-curvature="0" />
  <path
     id="path4014-3"
     d="M 7.806223,3.5497161 A 1.0678688,0.31435098 0 0 1 6.738354,3.8640671 1.0678688,0.31435098 0 0 1 5.670485,3.5497161 1.0678688,0.31435098 0 0 1 6.738354,3.2353651 1.0678688,0.31435098 0 0 1 7.806223,3.5497161 Z"
     style="fill:#0088aa;fill-opacity:1;stroke:#000000;stroke-width:0.05093499;stroke-opacity:0.18592966"
     inkscape:connector-curvature="0" />
  <path
     style="fill:#000080;fill-opacity:1;stroke:#000000;stroke-width:0.05093499;stroke-opacity:0.22110554"
     d="M 3.984185,9.1601351 A 1.0678688,0.31435098 0 0 1 2.916316,9.4744861 1.0678688,0.31435098 0 0 1 1.848447,9.1601351 1.0678688,0.31435098 0 0 1 2.916316,8.8457841 1.0678688,0.31435098 0 0 1 3.984185,9.1601351 Z"
     id="path4154"
     inkscape:connector-curvature="0" />
  <path
     style="fill:#0085a6;fill-opacity:1;stroke:#000080;stroke-width:0.05093499;stroke-opacity:1"
     d="m 3.928562,9.0058261 v 0.05443 l -0.0365,-0.02785 z"
     id="path4156"
     inkscape:connector-curvature="0" />
  <path
     style="fill:#000080;fill-opacity:1;stroke:#000080;stroke-width:0.05093499;stroke-opacity:1"
     d="m 1.900634,9.0039651 0.0015,0.05835 0.03839,-0.02969 z"
     id="path4158"
     inkscape:connector-curvature="0" />
  <ellipse
     ry="0.40805873"
     rx="1.1470019"
     cy="7.4893494"
     cx="2.9651563"
     id="ellipse4160"
     style="fill:#ffff00;fill-opacity:1;stroke:#000000;stroke-width:0.02374823;stroke-opacity:0.36180905" />
  <ellipse
     ry="0.3260611"
     rx="1.0206292"
     cy="7.4748802"
     cx="2.9564741"
     id="ellipse4162"
     style="fill:#ff0000;fill-opacity:1;stroke:#000000;stroke-width:0.05093499;stroke-opacity:0.35175883" />
  <path
     id="path4164"
     d="m 1.810437,7.5211851 0.07332,0.111903 0.08489,0.0656 0.142772,0.0656 0.135055,0.04631 0.219946,0.04245 0.189078,0.03473 0.181359,0.01543 h 0.154348 0.185219 l 0.169783,-0.02315 0.173642,-0.02315 0.15049,-0.05016 0.165924,-0.05788 0.154349,-0.0656 0.104185,-0.100326 0.01929,-0.07717 -0.01543,0.293262 -0.02315,0.104185 -0.05016,0.111903 -0.06946,0.0656 -0.05016,0.05788 -0.111902,0.07717 -0.131197,0.06174 -0.111903,0.04631 -0.09794,0.03473 -0.08079,0.01831 -0.08146,0.02803 -0.0563,0.03083 -0.05529,0.03859 -0.450126,-0.0039 -0.03406,-0.0381 -0.05616,-0.03497 -0.06915,-0.02462 -0.06058,-0.02193 -0.104186,-0.02701 -0.05402,-0.03087 -0.142772,-0.06946 -0.08489,-0.06174 -0.123478,-0.08489 -0.05016,-0.07332 -0.05788,-0.06174 -0.02701,-0.0656 -0.02315,-0.09647 -0.01929,-0.111903 -0.01158,-0.07332 z"
     style="fill:#008000;fill-opacity:1;stroke:#000000;stroke-width:0.05093499;stroke-opacity:0.16582917"
     inkscape:connector-curvature="0" />
  <rect
     y="8.4704285"
     x="2.7288053"
     height="0.14647143"
     width="0.44894582"
     id="rect4166"
     style="fill:#0088aa;fill-opacity:1;stroke:#000000;stroke-width:0.05093499;stroke-opacity:0.20100505" />
  <path
     style="fill:#008000;fill-opacity:1;stroke:#000080;stroke-width:0.05107667;stroke-opacity:0.26633169"
     d="m 3.953751,8.9319301 v 0.256308"
     id="path4168"
     inkscape:connector-curvature="0" />
  <path
     style="fill:#0085a6;fill-opacity:1;stroke:#000080;stroke-width:0.05093499;stroke-opacity:0.32160806"
     d="m 1.874419,8.9140721 0.0038,0.258693"
     id="path4170"
     inkscape:connector-curvature="0" />
  <path
     id="path4172"
     d="M 3.984185,8.9052471 A 1.0678688,0.31435098 0 0 1 2.916316,9.2195981 1.0678688,0.31435098 0 0 1 1.848447,8.9052471 1.0678688,0.31435098 0 0 1 2.916316,8.5908961 1.0678688,0.31435098 0 0 1 3.984185,8.9052471 Z"
     style="fill:#0088aa;fill-opacity:1;stroke:#000000;stroke-width:0.05093499;stroke-opacity:0.18592966"
     inkscape:connector-curvature="0" />
  <path
     id="path4174"
     d="M 7.806223,9.1601351 A 1.0678688,0.31435098 0 0 1 6.738354,9.4744861 1.0678688,0.31435098 0 0 1 5.670485,9.1601351 1.0678688,0.31435098 0 0 1 6.738354,8.8457841 1.0678688,0.31435098 0 0 1 7.806223,9.1601351 Z"
     style="fill:#000080;fill-opacity:1;stroke:#000000;stroke-width:0.05093499;stroke-opacity:0.22110554"
     inkscape:connector-curvature="0" />
  <path
     id="path4176"
     d="m 7.750599,9.0058261 v 0.05443 l -0.0365,-0.02785 z"
     style="fill:#0085a6;fill-opacity:1;stroke:#000080;stroke-width:0.05093499;stroke-opacity:1"
     inkscape:connector-curvature="0" />
  <path
     id="path4178"
     d="m 5.722672,9.0039651 0.0015,0.05835 0.03839,-0.02969 z"
     style="fill:#000080;fill-opacity:1;stroke:#000080;stroke-width:0.05093499;stroke-opacity:1"
     inkscape:connector-curvature="0" />
  <ellipse
     style="fill:#ffff00;fill-opacity:1;stroke:#000000;stroke-width:0.02374823;stroke-opacity:0.36180905"
     id="ellipse4180"
     cx="6.7871933"
     cy="7.4893494"
     rx="1.1470019"
     ry="0.40805873" />
  <ellipse
     style="fill:#ff0000;fill-opacity:1;stroke:#000000;stroke-width:0.05093499;stroke-opacity:0.35175883"
     id="ellipse4182"
     cx="6.778511"
     cy="7.4748802"
     rx="1.0206292"
     ry="0.3260611" />
  <path
     style="fill:#008000;fill-opacity:1;stroke:#000000;stroke-width:0.05093499;stroke-opacity:0.16582917"
     d="m 5.632475,7.5211851 0.07331,0.111903 0.08489,0.0656 0.142772,0.0656 0.135055,0.04631 0.219946,0.04245 0.189078,0.03473 0.181359,0.01543 h 0.154348 0.185218 l 0.169783,-0.02315 0.173642,-0.02315 0.15049,-0.05016 0.165925,-0.05788 0.154349,-0.0656 0.104185,-0.100326 0.01929,-0.07717 -0.01544,0.293262 -0.02315,0.104185 -0.05016,0.111903 -0.06946,0.0656 -0.05016,0.05788 -0.111902,0.07717 -0.131196,0.06174 -0.111903,0.04631 -0.09794,0.03473 -0.08079,0.01831 -0.08146,0.02803 -0.0563,0.03083 -0.05529,0.03859 -0.450125,-0.0039 -0.03405,-0.0381 -0.05617,-0.03497 -0.06915,-0.02462 -0.06058,-0.02193 -0.104185,-0.02701 -0.05402,-0.03087 -0.142772,-0.06946 -0.08489,-0.06174 -0.123479,-0.08489 -0.05016,-0.07332 -0.05788,-0.06174 -0.02701,-0.0656 -0.02315,-0.09647 -0.01929,-0.111903 -0.01158,-0.07332 z"
     id="path4184"
     inkscape:connector-curvature="0" />
  <rect
     style="fill:#0088aa;fill-opacity:1;stroke:#000000;stroke-width:0.05093499;stroke-opacity:0.20100505"
     id="rect4186"
     width="0.44894582"
     height="0.14647143"
     x="6.5508423"
     y="8.4704285" />
  <path
     id="path4188"
     d="m 7.775788,8.9319301 v 0.256308"
     style="fill:#008000;fill-opacity:1;stroke:#000080;stroke-width:0.05107667;stroke-opacity:0.26633169"
     inkscape:connector-curvature="0" />
  <path
     id="path4190"
     d="m 5.696457,8.9140721 0.0038,0.258693"
     style="fill:#0085a6;fill-opacity:1;stroke:#000080;stroke-width:0.05093499;stroke-opacity:0.32160806"
     inkscape:connector-curvature="0" />
  <path
     style="fill:#0088aa;fill-opacity:1;stroke:#000000;stroke-width:0.05093499;stroke-opacity:0.18592966"
     d="M 7.806223,8.9052471 A 1.0678688,0.31435098 0 0 1 6.738354,9.2195981 1.0678688,0.31435098 0 0 1 5.670485,8.9052471 1.0678688,0.31435098 0 0 1 6.738354,8.5908961 1.0678688,0.31435098 0 0 1 7.806223,8.9052471 Z"
     id="path4192"
     inkscape:connector-curvature="0" />
  <path
     id="path4194"
     d="m 3.984185,12.750547 a 1.0678688,0.31435098 0 0 1 -1.067869,0.314351 1.0678688,0.31435098 0 0 1 -1.067869,-0.314351 1.0678688,0.31435098 0 0 1 1.067869,-0.31435 1.0678688,0.31435098 0 0 1 1.067869,0.31435 z"
     style="fill:#000080;fill-opacity:1;stroke:#000000;stroke-width:0.05093499;stroke-opacity:0.22110554"
     inkscape:connector-curvature="0" />
  <path
     id="path4196"
     d="m 3.928562,12.596238 v 0.05443 l -0.0365,-0.02785 z"
     style="fill:#0085a6;fill-opacity:1;stroke:#000080;stroke-width:0.05093499;stroke-opacity:1"
     inkscape:connector-curvature="0" />
  <path
     id="path4198"
     d="m 1.900634,12.594377 0.0015,0.05835 0.03839,-0.02969 z"
     style="fill:#000080;fill-opacity:1;stroke:#000080;stroke-width:0.05093499;stroke-opacity:1"
     inkscape:connector-curvature="0" />
  <ellipse
     style="fill:#ffff00;fill-opacity:1;stroke:#000000;stroke-width:0.02374823;stroke-opacity:0.36180905"
     id="ellipse4200"
     cx="2.9651563"
     cy="11.079765"
     rx="1.1470019"
     ry="0.40805873" />
  <ellipse
     style="fill:#ff0000;fill-opacity:1;stroke:#000000;stroke-width:0.05093499;stroke-opacity:0.35175883"
     id="ellipse4202"
     cx="2.9564741"
     cy="11.065292"
     rx="1.0206292"
     ry="0.3260611" />
  <path
     style="fill:#008000;fill-opacity:1;stroke:#000000;stroke-width:0.05093499;stroke-opacity:0.16582917"
     d="m 1.810437,11.111598 0.07332,0.111902 0.08489,0.0656 0.142772,0.0656 0.135055,0.0463 0.219946,0.04245 0.189078,0.03473 0.181359,0.01543 h 0.154348 0.185219 l 0.169783,-0.02315 0.173642,-0.02315 0.15049,-0.05016 0.165924,-0.05788 0.154349,-0.0656 0.104185,-0.100327 0.01929,-0.07717 -0.01543,0.293262 -0.02315,0.104185 -0.05016,0.111903 -0.06946,0.0656 -0.05016,0.05788 -0.111902,0.07717 -0.131197,0.06174 -0.111903,0.0463 -0.09794,0.03473 -0.08079,0.01831 -0.08146,0.02803 -0.0563,0.03083 -0.05529,0.03859 -0.450126,-0.0039 -0.03406,-0.0381 -0.05616,-0.03497 -0.06915,-0.02462 -0.06058,-0.02193 -0.104186,-0.02701 -0.05402,-0.03087 -0.142772,-0.06946 -0.08489,-0.06174 -0.123478,-0.08489 -0.05016,-0.07332 -0.05788,-0.06174 -0.02701,-0.0656 -0.02315,-0.09647 -0.01929,-0.111902 -0.01158,-0.07332 z"
     id="path4204"
     inkscape:connector-curvature="0" />
  <rect
     style="fill:#0088aa;fill-opacity:1;stroke:#000000;stroke-width:0.05093499;stroke-opacity:0.20100505"
     id="rect4206"
     width="0.44894582"
     height="0.14647143"
     x="2.7288053"
     y="12.060841" />
  <path
     id="path4208"
     d="M 3.953751,12.522343 V 12.77865"
     style="fill:#008000;fill-opacity:1;stroke:#000080;stroke-width:0.05107667;stroke-opacity:0.26633169"
     inkscape:connector-curvature="0" />
  <path
     id="path4210"
     d="m 1.874419,12.504485 0.0038,0.258692"
     style="fill:#0085a6;fill-opacity:1;stroke:#000080;stroke-width:0.05093499;stroke-opacity:0.32160806"
     inkscape:connector-curvature="0" />
  <path
     style="fill:#0088aa;fill-opacity:1;stroke:#000000;stroke-width:0.05093499;stroke-opacity:0.18592966"
     d="M 3.984185,12.49566 A 1.0678688,0.31435098 0 0 1 2.916316,12.81001 1.0678688,0.31435098 0 0 1 1.848447,12.49566 1.0678688,0.31435098 0 0 1 2.916316,12.181308 1.0678688,0.31435098 0 0 1 3.984185,12.49566 Z"
     id="path4212"
     inkscape:connector-curvature="0" />
  <path
     style="fill:#000080;fill-opacity:1;stroke:#000000;stroke-width:0.05093499;stroke-opacity:0.22110554"
     d="m 7.806223,12.750547 a 1.0678688,0.31435098 0 0 1 -1.067869,0.314351 1.0678688,0.31435098 0 0 1 -1.067869,-0.314351 1.0678688,0.31435098 0 0 1 1.067869,-0.31435 1.0678688,0.31435098 0 0 1 1.067869,0.31435 z"
     id="path4214"
     inkscape:connector-curvature="0" />
  <path
     style="fill:#0085a6;fill-opacity:1;stroke:#000080;stroke-width:0.05093499;stroke-opacity:1"
     d="m 7.750599,12.596238 v 0.05443 l -0.0365,-0.02785 z"
     id="path4216"
     inkscape:connector-curvature="0" />
  <path
     style="fill:#000080;fill-opacity:1;stroke:#000080;stroke-width:0.05093499;stroke-opacity:1"
     d="m 5.722672,12.594377 0.0015,0.05835 0.03839,-0.02969 z"
     id="path4218"
     inkscape:connector-curvature="0" />
  <ellipse
     ry="0.40805873"
     rx="1.1470019"
     cy="11.079765"
     cx="6.7871933"
     id="ellipse4220"
     style="fill:#ffff00;fill-opacity:1;stroke:#000000;stroke-width:0.02374823;stroke-opacity:0.36180905" />
  <ellipse
     ry="0.3260611"
     rx="1.0206292"
     cy="11.065292"
     cx="6.778511"
     id="ellipse4222"
     style="fill:#ff0000;fill-opacity:1;stroke:#000000;stroke-width:0.05093499;stroke-opacity:0.35175883" />
  <path
     id="path4224"
     d="m 5.632475,11.111598 0.07331,0.111902 0.08489,0.0656 0.142772,0.0656 0.135055,0.0463 0.219946,0.04245 0.189078,0.03473 0.181359,0.01543 h 0.154348 0.185218 l 0.169783,-0.02315 0.173642,-0.02315 0.15049,-0.05016 0.165925,-0.05788 0.154349,-0.0656 0.104185,-0.100327 0.01929,-0.07717 -0.01544,0.293262 -0.02315,0.104185 -0.05016,0.111903 -0.06946,0.0656 -0.05016,0.05788 -0.111902,0.07717 -0.131196,0.06174 -0.111903,0.0463 -0.09794,0.03473 -0.08079,0.01831 -0.08146,0.02803 -0.0563,0.03083 -0.05529,0.03859 -0.450125,-0.0039 -0.03405,-0.0381 -0.05617,-0.03497 -0.06915,-0.02462 -0.06058,-0.02193 -0.104185,-0.02701 -0.05402,-0.03087 -0.142772,-0.06946 -0.08489,-0.06174 -0.123479,-0.08489 -0.05016,-0.07332 -0.05788,-0.06174 -0.02701,-0.0656 -0.02315,-0.09647 -0.01929,-0.111902 -0.01158,-0.07332 z"
     style="fill:#008000;fill-opacity:1;stroke:#000000;stroke-width:0.05093499;stroke-opacity:0.16582917"
     inkscape:connector-curvature="0" />
  <rect
     y="12.060841"
     x="6.5508423"
     height="0.14647143"
     width="0.44894582"
     id="rect4226"
     style="fill:#0088aa;fill-opacity:1;stroke:#000000;stroke-width:0.05093499;stroke-opacity:0.20100505" />
  <path
     style="fill:#008000;fill-opacity:1;stroke:#000080;stroke-width:0.05107667;stroke-opacity:0.26633169"
     d="M 7.775788,12.522343 V 12.77865"
     id="path4228"
     inkscape:connector-curvature="0" />
  <path
     style="fill:#0085a6;fill-opacity:1;stroke:#000080;stroke-width:0.05093499;stroke-opacity:0.32160806"
     d="m 5.696457,12.504485 0.0038,0.258692"
     id="path4230"
     inkscape:connector-curvature="0" />
  <path
     id="path4232"
     d="M 7.806223,12.49566 A 1.0678688,0.31435098 0 0 1 6.738354,12.81001 1.0678688,0.31435098 0 0 1 5.670485,12.49566 1.0678688,0.31435098 0 0 1 6.738354,12.181308 1.0678688,0.31435098 0 0 1 7.806223,12.49566 Z"
     style="fill:#0088aa;fill-opacity:1;stroke:#000000;stroke-width:0.05093499;stroke-opacity:0.18592966"
     inkscape:connector-curvature="0" />
  <path
     id="path4234"
     d="M 5.949885,6.5124571 A 1.0678688,0.31435098 0 0 1 4.882017,6.8268081 1.0678688,0.31435098 0 0 1 3.814148,6.5124571 1.0678688,0.31435098 0 0 1 4.882017,6.1981061 1.0678688,0.31435098 0 0 1 5.949885,6.5124571 Z"
     style="fill:#000080;fill-opacity:1;stroke:#000000;stroke-width:0.05093499;stroke-opacity:0.22110554"
     inkscape:connector-curvature="0" />
  <path
     id="path4236"
     d="m 5.894262,6.3581481 v 0.05442 l -0.0365,-0.02785 z"
     style="fill:#0085a6;fill-opacity:1;stroke:#000080;stroke-width:0.05093499;stroke-opacity:1"
     inkscape:connector-curvature="0" />
  <path
     id="path4238"
     d="m 3.866335,6.3562871 0.0015,0.05835 0.03839,-0.02969 z"
     style="fill:#000080;fill-opacity:1;stroke:#000080;stroke-width:0.05093499;stroke-opacity:1"
     inkscape:connector-curvature="0" />
  <ellipse
     style="fill:#ffff00;fill-opacity:1;stroke:#000000;stroke-width:0.02374823;stroke-opacity:0.36180905"
     id="ellipse4240"
     cx="4.9308548"
     cy="4.841671"
     rx="1.1470019"
     ry="0.40805873" />
  <ellipse
     style="fill:#ff0000;fill-opacity:1;stroke:#000000;stroke-width:0.05093499;stroke-opacity:0.35175883"
     id="ellipse4242"
     cx="4.9221725"
     cy="4.8272018"
     rx="1.0206292"
     ry="0.3260611" />
  <path
     style="fill:#008000;fill-opacity:1;stroke:#000000;stroke-width:0.05093499;stroke-opacity:0.16582917"
     d="m 3.776137,4.8735071 0.07332,0.111903 0.08489,0.0656 0.142772,0.0656 0.135055,0.0463 0.219946,0.04245 0.189077,0.03473 0.181359,0.01543 h 0.154349 0.185218 l 0.169783,-0.02315 0.173642,-0.02315 0.15049,-0.05016 0.165924,-0.05788 0.154349,-0.0656 0.104186,-0.100326 0.01929,-0.07717 -0.01544,0.293262 -0.02315,0.104185 -0.05016,0.111903 -0.06946,0.0656 -0.05016,0.05788 -0.111903,0.07717 -0.131196,0.06174 -0.111903,0.04631 -0.09794,0.03473 -0.08079,0.01831 -0.08146,0.02803 -0.0563,0.03083 -0.05529,0.03859 -0.450125,-0.0039 -0.03406,-0.0381 -0.05616,-0.03497 -0.06915,-0.02462 -0.06058,-0.02193 -0.104185,-0.02701 -0.05402,-0.03087 -0.142772,-0.06946 -0.08489,-0.06174 -0.123479,-0.08489 -0.05016,-0.07332 -0.05788,-0.06174 -0.02701,-0.0656 -0.02315,-0.09647 -0.01929,-0.111903 -0.01158,-0.07332 z"
     id="path4244"
     inkscape:connector-curvature="0" />
  <rect
     style="fill:#0088aa;fill-opacity:1;stroke:#000000;stroke-width:0.05093499;stroke-opacity:0.20100505"
     id="rect4246"
     width="0.44894582"
     height="0.14647143"
     x="4.6945114"
     y="5.8227501" />
  <path
     id="path4248"
     d="m 5.919451,6.2842521 v 0.256308"
     style="fill:#008000;fill-opacity:1;stroke:#000080;stroke-width:0.05107667;stroke-opacity:0.26633169"
     inkscape:connector-curvature="0" />
  <path
     id="path4250"
     d="m 3.84012,6.2663941 0.0038,0.258693"
     style="fill:#0085a6;fill-opacity:1;stroke:#000080;stroke-width:0.05093499;stroke-opacity:0.32160806"
     inkscape:connector-curvature="0" />
  <path
     style="fill:#0088aa;fill-opacity:1;stroke:#000000;stroke-width:0.05093499;stroke-opacity:0.18592966"
     d="M 5.949885,6.2575691 A 1.0678688,0.31435098 0 0 1 4.882017,6.5719201 1.0678688,0.31435098 0 0 1 3.814148,6.2575691 1.0678688,0.31435098 0 0 1 4.882017,5.9432181 1.0678688,0.31435098 0 0 1 5.949885,6.2575691 Z"
     id="path4252"
     inkscape:connector-curvature="0" />
</svg>
