<?xml version="1.0" encoding="UTF-8" standalone="no"?>
<svg
   xmlns:osb="http://www.openswatchbook.org/uri/2009/osb"
   xmlns:dc="http://purl.org/dc/elements/1.1/"
   xmlns:cc="http://creativecommons.org/ns#"
   xmlns:rdf="http://www.w3.org/1999/02/22-rdf-syntax-ns#"
   xmlns:svg="http://www.w3.org/2000/svg"
   xmlns="http://www.w3.org/2000/svg"
   xmlns:xlink="http://www.w3.org/1999/xlink"
   xmlns:sodipodi="http://sodipodi.sourceforge.net/DTD/sodipodi-0.dtd"
   xmlns:inkscape="http://www.inkscape.org/namespaces/inkscape"
   viewBox="0 0 160 250"
   height="250"
   width="160"
   id="svg815"
   version="1.1"
   sodipodi:docname="cups08.svg"
   inkscape:version="0.92.5 (2060ec1f9f, 2020-04-08)">
  <sodipodi:namedview
     pagecolor="#ffffff"
     bordercolor="#666666"
     borderopacity="1"
     objecttolerance="10"
     gridtolerance="10"
     guidetolerance="10"
     inkscape:pageopacity="0"
     inkscape:pageshadow="2"
     inkscape:window-width="1918"
     inkscape:window-height="1017"
     id="namedview7762"
     showgrid="false"
     inkscape:zoom="13.169302"
     inkscape:cx="59.090909"
     inkscape:cy="238.78788"
     inkscape:window-x="0"
     inkscape:window-y="0"
     inkscape:window-maximized="1"
     inkscape:current-layer="svg815"
     inkscape:snap-page="true" />
  <metadata
     id="metadata821">
    <rdf:RDF>
      <cc:Work
         rdf:about="">
        <dc:format>image/svg+xml</dc:format>
        <dc:type
           rdf:resource="http://purl.org/dc/dcmitype/StillImage" />
        <dc:title></dc:title>
      </cc:Work>
    </rdf:RDF>
  </metadata>
  <defs
     id="defs819">
    <linearGradient
       id="linearGradient3804"
       osb:paint="solid">
      <stop
         style="stop-color:#000000;stop-opacity:1;"
         offset="0"
         id="stop3802" />
    </linearGradient>
    <linearGradient
       gradientUnits="userSpaceOnUse"
       y2="71.008263"
       x2="88.849586"
       y1="58.644627"
       x1="82.105782"
       id="linearGradient1063"
       xlink:href="#linearGradient882"
       gradientTransform="matrix(0.0625,0,0,0.0625,89.999999,8.2080078e-7)" />
    <linearGradient
       id="linearGradient882">
      <stop
         style="stop-color:#d16208;stop-opacity:1"
         offset="0"
         id="stop878" />
      <stop
         style="stop-color:#d16250;stop-opacity:0;"
         offset="1"
         id="stop880" />
    </linearGradient>
    <linearGradient
       gradientUnits="userSpaceOnUse"
       y2="68.472336"
       x2="56.128345"
       y1="63.697319"
       x1="61.166279"
       id="linearGradient876"
       xlink:href="#linearGradient882"
       gradientTransform="matrix(0.0625,0,0,0.0625,89.999999,8.2080078e-7)" />
    <linearGradient
       xlink:href="#linearGradient846"
       id="linearGradient848"
       x1="72.37397"
       y1="53.171356"
       x2="72.19931"
       y2="45.564011"
       gradientUnits="userSpaceOnUse"
       gradientTransform="matrix(0.0625,0,0,0.0625,110,-2.6855469e-7)" />
    <linearGradient
       id="linearGradient846">
      <stop
         style="stop-color:#423abf;stop-opacity:1;"
         offset="0"
         id="stop842" />
      <stop
         style="stop-color:#423abf;stop-opacity:0;"
         offset="1"
         id="stop844" />
    </linearGradient>
  </defs>
  <flowRoot
     xml:space="preserve"
     id="flowRoot100"
     style="font-style:normal;font-variant:normal;font-weight:bold;font-stretch:normal;font-size:1px;line-height:1.25;font-family:'DejaVu Sans';-inkscape-font-specification:'DejaVu Sans Bold';letter-spacing:0px;word-spacing:0px;fill:#000000;fill-opacity:1;stroke:none;stroke-width:0.0625"><flowRegion
       style="stroke-width:0.0625"
       id="flowRegion102"><rect
         style="stroke-width:0.00390625"
         id="rect104"
         width="1.5151515"
         height="1.3636364"
         x="0.66287881"
         y="0.73863637" /></flowRegion><flowPara
       style="stroke-width:0.0625"
       id="flowPara106" /></flowRoot>  <rect
     y="0"
     x="0.064632334"
     height="15.625"
     width="10"
     id="cups08"
     style="fill:#ffffff;fill-opacity:1;stroke:#1a1a1a;stroke-width:0.0625;stroke-opacity:1" />
  <rect
     y="1.3068199"
     x="1.4093283"
     height="12.973484"
     width="7.2537889"
     id="rect108-7"
     style="fill:none;fill-opacity:1;stroke:#1a1a1a;stroke-width:0.0625;stroke-opacity:1" />
  <g
     id="flowRoot915-2"
     style="font-style:normal;font-variant:normal;font-weight:bold;font-stretch:normal;font-size:16px;line-height:1.25;font-family:'DejaVu Sans';-inkscape-font-specification:'DejaVu Sans Bold';text-align:start;letter-spacing:0px;word-spacing:0px;text-anchor:start;fill:#000000;fill-opacity:1;stroke:none"
     transform="matrix(0.0625,0,0,0.0625,0.25402834,2.2119141e-7)"
     aria-label="8">
    <path
       id="path6717"
       d="m 8.6015625,13.482422 q -0.84375,0 -1.296875,0.460937 -0.453125,0.460938 -0.453125,1.320313 0,0.859375 0.453125,1.320312 0.453125,0.453125 1.296875,0.453125 0.8359375,0 1.28125,-0.453125 0.4453125,-0.460937 0.4453125,-1.320312 0,-0.867188 -0.4453125,-1.320313 Q 9.4375,13.482422 8.6015625,13.482422 Z M 6.40625,12.490234 Q 5.34375,12.169922 4.8046875,11.505859 4.265625,10.841797 4.265625,9.8496094 q 0,-1.4765625 1.1015625,-2.25 1.1015625,-0.7734375 3.234375,-0.7734375 2.1171875,0 3.2187505,0.7734375 1.101562,0.765625 1.101562,2.25 0,0.9921876 -0.546875,1.6562496 -0.539062,0.664063 -1.601562,0.984375 1.1875,0.328125 1.789062,1.070313 0.609375,0.734375 0.609375,1.859375 0,1.734375 -1.15625,2.625 -1.148437,0.882812 -3.4140625,0.882812 -2.2734375,0 -3.4375,-0.882812 -1.15625,-0.890625 -1.15625,-2.625 0,-1.125 0.6015625,-1.859375 0.609375,-0.742188 1.796875,-1.070313 z m 0.703125,-2.335937 q 0,0.695312 0.3828125,1.070312 0.390625,0.375 1.109375,0.375 0.703125,0 1.0859375,-0.375 0.382813,-0.375 0.382813,-1.070312 0,-0.6953126 -0.382813,-1.0625001 -0.3828125,-0.375 -1.0859375,-0.375 -0.71875,0 -1.109375,0.375 -0.3828125,0.375 -0.3828125,1.0625001 z"
       inkscape:connector-curvature="0" />
  </g>
  <path
     style="fill:#000080;fill-opacity:1;stroke:#000000;stroke-width:0.05093499;stroke-opacity:0.22110554"
     d="m 4.0730123,3.8046042 a 1.0678688,0.31435098 0 0 1 -1.067869,0.314351 1.0678688,0.31435098 0 0 1 -1.067869,-0.314351 1.0678688,0.31435098 0 0 1 1.067869,-0.314351 1.0678688,0.31435098 0 0 1 1.067869,0.314351 z"
     id="path1422-64"
     inkscape:connector-curvature="0" />
  <path
     style="fill:#0085a6;fill-opacity:1;stroke:#000080;stroke-width:0.05093499;stroke-opacity:1"
     d="m 4.0173893,3.6502952 v 0.05443 l -0.0365,-0.02785 z"
     id="path1430-5"
     inkscape:connector-curvature="0" />
  <path
     style="fill:#000080;fill-opacity:1;stroke:#000080;stroke-width:0.05093499;stroke-opacity:1"
     d="m 1.9894623,3.6484342 0.0015,0.05835 0.03839,-0.02969 z"
     id="path1428-20"
     inkscape:connector-curvature="0" />
  <ellipse
     ry="0.40805873"
     rx="1.1470019"
     cy="2.1338196"
     cx="3.0539818"
     id="path74-2"
     style="fill:#ffff00;fill-opacity:1;stroke:#000000;stroke-width:0.02374823;stroke-opacity:0.36180905" />
  <ellipse
     ry="0.3260611"
     rx="1.0206292"
     cy="2.1193504"
     cx="3.0452995"
     id="path76-9"
     style="fill:#ff0000;fill-opacity:1;stroke:#000000;stroke-width:0.05093499;stroke-opacity:0.35175883" />
  <path
     id="path80-09"
     d="m 1.8992643,2.1656542 0.07332,0.111903 0.08489,0.0656 0.142772,0.0656 0.135055,0.0463 0.219947,0.04245 0.189077,0.03473 0.181359,0.01543 h 0.154348 0.185219 l 0.169783,-0.02315 0.173642,-0.02315 0.15049,-0.05016 0.165924,-0.05788 0.154349,-0.0656 0.104185,-0.100327 0.01929,-0.07717 -0.01543,0.293262 -0.02315,0.104185 -0.05016,0.111903 -0.06946,0.0656 -0.05016,0.05788 -0.111902,0.07717 -0.131197,0.06174 -0.111902,0.0463 -0.09794,0.03473 -0.08079,0.01831 -0.08146,0.02803 -0.0563,0.03083 -0.05529,0.03859 -0.450126,-0.0039 -0.03406,-0.0381 -0.05616,-0.03497 -0.06915,-0.02462 -0.06058,-0.02193 -0.104186,-0.02701 -0.05402,-0.03087 -0.142773,-0.06946 -0.08489,-0.06174 -0.123479,-0.08489 -0.05016,-0.07332 -0.05788,-0.06174 -0.02701,-0.0656 -0.02315,-0.09647 -0.01929,-0.111903 -0.01158,-0.07332 z"
     style="fill:#008000;fill-opacity:1;stroke:#000000;stroke-width:0.05093499;stroke-opacity:0.16582917"
     inkscape:connector-curvature="0" />
  <rect
     y="3.1148987"
     x="2.8176384"
     height="0.14647143"
     width="0.44894582"
     id="rect87-9"
     style="fill:#0088aa;fill-opacity:1;stroke:#000000;stroke-width:0.05093499;stroke-opacity:0.20100505" />
  <path
     style="fill:#008000;fill-opacity:1;stroke:#000080;stroke-width:0.05107667;stroke-opacity:0.26633169"
     d="m 4.0425783,3.5763992 v 0.256308"
     id="path1424-4"
     inkscape:connector-curvature="0" />
  <path
     style="fill:#0085a6;fill-opacity:1;stroke:#000080;stroke-width:0.05093499;stroke-opacity:0.32160806"
     d="m 1.9632473,3.5585412 0.0038,0.258693"
     id="path1426-5"
     inkscape:connector-curvature="0" />
  <path
     id="path84-10"
     d="m 4.0730123,3.5497162 a 1.0678688,0.31435098 0 0 1 -1.067869,0.314351 1.0678688,0.31435098 0 0 1 -1.067869,-0.314351 1.0678688,0.31435098 0 0 1 1.067869,-0.314351 1.0678688,0.31435098 0 0 1 1.067869,0.314351 z"
     style="fill:#0088aa;fill-opacity:1;stroke:#000000;stroke-width:0.05093499;stroke-opacity:0.18592966"
     inkscape:connector-curvature="0" />
  <path
     style="fill:#000080;fill-opacity:1;stroke:#000000;stroke-width:0.05093499;stroke-opacity:0.22110554"
     d="m 4.0690163,6.8723052 a 1.0678688,0.31435098 0 0 1 -1.067869,0.314352 1.0678688,0.31435098 0 0 1 -1.067869,-0.314352 1.0678688,0.31435098 0 0 1 1.067869,-0.314351 1.0678688,0.31435098 0 0 1 1.067869,0.314351 z"
     id="path4234-3"
     inkscape:connector-curvature="0" />
  <path
     style="fill:#0085a6;fill-opacity:1;stroke:#000080;stroke-width:0.05093499;stroke-opacity:1"
     d="m 4.0133933,6.7179972 v 0.05443 l -0.0365,-0.02785 z"
     id="path4236-7"
     inkscape:connector-curvature="0" />
  <path
     style="fill:#000080;fill-opacity:1;stroke:#000080;stroke-width:0.05093499;stroke-opacity:1"
     d="m 1.9854653,6.7161352 0.0015,0.05835 0.03839,-0.02969 z"
     id="path4238-8"
     inkscape:connector-curvature="0" />
  <ellipse
     ry="0.40805873"
     rx="1.1470019"
     cy="5.201519"
     cx="3.049984"
     id="ellipse4240-8"
     style="fill:#ffff00;fill-opacity:1;stroke:#000000;stroke-width:0.02374823;stroke-opacity:0.36180905" />
  <ellipse
     ry="0.3260611"
     rx="1.0206292"
     cy="5.1870499"
     cx="3.0413094"
     id="ellipse4242-6"
     style="fill:#ff0000;fill-opacity:1;stroke:#000000;stroke-width:0.05093499;stroke-opacity:0.35175883" />
  <path
     id="path4244-0"
     d="m 1.8952683,5.2333562 0.07332,0.111902 0.08489,0.0656 0.142772,0.0656 0.135055,0.04631 0.219946,0.04245 0.189078,0.03473 0.181359,0.01543 h 0.154348 0.185218 l 0.169784,-0.02315 0.173642,-0.02315 0.150489,-0.05016 0.165925,-0.05788 0.154349,-0.0656 0.104185,-0.100326 0.01929,-0.07717 -0.01543,0.293261 -0.02315,0.104185 -0.05016,0.111904 -0.06946,0.0656 -0.05016,0.05788 -0.111903,0.07717 -0.131196,0.06174 -0.111903,0.0463 -0.09794,0.03473 -0.08079,0.01831 -0.08146,0.02803 -0.0563,0.03083 -0.05529,0.03859 -0.450126,-0.0039 -0.03406,-0.0381 -0.05616,-0.03497 -0.06915,-0.02462 -0.06058,-0.02193 -0.104185,-0.02701 -0.05402,-0.03087 -0.142772,-0.06946 -0.08489,-0.06174 -0.123479,-0.08489 -0.05016,-0.07332 -0.05788,-0.06174 -0.02701,-0.0656 -0.02315,-0.09647 -0.01929,-0.111903 -0.01158,-0.07332 z"
     style="fill:#008000;fill-opacity:1;stroke:#000000;stroke-width:0.05093499;stroke-opacity:0.16582917"
     inkscape:connector-curvature="0" />
  <rect
     y="6.1825981"
     x="2.8136406"
     height="0.14647143"
     width="0.44894582"
     id="rect4246-4"
     style="fill:#0088aa;fill-opacity:1;stroke:#000000;stroke-width:0.05093499;stroke-opacity:0.20100505" />
  <path
     style="fill:#008000;fill-opacity:1;stroke:#000080;stroke-width:0.05107667;stroke-opacity:0.26633169"
     d="m 4.0385813,6.6441012 v 0.256307"
     id="path4248-6"
     inkscape:connector-curvature="0" />
  <path
     style="fill:#0085a6;fill-opacity:1;stroke:#000080;stroke-width:0.05093499;stroke-opacity:0.32160806"
     d="m 1.9592503,6.6262432 0.0038,0.258692"
     id="path4250-7"
     inkscape:connector-curvature="0" />
  <path
     id="path4252-6"
     d="m 4.0690163,6.6174182 a 1.0678688,0.31435098 0 0 1 -1.067869,0.31435 1.0678688,0.31435098 0 0 1 -1.067869,-0.31435 1.0678688,0.31435098 0 0 1 1.067869,-0.314352 1.0678688,0.31435098 0 0 1 1.067869,0.314352 z"
     style="fill:#0088aa;fill-opacity:1;stroke:#000000;stroke-width:0.05093499;stroke-opacity:0.18592966"
     inkscape:connector-curvature="0" />
  <path
     id="path4958"
     d="m 4.0730123,9.9977852 a 1.0678688,0.31435098 0 0 1 -1.067869,0.3143518 1.0678688,0.31435098 0 0 1 -1.067869,-0.3143518 1.0678688,0.31435098 0 0 1 1.067869,-0.31435 1.0678688,0.31435098 0 0 1 1.067869,0.31435 z"
     style="fill:#000080;fill-opacity:1;stroke:#000000;stroke-width:0.05093499;stroke-opacity:0.22110554"
     inkscape:connector-curvature="0" />
  <path
     id="path4960"
     d="m 4.0173893,9.8434772 v 0.05443 l -0.0365,-0.02785 z"
     style="fill:#0085a6;fill-opacity:1;stroke:#000080;stroke-width:0.05093499;stroke-opacity:1"
     inkscape:connector-curvature="0" />
  <path
     id="path4962"
     d="m 1.9894623,9.8416152 0.0015,0.05835 0.03839,-0.02969 z"
     style="fill:#000080;fill-opacity:1;stroke:#000080;stroke-width:0.05093499;stroke-opacity:1"
     inkscape:connector-curvature="0" />
  <ellipse
     style="fill:#ffff00;fill-opacity:1;stroke:#000000;stroke-width:0.02374823;stroke-opacity:0.36180905"
     id="ellipse4964"
     cx="3.0539818"
     cy="8.3270035"
     rx="1.1470019"
     ry="0.40805873" />
  <ellipse
     style="fill:#ff0000;fill-opacity:1;stroke:#000000;stroke-width:0.05093499;stroke-opacity:0.35175883"
     id="ellipse4966"
     cx="3.0452995"
     cy="8.3125305"
     rx="1.0206292"
     ry="0.3260611" />
  <path
     style="fill:#008000;fill-opacity:1;stroke:#000000;stroke-width:0.05093499;stroke-opacity:0.16582917"
     d="m 1.8992643,8.3588352 0.07332,0.111903 0.08489,0.0656 0.142772,0.0656 0.135055,0.0463 0.219947,0.04245 0.189077,0.03473 0.181359,0.01543 h 0.154348 0.185219 l 0.169783,-0.02315 0.173642,-0.02315 0.15049,-0.05016 0.165924,-0.05788 0.154349,-0.0656 0.104185,-0.100327 0.01929,-0.07717 -0.01543,0.293262 -0.02315,0.104185 -0.05016,0.111903 -0.06946,0.0656 -0.05016,0.05788 -0.111902,0.07717 -0.131197,0.06174 -0.111902,0.04631 -0.09794,0.03473 -0.08079,0.01831 -0.08146,0.02803 -0.0563,0.03083 -0.05529,0.03859 -0.450126,-0.0039 -0.03406,-0.0381 -0.05616,-0.03497 -0.06915,-0.02462 -0.06058,-0.02193 -0.104186,-0.02701 -0.05402,-0.03087 -0.142773,-0.06946 -0.08489,-0.06174 -0.123479,-0.08489 -0.05016,-0.07331 -0.05788,-0.06174 -0.02701,-0.0656 -0.02315,-0.09647 -0.01929,-0.111902 -0.01158,-0.07332 z"
     id="path4968"
     inkscape:connector-curvature="0" />
  <rect
     style="fill:#0088aa;fill-opacity:1;stroke:#000000;stroke-width:0.05093499;stroke-opacity:0.20100505"
     id="rect4970"
     width="0.44894582"
     height="0.14647143"
     x="2.8176384"
     y="9.3080788" />
  <path
     id="path4972"
     d="M 4.0425783,9.7695812 V 10.025888"
     style="fill:#008000;fill-opacity:1;stroke:#000080;stroke-width:0.05107667;stroke-opacity:0.26633169"
     inkscape:connector-curvature="0" />
  <path
     id="path4974"
     d="m 1.9632473,9.7517232 0.0038,0.2586918"
     style="fill:#0085a6;fill-opacity:1;stroke:#000080;stroke-width:0.05093499;stroke-opacity:0.32160806"
     inkscape:connector-curvature="0" />
  <path
     style="fill:#0088aa;fill-opacity:1;stroke:#000000;stroke-width:0.05093499;stroke-opacity:0.18592966"
     d="m 4.0730123,9.7428972 a 1.0678688,0.31435098 0 0 1 -1.067869,0.3143508 1.0678688,0.31435098 0 0 1 -1.067869,-0.3143508 1.0678688,0.31435098 0 0 1 1.067869,-0.314351 1.0678688,0.31435098 0 0 1 1.067869,0.314351 z"
     id="path4976"
     inkscape:connector-curvature="0" />
  <path
     id="path4978"
     d="m 4.0690163,13.084426 a 1.0678688,0.31435098 0 0 1 -1.067869,0.314352 1.0678688,0.31435098 0 0 1 -1.067869,-0.314352 1.0678688,0.31435098 0 0 1 1.067869,-0.314351 1.0678688,0.31435098 0 0 1 1.067869,0.314351 z"
     style="fill:#000080;fill-opacity:1;stroke:#000000;stroke-width:0.05093499;stroke-opacity:0.22110554"
     inkscape:connector-curvature="0" />
  <path
     id="path4980"
     d="m 4.0133933,12.930118 v 0.05443 l -0.0365,-0.02785 z"
     style="fill:#0085a6;fill-opacity:1;stroke:#000080;stroke-width:0.05093499;stroke-opacity:1"
     inkscape:connector-curvature="0" />
  <path
     id="path4982-0"
     d="m 1.9854653,12.928256 0.0015,0.05835 0.03839,-0.02969 z"
     style="fill:#000080;fill-opacity:1;stroke:#000080;stroke-width:0.05093499;stroke-opacity:1"
     inkscape:connector-curvature="0" />
  <ellipse
     style="fill:#ffff00;fill-opacity:1;stroke:#000000;stroke-width:0.02374823;stroke-opacity:0.36180905"
     id="ellipse4984"
     cx="3.049984"
     cy="11.413643"
     rx="1.1470019"
     ry="0.40805873" />
  <ellipse
     style="fill:#ff0000;fill-opacity:1;stroke:#000000;stroke-width:0.05093499;stroke-opacity:0.35175883"
     id="ellipse4986"
     cx="3.0413094"
     cy="11.399174"
     rx="1.0206292"
     ry="0.3260611" />
  <path
     style="fill:#008000;fill-opacity:1;stroke:#000000;stroke-width:0.05093499;stroke-opacity:0.16582917"
     d="m 1.8952683,11.445476 0.07332,0.111903 0.08489,0.0656 0.142772,0.0656 0.135055,0.0463 0.219946,0.04245 0.189078,0.03473 0.181359,0.01543 h 0.154348 0.185218 l 0.169784,-0.02315 0.173642,-0.02315 0.150489,-0.05016 0.165925,-0.05788 0.154349,-0.0656 0.104185,-0.100326 0.01929,-0.07717 -0.01543,0.293262 -0.02315,0.104185 -0.05016,0.111903 -0.06946,0.0656 -0.05016,0.05788 -0.111903,0.07717 -0.131196,0.06174 -0.111903,0.04631 -0.09794,0.03473 -0.08079,0.01831 -0.08146,0.02803 -0.0563,0.03083 -0.05529,0.03859 -0.450126,-0.0039 -0.03406,-0.0381 -0.05616,-0.03497 -0.06915,-0.02462 -0.06058,-0.02193 -0.104185,-0.02701 -0.05402,-0.03087 -0.142772,-0.06946 -0.08489,-0.06174 -0.123479,-0.08489 -0.05016,-0.07332 -0.05788,-0.06174 -0.02701,-0.0656 -0.02315,-0.09647 -0.01929,-0.111903 -0.01158,-0.07332 z"
     id="path4988"
     inkscape:connector-curvature="0" />
  <rect
     style="fill:#0088aa;fill-opacity:1;stroke:#000000;stroke-width:0.05093499;stroke-opacity:0.20100505"
     id="rect4990"
     width="0.44894582"
     height="0.14647143"
     x="2.8136406"
     y="12.394722" />
  <path
     id="path4992"
     d="m 4.0385813,12.856222 v 0.256307"
     style="fill:#008000;fill-opacity:1;stroke:#000080;stroke-width:0.05107667;stroke-opacity:0.26633169"
     inkscape:connector-curvature="0" />
  <path
     id="path4994"
     d="m 1.9592503,12.838364 0.0038,0.258692"
     style="fill:#0085a6;fill-opacity:1;stroke:#000080;stroke-width:0.05093499;stroke-opacity:0.32160806"
     inkscape:connector-curvature="0" />
  <path
     style="fill:#0088aa;fill-opacity:1;stroke:#000000;stroke-width:0.05093499;stroke-opacity:0.18592966"
     d="m 4.0690163,12.829539 a 1.0678688,0.31435098 0 0 1 -1.067869,0.31435 1.0678688,0.31435098 0 0 1 -1.067869,-0.31435 1.0678688,0.31435098 0 0 1 1.067869,-0.314352 1.0678688,0.31435098 0 0 1 1.067869,0.314352 z"
     id="path4996"
     inkscape:connector-curvature="0" />
  <path
     id="path4998"
     d="m 7.9555873,3.8046042 a 1.0678688,0.31435098 0 0 1 -1.067868,0.314351 1.0678688,0.31435098 0 0 1 -1.067869,-0.314351 1.0678688,0.31435098 0 0 1 1.067869,-0.314351 1.0678688,0.31435098 0 0 1 1.067868,0.314351 z"
     style="fill:#000080;fill-opacity:1;stroke:#000000;stroke-width:0.05093499;stroke-opacity:0.22110554"
     inkscape:connector-curvature="0" />
  <path
     id="path5000"
     d="m 7.8999643,3.6502952 v 0.05443 l -0.0365,-0.02785 z"
     style="fill:#0085a6;fill-opacity:1;stroke:#000080;stroke-width:0.05093499;stroke-opacity:1"
     inkscape:connector-curvature="0" />
  <path
     id="path5002"
     d="m 5.8720373,3.6484342 0.0015,0.05835 0.03839,-0.02969 z"
     style="fill:#000080;fill-opacity:1;stroke:#000080;stroke-width:0.05093499;stroke-opacity:1"
     inkscape:connector-curvature="0" />
  <ellipse
     style="fill:#ffff00;fill-opacity:1;stroke:#000000;stroke-width:0.02374823;stroke-opacity:0.36180905"
     id="ellipse5004"
     cx="6.9365578"
     cy="2.1338196"
     rx="1.1470019"
     ry="0.40805873" />
  <ellipse
     style="fill:#ff0000;fill-opacity:1;stroke:#000000;stroke-width:0.05093499;stroke-opacity:0.35175883"
     id="ellipse5006"
     cx="6.9278755"
     cy="2.1193504"
     rx="1.0206292"
     ry="0.3260611" />
  <path
     style="fill:#008000;fill-opacity:1;stroke:#000000;stroke-width:0.05093499;stroke-opacity:0.16582917"
     d="m 5.7818403,2.1656542 0.07332,0.111903 0.08489,0.0656 0.142772,0.0656 0.135055,0.0463 0.219947,0.04245 0.189077,0.03473 0.181359,0.01543 h 0.154348 0.185219 l 0.169783,-0.02315 0.173642,-0.02315 0.15049,-0.05016 0.165923,-0.05788 0.15435,-0.0656 0.104185,-0.100327 0.01929,-0.07717 -0.01544,0.293262 -0.02315,0.104185 -0.05016,0.111903 -0.06946,0.0656 -0.05016,0.05788 -0.111903,0.07717 -0.131196,0.06174 -0.111903,0.0463 -0.09794,0.03473 -0.08079,0.01831 -0.08146,0.02803 -0.0563,0.03083 -0.05529,0.03859 -0.450126,-0.0039 -0.03406,-0.0381 -0.05616,-0.03497 -0.06915,-0.02462 -0.06058,-0.02193 -0.104186,-0.02701 -0.05402,-0.03087 -0.142772,-0.06946 -0.08489,-0.06174 -0.123478,-0.08489 -0.05016,-0.07332 -0.05788,-0.06174 -0.02701,-0.0656 -0.02315,-0.09647 -0.01929,-0.111903 -0.01158,-0.07332 z"
     id="path5008"
     inkscape:connector-curvature="0" />
  <rect
     style="fill:#0088aa;fill-opacity:1;stroke:#000000;stroke-width:0.05093499;stroke-opacity:0.20100505"
     id="rect5010"
     width="0.44894582"
     height="0.14647143"
     x="6.7002144"
     y="3.1148987" />
  <path
     id="path5012"
     d="m 7.9251543,3.5763992 v 0.256308"
     style="fill:#008000;fill-opacity:1;stroke:#000080;stroke-width:0.05107667;stroke-opacity:0.26633169"
     inkscape:connector-curvature="0" />
  <path
     id="path5014"
     d="m 5.8458223,3.5585412 0.0038,0.258693"
     style="fill:#0085a6;fill-opacity:1;stroke:#000080;stroke-width:0.05093499;stroke-opacity:0.32160806"
     inkscape:connector-curvature="0" />
  <path
     style="fill:#0088aa;fill-opacity:1;stroke:#000000;stroke-width:0.05093499;stroke-opacity:0.18592966"
     d="m 7.9555873,3.5497162 a 1.0678688,0.31435098 0 0 1 -1.067868,0.314351 1.0678688,0.31435098 0 0 1 -1.067869,-0.314351 1.0678688,0.31435098 0 0 1 1.067869,-0.314351 1.0678688,0.31435098 0 0 1 1.067868,0.314351 z"
     id="path5016"
     inkscape:connector-curvature="0" />
  <path
     id="path5018"
     d="m 7.9515913,6.8723052 a 1.0678688,0.31435098 0 0 1 -1.067868,0.314352 1.0678688,0.31435098 0 0 1 -1.067869,-0.314352 1.0678688,0.31435098 0 0 1 1.067869,-0.314351 1.0678688,0.31435098 0 0 1 1.067868,0.314351 z"
     style="fill:#000080;fill-opacity:1;stroke:#000000;stroke-width:0.05093499;stroke-opacity:0.22110554"
     inkscape:connector-curvature="0" />
  <path
     id="path5020"
     d="m 7.8959683,6.7179972 v 0.05443 l -0.0365,-0.02785 z"
     style="fill:#0085a6;fill-opacity:1;stroke:#000080;stroke-width:0.05093499;stroke-opacity:1"
     inkscape:connector-curvature="0" />
  <path
     id="path5022"
     d="m 5.8680413,6.7161352 0.0015,0.05835 0.03839,-0.02969 z"
     style="fill:#000080;fill-opacity:1;stroke:#000080;stroke-width:0.05093499;stroke-opacity:1"
     inkscape:connector-curvature="0" />
  <ellipse
     style="fill:#ffff00;fill-opacity:1;stroke:#000000;stroke-width:0.02374823;stroke-opacity:0.36180905"
     id="ellipse5024"
     cx="6.93256"
     cy="5.201519"
     rx="1.1470019"
     ry="0.40805873" />
  <ellipse
     style="fill:#ff0000;fill-opacity:1;stroke:#000000;stroke-width:0.05093499;stroke-opacity:0.35175883"
     id="ellipse5026"
     cx="6.9238853"
     cy="5.1870499"
     rx="1.0206292"
     ry="0.3260611" />
  <path
     style="fill:#008000;fill-opacity:1;stroke:#000000;stroke-width:0.05093499;stroke-opacity:0.16582917"
     d="m 5.7778433,5.2333562 0.07332,0.111902 0.08489,0.0656 0.142772,0.0656 0.135055,0.04631 0.219946,0.04245 0.189077,0.03473 0.18136,0.01543 h 0.154348 0.185218 l 0.169783,-0.02315 0.173642,-0.02315 0.15049,-0.05016 0.165924,-0.05788 0.154349,-0.0656 0.104185,-0.100326 0.01929,-0.07717 -0.01543,0.293261 -0.02315,0.104185 -0.05016,0.111904 -0.06946,0.0656 -0.05016,0.05788 -0.111903,0.07717 -0.131197,0.06174 -0.111902,0.0463 -0.09794,0.03473 -0.08079,0.01831 -0.08146,0.02803 -0.0563,0.03083 -0.05529,0.03859 -0.450126,-0.0039 -0.03405,-0.0381 -0.05616,-0.03497 -0.06915,-0.02462 -0.06058,-0.02193 -0.104185,-0.02701 -0.05402,-0.03087 -0.142772,-0.06946 -0.08489,-0.06174 -0.123479,-0.08489 -0.05016,-0.07332 -0.05788,-0.06174 -0.02701,-0.0656 -0.02315,-0.09647 -0.01929,-0.111903 -0.01158,-0.07332 z"
     id="path5028"
     inkscape:connector-curvature="0" />
  <rect
     style="fill:#0088aa;fill-opacity:1;stroke:#000000;stroke-width:0.05093499;stroke-opacity:0.20100505"
     id="rect5030"
     width="0.44894582"
     height="0.14647143"
     x="6.6962166"
     y="6.1825981" />
  <path
     id="path5032"
     d="m 7.9211573,6.6441012 v 0.256307"
     style="fill:#008000;fill-opacity:1;stroke:#000080;stroke-width:0.05107667;stroke-opacity:0.26633169"
     inkscape:connector-curvature="0" />
  <path
     id="path5034"
     d="m 5.8418263,6.6262432 0.0038,0.258692"
     style="fill:#0085a6;fill-opacity:1;stroke:#000080;stroke-width:0.05093499;stroke-opacity:0.32160806"
     inkscape:connector-curvature="0" />
  <path
     style="fill:#0088aa;fill-opacity:1;stroke:#000000;stroke-width:0.05093499;stroke-opacity:0.18592966"
     d="m 7.9515913,6.6174182 a 1.0678688,0.31435098 0 0 1 -1.067868,0.31435 1.0678688,0.31435098 0 0 1 -1.067869,-0.31435 1.0678688,0.31435098 0 0 1 1.067869,-0.314352 1.0678688,0.31435098 0 0 1 1.067868,0.314352 z"
     id="path5036"
     inkscape:connector-curvature="0" />
  <path
     style="fill:#000080;fill-opacity:1;stroke:#000000;stroke-width:0.05093499;stroke-opacity:0.22110554"
     d="m 7.9555873,9.9977852 a 1.0678688,0.31435098 0 0 1 -1.067868,0.3143518 1.0678688,0.31435098 0 0 1 -1.067869,-0.3143518 1.0678688,0.31435098 0 0 1 1.067869,-0.31435 1.0678688,0.31435098 0 0 1 1.067868,0.31435 z"
     id="path5038"
     inkscape:connector-curvature="0" />
  <path
     style="fill:#0085a6;fill-opacity:1;stroke:#000080;stroke-width:0.05093499;stroke-opacity:1"
     d="m 7.8999643,9.8434772 v 0.05443 l -0.0365,-0.02785 z"
     id="path5040"
     inkscape:connector-curvature="0" />
  <path
     style="fill:#000080;fill-opacity:1;stroke:#000080;stroke-width:0.05093499;stroke-opacity:1"
     d="m 5.8720373,9.8416152 0.0015,0.05835 0.03839,-0.02969 z"
     id="path5042"
     inkscape:connector-curvature="0" />
  <ellipse
     ry="0.40805873"
     rx="1.1470019"
     cy="8.3270035"
     cx="6.9365578"
     id="ellipse5044"
     style="fill:#ffff00;fill-opacity:1;stroke:#000000;stroke-width:0.02374823;stroke-opacity:0.36180905" />
  <ellipse
     ry="0.3260611"
     rx="1.0206292"
     cy="8.3125305"
     cx="6.9278755"
     id="ellipse5046"
     style="fill:#ff0000;fill-opacity:1;stroke:#000000;stroke-width:0.05093499;stroke-opacity:0.35175883" />
  <path
     id="path5048"
     d="m 5.7818403,8.3588352 0.07332,0.111903 0.08489,0.0656 0.142772,0.0656 0.135055,0.0463 0.219947,0.04245 0.189077,0.03473 0.181359,0.01543 h 0.154348 0.185219 l 0.169783,-0.02315 0.173642,-0.02315 0.15049,-0.05016 0.165923,-0.05788 0.15435,-0.0656 0.104185,-0.100327 0.01929,-0.07717 -0.01544,0.293262 -0.02315,0.104185 -0.05016,0.111903 -0.06946,0.0656 -0.05016,0.05788 -0.111903,0.07717 -0.131196,0.06174 -0.111903,0.04631 -0.09794,0.03473 -0.08079,0.01831 -0.08146,0.02803 -0.0563,0.03083 -0.05529,0.03859 -0.450126,-0.0039 -0.03406,-0.0381 -0.05616,-0.03497 -0.06915,-0.02462 -0.06058,-0.02193 -0.104186,-0.02701 -0.05402,-0.03087 -0.142772,-0.06946 -0.08489,-0.06174 -0.123478,-0.08489 -0.05016,-0.07331 -0.05788,-0.06174 -0.02701,-0.0656 -0.02315,-0.09647 -0.01929,-0.111902 -0.01158,-0.07332 z"
     style="fill:#008000;fill-opacity:1;stroke:#000000;stroke-width:0.05093499;stroke-opacity:0.16582917"
     inkscape:connector-curvature="0" />
  <rect
     y="9.3080788"
     x="6.7002144"
     height="0.14647143"
     width="0.44894582"
     id="rect5050"
     style="fill:#0088aa;fill-opacity:1;stroke:#000000;stroke-width:0.05093499;stroke-opacity:0.20100505" />
  <path
     style="fill:#008000;fill-opacity:1;stroke:#000080;stroke-width:0.05107667;stroke-opacity:0.26633169"
     d="M 7.9251543,9.7695812 V 10.025888"
     id="path5052"
     inkscape:connector-curvature="0" />
  <path
     style="fill:#0085a6;fill-opacity:1;stroke:#000080;stroke-width:0.05093499;stroke-opacity:0.32160806"
     d="m 5.8458223,9.7517232 0.0038,0.2586918"
     id="path5054"
     inkscape:connector-curvature="0" />
  <path
     id="path5056"
     d="m 7.9555873,9.7428972 a 1.0678688,0.31435098 0 0 1 -1.067868,0.3143508 1.0678688,0.31435098 0 0 1 -1.067869,-0.3143508 1.0678688,0.31435098 0 0 1 1.067869,-0.314351 1.0678688,0.31435098 0 0 1 1.067868,0.314351 z"
     style="fill:#0088aa;fill-opacity:1;stroke:#000000;stroke-width:0.05093499;stroke-opacity:0.18592966"
     inkscape:connector-curvature="0" />
  <path
     style="fill:#000080;fill-opacity:1;stroke:#000000;stroke-width:0.05093499;stroke-opacity:0.22110554"
     d="m 7.9515913,13.084426 a 1.0678688,0.31435098 0 0 1 -1.067868,0.314352 1.0678688,0.31435098 0 0 1 -1.067869,-0.314352 1.0678688,0.31435098 0 0 1 1.067869,-0.314351 1.0678688,0.31435098 0 0 1 1.067868,0.314351 z"
     id="path5058"
     inkscape:connector-curvature="0" />
  <path
     style="fill:#0085a6;fill-opacity:1;stroke:#000080;stroke-width:0.05093499;stroke-opacity:1"
     d="m 7.8959683,12.930118 v 0.05443 l -0.0365,-0.02785 z"
     id="path5060"
     inkscape:connector-curvature="0" />
  <path
     style="fill:#000080;fill-opacity:1;stroke:#000080;stroke-width:0.05093499;stroke-opacity:1"
     d="m 5.8680413,12.928256 0.0015,0.05835 0.03839,-0.02969 z"
     id="path5062"
     inkscape:connector-curvature="0" />
  <ellipse
     ry="0.40805873"
     rx="1.1470019"
     cy="11.413643"
     cx="6.93256"
     id="ellipse5064"
     style="fill:#ffff00;fill-opacity:1;stroke:#000000;stroke-width:0.02374823;stroke-opacity:0.36180905" />
  <ellipse
     ry="0.3260611"
     rx="1.0206292"
     cy="11.399174"
     cx="6.9238853"
     id="ellipse5066"
     style="fill:#ff0000;fill-opacity:1;stroke:#000000;stroke-width:0.05093499;stroke-opacity:0.35175883" />
  <path
     id="path5068"
     d="m 5.7778433,11.445476 0.07332,0.111903 0.08489,0.0656 0.142772,0.0656 0.135055,0.0463 0.219946,0.04245 0.189077,0.03473 0.18136,0.01543 h 0.154348 0.185218 l 0.169783,-0.02315 0.173642,-0.02315 0.15049,-0.05016 0.165924,-0.05788 0.154349,-0.0656 0.104185,-0.100326 0.01929,-0.07717 -0.01543,0.293262 -0.02315,0.104185 -0.05016,0.111903 -0.06946,0.0656 -0.05016,0.05788 -0.111903,0.07717 -0.131197,0.06174 -0.111902,0.04631 -0.09794,0.03473 -0.08079,0.01831 -0.08146,0.02803 -0.0563,0.03083 -0.05529,0.03859 -0.450126,-0.0039 -0.03405,-0.0381 -0.05616,-0.03497 -0.06915,-0.02462 -0.06058,-0.02193 -0.104185,-0.02701 -0.05402,-0.03087 -0.142772,-0.06946 -0.08489,-0.06174 -0.123479,-0.08489 -0.05016,-0.07332 -0.05788,-0.06174 -0.02701,-0.0656 -0.02315,-0.09647 -0.01929,-0.111903 -0.01158,-0.07332 z"
     style="fill:#008000;fill-opacity:1;stroke:#000000;stroke-width:0.05093499;stroke-opacity:0.16582917"
     inkscape:connector-curvature="0" />
  <rect
     y="12.394722"
     x="6.6962166"
     height="0.14647143"
     width="0.44894582"
     id="rect5070"
     style="fill:#0088aa;fill-opacity:1;stroke:#000000;stroke-width:0.05093499;stroke-opacity:0.20100505" />
  <path
     style="fill:#008000;fill-opacity:1;stroke:#000080;stroke-width:0.05107667;stroke-opacity:0.26633169"
     d="m 7.9211573,12.856222 v 0.256307"
     id="path5072"
     inkscape:connector-curvature="0" />
  <path
     style="fill:#0085a6;fill-opacity:1;stroke:#000080;stroke-width:0.05093499;stroke-opacity:0.32160806"
     d="m 5.8418263,12.838364 0.0038,0.258692"
     id="path5074"
     inkscape:connector-curvature="0" />
  <path
     id="path5076"
     d="m 7.9515913,12.829539 a 1.0678688,0.31435098 0 0 1 -1.067868,0.31435 1.0678688,0.31435098 0 0 1 -1.067869,-0.31435 1.0678688,0.31435098 0 0 1 1.067869,-0.314352 1.0678688,0.31435098 0 0 1 1.067868,0.314352 z"
     style="fill:#0088aa;fill-opacity:1;stroke:#000000;stroke-width:0.05093499;stroke-opacity:0.18592966"
     inkscape:connector-curvature="0" />
</svg>
