<?xml version="1.0" encoding="UTF-8" standalone="no"?>
<svg
   xmlns:osb="http://www.openswatchbook.org/uri/2009/osb"
   xmlns:dc="http://purl.org/dc/elements/1.1/"
   xmlns:cc="http://creativecommons.org/ns#"
   xmlns:rdf="http://www.w3.org/1999/02/22-rdf-syntax-ns#"
   xmlns:svg="http://www.w3.org/2000/svg"
   xmlns="http://www.w3.org/2000/svg"
   xmlns:xlink="http://www.w3.org/1999/xlink"
   xmlns:sodipodi="http://sodipodi.sourceforge.net/DTD/sodipodi-0.dtd"
   xmlns:inkscape="http://www.inkscape.org/namespaces/inkscape"
   viewBox="0 0 160 250"
   height="250"
   width="160"
   id="svg815"
   version="1.1"
   sodipodi:docname="cups03.svg"
   inkscape:version="0.92.5 (2060ec1f9f, 2020-04-08)">
  <sodipodi:namedview
     pagecolor="#ffffff"
     bordercolor="#666666"
     borderopacity="1"
     objecttolerance="10"
     gridtolerance="10"
     guidetolerance="10"
     inkscape:pageopacity="0"
     inkscape:pageshadow="2"
     inkscape:window-width="1918"
     inkscape:window-height="1017"
     id="namedview7762"
     showgrid="false"
     inkscape:zoom="13.547368"
     inkscape:cx="42.234853"
     inkscape:cy="238.0303"
     inkscape:window-x="0"
     inkscape:window-y="0"
     inkscape:window-maximized="1"
     inkscape:current-layer="svg815"
     inkscape:snap-page="true" />
  <metadata
     id="metadata821">
    <rdf:RDF>
      <cc:Work
         rdf:about="">
        <dc:format>image/svg+xml</dc:format>
        <dc:type
           rdf:resource="http://purl.org/dc/dcmitype/StillImage" />
        <dc:title></dc:title>
      </cc:Work>
    </rdf:RDF>
  </metadata>
  <defs
     id="defs819">
    <linearGradient
       id="linearGradient3804"
       osb:paint="solid">
      <stop
         style="stop-color:#000000;stop-opacity:1;"
         offset="0"
         id="stop3802" />
    </linearGradient>
    <linearGradient
       gradientUnits="userSpaceOnUse"
       y2="71.008263"
       x2="88.849586"
       y1="58.644627"
       x1="82.105782"
       id="linearGradient1063"
       xlink:href="#linearGradient882"
       gradientTransform="matrix(0.0625,0,0,0.0625,89.999999,8.2080078e-7)" />
    <linearGradient
       id="linearGradient882">
      <stop
         style="stop-color:#d16208;stop-opacity:1"
         offset="0"
         id="stop878" />
      <stop
         style="stop-color:#d16250;stop-opacity:0;"
         offset="1"
         id="stop880" />
    </linearGradient>
    <linearGradient
       gradientUnits="userSpaceOnUse"
       y2="68.472336"
       x2="56.128345"
       y1="63.697319"
       x1="61.166279"
       id="linearGradient876"
       xlink:href="#linearGradient882"
       gradientTransform="matrix(0.0625,0,0,0.0625,89.999999,8.2080078e-7)" />
    <linearGradient
       xlink:href="#linearGradient846"
       id="linearGradient848"
       x1="72.37397"
       y1="53.171356"
       x2="72.19931"
       y2="45.564011"
       gradientUnits="userSpaceOnUse"
       gradientTransform="matrix(0.0625,0,0,0.0625,110,-2.6855469e-7)" />
    <linearGradient
       id="linearGradient846">
      <stop
         style="stop-color:#423abf;stop-opacity:1;"
         offset="0"
         id="stop842" />
      <stop
         style="stop-color:#423abf;stop-opacity:0;"
         offset="1"
         id="stop844" />
    </linearGradient>
  </defs>
  <flowRoot
     xml:space="preserve"
     id="flowRoot100"
     style="font-style:normal;font-variant:normal;font-weight:bold;font-stretch:normal;font-size:1px;line-height:1.25;font-family:'DejaVu Sans';-inkscape-font-specification:'DejaVu Sans Bold';letter-spacing:0px;word-spacing:0px;fill:#000000;fill-opacity:1;stroke:none;stroke-width:0.0625"><flowRegion
       style="stroke-width:0.0625"
       id="flowRegion102"><rect
         style="stroke-width:0.00390625"
         id="rect104"
         width="1.5151515"
         height="1.3636364"
         x="0.66287881"
         y="0.73863637" /></flowRegion><flowPara
       style="stroke-width:0.0625"
       id="flowPara106" /></flowRoot>  <rect
     style="fill:#ffffff;fill-opacity:1;stroke:#1a1a1a;stroke-width:0.0625;stroke-opacity:1"
     id="cups03"
     width="10"
     height="15.625"
     x="0"
     y="0" />
  <rect
     style="fill:none;fill-opacity:1;stroke:#1a1a1a;stroke-width:0.0625;stroke-opacity:1"
     id="rect108-0"
     width="7.2537889"
     height="12.973484"
     x="1.344696"
     y="1.3068199" />
  <g
     id="flowRoot915-6"
     style="font-style:normal;font-variant:normal;font-weight:bold;font-stretch:normal;font-size:16px;line-height:1.25;font-family:'DejaVu Sans';-inkscape-font-specification:'DejaVu Sans Bold';text-align:start;letter-spacing:0px;word-spacing:0px;text-anchor:start;fill:#000000;fill-opacity:1;stroke:none"
     transform="matrix(0.0625,0,0,0.0625,0.189395,8.3935547e-7)"
     aria-label="3">
    <path
       id="path4705"
       d="m 10.484375,12.412109 q 1.179688,0.304688 1.789063,1.0625 0.617187,0.75 0.617187,1.914063 0,1.734375 -1.328125,2.640625 -1.328125,0.898437 -3.875,0.898437 -0.8984375,0 -1.8046875,-0.148437 -0.8984375,-0.140625 -1.78125,-0.429688 v -2.320312 q 0.84375,0.421875 1.671875,0.640625 0.8359375,0.210937 1.640625,0.210937 1.1953125,0 1.828125,-0.414062 0.640625,-0.414063 0.640625,-1.1875 0,-0.796875 -0.65625,-1.203125 -0.6484375,-0.414063 -1.921875,-0.414063 h -1.203125 v -1.9375 h 1.265625 q 1.1328125,0 1.6875,-0.351562 0.5546875,-0.359375 0.5546875,-1.085938 0,-0.6718746 -0.5390625,-1.0390621 Q 8.53125,8.8808594 7.546875,8.8808594 q -0.7265625,0 -1.46875,0.1640625 -0.7421875,0.1640625 -1.4765625,0.484375 v -2.203125 q 0.890625,-0.25 1.765625,-0.375 0.875,-0.125 1.71875,-0.125 2.2734375,0 3.3984375,0.75 1.132813,0.7421875 1.132813,2.2421875 0,1.0234376 -0.539063,1.6796876 -0.539062,0.648437 -1.59375,0.914062 z"
       inkscape:connector-curvature="0" />
  </g>
  <path
     id="path1422-87"
     d="M 6.205398,4.5292008 A 1.3457631,0.39615535 0 0 1 4.859635,4.9253568 1.3457631,0.39615535 0 0 1 3.513872,4.5292008 1.3457631,0.39615535 0 0 1 4.859635,4.1330458 1.3457631,0.39615535 0 0 1 6.205398,4.5292008 Z"
     style="fill:#000080;fill-opacity:1;stroke:#000000;stroke-width:0.06418993;stroke-opacity:0.22110554"
     inkscape:connector-curvature="0" />
  <path
     id="path1430-9"
     d="m 6.1353,4.3347358 v 0.06859 l -0.04599,-0.0351 z"
     style="fill:#0085a6;fill-opacity:1;stroke:#000080;stroke-width:0.06418993;stroke-opacity:1"
     inkscape:connector-curvature="0" />
  <path
     id="path1428-0"
     d="m 3.57964,4.3323898 0.0019,0.07354 0.04838,-0.03741 z"
     style="fill:#000080;fill-opacity:1;stroke:#000080;stroke-width:0.06418993;stroke-opacity:1"
     inkscape:connector-curvature="0" />
  <ellipse
     style="fill:#ffff00;fill-opacity:1;stroke:#000000;stroke-width:0.0299283;stroke-opacity:0.36180905"
     id="path74-33"
     cx="4.9211807"
     cy="2.423624"
     rx="1.4454892"
     ry="0.51424891" />
  <ellipse
     style="fill:#ff0000;fill-opacity:1;stroke:#000000;stroke-width:0.06418993;stroke-opacity:0.35175883"
     id="path76-3"
     cx="4.9102478"
     cy="2.4053879"
     rx="1.2862301"
     ry="0.41091281" />
  <path
     style="fill:#008000;fill-opacity:1;stroke:#000000;stroke-width:0.06418993;stroke-opacity:0.16582917"
     d="m 3.46597,2.4637428 0.09239,0.141023 0.106983,0.08267 0.179926,0.08267 0.170201,0.05836 0.277183,0.05349 0.238282,0.04377 0.228554,0.01945 h 0.194515 0.233418 l 0.213967,-0.02918 0.218829,-0.02918 0.189652,-0.06322 0.209103,-0.07294 0.194516,-0.08267 0.131297,-0.126435 0.02432,-0.09726 -0.01945,0.369578 -0.02918,0.131298 -0.06322,0.141023 -0.08753,0.08267 -0.06322,0.07294 -0.141023,0.09726 -0.165339,0.07781 -0.141023,0.05835 -0.123426,0.04377 -0.101811,0.02308 -0.102663,0.03532 -0.07095,0.03886 -0.06968,0.04863 -0.567263,-0.0049 -0.04292,-0.04801 -0.07078,-0.04407 -0.08714,-0.03103 -0.07634,-0.02763 -0.131298,-0.03404 -0.06808,-0.0389 -0.179926,-0.08753 -0.106983,-0.07781 -0.155612,-0.106983 -0.06322,-0.09239 -0.07294,-0.07781 -0.03404,-0.08267 -0.02918,-0.121572 -0.02431,-0.141024 -0.01459,-0.09239 z"
     id="path80-7"
     inkscape:connector-curvature="0" />
  <rect
     style="fill:#0088aa;fill-opacity:1;stroke:#000000;stroke-width:0.06418993;stroke-opacity:0.20100505"
     id="rect87-3"
     width="0.56577617"
     height="0.18458806"
     x="4.6233292"
     y="3.6600094" />
  <path
     id="path1424-2"
     d="m 6.167044,4.2416098 v 0.323007"
     style="fill:#008000;fill-opacity:1;stroke:#000080;stroke-width:0.06436849;stroke-opacity:0.26633169"
     inkscape:connector-curvature="0" />
  <path
     id="path1426-65"
     d="m 3.546603,4.2191048 0.0048,0.326013"
     style="fill:#0085a6;fill-opacity:1;stroke:#000080;stroke-width:0.06418993;stroke-opacity:0.32160806"
     inkscape:connector-curvature="0" />
  <path
     style="fill:#0088aa;fill-opacity:1;stroke:#000000;stroke-width:0.06418993;stroke-opacity:0.18592966"
     d="M 6.205398,4.2079828 A 1.3457631,0.39615535 0 0 1 4.859635,4.6041378 1.3457631,0.39615535 0 0 1 3.513872,4.2079828 1.3457631,0.39615535 0 0 1 4.859635,3.8118268 1.3457631,0.39615535 0 0 1 6.205398,4.2079828 Z"
     id="path84-2"
     inkscape:connector-curvature="0" />
  <path
     style="fill:#000080;fill-opacity:1;stroke:#000000;stroke-width:0.06418993;stroke-opacity:0.22110554"
     d="M 6.205398,8.4806608 A 1.3457631,0.39615535 0 0 1 4.859635,8.8768158 1.3457631,0.39615535 0 0 1 3.513872,8.4806608 1.3457631,0.39615535 0 0 1 4.859635,8.0845048 1.3457631,0.39615535 0 0 1 6.205398,8.4806608 Z"
     id="path3937"
     inkscape:connector-curvature="0" />
  <path
     style="fill:#0085a6;fill-opacity:1;stroke:#000080;stroke-width:0.06418993;stroke-opacity:1"
     d="m 6.1353,8.2861948 v 0.06859 l -0.04599,-0.0351 z"
     id="path3939"
     inkscape:connector-curvature="0" />
  <path
     style="fill:#000080;fill-opacity:1;stroke:#000080;stroke-width:0.06418993;stroke-opacity:1"
     d="m 3.57964,8.2838488 0.0019,0.07354 0.04838,-0.03741 z"
     id="path3941"
     inkscape:connector-curvature="0" />
  <ellipse
     ry="0.51424891"
     rx="1.4454892"
     cy="6.3750839"
     cx="4.9211807"
     id="ellipse3943"
     style="fill:#ffff00;fill-opacity:1;stroke:#000000;stroke-width:0.0299283;stroke-opacity:0.36180905" />
  <ellipse
     ry="0.41091281"
     rx="1.2862301"
     cy="6.3568478"
     cx="4.9102478"
     id="ellipse3945"
     style="fill:#ff0000;fill-opacity:1;stroke:#000000;stroke-width:0.06418993;stroke-opacity:0.35175883" />
  <path
     id="path3947"
     d="m 3.46597,6.4152028 0.09239,0.141023 0.106983,0.08267 0.179926,0.08267 0.170201,0.05836 0.277183,0.05349 0.238282,0.04377 0.228554,0.01945 h 0.194515 0.233418 l 0.213967,-0.02918 0.218829,-0.02918 0.189652,-0.06322 0.209103,-0.07294 0.194516,-0.08267 0.131297,-0.126435 0.02432,-0.09726 -0.01945,0.369578 -0.02918,0.131298 -0.06322,0.141023 -0.08753,0.08267 -0.06322,0.07294 -0.141023,0.09726 -0.165339,0.07781 -0.141023,0.05835 -0.123426,0.04377 -0.101811,0.02308 -0.102663,0.03532 -0.07095,0.03886 -0.06968,0.04863 -0.567263,-0.0049 -0.04292,-0.04801 -0.07078,-0.04407 -0.08714,-0.03103 -0.07634,-0.02763 -0.131298,-0.03404 -0.06808,-0.0389 -0.179926,-0.08753 -0.106983,-0.07781 -0.155612,-0.106983 -0.06322,-0.09239 -0.07294,-0.07781 -0.03404,-0.08267 -0.02918,-0.121572 -0.02431,-0.141023 -0.01459,-0.09239 z"
     style="fill:#008000;fill-opacity:1;stroke:#000000;stroke-width:0.06418993;stroke-opacity:0.16582917"
     inkscape:connector-curvature="0" />
  <rect
     y="7.6114693"
     x="4.6233292"
     height="0.18458806"
     width="0.56577617"
     id="rect3949"
     style="fill:#0088aa;fill-opacity:1;stroke:#000000;stroke-width:0.06418993;stroke-opacity:0.20100505" />
  <path
     style="fill:#008000;fill-opacity:1;stroke:#000080;stroke-width:0.06436849;stroke-opacity:0.26633169"
     d="m 6.167044,8.1930688 v 0.323008"
     id="path3951"
     inkscape:connector-curvature="0" />
  <path
     style="fill:#0085a6;fill-opacity:1;stroke:#000080;stroke-width:0.06418993;stroke-opacity:0.32160806"
     d="m 3.546603,8.1705638 0.0048,0.326013"
     id="path3953"
     inkscape:connector-curvature="0" />
  <path
     id="path3955"
     d="M 6.205398,8.1594418 A 1.3457631,0.39615535 0 0 1 4.859635,8.5555978 1.3457631,0.39615535 0 0 1 3.513872,8.1594418 1.3457631,0.39615535 0 0 1 4.859635,7.7632858 1.3457631,0.39615535 0 0 1 6.205398,8.1594418 Z"
     style="fill:#0088aa;fill-opacity:1;stroke:#000000;stroke-width:0.06418993;stroke-opacity:0.18592966"
     inkscape:connector-curvature="0" />
  <path
     id="path3957"
     d="M 6.205398,12.672818 A 1.3457631,0.39615535 0 0 1 4.859635,13.068973 1.3457631,0.39615535 0 0 1 3.513872,12.672818 1.3457631,0.39615535 0 0 1 4.859635,12.276663 1.3457631,0.39615535 0 0 1 6.205398,12.672818 Z"
     style="fill:#000080;fill-opacity:1;stroke:#000000;stroke-width:0.06418993;stroke-opacity:0.22110554"
     inkscape:connector-curvature="0" />
  <path
     id="path3959"
     d="m 6.1353,12.478353 v 0.06859 l -0.04599,-0.0351 z"
     style="fill:#0085a6;fill-opacity:1;stroke:#000080;stroke-width:0.06418993;stroke-opacity:1"
     inkscape:connector-curvature="0" />
  <path
     id="path3961"
     d="m 3.57964,12.476007 0.0019,0.07354 0.04838,-0.03741 z"
     style="fill:#000080;fill-opacity:1;stroke:#000080;stroke-width:0.06418993;stroke-opacity:1"
     inkscape:connector-curvature="0" />
  <ellipse
     style="fill:#ffff00;fill-opacity:1;stroke:#000000;stroke-width:0.0299283;stroke-opacity:0.36180905"
     id="ellipse3963"
     cx="4.9211807"
     cy="10.56724"
     rx="1.4454892"
     ry="0.51424891" />
  <ellipse
     style="fill:#ff0000;fill-opacity:1;stroke:#000000;stroke-width:0.06418993;stroke-opacity:0.35175883"
     id="ellipse3965"
     cx="4.9102478"
     cy="10.549004"
     rx="1.2862301"
     ry="0.41091281" />
  <path
     style="fill:#008000;fill-opacity:1;stroke:#000000;stroke-width:0.06418993;stroke-opacity:0.16582917"
     d="m 3.46597,10.60736 0.09239,0.141023 0.106983,0.08267 0.179926,0.08267 0.170201,0.05835 0.277183,0.05349 0.238282,0.04377 0.228554,0.01945 h 0.194515 0.233418 l 0.213967,-0.02918 0.218829,-0.02918 0.189652,-0.06322 0.209103,-0.07294 0.194516,-0.08267 0.131297,-0.126434 0.02432,-0.09726 -0.01945,0.369578 -0.02918,0.131298 -0.06322,0.141024 -0.08753,0.08267 -0.06322,0.07294 -0.141023,0.09726 -0.165339,0.07781 -0.141023,0.05835 -0.123426,0.04377 -0.101811,0.02308 -0.102663,0.03532 -0.07095,0.03886 -0.06968,0.04863 -0.567263,-0.0049 -0.04292,-0.04801 -0.07078,-0.04407 -0.08714,-0.03103 -0.07634,-0.02763 -0.131298,-0.03404 -0.06808,-0.0389 -0.179926,-0.08753 -0.106983,-0.07781 -0.155612,-0.106983 -0.06322,-0.09239 -0.07294,-0.07781 -0.03404,-0.08267 -0.02918,-0.121571 -0.02431,-0.141024 -0.01459,-0.09239 z"
     id="path3967"
     inkscape:connector-curvature="0" />
  <rect
     style="fill:#0088aa;fill-opacity:1;stroke:#000000;stroke-width:0.06418993;stroke-opacity:0.20100505"
     id="rect3969"
     width="0.56577617"
     height="0.18458806"
     x="4.6233292"
     y="11.803625" />
  <path
     id="path3971"
     d="m 6.167044,12.385227 v 0.323008"
     style="fill:#008000;fill-opacity:1;stroke:#000080;stroke-width:0.06436849;stroke-opacity:0.26633169"
     inkscape:connector-curvature="0" />
  <path
     id="path3973"
     d="m 3.546603,12.362721 0.0048,0.326014"
     style="fill:#0085a6;fill-opacity:1;stroke:#000080;stroke-width:0.06418993;stroke-opacity:0.32160806"
     inkscape:connector-curvature="0" />
  <path
     style="fill:#0088aa;fill-opacity:1;stroke:#000000;stroke-width:0.06418993;stroke-opacity:0.18592966"
     d="M 6.205398,12.351599 A 1.3457631,0.39615535 0 0 1 4.859635,12.747755 1.3457631,0.39615535 0 0 1 3.513872,12.351599 1.3457631,0.39615535 0 0 1 4.859635,11.955444 1.3457631,0.39615535 0 0 1 6.205398,12.351599 Z"
     id="path3975"
     inkscape:connector-curvature="0" />
</svg>
