<?xml version="1.0" encoding="UTF-8" standalone="no"?>
<svg
   xmlns:dc="http://purl.org/dc/elements/1.1/"
   xmlns:cc="http://creativecommons.org/ns#"
   xmlns:rdf="http://www.w3.org/1999/02/22-rdf-syntax-ns#"
   xmlns:svg="http://www.w3.org/2000/svg"
   xmlns="http://www.w3.org/2000/svg"
   xmlns:xlink="http://www.w3.org/1999/xlink"
   xmlns:sodipodi="http://sodipodi.sourceforge.net/DTD/sodipodi-0.dtd"
   xmlns:inkscape="http://www.inkscape.org/namespaces/inkscape"
   version="1.1"
   id="svg815"
   width="160"
   height="250"
   viewBox="0 0 160 250"
   sodipodi:docname="golds03.svg"
   inkscape:version="0.92.5 (2060ec1f9f, 2020-04-08)">
  <sodipodi:namedview
     pagecolor="#ffffff"
     bordercolor="#666666"
     borderopacity="1"
     objecttolerance="10"
     gridtolerance="10"
     guidetolerance="10"
     inkscape:pageopacity="0"
     inkscape:pageshadow="2"
     inkscape:window-width="1918"
     inkscape:window-height="1017"
     id="namedview10447"
     showgrid="false"
     inkscape:zoom="12.696861"
     inkscape:cx="58.787879"
     inkscape:cy="241.51515"
     inkscape:window-x="0"
     inkscape:window-y="0"
     inkscape:window-maximized="1"
     inkscape:current-layer="svg815"
     inkscape:snap-page="true" />
  <metadata
     id="metadata821">
    <rdf:RDF>
      <cc:Work
         rdf:about="">
        <dc:format>image/svg+xml</dc:format>
        <dc:type
           rdf:resource="http://purl.org/dc/dcmitype/StillImage" />
        <dc:title></dc:title>
      </cc:Work>
    </rdf:RDF>
  </metadata>
  <defs
     id="defs819">
    <linearGradient
       gradientUnits="userSpaceOnUse"
       y2="71.008263"
       x2="88.849586"
       y1="58.644627"
       x1="82.105782"
       id="linearGradient1063"
       xlink:href="#linearGradient882"
       gradientTransform="matrix(0.0625,0,0,0.0625,90.000002,-2.4462891e-7)" />
    <linearGradient
       id="linearGradient882">
      <stop
         style="stop-color:#d16208;stop-opacity:1"
         offset="0"
         id="stop878" />
      <stop
         style="stop-color:#d16250;stop-opacity:0;"
         offset="1"
         id="stop880" />
    </linearGradient>
    <linearGradient
       gradientUnits="userSpaceOnUse"
       y2="68.472336"
       x2="56.128345"
       y1="63.697319"
       x1="61.166279"
       id="linearGradient876"
       xlink:href="#linearGradient882"
       gradientTransform="matrix(0.0625,0,0,0.0625,90.000002,-2.4462891e-7)" />
    <linearGradient
       xlink:href="#linearGradient846"
       id="linearGradient848"
       x1="72.37397"
       y1="53.171356"
       x2="72.19931"
       y2="45.564011"
       gradientUnits="userSpaceOnUse"
       gradientTransform="matrix(0.0625,0,0,0.0625,110,-4.9804688e-7)" />
    <linearGradient
       id="linearGradient846">
      <stop
         style="stop-color:#423abf;stop-opacity:1;"
         offset="0"
         id="stop842" />
      <stop
         style="stop-color:#423abf;stop-opacity:0;"
         offset="1"
         id="stop844" />
    </linearGradient>
  </defs>
  <flowRoot
     style="font-style:normal;font-variant:normal;font-weight:bold;font-stretch:normal;font-size:1px;line-height:1.25;font-family:'DejaVu Sans';-inkscape-font-specification:'DejaVu Sans Bold';letter-spacing:0px;word-spacing:0px;fill:#000000;fill-opacity:1;stroke:none;stroke-width:0.0625"
     id="flowRoot100"
     xml:space="preserve"><flowRegion
       style="stroke-width:0.0625"
       id="flowRegion102"><rect
         style="stroke-width:0.00390625"
         y="0.73863637"
         x="0.66287881"
         height="1.3636364"
         width="1.5151515"
         id="rect104" /></flowRegion><flowPara
       style="stroke-width:0.0625"
       id="flowPara106" /></flowRoot>  <rect
     style="fill:#ffffff;fill-opacity:1;stroke:#1a1a1a;stroke-width:0.0625;stroke-opacity:1"
     id="golds03"
     width="10"
     height="15.625"
     x="0"
     y="0" />
  <rect
     style="fill:none;fill-opacity:1;stroke:#1a1a1a;stroke-width:0.0625;stroke-opacity:1"
     id="rect108-3"
     width="7.2537889"
     height="12.973484"
     x="1.344696"
     y="1.306818" />
  <g
     id="flowRoot915-5"
     style="font-style:normal;font-variant:normal;font-weight:bold;font-stretch:normal;font-size:16px;line-height:1.25;font-family:'DejaVu Sans';-inkscape-font-specification:'DejaVu Sans Bold';text-align:start;letter-spacing:0px;word-spacing:0px;text-anchor:start;fill:#000000;fill-opacity:1;stroke:none"
     transform="matrix(0.0625,0,0,0.0625,0.18939194,-1.9609374e-7)"
     aria-label="3">
    <path
       id="path444"
       d="m 10.484375,12.412109 q 1.179688,0.304688 1.789063,1.0625 0.617187,0.75 0.617187,1.914063 0,1.734375 -1.328125,2.640625 -1.328125,0.898437 -3.875,0.898437 -0.8984375,0 -1.8046875,-0.148437 -0.8984375,-0.140625 -1.78125,-0.429688 v -2.320312 q 0.84375,0.421875 1.671875,0.640625 0.8359375,0.210937 1.640625,0.210937 1.1953125,0 1.828125,-0.414062 0.640625,-0.414063 0.640625,-1.1875 0,-0.796875 -0.65625,-1.203125 -0.6484375,-0.414063 -1.921875,-0.414063 h -1.203125 v -1.9375 h 1.265625 q 1.1328125,0 1.6875,-0.351562 0.5546875,-0.359375 0.5546875,-1.085938 0,-0.6718746 -0.5390625,-1.0390621 Q 8.53125,8.8808594 7.546875,8.8808594 q -0.7265625,0 -1.46875,0.1640625 -0.7421875,0.1640625 -1.4765625,0.484375 v -2.203125 q 0.890625,-0.25 1.765625,-0.375 0.875,-0.125 1.71875,-0.125 2.2734375,0 3.3984375,0.75 1.132813,0.7421875 1.132813,2.2421875 0,1.0234376 -0.539063,1.6796876 -0.539062,0.648437 -1.59375,0.914062 z"
       inkscape:connector-curvature="0" />
  </g>
  <ellipse
     style="fill:#ffcc00;fill-opacity:1;stroke:#000000;stroke-width:0.07212232;stroke-opacity:0.02617804"
     id="path983-3-6"
     cx="4.9155922"
     cy="11.823238"
     rx="1.7538241"
     ry="1.6193546" />
  <ellipse
     style="fill:#ffdd55;fill-opacity:1;stroke:#000000;stroke-width:0.07212232;stroke-opacity:0.02617804"
     id="path985-6-2"
     cx="4.4377975"
     cy="10.956341"
     rx="0.43487972"
     ry="0.44918501" />
  <ellipse
     ry="0.44918501"
     rx="0.43487972"
     cy="11.007839"
     cx="5.4849434"
     id="ellipse989-7-9"
     style="fill:#ffdd55;fill-opacity:1;stroke:#000000;stroke-width:0.07212232;stroke-opacity:0.02617804" />
  <ellipse
     style="fill:#ffdd55;fill-opacity:1;stroke:#000000;stroke-width:0.07212232;stroke-opacity:0.02617804"
     id="ellipse991-5-1"
     cx="6.0514297"
     cy="11.894764"
     rx="0.43487972"
     ry="0.44918501" />
  <ellipse
     ry="0.44918501"
     rx="0.43487972"
     cy="12.741634"
     cx="5.3819427"
     id="ellipse993-3-2"
     style="fill:#ffdd55;fill-opacity:1;stroke:#000000;stroke-width:0.07212232;stroke-opacity:0.02617804" />
  <ellipse
     style="fill:#ffdd55;fill-opacity:1;stroke:#000000;stroke-width:0.07212232;stroke-opacity:0.02617804"
     id="ellipse995-5-7"
     cx="4.3519669"
     cy="12.724468"
     rx="0.43487972"
     ry="0.44918501" />
  <ellipse
     ry="0.44918501"
     rx="0.43487972"
     cy="11.889042"
     cx="3.7625885"
     id="ellipse997-6-0"
     style="fill:#ffdd55;fill-opacity:1;stroke:#000000;stroke-width:0.07212232;stroke-opacity:0.02617804" />
  <path
     style="fill:#aad400;fill-opacity:1;stroke:#000000;stroke-width:0.06243473;stroke-opacity:0.02617804"
     id="path999-2-9"
     d="m 5.5793269,12.224602 -0.469692,-0.06358 -0.21123,0.372349 -0.171885,-0.387519 -0.47434,0.0262 0.297806,-0.323939 -0.263111,-0.346151 0.469692,0.06358 0.211228,-0.372347 0.171887,0.387518 0.474339,-0.0262 -0.297807,0.323939 z"
     inkscape:connector-curvature="0" />
  <path
     style="fill:#aa8800;fill-opacity:1;stroke:#c87137;stroke-width:0.00655658;stroke-opacity:0.02617804"
     d="m 4.7557899,13.43344 c -0.305391,-0.02484 -0.605389,-0.128617 -0.858911,-0.297106 -0.109847,-0.073 -0.179086,-0.129348 -0.265765,-0.216281 -0.398321,-0.399482 -0.552554,-0.940369 -0.419338,-1.470603 0.0247,-0.09831 0.05985,-0.19146 0.111834,-0.296358 0.08465,-0.170806 0.185459,-0.308088 0.326018,-0.443953 0.272417,-0.263322 0.606548,-0.42463 1.004535,-0.48496 0.09265,-0.01404 0.33003,-0.01931 0.433692,-0.0096 0.316771,0.02962 0.609976,0.133842 0.86451,0.307306 0.3690326,0.251493 0.6088596,0.609988 0.6895186,1.030701 0.02306,0.120257 0.02875,0.329543 0.01246,0.457579 -0.03559,0.279603 -0.154593,0.556208 -0.335019,0.778687 -0.3659726,0.451274 -0.9549896,0.69411 -1.5635316,0.644602 z m 0.75948,-0.263592 c 0.06788,-0.02335 0.114816,-0.05298 0.168056,-0.106086 0.140643,-0.140278 0.173464,-0.345165 0.08445,-0.527213 -0.05543,-0.113373 -0.168045,-0.205461 -0.284957,-0.23302 -0.04774,-0.01125 -0.145696,-0.0129 -0.189392,-0.0032 -0.209769,0.04665 -0.359081,0.248937 -0.345622,0.46824 0.0061,0.09934 0.04297,0.192187 0.107702,0.271181 0.05216,0.06365 0.150125,0.12357 0.232837,0.142403 0.0622,0.01416 0.166385,0.0085 0.226923,-0.01232 z m -1.062316,-0.0078 c 0.121143,-0.02856 0.229794,-0.117968 0.286694,-0.23592 0.04609,-0.09554 0.05876,-0.186963 0.03968,-0.286275 -0.04704,-0.24489 -0.273979,-0.403933 -0.508974,-0.356707 -0.214836,0.04318 -0.363797,0.24001 -0.352171,0.465351 0.0063,0.122424 0.04625,0.210535 0.135499,0.298961 0.06067,0.06011 0.111205,0.09057 0.185544,0.111822 0.05192,0.01484 0.156743,0.0162 0.213726,0.0028 z m 0.548708,-0.807345 c 0.05409,-0.09595 0.101299,-0.178388 0.104905,-0.183196 0.0054,-0.0072 0.04768,-0.0032 0.237918,0.0226 0.171282,0.02321 0.23052,0.02915 0.228123,0.02291 -0.0018,-0.0046 -0.05969,-0.08249 -0.1287,-0.173005 -0.123933,-0.162559 -0.125317,-0.164732 -0.113384,-0.178113 0.0066,-0.0075 0.07315,-0.08017 0.147793,-0.161611 0.07464,-0.08144 0.134899,-0.14888 0.133904,-0.149875 -9.98e-4,-10e-4 -0.107377,0.0042 -0.236403,0.01166 -0.129027,0.0074 -0.235273,0.01255 -0.236105,0.01143 -8.32e-4,-0.0011 -0.03951,-0.08819 -0.08594,-0.193495 -0.04644,-0.105305 -0.086,-0.189897 -0.08791,-0.187984 -0.0019,0.0019 -0.04973,0.08512 -0.10626,0.184892 l -0.102781,0.181411 -0.02182,-0.0022 c -0.012,-0.0012 -0.11616,-0.01508 -0.23146,-0.03075 -0.1153,-0.01568 -0.210887,-0.02725 -0.212416,-0.02572 -0.0024,0.0024 0.06359,0.09111 0.217947,0.293035 l 0.03875,0.05069 -0.04933,0.05421 c -0.02713,0.02982 -0.09387,0.102709 -0.148317,0.161978 -0.05444,0.05927 -0.09831,0.108391 -0.09748,0.109159 8.29e-4,7.62e-4 0.09593,-0.0041 0.211325,-0.01079 0.115396,-0.0067 0.221653,-0.01231 0.236127,-0.01245 l 0.02632,-3.12e-4 0.08415,0.19014 c 0.04629,0.104578 0.08608,0.190074 0.08842,0.189992 0.0024,-1.25e-4 0.04853,-0.07865 0.102618,-0.174602 z m 1.180132,-0.03156 c 0.1507476,-0.0506 0.2587296,-0.171448 0.2943016,-0.329349 0.05804,-0.25765 -0.121237,-0.518083 -0.3753276,-0.545233 -0.184605,-0.01972 -0.3556,0.07599 -0.437047,0.244635 -0.07756,0.16059 -0.06031,0.339318 0.04645,0.481335 0.05623,0.0748 0.158442,0.140213 0.252505,0.16159 0.06292,0.0143 0.153917,0.0089 0.219122,-0.01298 z m -2.328827,0.0057 c 0.191542,-0.04251 0.331214,-0.21023 0.343637,-0.412658 0.01321,-0.215188 -0.132028,-0.417616 -0.333742,-0.465171 -0.05303,-0.0125 -0.147758,-0.0125 -0.200785,0 -0.120917,0.02851 -0.228818,0.117201 -0.286705,0.235672 -0.06867,0.140549 -0.06318,0.302162 0.01484,0.43616 0.03009,0.05169 0.103997,0.126855 0.153273,0.155897 0.09398,0.05539 0.204798,0.07333 0.309478,0.0501 z m 1.687093,-0.875146 c 0.175447,-0.0244 0.32244,-0.15793 0.367534,-0.333865 0.01471,-0.05741 0.01478,-0.16698 1.12e-4,-0.222923 -0.03308,-0.126363 -0.12466,-0.241317 -0.234015,-0.293758 -0.108667,-0.05211 -0.216263,-0.05931 -0.325323,-0.02177 -0.179312,0.06172 -0.297552,0.231399 -0.297552,0.426989 0,0.243784 0.182121,0.437725 0.424065,0.451586 0.0079,4.37e-4 0.03717,-0.0024 0.06516,-0.0063 z m -1.022708,-0.05517 c 0.154619,-0.02958 0.281283,-0.143851 0.333626,-0.300973 0.07873,-0.236325 -0.05176,-0.494989 -0.288607,-0.572113 -0.07494,-0.0244 -0.1741,-0.02441 -0.249288,-2.1e-5 -0.305561,0.09911 -0.410286,0.478011 -0.201641,0.729547 0.05401,0.06511 0.154407,0.124519 0.241119,0.142678 0.0602,0.01261 0.102342,0.01283 0.164791,8.87e-4 z"
     id="path841-9-3"
     inkscape:connector-curvature="0" />
  <path
     style="fill:#008000;fill-opacity:1;stroke:#c87137;stroke-width:0.01337541;stroke-opacity:0.02617804"
     d="m 4.8124199,12.329669 -0.08435,-0.188293 -0.161568,0.0081 c -0.08886,0.0045 -0.194672,0.01148 -0.235132,0.01558 l -0.07357,0.0075 0.04099,-0.04464 c 0.192672,-0.209817 0.24658,-0.271404 0.24658,-0.281706 0,-0.0066 -0.05414,-0.0823 -0.120322,-0.168313 -0.09841,-0.127909 -0.115743,-0.15713 -0.09518,-0.160459 0.01383,-0.0022 0.114622,0.0083 0.223982,0.02353 0.232605,0.03229 0.192805,0.05419 0.320953,-0.176621 0.04799,-0.08644 0.08899,-0.15716 0.0911,-0.15716 0.0021,0 0.04182,0.08477 0.08823,0.188382 l 0.08439,0.188382 0.188278,-0.0083 c 0.103553,-0.0046 0.209345,-0.01165 0.235093,-0.01568 l 0.04681,-0.0073 -0.02825,0.03128 c -0.01554,0.0172 -0.08024,0.08845 -0.143787,0.158331 -0.06355,0.06988 -0.115536,0.13182 -0.115536,0.137644 0,0.0058 0.05436,0.08257 0.12079,0.170547 0.107817,0.142779 0.117405,0.15996 0.08927,0.15996 -0.02691,0 -0.195137,-0.02096 -0.373086,-0.04648 l -0.04934,-0.0071 -0.102676,0.180593 c -0.05647,0.09933 -0.104176,0.180596 -0.106009,0.180596 -0.0018,0 -0.04129,-0.08473 -0.08768,-0.188294 z"
     id="path843-1-6"
     inkscape:connector-curvature="0" />
  <ellipse
     ry="1.6193546"
     rx="1.7538241"
     cy="7.7323303"
     cx="4.9155922"
     id="ellipse904"
     style="fill:#ffcc00;fill-opacity:1;stroke:#000000;stroke-width:0.07212232;stroke-opacity:0.02617804" />
  <ellipse
     ry="0.44918501"
     rx="0.43487972"
     cy="6.8654318"
     cx="4.4377975"
     id="ellipse906"
     style="fill:#ffdd55;fill-opacity:1;stroke:#000000;stroke-width:0.07212232;stroke-opacity:0.02617804" />
  <ellipse
     style="fill:#ffdd55;fill-opacity:1;stroke:#000000;stroke-width:0.07212232;stroke-opacity:0.02617804"
     id="ellipse908"
     cx="5.4849434"
     cy="6.9169312"
     rx="0.43487972"
     ry="0.44918501" />
  <ellipse
     ry="0.44918501"
     rx="0.43487972"
     cy="7.8038559"
     cx="6.0514297"
     id="ellipse910"
     style="fill:#ffdd55;fill-opacity:1;stroke:#000000;stroke-width:0.07212232;stroke-opacity:0.02617804" />
  <ellipse
     style="fill:#ffdd55;fill-opacity:1;stroke:#000000;stroke-width:0.07212232;stroke-opacity:0.02617804"
     id="ellipse912"
     cx="5.3819427"
     cy="8.6507263"
     rx="0.43487972"
     ry="0.44918501" />
  <ellipse
     ry="0.44918501"
     rx="0.43487972"
     cy="8.6335602"
     cx="4.3519669"
     id="ellipse914"
     style="fill:#ffdd55;fill-opacity:1;stroke:#000000;stroke-width:0.07212232;stroke-opacity:0.02617804" />
  <ellipse
     style="fill:#ffdd55;fill-opacity:1;stroke:#000000;stroke-width:0.07212232;stroke-opacity:0.02617804"
     id="ellipse916"
     cx="3.7625885"
     cy="7.7981339"
     rx="0.43487972"
     ry="0.44918501" />
  <path
     d="m 5.5793269,8.1336915 -0.469692,-0.06358 -0.21123,0.372348 -0.171885,-0.387519 -0.47434,0.0262 0.297806,-0.323939 -0.263111,-0.346151 0.469692,0.06358 0.211228,-0.372346 0.171887,0.387518 0.474339,-0.0262 -0.297807,0.323939 z"
     id="path918"
     style="fill:#aad400;fill-opacity:1;stroke:#000000;stroke-width:0.06243473;stroke-opacity:0.02617804"
     inkscape:connector-curvature="0" />
  <path
     id="path920"
     d="m 4.7557899,9.3425305 c -0.305391,-0.02484 -0.605389,-0.128617 -0.858911,-0.297106 -0.109847,-0.073 -0.179086,-0.129349 -0.265765,-0.216281 -0.398321,-0.399483 -0.552554,-0.940369 -0.419338,-1.470603 0.0247,-0.09831 0.05985,-0.19146 0.111834,-0.296358 0.08465,-0.170806 0.185459,-0.308088 0.326018,-0.443953 0.272417,-0.263323 0.606548,-0.42463 1.004535,-0.48496 0.09265,-0.01404 0.33003,-0.01931 0.433692,-0.0096 0.316771,0.02962 0.609976,0.133842 0.86451,0.307305 0.3690326,0.251494 0.6088596,0.609989 0.6895186,1.030701 0.02306,0.120258 0.02875,0.329544 0.01246,0.457579 -0.03559,0.279604 -0.154593,0.556209 -0.335019,0.778688 -0.3659726,0.451274 -0.9549896,0.69411 -1.5635316,0.644602 z m 0.75948,-0.263592 c 0.06788,-0.02335 0.114816,-0.05298 0.168056,-0.106086 0.140643,-0.140279 0.173464,-0.345166 0.08445,-0.527213 -0.05543,-0.113373 -0.168045,-0.205461 -0.284957,-0.233021 -0.04774,-0.01125 -0.145696,-0.0129 -0.189392,-0.0032 -0.209769,0.04665 -0.359081,0.248936 -0.345622,0.46824 0.0061,0.09934 0.04297,0.192187 0.107702,0.271181 0.05216,0.06365 0.150125,0.12357 0.232837,0.142403 0.0622,0.01416 0.166385,0.0085 0.226923,-0.01232 z m -1.062316,-0.0078 c 0.121143,-0.02856 0.229794,-0.117968 0.286694,-0.235921 0.04609,-0.09554 0.05876,-0.186962 0.03968,-0.286274 -0.04704,-0.24489 -0.273979,-0.403933 -0.508974,-0.356707 -0.214836,0.04318 -0.363797,0.240009 -0.352171,0.465351 0.0063,0.122423 0.04625,0.210535 0.135499,0.298961 0.06067,0.06011 0.111205,0.09057 0.185544,0.111822 0.05192,0.01484 0.156743,0.0162 0.213726,0.0028 z m 0.548708,-0.807346 c 0.05409,-0.09595 0.101299,-0.178387 0.104905,-0.183195 0.0054,-0.0072 0.04768,-0.0032 0.237918,0.0226 0.171282,0.02321 0.23052,0.02915 0.228123,0.02291 -0.0018,-0.0046 -0.05969,-0.08249 -0.1287,-0.173005 -0.123933,-0.162559 -0.125317,-0.164732 -0.113384,-0.178113 0.0066,-0.0075 0.07315,-0.08017 0.147793,-0.161612 0.07464,-0.08143 0.134899,-0.148879 0.133904,-0.149875 -9.98e-4,-10e-4 -0.107377,0.0043 -0.236403,0.01166 -0.129027,0.0074 -0.235273,0.01255 -0.236105,0.01143 -8.32e-4,-0.0011 -0.03951,-0.08819 -0.08594,-0.193495 -0.04644,-0.105305 -0.086,-0.189898 -0.08791,-0.187984 -0.0019,0.0019 -0.04973,0.08512 -0.10626,0.184891 l -0.102781,0.181412 -0.02182,-0.0022 c -0.012,-0.0012 -0.11616,-0.01508 -0.23146,-0.03076 -0.1153,-0.01568 -0.210887,-0.02725 -0.212416,-0.02572 -0.0024,0.0024 0.06359,0.09112 0.217947,0.293036 l 0.03875,0.05069 -0.04933,0.05421 c -0.02713,0.02982 -0.09387,0.102708 -0.148317,0.161978 -0.05444,0.05927 -0.09831,0.10839 -0.09748,0.109158 8.29e-4,7.63e-4 0.09593,-0.0041 0.211325,-0.01079 0.115396,-0.0067 0.221653,-0.01231 0.236127,-0.01245 l 0.02632,-3.13e-4 0.08415,0.19014 c 0.04629,0.104579 0.08608,0.190074 0.08842,0.189993 0.0024,-1.25e-4 0.04853,-0.07865 0.102618,-0.174603 z m 1.180132,-0.03155 c 0.1507476,-0.0506 0.2587296,-0.171448 0.2943016,-0.329349 0.05804,-0.25765 -0.121237,-0.518083 -0.3753276,-0.545233 -0.184605,-0.01972 -0.3556,0.07599 -0.437047,0.244635 -0.07756,0.160589 -0.06031,0.339317 0.04645,0.481334 0.05623,0.0748 0.158442,0.140213 0.252505,0.161591 0.06292,0.0143 0.153917,0.0089 0.219122,-0.01298 z m -2.328827,0.0057 c 0.191542,-0.0425 0.331214,-0.210229 0.343637,-0.412658 0.01321,-0.215187 -0.132028,-0.417615 -0.333742,-0.46517 -0.05303,-0.0125 -0.147758,-0.0125 -0.200785,0 -0.120917,0.02851 -0.228818,0.117201 -0.286705,0.235671 -0.06867,0.14055 -0.06318,0.302162 0.01484,0.436161 0.03009,0.05169 0.103997,0.126855 0.153273,0.155896 0.09398,0.05539 0.204798,0.07333 0.309478,0.0501 z m 1.687093,-0.875186 c 0.175447,-0.0244 0.32244,-0.15793 0.367534,-0.333866 0.01471,-0.05741 0.01478,-0.166979 1.12e-4,-0.222922 -0.03308,-0.126363 -0.12466,-0.241317 -0.234015,-0.293758 -0.108667,-0.05211 -0.216263,-0.05931 -0.325323,-0.02177 -0.179312,0.06172 -0.297552,0.2314 -0.297552,0.426989 0,0.243785 0.182121,0.437725 0.424065,0.451586 0.0079,4.38e-4 0.03717,-0.0024 0.06516,-0.0063 z m -1.022708,-0.05517 c 0.154619,-0.02958 0.281283,-0.143851 0.333626,-0.300974 0.07873,-0.236325 -0.05176,-0.494989 -0.288607,-0.572112 -0.07494,-0.0244 -0.1741,-0.02441 -0.249288,-2.1e-5 -0.305561,0.09911 -0.410286,0.478011 -0.201641,0.729546 0.05401,0.06511 0.154407,0.12452 0.241119,0.142678 0.0602,0.01261 0.102342,0.01283 0.164791,8.88e-4 z"
     style="fill:#aa8800;fill-opacity:1;stroke:#c87137;stroke-width:0.00655658;stroke-opacity:0.02617804"
     inkscape:connector-curvature="0" />
  <path
     id="path922"
     d="m 4.8124199,8.2387595 -0.08435,-0.188293 -0.161568,0.0081 c -0.08886,0.0045 -0.194672,0.01148 -0.235132,0.01558 l -0.07357,0.0075 0.04099,-0.04464 c 0.192672,-0.209818 0.24658,-0.271405 0.24658,-0.281706 0,-0.0066 -0.05414,-0.0823 -0.120322,-0.168314 -0.09841,-0.127908 -0.115743,-0.157129 -0.09518,-0.160458 0.01383,-0.0022 0.114622,0.0083 0.223982,0.02353 0.232605,0.03229 0.192805,0.05419 0.320953,-0.176621 0.04799,-0.08644 0.08899,-0.157161 0.0911,-0.157161 0.0021,0 0.04182,0.08477 0.08823,0.188383 l 0.08439,0.188382 0.188278,-0.0083 c 0.103553,-0.0046 0.209345,-0.01165 0.235093,-0.01568 l 0.04681,-0.0073 -0.02825,0.03128 c -0.01554,0.0172 -0.08024,0.08845 -0.143787,0.158331 -0.06355,0.06988 -0.115536,0.13182 -0.115536,0.137645 0,0.0058 0.05436,0.08257 0.12079,0.170547 0.107817,0.142778 0.117405,0.15996 0.08927,0.15996 -0.02691,0 -0.195137,-0.02096 -0.373086,-0.04648 l -0.04934,-0.0071 -0.102676,0.180594 c -0.05647,0.09933 -0.104176,0.180596 -0.106009,0.180596 -0.0018,0 -0.04129,-0.08473 -0.08768,-0.188294 z"
     style="fill:#008000;fill-opacity:1;stroke:#c87137;stroke-width:0.01337541;stroke-opacity:0.02617804"
     inkscape:connector-curvature="0" />
  <ellipse
     style="fill:#ffcc00;fill-opacity:1;stroke:#000000;stroke-width:0.07212232;stroke-opacity:0.02617804"
     id="ellipse924"
     cx="4.9155922"
     cy="3.6792994"
     rx="1.7538241"
     ry="1.6193546" />
  <ellipse
     style="fill:#ffdd55;fill-opacity:1;stroke:#000000;stroke-width:0.07212232;stroke-opacity:0.02617804"
     id="ellipse926"
     cx="4.4377975"
     cy="2.8124018"
     rx="0.43487972"
     ry="0.44918501" />
  <ellipse
     ry="0.44918501"
     rx="0.43487972"
     cy="2.8639011"
     cx="5.4849434"
     id="ellipse928"
     style="fill:#ffdd55;fill-opacity:1;stroke:#000000;stroke-width:0.07212232;stroke-opacity:0.02617804" />
  <ellipse
     style="fill:#ffdd55;fill-opacity:1;stroke:#000000;stroke-width:0.07212232;stroke-opacity:0.02617804"
     id="ellipse930"
     cx="6.0514297"
     cy="3.7508249"
     rx="0.43487972"
     ry="0.44918501" />
  <ellipse
     ry="0.44918501"
     rx="0.43487972"
     cy="4.5976963"
     cx="5.3819427"
     id="ellipse932"
     style="fill:#ffdd55;fill-opacity:1;stroke:#000000;stroke-width:0.07212232;stroke-opacity:0.02617804" />
  <ellipse
     style="fill:#ffdd55;fill-opacity:1;stroke:#000000;stroke-width:0.07212232;stroke-opacity:0.02617804"
     id="ellipse934"
     cx="4.3519669"
     cy="4.5805302"
     rx="0.43487972"
     ry="0.44918501" />
  <ellipse
     ry="0.44918501"
     rx="0.43487972"
     cy="3.7451038"
     cx="3.7625885"
     id="ellipse936"
     style="fill:#ffdd55;fill-opacity:1;stroke:#000000;stroke-width:0.07212232;stroke-opacity:0.02617804" />
  <path
     style="fill:#aad400;fill-opacity:1;stroke:#000000;stroke-width:0.06243473;stroke-opacity:0.02617804"
     id="path938"
     d="m 5.5793269,4.0806615 -0.469692,-0.06358 -0.21123,0.372348 -0.171885,-0.387519 -0.47434,0.0262 0.297806,-0.323938 -0.263111,-0.346152 0.469692,0.06358 0.211228,-0.372347 0.171887,0.387518 0.474339,-0.0262 -0.297807,0.323939 z"
     inkscape:connector-curvature="0" />
  <path
     style="fill:#aa8800;fill-opacity:1;stroke:#c87137;stroke-width:0.00655658;stroke-opacity:0.02617804"
     d="m 4.7557899,5.2894995 c -0.305391,-0.02484 -0.605389,-0.128616 -0.858911,-0.297105 -0.109847,-0.073 -0.179086,-0.129349 -0.265765,-0.216282 -0.398321,-0.399482 -0.552554,-0.940368 -0.419338,-1.470603 0.0247,-0.09831 0.05985,-0.19146 0.111834,-0.296357 0.08465,-0.170806 0.185459,-0.308088 0.326018,-0.443953 0.272417,-0.263323 0.606548,-0.42463 1.004535,-0.48496 0.09265,-0.01404 0.33003,-0.01931 0.433692,-0.0096 0.316771,0.02962 0.609976,0.133842 0.86451,0.307305 0.3690326,0.251494 0.6088596,0.609989 0.6895186,1.030701 0.02306,0.120258 0.02875,0.329543 0.01246,0.457579 -0.03559,0.279604 -0.154593,0.556209 -0.335019,0.778687 -0.3659726,0.451275 -0.9549896,0.69411 -1.5635316,0.644602 z m 0.75948,-0.263591 c 0.06788,-0.02335 0.114816,-0.05298 0.168056,-0.106086 0.140643,-0.140279 0.173464,-0.345166 0.08445,-0.527213 -0.05543,-0.113373 -0.168045,-0.205462 -0.284957,-0.233021 -0.04774,-0.01125 -0.145696,-0.0129 -0.189392,-0.0032 -0.209769,0.04665 -0.359081,0.248936 -0.345622,0.46824 0.0061,0.09934 0.04297,0.192187 0.107702,0.27118 0.05216,0.06365 0.150125,0.12357 0.232837,0.142404 0.0622,0.01416 0.166385,0.0085 0.226923,-0.01232 z m -1.062316,-0.0078 c 0.121143,-0.02856 0.229794,-0.117969 0.286694,-0.235921 0.04609,-0.09554 0.05876,-0.186963 0.03968,-0.286274 -0.04704,-0.24489 -0.273979,-0.403934 -0.508974,-0.356707 -0.214836,0.04317 -0.363797,0.240009 -0.352171,0.46535 0.0063,0.122424 0.04625,0.210535 0.135499,0.298962 0.06067,0.06011 0.111205,0.09057 0.185544,0.111822 0.05192,0.01484 0.156743,0.0162 0.213726,0.0028 z m 0.548708,-0.807346 c 0.05409,-0.09595 0.101299,-0.178388 0.104905,-0.183196 0.0054,-0.0072 0.04768,-0.0032 0.237918,0.0226 0.171282,0.02321 0.23052,0.02915 0.228123,0.02291 -0.0018,-0.0046 -0.05969,-0.08249 -0.1287,-0.173005 -0.123933,-0.162559 -0.125317,-0.164732 -0.113384,-0.178114 0.0066,-0.0075 0.07315,-0.08018 0.147793,-0.161611 0.07464,-0.08144 0.134899,-0.148879 0.133904,-0.149875 -9.98e-4,-10e-4 -0.107377,0.0043 -0.236403,0.01166 -0.129027,0.0074 -0.235273,0.01255 -0.236105,0.01143 -8.32e-4,-0.0011 -0.03951,-0.08819 -0.08594,-0.193495 -0.04644,-0.105305 -0.086,-0.189898 -0.08791,-0.187984 -0.0019,0.0019 -0.04973,0.08512 -0.10626,0.184891 l -0.102781,0.181411 -0.02182,-0.0022 c -0.012,-0.0012 -0.11616,-0.01508 -0.23146,-0.03075 -0.1153,-0.01568 -0.210887,-0.02725 -0.212416,-0.02572 -0.0024,0.0024 0.06359,0.09112 0.217947,0.293036 l 0.03875,0.05069 -0.04933,0.05422 c -0.02713,0.02982 -0.09387,0.102709 -0.148317,0.161978 -0.05444,0.05927 -0.09831,0.108391 -0.09748,0.109159 8.29e-4,7.63e-4 0.09593,-0.0041 0.211325,-0.01079 0.115396,-0.0067 0.221653,-0.01231 0.236127,-0.01245 l 0.02632,-3.13e-4 0.08415,0.19014 c 0.04629,0.104578 0.08608,0.190074 0.08842,0.189993 0.0024,-1.25e-4 0.04853,-0.07865 0.102618,-0.174603 z m 1.180132,-0.03155 c 0.1507476,-0.05061 0.2587296,-0.171449 0.2943016,-0.329349 0.05804,-0.25765 -0.121237,-0.518083 -0.3753276,-0.545233 -0.184605,-0.01973 -0.3556,0.07599 -0.437047,0.244635 -0.07756,0.160589 -0.06031,0.339317 0.04645,0.481334 0.05623,0.0748 0.158442,0.140213 0.252505,0.161591 0.06292,0.0143 0.153917,0.0089 0.219122,-0.01298 z m -2.328827,0.0057 c 0.191542,-0.0425 0.331214,-0.210229 0.343637,-0.412658 0.01321,-0.215188 -0.132028,-0.417616 -0.333742,-0.465171 -0.05303,-0.0125 -0.147758,-0.0125 -0.200785,0 -0.120917,0.02851 -0.228818,0.117202 -0.286705,0.235672 -0.06867,0.14055 -0.06318,0.302162 0.01484,0.436161 0.03009,0.05169 0.103997,0.126855 0.153273,0.155896 0.09398,0.05539 0.204798,0.07333 0.309478,0.0501 z m 1.687093,-0.875186 c 0.175447,-0.0244 0.32244,-0.15793 0.367534,-0.333866 0.01471,-0.05741 0.01478,-0.166979 1.12e-4,-0.222922 -0.03308,-0.126363 -0.12466,-0.241317 -0.234015,-0.293758 -0.108667,-0.05211 -0.216263,-0.05931 -0.325323,-0.02177 -0.179312,0.06172 -0.297552,0.2314 -0.297552,0.426989 0,0.243784 0.182121,0.437725 0.424065,0.451586 0.0079,4.38e-4 0.03717,-0.0024 0.06516,-0.0063 z m -1.022708,-0.05517 c 0.154619,-0.02958 0.281283,-0.143852 0.333626,-0.300974 0.07873,-0.236325 -0.05176,-0.494989 -0.288607,-0.572113 -0.07494,-0.0244 -0.1741,-0.02441 -0.249288,-2e-5 -0.305561,0.09911 -0.410286,0.47801 -0.201641,0.729546 0.05401,0.06511 0.154407,0.124519 0.241119,0.142678 0.0602,0.01261 0.102342,0.01283 0.164791,8.88e-4 z"
     id="path940"
     inkscape:connector-curvature="0" />
  <path
     style="fill:#008000;fill-opacity:1;stroke:#c87137;stroke-width:0.01337541;stroke-opacity:0.02617804"
     d="m 4.8124199,4.1857295 -0.08435,-0.188293 -0.161568,0.0081 c -0.08886,0.0045 -0.194672,0.01149 -0.235132,0.01558 l -0.07357,0.0075 0.04099,-0.04464 c 0.192672,-0.209818 0.24658,-0.271405 0.24658,-0.281707 0,-0.0066 -0.05414,-0.0823 -0.120322,-0.168313 -0.09841,-0.127909 -0.115743,-0.157129 -0.09518,-0.160459 0.01383,-0.0022 0.114622,0.0084 0.223982,0.02353 0.232605,0.03229 0.192805,0.05419 0.320953,-0.17662 0.04799,-0.08644 0.08899,-0.157161 0.0911,-0.157161 0.0021,0 0.04182,0.08477 0.08823,0.188383 l 0.08439,0.188382 0.188278,-0.0083 c 0.103553,-0.0046 0.209345,-0.01165 0.235093,-0.01568 l 0.04681,-0.0073 -0.02825,0.03128 c -0.01554,0.0172 -0.08024,0.08845 -0.143787,0.158331 -0.06355,0.06988 -0.115536,0.13182 -0.115536,0.137645 0,0.0058 0.05436,0.08257 0.12079,0.170546 0.107817,0.142779 0.117405,0.15996 0.08927,0.15996 -0.02691,0 -0.195137,-0.02096 -0.373086,-0.04648 l -0.04934,-0.0071 -0.102676,0.180594 c -0.05647,0.09933 -0.104176,0.180595 -0.106009,0.180595 -0.0018,0 -0.04129,-0.08473 -0.08768,-0.188293 z"
     id="path942"
     inkscape:connector-curvature="0" />
</svg>
