<?xml version="1.0" encoding="UTF-8" standalone="no"?>
<svg
   xmlns:dc="http://purl.org/dc/elements/1.1/"
   xmlns:cc="http://creativecommons.org/ns#"
   xmlns:rdf="http://www.w3.org/1999/02/22-rdf-syntax-ns#"
   xmlns:svg="http://www.w3.org/2000/svg"
   xmlns="http://www.w3.org/2000/svg"
   xmlns:xlink="http://www.w3.org/1999/xlink"
   xmlns:sodipodi="http://sodipodi.sourceforge.net/DTD/sodipodi-0.dtd"
   xmlns:inkscape="http://www.inkscape.org/namespaces/inkscape"
   version="1.1"
   id="svg815"
   width="160"
   height="250"
   viewBox="0 0 160 250"
   sodipodi:docname="golds05.svg"
   inkscape:version="0.92.5 (2060ec1f9f, 2020-04-08)">
  <sodipodi:namedview
     pagecolor="#ffffff"
     bordercolor="#666666"
     borderopacity="1"
     objecttolerance="10"
     gridtolerance="10"
     guidetolerance="10"
     inkscape:pageopacity="0"
     inkscape:pageshadow="2"
     inkscape:window-width="1918"
     inkscape:window-height="1017"
     id="namedview10447"
     showgrid="false"
     inkscape:zoom="12.12591"
     inkscape:cx="54.393939"
     inkscape:cy="239.39394"
     inkscape:window-x="0"
     inkscape:window-y="0"
     inkscape:window-maximized="1"
     inkscape:current-layer="svg815"
     inkscape:snap-page="true" />
  <metadata
     id="metadata821">
    <rdf:RDF>
      <cc:Work
         rdf:about="">
        <dc:format>image/svg+xml</dc:format>
        <dc:type
           rdf:resource="http://purl.org/dc/dcmitype/StillImage" />
        <dc:title></dc:title>
      </cc:Work>
    </rdf:RDF>
  </metadata>
  <defs
     id="defs819">
    <linearGradient
       gradientUnits="userSpaceOnUse"
       y2="71.008263"
       x2="88.849586"
       y1="58.644627"
       x1="82.105782"
       id="linearGradient1063"
       xlink:href="#linearGradient882"
       gradientTransform="matrix(0.0625,0,0,0.0625,90.000002,-2.4462891e-7)" />
    <linearGradient
       id="linearGradient882">
      <stop
         style="stop-color:#d16208;stop-opacity:1"
         offset="0"
         id="stop878" />
      <stop
         style="stop-color:#d16250;stop-opacity:0;"
         offset="1"
         id="stop880" />
    </linearGradient>
    <linearGradient
       gradientUnits="userSpaceOnUse"
       y2="68.472336"
       x2="56.128345"
       y1="63.697319"
       x1="61.166279"
       id="linearGradient876"
       xlink:href="#linearGradient882"
       gradientTransform="matrix(0.0625,0,0,0.0625,90.000002,-2.4462891e-7)" />
    <linearGradient
       xlink:href="#linearGradient846"
       id="linearGradient848"
       x1="72.37397"
       y1="53.171356"
       x2="72.19931"
       y2="45.564011"
       gradientUnits="userSpaceOnUse"
       gradientTransform="matrix(0.0625,0,0,0.0625,110,-4.9804688e-7)" />
    <linearGradient
       id="linearGradient846">
      <stop
         style="stop-color:#423abf;stop-opacity:1;"
         offset="0"
         id="stop842" />
      <stop
         style="stop-color:#423abf;stop-opacity:0;"
         offset="1"
         id="stop844" />
    </linearGradient>
  </defs>
  <flowRoot
     style="font-style:normal;font-variant:normal;font-weight:bold;font-stretch:normal;font-size:1px;line-height:1.25;font-family:'DejaVu Sans';-inkscape-font-specification:'DejaVu Sans Bold';letter-spacing:0px;word-spacing:0px;fill:#000000;fill-opacity:1;stroke:none;stroke-width:0.0625"
     id="flowRoot100"
     xml:space="preserve"><flowRegion
       style="stroke-width:0.0625"
       id="flowRegion102"><rect
         style="stroke-width:0.00390625"
         y="0.73863637"
         x="0.66287881"
         height="1.3636364"
         width="1.5151515"
         id="rect104" /></flowRegion><flowPara
       style="stroke-width:0.0625"
       id="flowPara106" /></flowRoot>  <rect
     style="fill:#ffffff;fill-opacity:1;stroke:#1a1a1a;stroke-width:0.0625;stroke-opacity:1"
     id="golds05"
     width="10"
     height="15.625"
     x="0.0030020485"
     y="0" />
  <rect
     style="fill:none;fill-opacity:1;stroke:#1a1a1a;stroke-width:0.0625;stroke-opacity:1"
     id="rect108-36"
     width="7.2537889"
     height="12.973484"
     x="1.3476981"
     y="1.306818" />
  <g
     id="flowRoot915-1"
     style="font-style:normal;font-variant:normal;font-weight:bold;font-stretch:normal;font-size:16px;line-height:1.25;font-family:'DejaVu Sans';-inkscape-font-specification:'DejaVu Sans Bold';text-align:start;letter-spacing:0px;word-spacing:0px;text-anchor:start;fill:#000000;fill-opacity:1;stroke:none"
     transform="matrix(0.0625,0,0,0.0625,0.19239705,1.9726562e-7)"
     aria-label="5">
    <path
       id="path1036"
       d="M 4.7265625,7.0371094 H 12.203125 V 9.2480469 H 7.125 v 1.8046871 q 0.34375,-0.09375 0.6875,-0.140625 0.3515625,-0.05469 0.7265625,-0.05469 2.1328125,0 3.3203125,1.070312 1.1875,1.0625 1.1875,2.96875 0,1.890625 -1.296875,2.960938 -1.289062,1.070312 -3.5859375,1.070312 -0.9921875,0 -1.96875,-0.195312 -0.96875,-0.1875 -1.9296875,-0.578125 v -2.367188 q 0.953125,0.546875 1.8046875,0.820313 0.859375,0.273437 1.6171875,0.273437 1.09375,0 1.71875,-0.53125 0.632813,-0.539062 0.632813,-1.453125 0,-0.921875 -0.632813,-1.453125 -0.625,-0.53125 -1.71875,-0.53125 -0.6484375,0 -1.3828125,0.171875 -0.734375,0.164063 -1.578125,0.515625 z"
       inkscape:connector-curvature="0" />
  </g>
  <ellipse
     style="fill:#ffcc00;fill-opacity:1;stroke:#000000;stroke-width:0.06792499;stroke-opacity:0.02617804"
     id="ellipse924-2"
     cx="3.204586"
     cy="3.2609882"
     rx="1.6517562"
     ry="1.5251124" />
  <ellipse
     style="fill:#ffdd55;fill-opacity:1;stroke:#000000;stroke-width:0.06792499;stroke-opacity:0.02617804"
     id="ellipse926-9"
     cx="2.7545967"
     cy="2.4445419"
     rx="0.40957084"
     ry="0.42304361" />
  <ellipse
     ry="0.42304361"
     rx="0.40957084"
     cy="2.4930439"
     cx="3.7407951"
     id="ellipse928-3"
     style="fill:#ffdd55;fill-opacity:1;stroke:#000000;stroke-width:0.06792499;stroke-opacity:0.02617804" />
  <ellipse
     style="fill:#ffdd55;fill-opacity:1;stroke:#000000;stroke-width:0.06792499;stroke-opacity:0.02617804"
     id="ellipse930-1"
     cx="4.2743187"
     cy="3.328352"
     rx="0.40957084"
     ry="0.42304361" />
  <ellipse
     ry="0.42304361"
     rx="0.40957084"
     cy="4.1259365"
     cx="3.643795"
     id="ellipse932-9"
     style="fill:#ffdd55;fill-opacity:1;stroke:#000000;stroke-width:0.06792499;stroke-opacity:0.02617804" />
  <ellipse
     style="fill:#ffdd55;fill-opacity:1;stroke:#000000;stroke-width:0.06792499;stroke-opacity:0.02617804"
     id="ellipse934-4"
     cx="2.6737556"
     cy="4.1097698"
     rx="0.40957084"
     ry="0.42304361" />
  <ellipse
     ry="0.42304361"
     rx="0.40957084"
     cy="3.3229637"
     cx="2.118679"
     id="ellipse936-7"
     style="fill:#ffdd55;fill-opacity:1;stroke:#000000;stroke-width:0.06792499;stroke-opacity:0.02617804" />
  <path
     style="fill:#aad400;fill-opacity:1;stroke:#000000;stroke-width:0.05880119;stroke-opacity:0.02617804"
     id="path938-8"
     d="m 3.829689,3.6389932 -0.442357,-0.05988 -0.198937,0.350678 -0.161882,-0.364966 -0.446734,0.02467 0.280474,-0.305086 -0.247799,-0.326006 0.442357,0.05988 0.198936,-0.350678 0.161883,0.364966 0.446734,-0.02467 -0.280475,0.305087 z"
     inkscape:connector-curvature="0" />
  <path
     style="fill:#aa8800;fill-opacity:1;stroke:#c87137;stroke-width:0.006175;stroke-opacity:0.02617804"
     d="M 3.05408,4.7774802 C 2.766462,4.7540802 2.483923,4.6563492 2.245155,4.4976652 2.141701,4.4289152 2.076491,4.3758442 1.994857,4.2939712 1.619717,3.9177372 1.474461,3.4083292 1.599923,2.9089532 c 0.02326,-0.09259 0.05637,-0.180318 0.105326,-0.279111 0.07972,-0.160865 0.174666,-0.290158 0.307044,-0.418116 0.256564,-0.247998 0.571249,-0.399917 0.946074,-0.456736 0.08726,-0.01323 0.310823,-0.01818 0.408452,-0.0091 0.298336,0.02789 0.574477,0.126053 0.814198,0.289421 0.347557,0.236858 0.573426,0.574489 0.649391,0.970717 0.02171,0.113259 0.02708,0.310365 0.01173,0.430949 -0.03352,0.263332 -0.145597,0.523839 -0.315522,0.73337 -0.344674,0.425011 -0.899412,0.653715 -1.472538,0.607088 z m 0.71528,-0.248251 c 0.06392,-0.02199 0.108134,-0.0499 0.158275,-0.09991 0.132458,-0.132114 0.163369,-0.325077 0.07954,-0.49653 -0.05221,-0.106775 -0.158266,-0.193504 -0.268374,-0.21946 -0.04496,-0.0106 -0.137216,-0.01215 -0.17837,-0.003 -0.19756,0.04394 -0.338183,0.234449 -0.325507,0.44099 0.0057,0.09356 0.04047,0.181002 0.101433,0.255398 0.04912,0.05995 0.141389,0.116379 0.219287,0.134116 0.05858,0.01334 0.156702,0.008 0.213717,-0.0116 z m -1.000492,-0.0073 c 0.114093,-0.0269 0.216421,-0.111102 0.270009,-0.22219 0.04341,-0.08998 0.05534,-0.176082 0.03737,-0.269614 -0.04431,-0.230638 -0.258034,-0.380425 -0.479354,-0.335948 -0.202332,0.04066 -0.342624,0.226042 -0.331674,0.438269 0.0059,0.115299 0.04356,0.198282 0.127612,0.281562 0.05714,0.05661 0.104734,0.0853 0.174746,0.105315 0.04889,0.01398 0.147621,0.01526 0.201288,0.0026 z m 0.516775,-0.76036 c 0.05094,-0.09037 0.0954,-0.168006 0.0988,-0.172534 0.0051,-0.0068 0.0449,-0.003 0.224071,0.02129 0.161314,0.02185 0.217104,0.02746 0.214847,0.02158 -0.0017,-0.0044 -0.05622,-0.07769 -0.12121,-0.162937 -0.11672,-0.153098 -0.118024,-0.155145 -0.106786,-0.167747 0.0063,-0.007 0.06889,-0.07551 0.139192,-0.152206 0.0703,-0.0767 0.127048,-0.140215 0.126111,-0.141153 -9.39e-4,-9.42e-4 -0.101127,0.004 -0.222644,0.01098 -0.121518,0.007 -0.221581,0.01182 -0.222365,0.01077 -7.83e-4,-0.0011 -0.03721,-0.08306 -0.08094,-0.182234 -0.04373,-0.09918 -0.08099,-0.178846 -0.08279,-0.177044 -0.0018,0.0018 -0.04684,0.08016 -0.100076,0.174131 l -0.0968,0.170854 -0.02055,-0.0021 c -0.0113,-0.0012 -0.1094,-0.0142 -0.21799,-0.02896 -0.108589,-0.01476 -0.198614,-0.02567 -0.200054,-0.02423 -0.0023,0.0023 0.05988,0.08581 0.205263,0.275982 l 0.0365,0.04774 -0.04645,0.05106 c -0.02555,0.02808 -0.08841,0.09673 -0.139685,0.152552 -0.05128,0.05582 -0.09259,0.102082 -0.0918,0.102806 7.81e-4,7.17e-4 0.09035,-0.0038 0.199027,-0.01017 0.10868,-0.0063 0.208753,-0.01159 0.222385,-0.01172 l 0.02479,-3e-4 0.07926,0.179074 c 0.04359,0.09849 0.08107,0.179012 0.08328,0.178936 0.0022,-1.19e-4 0.0457,-0.07408 0.09665,-0.164442 z m 1.111451,-0.02972 c 0.141975,-0.04766 0.243673,-0.16147 0.277175,-0.310181 0.05466,-0.242656 -0.114182,-0.487932 -0.353485,-0.513502 -0.173862,-0.01858 -0.334905,0.07157 -0.411612,0.230398 -0.07304,0.151243 -0.0568,0.31957 0.04374,0.453322 0.05296,0.07045 0.149221,0.132053 0.237809,0.152186 0.05926,0.01347 0.14496,0.0084 0.20637,-0.01222 z m -2.193296,0.0054 c 0.180395,-0.04003 0.311939,-0.197994 0.323639,-0.388642 0.01244,-0.202664 -0.124344,-0.393312 -0.314319,-0.438099 -0.04994,-0.01177 -0.139159,-0.01177 -0.1891,0 -0.11388,0.02685 -0.215502,0.11038 -0.27002,0.221956 -0.06468,0.13237 -0.0595,0.284577 0.01398,0.410778 0.02834,0.04868 0.09794,0.119472 0.144352,0.146823 0.08851,0.05217 0.19288,0.06906 0.291467,0.04718 z m 1.588909,-0.824296 c 0.165237,-0.02298 0.303675,-0.148739 0.346145,-0.314436 0.01386,-0.05407 0.01392,-0.157261 1.06e-4,-0.209948 -0.03116,-0.11901 -0.117406,-0.227273 -0.220396,-0.276663 -0.102344,-0.04908 -0.203677,-0.05586 -0.30639,-0.0205 -0.168877,0.05813 -0.280236,0.217932 -0.280236,0.402139 0,0.229597 0.171523,0.412251 0.399386,0.425305 0.0074,4.13e-4 0.03501,-0.0022 0.06137,-0.0059 z m -0.963189,-0.05196 c 0.145621,-0.02786 0.264914,-0.13548 0.31421,-0.283458 0.07415,-0.222572 -0.04875,-0.466182 -0.271811,-0.538817 -0.07057,-0.02298 -0.163968,-0.02299 -0.23478,-2e-5 -0.287778,0.09334 -0.386408,0.450192 -0.189906,0.687089 0.05086,0.06132 0.145421,0.117273 0.227086,0.134375 0.05669,0.01187 0.09639,0.01208 0.155201,8.36e-4 z"
     id="path940-4"
     inkscape:connector-curvature="0" />
  <path
     style="fill:#008000;fill-opacity:1;stroke:#c87137;stroke-width:0.012597;stroke-opacity:0.02617804"
     d="m 3.107414,3.7379462 -0.07944,-0.177335 -0.152165,0.0077 c -0.08369,0.0042 -0.183342,0.01082 -0.221448,0.01468 l -0.06928,0.007 0.03861,-0.04204 C 2.80515,3.3503442 2.85592,3.2923422 2.85592,3.2826392 c 0,-0.0062 -0.05099,-0.07751 -0.11332,-0.158517 -0.09268,-0.120465 -0.109007,-0.147985 -0.08964,-0.151121 0.01302,-0.0021 0.107951,0.0079 0.210946,0.02216 0.219069,0.03041 0.181584,0.05104 0.302275,-0.166342 0.0452,-0.08141 0.08381,-0.148014 0.0858,-0.148014 0.002,0 0.03938,0.07984 0.0831,0.177419 l 0.07948,0.177418 0.177321,-0.0079 c 0.09753,-0.0043 0.197161,-0.01097 0.221411,-0.01477 l 0.04409,-0.0069 -0.0266,0.02946 c -0.01463,0.0162 -0.07557,0.0833 -0.135418,0.149117 -0.05985,0.06581 -0.108813,0.124148 -0.108813,0.129634 0,0.0055 0.05119,0.07776 0.11376,0.160621 0.101543,0.134469 0.110573,0.150651 0.08407,0.150651 -0.02534,0 -0.18378,-0.01974 -0.351373,-0.04378 l -0.04647,-0.0067 -0.0967,0.170084 c -0.05319,0.09355 -0.09811,0.170085 -0.09984,0.170085 -0.0017,0 -0.03889,-0.0798 -0.08258,-0.177336 z"
     id="path942-50"
     inkscape:connector-curvature="0" />
  <ellipse
     ry="1.5508149"
     rx="1.6795928"
     cy="3.2872639"
     cx="6.6799583"
     id="ellipse963-3"
     style="fill:#ffcc00;fill-opacity:1;stroke:#000000;stroke-width:0.06906971;stroke-opacity:0.02617804" />
  <ellipse
     ry="0.43017307"
     rx="0.41647327"
     cy="2.457058"
     cx="6.2223854"
     id="ellipse965-6"
     style="fill:#ffdd55;fill-opacity:1;stroke:#000000;stroke-width:0.06906971;stroke-opacity:0.02617804" />
  <ellipse
     style="fill:#ffdd55;fill-opacity:1;stroke:#000000;stroke-width:0.06906971;stroke-opacity:0.02617804"
     id="ellipse967-1"
     cx="7.2252159"
     cy="2.5063782"
     rx="0.41647327"
     ry="0.43017307" />
  <ellipse
     ry="0.43017307"
     rx="0.41647327"
     cy="3.3557625"
     cx="7.7677193"
     id="ellipse969-0"
     style="fill:#ffdd55;fill-opacity:1;stroke:#000000;stroke-width:0.06906971;stroke-opacity:0.02617804" />
  <ellipse
     style="fill:#ffdd55;fill-opacity:1;stroke:#000000;stroke-width:0.06906971;stroke-opacity:0.02617804"
     id="ellipse971-6"
     cx="7.1265755"
     cy="4.1667881"
     rx="0.41647327"
     ry="0.43017307" />
  <ellipse
     ry="0.43017307"
     rx="0.41647327"
     cy="4.1503487"
     cx="6.1401863"
     id="ellipse973-3"
     style="fill:#ffdd55;fill-opacity:1;stroke:#000000;stroke-width:0.06906971;stroke-opacity:0.02617804" />
  <ellipse
     style="fill:#ffdd55;fill-opacity:1;stroke:#000000;stroke-width:0.06906971;stroke-opacity:0.02617804"
     id="ellipse975-2"
     cx="5.5757561"
     cy="3.3502827"
     rx="0.41647327"
     ry="0.43017307" />
  <path
     d="m 7.315603,3.6716382 -0.449812,-0.06089 -0.202289,0.356588 -0.164611,-0.371117 -0.454263,0.02509 0.285201,-0.310228 -0.251975,-0.331501 0.449812,0.06089 0.202288,-0.356587 0.164612,0.371116 0.454263,-0.02509 -0.285202,0.310228 z"
     id="path977-0"
     style="fill:#aad400;fill-opacity:1;stroke:#000000;stroke-width:0.05979215;stroke-opacity:0.02617804"
     inkscape:connector-curvature="0" />
  <path
     id="path979-6"
     d="M 6.526922,4.8293122 C 6.234457,4.8055222 5.947157,4.7061392 5.704365,4.5447812 5.599167,4.4748712 5.532858,4.4209072 5.449849,4.3376542 5.068386,3.9550802 4.920682,3.4370872 5.048259,2.9292952 c 0.02365,-0.09415 0.05732,-0.183357 0.107101,-0.283814 0.08106,-0.163577 0.177609,-0.295048 0.312218,-0.425163 0.260888,-0.252177 0.580876,-0.406657 0.962019,-0.464434 0.08873,-0.01345 0.316061,-0.01849 0.415336,-0.0092 0.303364,0.02836 0.584158,0.128177 0.827919,0.294298 0.353414,0.24085 0.583089,0.584171 0.660335,0.987077 0.02208,0.115167 0.02754,0.315595 0.01193,0.438211 -0.03408,0.26777 -0.148051,0.532667 -0.320839,0.74573 -0.350484,0.432174 -0.91457,0.664731 -1.497356,0.617319 z m 0.727336,-0.252435 c 0.065,-0.02236 0.109955,-0.05074 0.160942,-0.101596 0.13469,-0.134342 0.166122,-0.330557 0.08088,-0.504899 -0.05309,-0.108574 -0.160933,-0.196765 -0.272896,-0.223158 -0.04572,-0.01078 -0.13953,-0.01235 -0.181377,-0.003 -0.20089,0.04468 -0.343882,0.2384 -0.330993,0.448421 0.0058,0.09513 0.04115,0.184053 0.103143,0.259703 0.04995,0.06096 0.143772,0.11834 0.222983,0.136376 0.05957,0.01356 0.159342,0.0081 0.217319,-0.0118 z m -1.017354,-0.0074 c 0.116015,-0.02735 0.220068,-0.112976 0.274559,-0.225936 0.04414,-0.0915 0.05627,-0.179049 0.038,-0.274157 -0.04505,-0.234525 -0.262382,-0.386837 -0.487431,-0.34161 -0.205743,0.04135 -0.348399,0.229851 -0.337265,0.445655 0.006,0.117242 0.04429,0.201624 0.129764,0.286308 0.0581,0.05757 0.106498,0.08673 0.177691,0.107089 0.04972,0.01422 0.150109,0.01552 0.20468,0.0026 z m 0.525484,-0.773175 c 0.0518,-0.09189 0.09701,-0.170837 0.100465,-0.175442 0.0052,-0.0069 0.04566,-0.003 0.227847,0.02165 0.164033,0.02222 0.220763,0.02792 0.218468,0.02194 -0.0017,-0.0044 -0.05717,-0.079 -0.123253,-0.165682 -0.118687,-0.155679 -0.120012,-0.15776 -0.108585,-0.170575 0.0064,-0.0071 0.07005,-0.07678 0.141538,-0.154771 0.07148,-0.07799 0.129189,-0.142578 0.128236,-0.143531 -9.56e-4,-9.58e-4 -0.102831,0.0041 -0.226396,0.01116 -0.123567,0.0071 -0.225316,0.01202 -0.226113,0.01095 -7.94e-4,-0.0011 -0.03783,-0.08446 -0.08231,-0.185305 -0.04447,-0.100848 -0.08236,-0.18186 -0.08419,-0.180027 -0.0018,0.0018 -0.04763,0.08151 -0.101763,0.177065 l -0.09843,0.173733 -0.0209,-0.0021 c -0.01149,-0.0012 -0.111243,-0.01444 -0.221664,-0.02945 -0.110419,-0.01501 -0.20196,-0.0261 -0.203425,-0.02463 -0.0023,0.0023 0.0609,0.08726 0.208723,0.280633 l 0.03711,0.04855 -0.04724,0.05192 c -0.02598,0.02856 -0.0899,0.09836 -0.142039,0.155122 -0.05214,0.05676 -0.09415,0.103803 -0.09335,0.104538 7.93e-4,7.3e-4 0.09187,-0.0039 0.202381,-0.01034 0.110512,-0.0064 0.212271,-0.01179 0.226133,-0.01192 l 0.0252,-3e-4 0.08059,0.182092 c 0.04433,0.100152 0.08243,0.182029 0.08468,0.181951 0.0023,-1.25e-4 0.04647,-0.07532 0.09828,-0.167212 z m 1.130182,-0.03022 c 0.144368,-0.04846 0.24778,-0.164191 0.281846,-0.315409 0.05558,-0.246744 -0.116107,-0.496155 -0.359442,-0.522156 -0.176792,-0.01889 -0.340549,0.07277 -0.418549,0.234281 -0.07427,0.153793 -0.05776,0.324956 0.04448,0.460962 0.05385,0.07163 0.151736,0.134278 0.241818,0.154751 0.06026,0.0137 0.147402,0.0085 0.209847,-0.012429 z m -2.230259,0.0054 c 0.183435,-0.04071 0.317195,-0.201332 0.329093,-0.395193 0.01265,-0.206079 -0.12644,-0.39994 -0.319617,-0.445482 -0.05078,-0.01197 -0.141504,-0.01197 -0.192286,0 -0.115799,0.0273 -0.219134,0.112241 -0.274571,0.225697 -0.06577,0.134601 -0.0605,0.289373 0.01422,0.4177 0.02882,0.0495 0.09959,0.121486 0.146785,0.149298 0.09001,0.05305 0.19613,0.07023 0.296379,0.04798 z m 1.615686,-0.83812 c 0.168022,-0.02337 0.308794,-0.151245 0.351979,-0.319734 0.01409,-0.05498 0.01415,-0.159912 1.25e-4,-0.213487 -0.03169,-0.121015 -0.119385,-0.231103 -0.224111,-0.281325 -0.104068,-0.04991 -0.207109,-0.0568 -0.311554,-0.02085 -0.171722,0.05911 -0.284958,0.221605 -0.284958,0.408916 0,0.233466 0.174413,0.419198 0.406116,0.432473 0.0075,4.19e-4 0.0356,-0.0023 0.0624,-0.006 z m -0.979422,-0.05284 c 0.148076,-0.02833 0.269379,-0.137763 0.319506,-0.288235 0.0754,-0.226323 -0.04957,-0.474039 -0.276392,-0.547898 -0.07176,-0.02337 -0.166731,-0.02338 -0.238736,-2e-5 -0.292628,0.09492 -0.39292,0.457779 -0.193107,0.698668 0.05172,0.06235 0.147872,0.119249 0.230914,0.136639 0.05765,0.01207 0.09801,0.01229 0.157815,8.5e-4 z"
     style="fill:#aa8800;fill-opacity:1;stroke:#c87137;stroke-width:0.00627907;stroke-opacity:0.02617804"
     inkscape:connector-curvature="0" />
  <path
     id="path981-1"
     d="m 6.581155,3.7722582 -0.08078,-0.180323 -0.154729,0.0078 c -0.0851,0.0043 -0.186433,0.011 -0.22518,0.01492 l -0.07045,0.0071 0.03926,-0.04275 c 0.184517,-0.200936 0.236143,-0.259917 0.236143,-0.269782 0,-0.0063 -0.05185,-0.07882 -0.11523,-0.16119 -0.09425,-0.122495 -0.110844,-0.150478 -0.09115,-0.153667 0.01324,-0.0021 0.109771,0.008 0.214502,0.02253 0.22276,0.03092 0.184644,0.0519 0.307368,-0.169145 0.04596,-0.08278 0.08522,-0.150509 0.08725,-0.150509 0.002,0 0.04005,0.08118 0.0845,0.180409 l 0.08082,0.180409 0.180309,-0.008 c 0.09917,-0.0044 0.200485,-0.01116 0.225143,-0.01502 l 0.04483,-0.007 -0.02705,0.02995 c -0.01488,0.01647 -0.07685,0.08471 -0.137701,0.15163 -0.06086,0.06692 -0.110646,0.126241 -0.110646,0.131818 0,0.0056 0.05206,0.07907 0.115677,0.163329 0.103255,0.136735 0.112437,0.153189 0.08549,0.153189 -0.02577,0 -0.186878,-0.02007 -0.357294,-0.04451 l -0.04725,-0.0068 -0.09833,0.17295 c -0.05408,0.09512 -0.09977,0.172951 -0.101522,0.172951 -0.0018,0 -0.03954,-0.08115 -0.08397,-0.180324 z"
     style="fill:#008000;fill-opacity:1;stroke:#c87137;stroke-width:0.0128093;stroke-opacity:0.02617804"
     inkscape:connector-curvature="0" />
  <ellipse
     ry="1.5251124"
     rx="1.6517562"
     cy="12.105686"
     cx="3.204586"
     id="ellipse983-5"
     style="fill:#ffcc00;fill-opacity:1;stroke:#000000;stroke-width:0.06792499;stroke-opacity:0.02617804" />
  <ellipse
     ry="0.42304361"
     rx="0.40957084"
     cy="11.289238"
     cx="2.7545967"
     id="ellipse985-5"
     style="fill:#ffdd55;fill-opacity:1;stroke:#000000;stroke-width:0.06792499;stroke-opacity:0.02617804" />
  <ellipse
     style="fill:#ffdd55;fill-opacity:1;stroke:#000000;stroke-width:0.06792499;stroke-opacity:0.02617804"
     id="ellipse987-4"
     cx="3.7407951"
     cy="11.337742"
     rx="0.40957084"
     ry="0.42304361" />
  <ellipse
     ry="0.42304361"
     rx="0.40957084"
     cy="12.17305"
     cx="4.2743187"
     id="ellipse989-76"
     style="fill:#ffdd55;fill-opacity:1;stroke:#000000;stroke-width:0.06792499;stroke-opacity:0.02617804" />
  <ellipse
     style="fill:#ffdd55;fill-opacity:1;stroke:#000000;stroke-width:0.06792499;stroke-opacity:0.02617804"
     id="ellipse991-56"
     cx="3.643795"
     cy="12.970634"
     rx="0.40957084"
     ry="0.42304361" />
  <ellipse
     ry="0.42304361"
     rx="0.40957084"
     cy="12.954468"
     cx="2.6737556"
     id="ellipse993-9"
     style="fill:#ffdd55;fill-opacity:1;stroke:#000000;stroke-width:0.06792499;stroke-opacity:0.02617804" />
  <ellipse
     style="fill:#ffdd55;fill-opacity:1;stroke:#000000;stroke-width:0.06792499;stroke-opacity:0.02617804"
     id="ellipse995-3"
     cx="2.118679"
     cy="12.16766"
     rx="0.40957084"
     ry="0.42304361" />
  <path
     d="M 3.829689,12.483689 3.387332,12.423809 3.188395,12.774487 3.026513,12.40952 2.579779,12.43419 2.860253,12.129104 2.612454,11.803098 3.054811,11.862978 3.253747,11.5123 3.41563,11.877266 3.862364,11.852596 3.581889,12.157683 Z"
     id="path997-7"
     style="fill:#aad400;fill-opacity:1;stroke:#000000;stroke-width:0.05880119;stroke-opacity:0.02617804"
     inkscape:connector-curvature="0" />
  <path
     id="path999-4"
     d="M 3.05408,13.622177 C 2.766462,13.598777 2.483923,13.501046 2.245155,13.342362 2.141701,13.273612 2.076491,13.220541 1.994857,13.138667 1.619717,12.762434 1.474461,12.253026 1.599923,11.753649 c 0.02326,-0.09259 0.05637,-0.180317 0.105326,-0.27911 0.07972,-0.160865 0.174666,-0.290158 0.307044,-0.418116 0.256564,-0.247997 0.571249,-0.399917 0.946074,-0.456736 0.08726,-0.01323 0.310823,-0.01818 0.408452,-0.0091 0.298336,0.02789 0.574477,0.126053 0.814198,0.289421 0.347557,0.236858 0.573426,0.574489 0.649391,0.970717 0.02171,0.113259 0.02708,0.310364 0.01173,0.430949 -0.03352,0.263332 -0.145597,0.523838 -0.315522,0.73337 -0.344674,0.425011 -0.899412,0.653715 -1.472538,0.607088 z m 0.71528,-0.248251 c 0.06392,-0.02199 0.108134,-0.0499 0.158275,-0.09991 0.132458,-0.132114 0.163369,-0.325077 0.07954,-0.496531 -0.05221,-0.106775 -0.158266,-0.193503 -0.268374,-0.219459 -0.04496,-0.0106 -0.137216,-0.01215 -0.17837,-0.003 -0.19756,0.04394 -0.338183,0.234449 -0.325507,0.44099 0.0057,0.09356 0.04047,0.181002 0.101433,0.255398 0.04912,0.05995 0.141389,0.116379 0.219287,0.134116 0.05858,0.01334 0.156702,0.008 0.213717,-0.0116 z m -1.000492,-0.0073 c 0.114093,-0.0269 0.216421,-0.111102 0.270009,-0.22219 0.04341,-0.08998 0.05534,-0.176082 0.03737,-0.269614 -0.04431,-0.230638 -0.258034,-0.380426 -0.479354,-0.335948 -0.202332,0.04066 -0.342624,0.226042 -0.331674,0.438269 0.0059,0.115299 0.04356,0.198282 0.127612,0.281562 0.05714,0.05661 0.104734,0.0853 0.174746,0.105315 0.04889,0.01398 0.147621,0.01526 0.201288,0.0026 z m 0.516775,-0.76036 c 0.05094,-0.09037 0.0954,-0.168006 0.0988,-0.172534 0.0051,-0.0068 0.0449,-0.003 0.224071,0.02129 0.161314,0.02186 0.217104,0.02746 0.214847,0.02157 -0.0017,-0.0044 -0.05622,-0.07769 -0.12121,-0.162936 -0.11672,-0.153099 -0.118024,-0.155145 -0.106786,-0.167747 0.0063,-0.007 0.06889,-0.07551 0.139192,-0.152207 0.0703,-0.0767 0.127048,-0.140214 0.126111,-0.141152 -9.39e-4,-9.44e-4 -0.101127,0.004 -0.222644,0.01098 -0.121518,0.007 -0.221581,0.01182 -0.222365,0.01077 -7.83e-4,-0.0011 -0.03721,-0.08306 -0.08094,-0.182234 -0.04373,-0.09918 -0.08099,-0.178846 -0.08279,-0.177044 -0.0018,0.0018 -0.04684,0.08016 -0.100076,0.174131 l -0.0968,0.170854 -0.02055,-0.0021 c -0.0113,-0.0012 -0.1094,-0.0142 -0.21799,-0.02896 -0.108589,-0.01476 -0.198614,-0.02567 -0.200054,-0.02423 -0.0023,0.0023 0.05988,0.08581 0.205263,0.275982 l 0.0365,0.04774 -0.04645,0.05106 c -0.02555,0.02808 -0.08841,0.09673 -0.139685,0.152551 -0.05128,0.05582 -0.09259,0.102083 -0.0918,0.102806 7.81e-4,7.19e-4 0.09035,-0.0038 0.199027,-0.01017 0.10868,-0.0063 0.208753,-0.01159 0.222385,-0.01172 l 0.02479,-3.12e-4 0.07926,0.179074 c 0.04359,0.09849 0.08107,0.179012 0.08328,0.178936 0.0022,-1.25e-4 0.0457,-0.07408 0.09665,-0.164441 z m 1.111451,-0.02972 c 0.141975,-0.04766 0.243673,-0.16147 0.277175,-0.310182 0.05466,-0.242655 -0.114182,-0.487931 -0.353485,-0.513501 -0.173862,-0.01858 -0.334905,0.07157 -0.411612,0.230398 -0.07304,0.151243 -0.0568,0.31957 0.04374,0.453321 0.05296,0.07045 0.149221,0.132054 0.237809,0.152187 0.05926,0.01347 0.14496,0.0084 0.20637,-0.01222 z m -2.193296,0.0054 c 0.180395,-0.04003 0.311939,-0.197995 0.323639,-0.388642 0.01244,-0.202664 -0.124344,-0.393312 -0.314319,-0.438099 -0.04994,-0.01177 -0.139159,-0.01177 -0.1891,0 -0.11388,0.02685 -0.215502,0.11038 -0.27002,0.221956 -0.06468,0.13237 -0.0595,0.284577 0.01398,0.410777 0.02834,0.04868 0.09794,0.119473 0.144352,0.146824 0.08851,0.05217 0.19288,0.06906 0.291467,0.04718 z M 3.792707,11.75765 c 0.165237,-0.02298 0.303675,-0.148739 0.346145,-0.314436 0.01386,-0.05407 0.01392,-0.157261 1.06e-4,-0.209948 -0.03116,-0.11901 -0.117406,-0.227273 -0.220396,-0.276663 -0.102344,-0.04908 -0.203677,-0.05586 -0.30639,-0.0205 -0.168877,0.05813 -0.280236,0.217932 -0.280236,0.402139 0,0.229597 0.171523,0.412251 0.399386,0.425305 0.0074,4.38e-4 0.03501,-0.0022 0.06137,-0.0059 z M 2.829518,11.70569 c 0.145621,-0.02786 0.264914,-0.13548 0.31421,-0.283458 0.07415,-0.222572 -0.04875,-0.466182 -0.271811,-0.538817 -0.07057,-0.02298 -0.163968,-0.02299 -0.23478,-2e-5 -0.287778,0.09334 -0.386408,0.450192 -0.189906,0.687089 0.05086,0.06132 0.145421,0.117272 0.227086,0.134375 0.05669,0.01187 0.09639,0.01208 0.155201,8.37e-4 z"
     style="fill:#aa8800;fill-opacity:1;stroke:#c87137;stroke-width:0.006175;stroke-opacity:0.02617804"
     inkscape:connector-curvature="0" />
  <path
     id="path1001-5"
     d="m 3.107414,12.582642 -0.07944,-0.177335 -0.152165,0.0077 c -0.08369,0.0042 -0.183342,0.01082 -0.221448,0.01468 l -0.06928,0.007 0.03861,-0.04204 c 0.181459,-0.197606 0.232229,-0.25561 0.232229,-0.265311 0,-0.0062 -0.05099,-0.07751 -0.11332,-0.158519 -0.09268,-0.120464 -0.109007,-0.147984 -0.08964,-0.15112 0.01302,-0.0021 0.107951,0.0079 0.210946,0.02216 0.219069,0.03041 0.181584,0.05104 0.302275,-0.166342 0.0452,-0.08141 0.08381,-0.148014 0.0858,-0.148014 0.002,0 0.03938,0.07984 0.0831,0.177419 l 0.07948,0.177418 0.177321,-0.0079 c 0.09753,-0.0043 0.197161,-0.01097 0.221411,-0.01477 l 0.04409,-0.0069 -0.0266,0.02946 c -0.01463,0.0162 -0.07557,0.0833 -0.135418,0.149117 -0.05985,0.06581 -0.108813,0.124148 -0.108813,0.129633 0,0.0055 0.05119,0.07776 0.11376,0.160622 0.101543,0.13447 0.110573,0.150651 0.08407,0.150651 -0.02534,0 -0.18378,-0.01974 -0.351373,-0.04378 l -0.04647,-0.0067 -0.0967,0.170083 c -0.05319,0.09355 -0.09811,0.170086 -0.09984,0.170086 -0.0017,0 -0.03889,-0.0798 -0.08258,-0.177336 z"
     style="fill:#008000;fill-opacity:1;stroke:#c87137;stroke-width:0.012597;stroke-opacity:0.02617804"
     inkscape:connector-curvature="0" />
  <ellipse
     style="fill:#ffcc00;fill-opacity:1;stroke:#000000;stroke-width:0.06906971;stroke-opacity:0.02617804"
     id="ellipse1003-2"
     cx="6.6799583"
     cy="12.131958"
     rx="1.6795928"
     ry="1.5508149" />
  <ellipse
     style="fill:#ffdd55;fill-opacity:1;stroke:#000000;stroke-width:0.06906971;stroke-opacity:0.02617804"
     id="ellipse1005-5"
     cx="6.2223854"
     cy="11.301754"
     rx="0.41647327"
     ry="0.43017307" />
  <ellipse
     ry="0.43017307"
     rx="0.41647327"
     cy="11.351074"
     cx="7.2252159"
     id="ellipse1007-4"
     style="fill:#ffdd55;fill-opacity:1;stroke:#000000;stroke-width:0.06906971;stroke-opacity:0.02617804" />
  <ellipse
     style="fill:#ffdd55;fill-opacity:1;stroke:#000000;stroke-width:0.06906971;stroke-opacity:0.02617804"
     id="ellipse1009-7"
     cx="7.7677193"
     cy="12.200459"
     rx="0.41647327"
     ry="0.43017307" />
  <ellipse
     ry="0.43017307"
     rx="0.41647327"
     cy="13.011486"
     cx="7.1265755"
     id="ellipse1011-4"
     style="fill:#ffdd55;fill-opacity:1;stroke:#000000;stroke-width:0.06906971;stroke-opacity:0.02617804" />
  <ellipse
     style="fill:#ffdd55;fill-opacity:1;stroke:#000000;stroke-width:0.06906971;stroke-opacity:0.02617804"
     id="ellipse1013-4"
     cx="6.1401863"
     cy="12.995045"
     rx="0.41647327"
     ry="0.43017307" />
  <ellipse
     ry="0.43017307"
     rx="0.41647327"
     cy="12.194981"
     cx="5.5757561"
     id="ellipse1015-3"
     style="fill:#ffdd55;fill-opacity:1;stroke:#000000;stroke-width:0.06906971;stroke-opacity:0.02617804" />
  <path
     style="fill:#aad400;fill-opacity:1;stroke:#000000;stroke-width:0.05979215;stroke-opacity:0.02617804"
     id="path1017-0"
     d="m 7.315603,12.516335 -0.449812,-0.06089 -0.202289,0.356588 -0.164611,-0.371117 -0.454263,0.02509 0.285201,-0.310229 -0.251975,-0.331499 0.449812,0.06089 0.202288,-0.356587 0.164612,0.371116 0.454263,-0.02509 -0.285202,0.310227 z"
     inkscape:connector-curvature="0" />
  <path
     style="fill:#aa8800;fill-opacity:1;stroke:#c87137;stroke-width:0.00627907;stroke-opacity:0.02617804"
     d="M 6.526922,13.674009 C 6.234457,13.650219 5.947157,13.550836 5.704365,13.389478 5.599167,13.319568 5.532858,13.265604 5.449849,13.182351 5.068386,12.799777 4.920682,12.281784 5.048259,11.773992 c 0.02365,-0.09415 0.05732,-0.183357 0.107101,-0.283814 0.08106,-0.163577 0.177609,-0.295049 0.312218,-0.425163 0.260888,-0.252177 0.580876,-0.406657 0.962019,-0.464434 0.08873,-0.01345 0.316061,-0.01849 0.415336,-0.0092 0.303364,0.02836 0.584158,0.128177 0.827919,0.294299 0.353414,0.240849 0.583089,0.58417 0.660335,0.987076 0.02208,0.115167 0.02754,0.315595 0.01193,0.438212 -0.03408,0.267769 -0.148051,0.532666 -0.320839,0.745728 -0.350484,0.432175 -0.91457,0.664732 -1.497356,0.61732 z m 0.727336,-0.252435 c 0.065,-0.02236 0.109955,-0.05074 0.160942,-0.101597 0.13469,-0.134341 0.166122,-0.330556 0.08088,-0.504898 -0.05309,-0.108575 -0.160933,-0.196765 -0.272896,-0.223158 -0.04572,-0.01078 -0.13953,-0.01235 -0.181377,-0.003 -0.20089,0.04468 -0.343882,0.2384 -0.330993,0.448422 0.0058,0.09513 0.04115,0.184052 0.103143,0.259703 0.04995,0.06096 0.143772,0.11834 0.222983,0.136375 0.05957,0.01356 0.159342,0.0081 0.217319,-0.0118 z m -1.017354,-0.0074 c 0.116015,-0.02735 0.220068,-0.112975 0.274559,-0.225935 0.04414,-0.0915 0.05627,-0.179049 0.038,-0.274157 -0.04505,-0.234525 -0.262382,-0.386837 -0.487431,-0.34161 -0.205743,0.04135 -0.348399,0.229851 -0.337265,0.445655 0.006,0.117242 0.04429,0.201624 0.129764,0.286307 0.0581,0.05757 0.106498,0.08673 0.177691,0.10709 0.04972,0.01422 0.150109,0.01552 0.20468,0.0026 z M 6.762388,12.641 c 0.0518,-0.09189 0.09701,-0.170837 0.100465,-0.175442 0.0052,-0.0069 0.04566,-0.003 0.227847,0.02165 0.164033,0.02222 0.220763,0.02792 0.218468,0.02194 -0.0017,-0.0044 -0.05717,-0.079 -0.123253,-0.165682 -0.118687,-0.155679 -0.120012,-0.15776 -0.108585,-0.170575 0.0064,-0.0071 0.07005,-0.07678 0.141538,-0.15477 0.07148,-0.07799 0.129189,-0.142578 0.128236,-0.143532 -9.56e-4,-9.56e-4 -0.102831,0.0041 -0.226396,0.01116 -0.123567,0.0071 -0.225316,0.01202 -0.226113,0.01095 -7.94e-4,-0.0011 -0.03783,-0.08446 -0.08231,-0.185305 -0.04447,-0.100848 -0.08236,-0.18186 -0.08419,-0.180027 -0.0018,0.0018 -0.04763,0.08151 -0.101763,0.177065 l -0.09843,0.173733 -0.0209,-0.0022 c -0.01149,-0.0012 -0.111243,-0.01444 -0.221664,-0.02945 -0.110419,-0.01501 -0.20196,-0.0261 -0.203425,-0.02463 -0.0023,0.0023 0.0609,0.08726 0.208723,0.280633 l 0.03711,0.04854 -0.04724,0.05192 c -0.02598,0.02856 -0.0899,0.09836 -0.142039,0.155123 -0.05214,0.05676 -0.09415,0.103803 -0.09335,0.104538 7.93e-4,7.32e-4 0.09187,-0.0039 0.202381,-0.01034 0.110512,-0.0064 0.212271,-0.01179 0.226133,-0.01192 l 0.0252,-3.13e-4 0.08059,0.182092 c 0.04433,0.100152 0.08243,0.182029 0.08468,0.181951 0.0023,-1.25e-4 0.04647,-0.07532 0.09828,-0.167212 z M 7.89257,12.61078 c 0.144368,-0.04846 0.24778,-0.164191 0.281846,-0.315409 0.05558,-0.246745 -0.116107,-0.496154 -0.359442,-0.522156 -0.176792,-0.01889 -0.340549,0.07277 -0.418549,0.234281 -0.07427,0.153792 -0.05776,0.324956 0.04448,0.460962 0.05385,0.07164 0.151736,0.134278 0.241818,0.154751 0.06026,0.01369 0.147402,0.0085 0.209847,-0.01243 z m -2.230259,0.0054 c 0.183435,-0.04071 0.317195,-0.201331 0.329093,-0.395193 0.01265,-0.206079 -0.12644,-0.399939 -0.319617,-0.445481 -0.05078,-0.01197 -0.141504,-0.01197 -0.192286,0 -0.115799,0.0273 -0.219134,0.11224 -0.274571,0.225696 -0.06577,0.134601 -0.0605,0.289374 0.01422,0.4177 0.02882,0.0495 0.09959,0.121487 0.146785,0.149299 0.09001,0.05305 0.19613,0.07023 0.296379,0.04798 z m 1.615686,-0.838143 c 0.168022,-0.02337 0.308794,-0.151246 0.351979,-0.319734 0.01409,-0.05498 0.01415,-0.159912 1.25e-4,-0.213488 C 7.598411,11.1238 7.510716,11.013712 7.40599,10.96349 7.301922,10.91358 7.198881,10.90669 7.094436,10.94264 c -0.171722,0.05911 -0.284958,0.221605 -0.284958,0.408916 0,0.233466 0.174413,0.419198 0.406116,0.432472 0.0075,4.38e-4 0.0356,-0.0023 0.0624,-0.006 z m -0.979422,-0.05284 c 0.148076,-0.02833 0.269379,-0.137763 0.319506,-0.288235 0.0754,-0.226322 -0.04957,-0.474038 -0.276392,-0.547898 -0.07176,-0.02337 -0.166731,-0.02338 -0.238736,-1.9e-5 -0.292628,0.09492 -0.39292,0.457778 -0.193107,0.698667 0.05172,0.06235 0.147872,0.11925 0.230914,0.13664 0.05765,0.01207 0.09801,0.01229 0.157815,8.5e-4 z"
     id="path1019-7"
     inkscape:connector-curvature="0" />
  <path
     style="fill:#008000;fill-opacity:1;stroke:#c87137;stroke-width:0.0128093;stroke-opacity:0.02617804"
     d="m 6.581155,12.616956 -0.08078,-0.180324 -0.154729,0.0078 c -0.0851,0.0043 -0.186433,0.011 -0.22518,0.01492 l -0.07045,0.0071 0.03926,-0.04275 c 0.184517,-0.200936 0.236143,-0.259916 0.236143,-0.269783 0,-0.0063 -0.05185,-0.07881 -0.11523,-0.161189 -0.09425,-0.122495 -0.110844,-0.150479 -0.09115,-0.153667 0.01324,-0.0021 0.109771,0.008 0.214502,0.02253 0.22276,0.03092 0.184644,0.0519 0.307368,-0.169145 0.04596,-0.08278 0.08522,-0.150509 0.08725,-0.150509 0.002,0 0.04005,0.08118 0.0845,0.18041 l 0.08082,0.180408 0.180309,-0.008 c 0.09917,-0.0044 0.200485,-0.01116 0.225143,-0.01502 l 0.04483,-0.007 -0.02705,0.02995 c -0.01488,0.01647 -0.07685,0.08471 -0.137701,0.15163 -0.06086,0.06692 -0.110646,0.12624 -0.110646,0.131818 0,0.0056 0.05206,0.07907 0.115677,0.163329 0.103255,0.136735 0.112437,0.15319 0.08549,0.15319 -0.02577,0 -0.186878,-0.02007 -0.357294,-0.04451 l -0.04725,-0.0068 -0.09833,0.17295 c -0.05408,0.09512 -0.09977,0.172952 -0.101522,0.172952 -0.0018,0 -0.03954,-0.08115 -0.08397,-0.180324 z"
     id="path1021-8"
     inkscape:connector-curvature="0" />
  <ellipse
     style="fill:#ffcc00;fill-opacity:1;stroke:#000000;stroke-width:0.06906971;stroke-opacity:0.02617804"
     id="ellipse1042"
     cx="4.9943581"
     cy="7.662262"
     rx="1.6795928"
     ry="1.5508149" />
  <ellipse
     style="fill:#ffdd55;fill-opacity:1;stroke:#000000;stroke-width:0.06906971;stroke-opacity:0.02617804"
     id="ellipse1044"
     cx="4.5367851"
     cy="6.832058"
     rx="0.41647327"
     ry="0.43017307" />
  <ellipse
     ry="0.43017307"
     rx="0.41647327"
     cy="6.8813782"
     cx="5.539608"
     id="ellipse1046"
     style="fill:#ffdd55;fill-opacity:1;stroke:#000000;stroke-width:0.06906971;stroke-opacity:0.02617804" />
  <ellipse
     style="fill:#ffdd55;fill-opacity:1;stroke:#000000;stroke-width:0.06906971;stroke-opacity:0.02617804"
     id="ellipse1048"
     cx="6.082119"
     cy="7.7307625"
     rx="0.41647327"
     ry="0.43017307" />
  <ellipse
     ry="0.43017307"
     rx="0.41647327"
     cy="8.54179"
     cx="5.4409676"
     id="ellipse1050"
     style="fill:#ffdd55;fill-opacity:1;stroke:#000000;stroke-width:0.06906971;stroke-opacity:0.02617804" />
  <ellipse
     style="fill:#ffdd55;fill-opacity:1;stroke:#000000;stroke-width:0.06906971;stroke-opacity:0.02617804"
     id="ellipse1052"
     cx="4.454586"
     cy="8.5253487"
     rx="0.41647327"
     ry="0.43017307" />
  <ellipse
     ry="0.43017307"
     rx="0.41647327"
     cy="7.7252846"
     cx="3.8901482"
     id="ellipse1054"
     style="fill:#ffdd55;fill-opacity:1;stroke:#000000;stroke-width:0.06906971;stroke-opacity:0.02617804" />
  <path
     style="fill:#aad400;fill-opacity:1;stroke:#000000;stroke-width:0.05979215;stroke-opacity:0.02617804"
     id="path1056"
     d="m 5.629996,8.0466382 -0.449812,-0.06089 -0.202288,0.356589 -0.164611,-0.371117 -0.454263,0.02509 0.285201,-0.310228 -0.251975,-0.3315 0.449812,0.06089 0.202288,-0.356587 0.164611,0.371117 0.454264,-0.02509 -0.285202,0.310228 z"
     inkscape:connector-curvature="0" />
  <path
     style="fill:#aa8800;fill-opacity:1;stroke:#c87137;stroke-width:0.00627907;stroke-opacity:0.02617804"
     d="M 4.841316,9.2043112 C 4.548851,9.1805212 4.261551,9.0811392 4.018758,8.9197812 3.913561,8.8498712 3.847252,8.7959072 3.764243,8.7126542 3.38278,8.3300792 3.235076,7.8120872 3.362653,7.3042952 c 0.02365,-0.09415 0.05732,-0.183357 0.107101,-0.283814 0.08106,-0.163577 0.177609,-0.295048 0.312218,-0.425163 0.260888,-0.252177 0.580876,-0.406657 0.962019,-0.464434 0.08873,-0.01345 0.316061,-0.01849 0.415335,-0.0092 0.303365,0.02836 0.584159,0.128177 0.82792,0.294299 0.353413,0.240848 0.583089,0.58417 0.660334,0.987076 0.02208,0.115167 0.02754,0.315595 0.01193,0.438212 -0.03408,0.267769 -0.148051,0.532667 -0.320839,0.745729 -0.350483,0.432174 -0.91457,0.664731 -1.497355,0.617318 z m 0.727335,-0.252434 c 0.065,-0.02236 0.109955,-0.05074 0.160943,-0.101596 0.13469,-0.134342 0.166122,-0.330557 0.08088,-0.504899 -0.05308,-0.108574 -0.160933,-0.196765 -0.272897,-0.223158 -0.04572,-0.01078 -0.139529,-0.01235 -0.181376,-0.003 -0.20089,0.04468 -0.343882,0.238399 -0.330994,0.448421 0.0058,0.09513 0.04115,0.184052 0.103143,0.259703 0.04995,0.06096 0.143772,0.118339 0.222984,0.136376 0.05957,0.01356 0.159342,0.0081 0.217318,-0.0118 z m -1.017353,-0.0074 c 0.116015,-0.02735 0.220068,-0.112975 0.274559,-0.225935 0.04414,-0.0915 0.05627,-0.17905 0.038,-0.274159 -0.04505,-0.234525 -0.262382,-0.386836 -0.487431,-0.341608 -0.205743,0.04135 -0.348399,0.22985 -0.337265,0.445654 0.0061,0.117242 0.04429,0.201624 0.129764,0.286308 0.0581,0.05757 0.106498,0.08673 0.177691,0.107089 0.04972,0.01422 0.150108,0.01552 0.20468,0.0026 z m 0.525484,-0.773175 c 0.0518,-0.09189 0.09701,-0.170837 0.100464,-0.175442 0.0052,-0.0069 0.04566,-0.003 0.227848,0.02165 0.164032,0.02222 0.220763,0.02792 0.218468,0.02194 -0.0017,-0.0044 -0.05717,-0.079 -0.123253,-0.165682 -0.118687,-0.155678 -0.120012,-0.15776 -0.108585,-0.170575 0.0064,-0.0071 0.07005,-0.07678 0.141538,-0.154771 0.07148,-0.07799 0.129189,-0.142577 0.128236,-0.143531 -9.56e-4,-9.56e-4 -0.102832,0.0041 -0.226397,0.01116 -0.123566,0.0071 -0.225315,0.01202 -0.226112,0.01095 -7.94e-4,-0.0011 -0.03784,-0.08446 -0.08231,-0.185305 -0.04447,-0.100848 -0.08236,-0.18186 -0.08419,-0.180028 -0.0018,0.0018 -0.04763,0.08151 -0.101763,0.177066 l -0.09843,0.173733 -0.0209,-0.0022 c -0.01149,-0.0012 -0.111243,-0.01444 -0.221664,-0.02945 -0.110419,-0.01501 -0.20196,-0.0261 -0.203425,-0.02463 -0.0023,0.0023 0.0609,0.08726 0.208723,0.280633 l 0.03711,0.04855 -0.04724,0.05192 c -0.02598,0.02856 -0.0899,0.09836 -0.142039,0.155123 -0.05214,0.05676 -0.09415,0.103803 -0.09335,0.104539 7.93e-4,7.31e-4 0.09187,-0.0039 0.202381,-0.01034 0.110512,-0.0064 0.212271,-0.01179 0.226133,-0.01192 l 0.0252,-3.13e-4 0.08059,0.182092 c 0.04433,0.100152 0.08243,0.182029 0.08468,0.181951 0.0023,-1.25e-4 0.04647,-0.07532 0.09828,-0.167212 z m 1.130182,-0.03022 c 0.144368,-0.04846 0.24778,-0.164191 0.281845,-0.315408 0.05558,-0.246745 -0.116106,-0.496156 -0.359441,-0.522157 -0.176792,-0.01889 -0.340549,0.07277 -0.418549,0.234281 -0.07428,0.153793 -0.05776,0.324956 0.04448,0.460962 0.05385,0.07163 0.151736,0.134279 0.241817,0.154751 0.06026,0.01369 0.147403,0.0085 0.209848,-0.012429 z m -2.230259,0.0054 c 0.183435,-0.0407 0.317195,-0.201331 0.329093,-0.395192 0.01265,-0.20608 -0.12644,-0.39994 -0.319617,-0.445482 -0.05078,-0.01197 -0.141504,-0.01197 -0.192286,0 -0.115799,0.0273 -0.219134,0.11224 -0.274571,0.225697 -0.06577,0.1346 -0.0605,0.289373 0.01422,0.4177 0.02882,0.0495 0.09959,0.121485 0.146786,0.149298 0.09,0.05304 0.19613,0.07023 0.296379,0.04798 z m 1.615686,-0.838143 c 0.168022,-0.02337 0.308793,-0.151246 0.351978,-0.319735 0.01409,-0.05498 0.01415,-0.159912 1.25e-4,-0.213487 -0.03169,-0.121015 -0.119384,-0.231103 -0.22411,-0.281325 -0.104068,-0.0499 -0.20711,-0.0568 -0.311554,-0.02085 -0.171722,0.05911 -0.284959,0.221605 -0.284959,0.408916 0,0.233466 0.174414,0.419198 0.406117,0.432472 0.0075,4.38e-4 0.0356,-0.0023 0.0624,-0.006 z m -0.979422,-0.05284 c 0.148076,-0.02833 0.269379,-0.137763 0.319506,-0.288235 0.0754,-0.226323 -0.04957,-0.474038 -0.276392,-0.547898 -0.07176,-0.02337 -0.166731,-0.02338 -0.238736,-1.9e-5 -0.292628,0.09492 -0.392921,0.457778 -0.193107,0.698668 0.05172,0.06235 0.147872,0.119249 0.230914,0.136639 0.05765,0.01207 0.09801,0.01229 0.157815,8.5e-4 z"
     id="path1058"
     inkscape:connector-curvature="0" />
  <path
     style="fill:#008000;fill-opacity:1;stroke:#c87137;stroke-width:0.0128093;stroke-opacity:0.02617804"
     d="m 4.895549,8.1472582 -0.08078,-0.180323 -0.154729,0.0078 c -0.0851,0.0043 -0.186433,0.011 -0.22518,0.01492 l -0.07045,0.0071 0.03926,-0.04275 c 0.184517,-0.200937 0.236143,-0.259918 0.236143,-0.269783 0,-0.0063 -0.05185,-0.07882 -0.11523,-0.16119 -0.09425,-0.122495 -0.110844,-0.150479 -0.09115,-0.153667 0.01324,-0.0021 0.109771,0.008 0.214502,0.02253 0.22276,0.03092 0.184644,0.0519 0.307368,-0.169145 0.04596,-0.08278 0.08522,-0.150509 0.08724,-0.150509 0.002,0 0.04005,0.08118 0.0845,0.18041 l 0.08082,0.180408 0.180309,-0.008 c 0.09917,-0.0044 0.200485,-0.01116 0.225143,-0.01502 l 0.04483,-0.007 -0.02705,0.02995 c -0.01488,0.01647 -0.07684,0.08471 -0.1377,0.15163 -0.06086,0.06692 -0.110646,0.126241 -0.110646,0.131819 0,0.0056 0.05205,0.07907 0.115677,0.163328 0.103254,0.136735 0.112437,0.153189 0.08549,0.153189 -0.02577,0 -0.186878,-0.02007 -0.357295,-0.04451 l -0.04725,-0.0068 -0.09833,0.17295 c -0.05408,0.09512 -0.09977,0.172952 -0.101522,0.172952 -0.0018,0 -0.03954,-0.08115 -0.08397,-0.180325 z"
     id="path1060"
     inkscape:connector-curvature="0" />
</svg>
