<?xml version="1.0" encoding="UTF-8" standalone="no"?>
<svg
   xmlns:dc="http://purl.org/dc/elements/1.1/"
   xmlns:cc="http://creativecommons.org/ns#"
   xmlns:rdf="http://www.w3.org/1999/02/22-rdf-syntax-ns#"
   xmlns:svg="http://www.w3.org/2000/svg"
   xmlns="http://www.w3.org/2000/svg"
   xmlns:xlink="http://www.w3.org/1999/xlink"
   xmlns:sodipodi="http://sodipodi.sourceforge.net/DTD/sodipodi-0.dtd"
   xmlns:inkscape="http://www.inkscape.org/namespaces/inkscape"
   version="1.1"
   id="svg815"
   width="160"
   height="250"
   viewBox="0 0 160 250"
   sodipodi:docname="golds04.svg"
   inkscape:version="0.92.5 (2060ec1f9f, 2020-04-08)">
  <sodipodi:namedview
     pagecolor="#ffffff"
     bordercolor="#666666"
     borderopacity="1"
     objecttolerance="10"
     gridtolerance="10"
     guidetolerance="10"
     inkscape:pageopacity="0"
     inkscape:pageshadow="2"
     inkscape:window-width="1918"
     inkscape:window-height="1017"
     id="namedview10447"
     showgrid="false"
     inkscape:zoom="12.754054"
     inkscape:cx="57.421216"
     inkscape:cy="241.36364"
     inkscape:window-x="0"
     inkscape:window-y="0"
     inkscape:window-maximized="1"
     inkscape:current-layer="svg815"
     inkscape:snap-page="true" />
  <metadata
     id="metadata821">
    <rdf:RDF>
      <cc:Work
         rdf:about="">
        <dc:format>image/svg+xml</dc:format>
        <dc:type
           rdf:resource="http://purl.org/dc/dcmitype/StillImage" />
        <dc:title></dc:title>
      </cc:Work>
    </rdf:RDF>
  </metadata>
  <defs
     id="defs819">
    <linearGradient
       gradientUnits="userSpaceOnUse"
       y2="71.008263"
       x2="88.849586"
       y1="58.644627"
       x1="82.105782"
       id="linearGradient1063"
       xlink:href="#linearGradient882"
       gradientTransform="matrix(0.0625,0,0,0.0625,90.000002,-2.4462891e-7)" />
    <linearGradient
       id="linearGradient882">
      <stop
         style="stop-color:#d16208;stop-opacity:1"
         offset="0"
         id="stop878" />
      <stop
         style="stop-color:#d16250;stop-opacity:0;"
         offset="1"
         id="stop880" />
    </linearGradient>
    <linearGradient
       gradientUnits="userSpaceOnUse"
       y2="68.472336"
       x2="56.128345"
       y1="63.697319"
       x1="61.166279"
       id="linearGradient876"
       xlink:href="#linearGradient882"
       gradientTransform="matrix(0.0625,0,0,0.0625,90.000002,-2.4462891e-7)" />
    <linearGradient
       xlink:href="#linearGradient846"
       id="linearGradient848"
       x1="72.37397"
       y1="53.171356"
       x2="72.19931"
       y2="45.564011"
       gradientUnits="userSpaceOnUse"
       gradientTransform="matrix(0.0625,0,0,0.0625,110,-4.9804688e-7)" />
    <linearGradient
       id="linearGradient846">
      <stop
         style="stop-color:#423abf;stop-opacity:1;"
         offset="0"
         id="stop842" />
      <stop
         style="stop-color:#423abf;stop-opacity:0;"
         offset="1"
         id="stop844" />
    </linearGradient>
  </defs>
  <flowRoot
     style="font-style:normal;font-variant:normal;font-weight:bold;font-stretch:normal;font-size:1px;line-height:1.25;font-family:'DejaVu Sans';-inkscape-font-specification:'DejaVu Sans Bold';letter-spacing:0px;word-spacing:0px;fill:#000000;fill-opacity:1;stroke:none;stroke-width:0.0625"
     id="flowRoot100"
     xml:space="preserve"><flowRegion
       style="stroke-width:0.0625"
       id="flowRegion102"><rect
         style="stroke-width:0.00390625"
         y="0.73863637"
         x="0.66287881"
         height="1.3636364"
         width="1.5151515"
         id="rect104" /></flowRegion><flowPara
       style="stroke-width:0.0625"
       id="flowPara106" /></flowRoot>  <rect
     style="fill:#ffffff;fill-opacity:1;stroke:#1a1a1a;stroke-width:0.0625;stroke-opacity:1"
     id="golds04"
     width="10"
     height="15.625"
     x="0"
     y="0" />
  <rect
     style="fill:none;fill-opacity:1;stroke:#1a1a1a;stroke-width:0.0625;stroke-opacity:1"
     id="rect108-62"
     width="7.2537889"
     height="12.973484"
     x="1.3446999"
     y="1.306818" />
  <g
     id="flowRoot915-6"
     style="font-style:normal;font-variant:normal;font-weight:bold;font-stretch:normal;font-size:16px;line-height:1.25;font-family:'DejaVu Sans';-inkscape-font-specification:'DejaVu Sans Bold';text-align:start;letter-spacing:0px;word-spacing:0px;text-anchor:start;fill:#000000;fill-opacity:1;stroke:none"
     transform="matrix(0.0625,0,0,0.0625,0.189395,2.3828125e-7)"
     aria-label="4">
    <path
       id="path715"
       d="M 8.921875,9.5136719 5.625,14.396484 h 3.296875 z m -0.5,-2.4765625 h 3.34375 v 7.3593746 h 1.664063 v 2.179688 h -1.664063 v 2.125 h -2.84375 v -2.125 H 3.75 v -2.578125 z"
       inkscape:connector-curvature="0" />
  </g>
  <ellipse
     style="fill:#ffcc00;fill-opacity:1;stroke:#000000;stroke-width:0.06792499;stroke-opacity:0.02617804"
     id="ellipse924-1"
     cx="3.20158"
     cy="3.2609882"
     rx="1.6517562"
     ry="1.5251124" />
  <ellipse
     style="fill:#ffdd55;fill-opacity:1;stroke:#000000;stroke-width:0.06792499;stroke-opacity:0.02617804"
     id="ellipse926-8"
     cx="2.7515907"
     cy="2.4445419"
     rx="0.40957084"
     ry="0.42304361" />
  <ellipse
     ry="0.42304361"
     rx="0.40957084"
     cy="2.4930439"
     cx="3.7377968"
     id="ellipse928-7"
     style="fill:#ffdd55;fill-opacity:1;stroke:#000000;stroke-width:0.06792499;stroke-opacity:0.02617804" />
  <ellipse
     style="fill:#ffdd55;fill-opacity:1;stroke:#000000;stroke-width:0.06792499;stroke-opacity:0.02617804"
     id="ellipse930-9"
     cx="4.2713127"
     cy="3.328352"
     rx="0.40957084"
     ry="0.42304361" />
  <ellipse
     ry="0.42304361"
     rx="0.40957084"
     cy="4.1259365"
     cx="3.640789"
     id="ellipse932-2"
     style="fill:#ffdd55;fill-opacity:1;stroke:#000000;stroke-width:0.06792499;stroke-opacity:0.02617804" />
  <ellipse
     style="fill:#ffdd55;fill-opacity:1;stroke:#000000;stroke-width:0.06792499;stroke-opacity:0.02617804"
     id="ellipse934-0"
     cx="2.6707535"
     cy="4.1097698"
     rx="0.40957084"
     ry="0.42304361" />
  <ellipse
     ry="0.42304361"
     rx="0.40957084"
     cy="3.3229637"
     cx="2.1156769"
     id="ellipse936-2"
     style="fill:#ffdd55;fill-opacity:1;stroke:#000000;stroke-width:0.06792499;stroke-opacity:0.02617804" />
  <path
     style="fill:#aad400;fill-opacity:1;stroke:#000000;stroke-width:0.05880119;stroke-opacity:0.02617804"
     id="path938-3"
     d="m 3.826687,3.6389922 -0.442357,-0.05988 -0.198936,0.350679 -0.161882,-0.364967 -0.446735,0.02467 0.280475,-0.305086 -0.2478,-0.326006 0.442358,0.05988 0.198935,-0.350677 0.161883,0.364966 0.446734,-0.02467 -0.280475,0.305086 z"
     inkscape:connector-curvature="0" />
  <path
     style="fill:#aa8800;fill-opacity:1;stroke:#c87137;stroke-width:0.006175;stroke-opacity:0.02617804"
     d="M 3.051078,4.7774792 C 2.76346,4.7540792 2.480921,4.6563482 2.242153,4.4976642 2.138699,4.4289142 2.07349,4.3758432 1.991855,4.2939702 1.616715,3.9177372 1.471459,3.4083292 1.596922,2.9089522 c 0.02326,-0.09259 0.05637,-0.180317 0.105326,-0.27911 0.07972,-0.160866 0.174665,-0.290158 0.307043,-0.418116 0.256564,-0.247998 0.571249,-0.399917 0.946075,-0.456736 0.08726,-0.01323 0.310823,-0.01818 0.408452,-0.0091 0.298336,0.02789 0.574477,0.126053 0.814198,0.289421 0.347556,0.236857 0.573426,0.574489 0.649391,0.970717 0.02171,0.113259 0.02708,0.310364 0.01173,0.430949 -0.03352,0.263331 -0.145597,0.523839 -0.315522,0.73337 -0.344675,0.425011 -0.899412,0.653714 -1.472539,0.607087 z m 0.715281,-0.248251 c 0.06392,-0.02199 0.108133,-0.0499 0.158275,-0.09991 0.132458,-0.132115 0.163369,-0.325078 0.07954,-0.496531 -0.05221,-0.106775 -0.158265,-0.193504 -0.268373,-0.219459 -0.04496,-0.0106 -0.137217,-0.01215 -0.17837,-0.003 -0.197561,0.04394 -0.338183,0.234449 -0.325508,0.440989 0.0057,0.09356 0.04047,0.181002 0.101434,0.255399 0.04912,0.05995 0.141388,0.116379 0.219287,0.134116 0.05858,0.01334 0.156701,0.008 0.213717,-0.01161 z m -1.000493,-0.0073 c 0.114093,-0.0269 0.216421,-0.111103 0.270009,-0.222191 0.04341,-0.08998 0.05534,-0.176081 0.03737,-0.269614 -0.04431,-0.230638 -0.258034,-0.380425 -0.479353,-0.335947 -0.202333,0.04066 -0.342625,0.226041 -0.331675,0.438268 0.0059,0.115299 0.04356,0.198283 0.127613,0.281563 0.05714,0.05661 0.104733,0.0853 0.174745,0.105315 0.0489,0.01398 0.147622,0.01526 0.201288,0.0026 z m 0.516775,-0.76036 c 0.05094,-0.09037 0.0954,-0.168006 0.0988,-0.172534 0.0051,-0.0068 0.0449,-0.003 0.224071,0.02129 0.161314,0.02185 0.217104,0.02746 0.214848,0.02157 -0.0017,-0.0044 -0.05622,-0.07769 -0.121211,-0.162936 -0.11672,-0.153098 -0.118023,-0.155145 -0.106785,-0.167748 0.0063,-0.007 0.06889,-0.07551 0.139191,-0.152205 0.0703,-0.0767 0.127049,-0.140215 0.126112,-0.141153 -9.4e-4,-9.42e-4 -0.101128,0.004 -0.222645,0.01098 -0.121517,0.007 -0.221581,0.01182 -0.222365,0.01077 -7.83e-4,-0.0011 -0.03721,-0.08306 -0.08094,-0.182235 -0.04373,-0.09918 -0.08099,-0.178846 -0.08279,-0.177043 -0.0018,0.0018 -0.04684,0.08016 -0.100077,0.174131 l -0.0968,0.170853 -0.02055,-0.0021 c -0.0113,-0.0012 -0.109399,-0.0142 -0.217989,-0.02896 -0.10859,-0.01476 -0.198615,-0.02567 -0.200055,-0.02423 -0.0023,0.0023 0.05989,0.08581 0.205264,0.275981 l 0.03649,0.04774 -0.04646,0.05106 c -0.02555,0.02808 -0.08841,0.09673 -0.139685,0.152551 -0.05128,0.05582 -0.09259,0.102083 -0.0918,0.102806 7.8e-4,7.18e-4 0.09035,-0.0038 0.199026,-0.01017 0.10868,-0.0063 0.208753,-0.01159 0.222385,-0.01173 l 0.02479,-3e-4 0.07926,0.179075 c 0.04359,0.09849 0.08107,0.179012 0.08328,0.178935 0.0022,-1.19e-4 0.0457,-0.07407 0.09665,-0.164441 z m 1.111451,-0.02972 c 0.141975,-0.04766 0.243673,-0.16147 0.277175,-0.310182 0.05466,-0.242655 -0.114182,-0.487932 -0.353485,-0.513502 -0.173861,-0.01858 -0.334905,0.07157 -0.411612,0.230398 -0.07304,0.151244 -0.0568,0.31957 0.04374,0.453322 0.05296,0.07045 0.149221,0.132053 0.23781,0.152187 0.05926,0.01347 0.144959,0.0084 0.206369,-0.01222 z m -2.193295,0.0054 c 0.180395,-0.04003 0.311938,-0.197994 0.323638,-0.388642 0.01244,-0.202665 -0.124344,-0.393312 -0.314319,-0.438099 -0.04994,-0.01177 -0.139159,-0.01177 -0.1891,0 -0.113879,0.02685 -0.215501,0.11038 -0.27002,0.221956 -0.06468,0.13237 -0.0595,0.284577 0.01398,0.410777 0.02834,0.04868 0.09794,0.119473 0.144353,0.146824 0.08851,0.05217 0.192879,0.06906 0.291467,0.04718 z m 1.588908,-0.824252 c 0.165237,-0.02298 0.303676,-0.148739 0.346145,-0.314436 0.01386,-0.05407 0.01392,-0.157261 1.06e-4,-0.209949 -0.03116,-0.119009 -0.117405,-0.227273 -0.220396,-0.276662 -0.102343,-0.04908 -0.203677,-0.05586 -0.30639,-0.0205 -0.168876,0.05813 -0.280235,0.217932 -0.280235,0.402139 0,0.229596 0.171522,0.41225 0.399385,0.425305 0.0074,4.12e-4 0.03501,-0.0022 0.06137,-0.0059 z m -0.963189,-0.05196 c 0.145621,-0.02786 0.264914,-0.13548 0.31421,-0.283458 0.07415,-0.222572 -0.04875,-0.466182 -0.27181,-0.538817 -0.07057,-0.02298 -0.163969,-0.02299 -0.23478,-2e-5 -0.287779,0.09334 -0.386409,0.450192 -0.189906,0.687089 0.05086,0.06132 0.14542,0.117272 0.227086,0.134374 0.05669,0.01187 0.09639,0.01208 0.1552,8.37e-4 z"
     id="path940-7"
     inkscape:connector-curvature="0" />
  <path
     style="fill:#008000;fill-opacity:1;stroke:#c87137;stroke-width:0.012597;stroke-opacity:0.02617804"
     d="m 3.104412,3.7379452 -0.07944,-0.177335 -0.152165,0.0077 c -0.08369,0.0042 -0.183342,0.01082 -0.221448,0.01468 l -0.06928,0.007 0.03861,-0.04204 c 0.181459,-0.197607 0.232229,-0.25561 0.232229,-0.265312 0,-0.0062 -0.05099,-0.07751 -0.113319,-0.158518 -0.09268,-0.120464 -0.109007,-0.147984 -0.08964,-0.15112 0.01303,-0.0021 0.107951,0.0079 0.210947,0.02216 0.219068,0.03041 0.181584,0.05104 0.302274,-0.166342 0.0452,-0.08141 0.08381,-0.148015 0.0858,-0.148015 0.002,0 0.03939,0.07984 0.0831,0.17742 l 0.07948,0.177418 0.177321,-0.0079 c 0.09753,-0.0043 0.197162,-0.01097 0.221411,-0.01477 l 0.04409,-0.0069 -0.0266,0.02946 c -0.01463,0.0162 -0.07557,0.0833 -0.135418,0.149116 -0.05985,0.06581 -0.108812,0.124149 -0.108812,0.129634 0,0.0055 0.05119,0.07776 0.11376,0.160622 0.101542,0.134469 0.110573,0.150651 0.08407,0.150651 -0.02534,0 -0.18378,-0.01974 -0.351373,-0.04378 l -0.04646,-0.0067 -0.0967,0.170083 c -0.05318,0.09355 -0.09811,0.170086 -0.09984,0.170086 -0.0017,0 -0.03889,-0.0798 -0.08258,-0.177336 z"
     id="path942-5"
     inkscape:connector-curvature="0" />
  <ellipse
     ry="1.5508149"
     rx="1.6795928"
     cy="3.2872639"
     cx="6.67696"
     id="ellipse963"
     style="fill:#ffcc00;fill-opacity:1;stroke:#000000;stroke-width:0.06906971;stroke-opacity:0.02617804" />
  <ellipse
     ry="0.43017307"
     rx="0.41647327"
     cy="2.457058"
     cx="6.2193871"
     id="ellipse965"
     style="fill:#ffdd55;fill-opacity:1;stroke:#000000;stroke-width:0.06906971;stroke-opacity:0.02617804" />
  <ellipse
     style="fill:#ffdd55;fill-opacity:1;stroke:#000000;stroke-width:0.06906971;stroke-opacity:0.02617804"
     id="ellipse967"
     cx="7.2222099"
     cy="2.5063782"
     rx="0.41647327"
     ry="0.43017307" />
  <ellipse
     ry="0.43017307"
     rx="0.41647327"
     cy="3.3557625"
     cx="7.7647209"
     id="ellipse969"
     style="fill:#ffdd55;fill-opacity:1;stroke:#000000;stroke-width:0.06906971;stroke-opacity:0.02617804" />
  <ellipse
     style="fill:#ffdd55;fill-opacity:1;stroke:#000000;stroke-width:0.06906971;stroke-opacity:0.02617804"
     id="ellipse971"
     cx="7.1235695"
     cy="4.1667881"
     rx="0.41647327"
     ry="0.43017307" />
  <ellipse
     ry="0.43017307"
     rx="0.41647327"
     cy="4.1503487"
     cx="6.137188"
     id="ellipse973"
     style="fill:#ffdd55;fill-opacity:1;stroke:#000000;stroke-width:0.06906971;stroke-opacity:0.02617804" />
  <ellipse
     style="fill:#ffdd55;fill-opacity:1;stroke:#000000;stroke-width:0.06906971;stroke-opacity:0.02617804"
     id="ellipse975"
     cx="5.5727577"
     cy="3.3502827"
     rx="0.41647327"
     ry="0.43017307" />
  <path
     d="M 7.312601,3.6716382 6.862789,3.6107482 6.6605,3.9673372 6.495889,3.5962202 l -0.454263,0.02509 0.285201,-0.310228 -0.251975,-0.3315 0.449812,0.06089 0.202288,-0.356587 0.164612,0.371116 0.454263,-0.02509 -0.285202,0.310228 z"
     id="path977"
     style="fill:#aad400;fill-opacity:1;stroke:#000000;stroke-width:0.05979215;stroke-opacity:0.02617804"
     inkscape:connector-curvature="0" />
  <path
     id="path979"
     d="M 6.523921,4.8293112 C 6.231455,4.8055212 5.944155,4.7061392 5.701363,4.5447812 5.596165,4.4748712 5.529857,4.4209072 5.446847,4.3376542 5.065384,3.9550792 4.91768,3.4370862 5.045257,2.9292942 c 0.02366,-0.09415 0.05732,-0.183356 0.107101,-0.283814 0.08106,-0.163576 0.17761,-0.295048 0.312219,-0.425162 0.260887,-0.252178 0.580876,-0.406657 0.962018,-0.464434 0.08873,-0.01345 0.316061,-0.01849 0.415336,-0.0092 0.303364,0.02836 0.584158,0.128177 0.827919,0.294298 0.353414,0.240849 0.583089,0.584171 0.660335,0.987077 0.02208,0.115167 0.02754,0.315595 0.01193,0.438211 -0.03408,0.26777 -0.148051,0.532667 -0.320839,0.745729 -0.350483,0.432174 -0.91457,0.664732 -1.497355,0.617319 z m 0.727335,-0.252434 c 0.065,-0.02236 0.109955,-0.05074 0.160942,-0.101597 0.13469,-0.134341 0.166122,-0.330556 0.08088,-0.504898 -0.05308,-0.108575 -0.160933,-0.196765 -0.272896,-0.223158 -0.04572,-0.01078 -0.13953,-0.01235 -0.181377,-0.003 -0.20089,0.04468 -0.343882,0.2384 -0.330993,0.448421 0.0058,0.09513 0.04115,0.184053 0.103143,0.259703 0.04995,0.06096 0.143772,0.11834 0.222983,0.136376 0.05957,0.01356 0.159342,0.0081 0.217319,-0.0118 z m -1.017354,-0.0074 c 0.116016,-0.02735 0.220069,-0.112975 0.274559,-0.225935 0.04414,-0.0915 0.05627,-0.179049 0.038,-0.274158 -0.04505,-0.234525 -0.262383,-0.386836 -0.487431,-0.341609 -0.205743,0.04135 -0.348399,0.229851 -0.337265,0.445655 0.0061,0.117242 0.04429,0.201624 0.129763,0.286307 0.0581,0.05757 0.106499,0.08673 0.177691,0.10709 0.04972,0.01422 0.150109,0.01552 0.20468,0.0026 z m 0.525484,-0.773174 c 0.0518,-0.09189 0.09701,-0.170837 0.100465,-0.175442 0.0052,-0.0069 0.04566,-0.003 0.227847,0.02165 0.164033,0.02222 0.220763,0.02792 0.218468,0.02194 -0.0017,-0.0044 -0.05717,-0.079 -0.123253,-0.165683 -0.118687,-0.155678 -0.120012,-0.157759 -0.108585,-0.170574 0.0064,-0.0071 0.07005,-0.07678 0.141538,-0.154771 0.07148,-0.07799 0.129189,-0.142578 0.128237,-0.143531 -9.57e-4,-9.58e-4 -0.102832,0.0041 -0.226397,0.01116 -0.123567,0.0071 -0.225316,0.01202 -0.226113,0.01095 -7.94e-4,-0.0011 -0.03783,-0.08446 -0.0823,-0.185306 -0.04447,-0.100847 -0.08236,-0.18186 -0.08419,-0.180027 -0.0018,0.0018 -0.04763,0.08151 -0.101763,0.177066 l -0.09843,0.173733 -0.0209,-0.0021 c -0.01149,-0.0012 -0.111243,-0.01444 -0.221663,-0.02945 -0.110419,-0.01501 -0.201961,-0.0261 -0.203426,-0.02463 -0.0023,0.0023 0.0609,0.08726 0.208723,0.280633 l 0.03711,0.04855 -0.04724,0.05192 c -0.02598,0.02856 -0.0899,0.09836 -0.142038,0.155123 -0.05214,0.05676 -0.09415,0.103803 -0.09335,0.104538 7.92e-4,7.3e-4 0.09187,-0.0039 0.202381,-0.01034 0.110511,-0.0064 0.212271,-0.01178 0.226133,-0.01192 l 0.0252,-3e-4 0.08059,0.182093 c 0.04433,0.100152 0.08243,0.182029 0.08468,0.181951 0.0023,-1.25e-4 0.04647,-0.07532 0.09828,-0.167213 z m 1.130182,-0.03022 c 0.144368,-0.04846 0.24778,-0.164192 0.281846,-0.315409 0.05558,-0.246745 -0.116106,-0.496155 -0.359442,-0.522156 -0.176792,-0.01889 -0.340549,0.07277 -0.418549,0.234281 -0.07427,0.153792 -0.05776,0.324956 0.04448,0.460962 0.05385,0.07163 0.151736,0.134278 0.241818,0.154751 0.06026,0.0137 0.147402,0.0085 0.209847,-0.012429 z m -2.230259,0.0054 c 0.183436,-0.0407 0.317196,-0.201331 0.329093,-0.395192 0.01265,-0.20608 -0.126439,-0.39994 -0.319616,-0.445482 -0.05078,-0.01197 -0.141504,-0.01197 -0.192287,0 -0.115799,0.0273 -0.219133,0.112241 -0.27457,0.225697 -0.06577,0.1346 -0.0605,0.289373 0.01422,0.4177 0.02882,0.0495 0.09959,0.121486 0.146786,0.149298 0.09001,0.05305 0.19613,0.07023 0.296378,0.04798 z m 1.615686,-0.838143 c 0.168023,-0.02337 0.308794,-0.151245 0.351979,-0.319735 0.01409,-0.05498 0.01415,-0.159911 1.25e-4,-0.213487 -0.03169,-0.121014 -0.119385,-0.231103 -0.224111,-0.281324 -0.104068,-0.04991 -0.207109,-0.0568 -0.311554,-0.02085 -0.171722,0.05911 -0.284958,0.221605 -0.284958,0.408916 0,0.233466 0.174413,0.419198 0.406116,0.432473 0.0075,4.18e-4 0.0356,-0.0023 0.0624,-0.006 z m -0.979421,-0.05284 c 0.148075,-0.02833 0.269378,-0.137762 0.319505,-0.288235 0.0754,-0.226322 -0.04957,-0.474038 -0.276391,-0.547897 -0.07176,-0.02337 -0.166732,-0.02338 -0.238737,-2e-5 -0.292628,0.09492 -0.39292,0.457779 -0.193106,0.698668 0.05172,0.06235 0.147871,0.119249 0.230913,0.136639 0.05765,0.01207 0.09801,0.01229 0.157816,8.5e-4 z"
     style="fill:#aa8800;fill-opacity:1;stroke:#c87137;stroke-width:0.00627907;stroke-opacity:0.02617804"
     inkscape:connector-curvature="0" />
  <path
     id="path981"
     d="m 6.578154,3.7722582 -0.08078,-0.180323 -0.154729,0.0078 c -0.0851,0.0043 -0.186432,0.011 -0.22518,0.01492 l -0.07045,0.0071 0.03926,-0.04275 c 0.184517,-0.200937 0.236143,-0.259917 0.236143,-0.269783 0,-0.0063 -0.05185,-0.07882 -0.115229,-0.161189 -0.09425,-0.122495 -0.110844,-0.150479 -0.09115,-0.153667 0.01324,-0.0021 0.10977,0.008 0.214501,0.02253 0.222761,0.03092 0.184644,0.0519 0.307369,-0.169145 0.04596,-0.08278 0.08522,-0.150509 0.08725,-0.150509 0.002,0 0.04005,0.08118 0.0845,0.180409 l 0.08082,0.180409 0.180308,-0.008 c 0.09917,-0.0044 0.200485,-0.01116 0.225143,-0.01502 l 0.04483,-0.007 -0.02705,0.02995 c -0.01488,0.01647 -0.07684,0.08471 -0.137701,0.15163 -0.06086,0.06692 -0.110645,0.12624 -0.110645,0.131818 0,0.0056 0.05206,0.07907 0.115676,0.163329 0.103255,0.136735 0.112437,0.153189 0.08549,0.153189 -0.02577,0 -0.186877,-0.02007 -0.357294,-0.04451 l -0.04725,-0.0068 -0.09833,0.17295 c -0.05408,0.09512 -0.09977,0.172952 -0.101522,0.172952 -0.0018,0 -0.03954,-0.08115 -0.08397,-0.180324 z"
     style="fill:#008000;fill-opacity:1;stroke:#c87137;stroke-width:0.0128093;stroke-opacity:0.02617804"
     inkscape:connector-curvature="0" />
  <ellipse
     ry="1.5251124"
     rx="1.6517562"
     cy="12.105686"
     cx="3.20158"
     id="ellipse983"
     style="fill:#ffcc00;fill-opacity:1;stroke:#000000;stroke-width:0.06792499;stroke-opacity:0.02617804" />
  <ellipse
     ry="0.42304361"
     rx="0.40957084"
     cy="11.289238"
     cx="2.7515907"
     id="ellipse985"
     style="fill:#ffdd55;fill-opacity:1;stroke:#000000;stroke-width:0.06792499;stroke-opacity:0.02617804" />
  <ellipse
     style="fill:#ffdd55;fill-opacity:1;stroke:#000000;stroke-width:0.06792499;stroke-opacity:0.02617804"
     id="ellipse987"
     cx="3.7377968"
     cy="11.337742"
     rx="0.40957084"
     ry="0.42304361" />
  <ellipse
     ry="0.42304361"
     rx="0.40957084"
     cy="12.17305"
     cx="4.2713127"
     id="ellipse989-9"
     style="fill:#ffdd55;fill-opacity:1;stroke:#000000;stroke-width:0.06792499;stroke-opacity:0.02617804" />
  <ellipse
     style="fill:#ffdd55;fill-opacity:1;stroke:#000000;stroke-width:0.06792499;stroke-opacity:0.02617804"
     id="ellipse991-2"
     cx="3.640789"
     cy="12.970634"
     rx="0.40957084"
     ry="0.42304361" />
  <ellipse
     ry="0.42304361"
     rx="0.40957084"
     cy="12.954464"
     cx="2.6707535"
     id="ellipse993-2"
     style="fill:#ffdd55;fill-opacity:1;stroke:#000000;stroke-width:0.06792499;stroke-opacity:0.02617804" />
  <ellipse
     style="fill:#ffdd55;fill-opacity:1;stroke:#000000;stroke-width:0.06792499;stroke-opacity:0.02617804"
     id="ellipse995-8"
     cx="2.1156769"
     cy="12.16766"
     rx="0.40957084"
     ry="0.42304361" />
  <path
     d="m 3.826687,12.483689 -0.442357,-0.05988 -0.198936,0.350678 -0.161882,-0.364966 -0.446735,0.02467 0.280475,-0.305086 -0.2478,-0.326006 0.442358,0.05988 0.198935,-0.350677 0.161883,0.364965 0.446734,-0.02467 -0.280475,0.305086 z"
     id="path997"
     style="fill:#aad400;fill-opacity:1;stroke:#000000;stroke-width:0.05880119;stroke-opacity:0.02617804"
     inkscape:connector-curvature="0" />
  <path
     id="path999-9"
     d="M 3.051078,13.622177 C 2.76346,13.598777 2.480921,13.501045 2.242153,13.342362 2.138699,13.273612 2.07349,13.22054 1.991855,13.138667 1.616715,12.762433 1.471459,12.253025 1.596922,11.753649 c 0.02326,-0.09259 0.05637,-0.180317 0.105326,-0.27911 0.07972,-0.160866 0.174665,-0.290158 0.307043,-0.418116 0.256564,-0.247998 0.571249,-0.399918 0.946075,-0.456736 0.08726,-0.01323 0.310823,-0.01818 0.408452,-0.0091 0.298336,0.02789 0.574477,0.126053 0.814198,0.289421 0.347556,0.236857 0.573426,0.574489 0.649391,0.970717 0.02171,0.113258 0.02708,0.310364 0.01173,0.430948 -0.03352,0.263332 -0.145597,0.523839 -0.315522,0.73337 -0.344675,0.425012 -0.899412,0.653715 -1.472539,0.607089 z m 0.715281,-0.248252 c 0.06392,-0.02199 0.108133,-0.0499 0.158275,-0.09991 0.132458,-0.132115 0.163369,-0.325078 0.07954,-0.496531 -0.05221,-0.106775 -0.158265,-0.193504 -0.268373,-0.219459 -0.04496,-0.0106 -0.137217,-0.01215 -0.17837,-0.003 -0.197561,0.04394 -0.338183,0.234449 -0.325508,0.44099 0.0057,0.09356 0.04047,0.181002 0.101434,0.255398 0.04912,0.05995 0.141388,0.116379 0.219287,0.134116 0.05858,0.01334 0.156701,0.008 0.213717,-0.0116 z m -1.000493,-0.0073 c 0.114093,-0.0269 0.216421,-0.111102 0.270009,-0.222191 0.04341,-0.08998 0.05534,-0.176081 0.03737,-0.269613 -0.04431,-0.230638 -0.258034,-0.380426 -0.479353,-0.335948 -0.202333,0.04066 -0.342625,0.226041 -0.331675,0.438268 0.0059,0.1153 0.04356,0.198283 0.127613,0.281563 0.05714,0.05661 0.104733,0.0853 0.174745,0.105315 0.0489,0.01398 0.147622,0.01526 0.201288,0.0026 z m 0.516775,-0.76036 c 0.05094,-0.09037 0.0954,-0.168006 0.0988,-0.172534 0.0051,-0.0068 0.0449,-0.003 0.224071,0.02129 0.161314,0.02186 0.217104,0.02746 0.214848,0.02157 -0.0017,-0.0044 -0.05622,-0.07769 -0.121211,-0.162936 -0.11672,-0.153099 -0.118023,-0.155145 -0.106785,-0.167748 0.0063,-0.007 0.06889,-0.07551 0.139191,-0.152206 0.0703,-0.0767 0.127049,-0.140215 0.126112,-0.141152 -9.4e-4,-9.44e-4 -0.101128,0.004 -0.222645,0.01098 -0.121517,0.007 -0.221581,0.01182 -0.222365,0.01077 -7.83e-4,-0.0011 -0.03721,-0.08306 -0.08094,-0.182233 -0.04373,-0.09918 -0.08099,-0.178847 -0.08279,-0.177044 -0.0018,0.0018 -0.04684,0.08016 -0.100077,0.174131 l -0.0968,0.170853 -0.02055,-0.0021 c -0.0113,-0.0012 -0.109399,-0.0142 -0.217989,-0.02896 -0.10859,-0.01476 -0.198615,-0.02567 -0.200055,-0.02423 -0.0023,0.0023 0.05989,0.08581 0.205264,0.275982 l 0.03649,0.04774 -0.04646,0.05106 c -0.02555,0.02808 -0.08841,0.09673 -0.139685,0.152551 -0.05128,0.05582 -0.09259,0.102082 -0.0918,0.102806 7.8e-4,7.19e-4 0.09035,-0.0038 0.199026,-0.01017 0.10868,-0.0063 0.208753,-0.01159 0.222385,-0.01172 l 0.02479,-3.12e-4 0.07926,0.179074 c 0.04359,0.09849 0.08107,0.179012 0.08328,0.178936 0.0022,-1.25e-4 0.0457,-0.07408 0.09665,-0.164442 z m 1.111451,-0.02972 c 0.141975,-0.04766 0.243673,-0.161471 0.277175,-0.310182 0.05466,-0.242655 -0.114182,-0.487932 -0.353485,-0.513502 -0.173861,-0.01858 -0.334905,0.07157 -0.411612,0.230398 -0.07304,0.151243 -0.0568,0.31957 0.04374,0.453322 0.05296,0.07045 0.149221,0.132053 0.23781,0.152186 0.05926,0.01347 0.144959,0.0084 0.206369,-0.01222 z m -2.193295,0.0054 c 0.180395,-0.04003 0.311938,-0.197995 0.323638,-0.388642 0.01244,-0.202665 -0.124344,-0.393312 -0.314319,-0.438099 -0.04994,-0.01177 -0.139159,-0.01177 -0.1891,0 -0.113879,0.02685 -0.215501,0.11038 -0.27002,0.221956 -0.06468,0.13237 -0.0595,0.284577 0.01398,0.410777 0.02834,0.04868 0.09794,0.119473 0.144353,0.146824 0.08851,0.05217 0.192879,0.06906 0.291467,0.04718 z m 1.588908,-0.824252 c 0.165237,-0.02298 0.303676,-0.148739 0.346145,-0.314436 0.01386,-0.05407 0.01392,-0.157261 1.06e-4,-0.209949 -0.03116,-0.119009 -0.117405,-0.227273 -0.220396,-0.276662 -0.102343,-0.04908 -0.203677,-0.05586 -0.30639,-0.0205 -0.168876,0.05813 -0.280235,0.217933 -0.280235,0.40214 0,0.229597 0.171522,0.41225 0.399385,0.425305 0.0074,4.37e-4 0.03501,-0.0022 0.06137,-0.0059 z m -0.963189,-0.05196 c 0.145621,-0.02786 0.264914,-0.135479 0.31421,-0.283457 0.07415,-0.222572 -0.04875,-0.466182 -0.27181,-0.538817 -0.07057,-0.02298 -0.163969,-0.02299 -0.23478,-2e-5 -0.287779,0.09334 -0.386409,0.450192 -0.189906,0.687089 0.05086,0.06132 0.14542,0.117272 0.227086,0.134375 0.05669,0.01187 0.09639,0.01208 0.1552,8.37e-4 z"
     style="fill:#aa8800;fill-opacity:1;stroke:#c87137;stroke-width:0.006175;stroke-opacity:0.02617804"
     inkscape:connector-curvature="0" />
  <path
     id="path1001"
     d="m 3.104412,12.582642 -0.07944,-0.177335 -0.152165,0.0077 c -0.08369,0.0042 -0.183342,0.01082 -0.221448,0.01468 l -0.06928,0.007 0.03861,-0.04204 c 0.181459,-0.197607 0.232229,-0.25561 0.232229,-0.265312 0,-0.0062 -0.05099,-0.07751 -0.113319,-0.158518 -0.09268,-0.120465 -0.109007,-0.147985 -0.08964,-0.15112 0.01303,-0.0021 0.107951,0.0079 0.210947,0.02216 0.219068,0.03041 0.181584,0.05104 0.302274,-0.166341 0.0452,-0.08141 0.08381,-0.148014 0.0858,-0.148014 0.002,0 0.03939,0.07984 0.0831,0.177418 l 0.07948,0.177419 0.177321,-0.0079 c 0.09753,-0.0043 0.197162,-0.01097 0.221411,-0.01477 l 0.04409,-0.0069 -0.0266,0.02946 c -0.01463,0.0162 -0.07557,0.0833 -0.135418,0.149117 -0.05985,0.06581 -0.108812,0.124149 -0.108812,0.129634 0,0.0055 0.05119,0.07776 0.11376,0.160622 0.101542,0.134469 0.110573,0.150651 0.08407,0.150651 -0.02534,0 -0.18378,-0.01974 -0.351373,-0.04378 l -0.04646,-0.0067 -0.0967,0.170084 c -0.05318,0.09355 -0.09811,0.170086 -0.09984,0.170086 -0.0017,0 -0.03889,-0.0798 -0.08258,-0.177336 z"
     style="fill:#008000;fill-opacity:1;stroke:#c87137;stroke-width:0.012597;stroke-opacity:0.02617804"
     inkscape:connector-curvature="0" />
  <ellipse
     style="fill:#ffcc00;fill-opacity:1;stroke:#000000;stroke-width:0.06906971;stroke-opacity:0.02617804"
     id="ellipse1003"
     cx="6.67696"
     cy="12.131958"
     rx="1.6795928"
     ry="1.5508149" />
  <ellipse
     style="fill:#ffdd55;fill-opacity:1;stroke:#000000;stroke-width:0.06906971;stroke-opacity:0.02617804"
     id="ellipse1005"
     cx="6.2193871"
     cy="11.301754"
     rx="0.41647327"
     ry="0.43017307" />
  <ellipse
     ry="0.43017307"
     rx="0.41647327"
     cy="11.351074"
     cx="7.2222099"
     id="ellipse1007"
     style="fill:#ffdd55;fill-opacity:1;stroke:#000000;stroke-width:0.06906971;stroke-opacity:0.02617804" />
  <ellipse
     style="fill:#ffdd55;fill-opacity:1;stroke:#000000;stroke-width:0.06906971;stroke-opacity:0.02617804"
     id="ellipse1009"
     cx="7.7647209"
     cy="12.200459"
     rx="0.41647327"
     ry="0.43017307" />
  <ellipse
     ry="0.43017307"
     rx="0.41647327"
     cy="13.011486"
     cx="7.1235695"
     id="ellipse1011"
     style="fill:#ffdd55;fill-opacity:1;stroke:#000000;stroke-width:0.06906971;stroke-opacity:0.02617804" />
  <ellipse
     style="fill:#ffdd55;fill-opacity:1;stroke:#000000;stroke-width:0.06906971;stroke-opacity:0.02617804"
     id="ellipse1013"
     cx="6.137188"
     cy="12.995045"
     rx="0.41647327"
     ry="0.43017307" />
  <ellipse
     ry="0.43017307"
     rx="0.41647327"
     cy="12.194981"
     cx="5.5727577"
     id="ellipse1015"
     style="fill:#ffdd55;fill-opacity:1;stroke:#000000;stroke-width:0.06906971;stroke-opacity:0.02617804" />
  <path
     style="fill:#aad400;fill-opacity:1;stroke:#000000;stroke-width:0.05979215;stroke-opacity:0.02617804"
     id="path1017"
     d="M 7.312601,12.516335 6.862789,12.455445 6.6605,12.812033 6.495889,12.440916 l -0.454263,0.02509 0.285201,-0.310228 -0.251975,-0.3315 0.449812,0.06089 0.202288,-0.356587 0.164612,0.371116 0.454263,-0.02509 -0.285202,0.310227 z"
     inkscape:connector-curvature="0" />
  <path
     style="fill:#aa8800;fill-opacity:1;stroke:#c87137;stroke-width:0.00627907;stroke-opacity:0.02617804"
     d="M 6.523921,13.674008 C 6.231455,13.650218 5.944155,13.550836 5.701363,13.389478 5.596165,13.319568 5.529857,13.265603 5.446847,13.18235 5.065384,12.799777 4.91768,12.281783 5.045257,11.773992 c 0.02366,-0.09415 0.05732,-0.183357 0.107101,-0.283815 0.08106,-0.163577 0.17761,-0.295048 0.312219,-0.425162 0.260887,-0.252178 0.580876,-0.406657 0.962018,-0.464434 0.08873,-0.01345 0.316061,-0.01849 0.415336,-0.0092 0.303364,0.02837 0.584158,0.128178 0.827919,0.294299 0.353414,0.24085 0.583089,0.584171 0.660335,0.987076 0.02208,0.115168 0.02754,0.315595 0.01193,0.438212 -0.03408,0.26777 -0.148051,0.532667 -0.320839,0.745729 -0.350483,0.432174 -0.91457,0.664732 -1.497355,0.617319 z m 0.727335,-0.252435 c 0.065,-0.02236 0.109955,-0.05074 0.160942,-0.101596 0.13469,-0.134341 0.166122,-0.330556 0.08088,-0.504898 -0.05308,-0.108575 -0.160933,-0.196765 -0.272896,-0.223158 -0.04572,-0.01078 -0.13953,-0.01235 -0.181377,-0.003 -0.20089,0.04468 -0.343882,0.2384 -0.330993,0.448421 0.0058,0.09513 0.04115,0.184053 0.103143,0.259704 0.04995,0.06096 0.143772,0.11834 0.222983,0.136375 0.05957,0.01356 0.159342,0.0081 0.217319,-0.0118 z m -1.017354,-0.0074 c 0.116016,-0.02735 0.220069,-0.112975 0.274559,-0.225935 0.04414,-0.0915 0.05627,-0.179049 0.038,-0.274157 -0.04505,-0.234525 -0.262383,-0.386837 -0.487431,-0.34161 -0.205743,0.04135 -0.348399,0.229851 -0.337265,0.445655 0.0061,0.117242 0.04429,0.201624 0.129763,0.286307 0.0581,0.05757 0.106499,0.08673 0.177691,0.10709 0.04972,0.01422 0.150109,0.01552 0.20468,0.0026 z m 0.525484,-0.773174 c 0.0518,-0.09189 0.09701,-0.170837 0.100465,-0.175442 0.0052,-0.0069 0.04566,-0.003 0.227847,0.02165 0.164033,0.02222 0.220763,0.02792 0.218468,0.02194 -0.0017,-0.0044 -0.05717,-0.079 -0.123253,-0.165683 -0.118687,-0.155678 -0.120012,-0.157759 -0.108585,-0.170574 0.0064,-0.0071 0.07005,-0.07678 0.141538,-0.154771 0.07148,-0.07799 0.129189,-0.142578 0.128237,-0.143532 -9.57e-4,-9.56e-4 -0.102832,0.0041 -0.226397,0.01116 -0.123567,0.0071 -0.225316,0.01202 -0.226113,0.01095 -7.94e-4,-0.0011 -0.03783,-0.08446 -0.0823,-0.185306 -0.04447,-0.100848 -0.08236,-0.18186 -0.08419,-0.180027 -0.0018,0.0018 -0.04763,0.08151 -0.101763,0.177066 l -0.09843,0.173733 -0.0209,-0.0022 c -0.01149,-0.0012 -0.111243,-0.01444 -0.221663,-0.02945 -0.110419,-0.01501 -0.201961,-0.0261 -0.203426,-0.02463 -0.0023,0.0023 0.0609,0.08726 0.208723,0.280633 l 0.03711,0.04854 -0.04724,0.05192 c -0.02598,0.02856 -0.0899,0.09836 -0.142038,0.155122 -0.05214,0.05676 -0.09415,0.103803 -0.09335,0.104539 7.92e-4,7.31e-4 0.09187,-0.0039 0.202381,-0.01034 0.110511,-0.0064 0.212271,-0.01179 0.226133,-0.01192 l 0.0252,-3.12e-4 0.08059,0.182092 c 0.04433,0.100152 0.08243,0.182028 0.08468,0.181951 0.0023,-1.25e-4 0.04647,-0.07532 0.09828,-0.167213 z m 1.130182,-0.03022 c 0.144368,-0.04846 0.24778,-0.164191 0.281846,-0.315409 0.05558,-0.246745 -0.116106,-0.496155 -0.359442,-0.522156 -0.176792,-0.01889 -0.340549,0.07277 -0.418549,0.234281 -0.07427,0.153792 -0.05776,0.324956 0.04448,0.460961 0.05385,0.07164 0.151736,0.134279 0.241818,0.154752 0.06026,0.01369 0.147402,0.0085 0.209847,-0.01243 z m -2.230259,0.0054 c 0.183436,-0.04071 0.317196,-0.201332 0.329093,-0.395193 0.01265,-0.206079 -0.126439,-0.399939 -0.319616,-0.445482 -0.05078,-0.01197 -0.141504,-0.01197 -0.192287,0 -0.115799,0.0273 -0.219133,0.112241 -0.27457,0.225697 -0.06577,0.134601 -0.0605,0.289373 0.01422,0.4177 0.02882,0.0495 0.09959,0.121486 0.146786,0.149298 0.09001,0.05304 0.19613,0.07023 0.296378,0.04798 z m 1.615686,-0.838143 c 0.168023,-0.02337 0.308794,-0.151246 0.351979,-0.319735 0.01409,-0.05498 0.01415,-0.159912 1.25e-4,-0.213487 -0.03169,-0.121015 -0.119385,-0.231103 -0.224111,-0.281325 -0.104068,-0.04991 -0.207109,-0.0568 -0.311554,-0.02085 -0.171722,0.05911 -0.284958,0.221605 -0.284958,0.408916 0,0.233467 0.174413,0.419199 0.406116,0.432473 0.0075,4.37e-4 0.0356,-0.0023 0.0624,-0.006 z m -0.979421,-0.05284 c 0.148075,-0.02833 0.269378,-0.137762 0.319505,-0.288235 0.0754,-0.226321 -0.04957,-0.474038 -0.276391,-0.547897 -0.07176,-0.02337 -0.166732,-0.02338 -0.238737,-1.9e-5 -0.292628,0.09492 -0.39292,0.457778 -0.193106,0.698667 0.05172,0.06235 0.147871,0.119249 0.230913,0.136639 0.05765,0.01207 0.09801,0.01229 0.157816,8.5e-4 z"
     id="path1019"
     inkscape:connector-curvature="0" />
  <path
     style="fill:#008000;fill-opacity:1;stroke:#c87137;stroke-width:0.0128093;stroke-opacity:0.02617804"
     d="m 6.578154,12.616955 -0.08078,-0.180323 -0.154729,0.0078 c -0.0851,0.0043 -0.186432,0.011 -0.22518,0.01492 l -0.07045,0.0071 0.03926,-0.04275 c 0.184517,-0.200937 0.236143,-0.259917 0.236143,-0.269783 0,-0.0063 -0.05185,-0.07882 -0.115229,-0.161189 -0.09425,-0.122495 -0.110844,-0.150479 -0.09115,-0.153667 0.01324,-0.0021 0.10977,0.008 0.214501,0.02253 0.222761,0.03092 0.184644,0.0519 0.307369,-0.169145 0.04596,-0.08278 0.08522,-0.150509 0.08725,-0.150509 0.002,0 0.04005,0.08118 0.0845,0.180409 l 0.08082,0.180408 0.180308,-0.008 c 0.09917,-0.0044 0.200485,-0.01116 0.225143,-0.01502 l 0.04483,-0.007 -0.02705,0.02995 c -0.01488,0.01647 -0.07684,0.08471 -0.137701,0.15163 -0.06086,0.06692 -0.110645,0.126241 -0.110645,0.131819 0,0.0056 0.05206,0.07907 0.115676,0.163328 0.103255,0.136736 0.112437,0.15319 0.08549,0.15319 -0.02577,0 -0.186877,-0.02007 -0.357294,-0.04451 l -0.04725,-0.0068 -0.09833,0.17295 c -0.05408,0.09512 -0.09977,0.172952 -0.101522,0.172952 -0.0018,0 -0.03954,-0.08115 -0.08397,-0.180324 z"
     id="path1021"
     inkscape:connector-curvature="0" />
</svg>
