<?xml version="1.0" encoding="UTF-8" standalone="no"?>
<svg
   xmlns:dc="http://purl.org/dc/elements/1.1/"
   xmlns:cc="http://creativecommons.org/ns#"
   xmlns:rdf="http://www.w3.org/1999/02/22-rdf-syntax-ns#"
   xmlns:svg="http://www.w3.org/2000/svg"
   xmlns="http://www.w3.org/2000/svg"
   xmlns:xlink="http://www.w3.org/1999/xlink"
   xmlns:sodipodi="http://sodipodi.sourceforge.net/DTD/sodipodi-0.dtd"
   xmlns:inkscape="http://www.inkscape.org/namespaces/inkscape"
   version="1.1"
   id="svg815"
   width="160"
   height="250"
   viewBox="0 0 160 250"
   sodipodi:docname="golds07.svg"
   inkscape:version="0.92.5 (2060ec1f9f, 2020-04-08)">
  <sodipodi:namedview
     pagecolor="#ffffff"
     bordercolor="#666666"
     borderopacity="1"
     objecttolerance="10"
     gridtolerance="10"
     guidetolerance="10"
     inkscape:pageopacity="0"
     inkscape:pageshadow="2"
     inkscape:window-width="1918"
     inkscape:window-height="1017"
     id="namedview10447"
     showgrid="false"
     inkscape:zoom="12.151931"
     inkscape:cx="55.757576"
     inkscape:cy="238.0303"
     inkscape:window-x="0"
     inkscape:window-y="0"
     inkscape:window-maximized="1"
     inkscape:current-layer="svg815"
     inkscape:snap-page="true" />
  <metadata
     id="metadata821">
    <rdf:RDF>
      <cc:Work
         rdf:about="">
        <dc:format>image/svg+xml</dc:format>
        <dc:type
           rdf:resource="http://purl.org/dc/dcmitype/StillImage" />
        <dc:title></dc:title>
      </cc:Work>
    </rdf:RDF>
  </metadata>
  <defs
     id="defs819">
    <linearGradient
       gradientUnits="userSpaceOnUse"
       y2="71.008263"
       x2="88.849586"
       y1="58.644627"
       x1="82.105782"
       id="linearGradient1063"
       xlink:href="#linearGradient882"
       gradientTransform="matrix(0.0625,0,0,0.0625,90.000002,-2.4462891e-7)" />
    <linearGradient
       id="linearGradient882">
      <stop
         style="stop-color:#d16208;stop-opacity:1"
         offset="0"
         id="stop878" />
      <stop
         style="stop-color:#d16250;stop-opacity:0;"
         offset="1"
         id="stop880" />
    </linearGradient>
    <linearGradient
       gradientUnits="userSpaceOnUse"
       y2="68.472336"
       x2="56.128345"
       y1="63.697319"
       x1="61.166279"
       id="linearGradient876"
       xlink:href="#linearGradient882"
       gradientTransform="matrix(0.0625,0,0,0.0625,90.000002,-2.4462891e-7)" />
    <linearGradient
       xlink:href="#linearGradient846"
       id="linearGradient848"
       x1="72.37397"
       y1="53.171356"
       x2="72.19931"
       y2="45.564011"
       gradientUnits="userSpaceOnUse"
       gradientTransform="matrix(0.0625,0,0,0.0625,110,-4.9804688e-7)" />
    <linearGradient
       id="linearGradient846">
      <stop
         style="stop-color:#423abf;stop-opacity:1;"
         offset="0"
         id="stop842" />
      <stop
         style="stop-color:#423abf;stop-opacity:0;"
         offset="1"
         id="stop844" />
    </linearGradient>
  </defs>
  <flowRoot
     style="font-style:normal;font-variant:normal;font-weight:bold;font-stretch:normal;font-size:1px;line-height:1.25;font-family:'DejaVu Sans';-inkscape-font-specification:'DejaVu Sans Bold';letter-spacing:0px;word-spacing:0px;fill:#000000;fill-opacity:1;stroke:none;stroke-width:0.0625"
     id="flowRoot100"
     xml:space="preserve"><flowRegion
       style="stroke-width:0.0625"
       id="flowRegion102"><rect
         style="stroke-width:0.00390625"
         y="0.73863637"
         x="0.66287881"
         height="1.3636364"
         width="1.5151515"
         id="rect104" /></flowRegion><flowPara
       style="stroke-width:0.0625"
       id="flowPara106" /></flowRoot>  <rect
     style="fill:#ffffff;fill-opacity:1;stroke:#1a1a1a;stroke-width:0.0625;stroke-opacity:1"
     id="golds07"
     width="10"
     height="15.625"
     x="0.0095359478"
     y="0" />
  <rect
     style="fill:none;fill-opacity:1;stroke:#1a1a1a;stroke-width:0.0625;stroke-opacity:1"
     id="rect108-4"
     width="7.2537889"
     height="12.973484"
     x="1.3542393"
     y="1.306818" />
  <g
     id="flowRoot915-81"
     style="font-style:normal;font-variant:normal;font-weight:bold;font-stretch:normal;font-size:16px;line-height:1.25;font-family:'DejaVu Sans';-inkscape-font-specification:'DejaVu Sans Bold';text-align:start;letter-spacing:0px;word-spacing:0px;text-anchor:start;fill:#000000;fill-opacity:1;stroke:none"
     transform="matrix(0.0625,0,0,0.0625,0.19893293,-1.0693358e-7)"
     aria-label="7">
    <path
       id="path1828"
       d="M 4.1015625,7.0371094 H 12.890625 V 8.7324219 L 8.34375,18.701172 H 5.4140625 L 9.71875,9.2480469 H 4.1015625 Z"
       inkscape:connector-curvature="0" />
  </g>
  <ellipse
     ry="1.226941"
     rx="1.3288249"
     cy="2.6716671"
     cx="2.7849798"
     id="ellipse963-2"
     style="fill:#ffcc00;fill-opacity:1;stroke:#000000;stroke-width:0.05464512;stroke-opacity:0.02617804" />
  <ellipse
     ry="0.34033525"
     rx="0.32949653"
     cy="2.014843"
     cx="2.4229727"
     id="ellipse965-9"
     style="fill:#ffdd55;fill-opacity:1;stroke:#000000;stroke-width:0.05464512;stroke-opacity:0.02617804" />
  <ellipse
     style="fill:#ffdd55;fill-opacity:1;stroke:#000000;stroke-width:0.05464512;stroke-opacity:0.02617804"
     id="ellipse967-3"
     cx="3.216361"
     cy="2.0538616"
     rx="0.32949653"
     ry="0.34033525" />
  <ellipse
     ry="0.34033525"
     rx="0.32949653"
     cy="2.7258606"
     cx="3.6455755"
     id="ellipse969-9"
     style="fill:#ffdd55;fill-opacity:1;stroke:#000000;stroke-width:0.05464512;stroke-opacity:0.02617804" />
  <ellipse
     style="fill:#ffdd55;fill-opacity:1;stroke:#000000;stroke-width:0.05464512;stroke-opacity:0.02617804"
     id="ellipse971-08"
     cx="3.1383276"
     cy="3.3675117"
     rx="0.32949653"
     ry="0.34033525" />
  <ellipse
     ry="0.34033525"
     rx="0.32949653"
     cy="3.3545055"
     cx="2.3579397"
     id="ellipse973-8"
     style="fill:#ffdd55;fill-opacity:1;stroke:#000000;stroke-width:0.05464512;stroke-opacity:0.02617804" />
  <ellipse
     style="fill:#ffdd55;fill-opacity:1;stroke:#000000;stroke-width:0.05464512;stroke-opacity:0.02617804"
     id="ellipse975-5"
     cx="1.9113835"
     cy="2.7215252"
     rx="0.32949653"
     ry="0.34033525" />
  <path
     d="m 3.2878759,2.9757689 -0.355873,-0.04817 -0.160042,0.282118 -0.130234,-0.293612 -0.359394,0.01985 0.225639,-0.245439 -0.199352,-0.26227 0.355873,0.04817 0.160042,-0.282117 0.130234,0.293612 0.359394,-0.01985 -0.22564,0.245439 z"
     id="path977-09"
     style="fill:#aad400;fill-opacity:1;stroke:#000000;stroke-width:0.0473051;stroke-opacity:0.02617804"
     inkscape:connector-curvature="0" />
  <path
     id="path979-63"
     d="m 2.6639039,3.8916719 c -0.231386,-0.01882 -0.458686,-0.09745 -0.650773,-0.225108 -0.08323,-0.05531 -0.135689,-0.098 -0.201363,-0.163871 -0.301797,-0.302677 -0.418655,-0.712492 -0.317721,-1.114236 0.01871,-0.07449 0.04535,-0.145064 0.08473,-0.224542 0.06413,-0.129415 0.140517,-0.23343 0.247014,-0.336371 0.206404,-0.199512 0.459565,-0.32173 0.76111,-0.367441 0.0702,-0.01064 0.250054,-0.01463 0.328596,-0.0073 0.240009,0.02244 0.462162,0.101408 0.655016,0.232837 0.279606,0.19055 0.461316,0.462171 0.52243,0.780934 0.01747,0.09112 0.02178,0.249686 0.0094,0.346695 -0.02696,0.211848 -0.117132,0.421424 -0.253835,0.58999 -0.277288,0.341918 -0.72357,0.525908 -1.184646,0.488397 z m 0.575438,-0.199715 c 0.05143,-0.01769 0.08699,-0.04015 0.127331,-0.08038 0.106561,-0.106286 0.131429,-0.261523 0.06399,-0.399455 -0.042,-0.0859 -0.127323,-0.155673 -0.215904,-0.176554 -0.03617,-0.0085 -0.11039,-0.0098 -0.143498,-0.0024 -0.158936,0.03535 -0.272065,0.188613 -0.261868,0.354773 0.0046,0.07527 0.03256,0.145615 0.0816,0.205466 0.03952,0.04823 0.113747,0.09363 0.176415,0.107895 0.04713,0.01073 0.126066,0.0064 0.171934,-0.0093 z m -0.804888,-0.0059 c 0.09179,-0.02164 0.174109,-0.08938 0.21722,-0.178751 0.03492,-0.07239 0.04452,-0.141656 0.03007,-0.216902 -0.03565,-0.185547 -0.207587,-0.306049 -0.385636,-0.270267 -0.162775,0.03271 -0.275639,0.181848 -0.26683,0.352583 0.0048,0.09276 0.03504,0.159517 0.102663,0.226515 0.04597,0.04555 0.08426,0.06862 0.140582,0.08472 0.03934,0.01125 0.11876,0.01228 0.161935,0.0021 z m 0.415741,-0.611704 c 0.04098,-0.0727 0.07675,-0.135159 0.07948,-0.138802 0.0041,-0.0054 0.03613,-0.0024 0.180263,0.01713 0.129776,0.01758 0.174659,0.02209 0.172843,0.01736 -0.0014,-0.0035 -0.04523,-0.0625 -0.09751,-0.131081 -0.0939,-0.123166 -0.09495,-0.124813 -0.08591,-0.134951 0.005,-0.0056 0.05542,-0.06075 0.111979,-0.122449 0.05655,-0.0617 0.102209,-0.112802 0.101456,-0.113556 -7.57e-4,-7.58e-4 -0.08136,0.0032 -0.179116,0.0088 -0.09776,0.0056 -0.178261,0.0095 -0.178891,0.0087 -6.29e-4,-8.47e-4 -0.02993,-0.06682 -0.06512,-0.146606 -0.03518,-0.07979 -0.06516,-0.14388 -0.06661,-0.14243 -0.0014,0.0014 -0.03768,0.06449 -0.08051,0.140087 l -0.07787,0.13745 -0.01654,-0.0017 c -0.0091,-9.38e-4 -0.08801,-0.01142 -0.175371,-0.0233 -0.08736,-0.01188 -0.159783,-0.02065 -0.160942,-0.01949 -0.0018,0.0018 0.04818,0.06904 0.165133,0.222025 l 0.02936,0.03841 -0.03737,0.04108 c -0.02056,0.02259 -0.07112,0.07782 -0.112376,0.122727 -0.04125,0.04491 -0.07449,0.08212 -0.07386,0.08271 6.28e-4,5.75e-4 0.07268,-0.0031 0.160115,-0.0082 0.08743,-0.0051 0.167941,-0.0093 0.178908,-0.0094 l 0.01994,-2.37e-4 0.06376,0.144063 c 0.03507,0.07924 0.06522,0.144014 0.067,0.143953 0.0018,-10e-5 0.03677,-0.05959 0.07775,-0.132292 z m 0.894154,-0.02391 c 0.114218,-0.03834 0.196033,-0.129902 0.222984,-0.249539 0.04397,-0.195214 -0.09186,-0.392537 -0.284375,-0.413108 -0.139871,-0.01495 -0.269428,0.05757 -0.331139,0.185353 -0.05876,0.121674 -0.04569,0.257092 0.03519,0.364694 0.0426,0.05667 0.120047,0.106236 0.191316,0.122433 0.04767,0.01084 0.116619,0.0068 0.166023,-0.0098 z m -1.764489,0.0043 c 0.145126,-0.03221 0.250952,-0.159285 0.260364,-0.31266 0.01001,-0.163042 -0.100033,-0.316416 -0.252867,-0.352447 -0.04018,-0.0095 -0.111952,-0.0095 -0.152129,0 -0.09162,0.0216 -0.17337,0.0888 -0.217229,0.178562 -0.05203,0.10649 -0.04787,0.22894 0.01125,0.330467 0.0228,0.03916 0.07879,0.09611 0.116131,0.118118 0.07121,0.04197 0.15517,0.05556 0.234483,0.03796 z m 1.278264,-0.663105 c 0.132932,-0.01849 0.244305,-0.119659 0.278471,-0.252961 0.01115,-0.0435 0.0112,-0.126515 1e-4,-0.168902 -0.02507,-0.09574 -0.09445,-0.182839 -0.177307,-0.222572 -0.08234,-0.03948 -0.163857,-0.04494 -0.246489,-0.01649 -0.13586,0.04677 -0.225447,0.175325 -0.225447,0.323517 0,0.184709 0.137989,0.331653 0.321302,0.342155 0.006,3.31e-4 0.02817,-0.0018 0.04937,-0.0047 z m -0.774878,-0.0418 c 0.117151,-0.02241 0.213121,-0.108992 0.25278,-0.228039 0.05965,-0.179057 -0.03922,-0.37504 -0.21867,-0.433475 -0.05678,-0.01849 -0.131911,-0.01849 -0.188879,-1.5e-5 -0.231515,0.0751 -0.310862,0.362176 -0.152778,0.552757 0.04092,0.04933 0.11699,0.09435 0.18269,0.108104 0.04561,0.0096 0.07754,0.0097 0.124857,6.72e-4 z"
     style="fill:#aa8800;fill-opacity:1;stroke:#c87137;stroke-width:0.00496774;stroke-opacity:0.02617804"
     inkscape:connector-curvature="0" />
  <path
     id="path981-8"
     d="m 2.7068119,3.0553749 -0.06391,-0.142664 -0.122415,0.0062 c -0.06733,0.0034 -0.147498,0.0087 -0.178153,0.01181 l -0.05574,0.0056 0.03106,-0.03382 c 0.145982,-0.158973 0.186827,-0.205636 0.186827,-0.213441 0,-0.005 -0.04102,-0.06236 -0.09116,-0.127527 -0.07456,-0.09691 -0.0877,-0.119052 -0.07211,-0.121575 0.01048,-0.0017 0.08684,0.0063 0.169704,0.01783 0.176239,0.02447 0.146083,0.04106 0.243178,-0.133821 0.03636,-0.06549 0.06742,-0.119076 0.06902,-0.119076 0.0016,0 0.03168,0.06423 0.06685,0.142732 l 0.06394,0.142732 0.142653,-0.0063 c 0.07846,-0.0035 0.158616,-0.0088 0.178124,-0.01188 l 0.03547,-0.0056 -0.0214,0.0237 c -0.01177,0.01303 -0.0608,0.06702 -0.108944,0.119964 -0.04815,0.05295 -0.08754,0.09988 -0.08754,0.104289 0,0.0044 0.04118,0.06256 0.09152,0.129219 0.08169,0.108179 0.08895,0.121197 0.06764,0.121197 -0.02039,0 -0.14785,-0.01588 -0.282677,-0.03522 l -0.03738,-0.0054 -0.07779,0.136831 c -0.04279,0.07526 -0.07893,0.136832 -0.08032,0.136832 -0.0014,0 -0.03129,-0.0642 -0.06644,-0.142665 z"
     style="fill:#008000;fill-opacity:1;stroke:#c87137;stroke-width:0.01013419;stroke-opacity:0.02617804"
     inkscape:connector-curvature="0" />
  <ellipse
     style="fill:#ffcc00;fill-opacity:1;stroke:#000000;stroke-width:0.05464512;stroke-opacity:0.02617804"
     id="ellipse1120"
     cx="2.7849798"
     cy="9.6981812"
     rx="1.3288249"
     ry="1.226941" />
  <ellipse
     style="fill:#ffdd55;fill-opacity:1;stroke:#000000;stroke-width:0.05464512;stroke-opacity:0.02617804"
     id="ellipse1122"
     cx="2.4229727"
     cy="9.0413589"
     rx="0.32949653"
     ry="0.34033525" />
  <ellipse
     ry="0.34033525"
     rx="0.32949653"
     cy="9.0803757"
     cx="3.216361"
     id="ellipse1124"
     style="fill:#ffdd55;fill-opacity:1;stroke:#000000;stroke-width:0.05464512;stroke-opacity:0.02617804" />
  <ellipse
     style="fill:#ffdd55;fill-opacity:1;stroke:#000000;stroke-width:0.05464512;stroke-opacity:0.02617804"
     id="ellipse1126"
     cx="3.6455755"
     cy="9.7523766"
     rx="0.32949653"
     ry="0.34033525" />
  <ellipse
     ry="0.34033525"
     rx="0.32949653"
     cy="10.394028"
     cx="3.1383276"
     id="ellipse1128"
     style="fill:#ffdd55;fill-opacity:1;stroke:#000000;stroke-width:0.05464512;stroke-opacity:0.02617804" />
  <ellipse
     style="fill:#ffdd55;fill-opacity:1;stroke:#000000;stroke-width:0.05464512;stroke-opacity:0.02617804"
     id="ellipse1130"
     cx="2.3579397"
     cy="10.38102"
     rx="0.32949653"
     ry="0.34033525" />
  <ellipse
     ry="0.34033525"
     rx="0.32949653"
     cy="9.7480392"
     cx="1.9113835"
     id="ellipse1132"
     style="fill:#ffdd55;fill-opacity:1;stroke:#000000;stroke-width:0.05464512;stroke-opacity:0.02617804" />
  <path
     style="fill:#aad400;fill-opacity:1;stroke:#000000;stroke-width:0.0473051;stroke-opacity:0.02617804"
     id="path1134"
     d="m 3.2878759,10.002284 -0.355873,-0.04817 -0.160042,0.282118 -0.130234,-0.293613 -0.359394,0.01985 0.225639,-0.245439 -0.199352,-0.262269 0.355873,0.04817 0.160042,-0.282116 0.130234,0.293611 0.359394,-0.01985 -0.22564,0.24544 z"
     inkscape:connector-curvature="0" />
  <path
     style="fill:#aa8800;fill-opacity:1;stroke:#c87137;stroke-width:0.00496774;stroke-opacity:0.02617804"
     d="m 2.6639039,10.918188 c -0.231386,-0.01882 -0.458686,-0.09745 -0.650773,-0.225109 -0.08323,-0.05531 -0.135689,-0.098 -0.201363,-0.163871 -0.301797,-0.302676 -0.418655,-0.7124911 -0.317721,-1.1142351 0.01871,-0.07449 0.04535,-0.145065 0.08473,-0.224542 0.06413,-0.129416 0.140517,-0.23343 0.247014,-0.336371 0.206404,-0.199513 0.459565,-0.321731 0.76111,-0.367441 0.0702,-0.01064 0.250054,-0.01463 0.328596,-0.0073 0.240009,0.02244 0.462162,0.101409 0.655016,0.232837 0.279606,0.19055 0.461316,0.462172 0.52243,0.780934 0.01747,0.09112 0.02178,0.249686 0.0094,0.346695 -0.02696,0.2118481 -0.117132,0.4214251 -0.253835,0.5899901 -0.277288,0.341919 -0.72357,0.525909 -1.184646,0.488398 z m 0.575438,-0.199716 c 0.05143,-0.01769 0.08699,-0.04014 0.127331,-0.08038 0.106561,-0.106285 0.131429,-0.261522 0.06399,-0.399455 -0.042,-0.0859 -0.127323,-0.155672 -0.215904,-0.176553 -0.03617,-0.0085 -0.11039,-0.0098 -0.143498,-0.0024 -0.158936,0.03535 -0.272065,0.188613 -0.261868,0.354773 0.0046,0.07527 0.03256,0.145615 0.0816,0.205466 0.03952,0.04823 0.113747,0.09363 0.176415,0.107895 0.04713,0.01073 0.126066,0.0064 0.171934,-0.0093 z m -0.804888,-0.0059 c 0.09179,-0.02164 0.174109,-0.08938 0.21722,-0.178751 0.03492,-0.07239 0.04452,-0.141656 0.03007,-0.216902 -0.03565,-0.185547 -0.207587,-0.306049 -0.385636,-0.270267 -0.162775,0.03271 -0.275639,0.181848 -0.26683,0.352583 0.0048,0.09276 0.03504,0.159517 0.102663,0.226515 0.04597,0.04555 0.08426,0.06862 0.140582,0.08472 0.03934,0.01125 0.11876,0.01228 0.161935,0.0021 z m 0.415741,-0.611704 c 0.04098,-0.0727 0.07675,-0.1351601 0.07948,-0.1388021 0.0041,-0.0054 0.03613,-0.0024 0.180263,0.01713 0.129776,0.01758 0.174659,0.02209 0.172843,0.01736 -0.0014,-0.0035 -0.04523,-0.0625 -0.09751,-0.131081 -0.0939,-0.123166 -0.09495,-0.124813 -0.08591,-0.134951 0.005,-0.0056 0.05542,-0.06075 0.111979,-0.122449 0.05655,-0.0617 0.102209,-0.112802 0.101456,-0.113556 -7.57e-4,-7.56e-4 -0.08136,0.0032 -0.179116,0.0088 -0.09776,0.0056 -0.178261,0.0095 -0.178891,0.0087 -6.29e-4,-8.5e-4 -0.02993,-0.06682 -0.06512,-0.146606 -0.03518,-0.07979 -0.06516,-0.14388 -0.06661,-0.14243 -0.0014,0.0014 -0.03768,0.06449 -0.08051,0.140087 l -0.07787,0.137451 -0.01654,-0.0017 c -0.0091,-9.38e-4 -0.08801,-0.01143 -0.175371,-0.0233 -0.08736,-0.01188 -0.159783,-0.02065 -0.160942,-0.01949 -0.0018,0.0018 0.04818,0.06904 0.165133,0.222025 l 0.02936,0.03841 -0.03737,0.04108 c -0.02056,0.02259 -0.07112,0.07782 -0.112376,0.122726 -0.04125,0.04491 -0.07449,0.08212 -0.07386,0.08271 6.28e-4,5.63e-4 0.07268,-0.0031 0.160115,-0.0082 0.08743,-0.0051 0.167941,-0.0093 0.178908,-0.0094 l 0.01994,-2.5e-4 0.06376,0.1440641 c 0.03507,0.07924 0.06522,0.144014 0.067,0.143952 0.0018,-1.25e-4 0.03677,-0.05959 0.07775,-0.132291 z m 0.894154,-0.02391 c 0.114218,-0.03834 0.196033,-0.1299021 0.222984,-0.2495381 0.04397,-0.195215 -0.09186,-0.392538 -0.284375,-0.413109 -0.139871,-0.01494 -0.269428,0.05757 -0.331139,0.185354 -0.05876,0.121673 -0.04569,0.257091 0.03519,0.364693 0.0426,0.05667 0.120047,0.1062361 0.191316,0.1224331 0.04767,0.01084 0.116619,0.0068 0.166023,-0.0098 z m -1.764489,0.0043 c 0.145126,-0.0322 0.250952,-0.1592861 0.260364,-0.3126601 0.01001,-0.163042 -0.100033,-0.316417 -0.252867,-0.352448 -0.04018,-0.0095 -0.111952,-0.0095 -0.152129,0 -0.09162,0.0216 -0.17337,0.0888 -0.217229,0.178563 -0.05203,0.10649 -0.04787,0.22894 0.01125,0.330466 0.0228,0.03916 0.07879,0.09611 0.116131,0.1181191 0.07121,0.04197 0.15517,0.05556 0.234483,0.03796 z m 1.278264,-0.6631051 c 0.132932,-0.01849 0.244305,-0.119659 0.278471,-0.25296 0.01115,-0.0435 0.0112,-0.126516 1e-4,-0.168903 -0.02507,-0.09574 -0.09445,-0.182839 -0.177307,-0.222572 -0.08234,-0.03948 -0.163857,-0.04494 -0.246489,-0.01649 -0.13586,0.04677 -0.225447,0.175325 -0.225447,0.323518 0,0.184709 0.137989,0.331652 0.321302,0.342155 0.006,3.12e-4 0.02817,-0.0018 0.04937,-0.0047 z m -0.774878,-0.0418 c 0.117151,-0.02241 0.213121,-0.108992 0.25278,-0.228039 0.05965,-0.179058 -0.03922,-0.37504 -0.21867,-0.433475 -0.05678,-0.01849 -0.131911,-0.01849 -0.188879,-1.5e-5 -0.231515,0.07509 -0.310862,0.362175 -0.152778,0.552757 0.04092,0.04933 0.11699,0.09434 0.18269,0.108103 0.04561,0.0096 0.07754,0.0097 0.124857,6.75e-4 z"
     id="path1136"
     inkscape:connector-curvature="0" />
  <path
     style="fill:#008000;fill-opacity:1;stroke:#c87137;stroke-width:0.01013419;stroke-opacity:0.02617804"
     d="m 2.7068119,10.081891 -0.06391,-0.1426641 -0.122415,0.0062 c -0.06733,0.0034 -0.147498,0.0087 -0.178153,0.01181 l -0.05574,0.0056 0.03106,-0.03382 c 0.145982,-0.158974 0.186827,-0.205636 0.186827,-0.213442 0,-0.005 -0.04102,-0.06236 -0.09116,-0.127526 -0.07456,-0.09691 -0.0877,-0.119052 -0.07211,-0.121575 0.01048,-0.0017 0.08684,0.0063 0.169704,0.01783 0.176239,0.02447 0.146083,0.04106 0.243178,-0.133821 0.03636,-0.06549 0.06742,-0.119076 0.06902,-0.119076 0.0016,0 0.03168,0.06423 0.06685,0.142732 l 0.06394,0.142732 0.142653,-0.0063 c 0.07846,-0.0035 0.158616,-0.0088 0.178124,-0.01188 l 0.03547,-0.0056 -0.0214,0.0237 c -0.01177,0.01303 -0.0608,0.06702 -0.108944,0.119963 -0.04815,0.05295 -0.08754,0.09988 -0.08754,0.10429 0,0.0044 0.04118,0.06256 0.09152,0.129218 0.08169,0.10818 0.08895,0.121198 0.06764,0.121198 -0.02039,0 -0.14785,-0.01588 -0.282677,-0.03522 l -0.03738,-0.0054 -0.07779,0.1368311 c -0.04279,0.07526 -0.07893,0.136832 -0.08032,0.136832 -0.0014,0 -0.03129,-0.0642 -0.06644,-0.142665 z"
     id="path1138"
     inkscape:connector-curvature="0" />
  <ellipse
     ry="1.226941"
     rx="1.3288249"
     cy="12.898941"
     cx="2.7849798"
     id="ellipse1140"
     style="fill:#ffcc00;fill-opacity:1;stroke:#000000;stroke-width:0.05464512;stroke-opacity:0.02617804" />
  <ellipse
     ry="0.34033525"
     rx="0.32949653"
     cy="12.242115"
     cx="2.4229727"
     id="ellipse1142"
     style="fill:#ffdd55;fill-opacity:1;stroke:#000000;stroke-width:0.05464512;stroke-opacity:0.02617804" />
  <ellipse
     style="fill:#ffdd55;fill-opacity:1;stroke:#000000;stroke-width:0.05464512;stroke-opacity:0.02617804"
     id="ellipse1144"
     cx="3.216361"
     cy="12.281136"
     rx="0.32949653"
     ry="0.34033525" />
  <ellipse
     ry="0.34033525"
     rx="0.32949653"
     cy="12.953133"
     cx="3.6455755"
     id="ellipse1146"
     style="fill:#ffdd55;fill-opacity:1;stroke:#000000;stroke-width:0.05464512;stroke-opacity:0.02617804" />
  <ellipse
     style="fill:#ffdd55;fill-opacity:1;stroke:#000000;stroke-width:0.05464512;stroke-opacity:0.02617804"
     id="ellipse1148"
     cx="3.1383276"
     cy="13.594784"
     rx="0.32949653"
     ry="0.34033525" />
  <ellipse
     ry="0.34033525"
     rx="0.32949653"
     cy="13.581779"
     cx="2.3579397"
     id="ellipse1150"
     style="fill:#ffdd55;fill-opacity:1;stroke:#000000;stroke-width:0.05464512;stroke-opacity:0.02617804" />
  <ellipse
     style="fill:#ffdd55;fill-opacity:1;stroke:#000000;stroke-width:0.05464512;stroke-opacity:0.02617804"
     id="ellipse1152"
     cx="1.9113835"
     cy="12.948799"
     rx="0.32949653"
     ry="0.34033525" />
  <path
     d="m 3.2878759,13.203041 -0.355873,-0.04817 -0.160042,0.282119 -0.130234,-0.293613 -0.359394,0.01985 0.225639,-0.245439 -0.199352,-0.26227 0.355873,0.04817 0.160042,-0.282117 0.130234,0.293612 0.359394,-0.01985 -0.22564,0.24544 z"
     id="path1154"
     style="fill:#aad400;fill-opacity:1;stroke:#000000;stroke-width:0.0473051;stroke-opacity:0.02617804"
     inkscape:connector-curvature="0" />
  <path
     id="path1156"
     d="m 2.6639039,14.118945 c -0.231386,-0.01882 -0.458686,-0.09745 -0.650773,-0.225109 -0.08323,-0.05531 -0.135689,-0.098 -0.201363,-0.163871 -0.301797,-0.302677 -0.418655,-0.712492 -0.317721,-1.114235 0.01871,-0.07449 0.04535,-0.145065 0.08473,-0.224542 0.06413,-0.129416 0.140517,-0.23343 0.247014,-0.336371 0.206404,-0.199513 0.459565,-0.321731 0.76111,-0.367441 0.0702,-0.01064 0.250054,-0.01463 0.328596,-0.0073 0.240009,0.02244 0.462162,0.101409 0.655016,0.232837 0.279606,0.19055 0.461316,0.462172 0.52243,0.780934 0.01747,0.09112 0.02178,0.249686 0.0094,0.346695 -0.02696,0.211848 -0.117132,0.421425 -0.253835,0.58999 -0.277288,0.341919 -0.72357,0.525909 -1.184646,0.488398 z m 0.575438,-0.199716 c 0.05143,-0.01769 0.08699,-0.04014 0.127331,-0.08038 0.106561,-0.106285 0.131429,-0.261522 0.06399,-0.399455 -0.042,-0.0859 -0.127323,-0.155672 -0.215904,-0.176553 -0.03617,-0.0085 -0.11039,-0.0098 -0.143498,-0.0024 -0.158936,0.03535 -0.272065,0.188613 -0.261868,0.354773 0.0046,0.07527 0.03256,0.145615 0.0816,0.205466 0.03952,0.04823 0.113747,0.09362 0.176415,0.107895 0.04713,0.01073 0.126066,0.0064 0.171934,-0.0093 z m -0.804888,-0.0059 c 0.09179,-0.02164 0.174109,-0.08938 0.21722,-0.178751 0.03492,-0.07239 0.04452,-0.141656 0.03007,-0.216902 -0.03565,-0.185547 -0.207587,-0.306049 -0.385636,-0.270268 -0.162775,0.03271 -0.275639,0.181849 -0.26683,0.352584 0.0048,0.09276 0.03504,0.159517 0.102663,0.226515 0.04597,0.04555 0.08426,0.06862 0.140582,0.08472 0.03934,0.01125 0.11876,0.01228 0.161935,0.0021 z m 0.415741,-0.611704 c 0.04098,-0.0727 0.07675,-0.13516 0.07948,-0.138802 0.0041,-0.0054 0.03613,-0.0024 0.180263,0.01713 0.129776,0.01758 0.174659,0.02209 0.172843,0.01736 -0.0014,-0.0035 -0.04523,-0.0625 -0.09751,-0.131081 -0.0939,-0.123166 -0.09495,-0.124813 -0.08591,-0.134951 0.005,-0.0056 0.05542,-0.06075 0.111979,-0.122449 0.05655,-0.0617 0.102209,-0.112802 0.101456,-0.113556 -7.57e-4,-7.56e-4 -0.08136,0.0032 -0.179116,0.0088 -0.09776,0.0056 -0.178261,0.0095 -0.178891,0.0087 -6.29e-4,-8.5e-4 -0.02993,-0.06682 -0.06512,-0.146606 -0.03518,-0.07979 -0.06516,-0.14388 -0.06661,-0.14243 -0.0014,0.0014 -0.03768,0.06449 -0.08051,0.140087 l -0.07787,0.13745 -0.01654,-0.0017 c -0.0091,-9.37e-4 -0.08801,-0.01143 -0.175371,-0.0233 -0.08736,-0.01188 -0.159783,-0.02065 -0.160942,-0.01949 -0.0018,0.0018 0.04818,0.06904 0.165133,0.222025 l 0.02936,0.03841 -0.03737,0.04108 c -0.02056,0.02259 -0.07112,0.07782 -0.112376,0.122726 -0.04125,0.04491 -0.07449,0.08212 -0.07386,0.08271 6.28e-4,5.63e-4 0.07268,-0.0031 0.160115,-0.0082 0.08743,-0.0051 0.167941,-0.0093 0.178908,-0.0094 l 0.01994,-2.5e-4 0.06376,0.144064 c 0.03507,0.07924 0.06522,0.144014 0.067,0.143952 0.0018,-1.25e-4 0.03677,-0.05959 0.07775,-0.132292 z m 0.894154,-0.02391 c 0.114218,-0.03834 0.196033,-0.129902 0.222984,-0.249539 0.04397,-0.195214 -0.09186,-0.392537 -0.284375,-0.413108 -0.139871,-0.01494 -0.269428,0.05757 -0.331139,0.185353 -0.05876,0.121674 -0.04569,0.257092 0.03519,0.364694 0.0426,0.05667 0.120047,0.106236 0.191316,0.122433 0.04767,0.01084 0.116619,0.0068 0.166023,-0.0098 z m -1.764489,0.0043 c 0.145126,-0.0322 0.250952,-0.159285 0.260364,-0.31266 0.01001,-0.163041 -0.100033,-0.316416 -0.252867,-0.352447 -0.04018,-0.0095 -0.111952,-0.0095 -0.152129,0 -0.09162,0.0216 -0.17337,0.0888 -0.217229,0.178562 -0.05203,0.106491 -0.04787,0.22894 0.01125,0.330467 0.0228,0.03916 0.07879,0.09612 0.116131,0.118118 0.07121,0.04197 0.15517,0.05556 0.234483,0.03796 z m 1.278264,-0.663104 c 0.132932,-0.01849 0.244305,-0.119659 0.278471,-0.252961 0.01115,-0.0435 0.0112,-0.126515 1e-4,-0.168902 -0.02507,-0.09574 -0.09445,-0.182839 -0.177307,-0.222573 -0.08234,-0.03948 -0.163857,-0.04494 -0.246489,-0.01649 -0.13586,0.04677 -0.225447,0.175325 -0.225447,0.323518 0,0.184709 0.137989,0.331652 0.321302,0.342155 0.006,3.12e-4 0.02817,-0.0018 0.04937,-0.0047 z m -0.774878,-0.0418 c 0.117151,-0.02241 0.213121,-0.108993 0.25278,-0.228039 0.05965,-0.179058 -0.03922,-0.37504 -0.21867,-0.433475 -0.05678,-0.01849 -0.131911,-0.01849 -0.188879,-1.5e-5 -0.231515,0.0751 -0.310862,0.362175 -0.152778,0.552757 0.04092,0.04933 0.11699,0.09434 0.18269,0.108103 0.04561,0.0096 0.07754,0.0097 0.124857,6.75e-4 z"
     style="fill:#aa8800;fill-opacity:1;stroke:#c87137;stroke-width:0.00496774;stroke-opacity:0.02617804"
     inkscape:connector-curvature="0" />
  <path
     id="path1158"
     d="m 2.7068119,13.282648 -0.06391,-0.142665 -0.122415,0.0062 c -0.06733,0.0034 -0.147498,0.0087 -0.178153,0.01181 l -0.05574,0.0056 0.03106,-0.03382 c 0.145982,-0.158973 0.186827,-0.205635 0.186827,-0.213441 0,-0.005 -0.04102,-0.06236 -0.09116,-0.127526 -0.07456,-0.09691 -0.0877,-0.119053 -0.07211,-0.121575 0.01048,-0.0017 0.08684,0.0063 0.169704,0.01783 0.176239,0.02447 0.146083,0.04106 0.243178,-0.133821 0.03636,-0.06549 0.06742,-0.119076 0.06902,-0.119076 0.0016,0 0.03168,0.06423 0.06685,0.142732 l 0.06394,0.142732 0.142653,-0.0063 c 0.07846,-0.0035 0.158616,-0.0088 0.178124,-0.01188 l 0.03547,-0.0056 -0.0214,0.0237 c -0.01177,0.01303 -0.0608,0.06702 -0.108944,0.119963 -0.04815,0.05295 -0.08754,0.09988 -0.08754,0.10429 0,0.0044 0.04118,0.06256 0.09152,0.129218 0.08169,0.10818 0.08895,0.121198 0.06764,0.121198 -0.02039,0 -0.14785,-0.01588 -0.282677,-0.03522 l -0.03738,-0.0054 -0.07779,0.136832 c -0.04279,0.07526 -0.07893,0.136832 -0.08032,0.136832 -0.0014,0 -0.03129,-0.0642 -0.06644,-0.142665 z"
     style="fill:#008000;fill-opacity:1;stroke:#c87137;stroke-width:0.01013419;stroke-opacity:0.02617804"
     inkscape:connector-curvature="0" />
  <ellipse
     style="fill:#ffcc00;fill-opacity:1;stroke:#000000;stroke-width:0.05464512;stroke-opacity:0.02617804"
     id="ellipse1160"
     cx="7.122108"
     cy="2.6716671"
     rx="1.3288249"
     ry="1.226941" />
  <ellipse
     style="fill:#ffdd55;fill-opacity:1;stroke:#000000;stroke-width:0.05464512;stroke-opacity:0.02617804"
     id="ellipse1162"
     cx="6.7600932"
     cy="2.014843"
     rx="0.32949653"
     ry="0.34033525" />
  <ellipse
     ry="0.34033525"
     rx="0.32949653"
     cy="2.0538616"
     cx="7.5534816"
     id="ellipse1164"
     style="fill:#ffdd55;fill-opacity:1;stroke:#000000;stroke-width:0.05464512;stroke-opacity:0.02617804" />
  <ellipse
     style="fill:#ffdd55;fill-opacity:1;stroke:#000000;stroke-width:0.05464512;stroke-opacity:0.02617804"
     id="ellipse1166"
     cx="7.9826961"
     cy="2.7258606"
     rx="0.32949653"
     ry="0.34033525" />
  <ellipse
     ry="0.34033525"
     rx="0.32949653"
     cy="3.3675117"
     cx="7.4754481"
     id="ellipse1168"
     style="fill:#ffdd55;fill-opacity:1;stroke:#000000;stroke-width:0.05464512;stroke-opacity:0.02617804" />
  <ellipse
     style="fill:#ffdd55;fill-opacity:1;stroke:#000000;stroke-width:0.05464512;stroke-opacity:0.02617804"
     id="ellipse1170"
     cx="6.6950603"
     cy="3.3545055"
     rx="0.32949653"
     ry="0.34033525" />
  <ellipse
     ry="0.34033525"
     rx="0.32949653"
     cy="2.7215252"
     cx="6.2485042"
     id="ellipse1172"
     style="fill:#ffdd55;fill-opacity:1;stroke:#000000;stroke-width:0.05464512;stroke-opacity:0.02617804" />
  <path
     style="fill:#aad400;fill-opacity:1;stroke:#000000;stroke-width:0.0473051;stroke-opacity:0.02617804"
     id="path1174"
     d="m 7.6249969,2.9757689 -0.355873,-0.04817 -0.160042,0.282118 -0.130233,-0.293612 -0.359395,0.01985 0.225639,-0.245439 -0.199352,-0.26227 0.355873,0.04817 0.160042,-0.282117 0.130234,0.293612 0.359394,-0.01985 -0.22564,0.245439 z"
     inkscape:connector-curvature="0" />
  <path
     style="fill:#aa8800;fill-opacity:1;stroke:#c87137;stroke-width:0.00496774;stroke-opacity:0.02617804"
     d="m 7.0010259,3.8916719 c -0.231387,-0.01882 -0.458687,-0.09745 -0.650774,-0.225108 -0.08323,-0.05531 -0.135689,-0.098 -0.201363,-0.163871 -0.301797,-0.302677 -0.418655,-0.712492 -0.317721,-1.114236 0.01871,-0.07449 0.04535,-0.145064 0.08473,-0.224542 0.06413,-0.129415 0.140517,-0.23343 0.247014,-0.336371 0.206404,-0.199512 0.459566,-0.32173 0.76111,-0.367441 0.0702,-0.01064 0.250055,-0.01463 0.328596,-0.0073 0.24001,0.02244 0.462162,0.101408 0.655016,0.232837 0.279606,0.19055 0.461316,0.462171 0.52243,0.780934 0.01747,0.09112 0.02178,0.249686 0.0094,0.346695 -0.02696,0.211848 -0.117132,0.421424 -0.253835,0.58999 -0.277287,0.341918 -0.72357,0.525908 -1.184645,0.488397 z m 0.575437,-0.199715 c 0.05143,-0.01769 0.08699,-0.04015 0.127331,-0.08038 0.106562,-0.106286 0.131429,-0.261523 0.06399,-0.399455 -0.042,-0.0859 -0.127324,-0.155673 -0.215905,-0.176554 -0.03617,-0.0085 -0.11039,-0.0098 -0.143497,-0.0024 -0.158937,0.03535 -0.272066,0.188613 -0.261869,0.354773 0.0046,0.07527 0.03256,0.145615 0.0816,0.205466 0.03952,0.04823 0.113747,0.09363 0.176415,0.107895 0.04713,0.01073 0.126066,0.0064 0.171934,-0.0093 z m -0.804888,-0.0059 c 0.09179,-0.02164 0.174109,-0.08938 0.21722,-0.178751 0.03492,-0.07239 0.04452,-0.141656 0.03007,-0.216902 -0.03565,-0.185547 -0.207587,-0.306049 -0.385635,-0.270267 -0.162776,0.03271 -0.27564,0.181848 -0.266831,0.352583 0.0048,0.09276 0.03504,0.159517 0.102664,0.226515 0.04597,0.04555 0.08426,0.06862 0.140582,0.08472 0.03933,0.01125 0.11876,0.01228 0.161934,0.0021 z m 0.415741,-0.611704 c 0.04098,-0.0727 0.07675,-0.135159 0.07948,-0.138802 0.0041,-0.0054 0.03613,-0.0024 0.180263,0.01713 0.129776,0.01758 0.174659,0.02209 0.172843,0.01736 -0.0014,-0.0035 -0.04523,-0.0625 -0.09751,-0.131081 -0.0939,-0.123166 -0.09495,-0.124813 -0.08591,-0.134951 0.005,-0.0056 0.05542,-0.06075 0.111978,-0.122449 0.05655,-0.0617 0.10221,-0.112802 0.101456,-0.113556 -7.56e-4,-7.58e-4 -0.08136,0.0032 -0.179116,0.0088 -0.09776,0.0056 -0.17826,0.0095 -0.178891,0.0087 -6.31e-4,-8.47e-4 -0.02993,-0.06682 -0.06512,-0.146606 -0.03518,-0.07979 -0.06516,-0.14388 -0.06661,-0.14243 -0.0014,0.0014 -0.03768,0.06449 -0.08051,0.140087 l -0.07787,0.13745 -0.01654,-0.0017 c -0.0091,-9.38e-4 -0.08801,-0.01142 -0.175371,-0.0233 -0.08736,-0.01188 -0.159783,-0.02065 -0.160941,-0.01949 -0.0018,0.0018 0.04818,0.06904 0.165132,0.222025 l 0.02936,0.03841 -0.03737,0.04108 c -0.02055,0.02259 -0.07112,0.07782 -0.112375,0.122727 -0.04125,0.04491 -0.07449,0.08212 -0.07386,0.08271 6.25e-4,5.75e-4 0.07268,-0.0031 0.160115,-0.0082 0.08743,-0.0051 0.167941,-0.0093 0.178908,-0.0094 l 0.01994,-2.37e-4 0.06376,0.144063 c 0.03507,0.07924 0.06522,0.144014 0.067,0.143953 0.0018,-10e-5 0.03677,-0.05959 0.07775,-0.132292 z m 0.894154,-0.02391 c 0.114218,-0.03834 0.196033,-0.129902 0.222984,-0.249539 0.04398,-0.195214 -0.09186,-0.392537 -0.284375,-0.413108 -0.13987,-0.01495 -0.269428,0.05757 -0.331138,0.185353 -0.05876,0.121674 -0.0457,0.257092 0.03519,0.364694 0.0426,0.05667 0.120048,0.106236 0.191316,0.122433 0.04767,0.01084 0.116619,0.0068 0.166023,-0.0098 z m -1.764489,0.0043 c 0.145127,-0.03221 0.250952,-0.159285 0.260365,-0.31266 0.01001,-0.163042 -0.100034,-0.316416 -0.252868,-0.352447 -0.04018,-0.0095 -0.111952,-0.0095 -0.152129,0 -0.09162,0.0216 -0.17337,0.0888 -0.217229,0.178562 -0.05203,0.10649 -0.04787,0.22894 0.01125,0.330467 0.0228,0.03916 0.0788,0.09611 0.116131,0.118118 0.07121,0.04197 0.15517,0.05556 0.234483,0.03796 z m 1.278264,-0.663105 c 0.132933,-0.01849 0.244305,-0.119659 0.278471,-0.252961 0.01115,-0.0435 0.0112,-0.126515 1.25e-4,-0.168902 -0.02507,-0.09574 -0.09445,-0.182839 -0.177307,-0.222572 -0.08234,-0.03948 -0.163856,-0.04494 -0.246488,-0.01649 -0.13586,0.04677 -0.225448,0.175325 -0.225448,0.323517 0,0.184709 0.137989,0.331653 0.321302,0.342155 0.0059,3.31e-4 0.02817,-0.0018 0.04937,-0.0047 z m -0.774878,-0.0418 c 0.117151,-0.02241 0.213121,-0.108992 0.25278,-0.228039 0.05965,-0.179057 -0.03922,-0.37504 -0.21867,-0.433475 -0.05678,-0.01849 -0.131911,-0.01849 -0.188879,-1.5e-5 -0.231515,0.0751 -0.310862,0.362176 -0.152777,0.552757 0.04092,0.04933 0.116989,0.09435 0.182689,0.108104 0.04561,0.0096 0.07754,0.0097 0.124857,6.72e-4 z"
     id="path1176"
     inkscape:connector-curvature="0" />
  <path
     style="fill:#008000;fill-opacity:1;stroke:#c87137;stroke-width:0.01013419;stroke-opacity:0.02617804"
     d="m 7.0439329,3.0553749 -0.06391,-0.142664 -0.122415,0.0062 c -0.06733,0.0034 -0.147499,0.0087 -0.178154,0.01181 l -0.05574,0.0056 0.03106,-0.03382 c 0.145983,-0.158973 0.186827,-0.205636 0.186827,-0.213441 0,-0.005 -0.04102,-0.06236 -0.09117,-0.127527 -0.07456,-0.09691 -0.08769,-0.119052 -0.07211,-0.121575 0.01048,-0.0017 0.08684,0.0063 0.169704,0.01783 0.17624,0.02447 0.146083,0.04106 0.243178,-0.133821 0.03636,-0.06549 0.06742,-0.119076 0.06903,-0.119076 0.0016,0 0.03168,0.06423 0.06685,0.142732 l 0.06394,0.142732 0.142653,-0.0063 c 0.07846,-0.0035 0.158615,-0.0088 0.178123,-0.01188 l 0.03547,-0.0056 -0.0214,0.0237 c -0.01177,0.01303 -0.0608,0.06702 -0.108943,0.119964 -0.04815,0.05295 -0.08754,0.09988 -0.08754,0.104289 0,0.0044 0.04118,0.06256 0.09152,0.129219 0.08169,0.108179 0.08896,0.121197 0.06764,0.121197 -0.02039,0 -0.14785,-0.01588 -0.282677,-0.03522 l -0.03738,-0.0054 -0.07779,0.136831 c -0.04279,0.07526 -0.07893,0.136832 -0.08032,0.136832 -0.0014,0 -0.03128,-0.0642 -0.06643,-0.142665 z"
     id="path1178"
     inkscape:connector-curvature="0" />
  <ellipse
     ry="1.226941"
     rx="1.3288249"
     cy="9.6981812"
     cx="7.122108"
     id="ellipse1180"
     style="fill:#ffcc00;fill-opacity:1;stroke:#000000;stroke-width:0.05464512;stroke-opacity:0.02617804" />
  <ellipse
     ry="0.34033525"
     rx="0.32949653"
     cy="9.0413589"
     cx="6.7600932"
     id="ellipse1182"
     style="fill:#ffdd55;fill-opacity:1;stroke:#000000;stroke-width:0.05464512;stroke-opacity:0.02617804" />
  <ellipse
     style="fill:#ffdd55;fill-opacity:1;stroke:#000000;stroke-width:0.05464512;stroke-opacity:0.02617804"
     id="ellipse1184"
     cx="7.5534816"
     cy="9.0803757"
     rx="0.32949653"
     ry="0.34033525" />
  <ellipse
     ry="0.34033525"
     rx="0.32949653"
     cy="9.7523766"
     cx="7.9826961"
     id="ellipse1186"
     style="fill:#ffdd55;fill-opacity:1;stroke:#000000;stroke-width:0.05464512;stroke-opacity:0.02617804" />
  <ellipse
     style="fill:#ffdd55;fill-opacity:1;stroke:#000000;stroke-width:0.05464512;stroke-opacity:0.02617804"
     id="ellipse1188"
     cx="7.4754481"
     cy="10.394028"
     rx="0.32949653"
     ry="0.34033525" />
  <ellipse
     ry="0.34033525"
     rx="0.32949653"
     cy="10.38102"
     cx="6.6950603"
     id="ellipse1190"
     style="fill:#ffdd55;fill-opacity:1;stroke:#000000;stroke-width:0.05464512;stroke-opacity:0.02617804" />
  <ellipse
     style="fill:#ffdd55;fill-opacity:1;stroke:#000000;stroke-width:0.05464512;stroke-opacity:0.02617804"
     id="ellipse1192"
     cx="6.2485042"
     cy="9.7480392"
     rx="0.32949653"
     ry="0.34033525" />
  <path
     d="m 7.6249969,10.002284 -0.355873,-0.04817 -0.160042,0.282118 -0.130233,-0.293613 -0.359395,0.01985 0.225639,-0.245439 -0.199352,-0.262269 0.355873,0.04817 0.160042,-0.282116 0.130234,0.293611 0.359394,-0.01985 -0.22564,0.24544 z"
     id="path1194"
     style="fill:#aad400;fill-opacity:1;stroke:#000000;stroke-width:0.0473051;stroke-opacity:0.02617804"
     inkscape:connector-curvature="0" />
  <path
     id="path1196"
     d="m 7.0010259,10.918188 c -0.231387,-0.01882 -0.458687,-0.09745 -0.650774,-0.225109 -0.08323,-0.05531 -0.135689,-0.098 -0.201363,-0.163871 -0.301797,-0.302676 -0.418655,-0.7124911 -0.317721,-1.1142351 0.01871,-0.07449 0.04535,-0.145065 0.08473,-0.224542 0.06413,-0.129416 0.140517,-0.23343 0.247014,-0.336371 0.206404,-0.199513 0.459566,-0.321731 0.76111,-0.367441 0.0702,-0.01064 0.250055,-0.01463 0.328596,-0.0073 0.24001,0.02244 0.462162,0.101409 0.655016,0.232837 0.279606,0.19055 0.461316,0.462172 0.52243,0.780934 0.01747,0.09112 0.02178,0.249686 0.0094,0.346695 -0.02696,0.2118481 -0.117132,0.4214251 -0.253835,0.5899901 -0.277287,0.341919 -0.72357,0.525909 -1.184645,0.488398 z m 0.575437,-0.199716 c 0.05143,-0.01769 0.08699,-0.04014 0.127331,-0.08038 0.106562,-0.106285 0.131429,-0.261522 0.06399,-0.399455 -0.042,-0.0859 -0.127324,-0.155672 -0.215905,-0.176553 -0.03617,-0.0085 -0.11039,-0.0098 -0.143497,-0.0024 -0.158937,0.03535 -0.272066,0.188613 -0.261869,0.354773 0.0046,0.07527 0.03256,0.145615 0.0816,0.205466 0.03952,0.04823 0.113747,0.09363 0.176415,0.107895 0.04713,0.01073 0.126066,0.0064 0.171934,-0.0093 z m -0.804888,-0.0059 c 0.09179,-0.02164 0.174109,-0.08938 0.21722,-0.178751 0.03492,-0.07239 0.04452,-0.141656 0.03007,-0.216902 -0.03565,-0.185547 -0.207587,-0.306049 -0.385635,-0.270267 -0.162776,0.03271 -0.27564,0.181848 -0.266831,0.352583 0.0048,0.09276 0.03504,0.159517 0.102664,0.226515 0.04597,0.04555 0.08426,0.06862 0.140582,0.08472 0.03933,0.01125 0.11876,0.01228 0.161934,0.0021 z m 0.415741,-0.611704 c 0.04098,-0.0727 0.07675,-0.1351601 0.07948,-0.1388021 0.0041,-0.0054 0.03613,-0.0024 0.180263,0.01713 0.129776,0.01758 0.174659,0.02209 0.172843,0.01736 -0.0014,-0.0035 -0.04523,-0.0625 -0.09751,-0.131081 -0.0939,-0.123166 -0.09495,-0.124813 -0.08591,-0.134951 0.005,-0.0056 0.05542,-0.06075 0.111978,-0.122449 0.05655,-0.0617 0.10221,-0.112802 0.101456,-0.113556 -7.56e-4,-7.56e-4 -0.08136,0.0032 -0.179116,0.0088 -0.09776,0.0056 -0.17826,0.0095 -0.178891,0.0087 -6.31e-4,-8.5e-4 -0.02993,-0.06682 -0.06512,-0.146606 -0.03518,-0.07979 -0.06516,-0.14388 -0.06661,-0.14243 -0.0014,0.0014 -0.03768,0.06449 -0.08051,0.140087 l -0.07787,0.137451 -0.01654,-0.0017 c -0.0091,-9.38e-4 -0.08801,-0.01143 -0.175371,-0.0233 -0.08736,-0.01188 -0.159783,-0.02065 -0.160941,-0.01949 -0.0018,0.0018 0.04818,0.06904 0.165132,0.222025 l 0.02936,0.03841 -0.03737,0.04108 c -0.02055,0.02259 -0.07112,0.07782 -0.112375,0.122726 -0.04125,0.04491 -0.07449,0.08212 -0.07386,0.08271 6.25e-4,5.63e-4 0.07268,-0.0031 0.160115,-0.0082 0.08743,-0.0051 0.167941,-0.0093 0.178908,-0.0094 l 0.01994,-2.5e-4 0.06376,0.1440641 c 0.03507,0.07924 0.06522,0.144014 0.067,0.143952 0.0018,-1.25e-4 0.03677,-0.05959 0.07775,-0.132291 z m 0.894154,-0.02391 c 0.114218,-0.03834 0.196033,-0.1299021 0.222984,-0.2495381 0.04398,-0.195215 -0.09186,-0.392538 -0.284375,-0.413109 -0.13987,-0.01494 -0.269428,0.05757 -0.331138,0.185354 -0.05876,0.121673 -0.0457,0.257091 0.03519,0.364693 0.0426,0.05667 0.120048,0.1062361 0.191316,0.1224331 0.04767,0.01084 0.116619,0.0068 0.166023,-0.0098 z m -1.764489,0.0043 c 0.145127,-0.0322 0.250952,-0.1592861 0.260365,-0.3126601 0.01001,-0.163042 -0.100034,-0.316417 -0.252868,-0.352448 -0.04018,-0.0095 -0.111952,-0.0095 -0.152129,0 -0.09162,0.0216 -0.17337,0.0888 -0.217229,0.178563 -0.05203,0.10649 -0.04787,0.22894 0.01125,0.330466 0.0228,0.03916 0.0788,0.09611 0.116131,0.1181191 0.07121,0.04197 0.15517,0.05556 0.234483,0.03796 z m 1.278264,-0.6631051 c 0.132933,-0.01849 0.244305,-0.119659 0.278471,-0.25296 0.01115,-0.0435 0.0112,-0.126516 1.25e-4,-0.168903 -0.02507,-0.09574 -0.09445,-0.182839 -0.177307,-0.222572 -0.08234,-0.03948 -0.163856,-0.04494 -0.246488,-0.01649 -0.13586,0.04677 -0.225448,0.175325 -0.225448,0.323518 0,0.184709 0.137989,0.331652 0.321302,0.342155 0.0059,3.12e-4 0.02817,-0.0018 0.04937,-0.0047 z m -0.774878,-0.0418 c 0.117151,-0.02241 0.213121,-0.108992 0.25278,-0.228039 0.05965,-0.179058 -0.03922,-0.37504 -0.21867,-0.433475 -0.05678,-0.01849 -0.131911,-0.01849 -0.188879,-1.5e-5 -0.231515,0.07509 -0.310862,0.362175 -0.152777,0.552757 0.04092,0.04933 0.116989,0.09434 0.182689,0.108103 0.04561,0.0096 0.07754,0.0097 0.124857,6.75e-4 z"
     style="fill:#aa8800;fill-opacity:1;stroke:#c87137;stroke-width:0.00496774;stroke-opacity:0.02617804"
     inkscape:connector-curvature="0" />
  <path
     id="path1198"
     d="m 7.0439329,10.081891 -0.06391,-0.1426641 -0.122415,0.0062 c -0.06733,0.0034 -0.147499,0.0087 -0.178154,0.01181 l -0.05574,0.0056 0.03106,-0.03382 c 0.145983,-0.158974 0.186827,-0.205636 0.186827,-0.213442 0,-0.005 -0.04102,-0.06236 -0.09117,-0.127526 -0.07456,-0.09691 -0.08769,-0.119052 -0.07211,-0.121575 0.01048,-0.0017 0.08684,0.0063 0.169704,0.01783 0.17624,0.02447 0.146083,0.04106 0.243178,-0.133821 0.03636,-0.06549 0.06742,-0.119076 0.06903,-0.119076 0.0016,0 0.03168,0.06423 0.06685,0.142732 l 0.06394,0.142732 0.142653,-0.0063 c 0.07846,-0.0035 0.158615,-0.0088 0.178123,-0.01188 l 0.03547,-0.0056 -0.0214,0.0237 c -0.01177,0.01303 -0.0608,0.06702 -0.108943,0.119963 -0.04815,0.05295 -0.08754,0.09988 -0.08754,0.10429 0,0.0044 0.04118,0.06256 0.09152,0.129218 0.08169,0.10818 0.08896,0.121198 0.06764,0.121198 -0.02039,0 -0.14785,-0.01588 -0.282677,-0.03522 l -0.03738,-0.0054 -0.07779,0.1368311 c -0.04279,0.07526 -0.07893,0.136832 -0.08032,0.136832 -0.0014,0 -0.03128,-0.0642 -0.06643,-0.142665 z"
     style="fill:#008000;fill-opacity:1;stroke:#c87137;stroke-width:0.01013419;stroke-opacity:0.02617804"
     inkscape:connector-curvature="0" />
  <ellipse
     style="fill:#ffcc00;fill-opacity:1;stroke:#000000;stroke-width:0.05464512;stroke-opacity:0.02617804"
     id="ellipse1200"
     cx="7.122108"
     cy="12.898941"
     rx="1.3288249"
     ry="1.226941" />
  <ellipse
     style="fill:#ffdd55;fill-opacity:1;stroke:#000000;stroke-width:0.05464512;stroke-opacity:0.02617804"
     id="ellipse1202"
     cx="6.7600932"
     cy="12.242115"
     rx="0.32949653"
     ry="0.34033525" />
  <ellipse
     ry="0.34033525"
     rx="0.32949653"
     cy="12.281136"
     cx="7.5534816"
     id="ellipse1204"
     style="fill:#ffdd55;fill-opacity:1;stroke:#000000;stroke-width:0.05464512;stroke-opacity:0.02617804" />
  <ellipse
     style="fill:#ffdd55;fill-opacity:1;stroke:#000000;stroke-width:0.05464512;stroke-opacity:0.02617804"
     id="ellipse1206"
     cx="7.9826961"
     cy="12.953133"
     rx="0.32949653"
     ry="0.34033525" />
  <ellipse
     ry="0.34033525"
     rx="0.32949653"
     cy="13.594784"
     cx="7.4754481"
     id="ellipse1208"
     style="fill:#ffdd55;fill-opacity:1;stroke:#000000;stroke-width:0.05464512;stroke-opacity:0.02617804" />
  <ellipse
     style="fill:#ffdd55;fill-opacity:1;stroke:#000000;stroke-width:0.05464512;stroke-opacity:0.02617804"
     id="ellipse1210"
     cx="6.6950603"
     cy="13.581779"
     rx="0.32949653"
     ry="0.34033525" />
  <ellipse
     ry="0.34033525"
     rx="0.32949653"
     cy="12.948799"
     cx="6.2485042"
     id="ellipse1212"
     style="fill:#ffdd55;fill-opacity:1;stroke:#000000;stroke-width:0.05464512;stroke-opacity:0.02617804" />
  <path
     style="fill:#aad400;fill-opacity:1;stroke:#000000;stroke-width:0.0473051;stroke-opacity:0.02617804"
     id="path1214"
     d="m 7.6249969,13.203041 -0.355873,-0.04817 -0.160042,0.282119 -0.130233,-0.293613 -0.359395,0.01985 0.225639,-0.245439 -0.199352,-0.26227 0.355873,0.04817 0.160042,-0.282117 0.130234,0.293612 0.359394,-0.01985 -0.22564,0.24544 z"
     inkscape:connector-curvature="0" />
  <path
     style="fill:#aa8800;fill-opacity:1;stroke:#c87137;stroke-width:0.00496774;stroke-opacity:0.02617804"
     d="m 7.0010259,14.118945 c -0.231387,-0.01882 -0.458687,-0.09745 -0.650774,-0.225109 -0.08323,-0.05531 -0.135689,-0.098 -0.201363,-0.163871 -0.301797,-0.302677 -0.418655,-0.712492 -0.317721,-1.114235 0.01871,-0.07449 0.04535,-0.145065 0.08473,-0.224542 0.06413,-0.129416 0.140517,-0.23343 0.247014,-0.336371 0.206404,-0.199513 0.459566,-0.321731 0.76111,-0.367441 0.0702,-0.01064 0.250055,-0.01463 0.328596,-0.0073 0.24001,0.02244 0.462162,0.101409 0.655016,0.232837 0.279606,0.19055 0.461316,0.462172 0.52243,0.780934 0.01747,0.09112 0.02178,0.249686 0.0094,0.346695 -0.02696,0.211848 -0.117132,0.421425 -0.253835,0.58999 -0.277287,0.341919 -0.72357,0.525909 -1.184645,0.488398 z m 0.575437,-0.199716 c 0.05143,-0.01769 0.08699,-0.04014 0.127331,-0.08038 0.106562,-0.106285 0.131429,-0.261522 0.06399,-0.399455 -0.042,-0.0859 -0.127324,-0.155672 -0.215905,-0.176553 -0.03617,-0.0085 -0.11039,-0.0098 -0.143497,-0.0024 -0.158937,0.03535 -0.272066,0.188613 -0.261869,0.354773 0.0046,0.07527 0.03256,0.145615 0.0816,0.205466 0.03952,0.04823 0.113747,0.09362 0.176415,0.107895 0.04713,0.01073 0.126066,0.0064 0.171934,-0.0093 z m -0.804888,-0.0059 c 0.09179,-0.02164 0.174109,-0.08938 0.21722,-0.178751 0.03492,-0.07239 0.04452,-0.141656 0.03007,-0.216902 -0.03565,-0.185547 -0.207587,-0.306049 -0.385635,-0.270268 -0.162776,0.03271 -0.27564,0.181849 -0.266831,0.352584 0.0048,0.09276 0.03504,0.159517 0.102664,0.226515 0.04597,0.04555 0.08426,0.06862 0.140582,0.08472 0.03933,0.01125 0.11876,0.01228 0.161934,0.0021 z m 0.415741,-0.611704 c 0.04098,-0.0727 0.07675,-0.13516 0.07948,-0.138802 0.0041,-0.0054 0.03613,-0.0024 0.180263,0.01713 0.129776,0.01758 0.174659,0.02209 0.172843,0.01736 -0.0014,-0.0035 -0.04523,-0.0625 -0.09751,-0.131081 -0.0939,-0.123166 -0.09495,-0.124813 -0.08591,-0.134951 0.005,-0.0056 0.05542,-0.06075 0.111978,-0.122449 0.05655,-0.0617 0.10221,-0.112802 0.101456,-0.113556 -7.56e-4,-7.56e-4 -0.08136,0.0032 -0.179116,0.0088 -0.09776,0.0056 -0.17826,0.0095 -0.178891,0.0087 -6.31e-4,-8.5e-4 -0.02993,-0.06682 -0.06512,-0.146606 -0.03518,-0.07979 -0.06516,-0.14388 -0.06661,-0.14243 -0.0014,0.0014 -0.03768,0.06449 -0.08051,0.140087 l -0.07787,0.13745 -0.01654,-0.0017 c -0.0091,-9.37e-4 -0.08801,-0.01143 -0.175371,-0.0233 -0.08736,-0.01188 -0.159783,-0.02065 -0.160941,-0.01949 -0.0018,0.0018 0.04818,0.06904 0.165132,0.222025 l 0.02936,0.03841 -0.03737,0.04108 c -0.02055,0.02259 -0.07112,0.07782 -0.112375,0.122726 -0.04125,0.04491 -0.07449,0.08212 -0.07386,0.08271 6.25e-4,5.63e-4 0.07268,-0.0031 0.160115,-0.0082 0.08743,-0.0051 0.167941,-0.0093 0.178908,-0.0094 l 0.01994,-2.5e-4 0.06376,0.144064 c 0.03507,0.07924 0.06522,0.144014 0.067,0.143952 0.0018,-1.25e-4 0.03677,-0.05959 0.07775,-0.132292 z m 0.894154,-0.02391 c 0.114218,-0.03834 0.196033,-0.129902 0.222984,-0.249539 0.04398,-0.195214 -0.09186,-0.392537 -0.284375,-0.413108 -0.13987,-0.01494 -0.269428,0.05757 -0.331138,0.185353 -0.05876,0.121674 -0.0457,0.257092 0.03519,0.364694 0.0426,0.05667 0.120048,0.106236 0.191316,0.122433 0.04767,0.01084 0.116619,0.0068 0.166023,-0.0098 z m -1.764489,0.0043 c 0.145127,-0.0322 0.250952,-0.159285 0.260365,-0.31266 0.01001,-0.163041 -0.100034,-0.316416 -0.252868,-0.352447 -0.04018,-0.0095 -0.111952,-0.0095 -0.152129,0 -0.09162,0.0216 -0.17337,0.0888 -0.217229,0.178562 -0.05203,0.106491 -0.04787,0.22894 0.01125,0.330467 0.0228,0.03916 0.0788,0.09612 0.116131,0.118118 0.07121,0.04197 0.15517,0.05556 0.234483,0.03796 z m 1.278264,-0.663104 c 0.132933,-0.01849 0.244305,-0.119659 0.278471,-0.252961 0.01115,-0.0435 0.0112,-0.126515 1.25e-4,-0.168902 -0.02507,-0.09574 -0.09445,-0.182839 -0.177307,-0.222573 -0.08234,-0.03948 -0.163856,-0.04494 -0.246488,-0.01649 -0.13586,0.04677 -0.225448,0.175325 -0.225448,0.323518 0,0.184709 0.137989,0.331652 0.321302,0.342155 0.0059,3.12e-4 0.02817,-0.0018 0.04937,-0.0047 z m -0.774878,-0.0418 c 0.117151,-0.02241 0.213121,-0.108993 0.25278,-0.228039 0.05965,-0.179058 -0.03922,-0.37504 -0.21867,-0.433475 -0.05678,-0.01849 -0.131911,-0.01849 -0.188879,-1.5e-5 -0.231515,0.0751 -0.310862,0.362175 -0.152777,0.552757 0.04092,0.04933 0.116989,0.09434 0.182689,0.108103 0.04561,0.0096 0.07754,0.0097 0.124857,6.75e-4 z"
     id="path1216"
     inkscape:connector-curvature="0" />
  <path
     style="fill:#008000;fill-opacity:1;stroke:#c87137;stroke-width:0.01013419;stroke-opacity:0.02617804"
     d="m 7.0439329,13.282648 -0.06391,-0.142665 -0.122415,0.0062 c -0.06733,0.0034 -0.147499,0.0087 -0.178154,0.01181 l -0.05574,0.0056 0.03106,-0.03382 c 0.145983,-0.158973 0.186827,-0.205635 0.186827,-0.213441 0,-0.005 -0.04102,-0.06236 -0.09117,-0.127526 -0.07456,-0.09691 -0.08769,-0.119053 -0.07211,-0.121575 0.01048,-0.0017 0.08684,0.0063 0.169704,0.01783 0.17624,0.02447 0.146083,0.04106 0.243178,-0.133821 0.03636,-0.06549 0.06742,-0.119076 0.06903,-0.119076 0.0016,0 0.03168,0.06423 0.06685,0.142732 l 0.06394,0.142732 0.142653,-0.0063 c 0.07846,-0.0035 0.158615,-0.0088 0.178123,-0.01188 l 0.03547,-0.0056 -0.0214,0.0237 c -0.01177,0.01303 -0.0608,0.06702 -0.108943,0.119963 -0.04815,0.05295 -0.08754,0.09988 -0.08754,0.10429 0,0.0044 0.04118,0.06256 0.09152,0.129218 0.08169,0.10818 0.08896,0.121198 0.06764,0.121198 -0.02039,0 -0.14785,-0.01588 -0.282677,-0.03522 l -0.03738,-0.0054 -0.07779,0.136832 c -0.04279,0.07526 -0.07893,0.136832 -0.08032,0.136832 -0.0014,0 -0.03128,-0.0642 -0.06643,-0.142665 z"
     id="path1218"
     inkscape:connector-curvature="0" />
  <ellipse
     ry="1.226941"
     rx="1.3288249"
     cy="6.3459091"
     cx="4.9630122"
     id="ellipse1220"
     style="fill:#ffcc00;fill-opacity:1;stroke:#000000;stroke-width:0.05464512;stroke-opacity:0.02617804" />
  <ellipse
     ry="0.34033525"
     rx="0.32949653"
     cy="5.689085"
     cx="4.6009974"
     id="ellipse1222"
     style="fill:#ffdd55;fill-opacity:1;stroke:#000000;stroke-width:0.05464512;stroke-opacity:0.02617804" />
  <ellipse
     style="fill:#ffdd55;fill-opacity:1;stroke:#000000;stroke-width:0.05464512;stroke-opacity:0.02617804"
     id="ellipse1224"
     cx="5.3943934"
     cy="5.7281036"
     rx="0.32949653"
     ry="0.34033525" />
  <ellipse
     ry="0.34033525"
     rx="0.32949653"
     cy="6.4001026"
     cx="5.8236079"
     id="ellipse1226"
     style="fill:#ffdd55;fill-opacity:1;stroke:#000000;stroke-width:0.05464512;stroke-opacity:0.02617804" />
  <ellipse
     style="fill:#ffdd55;fill-opacity:1;stroke:#000000;stroke-width:0.05464512;stroke-opacity:0.02617804"
     id="ellipse1228"
     cx="5.3163524"
     cy="7.0417538"
     rx="0.32949653"
     ry="0.34033525" />
  <ellipse
     ry="0.34033525"
     rx="0.32949653"
     cy="7.0287476"
     cx="4.5359645"
     id="ellipse1230"
     style="fill:#ffdd55;fill-opacity:1;stroke:#000000;stroke-width:0.05464512;stroke-opacity:0.02617804" />
  <ellipse
     style="fill:#ffdd55;fill-opacity:1;stroke:#000000;stroke-width:0.05464512;stroke-opacity:0.02617804"
     id="ellipse1232"
     cx="4.0894156"
     cy="6.3957672"
     rx="0.32949653"
     ry="0.34033525" />
  <path
     d="m 5.4659059,6.6500119 -0.355873,-0.04817 -0.160042,0.282118 -0.130233,-0.293612 -0.359395,0.01985 0.225639,-0.24544 -0.199352,-0.262269 0.355873,0.04817 0.160042,-0.282117 0.130234,0.293612 0.359394,-0.01985 -0.22564,0.245439 z"
     id="path1234"
     style="fill:#aad400;fill-opacity:1;stroke:#000000;stroke-width:0.0473051;stroke-opacity:0.02617804"
     inkscape:connector-curvature="0" />
  <path
     id="path1236"
     d="m 4.8419349,7.5659149 c -0.231387,-0.01882 -0.458687,-0.09745 -0.650774,-0.225108 -0.08323,-0.05531 -0.135689,-0.09801 -0.201363,-0.163871 -0.301797,-0.302677 -0.418655,-0.712492 -0.317721,-1.114236 0.01871,-0.07449 0.04535,-0.145064 0.08473,-0.224542 0.06413,-0.129415 0.140517,-0.23343 0.247014,-0.336371 0.206404,-0.199513 0.459566,-0.321731 0.76111,-0.367441 0.0702,-0.01064 0.250054,-0.01463 0.328596,-0.0073 0.24001,0.02244 0.462163,0.101409 0.655016,0.232837 0.279607,0.19055 0.461316,0.462172 0.52243,0.780935 0.01747,0.09111 0.02179,0.249685 0.0094,0.346695 -0.02697,0.211848 -0.117133,0.421424 -0.253835,0.58999 -0.277288,0.341919 -0.723571,0.525909 -1.184646,0.488397 z m 0.575437,-0.199715 c 0.05143,-0.01769 0.08699,-0.04014 0.127331,-0.08038 0.106562,-0.106286 0.131429,-0.261523 0.06399,-0.399455 -0.042,-0.0859 -0.127323,-0.155673 -0.215904,-0.176554 -0.03617,-0.0085 -0.11039,-0.0098 -0.143497,-0.0024 -0.158936,0.03535 -0.272066,0.188612 -0.261869,0.354772 0.0046,0.07527 0.03256,0.145615 0.0816,0.205466 0.03952,0.04823 0.113746,0.09363 0.176415,0.107895 0.04713,0.01073 0.126065,0.0064 0.171933,-0.0093 z m -0.804888,-0.0059 c 0.09179,-0.02164 0.174109,-0.08938 0.21722,-0.178752 0.03492,-0.07239 0.04452,-0.141656 0.03007,-0.216901 -0.03565,-0.185547 -0.207586,-0.30605 -0.385635,-0.270268 -0.162776,0.03271 -0.27564,0.181849 -0.266831,0.352584 0.0048,0.09276 0.03504,0.159517 0.102664,0.226515 0.04597,0.04555 0.08426,0.06862 0.140582,0.08472 0.03933,0.01125 0.11876,0.01227 0.161934,0.0021 z m 0.415742,-0.611705 c 0.04098,-0.0727 0.07675,-0.135159 0.07948,-0.138802 0.0041,-0.0054 0.03613,-0.0024 0.180263,0.01713 0.129776,0.01758 0.174659,0.02209 0.172843,0.01736 -0.0014,-0.0035 -0.04523,-0.0625 -0.09751,-0.131081 -0.0939,-0.123167 -0.09495,-0.124813 -0.08591,-0.134952 0.005,-0.0056 0.05542,-0.06075 0.111979,-0.122448 0.05655,-0.0617 0.102209,-0.112802 0.101455,-0.113557 -7.57e-4,-7.56e-4 -0.08136,0.0032 -0.179116,0.0088 -0.09776,0.0056 -0.17826,0.0095 -0.178891,0.0087 -6.29e-4,-8.5e-4 -0.02993,-0.06682 -0.06512,-0.146607 -0.03518,-0.07979 -0.06516,-0.14388 -0.06661,-0.14243 -0.0014,0.0014 -0.03768,0.06449 -0.08051,0.140087 l -0.07787,0.137451 -0.01653,-0.0017 c -0.0091,-9.38e-4 -0.08801,-0.01142 -0.175371,-0.0233 -0.08736,-0.01188 -0.159783,-0.02065 -0.160942,-0.01949 -0.0018,0.0018 0.04818,0.06903 0.165133,0.222025 l 0.02936,0.03841 -0.03737,0.04108 c -0.02055,0.02259 -0.07112,0.07782 -0.112375,0.122726 -0.04125,0.04491 -0.07449,0.08212 -0.07386,0.08271 6.28e-4,5.62e-4 0.07268,-0.0031 0.160116,-0.0082 0.08743,-0.0051 0.16794,-0.0093 0.178907,-0.0094 l 0.01994,-2.5e-4 0.06376,0.144063 c 0.03507,0.07924 0.06522,0.144014 0.067,0.143953 0.0018,-1.25e-4 0.03677,-0.05959 0.07775,-0.132292 z m 0.894153,-0.02391 c 0.114218,-0.03834 0.196033,-0.129902 0.222985,-0.249539 0.04398,-0.195214 -0.09186,-0.392538 -0.284376,-0.413109 -0.13987,-0.01494 -0.269428,0.05757 -0.331139,0.185354 -0.05876,0.121674 -0.04569,0.257091 0.03519,0.364694 0.0426,0.05667 0.120048,0.106235 0.191316,0.122433 0.04767,0.01083 0.116619,0.0068 0.166023,-0.0098 z m -1.764489,0.0043 c 0.145126,-0.03221 0.250952,-0.159286 0.260365,-0.31266 0.01001,-0.163042 -0.100034,-0.316416 -0.252868,-0.352448 -0.04018,-0.0095 -0.111952,-0.0095 -0.152129,0 -0.09162,0.0216 -0.173369,0.0888 -0.217229,0.178563 -0.05203,0.106491 -0.04787,0.22894 0.01125,0.330467 0.0228,0.03916 0.0788,0.09611 0.116131,0.118118 0.07121,0.04197 0.15517,0.05556 0.234483,0.03796 z m 1.278264,-0.663105 c 0.132933,-0.01849 0.244305,-0.119659 0.278471,-0.25296 0.01115,-0.0435 0.0112,-0.126516 1e-4,-0.168903 -0.02507,-0.09574 -0.09445,-0.182839 -0.177307,-0.222572 -0.08233,-0.03948 -0.163856,-0.04494 -0.246488,-0.0165 -0.13586,0.04677 -0.225448,0.175325 -0.225448,0.323519 0,0.184708 0.137989,0.331651 0.321302,0.342154 0.0059,3.12e-4 0.02817,-0.0018 0.04937,-0.0047 z m -0.774878,-0.0418 c 0.117152,-0.02241 0.213121,-0.108992 0.25278,-0.228039 0.05965,-0.179058 -0.03922,-0.375039 -0.21867,-0.433474 -0.05678,-0.01849 -0.131911,-0.0185 -0.188879,-1.6e-5 -0.231515,0.0751 -0.310862,0.362176 -0.152777,0.552757 0.04092,0.04933 0.116989,0.09435 0.182689,0.108104 0.04561,0.0096 0.07754,0.0097 0.124857,6.75e-4 z"
     style="fill:#aa8800;fill-opacity:1;stroke:#c87137;stroke-width:0.00496774;stroke-opacity:0.02617804"
     inkscape:connector-curvature="0" />
  <path
     id="path1238"
     d="m 4.8848419,6.7296179 -0.06391,-0.142664 -0.122415,0.0062 c -0.06733,0.0034 -0.147498,0.0087 -0.178154,0.01181 l -0.05574,0.0056 0.03106,-0.03382 c 0.145982,-0.158973 0.186826,-0.205636 0.186826,-0.213441 0,-0.005 -0.04102,-0.06236 -0.09116,-0.127526 -0.07456,-0.09691 -0.0877,-0.119053 -0.07211,-0.121576 0.01048,-0.0017 0.08685,0.0063 0.169705,0.01783 0.176239,0.02447 0.146083,0.04106 0.243177,-0.133821 0.03636,-0.06549 0.06742,-0.119076 0.06902,-0.119076 0.0016,0 0.03168,0.06423 0.06685,0.142732 l 0.06394,0.142732 0.142653,-0.0063 c 0.07846,-0.0035 0.158615,-0.0088 0.178124,-0.01188 l 0.03547,-0.0056 -0.0214,0.0237 c -0.01177,0.01303 -0.0608,0.06702 -0.108943,0.119964 -0.04815,0.05295 -0.08754,0.09988 -0.08754,0.104289 0,0.0044 0.04118,0.06256 0.09152,0.129219 0.08169,0.108179 0.08896,0.121197 0.06764,0.121197 -0.02039,0 -0.14785,-0.01588 -0.282677,-0.03522 l -0.03738,-0.0054 -0.07779,0.136831 c -0.04279,0.07526 -0.07893,0.136832 -0.08032,0.136832 -0.0014,0 -0.03128,-0.0642 -0.06643,-0.142665 z"
     style="fill:#008000;fill-opacity:1;stroke:#c87137;stroke-width:0.01013419;stroke-opacity:0.02617804"
     inkscape:connector-curvature="0" />
</svg>
