<?xml version="1.0" encoding="UTF-8" standalone="no"?>
<svg
   xmlns:dc="http://purl.org/dc/elements/1.1/"
   xmlns:cc="http://creativecommons.org/ns#"
   xmlns:rdf="http://www.w3.org/1999/02/22-rdf-syntax-ns#"
   xmlns:svg="http://www.w3.org/2000/svg"
   xmlns="http://www.w3.org/2000/svg"
   xmlns:xlink="http://www.w3.org/1999/xlink"
   xmlns:sodipodi="http://sodipodi.sourceforge.net/DTD/sodipodi-0.dtd"
   xmlns:inkscape="http://www.inkscape.org/namespaces/inkscape"
   version="1.1"
   id="svg815"
   width="160"
   height="250"
   viewBox="0 0 160 250"
   sodipodi:docname="golds10.svg"
   inkscape:version="0.92.5 (2060ec1f9f, 2020-04-08)">
  <sodipodi:namedview
     pagecolor="#ffffff"
     bordercolor="#666666"
     borderopacity="1"
     objecttolerance="10"
     gridtolerance="10"
     guidetolerance="10"
     inkscape:pageopacity="0"
     inkscape:pageshadow="2"
     inkscape:window-width="1918"
     inkscape:window-height="1017"
     id="namedview10447"
     showgrid="false"
     inkscape:zoom="13.07806"
     inkscape:cx="57.121212"
     inkscape:cy="240.45455"
     inkscape:window-x="0"
     inkscape:window-y="0"
     inkscape:window-maximized="1"
     inkscape:current-layer="svg815"
     inkscape:snap-page="true" />
  <metadata
     id="metadata821">
    <rdf:RDF>
      <cc:Work
         rdf:about="">
        <dc:format>image/svg+xml</dc:format>
        <dc:type
           rdf:resource="http://purl.org/dc/dcmitype/StillImage" />
        <dc:title></dc:title>
      </cc:Work>
    </rdf:RDF>
  </metadata>
  <defs
     id="defs819">
    <linearGradient
       gradientUnits="userSpaceOnUse"
       y2="71.008263"
       x2="88.849586"
       y1="58.644627"
       x1="82.105782"
       id="linearGradient1063"
       xlink:href="#linearGradient882"
       gradientTransform="matrix(0.0625,0,0,0.0625,0.0019445,-2.4462891e-7)" />
    <linearGradient
       id="linearGradient882">
      <stop
         style="stop-color:#d16208;stop-opacity:1"
         offset="0"
         id="stop878" />
      <stop
         style="stop-color:#d16250;stop-opacity:0;"
         offset="1"
         id="stop880" />
    </linearGradient>
    <linearGradient
       gradientUnits="userSpaceOnUse"
       y2="68.472336"
       x2="56.128345"
       y1="63.697319"
       x1="61.166279"
       id="linearGradient876"
       xlink:href="#linearGradient882"
       gradientTransform="matrix(0.0625,0,0,0.0625,0.0019445,-2.4462891e-7)" />
    <linearGradient
       xlink:href="#linearGradient846"
       id="linearGradient848"
       x1="72.37397"
       y1="53.171356"
       x2="72.19931"
       y2="45.564011"
       gradientUnits="userSpaceOnUse"
       gradientTransform="matrix(0.0625,0,0,0.0625,110,-4.9804688e-7)" />
    <linearGradient
       id="linearGradient846">
      <stop
         style="stop-color:#423abf;stop-opacity:1;"
         offset="0"
         id="stop842" />
      <stop
         style="stop-color:#423abf;stop-opacity:0;"
         offset="1"
         id="stop844" />
    </linearGradient>
  </defs>
  <flowRoot
     style="font-style:normal;font-variant:normal;font-weight:bold;font-stretch:normal;font-size:1px;line-height:1.25;font-family:'DejaVu Sans';-inkscape-font-specification:'DejaVu Sans Bold';letter-spacing:0px;word-spacing:0px;fill:#000000;fill-opacity:1;stroke:none;stroke-width:0.0625"
     id="flowRoot100"
     xml:space="preserve"><flowRegion
       style="stroke-width:0.0625"
       id="flowRegion102"><rect
         style="stroke-width:0.00390625"
         y="0.73863637"
         x="0.66287881"
         height="1.3636364"
         width="1.5151515"
         id="rect104" /></flowRegion><flowPara
       style="stroke-width:0.0625"
       id="flowPara106" /></flowRoot>  <rect
     style="fill:#ffffff;fill-opacity:1;stroke:#1a1a1a;stroke-width:0.0625;stroke-opacity:1"
     id="golds10"
     width="10"
     height="15.625"
     x="0.001942502"
     y="0" />
  <rect
     style="fill:none;fill-opacity:1;stroke:#1a1a1a;stroke-width:0.0625;stroke-opacity:1"
     id="rect108-5"
     width="7.2537889"
     height="12.973484"
     x="1.3466386"
     y="1.306818" />
  <g
     id="flowRoot915-9"
     style="font-style:normal;font-variant:normal;font-weight:bold;font-stretch:normal;font-size:16px;line-height:1.25;font-family:'DejaVu Sans';-inkscape-font-specification:'DejaVu Sans Bold';text-align:start;letter-spacing:0px;word-spacing:0px;text-anchor:start;fill:#000000;fill-opacity:1;stroke:none"
     transform="matrix(0.0625,0,0,0.0625,0.1913385,7.553711e-7)"
     aria-label="10">
    <path
       id="path3297"
       d="M 4.90625,16.623047 H 7.5625 V 9.0839844 l -2.7265625,0.5625 v -2.046875 l 2.7109375,-0.5625 h 2.859375 v 9.5859376 h 2.65625 v 2.078125 H 4.90625 Z"
       inkscape:connector-curvature="0" />
    <path
       id="path3299"
       d="m 21.523437,12.857422 q 0,-2.1875 -0.414062,-3.0781251 -0.40625,-0.8984375 -1.375,-0.8984375 -0.96875,0 -1.382813,0.8984375 -0.414062,0.8906251 -0.414062,3.0781251 0,2.210937 0.414062,3.117187 0.414063,0.90625 1.382813,0.90625 0.960937,0 1.375,-0.90625 0.414062,-0.90625 0.414062,-3.117187 z m 3.007813,0.02344 q 0,2.898438 -1.25,4.476563 -1.25,1.570312 -3.546875,1.570312 -2.304688,0 -3.554688,-1.570312 -1.249999,-1.578125 -1.249999,-4.476563 0,-2.9062496 1.249999,-4.4765621 1.25,-1.578125 3.554688,-1.578125 2.296875,0 3.546875,1.578125 1.25,1.5703125 1.25,4.4765621 z"
       inkscape:connector-curvature="0" />
  </g>
  <path
     id="path927"
     d="m 3.7377575,3.6156338 -0.26405,-0.190702 -0.05868,-0.141804 -0.01467,-0.127135 0.02445,-0.102686 0.06357,-0.107576 0.112465,-0.09291 0.141805,-0.0978 0.117355,-0.07824 0.0978,-0.02445 0.122246,-0.01956 0.132024,-0.02445 0.05379,-0.0098 0.0049,-0.03912 0.02445,-0.08313 0.02934,-0.06846 0.07335,-0.0489 0.122245,-0.0098 0.136915,0.0098 0.176033,0.01467 0.117355,0.02934 0.07824,0.06357 0.112466,0.09291 0.03912,0.07824 0.02934,0.09291 0.02445,0.09291 -0.0098,0.08313 0.01467,0.06357 0.0978,0.01956 0.117356,0.06357 0.08313,0.06357 0.08802,0.07335 0.07335,0.06357 0.03912,0.03423 0.05868,0.07824 v 0.06846 l -0.01467,0.05868 -0.03912,0.07335 -0.07824,0.05379 -0.06357,0.03423 -0.117356,0.01956 -0.112465,-0.0049 -0.136915,-0.151584 -0.09291,-0.107576 -0.07824,-0.0978 -0.05379,-0.0098 -0.07335,-0.04401 -0.02445,-0.04401 -0.08313,-0.08313 -0.112465,-0.02934 h -0.08313 l -0.127135,-0.0049 h -0.156474 l -0.08313,0.02934 -0.122245,0.05379 -0.09291,0.03912 -0.0978,0.06846 v 0.07824 l -0.02445,0.05379 -0.05868,0.03912 -0.05379,0.0489 z"
     style="fill:#008000;fill-opacity:0.61780108;stroke:#000000;stroke-width:0.0625;stroke-opacity:0.22110554"
     inkscape:connector-curvature="0" />
  <path
     id="path929"
     d="m 4.5319745,3.0850838 c -0.06153,-0.002 -0.122931,7.94e-4 -0.182984,0.01221 -0.105562,0.02006 -0.204033,0.07081 -0.29834,0.122314 -0.03492,0.01907 -0.0794,0.03307 -0.09778,0.06836 -0.01204,0.02313 0.0055,0.05276 0,0.07825 -0.0042,0.01925 -0.02441,0.05383 -0.02441,0.05383 l 0.0098,0.176025 0.01953,0.185791 0.04407,0.136963 0.03418,0.136841 0.04407,0.0636 0.04883,0.127198 0.04407,0.03906 0.08801,0.04895 0.0049,0.127076 0.02441,0.0343 0.08801,0.08313 0.08801,0.03906 h 0.07336 l 0.176026,-0.04395 0.07336,-0.02454 0.07336,-0.04883 0.05383,-0.0343 0.03906,-0.102661 -0.0293,-0.08801 0.0049,-0.112427 -0.01953,-0.141846 0.05371,-0.03906 0.0636,-0.0343 0.05383,-0.0636 -0.005,-0.09778 -0.03418,-0.08801 -0.0293,-0.07336 -0.03919,-0.03906 -0.0049,-0.09289 c 0,0 -0.0047,-0.07189 -0.0098,-0.107544 -0.006,-0.04273 -0.02441,-0.127197 -0.02441,-0.127197 0,0 -0.06056,-0.0975 -0.107544,-0.127075 -0.03279,-0.02064 -0.07415,-0.02423 -0.112548,-0.02942 -0.06058,-0.0082 -0.12219,-0.01506 -0.183716,-0.01709 z"
     style="fill:#ffaaaa;fill-opacity:0.61780108;stroke:#000000;stroke-width:0.0625;stroke-opacity:0.22110554"
     inkscape:connector-curvature="0" />
  <path
     id="path934"
     d="m 4.0849335,3.3271358 h 0.08802 l 0.06846,0.0098 0.05379,0.03423"
     style="fill:#ffaaaa;fill-opacity:0.61780108;stroke:#000000;stroke-width:0.0625;stroke-opacity:0.22110554"
     inkscape:connector-curvature="0" />
  <path
     id="path936"
     d="m 4.5299065,3.3760338 0.04401,-0.03423 h 0.06357 0.05379 0.03423"
     style="fill:#ffaaaa;fill-opacity:0.61780108;stroke:#000000;stroke-width:0.0625;stroke-opacity:0.22110554"
     inkscape:connector-curvature="0" />
  <path
     id="path938-91"
     d="m 4.2903055,3.4689398 -0.185812,-0.0049"
     style="fill:#ffaaaa;fill-opacity:0.61780108;stroke:#000000;stroke-width:0.0625;stroke-opacity:0.22110554"
     inkscape:connector-curvature="0" />
  <path
     id="path940-49"
     d="m 4.5396855,3.4689398 0.0489,0.03912 0.06846,0.0049 h 0.05868 l 0.02934,-0.01956 -0.06846,-0.03423"
     style="fill:#ffaaaa;fill-opacity:0.61780108;stroke:#000000;stroke-width:0.0625;stroke-opacity:0.22110554"
     inkscape:connector-curvature="0" />
  <path
     id="path942-1"
     d="m 4.3489835,3.4249318 -0.01956,0.08313 -0.04401,0.06357 -0.06357,0.06846 -0.03423,0.03423 -0.0098,0.03912 0.03423,0.06846 0.04401,0.0049 h 0.07824 l 0.06357,-0.0049 0.02445,-0.05868"
     style="fill:none;fill-opacity:0.61780108;stroke:#000000;stroke-width:0.0625;stroke-opacity:0.22110554"
     inkscape:connector-curvature="0" />
  <path
     id="path944"
     d="m 4.1778405,3.9774798 0.08313,-0.04401 h 0.06357 l 0.08313,0.0049 0.03912,0.02934 -0.05379,0.02445 -0.09291,0.0049 z"
     style="fill:#ffaaaa;fill-opacity:0.61780108;stroke:#000000;stroke-width:0.0625;stroke-opacity:0.22110554"
     inkscape:connector-curvature="0" />
  <path
     id="path949"
     d="m 4.2609785,4.3344728 -0.264727,0.01539 -0.142654,0.01646 -0.192034,0.02743 -0.186547,0.09327 -0.137167,0.07681 -0.02743,0.02195 -0.378581,0.241415 -0.252387,0.09876 -0.148141,0.120707 -0.11522,0.208494 -0.09327,0.142654 -0.170087,0.208494 -0.104247,0.142654 -0.04389,0.07133 -0.01646,0.07681 -0.06035,0.07133 -0.109734,0.104247 -0.02195,0.104247 -0.06035,0.153627 -0.04389,0.131681 -0.03292,0.19752 -0.03292,0.362122 -0.02195,0.307254 v 0.312741 l -0.01097,0.186547 0.06035,0.164601 0.08779,0.18106 0.126194,0.137167 0.109734,0.148141 0.11522,0.142654 0.07681,0.09876 0.06035,0.07681 0.04389,0.03841 0.01646,-0.510262 0.07681,-0.543181 0.04938,-0.159114 -0.0055,-0.170087 -0.01097,-0.246901 0.01097,-0.1646 0.04938,-0.109734 0.03292,-0.137168 0.05487,-0.126193 0.142654,-0.170087 0.06584,-0.06584 h 0.07133 l 0.1646,0.05487 0.08779,-0.159114 0.01646,-0.203007 v -0.170087 -0.181061 l -0.04938,-0.09327 -0.03292,-0.137167 0.03841,-0.07681 0.07133,-0.03292 0.03292,-0.01097 0.137167,-0.06035 0.159114,-0.06584 0.109734,-0.06035 0.06035,-0.05487 0.06035,-0.06035 0.01097,-0.120707 0.01646,-0.120707 0.09327,-0.137167 0.04389,-0.104247 0.126194,-0.06035 0.137167,-0.0055 0.06035,-0.01097 h 0.04938 l 0.04465,-0.08035 z"
     style="fill:#ff0000;fill-opacity:0.61780108;stroke:#000000;stroke-width:0.0625;stroke-opacity:0.22110554"
     inkscape:connector-curvature="0" />
  <path
     id="path957"
     d="m 2.2734325,8.8160238 0.422475,0.411501 0.01097,-0.323714 0.03841,-0.274334 -0.0055,-0.219467 -0.09876,-0.142654 0.09876,-0.07133 0.01646,-0.307254 0.04389,-0.213981 -0.04389,-0.213981 0.09876,-0.142654 0.05487,-0.1646 -0.01646,-0.192034 0.05487,-0.120707 0.08779,-0.109734 0.06035,-0.03841 0.01646,-0.109733 -0.120708,-0.115221 -0.1646,-0.05487 h -0.07133 l -0.208494,0.235928 -0.05487,0.126193 -0.0823,0.246902 -0.01097,0.1646 0.01646,0.416988 -0.04938,0.159114 -0.07681,0.543181 -0.01646,0.510262"
     style="fill:#d4aa00;fill-opacity:0.61780108;stroke:#000000;stroke-width:0.0625;stroke-opacity:0.22110554"
     inkscape:connector-curvature="0" />
  <path
     id="path959"
     d="m 2.6959075,9.2275248 0.115679,0.115634 0.159413,0.09465 0.109595,0.07971 0.05978,0.02491 0.169376,-0.104615 0.05978,-0.164393 0.06974,-0.129523 0.0548,-0.154431 0.04982,-0.199265 v -0.144468 l -0.02491,-0.219191 0.01,-0.229155 -0.02989,-0.184321 0.03985,-0.07472 -0.02989,-0.154431 -0.02989,-0.159413 v -0.169375 -0.139486 l -0.01,-0.09465 -0.01993,-0.03487 -0.119559,0.02491 -0.09963,0.06974 -0.144468,0.005 -0.129522,0.02989 -0.199794,0.145178 0.04389,0.213981 -0.04389,0.213981 -0.01646,0.307255 -0.09876,0.07133 0.09876,0.142654 0.0055,0.219468 -0.03841,0.274333 -0.01097,0.323715"
     style="fill:#499ca7;fill-opacity:1;stroke:#000000;stroke-width:0.0625;stroke-opacity:0.22110554"
     inkscape:connector-curvature="0" />
  <path
     id="path963"
     d="m 3.4492355,7.1861118 0.02989,-0.07473 0.01494,-0.08469 -0.005,-0.104614 v -0.08469 -0.05978 l -0.01494,-0.0548 h -0.04483 -0.129523 l -0.03985,0.02491 -0.08469,0.03985 -0.07881,-0.0949 -0.06035,0.03841 -0.08779,0.109734 -0.05487,0.120707 0.01646,0.192034 -0.05487,0.1646 -0.09876,0.142653 0.199793,-0.145178 0.129523,-0.02989 0.144467,-0.005 0.09963,-0.06974 z"
     style="fill:#589866;fill-opacity:1;stroke:#000000;stroke-width:0.0625;stroke-opacity:0.22110554"
     inkscape:connector-curvature="0" />
  <path
     id="path965"
     d="m 3.5339235,7.0615698 0.06974,0.04483 h 0.149449 0.119559 l 0.07971,-0.03985 0.134504,-0.01993 0.104614,-0.01 0.03487,-0.01993 0.06476,-0.09963 -0.01495,-0.0548 v -0.0548 l -0.01494,-0.06476 -0.03487,-0.04484 -0.03487,-0.05978 -0.0548,-0.03487 h -0.08967 -0.144468 l -0.03985,0.03487 -0.07971,0.0548 -0.08469,0.02989 -0.114577,0.02491 -0.03985,0.02491 -0.0548,0.005 z"
     style="fill:#f9beb5;fill-opacity:1;stroke:#000000;stroke-width:0.0625;stroke-opacity:0.22110554"
     inkscape:connector-curvature="0" />
  <path
     id="path967"
     d="m 5.5648465,4.6245418 0.137282,0.08356 0.143251,0.02387 0.214876,0.02984 0.08953,0.06566 0.167126,0.02984 0.06566,0.131313 0.179063,0.268595 0.08953,0.07163 0.107438,0.131313 0.149219,0.179063 0.14922,0.149219 0.07759,0.03581 0.101469,0.02984 0.125345,0.137282 0.07759,0.149219 0.006,0.155188 0.0955,0.220845 0.101469,0.226814 0.08953,0.202938 0.05372,0.137282 0.101469,0.179064 0.07162,0.107438 0.006,0.08953 v 0.411846 l -0.04775,0.214876 -0.08953,0.08953 -0.119375,0.131313 -0.07162,0.07162 -0.08953,0.08356 -0.04775,-0.04178 v -0.143251 l 0.01194,-0.208907 v -0.14922 l -0.03581,-0.08953 -0.06566,-0.101469 -0.02388,-0.07759 0.06566,-0.131313 -0.07163,-0.179064 -0.07163,-0.167125 -0.04775,-0.155188 -0.01791,-0.131313 v -0.143251 -0.214876 l -0.03581,-0.155188 -0.113406,-0.185032 -0.0955,-0.143251 -0.179064,-0.125344 -0.125344,-0.07163 -0.137282,-0.08953 -0.08356,0.03581 -0.07163,-0.202938 -0.06566,-0.161157 -0.0776,-0.185032 -0.03581,-0.161157 -0.05372,-0.143251 -0.08953,-0.08356 -0.328283,-0.0955 z"
     style="fill:#f5231e;fill-opacity:1;stroke:#000000;stroke-width:0.0625;stroke-opacity:0.22110554"
     inkscape:connector-curvature="0" />
  <path
     id="path969"
     d="m 7.4987315,8.4206848 -0.02984,0.08953 -0.02984,0.101469 -0.07759,0.04178 -0.07163,0.03581 -0.137282,0.101469 -0.06566,-0.01791 0.04775,-0.155188 0.01194,-0.131313 -0.01791,-0.191001 v -0.226804 l -0.04775,-0.226814 -0.07759,-0.131313 -0.0776,-0.155188 -0.03581,-0.185032 -0.05969,-0.155189 -0.01194,-0.143251 -0.02388,-0.14325 -0.05372,-0.113407 v -0.256658 -0.202938 l -0.04775,-0.107438 -0.107438,-0.173094 -0.08356,-0.119376 -0.04775,-0.07759 0.01791,-0.08356 0.08356,-0.03581 0.262626,0.161157 0.179064,0.125344 0.208907,0.328283 0.03581,0.155188 v 0.358127 l 0.01791,0.131313 0.04775,0.155188 0.143251,0.346189 -0.06566,0.131313 0.02388,0.07759 0.06566,0.101469 0.03581,0.08953 z"
     style="fill:#dfb523;fill-opacity:1;stroke:#000000;stroke-width:0.0625;stroke-opacity:0.22110554"
     inkscape:connector-curvature="0" />
  <path
     id="path971"
     d="m 7.0868845,8.7728418 -0.107437,0.08356 -0.107438,0.01791 -0.191002,0.01791 -0.14325,-0.101469 -0.137282,-0.173095 -0.08953,-0.155188 -0.113407,-0.173094 -0.08356,-0.214877 -0.06566,-0.214876 -0.02388,-0.268595 v -0.179063 l -0.01194,-0.185032 v -0.167126 -0.155188 -0.191001 l -0.01791,-0.107438 0.03581,-0.04178 0.137282,0.05969 0.08356,0.125345 0.161156,0.0955 0.125345,0.05372 0.107438,0.02388 0.05969,-0.04775 0.03581,-0.05969 0.05372,0.113407 0.02388,0.14325 0.01194,0.143251 0.05969,0.155189 0.03581,0.185032 0.0776,0.155188 0.07759,0.131313 0.04775,0.226814 v 0.226813 l 0.01791,0.191001 -0.01194,0.131313 z"
     style="fill:#499ca7;fill-opacity:1;stroke:#000000;stroke-width:0.0625;stroke-opacity:0.22110554"
     inkscape:connector-curvature="0" />
  <path
     id="path973"
     d="m 6.4541945,5.8779848 -0.107438,0.05372 -0.149219,-0.02388 h -0.04775 l -0.107438,-0.04178 -0.05372,0.04178 -0.04178,0.131313 0.006,0.119376 -0.02984,0.06566 -0.03581,0.03581 -0.05372,0.04775 -0.01194,0.107438 0.113406,0.06566 0.0955,0.08356 0.137282,0.05969 0.08356,0.125345 0.161156,0.0955 0.125345,0.05372 0.107438,0.02388 0.05969,-0.04775 0.03581,-0.05969 v -0.4596 l -0.04775,-0.107438 z"
     style="fill:#589866;fill-opacity:1;stroke:#000000;stroke-width:0.0625;stroke-opacity:0.22110554"
     inkscape:connector-curvature="0" />
  <path
     id="path975"
     d="m 5.8334415,6.3077368 -0.113407,0.02984 -0.173094,-0.02388 h -0.161157 l -0.107438,-0.006 -0.05372,-0.05969 -0.006,-0.05969 -0.006,-0.0955 v -0.101469 l -0.01791,-0.07162 -0.02388,-0.04178 -0.006,-0.04178 0.05372,-0.04775 0.04775,-0.02984 0.05969,-0.006 0.0955,0.03581 0.155188,0.02388 0.119375,0.01194 0.08953,0.04178 0.01194,0.02984 0.131313,0.04775 0.01791,0.0955 0.006,0.119376 -0.02984,0.06566 z"
     style="fill:#f9beb5;fill-opacity:1;stroke:#000000;stroke-width:0.0625;stroke-opacity:0.22110554"
     inkscape:connector-curvature="0" />
  <path
     id="path979-0"
     d="m 4.2658605,4.4615478 -0.04465,0.08035 h -0.04938 l -0.06035,0.01097 -0.137167,0.0055 -0.126194,0.06035 -0.04389,0.104247 -0.04793,0.0734 0.09722,0.05792 0.103425,0.01034 0.01034,0.06619 0.0083,0.09308 0.04757,0.04344 0.08067,0.02069 0.06826,-0.02482 0.05585,-0.02069 0.03103,-0.03103 0.04551,-0.03103 h 0.04137 l 0.0393,0.01655 0.02896,0.0724 0.06412,0.05171 0.04551,0.04758 0.06826,0.02896 0.02069,0.0331 0.01862,0.02275 0.03103,0.02896 0.06619,0.0083 0.01655,-0.04137 0.02689,-0.01862 0.03516,-0.01241 0.0083,-0.03103 0.01241,-0.04137 0.02275,-0.02896 0.01241,-0.03516 0.0062,-0.03103 0.0083,-0.03516 0.0083,-0.01241 0.01655,-0.02069 0.04137,0.01655 0.03723,0.02069 0.04758,0.01655 0.05378,0.0021 h 0.07033 l 0.0331,-0.01448 0.02275,-0.03723 0.01241,-0.03103 v -0.0393 l -0.01655,-0.01862 -0.0331,-0.01862 -0.0062,-0.04137 v -0.02275 l 0.02275,-0.02069 0.02689,-0.01241 0.04964,-0.0041 0.03723,-0.02069 0.02689,-0.02896 0.01034,-0.02896 0.01241,-0.0331 -0.04964,-0.02689 -0.02069,-0.03516 -0.0393,-0.01448 -0.05171,-0.0331 -0.03103,-0.04137 -0.06826,-0.03723 -0.04758,-0.04137 -0.08759,-0.07267 -0.03906,0.102662 -0.127197,0.08313 -0.24939,0.06848 h -0.07336 l -0.08801,-0.03906 -0.08801,-0.08313 z"
     style="fill:#ff5555;fill-opacity:1;stroke:#000000;stroke-width:0.0625;stroke-opacity:0.22110554"
     inkscape:connector-curvature="0" />
  <path
     id="path981-75"
     d="m 3.7562885,4.7963568 -0.04535,0.06377 0.0288,0.09137 0.03723,0.05171 0.05171,0.0331 0.0393,0.04758 0.01034,0.03516 0.01448,0.03516 0.04758,0.04137 0.04758,0.05999 0.101357,0.0062 0.07033,-0.01862 0.05792,-0.01862 0.02482,-0.01448 h 0.0724 l 0.06826,0.0021 0.04137,0.02275 0.04344,0.05171 0.04758,0.03723 0.06826,0.03516 0.04344,0.01862 0.04551,-0.0083 0.05171,-0.01034 0.06619,0.0021 0.02896,-0.02069 0.04758,-0.02896 0.02689,-0.03516 0.02275,-0.04137 0.03103,-0.02482 0.03103,-0.03103 0.0041,-0.02482 0.04344,-0.0083 0.06412,0.0021 h 0.04137 l 0.04551,0.0062 h 0.05171 l 0.05378,-0.0021 h 0.03103 l 0.0393,-0.01034 v -0.03103 l 0.01241,-0.04344 0.0083,-0.0393 0.02689,-0.02275 0.01862,-0.01034 0.05171,-0.01241 0.03723,-0.02275 0.04137,-0.02482 0.03103,-0.0331 0.02275,-0.05792 0.01241,-0.06826 0.0062,-0.06826 -0.05724,-0.08287 -0.05239,0.0043 h -0.07447 l -0.04344,0.02275 -0.04344,0.01448 -0.02275,0.06205 -0.02689,0.02896 -0.03723,0.02069 -0.04964,0.0041 -0.04964,0.0331 v 0.02275 l 0.0062,0.04137 0.0331,0.01862 0.01655,0.05792 -0.01241,0.03103 -0.05585,0.05171 -0.12411,-0.0021 -0.04758,-0.01655 -0.0786,-0.03723 -0.02482,0.0331 -0.01448,0.06619 -0.01241,0.03516 -0.02275,0.02896 -0.02069,0.0724 -0.03516,0.01241 -0.02689,0.01862 -0.01655,0.04137 -0.06619,-0.0083 -0.04964,-0.05171 -0.02069,-0.0331 -0.06826,-0.02896 -0.04551,-0.04758 -0.06412,-0.05171 -0.02896,-0.0724 -0.0393,-0.01655 h -0.04137 l -0.04551,0.03103 -0.03103,0.03103 -0.124111,0.04551 -0.08067,-0.02069 -0.04757,-0.04344 -0.0083,-0.09308 -0.01034,-0.06619 -0.103425,-0.01034 -0.09722,-0.05792"
     style="fill:#d4a657;fill-opacity:1;stroke:#000000;stroke-width:0.0625;stroke-opacity:0.22110554"
     inkscape:connector-curvature="0" />
  <path
     id="path983-8"
     d="m 4.9553135,4.3637698 0.135163,0.114037 0.06826,0.03723 0.03103,0.04137 0.05171,0.0331 0.05999,0.04964 0.02482,0.01448 0.05378,-0.02896 0.05378,-0.01862 0.130998,0.01849 0.137282,0.08356 -0.127621,-0.106188 -0.04137,-0.0083 -0.06206,-0.01241 -0.07447,-0.03516 -0.08688,-0.05792 -0.08274,-0.03723 -0.0786,-0.03516 -0.0786,-0.01862 z"
     style="fill:#d6201a;fill-opacity:1;stroke:#000000;stroke-width:0.0625;stroke-opacity:0.22110554"
     inkscape:connector-curvature="0" />
  <path
     id="path985-7"
     d="m 3.7109435,4.8601248 -0.02743,0.241414 -0.120707,0.11522 -0.406015,0.186548 -0.104247,0.04389 -0.03841,0.07681 0.03292,0.137167 0.04938,0.09327 -0.01646,0.554155 -0.08779,0.159114 0.120708,0.115221 -0.01646,0.109733 0.07881,0.0949 0.124541,-0.06476 h 0.174357 l 0.01494,0.0548 0.0548,-0.005 0.03985,-0.02491 0.114577,-0.02491 0.08469,-0.02989 0.119559,-0.08967 h 0.234137 l 0.0548,0.03487 0.06974,0.104614 0.01494,0.06476 v 0.0548 l 0.01495,0.0548 -0.06476,0.09963 -0.127089,0.04187 -0.1469,0.0079 v 0 l -0.07971,0.03985 -0.162006,0.01134 -0.107002,-0.01134 -0.06974,-0.04483 -0.0548,0.04982 -0.02989,0.07473 0.05023,0.0668 0.11405,0.0084 h 0.143618 l 0.101377,0.0169 0.09293,0.01267 h 0.06336 0.105602 l 0.105601,0.0084 0.09293,0.0084 0.13517,0.05069 0.07603,0.0042 0.185859,0.0084 h 0.06336 0.08448 0.07603 l 0.09293,-0.01267 0.08448,-0.0042 0.06758,-0.0169 0.06336,-0.02535 0.109826,-0.01267 0.06759,-0.04224 0.13517,-0.04646 0.05491,-0.02535 0.118274,-0.01267 0.07181,-0.0042 0.06336,-0.02957 0.07181,-0.03379 0.05914,-0.04224 -0.0055,-0.456658 0.03581,-0.04178 -0.0955,-0.08356 -0.113407,-0.06566 0.01194,-0.107438 -0.113406,0.02984 -0.173095,-0.02387 -0.268595,-0.006 -0.05372,-0.05969 -0.01194,-0.256657 -0.04775,-0.155188 0.10147,-0.07759 0.05969,-0.006 0.0955,0.03581 0.274564,0.03581 0.08953,0.04178 0.01194,0.02984 0.131313,0.04775 0.01791,0.0955 0.04178,-0.131313 0.05372,-0.04178 0.107438,0.04178 0.196969,0.02387 0.107438,-0.05372 0.01791,-0.08356 -0.214877,-0.549127 -0.08953,-0.304408 -0.08953,-0.08356 -0.328283,-0.0955 -0.127795,-0.05441 -0.0062,0.06826 -0.03516,0.126179 -0.03103,0.0331 -0.130316,0.05999 -0.05378,0.0724 -0.01241,0.07447 -0.0393,0.01034 -0.182029,-0.0041 -0.148932,0.0062 -0.06619,0.08067 -0.04964,0.07653 -0.04758,0.02896 -0.09515,0.01862 -0.09722,0.01862 -0.04344,-0.01862 -0.06826,-0.03516 -0.09101,-0.08895 -0.04137,-0.02275 -0.09791,0.0048 -0.06758,0.0076 -0.128247,0.03723 -0.101357,-0.0062 -0.09515,-0.101357 -0.06412,-0.117905 -0.05171,-0.0331 z"
     style="fill:#589866;fill-opacity:1;stroke:#000000;stroke-width:0.0625;stroke-opacity:0.22110554"
     inkscape:connector-curvature="0" />
  <path
     id="path1037"
     d="m 3.4994655,7.2529158 0.09097,0.05796 0.118007,0.07509 0.155554,0.06168 0.144827,0.0295 0.155555,0.04291 0.158236,0.05632 0.09387,0.01609 0.112643,0.03755 0.123371,0.008 h 0.08314 l 0.120689,-0.01073 0.101915,0.01609 0.09655,-0.0027 h 0.09119 l 0.07241,-0.02146 0.06705,-0.02682 0.150191,-0.01877 0.02414,-0.04828 0.07241,-0.04023 0.101915,-0.0295 0.08851,-0.05632 0.08582,-0.04291 0.06437,-0.04827 0.06169,-0.04023 0.03755,-0.03487 0.01341,-0.01073 0.01467,-0.159535 -0.194307,0.105602 -0.190083,0.0169 -0.190082,0.07181 -0.06759,0.04224 -0.109826,0.01267 -0.130945,0.04224 -0.08448,0.0042 -0.09293,0.01267 -0.485767,-0.01267 -0.13517,-0.05069 -0.19853,-0.0169 h -0.168969 l -0.141087,-0.01761 -0.05322,-0.01196 h -0.143618 l -0.11405,-0.0084"
     style="fill:#b59719;fill-opacity:1;stroke:#000000;stroke-width:0.0625;stroke-opacity:0.22110554"
     inkscape:connector-curvature="0" />
  <path
     id="path1039"
     d="m 3.9284585,3.4200448 -0.112464,0.08801 -0.07824,0.107576 0.0084,0.102342 -0.03512,0.04215 0.007,0.08781 -0.04566,0.06322 -0.0843,0.04917 -0.09483,0.07025 -0.0562,0.06674 -0.03864,0.04566 -0.01054,0.06322 0.01405,0.10186 0.05269,0.06674 0.04917,0.007 0.157759,0.01194 0.599415,-0.05928 -0.08801,-0.04895 -0.04407,-0.03906 -0.04883,-0.127198 -0.04407,-0.0636 -0.03418,-0.136841 -0.02385,-0.08845 -0.02022,-0.04851 -0.01841,-0.109546 z"
     style="fill:url(#linearGradient876);fill-opacity:1;stroke:#000000;stroke-width:0.0625;stroke-opacity:0.22110554"
     inkscape:connector-curvature="0" />
  <path
     id="path1041"
     d="m 5.5745075,4.6019168 0.0543,-0.04799 0.07025,-0.04917 0.04566,-0.05269 0.01054,-0.108884 -0.01756,-0.122934 -0.08781,-0.07376 -0.09835,-0.04215 -0.01054,-0.05971 -0.03864,-0.03512 -0.02107,-0.05971 -0.03161,-0.07727 -0.03161,-0.02107 -0.03161,-0.04566 -0.0281,-0.05971 0.0126,-0.07665 -0.308058,-0.356956 -0.127135,-0.05379 0.03909,0.327626 0.03918,0.03906 0.06348,0.161377 0.005,0.09778 -0.05383,0.0636 -0.11731,0.07336 0.01953,0.141846 -0.0049,0.112427 0.0293,0.08801 0.193081,0.05198 0.161344,0.0724 0.08688,0.05792 0.07447,0.03516 z"
     style="fill:url(#linearGradient1063);fill-opacity:1;stroke:#000000;stroke-width:0.0625;stroke-opacity:0.22110554"
     inkscape:connector-curvature="0" />
  <path
     id="path1073"
     d="m 3.4994655,7.2529168 0.0085,0.156932 -0.003,0.19394 0.01515,0.06667 0.01878,0.267884 -0.03985,0.07472 0.02989,0.184321 0.02755,0.05186 0.06667,0.03636 0.133333,0.04545 0.118182,0.03636 0.07879,0.04848 0.08485,0.003 h 0.106061 l 0.03939,-0.02121 0.07273,-0.0303 0.10303,-0.01818 h 0.121213 l 0.1,0.0303 0.06364,0.06667 0.109091,0.03939 0.07576,0.03636 0.09697,0.03636 0.109091,-0.003 0.07879,-0.05152 0.130303,-0.08182 0.04545,-0.03939 0.09091,-0.0061 h 0.09394 l 0.106061,0.01818 0.08182,0.01818 0.09697,0.0091 0.05758,0.01818 0.0697,0.03636 0.07576,-0.003 0.05151,-0.03636 0.03636,-0.06364 0.03333,-0.04848 0.06061,-0.02727 0.05317,-0.0084 -0.14922,-0.429753 -0.02388,-0.268595 v -0.179063 l -0.03901,-0.189594 -0.05096,0.04559 -0.06169,0.04023 -0.06437,0.04827 -0.08582,0.04291 -0.0885,0.05632 -0.101916,0.0295 -0.07241,0.04023 -0.02414,0.04828 -0.15019,0.01877 -0.139463,0.04827 -0.187739,0.0027 -0.101915,-0.01609 -0.120689,0.01073 h -0.08314 l -0.123371,-0.008 -0.112643,-0.03755 -0.09387,-0.01609 -0.158237,-0.05632 -0.155555,-0.04291 -0.144826,-0.0295 -0.155555,-0.06168 z"
     style="fill:#445500;fill-opacity:1;stroke:#000000;stroke-width:0.0625;stroke-opacity:0.22110554"
     inkscape:connector-curvature="0" />
  <path
     id="path1075"
     d="m 3.5289425,8.1973838 -0.01,0.229155 0.02491,0.219191 v 0.144468 l -0.04982,0.199265 -0.0548,0.154431 -0.06974,0.129523 -0.05978,0.164393 -0.169376,0.104615 0.0227,0.176061 0.05376,0.13261 0.0681,0.1792032 0.06093,0.182786 0.0215,0.107522 0.0036,0.125442 0.03942,0.129025 0.0036,0.121858 0.01792,0.07885 0.07885,0.02509 0.143362,-0.01075 0.161282,0.0036 h 0.139778 0.100354 0.103937 l 0.139778,0.0036 h 0.05018 l 0.06093,-0.0036 0.02509,-0.08602 -0.01075,-0.08602 0.0036,-0.08602 0.03226,-0.09319 0.01792,-0.09318 0.02509,-0.154115 0.0036,-0.139778 0.03943,-0.1003532 0.0215,-0.114689 0.02509,-0.125442 0.02509,-0.118274 0.05018,-0.13261 0.05376,-0.09677 0.07168,-0.07885 0.04659,-0.05018 0.03226,-0.09318 0.02509,-0.103937 v 0.215042 l 0.02867,0.118274 0.0681,0.125442 0.0896,0.16845 0.03943,0.11469 0.0896,0.172034 0.0896,0.1075212 0.07527,0.11469 0.09677,0.111106 0.0896,0.0896 0.06093,0.121858 0.0215,0.154114 0.0072,0.103937 0.04301,0.05018 0.182787,0.02867 0.164866,-0.01075 0.18637,-0.01792 0.179203,-0.01075 0.08243,-0.04659 0.02509,-0.04301 v -0.0896 l -0.02867,-0.18637 -0.0215,-0.172035 -0.02509,-0.11469 -0.02867,-0.136193 v -0.1827872 -0.18637 l -0.01792,-0.21146 -0.0036,-0.189954 -0.03942,-0.229379 -0.0215,-0.125442 0.0215,-0.189955 0.03226,-0.02509 0.01534,-0.05071 -0.202938,-0.328286 -0.113774,0.03563 -0.0697,0.112121 -0.05152,0.03636 -0.07576,0.003 -0.0697,-0.03636 -0.05757,-0.01818 -0.284849,-0.04545 -0.184848,0.0061 -0.254546,0.172727 -0.109091,0.003 -0.09697,-0.03636 -0.07576,-0.03636 -0.109091,-0.03939 -0.06364,-0.06667 -0.1,-0.0303 h -0.121212 l -0.103031,0.01818 -0.112121,0.05152 -0.160545,0.02362 -0.03036,-0.02665 -0.07879,-0.04849 -0.251515,-0.08182 -0.06667,-0.03636 z"
     style="fill:#aa0044;fill-opacity:1;stroke:#000000;stroke-width:0.0625;stroke-opacity:0.22110554"
     inkscape:connector-curvature="0" />
  <path
     id="path1077"
     d="m 3.4318805,10.775781 0.0596,0.09917 0.0292,0.06813 0.141139,0.01947 0.126538,-0.0292 h 0.150872 l 0.160606,-0.0097 0.136272,-0.0049 h 0.121671 0.0438 l 0.0087,-0.125057 z"
     style="fill:#f2c95f;fill-opacity:1;stroke:#000000;stroke-width:0.0625;stroke-opacity:0.22110554"
     inkscape:connector-curvature="0" />
  <path
     id="path1079"
     d="m 5.6969995,10.808035 -0.04464,0.06205 -0.0146,0.06814 0.09247,0.0049 0.102204,-0.0146 0.107071,-0.0097 0.111937,0.0097 0.136272,0.0049 0.111938,-0.0146 0.0584,-0.01947 0.102204,-0.01947 0.0438,-0.0146 0.02434,-0.073 -0.01064,-0.08454 -0.107521,0.0896 -0.203046,0.0047 -0.327393,0.03476 z"
     style="fill:#f2c95f;fill-opacity:1;stroke:#000000;stroke-width:0.0625;stroke-opacity:0.22110554"
     inkscape:connector-curvature="0" />
  <path
     id="path1081"
     d="m 3.5206775,10.94309 v 0.452617 l 0.0146,0.17034 0.0584,0.175207 0.0146,0.18494 0.04867,0.184941 0.0292,0.141138 0.0584,0.17034 0.0097,0.111938 -0.0584,0.073 -0.02433,0.09734 -0.04867,0.111937 0.0097,0.0584 0.05354,0.09734 0.0584,0.0097 0.102204,0.0146 0.126538,-0.03407 0.116805,-0.02434 0.0584,-0.0292 0.03894,-0.073 0.03407,-0.141139 0.0146,-0.08274 v -0.126538 -0.155739 -0.126538 l 0.03893,-0.08274 0.04867,-0.175206 0.0438,-0.09247 0.06327,-0.107072 0.0097,-0.111937 -0.0049,-0.204408 v -0.146005 l 0.0097,-0.17034 -0.0049,-0.04867 -0.0438,-0.0292 0.0049,-0.116806 -0.613223,0.0146 -0.126538,0.0292 z"
     style="fill:#4e945b;fill-opacity:1;stroke:#000000;stroke-width:0.0625;stroke-opacity:0.22110554"
     inkscape:connector-curvature="0" />
  <path
     id="path1083"
     d="m 3.6228815,12.816828 -0.0876,0.01947 -0.073,0.0292 -0.0097,0.0584 v 0.06327 l 0.0146,0.09734 0.03894,0.04867 0.10707,-0.0097 0.0438,-0.0146 h 0.06327 0.0584 l 0.06327,0.01947 0.0584,0.0049 h 0.06814 l 0.04867,0.0146 0.0146,0.04867 0.0438,0.04867 0.06327,-0.02433 0.0438,-0.0438 v -0.07787 -0.07787 l -0.09247,-0.08274 v 0 l -0.243343,0.0584 -0.160606,-0.02433 z"
     style="fill:#f0c55f;fill-opacity:1;stroke:#000000;stroke-width:0.0625;stroke-opacity:0.22110554"
     inkscape:connector-curvature="0" />
  <path
     id="path1085"
     d="m 3.6131475,13.123439 -0.06327,0.0584 -0.03893,0.03407 -0.06814,0.0876 v 0.073 l 0.0049,0.150872 0.06327,0.06814 0.0584,0.05353 h 0.121671 l 0.0876,-0.02433 0.121672,-0.09247 0.0876,-0.07787 0.04867,-0.0584 0.0146,-0.05353 0.02433,-0.09734 -0.0584,-0.09734 -0.292011,-0.05841 z"
     style="fill:#eb665f;fill-opacity:1;stroke:#000000;stroke-width:0.0625;stroke-opacity:0.22110554"
     inkscape:connector-curvature="0" />
  <path
     id="path55"
     d="m 5.6377575,10.938224 0.0078,0.123691 -0.0093,0.30606 v 0.190129 l 0.0093,0.125207 v 0.0742 l 0.04174,0.12057 0.06956,0.111295 0.09738,0.106657 0.143756,0.162305 0.06029,0.120569 0.06028,0.125207 0.0093,0.120569 0.02782,0.15303 0.01391,0.143756 0.01855,0.07883 0.09275,0.06029 0.08347,0.06956 h 0.07883 l 0.106657,0.0046 0.0371,-0.02319 0.04637,-0.02319 0.06028,-0.0093 0.09275,-0.0046 0.01391,-0.06956 0.0093,-0.06956 -0.0371,-0.05565 -0.08347,-0.07883 -0.02319,-0.08811 v -0.20404 l -0.01855,-0.268962 -0.01391,-0.361708 -0.02319,-0.319973 v -0.217953 l -0.03246,-0.15303 -0.03246,-0.148393 -0.04109,-0.173504 -0.204407,0.05353 -0.111938,0.0146 -0.248209,-0.0146 -0.209275,0.02433 z"
     style="fill:#4e945b;fill-opacity:1;stroke:#000000;stroke-width:0.0625;stroke-opacity:0.22110554"
     inkscape:connector-curvature="0" />
  <path
     id="path57"
     d="m 6.7862875,13.074496 -0.09275,0.0046 -0.06028,0.0093 -0.04637,0.02319 v 0.106657 l 0.04637,0.03246 0.06028,0.02319 0.07883,0.01391 0.08811,-0.0046 0.01855,-0.04173 0.02782,-0.02319 0.06028,-0.01391 0.02319,0.01391 0.04174,0.01391 0.05565,0.0046 0.04637,-0.02319 0.01855,-0.02319 v -0.05565 -0.06956 l -0.02319,-0.06956 -0.05101,-0.04174 -0.04174,-0.06492 -0.06492,-0.02319 -0.05101,0.02782 -0.04637,0.05101 -0.06492,-0.0093 z"
     style="fill:#f0c55f;fill-opacity:1;stroke:#000000;stroke-width:0.0625;stroke-opacity:0.22110554"
     inkscape:connector-curvature="0" />
  <path
     id="path59"
     d="m 6.1880785,13.000299 -0.07883,0.01391 -0.01391,0.115932 0.01391,0.07883 0.0371,0.08347 0.04174,0.09738 0.102021,0.02782 0.129843,0.02782 0.10202,0.0371 h 0.106658 l 0.09738,0.0093 0.10202,0.01855 0.125207,0.01855 0.15303,-0.0046 0.166942,0.0046 0.162306,-0.0046 0.0742,-0.01391 0.06956,-0.02319 0.0371,-0.06029 -0.01391,-0.06029 -0.139119,-0.06956 -0.125207,-0.0371 -0.07883,-0.02319 -0.106658,-0.04637 -0.01855,0.02319 -0.04637,0.02319 -0.05565,-0.0046 -0.06492,-0.02782 -0.06028,0.01391 -0.04637,0.06492 -0.08811,0.0046 -0.139119,-0.0371 -0.08347,-0.115932 -0.185491,-0.0046 z"
     style="fill:#eb665f;fill-opacity:1;stroke:#000000;stroke-width:0.0625;stroke-opacity:0.22110554"
     inkscape:connector-curvature="0" />
  <path
     id="path61"
     d="m 3.1403745,9.5424248 -0.169375,-0.104615 -0.159413,-0.09465 -0.162351,-0.143572 -0.375803,-0.383563 -0.06194,0.07089 -0.03127,0.198025 0.01563,0.21366 0.01042,0.312672 -0.02606,0.08859 -0.04169,0.06253 -0.01563,0.09901 0.01042,0.2032372 -0.01563,0.145913 -0.05732,0.09901 -0.01042,0.151125 v 0.140702 l 0.08859,0.125069 0.114646,0.02084 0.166759,0.07296 0.06775,0.04169 0.02084,0.08859 v 0.06253 l 0.02085,0.06253 0.13028,0.05732 0.125069,0.02085 0.104224,0.05732 0.07296,0.0052 0.140702,0.0052 0.03127,0.07817 0.08338,0.07296 0.151124,0.01563 h 0.08859 l 0.06371,0.0074 v -0.452617 l -0.0888,-0.167309 -0.0215,-0.200707 -0.03942,-0.129026 -0.0036,-0.125442 -0.05631,-0.146524 -0.07817,-0.2240822 -0.06253,-0.151125 -0.02085,-0.145914 z"
     style="fill:#c6b551;fill-opacity:1;stroke:#000000;stroke-width:0.0625;stroke-opacity:0.22110554"
     inkscape:connector-curvature="0" />
  <path
     id="path63"
     d="m 4.8977565,9.0410988 -0.05734,0.197122 v 0 l -0.118274,0.129026 -0.05376,0.09677 -0.05018,0.13261 -0.111106,0.4587582 -0.0036,0.139778 -0.04301,0.2473 -0.03226,0.09319 0.0072,0.172035 -0.03384,0.211072 -0.0049,0.116806 0.0438,0.0292 0.0049,0.04867 0.0017,0.212328 v 0.06775 l 0.119857,0.0052 0.114647,-0.02085 0.08338,-0.0469 0.166758,-0.03127 0.145914,-0.109435 0.06775,-0.04169 0.06253,-0.02084 0.06253,-0.02085 0.06253,-0.01042 0.06775,-0.01563 0.0938,-0.03648 h 0.06253 l 0.08843,0.01756 -0.0078,-0.123691 0.0146,-0.06814 0.04464,-0.06205 -0.04301,-0.05018 -0.02395,-0.161668 -0.0047,-0.09638 -0.06093,-0.121858 -0.18637,-0.200706 -0.07527,-0.11469 -0.179203,-0.2795562 -0.197123,-0.408582 -0.02867,-0.118274 z"
     style="fill:#c6b551;fill-opacity:1;stroke:#000000;stroke-width:0.0625;stroke-opacity:0.22110554"
     inkscape:connector-curvature="0" />
  <path
     id="path65"
     d="m 6.4004755,8.6176538 -0.0476,0.07579 -0.0215,0.189955 0.06093,0.354821 0.0036,0.189954 0.01792,0.21146 0.0031,0.294732 -0.0031,0.07442 0.02918,0.134023 0.02458,0.11686 0.0588,0.159334 -0.01042,0.114646 0.0018,0.08442 v 0.0896 l -0.02509,0.04301 0.0114,0.114535 0.100483,-0.04495 0.161546,-0.109435 0.09901,-0.07817 0.182391,-0.104224 0.140703,-0.07817 0.07296,-0.07296 -0.01563,-0.151125 -0.0469,-0.140702 -0.04169,-0.1094354 -0.06253,-0.08338 -0.01563,-0.13028 0.01563,-0.07817 -0.03127,-0.07296 -0.02084,-0.06253 v -0.114647 l -0.0052,-0.119857 v -0.09901 -0.151125 l -0.0052,-0.119857 v -0.104225 l -0.159848,0.0343 -0.191001,0.01791 -0.143251,-0.101469 z"
     style="fill:#c6b551;fill-opacity:1;stroke:#000000;stroke-width:0.0625;stroke-opacity:0.22110554"
     inkscape:connector-curvature="0" />
  <ellipse
     style="fill:#ffcc00;fill-opacity:1;stroke:#000000;stroke-width:0.03545797;stroke-opacity:0.02617804"
     id="path983-3-0"
     cx="7.1042147"
     cy="2.6788406"
     rx="0.86224407"
     ry="0.79613394" />
  <ellipse
     style="fill:#ffdd55;fill-opacity:1;stroke:#000000;stroke-width:0.03545797;stroke-opacity:0.02617804"
     id="path985-6-4"
     cx="6.8693132"
     cy="2.2526417"
     rx="0.21380277"
     ry="0.22083576" />
  <ellipse
     ry="0.22083576"
     rx="0.21380277"
     cy="2.2779598"
     cx="7.3841295"
     id="ellipse989-8"
     style="fill:#ffdd55;fill-opacity:1;stroke:#000000;stroke-width:0.03545797;stroke-opacity:0.02617804" />
  <ellipse
     style="fill:#ffdd55;fill-opacity:1;stroke:#000000;stroke-width:0.03545797;stroke-opacity:0.02617804"
     id="ellipse991-0"
     cx="7.6626329"
     cy="2.7140045"
     rx="0.21380277"
     ry="0.22083576" />
  <ellipse
     ry="0.22083576"
     rx="0.21380277"
     cy="3.1303596"
     cx="7.3334932"
     id="ellipse993-4"
     style="fill:#ffdd55;fill-opacity:1;stroke:#000000;stroke-width:0.03545797;stroke-opacity:0.02617804" />
  <ellipse
     style="fill:#ffdd55;fill-opacity:1;stroke:#000000;stroke-width:0.03545797;stroke-opacity:0.02617804"
     id="ellipse995-2"
     cx="6.8271151"
     cy="3.1219177"
     rx="0.21380277"
     ry="0.22083576" />
  <ellipse
     ry="0.22083576"
     rx="0.21380277"
     cy="2.7111931"
     cx="6.5373583"
     id="ellipse997-9"
     style="fill:#ffdd55;fill-opacity:1;stroke:#000000;stroke-width:0.03545797;stroke-opacity:0.02617804" />
  <path
     style="fill:#aad400;fill-opacity:1;stroke:#000000;stroke-width:0.03069519;stroke-opacity:0.02617804"
     id="path999-6"
     d="m 7.4305345,2.8761648 -0.230918,-0.03126 -0.103848,0.18306 -0.08451,-0.190518 -0.233202,0.01288 0.146412,-0.15926 -0.129355,-0.170181 0.230918,0.03126 0.103847,-0.18306 0.08451,0.190518 0.233203,-0.01288 -0.146413,0.159261 z"
     inkscape:connector-curvature="0" />
  <path
     style="fill:#aa8800;fill-opacity:1;stroke:#c87137;stroke-width:0.00322345;stroke-opacity:0.02617804"
     d="m 7.0256535,3.4704738 c -0.150142,-0.01221 -0.297631,-0.06323 -0.422272,-0.146068 -0.05401,-0.03589 -0.08805,-0.06359 -0.13066,-0.106331 -0.195829,-0.196401 -0.271656,-0.46232 -0.206162,-0.723003 0.01214,-0.04833 0.02943,-0.09413 0.05498,-0.1457 0.04162,-0.08397 0.09118,-0.151467 0.160282,-0.218264 0.133931,-0.129458 0.298201,-0.208763 0.493866,-0.238423 0.04555,-0.0069 0.162255,-0.0095 0.213219,-0.0047 0.155737,0.01456 0.299887,0.0658 0.425025,0.151083 0.18143,0.123643 0.299338,0.299892 0.338993,0.50673 0.01134,0.05912 0.01414,0.162015 0.0061,0.224962 -0.0175,0.137464 -0.076,0.273453 -0.164707,0.382832 -0.179926,0.221863 -0.469508,0.34125 -0.76869,0.31691 z m 0.373388,-0.129591 c 0.03337,-0.01148 0.05645,-0.02605 0.08262,-0.05216 0.06915,-0.06897 0.08528,-0.169696 0.04152,-0.259197 -0.02725,-0.05574 -0.08262,-0.101012 -0.140096,-0.114561 -0.02347,-0.0055 -0.07163,-0.0063 -0.09311,-0.0016 -0.10313,0.02294 -0.176537,0.122386 -0.16992,0.230204 0.003,0.04884 0.02113,0.09449 0.05295,0.133322 0.02564,0.03129 0.07381,0.06075 0.114471,0.07001 0.03058,0.007 0.0818,0.0042 0.111564,-0.0061 z m -0.522274,-0.0038 c 0.05956,-0.01404 0.112976,-0.058 0.14095,-0.115988 0.02266,-0.04697 0.02889,-0.09192 0.01951,-0.140742 -0.02313,-0.120397 -0.134698,-0.198589 -0.25023,-0.17537 -0.105622,0.02123 -0.178856,0.117997 -0.17314,0.228783 0.0031,0.06019 0.02274,0.103507 0.06662,0.14698 0.02983,0.02955 0.05467,0.04453 0.09122,0.05498 0.02552,0.0073 0.07706,0.008 0.105075,0.0014 z m 0.269765,-0.396921 c 0.02659,-0.04717 0.0498,-0.0877 0.05157,-0.09006 0.0027,-0.0035 0.02344,-0.0016 0.116969,0.01111 0.08421,0.01141 0.113333,0.01433 0.112155,0.01126 -8.75e-4,-0.0023 -0.02935,-0.04056 -0.06327,-0.08506 -0.06093,-0.07992 -0.06161,-0.08099 -0.05574,-0.08757 0.0033,-0.0037 0.03596,-0.03942 0.07266,-0.07945 0.0367,-0.04004 0.06632,-0.0732 0.06583,-0.07368 -5e-4,-4.87e-4 -0.05279,0.0021 -0.116225,0.0057 -0.06343,0.0036 -0.115669,0.0062 -0.116078,0.0056 -4.37e-4,-5.5e-4 -0.01942,-0.04336 -0.04225,-0.09513 -0.02283,-0.05177 -0.04228,-0.09336 -0.04322,-0.09242 -9.37e-4,9.39e-4 -0.02445,0.04185 -0.05224,0.0909 l -0.05053,0.08919 -0.01073,-0.0011 c -0.0059,-6.06e-4 -0.05711,-0.0074 -0.113794,-0.01512 -0.05669,-0.0077 -0.10368,-0.0134 -0.104432,-0.01265 -0.0012,0.0012 0.03126,0.0448 0.107151,0.144067 l 0.01905,0.02492 -0.02425,0.02665 c -0.01334,0.01466 -0.04615,0.0505 -0.07292,0.07963 -0.02677,0.02914 -0.04833,0.05329 -0.04792,0.05367 4.38e-4,3.75e-4 0.04716,-0.002 0.103895,-0.0053 0.05673,-0.0033 0.108973,-0.0061 0.116089,-0.0061 l 0.01294,-1.57e-4 0.04137,0.09348 c 0.02276,0.05141 0.04232,0.09345 0.04347,0.09341 0.0012,-4.7e-5 0.02386,-0.03867 0.05045,-0.08584 z m 0.580197,-0.01551 c 0.07411,-0.02488 0.127201,-0.08429 0.144689,-0.16192 0.02854,-0.12667 -0.0596,-0.254709 -0.184524,-0.268056 -0.09076,-0.0097 -0.174826,0.03736 -0.214869,0.120271 -0.03813,0.07895 -0.02965,0.166821 0.02284,0.236642 0.02764,0.03677 0.0779,0.06893 0.12414,0.07944 0.03093,0.007 0.07567,0.0044 0.107729,-0.0064 z m -1.144937,0.0028 c 0.09417,-0.0209 0.162837,-0.103356 0.168945,-0.202877 0.0065,-0.105794 -0.06491,-0.205315 -0.16408,-0.228695 -0.02607,-0.0061 -0.07264,-0.0061 -0.09871,0 -0.05945,0.01401 -0.112496,0.05762 -0.140955,0.115865 -0.03376,0.0691 -0.03106,0.148554 0.0073,0.214432 0.0148,0.02541 0.05113,0.06237 0.07535,0.07664 0.04621,0.02723 0.100687,0.03605 0.152151,0.02463 z m 0.829436,-0.430273 c 0.08626,-0.012 0.158525,-0.07764 0.180694,-0.16414 0.0072,-0.02823 0.0073,-0.08209 6.3e-5,-0.109598 -0.01627,-0.06212 -0.06129,-0.11864 -0.115051,-0.144422 -0.05343,-0.02562 -0.106323,-0.02916 -0.159941,-0.0107 -0.08816,0.03035 -0.146287,0.113764 -0.146287,0.209923 0,0.119853 0.08954,0.215202 0.208485,0.222016 0.0039,2.13e-4 0.01828,-0.0012 0.03204,-0.0031 z m -0.5028,-0.02712 c 0.07602,-0.01454 0.138289,-0.07072 0.164023,-0.14797 0.0387,-0.116186 -0.02545,-0.243355 -0.14189,-0.281271 -0.03684,-0.012 -0.08559,-0.012 -0.122559,-1.1e-5 -0.150225,0.04873 -0.201711,0.235008 -0.09913,0.358672 0.02655,0.03201 0.07591,0.06122 0.118543,0.07015 0.0296,0.0062 0.05031,0.0063 0.08102,4.37e-4 z"
     id="path841-1"
     inkscape:connector-curvature="0" />
  <path
     style="fill:#008000;fill-opacity:1;stroke:#c87137;stroke-width:0.00657584;stroke-opacity:0.02617804"
     d="m 7.0534945,2.9278198 -0.04147,-0.09257 -0.07943,0.004 c -0.04369,0.0022 -0.09571,0.0056 -0.1156,0.0077 l -0.03617,0.0037 0.02015,-0.02195 c 0.09472,-0.103154 0.121227,-0.133433 0.121227,-0.138498 0,-0.0032 -0.02662,-0.04046 -0.05916,-0.08275 -0.04838,-0.06288 -0.0569,-0.07725 -0.04679,-0.07889 0.0068,-0.0011 0.05635,0.0041 0.110118,0.01157 0.114357,0.01588 0.09479,0.02664 0.157792,-0.08683 0.02359,-0.0425 0.04375,-0.07727 0.04479,-0.07727 10e-4,0 0.02056,0.04168 0.04338,0.09261 l 0.04149,0.09262 0.09256,-0.0041 c 0.05091,-0.0023 0.102922,-0.0057 0.115581,-0.0077 l 0.02302,-0.0036 -0.01389,0.01538 c -0.0076,0.0085 -0.03945,0.04349 -0.07069,0.07784 -0.03124,0.03436 -0.0568,0.06481 -0.0568,0.06767 0,0.0029 0.02672,0.04059 0.05939,0.08385 0.05301,0.0702 0.05772,0.07864 0.04389,0.07864 -0.01323,0 -0.09594,-0.0103 -0.183423,-0.02285 l -0.02426,-0.0035 -0.05048,0.08879 c -0.02776,0.04883 -0.05122,0.08879 -0.05212,0.08879 -9e-4,0 -0.0203,-0.04166 -0.04311,-0.09257 z"
     id="path843-0"
     inkscape:connector-curvature="0" />
</svg>
