<?xml version="1.0" encoding="UTF-8" standalone="no"?>
<svg
   xmlns:dc="http://purl.org/dc/elements/1.1/"
   xmlns:cc="http://creativecommons.org/ns#"
   xmlns:rdf="http://www.w3.org/1999/02/22-rdf-syntax-ns#"
   xmlns:svg="http://www.w3.org/2000/svg"
   xmlns="http://www.w3.org/2000/svg"
   xmlns:xlink="http://www.w3.org/1999/xlink"
   xmlns:sodipodi="http://sodipodi.sourceforge.net/DTD/sodipodi-0.dtd"
   xmlns:inkscape="http://www.inkscape.org/namespaces/inkscape"
   version="1.1"
   id="svg815"
   width="160"
   height="250"
   viewBox="0 0 160 250"
   sodipodi:docname="golds12.svg"
   inkscape:version="0.92.5 (2060ec1f9f, 2020-04-08)">
  <sodipodi:namedview
     pagecolor="#ffffff"
     bordercolor="#666666"
     borderopacity="1"
     objecttolerance="10"
     gridtolerance="10"
     guidetolerance="10"
     inkscape:pageopacity="0"
     inkscape:pageshadow="2"
     inkscape:window-width="1918"
     inkscape:window-height="1017"
     id="namedview10447"
     showgrid="false"
     inkscape:zoom="37.551724"
     inkscape:cx="4.4938017"
     inkscape:cy="243.12619"
     inkscape:window-x="0"
     inkscape:window-y="0"
     inkscape:window-maximized="1"
     inkscape:current-layer="svg815"
     inkscape:snap-page="true" />
  <metadata
     id="metadata821">
    <rdf:RDF>
      <cc:Work
         rdf:about="">
        <dc:format>image/svg+xml</dc:format>
        <dc:type
           rdf:resource="http://purl.org/dc/dcmitype/StillImage" />
        <dc:title></dc:title>
      </cc:Work>
    </rdf:RDF>
  </metadata>
  <defs
     id="defs819">
    <linearGradient
       gradientUnits="userSpaceOnUse"
       y2="71.008263"
       x2="88.849586"
       y1="58.644627"
       x1="82.105782"
       id="linearGradient1063"
       xlink:href="#linearGradient882"
       gradientTransform="matrix(0.0625,0,0,0.0625,90.000002,-2.4462891e-7)" />
    <linearGradient
       id="linearGradient882">
      <stop
         style="stop-color:#d16208;stop-opacity:1"
         offset="0"
         id="stop878" />
      <stop
         style="stop-color:#d16250;stop-opacity:0;"
         offset="1"
         id="stop880" />
    </linearGradient>
    <linearGradient
       gradientUnits="userSpaceOnUse"
       y2="68.472336"
       x2="56.128345"
       y1="63.697319"
       x1="61.166279"
       id="linearGradient876"
       xlink:href="#linearGradient882"
       gradientTransform="matrix(0.0625,0,0,0.0625,90.000002,-2.4462891e-7)" />
    <linearGradient
       xlink:href="#linearGradient846"
       id="linearGradient848"
       x1="72.37397"
       y1="53.171356"
       x2="72.19931"
       y2="45.564011"
       gradientUnits="userSpaceOnUse"
       gradientTransform="matrix(0.0625,0,0,0.0625,0.02143816,-4.9804688e-7)" />
    <linearGradient
       id="linearGradient846">
      <stop
         style="stop-color:#423abf;stop-opacity:1;"
         offset="0"
         id="stop842" />
      <stop
         style="stop-color:#423abf;stop-opacity:0;"
         offset="1"
         id="stop844" />
    </linearGradient>
  </defs>
  <flowRoot
     style="font-style:normal;font-variant:normal;font-weight:bold;font-stretch:normal;font-size:1px;line-height:1.25;font-family:'DejaVu Sans';-inkscape-font-specification:'DejaVu Sans Bold';letter-spacing:0px;word-spacing:0px;fill:#000000;fill-opacity:1;stroke:none;stroke-width:0.0625"
     id="flowRoot100"
     xml:space="preserve"><flowRegion
       style="stroke-width:0.0625"
       id="flowRegion102"><rect
         style="stroke-width:0.00390625"
         y="0.73863637"
         x="0.66287881"
         height="1.3636364"
         width="1.5151515"
         id="rect104" /></flowRegion><flowPara
       style="stroke-width:0.0625"
       id="flowPara106" /></flowRoot>  <rect
     y="0"
     x="0.021438159"
     height="15.625"
     width="10"
     id="golds12"
     style="fill:#ffffff;fill-opacity:1;stroke:#1a1a1a;stroke-width:0.0625;stroke-opacity:1" />
  <rect
     y="1.306818"
     x="1.3661418"
     height="12.973484"
     width="7.2537889"
     id="rect108-7"
     style="fill:none;fill-opacity:1;stroke:#1a1a1a;stroke-width:0.0625;stroke-opacity:1" />
  <g
     id="flowRoot915-43"
     style="font-style:normal;font-variant:normal;font-weight:bold;font-stretch:normal;font-size:16px;line-height:1.25;font-family:'DejaVu Sans';-inkscape-font-specification:'DejaVu Sans Bold';text-align:start;letter-spacing:0px;word-spacing:0px;text-anchor:start;fill:#000000;fill-opacity:1;stroke:none"
     transform="matrix(0.0625,0,0,0.0625,0.21082816,-4.9804689e-7)"
     aria-label="12">
    <path
       id="path4074"
       d="M 4.90625,16.623047 H 7.5625 V 9.0839844 l -2.7265625,0.5625 v -2.046875 l 2.7109375,-0.5625 h 2.859375 v 9.5859376 h 2.65625 v 2.078125 H 4.90625 Z"
       inkscape:connector-curvature="0" />
    <path
       id="path4076"
       d="m 18.773437,16.490234 h 5.132813 v 2.210938 H 15.429688 V 16.490234 L 19.6875,12.732422 q 0.570312,-0.515625 0.84375,-1.007813 0.273437,-0.492187 0.273437,-1.023437 0,-0.8203126 -0.554687,-1.3203126 -0.546875,-0.5 -1.460938,-0.5 -0.703125,0 -1.539062,0.3046875 -0.835938,0.296875 -1.789062,0.8906251 V 7.5136719 q 1.015624,-0.3359375 2.007812,-0.5078125 0.992187,-0.1796875 1.945312,-0.1796875 2.09375,0 3.25,0.921875 1.164063,0.921875 1.164063,2.5703121 0,0.953125 -0.492188,1.78125 -0.492187,0.820313 -2.070312,2.203125 z"
       inkscape:connector-curvature="0" />
  </g>
  <path
     style="fill:#d9c3a8;fill-opacity:1;stroke:#000000;stroke-width:0.0625;stroke-opacity:0.39215686"
     d="m 4.9253881,3.1669645 -0.22443,-0.0382 -0.4202,0.01432 -0.19577,0.128926 0.005,0.362901 0.086,0.195776 0.12892,0.167126 0.0334,0.124151 0.1146,0.0573 0.12415,0.02865 0.10505,-0.0191 0.1337,-0.01433 0.1337,-0.0573 0.0668,-0.08595 0.0478,-0.04297 0.0239,-0.109825 v -0.04775 l 0.0239,-0.04297 h 0.0907 l -0.0525,-0.186226 -0.0764,-0.14325 v -0.109826 l -0.0382,-0.109826 z"
     id="path825"
     inkscape:connector-curvature="0" />
  <ellipse
     style="fill:#0000ff;fill-opacity:0.54901961;stroke:#000000;stroke-width:0.05954931;stroke-opacity:0.39215686"
     id="path829"
     cx="4.7642817"
     cy="3.4477158"
     rx="0.093222357"
     ry="0.05362181" />
  <path
     style="fill:#423abf;fill-opacity:1;stroke:#000000;stroke-width:0.05524929;stroke-opacity:0.39215686"
     id="path831"
     d="m 4.4364281,3.4752635 a 0.10166249,0.05012445 0 0 1 -0.10113,0.05012 0.10166249,0.05012445 0 0 1 -0.10219,-0.0496 0.10166249,0.05012445 0 0 1 0.10005,-0.05064 0.10166249,0.05012445 0 0 1 0.10325,0.04906"
     inkscape:connector-curvature="0" />
  <path
     style="fill:#2c2929;fill-opacity:0.16230367;stroke:#000000;stroke-width:0.06430288;stroke-opacity:0.62745098"
     d="m 4.4126881,3.9556335 c 0.14657,0.06582 0.23639,0.02455 0.31192,0.02776 l 0.13644,-0.03748"
     id="path836"
     inkscape:connector-curvature="0" />
  <path
     style="fill:#d9c3a8;fill-opacity:0.74345548;stroke:#000000;stroke-width:0.0625;stroke-opacity:0.62745098"
     d="m 4.5663681,3.5662985 -0.1085,0.236134 0.0511,0.02872 c 0.0501,0.0086 0.0878,0.0048 0.12764,0.0032"
     id="path838"
     inkscape:connector-curvature="0" />
  <path
     style="fill:url(#linearGradient848);fill-opacity:1;stroke:#000000;stroke-width:0.0625;stroke-opacity:0.39215686"
     d="m 4.0849881,3.2720155 -0.0269,-0.194032 0.16912,-0.137213 0.0734,-0.04148 0.0957,-0.01276 0.083,-0.01276 0.0989,0.0032 h 0.10849 l 0.13402,0.02872 0.15317,0.06382 0.0447,0.04787 0.0383,0.09892 -0.0216,0.122314 -0.10982,-0.07163 -0.22443,-0.0382 -0.4202,0.01432 z"
     id="path840"
     inkscape:connector-curvature="0" />
  <path
     style="fill:#c83737;fill-opacity:1;stroke:#000000;stroke-width:0.0625;stroke-opacity:0.39215686"
     d="m 4.0580581,3.0779835 -0.62863,-0.408448 0.57119,0.156359 -0.17551,-0.577571 0.40526,0.440358 0.0574,-0.545661 0.22018,0.520133 0.25209,-0.488223 0.003,0.516942 0.41802,-0.427594 -0.18508,0.475459 0.46908,-0.137213 -0.44674,0.414831 -0.0447,-0.04787 -0.28719,-0.09254 -0.20742,-0.0032 -0.17869,0.02553 -0.24252,0.178696"
     id="path850"
     inkscape:connector-curvature="0" />
  <path
     style="fill:#dac5ab;fill-opacity:1;stroke:#000000;stroke-width:0.062625;stroke-miterlimit:4;stroke-dasharray:none;stroke-opacity:0.15686275"
     d="m 4.4526581,4.1792695 -0.0181,0.04747 0.01,0.124449 h 0.36058 l 0.0447,-0.02553 0.0734,-0.02872 0.0734,-0.01596 0.0606,-0.04467 0.0255,-0.02872 v -0.102112 l -0.0185,-0.117218 -0.1146,0.128926 -0.1337,0.0573 -0.23875,0.03343 z"
     id="path852"
     inkscape:connector-curvature="0" />
  <path
     style="fill:#f5991f;fill-opacity:0.70588235;stroke:#000000;stroke-width:0.062625;stroke-miterlimit:4;stroke-dasharray:none;stroke-opacity:0.15686275"
     d="m 4.0849881,3.2720155 -0.062,0.131451 -0.0415,0.102112 -0.0255,0.06701 -0.0638,0.01915 -0.003,0.102112 0.003,0.08616 -0.01,0.102112 -0.11488,0.05425 -0.0383,0.08297 h -0.0606 l -0.0287,0.07339 -0.0447,0.06063 -0.01,0.169123 0.003,0.111685 0.0989,0.0702 h 0.14359 l 0.1085,-0.01276 0.11807,-0.03191 0.1053,-0.01595 0.083,0.02553 0.10849,0.01276 0.083,-0.03191 0.0574,0.01276 -0.0511,-0.111685 -0.01,-0.124449 -0.0965,-0.104775 -0.0334,-0.124151 -0.21487,-0.362902 z"
     id="path854"
     inkscape:connector-curvature="0" />
  <path
     style="fill:#f5991f;fill-opacity:0.70588235;stroke:#000000;stroke-width:0.062625;stroke-miterlimit:4;stroke-dasharray:none;stroke-opacity:0.15686275"
     d="m 5.0568381,3.1162765 0.0638,0.07658 0.0511,0.05106 0.0862,0.02872 0.0447,0.0702 0.01,0.105304 -0.016,0.05425 0.083,0.04148 0.10211,0.05744 0.0704,0.0654 0.0798,0.0688 0.07,0.05324 0.0766,0.07461 0.0451,0.071 0.0211,0.11467 -0.007,0.09573 -0.0449,0.09993 -0.10452,0.157805 -0.22939,-0.03313 -0.0764,-0.02511 -0.14777,-0.08558 -0.0758,-0.05746 -0.0766,0.0064 -0.0185,-0.21933 0.0477,-0.200551 h 0.0907 l -0.0525,-0.186226 -0.0764,-0.14325 v -0.109826 l -0.0382,-0.109825 0.0216,-0.122314"
     id="path856"
     inkscape:connector-curvature="0" />
  <path
     style="fill:#443e36;fill-opacity:1;stroke:#000000;stroke-width:0.062625;stroke-miterlimit:4;stroke-dasharray:none;stroke-opacity:0.00523562"
     d="m 4.2035981,3.3798205 0.0522,-0.04419 0.12856,-0.0241 0.0683,-0.008 0.0442,0.06026"
     id="path858"
     inkscape:connector-curvature="0" />
  <path
     id="path860"
     d="m 4.9156981,3.3557155 -0.0522,-0.04419 -0.12856,-0.0241 -0.0683,-0.008 -0.0442,0.06026"
     style="fill:#443e36;fill-opacity:1;stroke:#000000;stroke-width:0.062625;stroke-miterlimit:4;stroke-dasharray:none;stroke-opacity:0.00523562"
     inkscape:connector-curvature="0" />
  <path
     style="fill:#b8bc00;fill-opacity:0.54901961;stroke:#000000;stroke-width:0.062625;stroke-miterlimit:4;stroke-dasharray:none;stroke-opacity:0.39215686"
     d="m 4.4952181,4.4628785 0.16844,0.07661 0.14206,-0.01522 0.11161,-0.05073 h 0.19279 l 0.0761,-0.03044 0.0761,-0.0761 0.0406,-0.06088 -0.14396,-0.10489 -0.0766,0.0064 -0.0862,0.07339 -0.0734,0.01596 -0.11807,0.05425 h -0.36058 z"
     id="path864"
     inkscape:connector-curvature="0" />
  <path
     style="fill:#b8bc00;fill-opacity:1;stroke:#000000;stroke-width:0.062625;stroke-miterlimit:4;stroke-dasharray:none;stroke-opacity:0.39215686"
     d="m 3.4916881,4.5394855 -0.0507,0.14713 0.0101,0.11669 0.0152,0.136983 0.0862,0.279041 0.0913,0.319628 0.0507,0.136983 0.0355,0.136984 0.0457,0.172497 0.0203,0.13191 0.0152,0.11669 0.0812,0.04566 0.0507,0.08625 -0.005,0.11669 v 0.0761 l -0.005,0.09132 0.0355,0.11669 0.005,0.07103 h 0.14206 l 0.13698,-0.106542 0.0761,-0.04566 0.10147,-0.01522 0.0558,-0.04566 v -0.268894 l -0.0406,-0.339922 -0.066,-0.182644 -0.071,-0.187719 -0.0152,-0.167424 -0.0964,-0.197865 -0.1725,-0.157277 -0.11669,-0.11669 -0.0152,-0.121763 -0.0406,-0.106542 -0.13191,-0.10147 z"
     id="path866"
     inkscape:connector-curvature="0" />
  <path
     style="fill:#b8bc00;fill-opacity:1;stroke:#000000;stroke-width:0.062625;stroke-miterlimit:4;stroke-dasharray:none;stroke-opacity:0.39215686"
     d="m 5.1659281,5.0011705 -0.0203,1.075574 -0.0457,0.04566 -0.0355,0.09132 -0.071,0.126837 v 0.202938 0.299335 l 0.0203,0.08117 0.0913,0.0051 0.071,-0.02537 0.0355,-0.126836 0.0609,-0.05074 0.066,-0.05581 0.0558,-0.04566 0.0761,-0.06088 0.10147,-0.02537 0.11162,-0.08118 0.0406,-0.08118 0.0152,-0.223232 -0.0254,-0.218159 0.0203,-0.08118 0.0203,-0.172497 0.0304,-0.324702 v -0.258747 l 0.005,-0.26382 v -0.121763 l -0.36529,0.2486 -0.16743,0.01522 z"
     id="path868"
     inkscape:connector-curvature="0" />
  <path
     style="fill:#b8bc00;fill-opacity:0.9842932;stroke:#000000;stroke-width:0.062625;stroke-miterlimit:4;stroke-dasharray:none;stroke-opacity:0.39215686"
     d="m 3.9736681,6.8377635 h 0.14205 l 0.87771,0.0051 0.0203,0.08118 0.0913,0.0051 0.071,-0.02537 0.0863,0.08117 0.0609,0.02029 0.0609,0.05073 0.0558,0.06596 0.0609,0.0761 -0.13698,0.05581 -0.16742,0.05581 -0.18772,0.09132 -0.16235,0.08118 -0.0964,0.02537 -0.16743,0.02537 -0.1725,-0.04059 -0.20801,-0.0964 -0.18772,-0.0964 -0.16742,-0.0964 -0.14206,-0.111617 -0.11669,-0.08625 v -0.0761 l 0.10655,-0.05074 0.14713,-0.01522 z"
     id="path870"
     inkscape:connector-curvature="0" />
  <path
     style="fill:#b8bc00;fill-opacity:0.99476438;stroke:#000000;stroke-width:0.062625;stroke-miterlimit:4;stroke-dasharray:none;stroke-opacity:0.39215686"
     d="m 3.8468281,7.2030545 v 0.213084 l 0.0101,0.228306 -0.0152,0.243526 -0.0355,0.319628 v 0.26382 l -0.0355,0.177571 v 0.177572 l -0.0101,0.233378 -0.0812,0.126837 -0.0304,0.2486 -0.066,0.202938 -0.0152,0.228306 -0.0761,0.2384535 -0.0254,0.197865 -0.0964,0.324701 -0.0152,0.268894 -0.11669,0.446464 -0.10654,0.39573 -0.16743,0.446466 -0.066,0.355141 -0.0609,0.147131 -0.0254,0.101469 0.26382,0.01522 0.13191,0.03551 h 0.21309 l 0.15728,-0.08118 0.0964,-0.213085 0.0913,-0.223232 0.0457,-0.258747 0.066,-0.284114 0.0761,-0.273967 0.0457,-0.192791 0.0863,-0.294261 0.0457,-0.294261 0.0863,-0.289187 0.0203,-0.202939 0.0304,-0.192791 0.0102,-0.4413915 0.071,-0.558081 0.0812,-0.426171 0.0406,-0.466759 v -0.355142 l -0.0609,-0.299333 z"
     id="path872"
     inkscape:connector-curvature="0" />
  <path
     style="fill:#b8bc00;fill-opacity:1;stroke:#000000;stroke-width:0.062625;stroke-miterlimit:4;stroke-dasharray:none;stroke-opacity:0.39215686"
     d="m 5.1963681,7.3095975 -0.0406,0.116688 v 0.182644 l 0.0254,0.355143 0.0355,0.522567 0.066,0.537787 0.0558,0.441391 0.18265,0.9030765 0.18771,0.755946 0.1725,0.593595 0.17757,0.517493 0.11162,0.304407 0.0812,0.167425 0.1725,0.04566 h 0.16742 0.25367 l 0.13191,-0.04566 -0.0152,-0.213086 -0.11669,-0.197865 -0.0355,-0.106542 -0.0761,-0.268894 -0.0913,-0.284114 -0.0761,-0.253673 -0.0406,-0.182644 -0.0609,-0.2486 -0.0609,-0.273967 -0.0761,-0.334848 -0.0457,-0.2486 -0.0355,-0.2384535 -0.0507,-0.213086 -0.0507,-0.268893 -0.0355,-0.329775 -0.0304,-0.29426 -0.0406,-0.2486 -0.0863,-0.27904 -0.0812,-0.334849 -0.10654,-0.273967 -0.11669,-0.243526 -0.13698,-0.08625 -0.0101,-0.08625 z"
     id="path874"
     inkscape:connector-curvature="0" />
  <path
     style="fill:#b8bc00;fill-opacity:0.99476438;stroke:#000000;stroke-width:0.062625;stroke-miterlimit:4;stroke-dasharray:none;stroke-opacity:0.39215686"
     d="m 4.5418981,9.0092055 0.26382,0.405877 0.26382,-0.36529 0.10654,0.284115 0.0609,0.213085 0.071,0.339922 0.0507,0.3297755 0.066,0.314555 0.0761,0.360215 0.11161,0.36529 0.0203,0.111616 -0.38558,-0.0051 -0.0558,-0.142057 -0.071,-0.309481 -0.0863,-0.314555 -0.0812,-0.238453 -0.066,-0.116689 -0.0558,-0.01522 -0.0609,0.197865 -0.0406,0.263821 -0.0152,0.319627 -0.0406,0.2486 0.0101,0.147131 -0.47691,-0.02029 -0.0203,-0.162351 0.0558,-0.233379 0.0761,-0.243527 0.0457,-0.218158 0.0203,-0.446465 0.0863,-0.3449955 0.0254,-0.268893 v -0.208012 z"
     id="path876"
     inkscape:connector-curvature="0" />
  <path
     style="fill:#b8bc00;fill-opacity:1;stroke:#000000;stroke-width:0.062625;stroke-miterlimit:4;stroke-dasharray:none;stroke-opacity:0.39215686"
     d="m 3.1162481,6.3050505 0.0102,0.213085 v 0.2486 l -0.0304,0.111616 -0.16742,0.03551 -0.21816,-0.01015 -0.345,0.03044 -0.37543,-0.0051 h -0.066 l -0.005,-0.481978 0.12176,-0.157278 0.066,-0.04566 0.51749,0.0051 0.22324,-0.01015 h 0.16235 z"
     id="path878"
     inkscape:connector-curvature="0" />
  <path
     style="fill:#b8bc00;fill-opacity:1;stroke:#000000;stroke-width:0.062625;stroke-miterlimit:4;stroke-dasharray:none;stroke-opacity:0.39215686"
     d="m 6.1603281,6.5079885 0.066,0.126837 0.0152,0.142057 -0.0406,0.197865 v 0.04059 l 0.0457,0.0051 h 0.10654 l 0.0609,-0.01015 0.11669,-0.01522 0.0304,-0.06595 0.0254,-0.13191 v -0.147131 l -0.0457,-0.106542 -0.066,-0.06595 -0.0913,-0.04059 -0.15727,0.05073 z"
     id="path880"
     inkscape:connector-curvature="0" />
  <path
     style="fill:#dfc9b1;fill-opacity:1;stroke:#000000;stroke-width:0.062625;stroke-miterlimit:4;stroke-dasharray:none;stroke-opacity:0.39215686"
     d="m 6.1603281,6.5079885 -0.11162,0.05074 -0.17757,0.01015 -0.23845,-0.01522 -0.0609,-0.01522 -0.10147,0.02537 -0.25875,0.213086 -0.0355,0.126836 0.0863,0.08118 0.12177,0.07103 0.21308,0.02537 0.14206,-0.02537 0.21816,-0.01522 0.12684,-0.03552 0.11669,-0.03044 0.0406,-0.197865 -0.0152,-0.142057 z"
     id="path886"
     inkscape:connector-curvature="0" />
  <path
     style="fill:#cf5853;fill-opacity:1;stroke:#000000;stroke-width:0.062625;stroke-miterlimit:4;stroke-dasharray:none;stroke-opacity:0.39215686"
     d="m 3.6878981,4.5043615 0.0682,0.07877 0.13499,0.121487 0.099,0.116988 0.10349,0.107989 0.12598,0.036 h 0.14399 l 0.0405,0.19348 0.0945,0.107989 0.17548,0.045 0.17548,-0.009 0.09,-0.027 0.0855,-0.0495 0.036,-0.07199 0.036,-0.139485 -0.005,-0.05849 0.0405,-0.036 h 0.10799 l 0.12599,-0.027 0.13048,-0.08099 0.12149,-0.08099 0.12149,-0.112489 0.12149,-0.08999 0.12149,-0.06749 -0.33297,-0.07199 -0.22048,-0.027 -0.12697,-0.05654 -0.11669,0.136983 -0.0761,0.03044 h -0.19279 l -0.11162,0.05073 -0.14206,0.01522 -0.16843,-0.07661 -0.0574,-0.01276 -0.083,0.03191 -0.19146,-0.03829 -0.22337,0.04787 z"
     id="path888"
     inkscape:connector-curvature="0" />
  <path
     style="fill:#dfc9b1;fill-opacity:1;stroke:#000000;stroke-width:0.062625;stroke-miterlimit:4;stroke-dasharray:none;stroke-opacity:0.39215686"
     d="m 3.1162481,6.3050505 0.11336,-0.0211 0.13949,-0.027 0.11249,0.0045 0.17098,0.0045 0.0855,0.0405 0.081,0.045 0.072,0.0405 0.042,0.258104 0.0355,0.11669 -0.27553,0.04366 -0.29697,0.07199 -0.24297,-0.0135 -0.0572,0.0095 0.0304,-0.111616 z"
     id="path892"
     inkscape:connector-curvature="0" />
  <path
     style="fill:#cf5853;fill-opacity:1;stroke:#000000;stroke-width:0.062625;stroke-miterlimit:4;stroke-dasharray:none;stroke-opacity:0.39215686"
     d="m 5.9833281,4.4616385 0.29119,0.136731 0.1326,0.160514 0.17447,0.146557 0.0628,0.111662 0.14655,0.118641 0.0907,0.07677 v 0.0977 l 0.15354,0.104683 0.24426,0.146556 0.18145,0.230304 0.14656,0.230303 0.11864,0.418733 0.0977,0.460606 0.0209,0.209366 0.0349,0.383838 0.0279,0.321029 -0.0209,0.293113 -0.0628,0.348944 -0.0558,0.174472 -0.0209,-0.230303 -0.0279,-0.216345 -0.0349,-0.132599 -0.0558,-0.265198 -0.0628,-0.24426 -0.0907,-0.25124 -0.0768,-0.230303 -0.14656,-0.43967 -0.12562,-0.216345 -0.1326,-0.195409 -0.17447,-0.181451 -0.0349,-0.02094 -0.31405,0.174472 -0.13958,0.04187 -0.12562,0.07677 -0.0768,0.02792 -0.13957,0.06281 -0.14656,0.02094 -0.11782,-0.0368 0.0152,-0.223232 -0.0254,-0.218159 0.071,-0.578375 0.005,-0.64433 z"
     id="path894"
     inkscape:connector-curvature="0" />
  <path
     style="fill:#cf5853;fill-opacity:1;stroke:#000000;stroke-width:0.062625;stroke-miterlimit:4;stroke-dasharray:none;stroke-opacity:0.39215686"
     d="m 2.8129881,5.1287645 -0.12562,0.07677 -0.1326,0.181451 -0.0349,0.125619 -0.1326,0.209367 -0.15353,0.132598 -0.18145,0.07677 -0.11166,0.01396 -0.14656,0.216345 -0.13958,0.104684 -0.0628,0.216345 -0.0419,0.202387 0.0489,0.286135 0.0768,0.251239 v 0.369881 0.362902 l 0.0279,0.230303 0.0349,0.348943 0.0838,0.216346 0.23728,0.286134 0.24427,0.209366 0.33498,0.223324 0.17447,0.007 -0.36988,-0.230303 -0.29311,-0.251239 -0.18145,-0.328008 -0.0768,-0.24426 -0.007,-0.272177 v -0.202387 l 0.007,-0.286135 0.0209,-0.362901 0.0209,-0.223324 -0.01,-0.146788 -0.005,-0.481978 0.12176,-0.157278 0.1163,-0.100274 0.18145,-0.02094 0.23031,-0.01396 0.1954,-0.132598 0.11167,-0.07677 0.1954,-0.08375 0.34197,-0.12562 h 0.14656 0.0907 l 0.0442,-0.05999 -0.22831,-0.735652 -0.0254,-0.253673 0.0507,-0.14713 -0.15528,0.07284 -0.0628,0.09072 -0.10468,0.12562 -0.0837,0.104683 -0.0977,0.0977 z"
     id="path896"
     inkscape:connector-curvature="0" />
  <path
     style="fill:#806600;fill-opacity:1;stroke:#000000;stroke-width:0.062625;stroke-miterlimit:4;stroke-dasharray:none;stroke-opacity:0.39215686"
     d="m 2.8129881,9.4766065 -0.0901,-0.179086 -0.0878,-0.211777 -0.0362,-0.191116 -0.0413,-0.18595 v -0.154959 l -0.0258,-0.232437 -0.005,-0.196282 0.0207,-0.211777 v -0.165289 l 0.0258,-0.139462 0.0207,-0.170455 0.0568,-0.144629 0.0878,-0.129131 0.12914,-0.134298 0.14462,-0.08264 0.0838,-0.06896 -0.16742,0.03551 -0.21816,-0.01015 -0.34499,0.03044 -0.4414,-0.0051 0.01,0.146788 -0.0372,0.506772 -0.0155,0.340909 0.0103,0.315083 5.1e-4,0.18416 0.0768,0.24426 0.18145,0.328008 0.25264,0.19915 0.22727,0.149793 z"
     id="path898"
     inkscape:connector-curvature="0" />
  <path
     style="fill:#806600;fill-opacity:1;stroke:#000000;stroke-width:0.062625;stroke-miterlimit:4;stroke-dasharray:none;stroke-opacity:0.39215686"
     d="m 3.6946281,5.6759405 -0.0442,0.05999 h -0.23728 l -0.53738,0.209367 -0.30707,0.209366 -0.41175,0.03489 -0.0503,0.05461 0.90307,-0.0051 0.10655,0.06596 0.25284,-0.04809 0.28347,0.009 0.23848,0.125987 10e-4,-0.112259 -0.0812,-0.04566 -0.11669,-0.558081 z"
     id="path900"
     inkscape:connector-curvature="0" />
  <path
     style="fill:#806600;fill-opacity:1;stroke:#000000;stroke-width:0.062625;stroke-miterlimit:4;stroke-dasharray:none;stroke-opacity:0.39215686"
     d="m 5.7240081,6.3760805 -0.0406,0.08118 -0.11162,0.08118 0.29934,0.03044 0.17757,-0.01015 0.11162,-0.05074 0.22323,-0.07103 0.0913,0.04059 0.066,0.06595 0.0457,0.106542 v 0.147131 l -0.0254,0.13191 -0.0304,0.06595 -0.0836,0.02975 0.0568,0.144629 0.0517,0.242768 0.0723,0.237603 0.13946,0.211777 0.0568,0.154959 0.0413,0.237604 0.0207,0.206611 0.0775,0.123967 0.0207,0.17562 0.0516,0.315082 v 0.268595 l 0.0103,0.242769 0.0516,0.04132 0.0723,-0.03099 0.093,-0.09298 0.0671,-0.123968 0.0826,-0.10847 0.0981,-0.129133 0.0981,-0.144628 0.062,-0.108471 0.0465,-0.129132 0.0503,-0.128168 -0.0489,-0.446648 -0.15353,-0.642057 -0.31405,-0.921213 -0.12562,-0.216345 -0.1326,-0.195409 -0.17447,-0.181451 -0.0349,-0.02094 -0.31405,0.174472 -0.13958,0.04187 -0.20239,0.104684 -0.13958,0.06281 -0.14655,0.02094 z"
     id="path902"
     inkscape:connector-curvature="0" />
  <path
     style="fill:#68aba2;fill-opacity:1;stroke:#000000;stroke-width:0.062625;stroke-miterlimit:4;stroke-dasharray:none;stroke-opacity:0.39215686"
     d="m 3.0959581,6.8783525 0.0866,0.08962 0.0568,0.118802 0.0258,0.139463 0.0103,0.247934 v 1.131198 l -0.0413,0.216942 -0.14979,0.273761 -0.0413,0.154958 -0.0465,0.113637 -0.18366,0.111937 -0.0901,-0.179086 -0.0878,-0.211777 -0.0775,-0.377066 v -0.154959 l -0.0258,-0.232437 -0.005,-0.196282 0.0207,-0.211777 v -0.165289 l 0.0465,-0.309917 0.0568,-0.144629 0.0878,-0.129131 0.12913,-0.134298 0.14463,-0.08264 z"
     id="path904"
     inkscape:connector-curvature="0" />
  <path
     style="fill:#68aba2;fill-opacity:1;stroke:#000000;stroke-width:0.062625;stroke-miterlimit:4;stroke-dasharray:none;stroke-opacity:0.39215686"
     d="m 6.4470581,7.0247925 -0.0939,-0.0044 -0.1522,-0.0051 0.003,0.872062 0.0207,0.206611 0.031,0.294422 0.0826,0.18595 0.24793,0.542356 0.18595,0.3719 0.0465,0.07232 0.0981,0.03099 0.12913,-0.0052 -0.0103,-0.511364 -0.0723,-0.490703 -0.0775,-0.123967 -0.0207,-0.206611 -0.0413,-0.237604 -0.0568,-0.154958 -0.13946,-0.211777 -0.0723,-0.237603 -0.0516,-0.242769 z"
     id="path906"
     inkscape:connector-curvature="0" />
  <path
     style="fill:#68aba2;fill-opacity:1;stroke:#000000;stroke-width:0.062625;stroke-miterlimit:4;stroke-dasharray:none;stroke-opacity:0.39215686"
     d="m 5.3365181,12.386364 h -0.20144 l -0.0413,0.134298 0.093,0.144628 0.0413,0.253099 0.26859,0.02583 0.1343,0.118802 0.21178,0.144628 0.24793,0.103306 0.22211,0.01033 h 0.16529 l 0.0568,-0.108472 -0.093,-0.03616 -0.1343,-0.08781 -0.0878,-0.154959 -0.10331,-0.09814 -0.0775,-0.06715 -0.0155,-0.0155 -0.27376,0.03099 -0.0826,0.04649 -0.062,-0.05165 -0.0207,-0.09298 -0.0413,-0.05165 h -0.1033 l -0.0413,-0.06198 z"
     id="path908"
     inkscape:connector-curvature="0" />
  <path
     style="fill:#68aba2;fill-opacity:1;stroke:#000000;stroke-width:0.062625;stroke-miterlimit:4;stroke-dasharray:none;stroke-opacity:0.39215686"
     d="m 4.8096581,12.391529 0.005,0.42872 -0.15496,0.149793 -0.20661,0.0155 -0.20144,0.113636 -0.19112,0.129132 -0.0671,0.03616 h -0.20661 l -0.27376,0.03099 -0.0826,-0.07748 0.1188,-0.05165 0.35124,-0.387397 0.0516,-0.04132 -0.0207,0.108471 0.0671,0.07231 0.10331,0.02066 0.1188,-0.01033 0.0516,-0.02066 0.0775,-0.05165 0.0465,-0.06715 0.0568,-0.06198 0.062,-0.05165 0.0775,-0.06715 0.0878,-0.103307 0.0155,-0.07748 0.0155,-0.05165 z"
     id="path910"
     inkscape:connector-curvature="0" />
  <path
     style="fill:#c04d49;fill-opacity:1;stroke:#000000;stroke-width:0.062625;stroke-miterlimit:4;stroke-dasharray:none;stroke-opacity:0.39215686"
     d="m 3.9522281,12.737604 0.11363,-0.118802 0.0775,-0.05682 0.093,-0.06715 0.0981,-0.07231 0.0517,-0.03616 0.32542,-0.01033 -0.031,0.129131 -0.22728,0.222108 -0.1033,0.129132 -0.12913,0.07231 -0.22211,-0.01033 -0.0671,-0.07231 z"
     id="path912"
     inkscape:connector-curvature="0" />
  <path
     style="fill:#c04d49;fill-opacity:1;stroke:#000000;stroke-width:0.062625;stroke-miterlimit:4;stroke-dasharray:none;stroke-opacity:0.39215686"
     d="m 5.3365181,12.386364 h 0.43905 l 0.0827,0.08781 0.0671,0.07231 0.0465,0.08264 0.0517,0.123967 -0.27376,0.03099 -0.0826,0.04649 -0.062,-0.05165 -0.0207,-0.09298 -0.0413,-0.05165 h -0.1033 z"
     id="path914"
     inkscape:connector-curvature="0" />
  <path
     style="fill:#3f3b35;fill-opacity:1;stroke:#000000;stroke-width:0.062625;stroke-miterlimit:4;stroke-dasharray:none;stroke-opacity:0.39215686"
     d="m 3.4916881,4.5394855 0.19621,-0.03512 0.40563,0.425229 0.12598,0.036 h 0.14399 l 0.0405,0.19348 0.0945,0.107989 0.17548,0.045 0.17548,-0.009 0.17548,-0.07649 0.072,-0.211478 0.036,-0.09449 h 0.10799 l 0.12599,-0.027 0.49495,-0.364463 0.12149,-0.06749 -0.19337,0.250346 -0.36529,0.2486 -0.25875,0.04059 -0.0203,1.075574 -0.1522,0.26382 v 0.502274 l -0.87771,-0.0051 0.13699,-0.106542 0.0761,-0.04566 0.15727,-0.06088 v -0.268894 l -0.0406,-0.339922 -0.13698,-0.370363 -0.0152,-0.167424 -0.0964,-0.197865 -0.28919,-0.273967 -0.0558,-0.228305 z"
     id="path916"
     inkscape:connector-curvature="0" />
  <path
     style="fill:#3f3b35;fill-opacity:1;stroke:#000000;stroke-width:0.062625;stroke-miterlimit:4;stroke-dasharray:none;stroke-opacity:0.39215686"
     d="m 3.9685881,6.7667365 0.005,0.07103 -0.13191,0.02537 -0.14713,0.01522 -0.10654,0.05074 v 0.0761 l 0.25875,0.197865 0.0102,0.44139 -0.0507,0.563154 v 0.26382 l -0.0355,0.177571 -0.0101,0.41095 -0.19456,-0.07417 -0.11678,-0.07556 -0.0378,-0.06182 0.0206,-0.113344 0.0653,-0.202646 0.0687,-0.188908 0.0206,-0.21295 v -0.195776 -0.144256 -0.09961 l 0.0275,-0.0893 0.055,-0.127083 0.0172,-0.109909 v -0.106475 l -0.0481,-0.03778 -0.0893,0.05152 -0.0412,0.079 -0.0927,0.195776 -0.0687,0.16143 -0.055,0.288513 -0.026,-0.770342 -0.0258,-0.139463 -0.0568,-0.118802 -0.0866,-0.08962 0.30014,0.004 0.29697,-0.07199 z"
     id="path918-1"
     inkscape:connector-curvature="0" />
  <path
     style="fill:#3f3b35;fill-opacity:1;stroke:#000000;stroke-width:0.062625;stroke-miterlimit:4;stroke-dasharray:none;stroke-opacity:0.39215686"
     d="m 6.2009181,6.9747475 -0.24353,0.06596 -0.21816,0.01522 -0.14205,0.02537 -0.21309,-0.02537 0.11669,0.142057 0.0102,0.08625 0.13698,0.08625 0.22324,0.517493 0.16742,0.613889 0.0348,0.05801 0.0824,-0.01374 0.0481,-0.03435 0.0584,-0.03778 -0.006,-0.08557 -0.0517,-0.501033 -0.003,-0.872062 z"
     id="path920-4"
     inkscape:connector-curvature="0" />
  <path
     style="fill:#3f3b35;fill-opacity:1;stroke:#000000;stroke-width:0.062625;stroke-miterlimit:4;stroke-dasharray:none;stroke-opacity:0.39215686"
     d="m 4.4099881,7.4922415 0.17249,0.04059 0.16743,-0.02537 0.0964,-0.02537 0.35007,-0.172497 -0.0406,0.116688 0.0447,0.86056 0.0207,0.278926 0.0379,0.251377 0.0448,0.303031 0.0346,0.345638 -0.16235,-0.13191 -0.10655,-0.284115 -0.26382,0.36529 -0.26382,-0.405877 -0.0457,0.248599 v 0.208012 l -0.18416,-0.139026 0.0379,-0.309918 0.0413,-0.216941 0.039,-0.186456 0.0264,-0.319743 0.0207,-0.210055 -0.003,-0.203168 -0.003,-0.08894 z"
     id="path922-6"
     inkscape:connector-curvature="0" />
  <path
     style="fill:#cf5853;fill-opacity:1;stroke:#000000;stroke-width:0.062625;stroke-miterlimit:4;stroke-dasharray:none;stroke-opacity:0.39215686"
     d="m 3.2912481,7.9965815 0.0549,-0.288513 0.20265,-0.436204 0.0893,-0.05152 0.0481,0.03778 -0.0172,0.216384 -0.055,0.127083 -0.0275,0.0893 -0.0206,0.652588 -0.13395,0.391554 -0.0206,0.113344 0.15456,0.137387 0.19455,0.07417 -0.0812,0.126837 -0.0304,0.2486 -0.066,0.202938 -0.0152,0.228306 -0.0761,0.2384535 -0.0254,0.197865 -0.0964,0.324701 -0.0152,0.268894 -0.22323,0.842194 -0.16742,0.446466 -0.066,0.355141 -0.0609,0.147131 -0.0254,0.101469 -0.14773,0.0088 -0.181,-0.04344 -0.23893,-0.123084 -0.19187,-0.08326 -0.17376,-0.101363 -0.1086,-0.04706 -0.0543,-0.08688 -0.0109,-0.0724 0.0615,-0.09774 0.1086,-0.213587 0.0941,-0.235307 0.10498,-0.228068 0.0869,-0.228067 0.0796,-0.199106 0.0579,-0.191866 0.0724,-0.166525 0.076,-0.141184 0.11585,-0.195487 0.0724,-0.267888 0.12308,-0.2751295 0.0507,-0.217206 0.004,-0.106425 0.18365,-0.111937 0.0878,-0.268595 0.1498,-0.273761 0.0413,-0.216942 z"
     id="path924"
     inkscape:connector-curvature="0" />
  <path
     style="fill:#cf5853;fill-opacity:1;stroke:#000000;stroke-width:0.062625;stroke-miterlimit:4;stroke-dasharray:none;stroke-opacity:0.39215686"
     d="m 4.4962281,9.4658165 -0.18416,-0.139026 -0.034,0.270937 -0.0101,0.4413915 -0.0507,0.39573 -0.0863,0.289187 -0.0457,0.294261 -0.31962,1.30388 0.0424,0.0615 0.57803,0.0027 0.32541,-0.01033 0.0981,0.0155 0.32541,-0.0052 h 0.20145 0.43905 l 0.3157,-0.03326 -0.17837,-0.519836 -0.13761,-0.494352 -0.0815,-0.244628 -0.0866,-0.321075 -0.0866,-0.34146 -0.0663,-0.356749 -0.0713,-0.3414605 -0.0444,-0.267722 -0.16235,-0.13191 0.0609,0.213085 0.37544,1.7097565 0.0203,0.111617 -0.38558,-0.0051 -0.0558,-0.142057 -0.048,-0.239071 -0.051,-0.208954 -0.0662,-0.188567 -0.0733,-0.225897 -0.066,-0.116689 -0.0558,-0.01522 -0.0609,0.197865 -0.0406,0.263821 -0.0152,0.319627 -0.0406,0.2486 0.0101,0.147131 -0.47691,-0.0203 -0.0203,-0.16235 0.13191,-0.476906 0.0457,-0.218159 0.0203,-0.446464 0.0863,-0.3449965 z"
     id="path926"
     inkscape:connector-curvature="0" />
  <path
     style="fill:#cf5853;fill-opacity:1;stroke:#000000;stroke-width:0.062625;stroke-miterlimit:4;stroke-dasharray:none;stroke-opacity:0.39215686"
     d="m 6.2622481,8.4740015 -0.10648,0.07213 -0.0824,0.01374 -0.0348,-0.05801 0.0728,0.641942 0.0337,0.230693 0.10147,0.481979 0.086,0.5348035 0.068,0.289187 0.11341,0.487649 0.0737,0.277847 0.0964,0.289187 0.0737,0.221143 0.068,0.204133 0.0194,0.136386 0.11669,0.197865 0.0152,0.213086 0.34201,-0.127732 0.18145,-0.06237 0.18712,-0.09072 0.19846,-0.124748 0.17579,-0.147429 0.14742,-0.18145 v -0.113407 l -0.0454,-0.136088 -0.10206,-0.192792 -0.13609,-0.215473 -0.085,-0.198462 -0.11341,-0.204132 -0.0737,-0.181451 -0.034,-0.119077 -0.051,-0.136088 -0.0794,-0.198462 -0.068,-0.153099 -0.0851,-0.1984625 -0.0964,-0.238154 -0.0696,-0.09105 -0.0723,0.03099 -0.0516,-0.04132 -0.12913,0.0052 -0.0981,-0.03099 z"
     id="path928"
     inkscape:connector-curvature="0" />
  <ellipse
     style="fill:#ffcc00;fill-opacity:1;stroke:#000000;stroke-width:0.03545797;stroke-opacity:0.02617804"
     id="path983-9"
     cx="7.1805263"
     cy="2.6598988"
     rx="0.86224407"
     ry="0.79613394" />
  <ellipse
     style="fill:#ffdd55;fill-opacity:1;stroke:#000000;stroke-width:0.03545797;stroke-opacity:0.02617804"
     id="path985-4"
     cx="6.9456248"
     cy="2.2337017"
     rx="0.21380277"
     ry="0.22083576" />
  <ellipse
     ry="0.22083576"
     rx="0.21380277"
     cy="2.2590199"
     cx="7.4604411"
     id="ellipse989-22"
     style="fill:#ffdd55;fill-opacity:1;stroke:#000000;stroke-width:0.03545797;stroke-opacity:0.02617804" />
  <ellipse
     style="fill:#ffdd55;fill-opacity:1;stroke:#000000;stroke-width:0.03545797;stroke-opacity:0.02617804"
     id="ellipse991-64"
     cx="7.7389445"
     cy="2.6950645"
     rx="0.21380277"
     ry="0.22083576" />
  <ellipse
     ry="0.22083576"
     rx="0.21380277"
     cy="3.1114178"
     cx="7.4098048"
     id="ellipse993-12"
     style="fill:#ffdd55;fill-opacity:1;stroke:#000000;stroke-width:0.03545797;stroke-opacity:0.02617804" />
  <ellipse
     style="fill:#ffdd55;fill-opacity:1;stroke:#000000;stroke-width:0.03545797;stroke-opacity:0.02617804"
     id="ellipse995-88"
     cx="6.9034266"
     cy="3.1029778"
     rx="0.21380277"
     ry="0.22083576" />
  <ellipse
     ry="0.22083576"
     rx="0.21380277"
     cy="2.6922512"
     cx="6.6136699"
     id="ellipse997-92"
     style="fill:#ffdd55;fill-opacity:1;stroke:#000000;stroke-width:0.03545797;stroke-opacity:0.02617804" />
  <path
     style="fill:#aad400;fill-opacity:1;stroke:#000000;stroke-width:0.03069519;stroke-opacity:0.02617804"
     id="path999-8"
     d="m 7.5068481,2.8572235 -0.23092,-0.03126 -0.10385,0.183059 -0.0845,-0.190518 -0.2332,0.01288 0.14641,-0.15926 -0.12935,-0.170181 0.23091,0.03126 0.10385,-0.183059 0.0845,0.190518 0.2332,-0.01288 -0.14641,0.15926 z"
     inkscape:connector-curvature="0" />
  <path
     style="fill:#aa8800;fill-opacity:1;stroke:#c87137;stroke-width:0.00322345;stroke-opacity:0.02617804"
     d="m 7.1019681,3.4515335 c -0.15015,-0.01222 -0.29763,-0.06323 -0.42228,-0.146068 -0.054,-0.03589 -0.088,-0.06359 -0.13066,-0.106332 -0.19583,-0.196401 -0.27165,-0.46232 -0.20616,-0.723002 0.0121,-0.04833 0.0294,-0.09413 0.055,-0.145701 0.0416,-0.08397 0.0912,-0.151467 0.16029,-0.218263 0.13393,-0.129459 0.2982,-0.208764 0.49386,-0.238424 0.0456,-0.0069 0.16226,-0.0095 0.21322,-0.0047 0.15574,0.01456 0.29989,0.0658 0.42503,0.151083 0.18143,0.123643 0.29933,0.299893 0.33899,0.50673 0.0113,0.05912 0.0141,0.162016 0.006,0.224962 -0.0175,0.137464 -0.076,0.273453 -0.16471,0.382832 -0.17992,0.221863 -0.46951,0.34125 -0.76869,0.31691 z m 0.37338,-0.129592 c 0.0334,-0.01148 0.0565,-0.02605 0.0826,-0.05216 0.0692,-0.06897 0.0853,-0.169695 0.0415,-0.259197 -0.0273,-0.05574 -0.0826,-0.101012 -0.14009,-0.114561 -0.0235,-0.0055 -0.0716,-0.0063 -0.0931,-0.0016 -0.10313,0.02294 -0.17654,0.122387 -0.16992,0.230204 0.003,0.04884 0.0211,0.09449 0.0529,0.133322 0.0256,0.0313 0.0738,0.06075 0.11447,0.07001 0.0306,0.007 0.0818,0.0042 0.11156,-0.0061 z m -0.52227,-0.0038 c 0.0596,-0.01404 0.11298,-0.058 0.14095,-0.115988 0.0227,-0.04697 0.0289,-0.09192 0.0195,-0.140743 -0.0231,-0.120396 -0.1347,-0.198588 -0.25023,-0.17537 -0.10562,0.02123 -0.17886,0.117997 -0.17314,0.228783 0.003,0.06019 0.0227,0.103507 0.0666,0.146981 0.0298,0.02955 0.0547,0.04453 0.0912,0.05498 0.0255,0.0073 0.0771,0.008 0.10508,0.0014 z m 0.26977,-0.396921 c 0.0266,-0.04717 0.0498,-0.0877 0.0516,-0.09007 0.003,-0.0035 0.0234,-0.0016 0.11696,0.01111 0.0842,0.01141 0.11334,0.01433 0.11216,0.01126 -8.8e-4,-0.0023 -0.0294,-0.04056 -0.0633,-0.08506 -0.0609,-0.07992 -0.0616,-0.08099 -0.0557,-0.08757 0.003,-0.0037 0.036,-0.03942 0.0727,-0.07945 0.0367,-0.04004 0.0663,-0.0732 0.0658,-0.07368 -5e-4,-4.88e-4 -0.0528,0.0021 -0.11623,0.0057 -0.0634,0.0036 -0.11566,0.0062 -0.11607,0.0056 -4.4e-4,-5.5e-4 -0.0194,-0.04336 -0.0422,-0.09513 -0.0228,-0.05177 -0.0423,-0.09336 -0.0432,-0.09242 -9.4e-4,9.39e-4 -0.0244,0.04185 -0.0522,0.0909 l -0.0505,0.08919 -0.0107,-0.0011 c -0.006,-6.06e-4 -0.0571,-0.0074 -0.1138,-0.01512 -0.0567,-0.0077 -0.10368,-0.0134 -0.10443,-0.01265 -10e-4,0.0012 0.0313,0.0448 0.10715,0.144067 l 0.019,0.02492 -0.0242,0.02665 c -0.0133,0.01466 -0.0461,0.0505 -0.0729,0.07963 -0.0268,0.02914 -0.0483,0.05329 -0.0479,0.05367 4.4e-4,3.75e-4 0.0472,-0.002 0.1039,-0.0053 0.0567,-0.0033 0.10897,-0.0061 0.11608,-0.0061 l 0.0129,-1.56e-4 0.0414,0.09348 c 0.0228,0.05141 0.0423,0.09345 0.0435,0.09341 0.001,-4.7e-5 0.0239,-0.03867 0.0505,-0.08584 z m 0.58019,-0.01551 c 0.0741,-0.02488 0.1272,-0.08429 0.14469,-0.16192 0.0285,-0.12667 -0.0596,-0.254709 -0.18452,-0.268056 -0.0908,-0.0097 -0.17483,0.03736 -0.21487,0.120271 -0.0381,0.07895 -0.0297,0.166821 0.0228,0.236641 0.0276,0.03678 0.0779,0.06893 0.12414,0.07944 0.0309,0.007 0.0757,0.0044 0.10773,-0.0064 z m -1.14493,0.0028 c 0.0942,-0.0209 0.16283,-0.103356 0.16894,-0.202878 0.007,-0.105794 -0.0649,-0.205315 -0.16408,-0.228694 -0.0261,-0.0061 -0.0726,-0.0061 -0.0987,0 -0.0595,0.01401 -0.11249,0.05762 -0.14095,0.115864 -0.0338,0.0691 -0.0311,0.148554 0.007,0.214433 0.0148,0.02541 0.0511,0.06237 0.0754,0.07664 0.0462,0.02723 0.10068,0.03605 0.15215,0.02463 z m 0.82943,-0.430273 c 0.0863,-0.012 0.15853,-0.07764 0.1807,-0.164141 0.007,-0.02823 0.007,-0.08209 6e-5,-0.109597 -0.0163,-0.06212 -0.0613,-0.11864 -0.11505,-0.144422 -0.0534,-0.02562 -0.10633,-0.02916 -0.15994,-0.0107 -0.0882,0.03035 -0.14629,0.113765 -0.14629,0.209924 0,0.119853 0.0895,0.215201 0.20848,0.222016 0.004,2.13e-4 0.0183,-0.0012 0.032,-0.0031 z m -0.5028,-0.02712 c 0.076,-0.01454 0.13829,-0.07072 0.16402,-0.14797 0.0387,-0.116186 -0.0254,-0.243355 -0.14189,-0.281271 -0.0368,-0.012 -0.0856,-0.012 -0.12255,-1.1e-5 -0.15023,0.04873 -0.20172,0.235008 -0.0991,0.358672 0.0266,0.03201 0.0759,0.06122 0.11854,0.07015 0.0296,0.0062 0.0503,0.0063 0.081,4.37e-4 z"
     id="path841-8"
     inkscape:connector-curvature="0" />
  <path
     style="fill:#008000;fill-opacity:1;stroke:#c87137;stroke-width:0.00657584;stroke-opacity:0.02617804"
     d="m 7.1298081,2.9088785 -0.0415,-0.09257 -0.0794,0.004 c -0.0437,0.0022 -0.0957,0.0056 -0.1156,0.0077 l -0.0362,0.0037 0.0202,-0.02195 c 0.0947,-0.103154 0.12123,-0.133433 0.12123,-0.138497 0,-0.0032 -0.0266,-0.04046 -0.0592,-0.08275 -0.0484,-0.06288 -0.0569,-0.07725 -0.0468,-0.07889 0.007,-0.0011 0.0564,0.0041 0.11011,0.01157 0.11436,0.01588 0.0948,0.02664 0.1578,-0.08683 0.0236,-0.0425 0.0438,-0.07727 0.0448,-0.07727 10e-4,0 0.0206,0.04168 0.0434,0.09262 l 0.0415,0.09262 0.0926,-0.0041 c 0.0509,-0.0023 0.10292,-0.0057 0.11558,-0.0077 l 0.023,-0.0036 -0.0139,0.01538 c -0.008,0.0085 -0.0395,0.04349 -0.0707,0.07784 -0.0312,0.03436 -0.0568,0.06481 -0.0568,0.06767 0,0.0029 0.0267,0.04059 0.0594,0.08385 0.053,0.0702 0.0577,0.07864 0.0439,0.07864 -0.0132,0 -0.0959,-0.0103 -0.18343,-0.02285 l -0.0243,-0.0035 -0.0505,0.08879 c -0.0278,0.04883 -0.0512,0.08879 -0.0521,0.08879 -9e-4,0 -0.0203,-0.04166 -0.0431,-0.09257 z"
     id="path843-8"
     inkscape:connector-curvature="0" />
</svg>
