<?xml version="1.0" encoding="UTF-8" standalone="no"?>
<svg
   xmlns:dc="http://purl.org/dc/elements/1.1/"
   xmlns:cc="http://creativecommons.org/ns#"
   xmlns:rdf="http://www.w3.org/1999/02/22-rdf-syntax-ns#"
   xmlns:svg="http://www.w3.org/2000/svg"
   xmlns="http://www.w3.org/2000/svg"
   xmlns:xlink="http://www.w3.org/1999/xlink"
   xmlns:sodipodi="http://sodipodi.sourceforge.net/DTD/sodipodi-0.dtd"
   xmlns:inkscape="http://www.inkscape.org/namespaces/inkscape"
   version="1.1"
   id="svg815"
   width="160"
   height="250"
   viewBox="0 0 160 250"
   sodipodi:docname="golds01.svg"
   inkscape:version="0.92.5 (2060ec1f9f, 2020-04-08)">
  <sodipodi:namedview
     pagecolor="#ffffff"
     bordercolor="#666666"
     borderopacity="1"
     objecttolerance="10"
     gridtolerance="10"
     guidetolerance="10"
     inkscape:pageopacity="0"
     inkscape:pageshadow="2"
     inkscape:window-width="1918"
     inkscape:window-height="1017"
     id="namedview10447"
     showgrid="false"
     inkscape:zoom="13.579856"
     inkscape:cx="58.636364"
     inkscape:cy="242.27273"
     inkscape:window-x="0"
     inkscape:window-y="0"
     inkscape:window-maximized="1"
     inkscape:current-layer="svg815" />
  <metadata
     id="metadata821">
    <rdf:RDF>
      <cc:Work
         rdf:about="">
        <dc:format>image/svg+xml</dc:format>
        <dc:type
           rdf:resource="http://purl.org/dc/dcmitype/StillImage" />
        <dc:title></dc:title>
      </cc:Work>
    </rdf:RDF>
  </metadata>
  <defs
     id="defs819">
    <linearGradient
       gradientUnits="userSpaceOnUse"
       y2="71.008263"
       x2="88.849586"
       y1="58.644627"
       x1="82.105782"
       id="linearGradient1063"
       xlink:href="#linearGradient882"
       gradientTransform="matrix(0.0625,0,0,0.0625,90.000002,-2.4462891e-7)" />
    <linearGradient
       id="linearGradient882">
      <stop
         style="stop-color:#d16208;stop-opacity:1"
         offset="0"
         id="stop878" />
      <stop
         style="stop-color:#d16250;stop-opacity:0;"
         offset="1"
         id="stop880" />
    </linearGradient>
    <linearGradient
       gradientUnits="userSpaceOnUse"
       y2="68.472336"
       x2="56.128345"
       y1="63.697319"
       x1="61.166279"
       id="linearGradient876"
       xlink:href="#linearGradient882"
       gradientTransform="matrix(0.0625,0,0,0.0625,90.000002,-2.4462891e-7)" />
    <linearGradient
       xlink:href="#linearGradient846"
       id="linearGradient848"
       x1="72.37397"
       y1="53.171356"
       x2="72.19931"
       y2="45.564011"
       gradientUnits="userSpaceOnUse"
       gradientTransform="matrix(0.0625,0,0,0.0625,110,-4.9804688e-7)" />
    <linearGradient
       id="linearGradient846">
      <stop
         style="stop-color:#423abf;stop-opacity:1;"
         offset="0"
         id="stop842" />
      <stop
         style="stop-color:#423abf;stop-opacity:0;"
         offset="1"
         id="stop844" />
    </linearGradient>
  </defs>
  <rect
     y="0"
     x="0"
     height="15.625"
     width="10"
     id="golds01"
     style="fill:#ffffff;fill-opacity:1;stroke:#1a1a1a;stroke-width:0.0625;stroke-opacity:1" />
  <flowRoot
     style="font-style:normal;font-variant:normal;font-weight:bold;font-stretch:normal;font-size:1px;line-height:1.25;font-family:'DejaVu Sans';-inkscape-font-specification:'DejaVu Sans Bold';letter-spacing:0px;word-spacing:0px;fill:#000000;fill-opacity:1;stroke:none;stroke-width:0.0625"
     id="flowRoot100"
     xml:space="preserve"><flowRegion
       style="stroke-width:0.0625"
       id="flowRegion102"><rect
         style="stroke-width:0.00390625"
         y="0.73863637"
         x="0.66287881"
         height="1.3636364"
         width="1.5151515"
         id="rect104" /></flowRegion><flowPara
       style="stroke-width:0.0625"
       id="flowPara106" /></flowRoot>  <rect
     y="1.3068237"
     x="1.344696"
     height="12.973484"
     width="7.2537889"
     id="rect108"
     style="fill:none;fill-opacity:1;stroke:#1a1a1a;stroke-width:0.0625;stroke-opacity:1" />
  <g
     id="flowRoot915"
     style="font-style:normal;font-variant:normal;font-weight:bold;font-stretch:normal;font-size:16px;line-height:1.25;font-family:'DejaVu Sans';-inkscape-font-specification:'DejaVu Sans Bold';text-align:start;letter-spacing:0px;word-spacing:0px;text-anchor:start;fill:#000000;fill-opacity:1;stroke:none"
     transform="matrix(0.0625,0,0,0.0625,0.189394,0)"
     aria-label="1">
    <path
       id="path98"
       d="M 4.90625,16.623047 H 7.5625 V 9.0839844 l -2.7265625,0.5625 v -2.046875 l 2.7109375,-0.5625 h 2.859375 v 9.5859376 h 2.65625 v 2.078125 H 4.90625 Z" />
  </g>
  <ellipse
     ry="3.177892"
     rx="3.4417808"
     cy="7.021843"
     cx="4.98069"
     id="path983"
     style="fill:#ffcc00;fill-opacity:1;stroke:#000000;stroke-width:0.14153598;stroke-opacity:0.02617804" />
  <ellipse
     ry="0.88150018"
     rx="0.85342687"
     cy="5.3205872"
     cx="4.043045"
     id="path985"
     style="fill:#ffdd55;fill-opacity:1;stroke:#000000;stroke-width:0.14153598;stroke-opacity:0.02617804" />
  <ellipse
     style="fill:#ffdd55;fill-opacity:1;stroke:#000000;stroke-width:0.14153598;stroke-opacity:0.02617804"
     id="ellipse989"
     cx="6.0979996"
     cy="5.4216614"
     rx="0.85342687"
     ry="0.88150018" />
  <ellipse
     ry="0.88150018"
     rx="0.85342687"
     cy="7.1622009"
     cx="7.2097015"
     id="ellipse991"
     style="fill:#ffdd55;fill-opacity:1;stroke:#000000;stroke-width:0.14153598;stroke-opacity:0.02617804" />
  <ellipse
     style="fill:#ffdd55;fill-opacity:1;stroke:#000000;stroke-width:0.14153598;stroke-opacity:0.02617804"
     id="ellipse993"
     cx="5.895874"
     cy="8.8241272"
     rx="0.85342687"
     ry="0.88150018" />
  <ellipse
     ry="0.88150018"
     rx="0.85342687"
     cy="8.790451"
     cx="3.8746033"
     id="ellipse995"
     style="fill:#ffdd55;fill-opacity:1;stroke:#000000;stroke-width:0.14153598;stroke-opacity:0.02617804" />
  <ellipse
     style="fill:#ffdd55;fill-opacity:1;stroke:#000000;stroke-width:0.14153598;stroke-opacity:0.02617804"
     id="ellipse997"
     cx="2.7179794"
     cy="7.1509705"
     rx="0.85342687"
     ry="0.88150018" />
  <path
     d="M 6.283229,7.80948 5.361484,7.68471 4.946959,8.41543 4.609644,7.65494 3.678779,7.70634 4.263206,7.07063 3.746864,6.39133 4.668609,6.5161 5.083133,5.78539 5.42045,6.54587 6.351314,6.49447 5.766886,7.13018 Z"
     id="path999"
     style="fill:#aad400;fill-opacity:1;stroke:#000000;stroke-width:0.12252463;stroke-opacity:0.02617804" />
  <path
     id="path841"
     d="M 4.667085,10.18176 C 4.067772,10.13296 3.479043,9.92936 2.98152,9.59871 2.765951,9.45544 2.630073,9.34487 2.459971,9.17427 1.678288,8.3903 1.375616,7.32885 1.637044,6.28829 1.685514,6.09536 1.754498,5.91256 1.856513,5.70671 2.022625,5.37151 2.220465,5.1021 2.496303,4.83547 3.030908,4.31872 3.68662,4.00216 4.467648,3.88377 c 0.181824,-0.0276 0.647664,-0.0379 0.851095,-0.0189 0.621646,0.0581 1.197043,0.26266 1.696553,0.60307 0.724205,0.49354 1.194852,1.19707 1.353143,2.02269 0.04525,0.236 0.05643,0.64671 0.02445,0.89797 C 8.323049,7.93731 8.089508,8.48013 7.735432,8.91674 7.017231,9.80234 5.861319,10.27889 4.66709,10.18173 Z M 6.157522,9.66448 C 6.290722,9.61868 6.38284,9.5605 6.487321,9.45629 6.763326,9.181 6.827735,8.77892 6.653058,8.42166 6.544275,8.19918 6.323277,8.01846 6.093844,7.96437 6.000154,7.94227 5.807924,7.93907 5.722172,7.95837 5.310513,8.04987 5.017497,8.44689 5.043909,8.87726 5.055869,9.07221 5.128239,9.25442 5.255267,9.40944 5.357626,9.53436 5.54988,9.65194 5.712198,9.6889 5.83427,9.7167 6.038717,9.7056 6.157522,9.6647 Z M 4.072785,9.64928 C 4.310522,9.59328 4.523744,9.41778 4.635406,9.1863 4.725856,8.99881 4.750721,8.8194 4.713276,8.62451 4.620956,8.14392 4.175607,7.83181 3.714442,7.92449 c -0.421603,0.0847 -0.71393,0.471 -0.691114,0.91322 0.0124,0.24025 0.09077,0.41317 0.265907,0.5867 0.119065,0.11797 0.218235,0.17773 0.36412,0.21944 0.101882,0.0291 0.3076,0.0318 0.419425,0.005 z M 5.149594,8.06491 C 5.255746,7.87662 5.348388,7.71484 5.355465,7.7054 5.366035,7.6913 5.449035,7.6994 5.822364,7.7498 6.158496,7.7953 6.274746,7.807 6.270044,7.7948 6.266544,7.7858 6.152894,7.63291 6.017476,7.45528 5.774266,7.13627 5.771551,7.13201 5.794967,7.10575 5.808007,7.09115 5.938521,6.94841 6.085002,6.78859 6.231483,6.62878 6.349734,6.49643 6.347781,6.49447 c -0.002,-0.002 -0.21072,0.008 -0.463927,0.0229 -0.253207,0.0145 -0.46171,0.0246 -0.463343,0.0224 C 5.418911,6.53777 5.342981,6.36671 5.251852,6.16005 5.160722,5.9534 5.08309,5.78739 5.079335,5.79114 c -0.0037,0.004 -0.09759,0.16704 -0.20853,0.36284 L 4.669103,6.50999 4.626273,6.50599 C 4.602723,6.50399 4.398317,6.47639 4.172046,6.44559 3.945777,6.41479 3.758192,6.39209 3.755191,6.39509 c -0.0047,0.005 0.124784,0.1788 0.427709,0.57506 l 0.07605,0.0995 -0.0968,0.10639 C 4.10891,7.23454 3.977933,7.3776 3.871087,7.49392 3.764243,7.61023 3.678161,7.70663 3.679796,7.70813 c 0.0016,0.002 0.188255,-0.008 0.414713,-0.0212 0.226458,-0.0132 0.434981,-0.0241 0.463386,-0.0244 L 4.609535,7.6619 4.774682,8.03504 C 4.865512,8.24027 4.9436,8.40805 4.948208,8.40789 4.952808,8.4077 5.043438,8.25354 5.14959,8.06524 Z M 7.465537,8.00301 C 7.761371,7.90371 7.973281,7.66655 8.043087,7.35668 8.156987,6.85106 7.805166,6.33997 7.306529,6.28669 6.944253,6.24799 6.608684,6.43582 6.448849,6.76677 c -0.152201,0.31515 -0.118356,0.6659 0.09115,0.9446 0.110346,0.14679 0.310934,0.27516 0.495527,0.31711 0.123475,0.0281 0.302053,0.0175 0.430015,-0.0255 z M 2.895344,8.01421 C 3.271236,7.93081 3.545334,7.60164 3.569714,7.20439 3.595634,6.78209 3.310617,6.38484 2.914763,6.29152 c -0.104063,-0.0245 -0.289966,-0.0245 -0.394029,0 -0.237292,0.0559 -0.449043,0.23 -0.562642,0.46249 -0.134771,0.27582 -0.123977,0.59298 0.02913,0.85594 0.05906,0.10143 0.204087,0.24895 0.300789,0.30594 0.184437,0.1087 0.401906,0.1439 0.607332,0.0983 z M 6.206169,6.2967 C 6.550476,6.2488 6.838941,5.98677 6.927434,5.64151 6.956314,5.52885 6.956434,5.31382 6.927684,5.20404 6.862754,4.95606 6.683044,4.73047 6.468442,4.62755 6.255189,4.52529 6.044038,4.51116 5.830015,4.58485 c -0.35189,0.12113 -0.58393,0.45411 -0.58393,0.83794 0,0.47842 0.357403,0.85902 0.832202,0.88622 0.01541,8.5e-4 0.07295,-0.005 0.127873,-0.0123 z M 4.199163,6.18843 C 4.502595,6.13033 4.751166,5.90613 4.853885,5.59778 5.008383,5.13401 4.752312,4.6264 4.287511,4.47505 4.140453,4.42715 3.945848,4.42715 3.798297,4.47501 3.19865,4.66951 2.993134,5.41307 3.402588,5.9067 c 0.105985,0.12777 0.303014,0.24436 0.473182,0.28 0.118131,0.0247 0.200841,0.0252 0.323393,0.002 z"
     style="fill:#aa8800;fill-opacity:1;stroke:#c87137;stroke-width:0.01286691;stroke-opacity:0.02617804" />
  <path
     id="path843"
     d="M 4.778217,8.01567 4.612685,7.64616 4.295618,7.66216 c -0.174387,0.009 -0.382033,0.0225 -0.461434,0.0306 l -0.144367,0.0146 0.08044,-0.0876 C 4.148365,7.208 4.254156,7.08714 4.254156,7.06692 4.254156,7.05402 4.147899,6.90541 4.01803,6.73662 3.824905,6.4856 3.790891,6.42826 3.831252,6.42173 c 0.02714,-0.004 0.224939,0.0164 0.439551,0.0462 0.456475,0.0634 0.378368,0.10635 0.629852,-0.3466 0.09418,-0.16964 0.174632,-0.30842 0.17878,-0.30842 0.0041,0 0.08207,0.16636 0.173152,0.36968 L 5.418199,6.55228 5.787684,6.53588 C 5.990901,6.52688 6.198511,6.51298 6.24904,6.50508 L 6.34091,6.49068 6.28547,6.55208 C 6.25498,6.58578 6.128003,6.72566 6.003299,6.86279 5.878594,6.99993 5.776564,7.12148 5.776564,7.13291 c 0,0.0114 0.10667,0.16204 0.237044,0.33469 0.211585,0.2802 0.230401,0.31391 0.175185,0.31391 -0.0528,0 -0.382944,-0.0411 -0.73216,-0.0912 L 5.359813,7.67641 5.158316,8.03082 C 5.047494,8.22575 4.953878,8.38523 4.95028,8.38523 c -0.0036,0 -0.08103,-0.16628 -0.172073,-0.36952 z"
     style="fill:#008000;fill-opacity:1;stroke:#c87137;stroke-width:0.02624849;stroke-opacity:0.02617804" />
</svg>
