<?xml version="1.0" encoding="UTF-8" standalone="no"?>
<svg
   xmlns:dc="http://purl.org/dc/elements/1.1/"
   xmlns:cc="http://creativecommons.org/ns#"
   xmlns:rdf="http://www.w3.org/1999/02/22-rdf-syntax-ns#"
   xmlns:svg="http://www.w3.org/2000/svg"
   xmlns="http://www.w3.org/2000/svg"
   xmlns:xlink="http://www.w3.org/1999/xlink"
   xmlns:sodipodi="http://sodipodi.sourceforge.net/DTD/sodipodi-0.dtd"
   xmlns:inkscape="http://www.inkscape.org/namespaces/inkscape"
   version="1.1"
   id="svg815"
   width="160"
   height="250"
   viewBox="0 0 160 250"
   sodipodi:docname="golds06.svg"
   inkscape:version="0.92.5 (2060ec1f9f, 2020-04-08)">
  <sodipodi:namedview
     pagecolor="#ffffff"
     bordercolor="#666666"
     borderopacity="1"
     objecttolerance="10"
     gridtolerance="10"
     guidetolerance="10"
     inkscape:pageopacity="0"
     inkscape:pageshadow="2"
     inkscape:window-width="1918"
     inkscape:window-height="1017"
     id="namedview10447"
     showgrid="false"
     inkscape:zoom="12.178065"
     inkscape:cx="54.393939"
     inkscape:cy="239.24242"
     inkscape:window-x="0"
     inkscape:window-y="0"
     inkscape:window-maximized="1"
     inkscape:current-layer="svg815"
     inkscape:snap-page="true" />
  <metadata
     id="metadata821">
    <rdf:RDF>
      <cc:Work
         rdf:about="">
        <dc:format>image/svg+xml</dc:format>
        <dc:type
           rdf:resource="http://purl.org/dc/dcmitype/StillImage" />
        <dc:title></dc:title>
      </cc:Work>
    </rdf:RDF>
  </metadata>
  <defs
     id="defs819">
    <linearGradient
       gradientUnits="userSpaceOnUse"
       y2="71.008263"
       x2="88.849586"
       y1="58.644627"
       x1="82.105782"
       id="linearGradient1063"
       xlink:href="#linearGradient882"
       gradientTransform="matrix(0.0625,0,0,0.0625,90.000002,-2.4462891e-7)" />
    <linearGradient
       id="linearGradient882">
      <stop
         style="stop-color:#d16208;stop-opacity:1"
         offset="0"
         id="stop878" />
      <stop
         style="stop-color:#d16250;stop-opacity:0;"
         offset="1"
         id="stop880" />
    </linearGradient>
    <linearGradient
       gradientUnits="userSpaceOnUse"
       y2="68.472336"
       x2="56.128345"
       y1="63.697319"
       x1="61.166279"
       id="linearGradient876"
       xlink:href="#linearGradient882"
       gradientTransform="matrix(0.0625,0,0,0.0625,90.000002,-2.4462891e-7)" />
    <linearGradient
       xlink:href="#linearGradient846"
       id="linearGradient848"
       x1="72.37397"
       y1="53.171356"
       x2="72.19931"
       y2="45.564011"
       gradientUnits="userSpaceOnUse"
       gradientTransform="matrix(0.0625,0,0,0.0625,110,-4.9804688e-7)" />
    <linearGradient
       id="linearGradient846">
      <stop
         style="stop-color:#423abf;stop-opacity:1;"
         offset="0"
         id="stop842" />
      <stop
         style="stop-color:#423abf;stop-opacity:0;"
         offset="1"
         id="stop844" />
    </linearGradient>
  </defs>
  <flowRoot
     style="font-style:normal;font-variant:normal;font-weight:bold;font-stretch:normal;font-size:1px;line-height:1.25;font-family:'DejaVu Sans';-inkscape-font-specification:'DejaVu Sans Bold';letter-spacing:0px;word-spacing:0px;fill:#000000;fill-opacity:1;stroke:none;stroke-width:0.0625"
     id="flowRoot100"
     xml:space="preserve"><flowRegion
       style="stroke-width:0.0625"
       id="flowRegion102"><rect
         style="stroke-width:0.00390625"
         y="0.73863637"
         x="0.66287881"
         height="1.3636364"
         width="1.5151515"
         id="rect104" /></flowRegion><flowPara
       style="stroke-width:0.0625"
       id="flowPara106" /></flowRoot>  <rect
     style="fill:#ffffff;fill-opacity:1;stroke:#1a1a1a;stroke-width:0.0625;stroke-opacity:1"
     id="golds06"
     width="10"
     height="15.625"
     x="0.074168257"
     y="0" />
  <rect
     style="fill:none;fill-opacity:1;stroke:#1a1a1a;stroke-width:0.0625;stroke-opacity:1"
     id="rect108-8"
     width="7.2537889"
     height="12.973484"
     x="1.4188643"
     y="1.306818" />
  <g
     id="flowRoot915-8"
     style="font-style:normal;font-variant:normal;font-weight:bold;font-stretch:normal;font-size:16px;line-height:1.25;font-family:'DejaVu Sans';-inkscape-font-specification:'DejaVu Sans Bold';text-align:start;letter-spacing:0px;word-spacing:0px;text-anchor:start;fill:#000000;fill-opacity:1;stroke:none"
     transform="matrix(0.0625,0,0,0.0625,0.26356126,-1.220703e-7)"
     aria-label="6">
    <path
       id="path1407"
       d="m 8.8203125,12.943359 q -0.7890625,0 -1.1875,0.515625 -0.390625,0.507813 -0.390625,1.53125 0,1.023438 0.390625,1.539063 0.3984375,0.507812 1.1875,0.507812 0.796875,0 1.1875005,-0.507812 0.398437,-0.515625 0.398437,-1.539063 0,-1.023437 -0.398437,-1.53125 Q 9.6171875,12.943359 8.8203125,12.943359 Z M 12.539063,7.3417969 v 2.15625 q -0.742188,-0.3515625 -1.398438,-0.515625 -0.65625,-0.171875 -1.28125,-0.171875 -1.34375,0 -2.09375,0.75 -0.75,0.7421871 -0.875,2.2109371 0.515625,-0.382812 1.1171875,-0.570312 0.6015625,-0.195313 1.3125,-0.195313 1.7890625,0 2.8828125,1.046875 1.101563,1.046875 1.101563,2.742188 0,1.875 -1.226563,3.007812 -1.226562,1.125 -3.2890625,1.125 -2.2734375,0 -3.5234375,-1.53125 -1.2421875,-1.539062 -1.2421875,-4.359375 0,-2.890625 1.453125,-4.5390621 1.4609375,-1.65625 4,-1.65625 0.8046875,0 1.5625005,0.125 0.757812,0.125 1.5,0.375 z"
       inkscape:connector-curvature="0" />
  </g>
  <ellipse
     style="fill:#ffcc00;fill-opacity:1;stroke:#000000;stroke-width:0.06792499;stroke-opacity:0.02617804"
     id="ellipse924-4"
     cx="3.2757444"
     cy="3.2609882"
     rx="1.6517562"
     ry="1.5251124" />
  <ellipse
     style="fill:#ffdd55;fill-opacity:1;stroke:#000000;stroke-width:0.06792499;stroke-opacity:0.02617804"
     id="ellipse926-3"
     cx="2.8257551"
     cy="2.4445419"
     rx="0.40957084"
     ry="0.42304361" />
  <ellipse
     ry="0.42304361"
     rx="0.40957084"
     cy="2.4930439"
     cx="3.8119612"
     id="ellipse928-1"
     style="fill:#ffdd55;fill-opacity:1;stroke:#000000;stroke-width:0.06792499;stroke-opacity:0.02617804" />
  <ellipse
     style="fill:#ffdd55;fill-opacity:1;stroke:#000000;stroke-width:0.06792499;stroke-opacity:0.02617804"
     id="ellipse930-4"
     cx="4.3454771"
     cy="3.328352"
     rx="0.40957084"
     ry="0.42304361" />
  <ellipse
     ry="0.42304361"
     rx="0.40957084"
     cy="4.1259365"
     cx="3.7149534"
     id="ellipse932-92"
     style="fill:#ffdd55;fill-opacity:1;stroke:#000000;stroke-width:0.06792499;stroke-opacity:0.02617804" />
  <ellipse
     style="fill:#ffdd55;fill-opacity:1;stroke:#000000;stroke-width:0.06792499;stroke-opacity:0.02617804"
     id="ellipse934-06"
     cx="2.7449217"
     cy="4.1097698"
     rx="0.40957084"
     ry="0.42304361" />
  <ellipse
     ry="0.42304361"
     rx="0.40957084"
     cy="3.3229637"
     cx="2.1898451"
     id="ellipse936-8"
     style="fill:#ffdd55;fill-opacity:1;stroke:#000000;stroke-width:0.06792499;stroke-opacity:0.02617804" />
  <path
     style="fill:#aad400;fill-opacity:1;stroke:#000000;stroke-width:0.05880119;stroke-opacity:0.02617804"
     id="path938-9"
     d="m 3.9008533,3.6389929 -0.442358,-0.05988 -0.198936,0.350679 -0.161882,-0.364966 -0.446735,0.02467 0.280475,-0.305086 -0.247799,-0.326006 0.442357,0.05988 0.198935,-0.350678 0.161883,0.364966 0.446734,-0.02467 -0.280475,0.305086 z"
     inkscape:connector-curvature="0" />
  <path
     style="fill:#aa8800;fill-opacity:1;stroke:#c87137;stroke-width:0.006175;stroke-opacity:0.02617804"
     d="m 3.1252433,4.7774799 c -0.287618,-0.0234 -0.570156,-0.121132 -0.808924,-0.279815 -0.103455,-0.06875 -0.168664,-0.121821 -0.250298,-0.203695 -0.375141,-0.376233 -0.520397,-0.885641 -0.394934,-1.385017 0.02326,-0.09259 0.05637,-0.180318 0.105326,-0.279111 0.07972,-0.160865 0.174666,-0.290158 0.307044,-0.418116 0.256563,-0.247998 0.571248,-0.399917 0.946074,-0.456736 0.08726,-0.01323 0.310823,-0.01818 0.408452,-0.0091 0.298336,0.02789 0.574477,0.126053 0.814198,0.289421 0.347556,0.236857 0.573426,0.574489 0.649391,0.970717 0.02171,0.113259 0.02708,0.310365 0.01173,0.430949 -0.03352,0.263331 -0.145597,0.523839 -0.315522,0.73337 -0.344674,0.425011 -0.899412,0.653714 -1.472539,0.607088 z m 0.715281,-0.248251 c 0.06392,-0.02199 0.108133,-0.0499 0.158275,-0.09991 0.132458,-0.132115 0.163369,-0.325078 0.07954,-0.49653 -0.05221,-0.106776 -0.158266,-0.193504 -0.268374,-0.21946 -0.04496,-0.0106 -0.137217,-0.01215 -0.17837,-0.003 -0.197561,0.04394 -0.338183,0.234449 -0.325507,0.44099 0.0057,0.09356 0.04047,0.181002 0.101433,0.255398 0.04912,0.05995 0.141389,0.116379 0.219287,0.134116 0.05858,0.01334 0.156702,0.008 0.213717,-0.01161 z m -1.000493,-0.0073 c 0.114093,-0.0269 0.216422,-0.111102 0.270009,-0.22219 0.04341,-0.08998 0.05534,-0.176082 0.03737,-0.269614 -0.04431,-0.230638 -0.258033,-0.380426 -0.479353,-0.335948 -0.202333,0.04066 -0.342624,0.226042 -0.331675,0.438269 0.0059,0.115299 0.04356,0.198282 0.127613,0.281562 0.05714,0.05661 0.104733,0.0853 0.174746,0.105315 0.04889,0.01398 0.147621,0.01526 0.201287,0.0026 z m 0.516775,-0.76036 c 0.05094,-0.09037 0.0954,-0.168006 0.0988,-0.172534 0.0051,-0.0068 0.04491,-0.003 0.224071,0.02129 0.161315,0.02186 0.217105,0.02746 0.214848,0.02158 -0.0017,-0.0044 -0.05622,-0.07769 -0.121211,-0.162937 -0.11672,-0.153098 -0.118023,-0.155145 -0.106785,-0.167747 0.0063,-0.007 0.06889,-0.07551 0.139192,-0.152206 0.0703,-0.0767 0.127048,-0.140215 0.126111,-0.141153 -9.39e-4,-9.42e-4 -0.101128,0.004 -0.222645,0.01098 -0.121517,0.007 -0.22158,0.01182 -0.222364,0.01077 -7.83e-4,-0.0011 -0.03721,-0.08306 -0.08094,-0.182234 -0.04373,-0.09918 -0.08099,-0.178846 -0.08279,-0.177044 -0.0018,0.0018 -0.04684,0.08016 -0.100077,0.174131 l -0.0968,0.170854 -0.02055,-0.0021 c -0.0113,-0.0012 -0.109399,-0.0142 -0.217989,-0.02897 -0.10859,-0.01476 -0.198614,-0.02567 -0.200054,-0.02422 -0.0023,0.0023 0.05988,0.08581 0.205263,0.275982 l 0.0365,0.04774 -0.04646,0.05106 c -0.02555,0.02808 -0.08841,0.09673 -0.139685,0.152551 -0.05128,0.05582 -0.09259,0.102083 -0.0918,0.102806 7.81e-4,7.18e-4 0.09035,-0.0038 0.199026,-0.01017 0.10868,-0.0063 0.208753,-0.01159 0.222386,-0.01172 l 0.02478,-3e-4 0.07926,0.179074 c 0.04359,0.09849 0.08107,0.179012 0.08328,0.178935 0.0022,-1.18e-4 0.0457,-0.07407 0.09665,-0.164441 z m 1.111452,-0.02972 c 0.141974,-0.04766 0.243673,-0.16147 0.277174,-0.310181 0.05466,-0.242656 -0.114181,-0.487933 -0.353485,-0.513502 -0.173861,-0.01858 -0.334905,0.07157 -0.411611,0.230397 -0.07304,0.151244 -0.0568,0.319571 0.04374,0.453322 0.05296,0.07045 0.149222,0.132054 0.23781,0.152187 0.05926,0.01347 0.144959,0.0084 0.20637,-0.01222 z m -2.193296,0.0054 c 0.180395,-0.04003 0.311939,-0.197994 0.323639,-0.388642 0.01244,-0.202664 -0.124344,-0.393312 -0.31432,-0.438099 -0.04994,-0.01177 -0.139159,-0.01177 -0.1891,0 -0.113879,0.02685 -0.215501,0.11038 -0.270019,0.221956 -0.06468,0.13237 -0.0595,0.284577 0.01398,0.410778 0.02834,0.04868 0.09794,0.119472 0.144353,0.146823 0.08851,0.05217 0.19288,0.06906 0.291467,0.04718 z m 1.588909,-0.824252 c 0.165237,-0.02298 0.303675,-0.148739 0.346144,-0.314436 0.01386,-0.05407 0.01392,-0.157261 1.07e-4,-0.209949 -0.03116,-0.119009 -0.117406,-0.227272 -0.220397,-0.276662 -0.102343,-0.04908 -0.203677,-0.05586 -0.30639,-0.0205 -0.168876,0.05813 -0.280235,0.217932 -0.280235,0.402139 0,0.229597 0.171522,0.41225 0.399385,0.425305 0.0074,4.12e-4 0.03501,-0.0022 0.06137,-0.0059 z m -0.96319,-0.05196 c 0.145622,-0.02786 0.264914,-0.13548 0.314211,-0.283458 0.07415,-0.222572 -0.04875,-0.466182 -0.271811,-0.538817 -0.07058,-0.02298 -0.163968,-0.02299 -0.23478,-2e-5 -0.287779,0.09334 -0.386408,0.450192 -0.189906,0.687089 0.05086,0.06132 0.14542,0.117273 0.227086,0.134375 0.05669,0.01187 0.09639,0.01208 0.1552,8.36e-4 z"
     id="path940-2"
     inkscape:connector-curvature="0" />
  <path
     style="fill:#008000;fill-opacity:1;stroke:#c87137;stroke-width:0.012597;stroke-opacity:0.02617804"
     d="m 3.1785783,3.7379449 -0.07944,-0.177334 -0.152164,0.0077 c -0.08369,0.0042 -0.183343,0.01082 -0.221449,0.01468 l -0.06928,0.007 0.03861,-0.04204 c 0.181459,-0.197607 0.23223,-0.255609 0.23223,-0.265312 0,-0.0062 -0.05099,-0.07751 -0.11332,-0.158517 -0.09268,-0.120465 -0.109007,-0.147985 -0.08964,-0.151121 0.01302,-0.0021 0.107951,0.0079 0.210946,0.02216 0.219068,0.03041 0.181584,0.05104 0.302275,-0.166342 0.0452,-0.08141 0.08381,-0.148014 0.0858,-0.148014 0.002,0 0.03938,0.07984 0.0831,0.177419 l 0.07948,0.177418 0.17732,-0.0079 c 0.09753,-0.0043 0.197162,-0.01097 0.221412,-0.01477 l 0.04409,-0.0069 -0.0266,0.02946 c -0.01463,0.0162 -0.07557,0.0833 -0.135419,0.149117 -0.05985,0.06581 -0.108812,0.124148 -0.108812,0.129633 0,0.0055 0.05119,0.07777 0.11376,0.160622 0.101543,0.134469 0.110573,0.150651 0.08407,0.150651 -0.02534,0 -0.18378,-0.01974 -0.351374,-0.04377 l -0.04646,-0.0067 -0.0967,0.170083 c -0.05319,0.09355 -0.09811,0.170086 -0.09984,0.170086 -0.0017,0 -0.03889,-0.0798 -0.08258,-0.177336 z"
     id="path942-6"
     inkscape:connector-curvature="0" />
  <ellipse
     ry="1.5508149"
     rx="1.6795928"
     cy="3.2872639"
     cx="6.7511244"
     id="ellipse963-6"
     style="fill:#ffcc00;fill-opacity:1;stroke:#000000;stroke-width:0.06906971;stroke-opacity:0.02617804" />
  <ellipse
     ry="0.43017307"
     rx="0.41647327"
     cy="2.457058"
     cx="6.2935514"
     id="ellipse965-4"
     style="fill:#ffdd55;fill-opacity:1;stroke:#000000;stroke-width:0.06906971;stroke-opacity:0.02617804" />
  <ellipse
     style="fill:#ffdd55;fill-opacity:1;stroke:#000000;stroke-width:0.06906971;stroke-opacity:0.02617804"
     id="ellipse967-9"
     cx="7.2963743"
     cy="2.5063763"
     rx="0.41647327"
     ry="0.43017307" />
  <ellipse
     ry="0.43017307"
     rx="0.41647327"
     cy="3.3557625"
     cx="7.8388853"
     id="ellipse969-5"
     style="fill:#ffdd55;fill-opacity:1;stroke:#000000;stroke-width:0.06906971;stroke-opacity:0.02617804" />
  <ellipse
     style="fill:#ffdd55;fill-opacity:1;stroke:#000000;stroke-width:0.06906971;stroke-opacity:0.02617804"
     id="ellipse971-0"
     cx="7.1977339"
     cy="4.1667881"
     rx="0.41647327"
     ry="0.43017307" />
  <ellipse
     ry="0.43017307"
     rx="0.41647327"
     cy="4.1503487"
     cx="6.2113523"
     id="ellipse973-4"
     style="fill:#ffdd55;fill-opacity:1;stroke:#000000;stroke-width:0.06906971;stroke-opacity:0.02617804" />
  <ellipse
     style="fill:#ffdd55;fill-opacity:1;stroke:#000000;stroke-width:0.06906971;stroke-opacity:0.02617804"
     id="ellipse975-8"
     cx="5.6469221"
     cy="3.3502827"
     rx="0.41647327"
     ry="0.43017307" />
  <path
     d="m 7.3867663,3.6716379 -0.449812,-0.06089 -0.202289,0.356588 -0.16461,-0.371117 -0.454264,0.02509 0.285201,-0.310227 -0.251975,-0.331501 0.449813,0.06089 0.202287,-0.356587 0.164612,0.371116 0.454263,-0.02509 -0.285202,0.310228 z"
     id="path977-7"
     style="fill:#aad400;fill-opacity:1;stroke:#000000;stroke-width:0.05979215;stroke-opacity:0.02617804"
     inkscape:connector-curvature="0" />
  <path
     id="path979-1"
     d="m 6.5980863,4.8293109 c -0.292466,-0.02379 -0.579766,-0.123172 -0.822558,-0.28453 -0.105198,-0.06991 -0.171506,-0.123874 -0.254516,-0.207127 -0.381462,-0.382574 -0.529166,-0.900567 -0.401589,-1.408359 0.02365,-0.09415 0.05732,-0.183357 0.107101,-0.283814 0.08106,-0.163577 0.177609,-0.295049 0.312218,-0.425163 0.260888,-0.252177 0.580876,-0.406657 0.962018,-0.464434 0.08873,-0.01345 0.316062,-0.01849 0.415336,-0.0092 0.303364,0.02836 0.584159,0.128177 0.827919,0.294298 0.353414,0.24085 0.58309,0.584171 0.660335,0.987077 0.02208,0.115167 0.02754,0.315595 0.01193,0.438211 -0.03408,0.26777 -0.148051,0.532667 -0.320839,0.74573 -0.350483,0.432174 -0.91457,0.664731 -1.497355,0.617318 z m 0.727335,-0.252434 c 0.065,-0.02236 0.109955,-0.05074 0.160943,-0.101596 0.13469,-0.134342 0.166121,-0.330557 0.08088,-0.504899 -0.05308,-0.108575 -0.160932,-0.196765 -0.272896,-0.223158 -0.04572,-0.01078 -0.139529,-0.01235 -0.181376,-0.003 -0.20089,0.04468 -0.343883,0.2384 -0.330994,0.448421 0.0058,0.09514 0.04115,0.184053 0.103143,0.259703 0.04995,0.06096 0.143772,0.11834 0.222983,0.136376 0.05957,0.01356 0.159343,0.0081 0.217319,-0.0118 z m -1.017354,-0.0074 c 0.116016,-0.02735 0.220069,-0.112975 0.27456,-0.225935 0.04414,-0.0915 0.05627,-0.179049 0.038,-0.274157 -0.04505,-0.234525 -0.262382,-0.386837 -0.487431,-0.34161 -0.205743,0.04135 -0.348399,0.229851 -0.337265,0.445655 0.0061,0.117242 0.04429,0.201624 0.129763,0.286308 0.0581,0.05757 0.106499,0.08673 0.177691,0.107089 0.04972,0.01422 0.150109,0.01552 0.20468,0.0026 z m 0.525485,-0.773174 c 0.0518,-0.09189 0.09701,-0.170837 0.100464,-0.175442 0.0052,-0.0069 0.04566,-0.003 0.227848,0.02165 0.164032,0.02222 0.220763,0.02792 0.218468,0.02194 -0.0017,-0.0044 -0.05717,-0.079 -0.123253,-0.165682 -0.118687,-0.155679 -0.120012,-0.15776 -0.108585,-0.170575 0.0064,-0.0071 0.07005,-0.07678 0.141538,-0.154771 0.07148,-0.07799 0.129188,-0.142578 0.128236,-0.143531 -9.56e-4,-9.58e-4 -0.102832,0.0041 -0.226397,0.01116 -0.123566,0.0071 -0.225316,0.01202 -0.226112,0.01095 -7.94e-4,-0.0011 -0.03784,-0.08446 -0.08231,-0.185305 -0.04447,-0.100848 -0.08236,-0.18186 -0.08419,-0.180028 -0.0018,0.0018 -0.04763,0.08151 -0.101763,0.177066 l -0.09843,0.173733 -0.0209,-0.0021 c -0.0115,-0.0012 -0.111243,-0.01444 -0.221664,-0.02945 -0.110419,-0.01501 -0.201961,-0.0261 -0.203425,-0.02463 -0.0023,0.0023 0.0609,0.08726 0.208722,0.280633 l 0.03711,0.04854 -0.04724,0.05192 c -0.02598,0.02856 -0.0899,0.09836 -0.142039,0.155123 -0.05214,0.05676 -0.09415,0.103803 -0.09335,0.104538 7.93e-4,7.3e-4 0.09187,-0.0039 0.202381,-0.01034 0.110512,-0.0064 0.212271,-0.01178 0.226133,-0.01192 l 0.0252,-3e-4 0.08059,0.182092 c 0.04433,0.100152 0.08243,0.182029 0.08468,0.181951 0.0023,-1.25e-4 0.04647,-0.07532 0.09828,-0.167212 z m 1.130182,-0.03022 c 0.144368,-0.04846 0.24778,-0.164191 0.281845,-0.315409 0.05558,-0.246745 -0.116106,-0.496155 -0.359442,-0.522156 -0.176792,-0.01889 -0.340548,0.07277 -0.418548,0.234281 -0.07428,0.153792 -0.05776,0.324956 0.04448,0.460962 0.05385,0.07163 0.151736,0.134278 0.241817,0.154751 0.06026,0.01369 0.147403,0.0085 0.209848,-0.012429 z m -2.230259,0.0054 c 0.183435,-0.0407 0.317195,-0.201331 0.329093,-0.395192 0.01265,-0.206079 -0.12644,-0.39994 -0.319617,-0.445482 -0.05078,-0.01197 -0.141504,-0.01197 -0.192287,0 -0.115798,0.0273 -0.219133,0.112241 -0.27457,0.225697 -0.06577,0.134601 -0.0605,0.289373 0.01422,0.4177 0.02882,0.0495 0.09959,0.121486 0.146786,0.149298 0.09,0.05304 0.19613,0.07023 0.296379,0.04798 z m 1.615685,-0.838143 c 0.168023,-0.02337 0.308794,-0.151245 0.351979,-0.319734 0.01409,-0.05498 0.01415,-0.159912 1.25e-4,-0.213488 -0.03169,-0.121014 -0.119384,-0.231103 -0.22411,-0.281324 -0.104069,-0.04991 -0.20711,-0.0568 -0.311554,-0.02085 -0.171723,0.05911 -0.284959,0.221605 -0.284959,0.408916 0,0.233466 0.174414,0.419198 0.406116,0.432473 0.0075,4.18e-4 0.0356,-0.0023 0.0624,-0.006 z m -0.979421,-0.05284 c 0.148076,-0.02833 0.269378,-0.137762 0.319506,-0.288235 0.0754,-0.226322 -0.04957,-0.474038 -0.276392,-0.547897 -0.07176,-0.02337 -0.166731,-0.02338 -0.238737,-2e-5 -0.292628,0.09492 -0.39292,0.457779 -0.193106,0.698668 0.05172,0.06235 0.147871,0.119249 0.230914,0.136639 0.05765,0.01207 0.09801,0.01229 0.157815,8.5e-4 z"
     style="fill:#aa8800;fill-opacity:1;stroke:#c87137;stroke-width:0.00627907;stroke-opacity:0.02617804"
     inkscape:connector-curvature="0" />
  <path
     id="path981-7"
     d="m 6.6523193,3.7722579 -0.08078,-0.180323 -0.154729,0.0078 c -0.0851,0.0043 -0.186433,0.011 -0.22518,0.01492 l -0.07045,0.0071 0.03926,-0.04275 c 0.184516,-0.200937 0.236143,-0.259917 0.236143,-0.269783 0,-0.0063 -0.05185,-0.07882 -0.11523,-0.161189 -0.09425,-0.122495 -0.110844,-0.150479 -0.09115,-0.153667 0.01324,-0.0021 0.109771,0.008 0.214501,0.02253 0.222761,0.03092 0.184645,0.0519 0.307369,-0.169145 0.04596,-0.08278 0.08522,-0.150509 0.08724,-0.150509 0.002,0 0.04005,0.08118 0.0845,0.180409 l 0.08082,0.180409 0.180309,-0.008 c 0.09917,-0.0044 0.200485,-0.01116 0.225143,-0.01502 l 0.04483,-0.007 -0.02705,0.02995 c -0.01488,0.01647 -0.07684,0.08471 -0.1377,0.15163 -0.06085,0.06692 -0.110646,0.126241 -0.110646,0.131818 0,0.0056 0.05205,0.07907 0.115677,0.163329 0.103254,0.136735 0.112437,0.153189 0.08549,0.153189 -0.02577,0 -0.186877,-0.02007 -0.357294,-0.04451 l -0.04725,-0.0068 -0.09833,0.17295 c -0.05408,0.09512 -0.09977,0.172952 -0.101522,0.172952 -0.0018,0 -0.03954,-0.08115 -0.08397,-0.180324 z"
     style="fill:#008000;fill-opacity:1;stroke:#c87137;stroke-width:0.0128093;stroke-opacity:0.02617804"
     inkscape:connector-curvature="0" />
  <ellipse
     ry="1.5251124"
     rx="1.6517562"
     cy="12.105686"
     cx="3.2757444"
     id="ellipse983-2"
     style="fill:#ffcc00;fill-opacity:1;stroke:#000000;stroke-width:0.06792499;stroke-opacity:0.02617804" />
  <ellipse
     ry="0.42304361"
     rx="0.40957084"
     cy="11.289238"
     cx="2.8257551"
     id="ellipse985-7"
     style="fill:#ffdd55;fill-opacity:1;stroke:#000000;stroke-width:0.06792499;stroke-opacity:0.02617804" />
  <ellipse
     style="fill:#ffdd55;fill-opacity:1;stroke:#000000;stroke-width:0.06792499;stroke-opacity:0.02617804"
     id="ellipse987-2"
     cx="3.8119612"
     cy="11.337742"
     rx="0.40957084"
     ry="0.42304361" />
  <ellipse
     ry="0.42304361"
     rx="0.40957084"
     cy="12.17305"
     cx="4.3454771"
     id="ellipse989-2"
     style="fill:#ffdd55;fill-opacity:1;stroke:#000000;stroke-width:0.06792499;stroke-opacity:0.02617804" />
  <ellipse
     style="fill:#ffdd55;fill-opacity:1;stroke:#000000;stroke-width:0.06792499;stroke-opacity:0.02617804"
     id="ellipse991-6"
     cx="3.7149534"
     cy="12.970634"
     rx="0.40957084"
     ry="0.42304361" />
  <ellipse
     ry="0.42304361"
     rx="0.40957084"
     cy="12.954464"
     cx="2.7449217"
     id="ellipse993-1"
     style="fill:#ffdd55;fill-opacity:1;stroke:#000000;stroke-width:0.06792499;stroke-opacity:0.02617804" />
  <ellipse
     style="fill:#ffdd55;fill-opacity:1;stroke:#000000;stroke-width:0.06792499;stroke-opacity:0.02617804"
     id="ellipse995-0"
     cx="2.1898451"
     cy="12.16766"
     rx="0.40957084"
     ry="0.42304361" />
  <path
     d="m 3.9008533,12.483689 -0.442358,-0.05988 -0.198936,0.350678 -0.161882,-0.364966 -0.446735,0.02467 0.280475,-0.305086 -0.247799,-0.326006 0.442357,0.05988 0.198935,-0.350678 0.161883,0.364966 0.446734,-0.02467 -0.280475,0.305087 z"
     id="path997-6"
     style="fill:#aad400;fill-opacity:1;stroke:#000000;stroke-width:0.05880119;stroke-opacity:0.02617804"
     inkscape:connector-curvature="0" />
  <path
     id="path999-1"
     d="m 3.1252433,13.622177 c -0.287618,-0.0234 -0.570156,-0.121131 -0.808924,-0.279815 -0.103455,-0.06875 -0.168664,-0.121821 -0.250298,-0.203694 -0.375141,-0.376234 -0.520397,-0.885642 -0.394934,-1.385019 0.02326,-0.09259 0.05637,-0.180317 0.105326,-0.27911 0.07972,-0.160865 0.174666,-0.290158 0.307044,-0.418116 0.256563,-0.247997 0.571248,-0.399917 0.946074,-0.456736 0.08726,-0.01323 0.310823,-0.01818 0.408452,-0.0091 0.298336,0.02789 0.574477,0.126053 0.814198,0.289421 0.347556,0.236858 0.573426,0.574489 0.649391,0.970717 0.02171,0.113259 0.02708,0.310364 0.01173,0.430949 -0.03352,0.263332 -0.145597,0.523839 -0.315522,0.73337 -0.344674,0.425011 -0.899412,0.653715 -1.472539,0.607088 z m 0.715281,-0.248251 c 0.06392,-0.02199 0.108133,-0.0499 0.158275,-0.09991 0.132458,-0.132114 0.163369,-0.325077 0.07954,-0.49653 -0.05221,-0.106775 -0.158266,-0.193504 -0.268374,-0.21946 -0.04496,-0.0106 -0.137217,-0.01215 -0.17837,-0.003 -0.197561,0.04394 -0.338183,0.234449 -0.325507,0.44099 0.0057,0.09356 0.04047,0.181002 0.101433,0.255399 0.04912,0.05995 0.141389,0.116378 0.219287,0.134115 0.05858,0.01334 0.156702,0.008 0.213717,-0.0116 z m -1.000493,-0.0073 c 0.114093,-0.0269 0.216422,-0.111102 0.270009,-0.22219 0.04341,-0.08998 0.05534,-0.176082 0.03737,-0.269614 -0.04431,-0.230638 -0.258033,-0.380426 -0.479353,-0.335947 -0.202333,0.04066 -0.342624,0.226041 -0.331675,0.438268 0.0059,0.115299 0.04356,0.198282 0.127613,0.281562 0.05714,0.05662 0.104733,0.0853 0.174746,0.105315 0.04889,0.01398 0.147621,0.01526 0.201287,0.0026 z m 0.516775,-0.76036 c 0.05094,-0.09037 0.0954,-0.168006 0.0988,-0.172534 0.0051,-0.0068 0.04491,-0.003 0.224071,0.02129 0.161315,0.02186 0.217105,0.02746 0.214848,0.02158 -0.0017,-0.0044 -0.05622,-0.07769 -0.121211,-0.162937 -0.11672,-0.153098 -0.118023,-0.155145 -0.106785,-0.167747 0.0063,-0.007 0.06889,-0.07551 0.139192,-0.152207 0.0703,-0.0767 0.127048,-0.140215 0.126111,-0.141152 -9.39e-4,-9.44e-4 -0.101128,0.004 -0.222645,0.01098 -0.121517,0.007 -0.22158,0.01182 -0.222364,0.01077 -7.83e-4,-0.0011 -0.03721,-0.08306 -0.08094,-0.182234 -0.04373,-0.09918 -0.08099,-0.178846 -0.08279,-0.177044 -0.0018,0.0018 -0.04684,0.08016 -0.100077,0.174131 l -0.0968,0.170853 -0.02055,-0.0021 c -0.0113,-0.0012 -0.109399,-0.0142 -0.217989,-0.02896 -0.10859,-0.01476 -0.198614,-0.02567 -0.200054,-0.02423 -0.0023,0.0023 0.05988,0.08581 0.205263,0.275982 l 0.0365,0.04774 -0.04646,0.05106 c -0.02555,0.02808 -0.08841,0.09673 -0.139685,0.152551 -0.05128,0.05582 -0.09259,0.102083 -0.0918,0.102806 7.81e-4,7.19e-4 0.09035,-0.0038 0.199026,-0.01017 0.10868,-0.0063 0.208753,-0.01159 0.222386,-0.01172 l 0.02478,-3.12e-4 0.07926,0.179074 c 0.04359,0.09849 0.08107,0.179012 0.08328,0.178936 0.0022,-1.25e-4 0.0457,-0.07408 0.09665,-0.164441 z m 1.111452,-0.02972 c 0.141974,-0.04766 0.243673,-0.16147 0.277174,-0.310182 0.05466,-0.242655 -0.114181,-0.487932 -0.353485,-0.513502 -0.173861,-0.01858 -0.334905,0.07157 -0.411611,0.230399 -0.07304,0.151243 -0.0568,0.31957 0.04374,0.453322 0.05296,0.07045 0.149222,0.132053 0.23781,0.152186 0.05926,0.01347 0.144959,0.0084 0.20637,-0.01222 z m -2.193296,0.0054 c 0.180395,-0.04003 0.311939,-0.197995 0.323639,-0.388643 0.01244,-0.202664 -0.124344,-0.393312 -0.31432,-0.438099 -0.04994,-0.01177 -0.139159,-0.01177 -0.1891,0 -0.113879,0.02685 -0.215501,0.11038 -0.270019,0.221956 -0.06468,0.13237 -0.0595,0.284577 0.01398,0.410777 0.02834,0.04868 0.09794,0.119473 0.144353,0.146824 0.08851,0.05217 0.19288,0.06906 0.291467,0.04718 z m 1.588909,-0.824296 c 0.165237,-0.02298 0.303675,-0.148739 0.346144,-0.314436 0.01386,-0.05407 0.01392,-0.157261 1.07e-4,-0.209948 -0.03116,-0.11901 -0.117406,-0.227274 -0.220397,-0.276663 -0.102343,-0.04908 -0.203677,-0.05586 -0.30639,-0.0205 -0.168876,0.05813 -0.280235,0.217932 -0.280235,0.402139 0,0.229597 0.171522,0.412251 0.399385,0.425305 0.0074,4.37e-4 0.03501,-0.0022 0.06137,-0.0059 z m -0.96319,-0.05196 c 0.145622,-0.02786 0.264914,-0.135479 0.314211,-0.283457 0.07415,-0.222572 -0.04875,-0.466182 -0.271811,-0.538817 -0.07058,-0.02298 -0.163968,-0.02299 -0.23478,-2e-5 -0.287779,0.09334 -0.386408,0.450192 -0.189906,0.687089 0.05086,0.06132 0.14542,0.117272 0.227086,0.134375 0.05669,0.01187 0.09639,0.01208 0.1552,8.37e-4 z"
     style="fill:#aa8800;fill-opacity:1;stroke:#c87137;stroke-width:0.006175;stroke-opacity:0.02617804"
     inkscape:connector-curvature="0" />
  <path
     id="path1001-59"
     d="m 3.1785783,12.582643 -0.07944,-0.177335 -0.152164,0.0077 c -0.08369,0.0042 -0.183343,0.01082 -0.221449,0.01468 l -0.06928,0.007 0.03861,-0.04204 c 0.181459,-0.197606 0.23223,-0.25561 0.23223,-0.265311 0,-0.0062 -0.05099,-0.07751 -0.11332,-0.158519 -0.09268,-0.120465 -0.109007,-0.147985 -0.08964,-0.15112 0.01302,-0.0021 0.107951,0.0079 0.210946,0.02216 0.219068,0.03041 0.181584,0.05104 0.302275,-0.166341 0.0452,-0.08141 0.08381,-0.148014 0.0858,-0.148014 0.002,0 0.03938,0.07984 0.0831,0.177419 l 0.07948,0.177418 0.17732,-0.0079 c 0.09753,-0.0043 0.197162,-0.01097 0.221412,-0.01477 l 0.04409,-0.0069 -0.0266,0.02946 c -0.01463,0.0162 -0.07557,0.0833 -0.135419,0.149117 -0.05985,0.06581 -0.108812,0.124148 -0.108812,0.129633 0,0.0055 0.05119,0.07776 0.11376,0.160622 0.101543,0.13447 0.110573,0.150651 0.08407,0.150651 -0.02534,0 -0.18378,-0.01974 -0.351374,-0.04378 l -0.04646,-0.0067 -0.0967,0.170084 c -0.05319,0.09355 -0.09811,0.170085 -0.09984,0.170085 -0.0017,0 -0.03889,-0.0798 -0.08258,-0.177335 z"
     style="fill:#008000;fill-opacity:1;stroke:#c87137;stroke-width:0.012597;stroke-opacity:0.02617804"
     inkscape:connector-curvature="0" />
  <ellipse
     style="fill:#ffcc00;fill-opacity:1;stroke:#000000;stroke-width:0.06906971;stroke-opacity:0.02617804"
     id="ellipse1003-4"
     cx="6.7511244"
     cy="12.131958"
     rx="1.6795928"
     ry="1.5508149" />
  <ellipse
     style="fill:#ffdd55;fill-opacity:1;stroke:#000000;stroke-width:0.06906971;stroke-opacity:0.02617804"
     id="ellipse1005-9"
     cx="6.2935514"
     cy="11.301754"
     rx="0.41647327"
     ry="0.43017307" />
  <ellipse
     ry="0.43017307"
     rx="0.41647327"
     cy="11.351074"
     cx="7.2963743"
     id="ellipse1007-0"
     style="fill:#ffdd55;fill-opacity:1;stroke:#000000;stroke-width:0.06906971;stroke-opacity:0.02617804" />
  <ellipse
     style="fill:#ffdd55;fill-opacity:1;stroke:#000000;stroke-width:0.06906971;stroke-opacity:0.02617804"
     id="ellipse1009-9"
     cx="7.8388853"
     cy="12.200459"
     rx="0.41647327"
     ry="0.43017307" />
  <ellipse
     ry="0.43017307"
     rx="0.41647327"
     cy="13.011486"
     cx="7.1977339"
     id="ellipse1011-1"
     style="fill:#ffdd55;fill-opacity:1;stroke:#000000;stroke-width:0.06906971;stroke-opacity:0.02617804" />
  <ellipse
     style="fill:#ffdd55;fill-opacity:1;stroke:#000000;stroke-width:0.06906971;stroke-opacity:0.02617804"
     id="ellipse1013-7"
     cx="6.2113523"
     cy="12.995045"
     rx="0.41647327"
     ry="0.43017307" />
  <ellipse
     ry="0.43017307"
     rx="0.41647327"
     cy="12.194981"
     cx="5.6469221"
     id="ellipse1015-7"
     style="fill:#ffdd55;fill-opacity:1;stroke:#000000;stroke-width:0.06906971;stroke-opacity:0.02617804" />
  <path
     style="fill:#aad400;fill-opacity:1;stroke:#000000;stroke-width:0.05979215;stroke-opacity:0.02617804"
     id="path1017-1"
     d="m 7.3867663,12.516335 -0.449812,-0.06089 -0.202289,0.356588 -0.16461,-0.371117 -0.454264,0.02509 0.285201,-0.310228 -0.251975,-0.331501 0.449813,0.06089 0.202287,-0.356587 0.164612,0.371116 0.454263,-0.02509 -0.285202,0.310227 z"
     inkscape:connector-curvature="0" />
  <path
     style="fill:#aa8800;fill-opacity:1;stroke:#c87137;stroke-width:0.00627907;stroke-opacity:0.02617804"
     d="m 6.5980863,13.674009 c -0.292466,-0.02379 -0.579766,-0.123173 -0.822558,-0.284531 -0.105198,-0.06991 -0.171506,-0.123874 -0.254516,-0.207127 -0.381462,-0.382574 -0.529166,-0.900567 -0.401589,-1.408359 0.02365,-0.09415 0.05732,-0.183357 0.107101,-0.283815 0.08106,-0.163576 0.177609,-0.295048 0.312218,-0.425162 0.260888,-0.252178 0.580876,-0.406657 0.962018,-0.464434 0.08873,-0.01345 0.316062,-0.01849 0.415336,-0.0092 0.303364,0.02836 0.584159,0.128177 0.827919,0.294298 0.353414,0.24085 0.58309,0.584171 0.660335,0.987077 0.02208,0.115167 0.02754,0.315595 0.01193,0.438212 -0.03408,0.267769 -0.148051,0.532667 -0.320839,0.745728 -0.350483,0.432175 -0.91457,0.664732 -1.497355,0.61732 z m 0.727335,-0.252435 c 0.065,-0.02236 0.109955,-0.05074 0.160943,-0.101596 0.13469,-0.134342 0.166121,-0.330557 0.08088,-0.504899 -0.05308,-0.108575 -0.160932,-0.196765 -0.272896,-0.223158 -0.04572,-0.01078 -0.139529,-0.01235 -0.181376,-0.003 -0.20089,0.04468 -0.343883,0.2384 -0.330994,0.448421 0.0058,0.09513 0.04115,0.184052 0.103143,0.259703 0.04995,0.06096 0.143772,0.11834 0.222983,0.136376 0.05957,0.01356 0.159343,0.0081 0.217319,-0.0118 z m -1.017354,-0.0074 c 0.116016,-0.02735 0.220069,-0.112975 0.27456,-0.225935 0.04414,-0.0915 0.05627,-0.179049 0.038,-0.274157 -0.04505,-0.234525 -0.262382,-0.386837 -0.487431,-0.341609 -0.205743,0.04135 -0.348399,0.22985 -0.337265,0.445654 0.0061,0.117242 0.04429,0.201624 0.129763,0.286307 0.0581,0.05757 0.106499,0.08673 0.177691,0.10709 0.04972,0.01422 0.150109,0.01552 0.20468,0.0026 z M 6.8335523,12.641 c 0.0518,-0.09189 0.09701,-0.170837 0.100464,-0.175442 0.0052,-0.0069 0.04566,-0.003 0.227848,0.02165 0.164032,0.02222 0.220763,0.02792 0.218468,0.02194 -0.0017,-0.0044 -0.05717,-0.079 -0.123253,-0.165682 -0.118687,-0.155678 -0.120012,-0.15776 -0.108585,-0.170575 0.0064,-0.0071 0.07005,-0.07678 0.141538,-0.15477 0.07148,-0.07799 0.129188,-0.142579 0.128236,-0.143532 -9.56e-4,-9.57e-4 -0.102832,0.0041 -0.226397,0.01116 -0.123566,0.0071 -0.225316,0.01202 -0.226112,0.01095 -7.94e-4,-0.0011 -0.03784,-0.08446 -0.08231,-0.185305 -0.04447,-0.100849 -0.08236,-0.18186 -0.08419,-0.180027 -0.0018,0.0018 -0.04763,0.08151 -0.101763,0.177065 l -0.09843,0.173733 -0.0209,-0.0022 c -0.0115,-0.0012 -0.111243,-0.01444 -0.221664,-0.02945 -0.110419,-0.01501 -0.201961,-0.0261 -0.203425,-0.02463 -0.0023,0.0023 0.0609,0.08726 0.208722,0.280633 l 0.03711,0.04854 -0.04724,0.05192 c -0.02598,0.02856 -0.0899,0.09836 -0.142039,0.155123 -0.05214,0.05676 -0.09415,0.103803 -0.09335,0.104538 7.93e-4,7.32e-4 0.09187,-0.0039 0.202381,-0.01034 0.110512,-0.0064 0.212271,-0.01179 0.226133,-0.01192 l 0.0252,-3.13e-4 0.08059,0.182092 c 0.04433,0.100152 0.08243,0.182029 0.08468,0.181951 0.0023,-1.25e-4 0.04647,-0.07532 0.09828,-0.167212 z m 1.130182,-0.03022 c 0.144368,-0.04846 0.24778,-0.164191 0.281845,-0.315408 0.05558,-0.246746 -0.116106,-0.496156 -0.359442,-0.522157 -0.176792,-0.01889 -0.340548,0.07277 -0.418548,0.234281 -0.07428,0.153792 -0.05776,0.324956 0.04448,0.460962 0.05385,0.07163 0.151736,0.134279 0.241817,0.154751 0.06026,0.01369 0.147403,0.0085 0.209848,-0.01243 z m -2.230259,0.0054 c 0.183435,-0.04071 0.317195,-0.201331 0.329093,-0.395192 0.01265,-0.20608 -0.12644,-0.39994 -0.319617,-0.445482 -0.05078,-0.01197 -0.141504,-0.01197 -0.192287,0 -0.115798,0.0273 -0.219133,0.11224 -0.27457,0.225696 -0.06577,0.134601 -0.0605,0.289374 0.01422,0.417701 0.02882,0.0495 0.09959,0.121486 0.146786,0.149298 0.09,0.05304 0.19613,0.07023 0.296379,0.04798 z m 1.615685,-0.838143 c 0.168023,-0.02337 0.308794,-0.151246 0.351979,-0.319735 0.01409,-0.05498 0.01415,-0.159911 1.25e-4,-0.213487 -0.03169,-0.121015 -0.119384,-0.231103 -0.22411,-0.281325 -0.104069,-0.04991 -0.20711,-0.0568 -0.311554,-0.02085 -0.171723,0.05911 -0.284959,0.221605 -0.284959,0.408917 0,0.233466 0.174414,0.419198 0.406116,0.432472 0.0075,4.38e-4 0.0356,-0.0023 0.0624,-0.006 z m -0.979421,-0.05284 c 0.148076,-0.02833 0.269378,-0.137763 0.319506,-0.288235 0.0754,-0.226322 -0.04957,-0.474038 -0.276392,-0.547898 -0.07176,-0.02337 -0.166731,-0.02338 -0.238737,-1.9e-5 -0.292628,0.09492 -0.39292,0.457778 -0.193106,0.698667 0.05172,0.06235 0.147871,0.11925 0.230914,0.13664 0.05765,0.01207 0.09801,0.01229 0.157815,8.5e-4 z"
     id="path1019-1"
     inkscape:connector-curvature="0" />
  <path
     style="fill:#008000;fill-opacity:1;stroke:#c87137;stroke-width:0.0128093;stroke-opacity:0.02617804"
     d="m 6.6523193,12.616956 -0.08078,-0.180324 -0.154729,0.0078 c -0.0851,0.0043 -0.186433,0.011 -0.22518,0.01492 l -0.07045,0.0071 0.03926,-0.04275 c 0.184516,-0.200937 0.236143,-0.259917 0.236143,-0.269784 0,-0.0063 -0.05185,-0.07881 -0.11523,-0.161189 -0.09425,-0.122495 -0.110844,-0.150479 -0.09115,-0.153667 0.01324,-0.0021 0.109771,0.008 0.214501,0.02253 0.222761,0.03092 0.184645,0.0519 0.307369,-0.169145 0.04596,-0.08278 0.08522,-0.150509 0.08724,-0.150509 0.002,0 0.04005,0.08118 0.0845,0.180409 l 0.08082,0.180409 0.180309,-0.008 c 0.09917,-0.0044 0.200485,-0.01116 0.225143,-0.01502 l 0.04483,-0.007 -0.02705,0.02995 c -0.01488,0.01647 -0.07684,0.08471 -0.1377,0.15163 -0.06085,0.06692 -0.110646,0.12624 -0.110646,0.131819 0,0.0056 0.05205,0.07907 0.115677,0.163328 0.103254,0.136735 0.112437,0.15319 0.08549,0.15319 -0.02577,0 -0.186877,-0.02007 -0.357294,-0.04451 l -0.04725,-0.0068 -0.09833,0.17295 c -0.05408,0.09512 -0.09977,0.172951 -0.101522,0.172951 -0.0018,0 -0.03954,-0.08115 -0.08397,-0.180324 z"
     id="path1021-5"
     inkscape:connector-curvature="0" />
  <ellipse
     style="fill:#ffcc00;fill-opacity:1;stroke:#000000;stroke-width:0.06906971;stroke-opacity:0.02617804"
     id="ellipse1042-9"
     cx="3.3799162"
     cy="7.662262"
     rx="1.6795928"
     ry="1.5508149" />
  <ellipse
     style="fill:#ffdd55;fill-opacity:1;stroke:#000000;stroke-width:0.06906971;stroke-opacity:0.02617804"
     id="ellipse1044-7"
     cx="2.9223433"
     cy="6.832058"
     rx="0.41647327"
     ry="0.43017307" />
  <ellipse
     ry="0.43017307"
     rx="0.41647327"
     cy="6.8813782"
     cx="3.9251661"
     id="ellipse1046-7"
     style="fill:#ffdd55;fill-opacity:1;stroke:#000000;stroke-width:0.06906971;stroke-opacity:0.02617804" />
  <ellipse
     style="fill:#ffdd55;fill-opacity:1;stroke:#000000;stroke-width:0.06906971;stroke-opacity:0.02617804"
     id="ellipse1048-6"
     cx="4.4676771"
     cy="7.7307625"
     rx="0.41647327"
     ry="0.43017307" />
  <ellipse
     ry="0.43017307"
     rx="0.41647327"
     cy="8.5417881"
     cx="3.8265257"
     id="ellipse1050-7"
     style="fill:#ffdd55;fill-opacity:1;stroke:#000000;stroke-width:0.06906971;stroke-opacity:0.02617804" />
  <ellipse
     style="fill:#ffdd55;fill-opacity:1;stroke:#000000;stroke-width:0.06906971;stroke-opacity:0.02617804"
     id="ellipse1052-3"
     cx="2.8401442"
     cy="8.5253487"
     rx="0.41647327"
     ry="0.43017307" />
  <ellipse
     ry="0.43017307"
     rx="0.41647327"
     cy="7.7252827"
     cx="2.2757063"
     id="ellipse1054-6"
     style="fill:#ffdd55;fill-opacity:1;stroke:#000000;stroke-width:0.06906971;stroke-opacity:0.02617804" />
  <path
     style="fill:#aad400;fill-opacity:1;stroke:#000000;stroke-width:0.05979215;stroke-opacity:0.02617804"
     id="path1056-5"
     d="m 4.0155543,8.0466379 -0.449812,-0.06089 -0.202289,0.356589 -0.16461,-0.371117 -0.454264,0.02509 0.285201,-0.310228 -0.251975,-0.3315 0.449813,0.06089 0.202287,-0.356587 0.164612,0.371116 0.454263,-0.02509 -0.285202,0.310227 z"
     inkscape:connector-curvature="0" />
  <path
     style="fill:#aa8800;fill-opacity:1;stroke:#c87137;stroke-width:0.00627907;stroke-opacity:0.02617804"
     d="m 3.2268743,9.2043109 c -0.292466,-0.02379 -0.579766,-0.123172 -0.822558,-0.28453 -0.105198,-0.06991 -0.171506,-0.123874 -0.254516,-0.207127 -0.381462,-0.382575 -0.529167,-0.900567 -0.401589,-1.408359 0.02365,-0.09415 0.05732,-0.183357 0.1071,-0.283814 0.08106,-0.163577 0.17761,-0.295049 0.312219,-0.425163 0.260887,-0.252177 0.580876,-0.406657 0.962018,-0.464434 0.08873,-0.01345 0.316062,-0.01849 0.415336,-0.0092 0.303364,0.02836 0.584159,0.128177 0.827919,0.294299 0.353414,0.240848 0.583089,0.58417 0.660335,0.987076 0.02208,0.115167 0.02754,0.315595 0.01193,0.438212 -0.03408,0.267769 -0.148051,0.532667 -0.320839,0.745728 -0.350483,0.432175 -0.91457,0.664732 -1.497355,0.617319 z m 0.727335,-0.252434 c 0.065,-0.02237 0.109955,-0.05074 0.160942,-0.101596 0.13469,-0.134342 0.166122,-0.330557 0.08088,-0.504899 -0.05308,-0.108575 -0.160932,-0.196765 -0.272896,-0.223158 -0.04572,-0.01078 -0.139529,-0.01235 -0.181376,-0.003 -0.20089,0.04468 -0.343883,0.238399 -0.330994,0.448421 0.0058,0.09513 0.04115,0.184052 0.103143,0.259703 0.04995,0.06096 0.143772,0.118339 0.222983,0.136376 0.05957,0.01356 0.159343,0.0081 0.217319,-0.0118 z m -1.017354,-0.0074 c 0.116016,-0.02735 0.220069,-0.112975 0.27456,-0.225935 0.04414,-0.0915 0.05627,-0.179049 0.038,-0.274158 -0.04505,-0.234525 -0.262382,-0.386836 -0.487431,-0.341608 -0.205743,0.04135 -0.348399,0.22985 -0.337265,0.445654 0.0061,0.117242 0.04429,0.201624 0.129763,0.286307 0.0581,0.05757 0.106499,0.08673 0.177691,0.10709 0.04972,0.01422 0.150109,0.01552 0.20468,0.0026 z m 0.525485,-0.773174 c 0.0518,-0.09189 0.09701,-0.170837 0.100464,-0.175442 0.0052,-0.0069 0.04566,-0.003 0.227847,0.02165 0.164033,0.02222 0.220764,0.02792 0.218469,0.02194 -0.0017,-0.0044 -0.05717,-0.079 -0.123254,-0.165682 -0.118686,-0.155678 -0.120011,-0.15776 -0.108585,-0.170575 0.0064,-0.0071 0.07005,-0.07678 0.141539,-0.154771 0.07148,-0.07799 0.129188,-0.142577 0.128236,-0.143531 -9.56e-4,-9.56e-4 -0.102832,0.0041 -0.226397,0.01116 -0.123566,0.0071 -0.225316,0.01202 -0.226113,0.01095 -7.93e-4,-0.0011 -0.03783,-0.08446 -0.08231,-0.185305 -0.04447,-0.100848 -0.08236,-0.18186 -0.08419,-0.180028 -0.0018,0.0018 -0.04763,0.08151 -0.101763,0.177066 l -0.09843,0.173733 -0.0209,-0.0022 c -0.0115,-0.0012 -0.111244,-0.01444 -0.221664,-0.02945 -0.110419,-0.01501 -0.201961,-0.0261 -0.203426,-0.02463 -0.0023,0.0023 0.0609,0.08726 0.208723,0.280633 l 0.03711,0.04855 -0.04724,0.05192 c -0.02598,0.02856 -0.0899,0.09836 -0.142039,0.155123 -0.05214,0.05676 -0.09415,0.103803 -0.09335,0.104538 7.92e-4,7.32e-4 0.09187,-0.0039 0.202381,-0.01034 0.110512,-0.0064 0.212271,-0.01179 0.226133,-0.01192 l 0.0252,-3.13e-4 0.08059,0.182092 c 0.04433,0.100152 0.08243,0.182029 0.08468,0.181951 0.0023,-1.25e-4 0.04647,-0.07532 0.09828,-0.167212 z m 1.130181,-0.03022 c 0.144368,-0.04846 0.24778,-0.164192 0.281846,-0.315408 0.05558,-0.246745 -0.116106,-0.496156 -0.359442,-0.522157 -0.176792,-0.01889 -0.340549,0.07277 -0.418549,0.234281 -0.07427,0.153792 -0.05776,0.324956 0.04448,0.460962 0.05385,0.07163 0.151737,0.134279 0.241818,0.154751 0.06026,0.01369 0.147402,0.0085 0.209847,-0.012429 z m -2.230258,0.0054 c 0.183435,-0.04071 0.317195,-0.201331 0.329092,-0.395192 0.01265,-0.20608 -0.126439,-0.39994 -0.319616,-0.445482 -0.05078,-0.01197 -0.141504,-0.01197 -0.192287,0 -0.115798,0.0273 -0.219133,0.11224 -0.27457,0.225697 -0.06577,0.1346 -0.0605,0.289373 0.01422,0.4177 0.02882,0.0495 0.09959,0.121485 0.146786,0.149298 0.09,0.05305 0.19613,0.07023 0.296379,0.04798 z m 1.615685,-0.838143 c 0.168023,-0.02337 0.308794,-0.151246 0.351979,-0.319735 0.01409,-0.05498 0.01415,-0.159912 1.25e-4,-0.213487 -0.03169,-0.121015 -0.119384,-0.231103 -0.224111,-0.281325 -0.104068,-0.04991 -0.207109,-0.0568 -0.311553,-0.02085 -0.171723,0.05911 -0.284959,0.221605 -0.284959,0.408916 0,0.233465 0.174414,0.419198 0.406116,0.432472 0.0075,4.38e-4 0.0356,-0.0023 0.0624,-0.006 z m -0.979421,-0.05284 c 0.148076,-0.02833 0.269378,-0.137763 0.319506,-0.288235 0.0754,-0.226323 -0.04957,-0.474038 -0.276392,-0.547898 -0.07176,-0.02337 -0.166732,-0.02338 -0.238737,-1.9e-5 -0.292628,0.09492 -0.39292,0.457778 -0.193106,0.698667 0.05172,0.06235 0.147871,0.11925 0.230913,0.13664 0.05765,0.01207 0.09801,0.01229 0.157816,8.5e-4 z"
     id="path1058-6"
     inkscape:connector-curvature="0" />
  <path
     style="fill:#008000;fill-opacity:1;stroke:#c87137;stroke-width:0.0128093;stroke-opacity:0.02617804"
     d="m 3.2811073,8.1472579 -0.08078,-0.180323 -0.154728,0.0078 c -0.0851,0.0043 -0.186433,0.011 -0.22518,0.01492 l -0.07045,0.0071 0.03926,-0.04275 c 0.184517,-0.200937 0.236143,-0.259918 0.236143,-0.269784 0,-0.0063 -0.05185,-0.07882 -0.115229,-0.161189 -0.09425,-0.122495 -0.110844,-0.150479 -0.09115,-0.153667 0.01324,-0.0021 0.10977,0.008 0.214501,0.02253 0.222761,0.03092 0.184645,0.0519 0.307369,-0.169145 0.04596,-0.08278 0.08522,-0.150509 0.08724,-0.150509 0.002,0 0.04005,0.08118 0.0845,0.18041 l 0.08082,0.180408 0.180309,-0.008 c 0.09917,-0.0044 0.200485,-0.01116 0.225143,-0.01502 l 0.04483,-0.007 -0.02705,0.02995 c -0.01488,0.01647 -0.07684,0.08471 -0.137701,0.15163 -0.06085,0.06692 -0.110645,0.12624 -0.110645,0.131819 0,0.0056 0.05205,0.07907 0.115677,0.163328 0.103254,0.136735 0.112437,0.153189 0.08549,0.153189 -0.02577,0 -0.186877,-0.02007 -0.357294,-0.04451 l -0.04725,-0.0068 -0.09833,0.17295 c -0.05408,0.09512 -0.09977,0.172951 -0.101522,0.172951 -0.0018,0 -0.03954,-0.08115 -0.08397,-0.180324 z"
     id="path1060-3"
     inkscape:connector-curvature="0" />
  <ellipse
     ry="1.5508149"
     rx="1.6795928"
     cy="7.662262"
     cx="6.7890043"
     id="ellipse1081"
     style="fill:#ffcc00;fill-opacity:1;stroke:#000000;stroke-width:0.06906971;stroke-opacity:0.02617804" />
  <ellipse
     ry="0.43017307"
     rx="0.41647327"
     cy="6.832058"
     cx="6.3314314"
     id="ellipse1083"
     style="fill:#ffdd55;fill-opacity:1;stroke:#000000;stroke-width:0.06906971;stroke-opacity:0.02617804" />
  <ellipse
     style="fill:#ffdd55;fill-opacity:1;stroke:#000000;stroke-width:0.06906971;stroke-opacity:0.02617804"
     id="ellipse1085"
     cx="7.3342543"
     cy="6.8813782"
     rx="0.41647327"
     ry="0.43017307" />
  <ellipse
     ry="0.43017307"
     rx="0.41647327"
     cy="7.7307625"
     cx="7.8767653"
     id="ellipse1087"
     style="fill:#ffdd55;fill-opacity:1;stroke:#000000;stroke-width:0.06906971;stroke-opacity:0.02617804" />
  <ellipse
     style="fill:#ffdd55;fill-opacity:1;stroke:#000000;stroke-width:0.06906971;stroke-opacity:0.02617804"
     id="ellipse1089"
     cx="7.2356138"
     cy="8.5417881"
     rx="0.41647327"
     ry="0.43017307" />
  <ellipse
     ry="0.43017307"
     rx="0.41647327"
     cy="8.5253487"
     cx="6.2492323"
     id="ellipse1091"
     style="fill:#ffdd55;fill-opacity:1;stroke:#000000;stroke-width:0.06906971;stroke-opacity:0.02617804" />
  <ellipse
     style="fill:#ffdd55;fill-opacity:1;stroke:#000000;stroke-width:0.06906971;stroke-opacity:0.02617804"
     id="ellipse1093"
     cx="5.6848021"
     cy="7.7252827"
     rx="0.41647327"
     ry="0.43017307" />
  <path
     d="m 7.4246453,8.0466379 -0.449812,-0.06089 -0.202289,0.356589 -0.16461,-0.371117 -0.454264,0.02509 0.285201,-0.310228 -0.251975,-0.3315 0.449813,0.06089 0.202287,-0.356587 0.164612,0.371116 0.454263,-0.02509 -0.285202,0.310227 z"
     id="path1095"
     style="fill:#aad400;fill-opacity:1;stroke:#000000;stroke-width:0.05979215;stroke-opacity:0.02617804"
     inkscape:connector-curvature="0" />
  <path
     id="path1097"
     d="m 6.6359653,9.2043109 c -0.292466,-0.02379 -0.579766,-0.123172 -0.822558,-0.28453 -0.105198,-0.06991 -0.171506,-0.123874 -0.254516,-0.207127 -0.381462,-0.382575 -0.529167,-0.900567 -0.401589,-1.408359 0.02365,-0.09415 0.05732,-0.183357 0.1071,-0.283814 0.08106,-0.163577 0.17761,-0.295049 0.312219,-0.425163 0.260887,-0.252177 0.580876,-0.406657 0.962018,-0.464434 0.08873,-0.01345 0.316061,-0.01849 0.415336,-0.0092 0.303364,0.02836 0.584159,0.128177 0.827919,0.294299 0.353414,0.240848 0.58309,0.58417 0.660335,0.987076 0.02208,0.115167 0.02754,0.315595 0.01193,0.438212 -0.03408,0.267769 -0.148051,0.532667 -0.320839,0.745728 -0.350483,0.432175 -0.91457,0.664732 -1.497355,0.617319 z m 0.727335,-0.252434 c 0.065,-0.02237 0.109955,-0.05074 0.160942,-0.101596 0.13469,-0.134342 0.166122,-0.330557 0.08088,-0.504899 -0.05309,-0.108575 -0.160932,-0.196765 -0.272896,-0.223158 -0.04572,-0.01078 -0.13953,-0.01235 -0.181376,-0.003 -0.20089,0.04468 -0.343883,0.238399 -0.330994,0.448421 0.0058,0.09513 0.04115,0.184052 0.103143,0.259703 0.04995,0.06096 0.143772,0.118339 0.222983,0.136376 0.05957,0.01356 0.159343,0.0081 0.217319,-0.0118 z m -1.017354,-0.0074 c 0.116016,-0.02735 0.220069,-0.112975 0.274559,-0.225935 0.04414,-0.0915 0.05627,-0.179049 0.038,-0.274158 -0.04505,-0.234525 -0.262383,-0.386836 -0.487431,-0.341608 -0.205743,0.04135 -0.348399,0.22985 -0.337265,0.445654 0.0061,0.117242 0.04429,0.201624 0.129763,0.286307 0.0581,0.05757 0.106499,0.08673 0.177691,0.10709 0.04972,0.01422 0.150109,0.01552 0.20468,0.0026 z m 0.525484,-0.773174 c 0.0518,-0.09189 0.09701,-0.170837 0.100465,-0.175442 0.0052,-0.0069 0.04566,-0.003 0.227847,0.02165 0.164033,0.02222 0.220763,0.02792 0.218468,0.02194 -0.0017,-0.0044 -0.05717,-0.079 -0.123253,-0.165682 -0.118687,-0.155678 -0.120012,-0.15776 -0.108585,-0.170575 0.0064,-0.0071 0.07005,-0.07678 0.141538,-0.154771 0.07148,-0.07799 0.129189,-0.142577 0.128237,-0.143531 -9.57e-4,-9.56e-4 -0.102832,0.0041 -0.226397,0.01116 -0.123566,0.0071 -0.225316,0.01202 -0.226113,0.01095 -7.93e-4,-0.0011 -0.03783,-0.08446 -0.0823,-0.185305 -0.04447,-0.100848 -0.08236,-0.18186 -0.08419,-0.180028 -0.0018,0.0018 -0.04763,0.08151 -0.101764,0.177066 l -0.09843,0.173733 -0.0209,-0.0022 c -0.01149,-0.0012 -0.111243,-0.01444 -0.221663,-0.02945 -0.110419,-0.01501 -0.201961,-0.0261 -0.203426,-0.02463 -0.0023,0.0023 0.0609,0.08726 0.208723,0.280633 l 0.03711,0.04855 -0.04724,0.05192 c -0.02598,0.02856 -0.0899,0.09836 -0.142038,0.155123 -0.05214,0.05676 -0.09415,0.103803 -0.09335,0.104538 7.92e-4,7.32e-4 0.09187,-0.0039 0.202381,-0.01034 0.110512,-0.0064 0.212271,-0.01179 0.226133,-0.01192 l 0.0252,-3.13e-4 0.08059,0.182092 c 0.04433,0.100152 0.08243,0.182029 0.08468,0.181951 0.0023,-1.25e-4 0.04647,-0.07532 0.09828,-0.167212 z m 1.130182,-0.03022 c 0.144368,-0.04846 0.24778,-0.164192 0.281846,-0.315408 0.05558,-0.246745 -0.116106,-0.496156 -0.359442,-0.522157 -0.176792,-0.01889 -0.340549,0.07277 -0.418549,0.234281 -0.07427,0.153792 -0.05776,0.324956 0.04448,0.460962 0.05385,0.07163 0.151737,0.134279 0.241818,0.154751 0.06026,0.01369 0.147402,0.0085 0.209847,-0.012429 z m -2.230258,0.0054 c 0.183435,-0.04071 0.317195,-0.201331 0.329092,-0.395192 0.01265,-0.20608 -0.126439,-0.39994 -0.319616,-0.445482 -0.05078,-0.01197 -0.141504,-0.01197 -0.192287,0 -0.115799,0.0273 -0.219133,0.11224 -0.27457,0.225697 -0.06577,0.1346 -0.0605,0.289373 0.01422,0.4177 0.02882,0.0495 0.09959,0.121485 0.146786,0.149298 0.09001,0.05305 0.19613,0.07023 0.296379,0.04798 z m 1.615685,-0.838143 c 0.168023,-0.02337 0.308794,-0.151246 0.351979,-0.319735 0.01409,-0.05498 0.01415,-0.159912 1.25e-4,-0.213487 -0.03169,-0.121015 -0.119384,-0.231103 -0.224111,-0.281325 -0.104068,-0.04991 -0.207109,-0.0568 -0.311553,-0.02085 -0.171723,0.05911 -0.284959,0.221605 -0.284959,0.408916 0,0.233465 0.174414,0.419198 0.406116,0.432472 0.0075,4.38e-4 0.0356,-0.0023 0.0624,-0.006 z m -0.979421,-0.05284 c 0.148076,-0.02833 0.269378,-0.137763 0.319506,-0.288235 0.0754,-0.226323 -0.04957,-0.474038 -0.276392,-0.547898 -0.07176,-0.02337 -0.166732,-0.02338 -0.238737,-1.9e-5 -0.292628,0.09492 -0.39292,0.457778 -0.193106,0.698667 0.05172,0.06235 0.147871,0.11925 0.230913,0.13664 0.05765,0.01207 0.09801,0.01229 0.157816,8.5e-4 z"
     style="fill:#aa8800;fill-opacity:1;stroke:#c87137;stroke-width:0.00627907;stroke-opacity:0.02617804"
     inkscape:connector-curvature="0" />
  <path
     id="path1099"
     d="m 6.6901983,8.1472579 -0.08078,-0.180323 -0.154728,0.0078 c -0.0851,0.0043 -0.186433,0.011 -0.22518,0.01492 l -0.07045,0.0071 0.03926,-0.04275 c 0.184517,-0.200937 0.236143,-0.259918 0.236143,-0.269784 0,-0.0063 -0.05185,-0.07882 -0.115229,-0.161189 -0.09425,-0.122495 -0.110844,-0.150479 -0.09115,-0.153667 0.01324,-0.0021 0.10977,0.008 0.214501,0.02253 0.222761,0.03092 0.184644,0.0519 0.307369,-0.169145 0.04596,-0.08278 0.08522,-0.150509 0.08725,-0.150509 0.002,0 0.04005,0.08118 0.0845,0.18041 l 0.08082,0.180408 0.180308,-0.008 c 0.09917,-0.0044 0.200485,-0.01116 0.225144,-0.01502 l 0.04483,-0.007 -0.02705,0.02995 c -0.01488,0.01647 -0.07684,0.08471 -0.137701,0.15163 -0.06086,0.06692 -0.110645,0.12624 -0.110645,0.131819 0,0.0056 0.05206,0.07907 0.115677,0.163328 0.103254,0.136735 0.112436,0.153189 0.08549,0.153189 -0.02577,0 -0.186877,-0.02007 -0.357294,-0.04451 l -0.04725,-0.0068 -0.09833,0.17295 c -0.05408,0.09512 -0.09977,0.172951 -0.101522,0.172951 -0.0017,0 -0.03954,-0.08115 -0.08397,-0.180324 z"
     style="fill:#008000;fill-opacity:1;stroke:#c87137;stroke-width:0.0128093;stroke-opacity:0.02617804"
     inkscape:connector-curvature="0" />
</svg>
