<?xml version="1.0" encoding="UTF-8" standalone="no"?>
<svg
   xmlns:dc="http://purl.org/dc/elements/1.1/"
   xmlns:cc="http://creativecommons.org/ns#"
   xmlns:rdf="http://www.w3.org/1999/02/22-rdf-syntax-ns#"
   xmlns:svg="http://www.w3.org/2000/svg"
   xmlns="http://www.w3.org/2000/svg"
   xmlns:xlink="http://www.w3.org/1999/xlink"
   xmlns:sodipodi="http://sodipodi.sourceforge.net/DTD/sodipodi-0.dtd"
   xmlns:inkscape="http://www.inkscape.org/namespaces/inkscape"
   version="1.1"
   id="svg815"
   width="160"
   height="250"
   viewBox="0 0 160 250"
   sodipodi:docname="golds02.svg"
   inkscape:version="0.92.5 (2060ec1f9f, 2020-04-08)">
  <sodipodi:namedview
     pagecolor="#ffffff"
     bordercolor="#666666"
     borderopacity="1"
     objecttolerance="10"
     gridtolerance="10"
     guidetolerance="10"
     inkscape:pageopacity="0"
     inkscape:pageshadow="2"
     inkscape:window-width="1918"
     inkscape:window-height="1017"
     id="namedview10447"
     showgrid="false"
     inkscape:zoom="12.840816"
     inkscape:cx="55.909091"
     inkscape:cy="243.33333"
     inkscape:window-x="0"
     inkscape:window-y="0"
     inkscape:window-maximized="1"
     inkscape:current-layer="svg815"
     inkscape:snap-page="true" />
  <metadata
     id="metadata821">
    <rdf:RDF>
      <cc:Work
         rdf:about="">
        <dc:format>image/svg+xml</dc:format>
        <dc:type
           rdf:resource="http://purl.org/dc/dcmitype/StillImage" />
        <dc:title></dc:title>
      </cc:Work>
    </rdf:RDF>
  </metadata>
  <defs
     id="defs819">
    <linearGradient
       gradientUnits="userSpaceOnUse"
       y2="71.008263"
       x2="88.849586"
       y1="58.644627"
       x1="82.105782"
       id="linearGradient1063"
       xlink:href="#linearGradient882"
       gradientTransform="matrix(0.0625,0,0,0.0625,90.000002,-2.4462891e-7)" />
    <linearGradient
       id="linearGradient882">
      <stop
         style="stop-color:#d16208;stop-opacity:1"
         offset="0"
         id="stop878" />
      <stop
         style="stop-color:#d16250;stop-opacity:0;"
         offset="1"
         id="stop880" />
    </linearGradient>
    <linearGradient
       gradientUnits="userSpaceOnUse"
       y2="68.472336"
       x2="56.128345"
       y1="63.697319"
       x1="61.166279"
       id="linearGradient876"
       xlink:href="#linearGradient882"
       gradientTransform="matrix(0.0625,0,0,0.0625,90.000002,-2.4462891e-7)" />
    <linearGradient
       xlink:href="#linearGradient846"
       id="linearGradient848"
       x1="72.37397"
       y1="53.171356"
       x2="72.19931"
       y2="45.564011"
       gradientUnits="userSpaceOnUse"
       gradientTransform="matrix(0.0625,0,0,0.0625,110,-4.9804688e-7)" />
    <linearGradient
       id="linearGradient846">
      <stop
         style="stop-color:#423abf;stop-opacity:1;"
         offset="0"
         id="stop842" />
      <stop
         style="stop-color:#423abf;stop-opacity:0;"
         offset="1"
         id="stop844" />
    </linearGradient>
  </defs>
  <flowRoot
     style="font-style:normal;font-variant:normal;font-weight:bold;font-stretch:normal;font-size:1px;line-height:1.25;font-family:'DejaVu Sans';-inkscape-font-specification:'DejaVu Sans Bold';letter-spacing:0px;word-spacing:0px;fill:#000000;fill-opacity:1;stroke:none;stroke-width:0.0625"
     id="flowRoot100"
     xml:space="preserve"><flowRegion
       style="stroke-width:0.0625"
       id="flowRegion102"><rect
         style="stroke-width:0.00390625"
         y="0.73863637"
         x="0.66287881"
         height="1.3636364"
         width="1.5151515"
         id="rect104" /></flowRegion><flowPara
       style="stroke-width:0.0625"
       id="flowPara106" /></flowRoot>  <rect
     style="fill:#ffffff;fill-opacity:1;stroke:#1a1a1a;stroke-width:0.0625;stroke-opacity:1"
     id="golds02"
     width="10"
     height="15.625"
     x="0"
     y="0" />
  <rect
     style="fill:none;fill-opacity:1;stroke:#1a1a1a;stroke-width:0.0625;stroke-opacity:1"
     id="rect108-6"
     width="7.2537889"
     height="12.973484"
     x="1.344696"
     y="1.306818" />
  <g
     id="flowRoot915-7"
     style="font-style:normal;font-variant:normal;font-weight:bold;font-stretch:normal;font-size:16px;line-height:1.25;font-family:'DejaVu Sans';-inkscape-font-specification:'DejaVu Sans Bold';text-align:start;letter-spacing:0px;word-spacing:0px;text-anchor:start;fill:#000000;fill-opacity:1;stroke:none"
     transform="matrix(0.0625,0,0,0.0625,0.189394,3.0761726e-8)"
     aria-label="2">
    <path
       id="path223"
       d="m 7.640625,16.490234 h 5.132813 v 2.210938 H 4.296875 V 16.490234 L 8.5546875,12.732422 Q 9.125,12.216797 9.3984375,11.724609 9.671875,11.232422 9.671875,10.701172 q 0,-0.8203126 -0.5546875,-1.3203126 -0.546875,-0.5 -1.4609375,-0.5 -0.703125,0 -1.5390625,0.3046875 Q 5.28125,9.4824219 4.328125,10.076172 V 7.5136719 Q 5.34375,7.1777344 6.3359375,7.0058594 7.328125,6.8261719 8.28125,6.8261719 q 2.09375,0 3.25,0.921875 1.164063,0.921875 1.164063,2.5703121 0,0.953125 -0.492188,1.78125 -0.492187,0.820313 -2.070312,2.203125 z"
       inkscape:connector-curvature="0" />
  </g>
  <ellipse
     style="fill:#ffcc00;fill-opacity:1;stroke:#000000;stroke-width:0.12020084;stroke-opacity:0.02617804"
     id="path983-3"
     cx="5.0102921"
     cy="10.719696"
     rx="2.9229667"
     ry="2.6988564" />
  <ellipse
     style="fill:#ffdd55;fill-opacity:1;stroke:#000000;stroke-width:0.12020084;stroke-opacity:0.02617804"
     id="path985-6"
     cx="4.2139854"
     cy="9.2749043"
     rx="0.72478127"
     ry="0.74862283" />
  <ellipse
     ry="0.74862283"
     rx="0.72478127"
     cy="9.3607349"
     cx="5.9591827"
     id="ellipse989-7"
     style="fill:#ffdd55;fill-opacity:1;stroke:#000000;stroke-width:0.12020084;stroke-opacity:0.02617804" />
  <ellipse
     style="fill:#ffdd55;fill-opacity:1;stroke:#000000;stroke-width:0.12020084;stroke-opacity:0.02617804"
     id="ellipse991-5"
     cx="6.9033012"
     cy="10.838905"
     rx="0.72478127"
     ry="0.74862283" />
  <ellipse
     ry="0.74862283"
     rx="0.72478127"
     cy="12.25032"
     cx="5.7875252"
     id="ellipse993-3"
     style="fill:#ffdd55;fill-opacity:1;stroke:#000000;stroke-width:0.12020084;stroke-opacity:0.02617804" />
  <ellipse
     style="fill:#ffdd55;fill-opacity:1;stroke:#000000;stroke-width:0.12020084;stroke-opacity:0.02617804"
     id="ellipse995-5"
     cx="4.0709343"
     cy="12.22171"
     rx="0.72478127"
     ry="0.74862283" />
  <ellipse
     ry="0.74862283"
     rx="0.72478127"
     cy="10.829369"
     cx="3.088665"
     id="ellipse997-6"
     style="fill:#ffdd55;fill-opacity:1;stroke:#000000;stroke-width:0.12020084;stroke-opacity:0.02617804" />
  <path
     style="fill:#aad400;fill-opacity:1;stroke:#000000;stroke-width:0.10405526;stroke-opacity:0.02617804"
     id="path999-2"
     d="m 6.116487,11.388619 -0.7828,-0.105963 -0.35204,0.620565 -0.286469,-0.645848 -0.790546,0.04366 0.496331,-0.539883 -0.438509,-0.576905 0.782801,0.105962 0.352038,-0.620563 0.28647,0.645848 0.790546,-0.04366 -0.496332,0.539885 z"
     inkscape:connector-curvature="0" />
  <path
     style="fill:#aa8800;fill-opacity:1;stroke:#c87137;stroke-width:0.01092735;stroke-opacity:0.02617804"
     d="M 4.74396,13.403298 C 4.234988,13.361888 3.735004,13.188943 3.312477,12.908135 3.129404,12.786468 3.014008,12.692559 2.869548,12.547675 2.205695,11.881888 1.948648,10.980433 2.170669,10.096732 2.211829,9.932883 2.270419,9.77764 2.357054,9.602815 2.498127,9.318145 2.666145,9.089348 2.900403,8.862911 3.354421,8.424052 3.911291,8.155213 4.574587,8.054666 c 0.154416,-0.02341 0.550035,-0.03218 0.722801,-0.01602 0.527939,0.04936 1.016601,0.223066 1.440814,0.512164 0.615039,0.419145 1.014741,1.016623 1.14917,1.717793 0.03843,0.200423 0.04792,0.549224 0.02076,0.762611 -0.05931,0.465994 -0.25765,0.926991 -0.558352,1.29778 -0.609939,0.752105 -1.591609,1.15682 -2.605821,1.074309 z m 1.265769,-0.439307 c 0.113122,-0.03892 0.191354,-0.0883 0.280085,-0.176806 0.2344,-0.233793 0.2891,-0.575262 0.140753,-0.878666 -0.09238,-0.188951 -0.280069,-0.342427 -0.474917,-0.388358 -0.07957,-0.01876 -0.242821,-0.0215 -0.315646,-0.0053 -0.349606,0.07775 -0.598452,0.414883 -0.576021,0.78038 0.01016,0.16556 0.07162,0.320302 0.179497,0.451956 0.08693,0.106086 0.250203,0.205945 0.388053,0.237332 0.103671,0.02361 0.277301,0.01418 0.378196,-0.02054 z m -1.770483,-0.01292 c 0.2019,-0.0476 0.382981,-0.196609 0.477811,-0.393191 0.07681,-0.159231 0.09793,-0.311596 0.06614,-0.477111 -0.07841,-0.408141 -0.45662,-0.673206 -0.848269,-0.594497 -0.358051,0.07196 -0.606313,0.400005 -0.586936,0.775564 0.01053,0.204035 0.07708,0.350884 0.225825,0.498257 0.101116,0.100185 0.185337,0.150942 0.309232,0.186366 0.08652,0.02474 0.261232,0.027 0.356201,0.0046 z m 0.914491,-1.345542 c 0.09015,-0.159912 0.168827,-0.297305 0.174837,-0.305318 0.009,-0.01198 0.07947,-0.0053 0.396519,0.03767 0.285464,0.03867 0.38419,0.04859 0.380197,0.03818 -0.003,-0.0077 -0.09949,-0.137483 -0.214496,-0.288334 -0.206549,-0.270925 -0.208855,-0.274547 -0.188968,-0.296848 0.01107,-0.01242 0.121914,-0.133622 0.246315,-0.269345 0.124401,-0.135723 0.224826,-0.248127 0.223168,-0.249786 -0.0017,-0.0017 -0.178957,0.0071 -0.393995,0.01942 -0.215039,0.01234 -0.392112,0.02092 -0.393499,0.01906 C 5.382415,10.308328 5.317975,10.16325 5.240581,9.987745 5.163191,9.812241 5.097257,9.671257 5.094068,9.674446 c -0.0032,0.0032 -0.08288,0.141855 -0.177096,0.308145 l -0.171298,0.302345 -0.03637,-0.0037 c -0.02,-0.0021 -0.193594,-0.02513 -0.385757,-0.05126 -0.192161,-0.02613 -0.351469,-0.04542 -0.354018,-0.04287 -0.004,0.004 0.105974,0.151856 0.363237,0.488381 l 0.06458,0.08448 -0.08221,0.09036 c -0.04521,0.0497 -0.156448,0.171177 -0.247188,0.269956 -0.09074,0.09878 -0.163844,0.180646 -0.162456,0.181927 0.0014,0.0013 0.159878,-0.0068 0.352199,-0.01799 0.192322,-0.01118 0.369412,-0.02051 0.393535,-0.02075 l 0.04386,-5e-4 0.140252,0.316893 c 0.07714,0.174292 0.143455,0.316781 0.147369,0.316645 0.0039,-1.87e-4 0.08087,-0.131083 0.171026,-0.290997 z m 1.966837,-0.05259 c 0.25124,-0.08434 0.431207,-0.28574 0.490491,-0.548901 0.09673,-0.429406 -0.202057,-0.86345 -0.625531,-0.908698 -0.307667,-0.03287 -0.592651,0.126643 -0.728393,0.407713 -0.129258,0.267643 -0.100514,0.565515 0.07741,0.802204 0.09371,0.124665 0.264064,0.233683 0.42083,0.269311 0.104862,0.02383 0.256522,0.01485 0.365195,-0.02163 z m -3.881281,0.0095 c 0.319229,-0.07084 0.55201,-0.350374 0.572714,-0.687747 0.02201,-0.358636 -0.22004,-0.696008 -0.556223,-0.775264 -0.08838,-0.02083 -0.246257,-0.02083 -0.334633,0 -0.201523,0.04751 -0.381354,0.19533 -0.47783,0.392776 -0.114455,0.234244 -0.105288,0.503591 0.02474,0.726917 0.05016,0.08614 0.173323,0.211419 0.255448,0.25982 0.156635,0.09231 0.341323,0.122212 0.515784,0.0835 z m 2.81175,-1.458607 C 6.343449,10.063162 6.588431,9.840622 6.663585,9.547403 6.688105,9.451723 6.688215,9.269111 6.663773,9.175875 6.608633,8.965275 6.45601,8.77369 6.273757,8.686291 6.092649,8.599441 5.913328,8.587441 5.731566,8.650011 5.43272,8.752882 5.235658,9.035667 5.235658,9.361641 c 0,0.406297 0.303528,0.729524 0.706757,0.752624 0.01309,7.25e-4 0.06196,-0.0039 0.108596,-0.01043 z m -1.70447,-0.09195 C 4.604266,9.962582 4.815368,9.772136 4.902603,9.510271 5.033812,9.116407 4.816343,8.685311 4.421604,8.556775 4.296714,8.516105 4.131444,8.516095 4.006134,8.55674 3.496878,8.721925 3.322342,9.353405 3.670074,9.772621 c 0.09001,0.108512 0.257338,0.207527 0.401854,0.23779 0.100325,0.02101 0.170567,0.02138 0.274645,0.0015 z"
     id="path841-9"
     inkscape:connector-curvature="0" />
  <path
     style="fill:#008000;fill-opacity:1;stroke:#c87137;stroke-width:0.0222918;stroke-opacity:0.02617804"
     d="m 4.838341,11.563727 -0.14058,-0.313814 -0.269272,0.01355 c -0.1481,0.0075 -0.324445,0.01914 -0.391878,0.02597 l -0.122605,0.01242 0.06832,-0.0744 c 0.321112,-0.349688 0.410956,-0.45233 0.410956,-0.4695 0,-0.01093 -0.09024,-0.137161 -0.200532,-0.280514 -0.164013,-0.213176 -0.1929,-0.261876 -0.158624,-0.267425 0.02305,-0.0037 0.191032,0.01392 0.373294,0.03922 0.387665,0.05382 0.321333,0.09032 0.534908,-0.29436 0.07998,-0.14406 0.148307,-0.261928 0.151831,-0.261928 0.0035,0 0.0697,0.141283 0.147051,0.313963 l 0.140647,0.313962 0.313789,-0.01391 c 0.172584,-0.0077 0.3489,-0.01942 0.391812,-0.02614 l 0.07802,-0.01223 -0.04708,0.05213 c -0.02589,0.02867 -0.13373,0.147416 -0.239637,0.26388 -0.105906,0.116465 -0.192556,0.219694 -0.192556,0.229401 0,0.0097 0.09059,0.137612 0.201312,0.284238 0.17969,0.237959 0.19567,0.266593 0.148777,0.266593 -0.04484,0 -0.325219,-0.03493 -0.621795,-0.07746 l -0.08222,-0.01179 -0.171122,0.300982 c -0.09412,0.165542 -0.173622,0.300985 -0.176677,0.300985 -0.0031,0 -0.06882,-0.141217 -0.146135,-0.313815 z"
     id="path843-1"
     inkscape:connector-curvature="0" />
  <ellipse
     ry="2.6988564"
     rx="2.9229667"
     cy="4.67803"
     cx="5.0102921"
     id="ellipse865"
     style="fill:#ffcc00;fill-opacity:1;stroke:#000000;stroke-width:0.12020084;stroke-opacity:0.02617804" />
  <ellipse
     ry="0.74862283"
     rx="0.72478127"
     cy="3.2332382"
     cx="4.2139854"
     id="ellipse867"
     style="fill:#ffdd55;fill-opacity:1;stroke:#000000;stroke-width:0.12020084;stroke-opacity:0.02617804" />
  <ellipse
     style="fill:#ffdd55;fill-opacity:1;stroke:#000000;stroke-width:0.12020084;stroke-opacity:0.02617804"
     id="ellipse869"
     cx="5.9591827"
     cy="3.319067"
     rx="0.72478127"
     ry="0.74862283" />
  <ellipse
     ry="0.74862283"
     rx="0.72478127"
     cy="4.7972393"
     cx="6.9033012"
     id="ellipse871"
     style="fill:#ffdd55;fill-opacity:1;stroke:#000000;stroke-width:0.12020084;stroke-opacity:0.02617804" />
  <ellipse
     style="fill:#ffdd55;fill-opacity:1;stroke:#000000;stroke-width:0.12020084;stroke-opacity:0.02617804"
     id="ellipse873"
     cx="5.7875252"
     cy="6.2086544"
     rx="0.72478127"
     ry="0.74862283" />
  <ellipse
     ry="0.74862283"
     rx="0.72478127"
     cy="6.1800442"
     cx="4.0709343"
     id="ellipse875"
     style="fill:#ffdd55;fill-opacity:1;stroke:#000000;stroke-width:0.12020084;stroke-opacity:0.02617804" />
  <ellipse
     style="fill:#ffdd55;fill-opacity:1;stroke:#000000;stroke-width:0.12020084;stroke-opacity:0.02617804"
     id="ellipse877"
     cx="3.088665"
     cy="4.7877026"
     rx="0.72478127"
     ry="0.74862283" />
  <path
     d="M 6.116487,5.346952 5.333687,5.24099 4.981647,5.861554 4.695178,5.215706 3.904632,5.259366 4.400963,4.719482 3.962454,4.142577 4.745255,4.248539 5.097293,3.627976 5.383763,4.273824 6.174309,4.230164 5.677977,4.770049 Z"
     id="path879"
     style="fill:#aad400;fill-opacity:1;stroke:#000000;stroke-width:0.10405526;stroke-opacity:0.02617804"
     inkscape:connector-curvature="0" />
  <path
     id="path881"
     d="M 4.74396,7.361631 C 4.234988,7.320221 3.735004,7.147276 3.312477,6.866468 3.129404,6.744801 3.014008,6.650893 2.869548,6.506008 2.205695,5.840221 1.948648,4.938767 2.170669,4.055065 2.211829,3.891216 2.270419,3.735973 2.357054,3.561148 2.498127,3.276478 2.666145,3.047681 2.900403,2.821245 3.354421,2.382385 3.911291,2.113546 4.574587,2.012999 c 0.154416,-0.02341 0.550035,-0.03218 0.722801,-0.01602 0.527939,0.04936 1.016601,0.223065 1.440814,0.512163 0.615039,0.419145 1.014741,1.016623 1.14917,1.717793 0.03843,0.200423 0.04792,0.549224 0.02076,0.762611 C 7.848822,5.455541 7.650482,5.916537 7.34978,6.287326 6.739841,7.039432 5.758171,7.444147 4.743959,7.361635 Z M 6.009729,6.922324 C 6.122851,6.883404 6.201083,6.834024 6.289814,6.745518 6.524214,6.511726 6.578914,6.170257 6.430567,5.866852 6.338187,5.677901 6.150498,5.524425 5.95565,5.478494 5.87608,5.459734 5.712829,5.456994 5.640004,5.473194 5.290398,5.550944 5.041552,5.888077 5.063983,6.253574 c 0.01016,0.16556 0.07162,0.320303 0.179497,0.451957 0.08693,0.106085 0.250203,0.205944 0.388053,0.237331 0.103671,0.02361 0.277301,0.01418 0.378196,-0.02054 z M 4.239246,6.909404 C 4.441146,6.861804 4.622227,6.712796 4.717057,6.516213 4.793867,6.356982 4.814987,6.204617 4.783197,6.039102 4.704787,5.630961 4.326577,5.365896 3.934928,5.444605 3.576877,5.516565 3.328615,5.84461 3.347992,6.220169 c 0.01053,0.204035 0.07708,0.350884 0.225825,0.498257 0.101116,0.100185 0.185337,0.150942 0.309232,0.186366 0.08652,0.02474 0.261232,0.027 0.356201,0.0046 z M 5.153737,5.563863 C 5.243887,5.40395 5.322564,5.266558 5.328574,5.258544 c 0.009,-0.01198 0.07947,-0.0053 0.396519,0.03767 0.285464,0.03867 0.38419,0.04859 0.380197,0.03818 C 6.10229,5.326694 6.0058,5.196911 5.890794,5.04606 5.684245,4.775135 5.681939,4.771513 5.701826,4.749212 5.712896,4.736792 5.82374,4.61559 5.948141,4.479867 6.072542,4.344144 6.172967,4.231741 6.171309,4.230081 6.169609,4.228381 5.992352,4.237181 5.777314,4.249501 5.562275,4.261841 5.385202,4.270421 5.383815,4.268561 5.382415,4.266661 5.317975,4.121582 5.240581,3.946077 5.163191,3.770574 5.097257,3.629589 5.094068,3.632779 c -0.0032,0.0032 -0.08288,0.141855 -0.177096,0.308144 l -0.171298,0.302345 -0.03637,-0.0037 c -0.02,-0.0021 -0.193594,-0.02513 -0.385757,-0.05126 -0.192161,-0.02613 -0.351469,-0.04542 -0.354018,-0.04287 -0.004,0.004 0.105974,0.151856 0.363237,0.488381 l 0.06458,0.08448 -0.08221,0.09036 c -0.04521,0.0497 -0.156448,0.171177 -0.247188,0.269956 -0.09074,0.09878 -0.163844,0.180647 -0.162456,0.181927 0.0014,0.0013 0.159878,-0.0068 0.352199,-0.01799 0.192322,-0.01118 0.369412,-0.02051 0.393535,-0.02075 l 0.04386,-5e-4 0.140252,0.316893 c 0.07714,0.174292 0.143455,0.316781 0.147369,0.316646 0.0039,-1.88e-4 0.08087,-0.131084 0.171026,-0.290997 z M 7.120574,5.511273 C 7.371814,5.426933 7.551781,5.225533 7.611065,4.962372 7.707795,4.532966 7.409008,4.098922 6.985534,4.053674 6.677867,4.020804 6.392883,4.180318 6.257141,4.461388 6.127883,4.72903 6.156627,5.026903 6.334551,5.263591 c 0.09371,0.124665 0.264064,0.233683 0.42083,0.269312 0.104862,0.02383 0.256522,0.01485 0.365195,-0.02163 z m -3.881281,0.0095 C 3.558522,5.449933 3.791303,5.1704 3.812007,4.833026 3.834017,4.47439 3.591967,4.137018 3.255784,4.057762 c -0.08838,-0.02083 -0.246257,-0.02083 -0.334633,0 -0.201523,0.04751 -0.381354,0.195331 -0.47783,0.392776 -0.114455,0.234244 -0.105288,0.503592 0.02474,0.726917 0.05016,0.08614 0.173323,0.211419 0.255448,0.25982 0.156635,0.09231 0.341323,0.122212 0.515784,0.0835 z M 6.051043,4.062166 C 6.343449,4.021496 6.588431,3.798956 6.663585,3.505738 6.688105,3.410058 6.688215,3.227445 6.663773,3.13421 6.608633,2.923609 6.45601,2.732025 6.273757,2.644625 6.092649,2.557775 5.913328,2.545775 5.731566,2.608345 5.43272,2.711216 5.235658,2.994002 5.235658,3.319975 c 0,0.406297 0.303528,0.729524 0.706757,0.752625 0.01309,7.25e-4 0.06196,-0.0039 0.108596,-0.01043 z M 4.346573,3.970216 C 4.604266,3.920916 4.815368,3.730471 4.902603,3.468606 5.033812,3.074741 4.816343,2.643645 4.421604,2.515109 4.296714,2.474439 4.131444,2.474429 4.006134,2.515074 3.496878,2.680259 3.322342,3.311739 3.670074,3.730955 c 0.09001,0.108513 0.257338,0.207527 0.401854,0.23779 0.100325,0.02101 0.170567,0.02138 0.274645,0.0015 z"
     style="fill:#aa8800;fill-opacity:1;stroke:#c87137;stroke-width:0.01092735;stroke-opacity:0.02617804"
     inkscape:connector-curvature="0" />
  <path
     id="path883"
     d="M 4.838341,5.52206 4.697761,5.208247 4.428489,5.221797 c -0.1481,0.0075 -0.324445,0.01914 -0.391878,0.02597 l -0.122605,0.01242 0.06832,-0.0744 C 4.303438,4.8361 4.393282,4.733457 4.393282,4.716288 4.393282,4.705358 4.303042,4.579126 4.19275,4.435773 4.028737,4.222598 3.99985,4.173898 4.034126,4.168348 c 0.02305,-0.0037 0.191032,0.01392 0.373294,0.03922 0.387665,0.05382 0.321333,0.09032 0.534908,-0.29436 0.07998,-0.144061 0.148307,-0.261929 0.151831,-0.261929 0.0035,0 0.0697,0.141284 0.147051,0.313963 l 0.140647,0.313962 0.313789,-0.01391 c 0.172584,-0.0077 0.3489,-0.01942 0.391812,-0.02614 l 0.07802,-0.01223 -0.04708,0.05213 C 6.092508,4.307724 5.984668,4.426469 5.878761,4.542933 5.772855,4.659398 5.686205,4.762627 5.686205,4.772334 c 0,0.0097 0.09059,0.137613 0.201312,0.284238 0.17969,0.237959 0.19567,0.266593 0.148777,0.266593 -0.04484,0 -0.325219,-0.03493 -0.621795,-0.07746 L 5.332279,5.233915 5.161157,5.534897 C 5.067037,5.700439 4.987535,5.835882 4.98448,5.835882 c -0.0031,0 -0.06882,-0.141217 -0.146135,-0.313815 z"
     style="fill:#008000;fill-opacity:1;stroke:#c87137;stroke-width:0.0222918;stroke-opacity:0.02617804"
     inkscape:connector-curvature="0" />
</svg>
