<?xml version="1.0" encoding="UTF-8" standalone="no"?>
<svg
   xmlns:dc="http://purl.org/dc/elements/1.1/"
   xmlns:cc="http://creativecommons.org/ns#"
   xmlns:rdf="http://www.w3.org/1999/02/22-rdf-syntax-ns#"
   xmlns:svg="http://www.w3.org/2000/svg"
   xmlns="http://www.w3.org/2000/svg"
   xmlns:xlink="http://www.w3.org/1999/xlink"
   xmlns:sodipodi="http://sodipodi.sourceforge.net/DTD/sodipodi-0.dtd"
   xmlns:inkscape="http://www.inkscape.org/namespaces/inkscape"
   version="1.1"
   id="svg815"
   width="160"
   height="250"
   viewBox="0 0 160 250"
   sodipodi:docname="golds11.svg"
   inkscape:version="0.92.5 (2060ec1f9f, 2020-04-08)">
  <sodipodi:namedview
     pagecolor="#ffffff"
     bordercolor="#666666"
     borderopacity="1"
     objecttolerance="10"
     gridtolerance="10"
     guidetolerance="10"
     inkscape:pageopacity="0"
     inkscape:pageshadow="2"
     inkscape:window-width="1918"
     inkscape:window-height="1017"
     id="namedview10447"
     showgrid="false"
     inkscape:zoom="12.958352"
     inkscape:cx="58.030303"
     inkscape:cy="241.21212"
     inkscape:window-x="0"
     inkscape:window-y="0"
     inkscape:window-maximized="1"
     inkscape:current-layer="svg815" />
  <metadata
     id="metadata821">
    <rdf:RDF>
      <cc:Work
         rdf:about="">
        <dc:format>image/svg+xml</dc:format>
        <dc:type
           rdf:resource="http://purl.org/dc/dcmitype/StillImage" />
        <dc:title></dc:title>
      </cc:Work>
    </rdf:RDF>
  </metadata>
  <defs
     id="defs819">
    <linearGradient
       gradientUnits="userSpaceOnUse"
       y2="71.008263"
       x2="88.849586"
       y1="58.644627"
       x1="82.105782"
       id="linearGradient1063"
       xlink:href="#linearGradient882"
       gradientTransform="matrix(0.0625,0,0,0.0625,90.000002,-2.4462891e-7)" />
    <linearGradient
       id="linearGradient882">
      <stop
         style="stop-color:#d16208;stop-opacity:1"
         offset="0"
         id="stop878" />
      <stop
         style="stop-color:#d16250;stop-opacity:0;"
         offset="1"
         id="stop880" />
    </linearGradient>
    <linearGradient
       gradientUnits="userSpaceOnUse"
       y2="68.472336"
       x2="56.128345"
       y1="63.697319"
       x1="61.166279"
       id="linearGradient876"
       xlink:href="#linearGradient882"
       gradientTransform="matrix(0.0625,0,0,0.0625,90.000002,-2.4462891e-7)" />
    <linearGradient
       xlink:href="#linearGradient846"
       id="linearGradient848"
       x1="72.37397"
       y1="53.171356"
       x2="72.19931"
       y2="45.564011"
       gradientUnits="userSpaceOnUse"
       gradientTransform="matrix(0.0625,0,0,0.0625,110,-4.9804688e-7)" />
    <linearGradient
       id="linearGradient846">
      <stop
         style="stop-color:#423abf;stop-opacity:1;"
         offset="0"
         id="stop842" />
      <stop
         style="stop-color:#423abf;stop-opacity:0;"
         offset="1"
         id="stop844" />
    </linearGradient>
  </defs>
  <flowRoot
     style="font-style:normal;font-variant:normal;font-weight:bold;font-stretch:normal;font-size:1px;line-height:1.25;font-family:'DejaVu Sans';-inkscape-font-specification:'DejaVu Sans Bold';letter-spacing:0px;word-spacing:0px;fill:#000000;fill-opacity:1;stroke:none;stroke-width:0.0625"
     id="flowRoot100"
     xml:space="preserve"><flowRegion
       style="stroke-width:0.0625"
       id="flowRegion102"><rect
         style="stroke-width:0.00390625"
         y="0.73863637"
         x="0.66287881"
         height="1.3636364"
         width="1.5151515"
         id="rect104" /></flowRegion><flowPara
       style="stroke-width:0.0625"
       id="flowPara106" /></flowRoot>  <rect
     style="fill:#ffffff;fill-opacity:1;stroke:#1a1a1a;stroke-width:0.0625;stroke-opacity:1"
     id="golds11"
     width="10"
     height="15.625"
     x="-0.012714558"
     y="0" />
  <rect
     style="fill:none;fill-opacity:1;stroke:#1a1a1a;stroke-width:0.0625;stroke-opacity:1"
     id="rect108-22"
     width="7.2537889"
     height="12.973484"
     x="1.3319892"
     y="1.306818" />
  <g
     id="flowRoot915-2"
     style="font-style:normal;font-variant:normal;font-weight:bold;font-stretch:normal;font-size:16px;line-height:1.25;font-family:'DejaVu Sans';-inkscape-font-specification:'DejaVu Sans Bold';text-align:start;letter-spacing:0px;word-spacing:0px;text-anchor:start;fill:#000000;fill-opacity:1;stroke:none"
     transform="matrix(0.0625,0,0,0.0625,0.17668544,4.6093749e-7)"
     aria-label="11">
    <path
       id="path3685"
       d="M 4.90625,16.623047 H 7.5625 V 9.0839844 l -2.7265625,0.5625 v -2.046875 l 2.7109375,-0.5625 h 2.859375 v 9.5859376 h 2.65625 v 2.078125 H 4.90625 Z"
       inkscape:connector-curvature="0" />
    <path
       id="path3687"
       d="m 16.039062,16.623047 h 2.65625 V 9.0839844 l -2.726562,0.5625 v -2.046875 l 2.710937,-0.5625 h 2.859375 v 9.5859376 h 2.65625 v 2.078125 h -8.15625 z"
       inkscape:connector-curvature="0" />
  </g>
  <path
     style="fill:#df6a64;fill-opacity:1;stroke:#000000;stroke-width:0.05652938;stroke-opacity:0"
     d="m 3.1683554,4.4970405 -0.0989,-0.02579 -0.10745,-0.06017 v -0.06017 l 0.0215,-0.116049 0.0473,-0.06877 0.15903,-0.08166 0.12464,-0.08166 0.10316,-0.06447 0.0731,-0.02579 0.0817,-0.03438 0.0473,-0.05588 0.0688,-0.07307 0.043,-0.06447 0.086,-0.06877 0.11175,-0.07737 0.0946,-0.06447 0.10745,-0.03868 0.12894,-0.04298 h 0.12895 l 0.15473,0.0043 0.12464,0.05588 0.10746,0.03439 0.0473,0.05158 0.10745,0.103154 0.043,0.06447 0.0387,0.141838 -0.0172,0.111751 -0.0473,0.05588 -0.0559,0.05588 -0.086,0.03439 -0.0731,0.02149 h -0.0516 l -0.0559,-0.06017 -0.0473,-0.09026 -0.086,-0.09886 -0.10745,-0.03009 h -0.12894 l -0.21061,-0.0043 -0.13324,0.04728 -0.13324,0.107452 -0.0387,0.03009 -0.0602,0.04728 -0.10745,0.103155 -0.10316,0.08166 -0.0602,0.06877 -0.0817,0.06447 -0.0602,0.06017 z"
     id="path879-0"
     inkscape:connector-curvature="0" />
  <path
     style="fill:#659c5e;fill-opacity:1;stroke:#bc0033;stroke-width:0.05652938;stroke-opacity:0.38219898"
     d="m 3.5723754,3.8781145 -0.0903,-0.08596 -0.0903,-0.04298 -0.11605,-0.08166 -0.12465,-0.02149 -0.17192,0.03009 -0.009,0.05588 -0.0645,0.06877 -0.0988,0.01719 -0.16763,0.0043 -0.0731,-0.03868 -0.0903,-0.06017 -0.0688,-0.04728 -0.0172,-0.116049 0.004,-0.103154 0.0903,-0.09456 0.0645,-0.09456 0.12464,-0.06877 0.086,-0.06447 0.13754,-0.05158 h 0.16332 l 0.11605,0.01289 0.13754,0.07307 0.10745,0.05587 0.10316,0.06877 0.0688,0.09456 0.0172,0.06017 0.12894,-0.04728 0.0946,-0.04298 0.0989,-0.06447 0.10315,-0.01719 0.0903,0.01719 0.0516,0.02149 0.0817,0.07737 -0.23639,0.08166 -0.20631,0.141837 -0.12894,0.133242 z"
     id="path889"
     inkscape:connector-curvature="0" />
  <path
     style="fill:#deb392;fill-opacity:0.66492148;stroke:#000000;stroke-width:0.05652938;stroke-opacity:0"
     d="m 4.0451654,3.8437295 -0.13324,0.04728 -0.14184,0.11175 -0.004,0.176223 0.0129,0.210607 -0.009,0.124645 0.0129,0.09026 0.0258,0.07737 0.0774,0.01289 0.0301,0.03439 0.0301,0.03439 -0.0172,0.03868 v 0.07307 l 0.0688,0.04298 0.12035,0.0086 0.11605,0.01719 0.10745,-0.01289 0.0903,-0.02149 0.0301,-0.02149 0.004,-0.05588 -0.0172,-0.03868 0.0301,-0.01719 0.086,-0.03439 0.0129,-0.08166 -0.009,-0.103154 0.009,-0.03439 0.0258,-0.05588 0.0129,-0.07737 -0.0129,-0.06017 -0.0301,-0.05588 -0.0172,-0.05158 v -0.06017 -0.09456 -0.04728 l 0.0215,-0.04298 -0.086,-0.09886 -0.10745,-0.03009 z"
     id="path907"
     inkscape:connector-curvature="0" />
  <path
     style="fill:#3c3833;fill-opacity:1;stroke:#000000;stroke-width:0.05652938;stroke-opacity:0"
     d="m 3.9677954,4.0457405 0.0688,-0.03439 h 0.0903 l 0.0731,0.02149"
     id="path909"
     inkscape:connector-curvature="0" />
  <path
     style="fill:#3c3833;fill-opacity:1;stroke:#000000;stroke-width:0.05652938;stroke-opacity:0"
     d="m 4.3374354,4.0371435 0.0344,-0.03868 0.12035,-0.0043"
     id="path911"
     inkscape:connector-curvature="0" />
  <path
     style="fill:#cba483;fill-opacity:1;stroke:#000000;stroke-width:0.05652938;stroke-opacity:0"
     d="m 3.9720954,4.1360005 0.0903,-0.03439 h 0.0516 l 0.043,0.0086 0.0215,0.01719 -0.0301,0.02149 -0.0602,0.0043 h -0.0516 z"
     id="path913"
     inkscape:connector-curvature="0" />
  <path
     style="fill:#cba483;fill-opacity:1;stroke:#000000;stroke-width:0.05652938;stroke-opacity:0"
     d="m 4.4019054,4.1488945 0.0473,0.0043 0.0387,-0.0043 0.043,-0.02149 0.0129,-0.02579 -0.0774,-0.01719 -0.0688,0.0043 -0.0473,0.03009 z"
     id="path915"
     inkscape:connector-curvature="0" />
  <path
     style="fill:#f0bf92;fill-opacity:0.6701571;stroke:#000000;stroke-width:0.05652938;stroke-opacity:0"
     d="m 4.2686654,4.0973175 0.0172,0.07737 0.0387,0.02579 0.0215,0.03009 0.0473,0.06877 v 0.03868 l -0.0645,0.02579 -0.0645,-0.02579 -0.0473,-0.0043 0.004,-0.03009"
     id="path917"
     inkscape:connector-curvature="0" />
  <path
     style="fill:#f0bf92;fill-opacity:0.6701571;stroke:#000000;stroke-width:0.05652938;stroke-opacity:0"
     d="m 4.0709554,4.5400215 0.0817,-0.0043 0.0688,-0.05588 0.043,-0.01719 0.0559,-0.0043 h 0.0731 l 0.0258,0.02149 0.0387,0.02579 0.0301,0.02149 h 0.0301"
     id="path919"
     inkscape:connector-curvature="0" />
  <path
     style="fill:#3c3833;fill-opacity:1;stroke:#000000;stroke-width:0.05652938;stroke-opacity:0"
     d="m 3.7700854,4.5142335 -0.13324,-0.02579 -0.0516,0.03439 -0.0559,0.02579 -0.11175,-0.02149 -0.13325,-0.02579 -0.11604,-0.0043 0.15903,-0.103154 0.0817,-0.06447 0.0602,-0.06877 0.10316,-0.08166 0.10745,-0.103155 0.0903,-0.07307 -0.004,0.176223 0.0172,0.141837 -0.004,0.06877 z"
     id="path921"
     inkscape:connector-curvature="0" />
  <path
     style="fill:#3c3833;fill-opacity:1;stroke:#000000;stroke-width:0.05652938;stroke-opacity:0"
     d="m 4.5480454,4.6173875 -0.0688,0.15903 -0.0172,0.11175 0.15044,-0.01289 0.15903,0.08166 0.12464,-0.01289 0.13324,-0.05158 0.10746,-0.06877 0.0387,-0.120347 -0.0559,-0.137539 -0.19771,-0.107453 -0.0989,-0.167626 -0.0172,-0.184818 -0.12464,0.02149 -0.0559,-0.06017 -0.0473,-0.09026 -0.0215,0.04298 -0.009,0.15903 0.009,0.04298 0.0172,0.05158 0.0301,0.05588 0.0129,0.06017 -0.0129,0.07737 z"
     id="path923"
     inkscape:connector-curvature="0" />
  <path
     style="fill:#df6a64;fill-opacity:1;stroke:#bc0033;stroke-width:0.05652938;stroke-opacity:0.38219898"
     d="m 3.5293954,4.5486175 -0.0688,0.06017 -0.0602,0.03438 -0.0516,0.01719 -0.0344,0.03009 -0.0344,0.03439 -0.0387,0.03868 v 0.05588 0.111751 l 0.0387,0.06877 0.0946,-0.0043 0.15044,-0.06017 0.0903,-0.03009 0.10315,-0.04298 0.0645,-0.01289 h 0.0473 l 0.043,0.0043 0.0559,0.02149 0.0172,-0.11175 -0.0602,-0.06877 -0.0774,-0.01289 -0.0258,-0.07737 -0.0129,-0.09026 -0.0903,-0.04728 -0.043,0.02149 z"
     id="path925"
     inkscape:connector-curvature="0" />
  <path
     style="fill:#659c5e;fill-opacity:1;stroke:#bc0033;stroke-width:0.05652938;stroke-opacity:0.38219898"
     d="m 3.3746554,4.9956205 0.034,0.05338 0.0698,0.01329 0.0831,0.02658 0.003,0.06644 0.0133,0.06644 0.0731,0.08638 0.0764,0.06977 0.0897,0.0897 0.11295,0.09967 0.0598,0.0299 0.12625,0.01993 0.0698,-0.03654 0.0831,-0.05316 0.0465,-0.0598 0.0332,-0.04983 0.0332,-0.05648 0.0166,-0.05648 0.0299,-0.03987 0.0299,-0.01329 0.0498,0.01 0.0864,0.0299 0.093,0.03987 0.0864,0.03322 0.0698,0.01 h 0.0764 l 0.0764,-0.0299 0.0897,-0.09967 0.0432,-0.04651 0.0199,-0.05648 0.0233,-0.0598 0.0232,-0.03987 0.0498,-0.0299 0.10298,-0.0299 0.0797,0.01329 0.0764,0.01 -0.0266,-0.05648 -0.0997,-0.04319 -0.0997,-0.03987 -0.14221,-0.04259 v 0 l -0.10746,0.06877 -0.13324,0.05158 -0.12464,0.01289 -0.15903,-0.08166 -0.15044,0.01289 -0.0301,0.02149 -0.0903,0.02149 -0.10745,0.01289 -0.11605,-0.01719 -0.12035,-0.0086 -0.12465,-0.06447 -0.0903,-0.0043 -0.0645,0.01289 -0.10315,0.04298 z"
     id="path927-5"
     inkscape:connector-curvature="0" />
  <path
     style="fill:#eac86e;fill-opacity:1;stroke:#bc0033;stroke-width:0.05652938;stroke-opacity:0.38219898"
     d="m 3.3746554,4.9956205 -0.0946,0.0043 -0.0606,0.03642 -0.12625,0.03551 -0.0986,0.04734 -0.11836,0.04734 -0.0552,0.05918 -0.0868,0.09863 -0.0907,0.09863 -0.071,0.118353 -0.0276,0.130189 -0.008,0.118354 0.0316,0.0789 0.0434,0.09468 -0.0197,0.06312 v 0.04734 l 0.13808,0.01973 0.0671,-0.01184 h 0.11046 0.0868 l 0.0671,0.03156 0.071,0.05129 0.0552,0.0434 0.071,0.06312 0.0395,0.04734 0.0355,-0.06707 v -0.06707 l -0.008,-0.07496 -0.0118,-0.08679 0.0355,-0.04734 0.0789,-0.0079 0.075,-0.0434 0.12624,-0.05129 0.0473,-0.04734 0.0434,-0.01183 h 0.0395 l 0.008,-0.102573 0.0552,-0.05918 0.008,-0.05523 -0.0118,-0.09074 -0.24107,-0.284049 -0.0133,-0.06644 -0.003,-0.06644 -0.0831,-0.02658 -0.0698,-0.01329 z"
     id="path929-5"
     inkscape:connector-curvature="0" />
  <path
     style="fill:#d5635e;fill-opacity:1;stroke:#bc0033;stroke-width:0.05652938;stroke-opacity:0.38219898"
     d="m 2.5922554,6.0739045 -0.0316,0.122298 -0.0592,0.126244 -0.0158,0.08285 v 0.173586 l -0.008,0.110463 0.0316,0.09074 0.16176,0.07496 0.14202,0.07101 0.11046,0.05918 0.0947,0.02367 0.071,0.05523 0.0355,-0.01184 -0.0158,-0.0789 0.0118,-0.09468 0.0197,-0.07101 0.0592,-0.07101 0.0434,-0.02367 0.0671,-0.01973 0.0394,-0.01578 0.0434,-0.02761 0.0513,-0.02762 0.0197,-0.06312 -0.0947,-0.0789 -0.1223,-0.02367 -0.0355,-0.05918 0.008,-0.0434 v -0.07101 l 0.0395,-0.01183 -0.26432,-0.189366 -0.26433,0.01183 z"
     id="path931"
     inkscape:connector-curvature="0" />
  <path
     style="fill:#ecc771;fill-opacity:1;stroke:#bc0033;stroke-width:0.05652938;stroke-opacity:0.38219898"
     d="m 3.1248554,7.0522935 0.0789,0.0079 0.11046,-0.01184 0.0868,0.01184 0.0868,-0.01184 h 0.0986 0.0671 l 0.0316,0.01578 0.071,0.0434 0.0434,-0.0079 0.008,-0.0789 -0.0237,-0.03156 -0.0355,-0.118353 0.008,-0.134135 v -0.05918 l 0.0474,-0.0434 -0.0631,-0.03156 -0.11046,0.02367 -0.071,-0.0079 -0.0631,-0.02367 -0.0316,-0.03551 -0.071,0.09074 -0.14991,0.06312 -0.10257,0.09468 -0.0316,0.165695 z"
     id="path933"
     inkscape:connector-curvature="0" />
  <path
     style="fill:#eac86e;fill-opacity:1;stroke:#bc0033;stroke-width:0.05652938;stroke-opacity:0.13089007"
     d="m 5.5050054,5.0058155 0.0394,0.06196 0.0477,0.01362 0.0579,0.108969 v 0.09535 0.07151 l 0.0375,0.08173 0.0204,0.0647 -0.0409,0.09875 -0.0749,0.0647 -0.0545,0.03746 -0.0306,0.03405 -0.0443,-0.02043 -0.0715,-0.05448 -0.0953,-0.108969 -0.0613,-0.06129 -0.0477,-0.09535 -0.0443,-0.0681 -0.0136,-0.06811 6.7e-4,-0.06337 0.0664,-0.156144 0.0498,-0.0299 0.10299,-0.0299 z"
     id="path935"
     inkscape:connector-curvature="0" />
  <path
     style="fill:#dfba9b;fill-opacity:1;stroke:#bc0033;stroke-width:0.05652938;stroke-opacity:0.13089007"
     d="m 3.8034154,6.6341105 0.10643,0.03414 h 0.0409 l 0.0545,-0.02384 0.0749,-0.01022 h 0.0613 0.0613 l 0.0715,0.02384 0.0273,0.01022 0.0443,0.05448 0.0306,0.05448 v 0.04767 l -0.003,0.04767 -0.017,0.05448 -0.0102,0.03065 -0.034,0.04086 -0.11237,0.02384 -0.126,0.01022 -0.13621,0.0068 -0.0715,0.01022 -0.0661,0.05 0.008,-0.0789 -0.0592,-0.149914 0.008,-0.193312 z"
     id="path937"
     inkscape:connector-curvature="0" />
  <path
     style="fill:#dfba9b;fill-opacity:1;stroke:#bc0033;stroke-width:0.05652938;stroke-opacity:0.13089007"
     d="m 5.1357354,6.3753945 -0.13961,-0.01362 -0.0919,0.01362 -0.11578,0.02043 -0.0443,0.03405 -0.0681,0.05789 0.017,0.07492 0.0102,0.102158 v 0.03746 l 0.0409,0.03746 0.0545,0.02724 0.11238,-0.01362 0.0681,-0.02043 0.0545,-0.01362 0.0715,-0.05789 0.0409,-0.06811 0.0102,-0.08513 v -0.05448 l 0.0136,-0.05789 z"
     id="path939"
     inkscape:connector-curvature="0" />
  <path
     style="fill:#d5635e;fill-opacity:1;stroke:#bc0033;stroke-width:0.05652938;stroke-opacity:0.13089007"
     d="m 3.3142154,6.0226175 0.0916,0.162082 0.0715,0.156642 0.0511,0.0613 0.0443,0.05108 0.0919,0.07491 0.0756,0.07392 0.16956,0.0657 0.0953,-0.02384 0.0749,-0.01022 h 0.12259 l 0.0988,0.03405 0.0749,0.108969 v 0.04767 l -0.003,0.04767 -0.0272,0.08513 -0.034,0.04086 -0.11237,0.02384 -0.11238,0.01703 h -0.14983 l -0.0715,0.01022 -0.0661,0.05 v 0 l -0.0395,0.04875 -0.11578,-0.0647 -0.034,0.05108 -0.0272,0.07492 -0.0409,0.07151 -0.0272,0.03746 -0.0238,0.08513 0.007,0.05448 0.0613,0.0034 0.15664,-0.02043 0.13281,-0.02384 0.19069,-0.02724 0.14643,-0.02043 0.12259,-0.02043 0.0919,-0.03065 0.0987,-0.04767 0.0681,-0.04427 0.0919,-0.04086 0.0375,-0.04767 0.0579,-0.06129 0.0443,-0.07832 0.0409,-0.0647 0.0272,-0.04427 0.0204,-0.0613 0.0238,-0.07491 -0.11238,0.01362 -0.0953,-0.0647 v -0.03746 l -0.0102,-0.102157 -0.017,-0.07492 0.11238,-0.09194 0.20772,-0.03405 0.13961,0.01362 0.0341,0.02043 0.0443,-0.09194 0.0545,-0.09194 0.034,-0.08854 0.0409,-0.07491 0.0238,-0.0613 0.0102,-0.05108 0.0204,-0.05108 0.0272,-0.06129 0.0272,-0.03405 0.0545,-0.05108 -0.11578,-0.07492 -0.15664,-0.170263 -0.0477,-0.09535 -0.0443,-0.06811 -0.0136,-0.06811 6.7e-4,-0.06337 -0.13289,0.146177 -0.0764,0.0299 h -0.0764 l -0.24917,-0.08306 -0.0864,-0.0299 -0.0498,-0.01 -0.0598,0.05316 -0.0166,0.05648 -0.0664,0.10631 -0.0465,0.0598 -0.0831,0.05315 -0.0698,0.03654 -0.12624,-0.01993 -0.0598,-0.0299 -0.0783,-0.03978 -0.0328,-0.02168 0.0118,0.09074 -0.008,0.05523 -0.0552,0.05918 -0.008,0.102573 -0.0828,0.01183 -0.0473,0.04734 -0.12624,0.05129 -0.075,0.0434 -0.0789,0.0079 z"
     id="path941"
     inkscape:connector-curvature="0" />
  <path
     style="fill:#71ada3;fill-opacity:1;stroke:#bc0033;stroke-width:0.05652938;stroke-opacity:0.13089007"
     d="m 3.4978054,7.4582665 -0.0127,0.134715 0.003,0.114928 v 0.06167 l 0.028,0.06447 0.0364,0.0897 0.0533,0.08409 0.0813,0.05326 0.12053,0.05045 0.12334,0.07008 0.11213,0.05886 0.12614,0.08129 0.10091,0.08409 0.0476,0.06167 0.0897,0.106518 0.0701,0.07008 0.0533,0.06167 0.0196,0.04205 0.014,0.01962 0.0365,0.03644 0.0532,0.112125 0.0112,0.04765 0.0168,0.07008 0.0168,0.05606 0.0364,0.04765 0.0813,0.02242 0.14016,0.0084 0.14016,-0.0084 0.0841,-0.03924 0.12053,-0.06728 0.0336,-0.05045 0.0168,-0.06447 -0.0112,-0.07288 0.0388,0.01115 -0.009,-0.03245 -0.0186,-0.045 -0.009,-0.04813 -0.0232,-0.04005 -0.011,-0.03592 -0.0135,-0.04286 -0.002,-0.04599 -0.01,-0.08081 -0.0217,-0.09321 0.006,-0.07653 -0.003,-0.169122 -0.0756,-0.06071 -0.11212,-0.100911 -0.0645,-0.07849 -0.0645,-0.07849 -0.0701,-0.06447 -0.0448,-0.07008 -0.0336,-0.03364 -0.0196,-0.08129 v -0.09531 -0.08409 l 0.0196,-0.120533 0.0168,-0.13455 0.0112,-0.07008 0.0673,-0.0056 0.014,-0.08409 v -0.100912 l 0.002,-0.150038 -0.0443,0.136208 -0.11238,0.187289 -0.0953,0.108968 -0.0919,0.04086 -0.0681,0.04427 -0.0987,0.04767 -0.092,0.03065 z"
     id="path943"
     inkscape:connector-curvature="0" />
  <path
     style="fill:#d5635e;fill-opacity:1;stroke:#bc0033;stroke-width:0.05652938;stroke-opacity:0.13089007"
     d="m 4.7352854,9.1374955 0.004,0.08158 v 0.106601 0.0972 l 0.0188,0.09719 0.0408,0.10033 0.10033,0.08779 0.0752,0.10033 0.0596,0.112872 0.0188,0.07525 0.0564,0.1066015 0.0219,0.116006 0.006,0.163038 0.009,0.125413 0.0972,0.02822 0.11288,-0.02508 0.10346,0.0031 0.1066,-0.0063 0.0784,-0.06271 0.0219,-0.04076 0.0157,-0.03135 -0.0627,-0.06584 -0.0439,-0.01881 -0.0502,-0.02508 -0.0345,-0.03762 -0.009,-0.07211 v -0.112872 l -0.0188,-0.1128715 -0.009,-0.09719 -0.0251,-0.05957 -0.0251,-0.103465 0.0188,-0.153632 v -0.122278 -0.122278 -0.109737 l -0.0282,-0.09406 -0.0422,-0.126971 -0.0168,0.06447 -0.15417,0.11773 -0.0841,0.03924 -0.17301,0.009 -0.10731,-0.009 z"
     id="path945"
     inkscape:connector-curvature="0" />
  <path
     style="fill:#6a9e61;fill-opacity:1;stroke:#bc0033;stroke-width:0.05652938;stroke-opacity:0.13089007"
     d="m 5.1464954,10.507697 -0.009,0.06271 0.009,0.06271 0.0533,0.09406 0.0596,0.04703 0.0909,-0.0094 h 0.13795 l 0.10974,0.0063 0.10346,-0.0031 h 0.12228 0.0533 l -0.006,-0.05644 -0.0157,-0.05957 -0.0188,-0.04703 -0.0188,-0.05644 0.009,-0.04076 v -0.07211 l 0.0188,-0.03135 0.0251,-0.03449 -0.0282,-0.02822 -0.13482,0.0063 -0.0251,0.02508 -0.0376,0.07211 -0.0784,0.06271 -0.21006,0.0031 -0.11287,0.02508 z"
     id="path947"
     inkscape:connector-curvature="0" />
  <path
     style="fill:#6a9e61;fill-opacity:1;stroke:#bc0033;stroke-width:0.05652938;stroke-opacity:0.13089007"
     d="m 5.9898954,10.376013 0.0596,-0.0063 0.0533,0.01881 0.0314,0.03449 0.0314,0.05644 0.0439,0.03135 0.0533,0.0063 h 0.0721 l 0.0282,0.0031 0.0282,0.04076 -0.0188,0.05016 -0.0345,0.05644 -0.0345,0.02508 -0.0596,0.02195 -0.069,0.0094 -0.0251,0.01254 -0.0282,0.01881 h -0.0533 -0.0408 l -0.047,-0.07525 -0.0408,-0.09093 -0.009,-0.05016 v -0.03449 l 0.009,-0.0533 0.0157,-0.03135 z"
     id="path949-2"
     inkscape:connector-curvature="0" />
  <path
     style="fill:#eac86e;fill-opacity:0.45026179;stroke:#bc0033;stroke-width:0.05652938;stroke-opacity:0.13089007"
     d="m 7.7952854,5.8045985 0.0209,0.258758 -0.0584,0.08764 -0.0292,0.0626 -0.008,0.100165 v 0.112685 0.179461 l 0.008,0.166941 v 0.158594 0.104338 l 0.004,0.137726 -0.0292,0.07095 -0.11686,0.07512 -0.10851,0.03756 -0.0876,0.02504 -0.0835,0.0083 -0.0584,-0.04174 -0.12938,-0.09182 v -0.05426 l -0.008,-0.07095 v -0.05843 l -0.0125,-0.141899 -0.0334,-0.0626 -0.0501,-0.05843 -0.0668,-0.09182 -0.0751,-0.104338 -0.0626,-0.100164 -0.0835,-0.05843 -0.0835,-0.04174 h -0.0209 l -0.004,0.100165 v 0.200329 l 0.0543,0.1419 0.0459,0.100164 0.0626,0.108512 0.0167,0.05008 -0.0167,0.04174 -0.0793,0.03756 -0.12938,0.07095 -0.21702,0.01669 -0.17111,0.0042 -0.26711,-0.0083 -0.18364,-0.01669 -0.14607,-0.05843 -0.0125,-0.150247 0.0584,-0.01669 -0.0417,-0.196155 h 0.0751 l 0.0751,0.07512 0.071,-0.112685 -0.0292,-0.09599 0.0918,-0.07095 0.0125,-0.07095 0.0501,-0.0626 0.025,-0.150246 0.13772,-0.05843 0.0668,0.0793 0.0709,-0.229544 0.0793,0.01669 0.0334,0.08764 0.11268,-0.0626 0.0125,-0.162767 0.0334,-0.09182 0.0459,-0.125206 0.0668,0.09182 0.0626,0.121033 0.0835,-0.112686 0.008,-0.129379 0.0459,-0.100164 0.0543,-0.04591 0.0793,-0.04174 0.0918,-0.01669 0.13773,-0.02087 h 0.0793 l 0.0209,-0.0083 -0.004,-0.112685 0.0125,-0.171114 v -0.116857 -0.0793 l 0.0376,-0.06678 0.0918,-0.162767 0.0709,0.05008 0.0501,0.09182 0.0334,0.09599 -0.008,0.183635 -0.0125,0.116859 v 0.04591 l -0.008,0.100165 -0.004,0.04174 -0.004,0.05008 0.008,0.08764 0.0543,0.04174 0.0751,0.05008 z"
     id="path951"
     inkscape:connector-curvature="0" />
  <path
     style="fill:#80e5ff;fill-opacity:1;stroke:#bc0033;stroke-width:0.05652938;stroke-opacity:0.13089007"
     d="m 7.5573954,6.0633565 0.004,0.08347 -0.0125,0.07095 -0.0417,0.03756 -0.0709,-0.04174 -0.0584,-0.06678 0.0167,-0.05008 0.0417,-0.03339 z"
     id="path953"
     inkscape:connector-curvature="0" />
  <path
     style="fill:#eac86e;fill-opacity:0.45026179;stroke:#bc0033;stroke-width:0.05652938;stroke-opacity:0.13089007"
     d="m 7.3069854,7.3905355 0.0376,-0.1419 0.0376,-0.208676 0.0417,-0.0083 -0.0334,0.350576 z"
     id="path955"
     inkscape:connector-curvature="0" />
  <path
     style="fill:#659c5e;fill-opacity:1;stroke:#bc0033;stroke-width:0.05652938;stroke-opacity:0.13089007"
     d="m 7.2861154,5.5416645 0.24207,0.0042 0.0209,0.150247 -0.36727,0.02087 0.004,-0.166942 z"
     id="path957-9"
     inkscape:connector-curvature="0" />
  <path
     style="fill:#659c5e;fill-opacity:1;stroke:#bc0033;stroke-width:0.05652938;stroke-opacity:0.13089007"
     d="m 6.9355454,5.7879045 h 0.15442 l 0.008,0.104338 -0.0251,0.06678 v 0.321361 0.06678 l 0.0251,0.04174 0.0125,0.08764 v 0.100164 0.02922 l -0.1586,-0.0083 -0.0167,-0.187808 v -0.116858 -0.12938 l 0.008,-0.258758 z"
     id="path959-0"
     inkscape:connector-curvature="0" />
  <path
     style="fill:#659c5e;fill-opacity:1;stroke:#bc0033;stroke-width:0.05652938;stroke-opacity:0.13089007"
     d="m 7.1734354,6.6393015 0.004,0.121032 h 0.53004 l 0.0125,-0.121032 z"
     id="path961"
     inkscape:connector-curvature="0" />
  <path
     style="fill:#ff5555;fill-opacity:1;stroke:#bc0033;stroke-width:0.05652938;stroke-opacity:0.13089007"
     d="m 5.5874954,7.2027255 -0.30467,-0.146072 -0.1878,-0.146073 -0.0614,-0.191255 0.0715,-0.05789 0.0409,-0.06811 0.0102,-0.139615 0.0136,-0.05789 0.0443,-0.09194 0.0885,-0.180479 0.0409,-0.07491 0.0341,-0.112374 0.0749,-0.146426 0.13962,-0.122587 0.21247,-0.19221 0.0835,-0.04174 0.10016,-0.09182 0.10434,-0.08764 0.0876,-0.04591 h 0.0668 l 0.11268,-0.04174 0.0668,-0.02922 0.0918,-0.01669 0.0835,-0.01252 0.13355,-0.0083 h 0.10016 0.12521 l 0.10016,0.01252 0.0292,0.0083 0.0751,0.04591 0.0751,-0.0083 0.0543,-0.09599 -0.008,0.479953 -0.10016,0.0083 -0.17946,0.02922 -0.18364,0.09599 -0.0584,0.158595 0.004,0.07095 -0.0835,0.112685 -0.0626,-0.121032 -0.0668,-0.09182 -0.0793,0.217023 -0.0125,0.162767 -0.11269,0.0626 -0.0334,-0.08764 -0.0793,-0.01669 -0.0709,0.229544 -0.0668,-0.0793 -0.13773,0.05843 -0.025,0.150246 -0.0501,0.0626 -0.0125,0.07095 -0.0918,0.07095 0.0292,0.09599 -0.071,0.112685 -0.0751,-0.07512 h -0.0751 l 0.0417,0.196155 -0.0584,0.01669 z"
     id="path963-2"
     inkscape:connector-curvature="0" />
  <path
     style="fill:#ff5555;fill-opacity:1;stroke:#bc0033;stroke-width:0.05652938;stroke-opacity:0.13089007"
     d="m 7.5490554,5.6960865 0.0543,0.04173 0.0751,0.05008 0.11685,0.01669 0.0501,-0.01252 0.0542,0.0042 0.0417,0.02504 0.025,0.06678 0.0125,0.104338 -0.0125,0.0793 -0.004,0.0793 0.0751,-0.03756 0.0376,-0.08347 0.008,-0.1419 0.0125,-0.116858 -0.0167,-0.08764 -0.0417,-0.100165 -0.0125,-0.01669 -0.10851,-0.02087 -0.0376,-0.08764 0.0167,-0.100165 0.008,-0.08347 -0.0417,-0.04591 v -0.09182 l -0.004,-0.04173 -0.0167,-0.108512 -0.004,-0.04591 -0.0835,0.03756 -0.025,0.04591 -0.0543,0.0793 -0.0334,0.03756 -0.025,0.0083 -0.0876,0.396485 z"
     id="path965-8"
     inkscape:connector-curvature="0" />
  <path
     style="fill:#aa0000;fill-opacity:0.46073303;stroke:#bc0033;stroke-width:0.05652938;stroke-opacity:0.13089007"
     d="m 5.0335854,6.7193255 -0.12259,0.03405 -0.0159,0.335042 0.0746,0.135008 0.12699,0.132763 0.0808,0.115447 0.1674,0.150081 0.11545,0.138536 0.11544,0.05195 0.12699,0.08658 0.20203,0.05195 0.10391,0.01732 0.1443,0.02886 0.1674,-0.0058 0.15008,-0.01732 0.075,-0.04618 0.13277,-0.132764 0.0289,-0.05195 0.0173,-0.17317 -0.0173,-0.09813 0.0866,-0.04041 0.0231,-0.08081 0.0462,-0.0635 0.19626,-0.0635 0.0515,-0.09165 -0.0125,-0.200329 -0.30049,0.183635 -0.22537,0.150246 -0.22892,0.02159 h -0.45601 l -0.15395,-0.02577 -0.14607,-0.05843 -0.30467,-0.146071 -0.1878,-0.146073 z"
     id="path967-3"
     inkscape:connector-curvature="0" />
  <path
     style="fill:#aa0000;fill-opacity:0.46073303;stroke:#bc0033;stroke-width:0.05652938;stroke-opacity:0.13089007"
     d="m 4.8950654,7.0884205 0.0458,0.325495 0.0289,0.115446 0.12699,0.167397 0.21357,0.253983 0.15586,0.150081 0.0693,0.167397 0.0808,0.196259 0.0173,0.150082 -0.0173,0.184714 -0.052,0.05772 -0.0577,0.138536 -0.17138,0.0074 0.006,-0.137353 0.12537,-0.03746 0.006,-0.09236 0.0173,-0.103902 v -0.132763 l -0.0346,-0.126992 -0.0577,-0.09813 -0.13189,-0.107329 -0.46521,-0.486785 -0.0196,-0.08129 v -0.1794 l 0.0476,-0.32516 z"
     id="path971-8"
     inkscape:connector-curvature="0" />
  <path
     style="fill:#aa0000;fill-opacity:0.46073303;stroke:#bc0033;stroke-width:0.05652938;stroke-opacity:0.13089007"
     d="m 3.8074654,8.1115565 -0.0673,0.08162 -0.0289,0.132763 -0.0346,0.190487 0.0115,0.109674 v 0.126991 l 0.052,0.282844 0.0173,0.121219 0.0289,0.115447 0.10967,0.05195 0.17895,-0.0635 0.2713,-0.05772 0.10967,-0.0635 0.075,-0.01732 0.16783,-0.03268 -0.0448,-0.173792 -0.0897,-0.148565 -0.15697,-0.193415 -0.13735,-0.168187 -0.22705,-0.165383 z"
     id="path973-0"
     inkscape:connector-curvature="0" />
  <path
     style="fill:#e9c774;fill-opacity:0.6701571;stroke:#bc0033;stroke-width:0.05652938;stroke-opacity:0.13089007"
     d="m 6.8630354,7.2869235 0.0577,0.109675 0.13854,0.07504 0.0231,0.17317 0.0519,0.126991 v 0.196259 0.115447 l 0.052,0.155853 0.0231,0.132763 0.0289,0.109675 v 0.167397 0.06927 0.126992 0.06927 0.08658 l 0.42138,-0.01154 0.0866,-0.08081 0.0924,0.01154 0.0981,0.01732 0.0693,0.06927 0.0173,0.05772 0.052,0.03463 0.0693,0.01732 0.0404,0.05772 v 0.138536 l -0.052,0.05195 0.006,0.132764 0.006,0.126991 0.0289,0.06927 v 0.150081 0.138535 l 0.0173,0.1096745 0.0693,0.126991 0.0173,0.150081 -0.052,0.190487 -0.0693,0.15008 -0.0635,0.09236 -0.0346,0.138535 -0.0693,0.138536 -0.0462,0.115447 -0.0981,0.09813 -0.0808,-0.150081 -0.0577,-0.115447 -0.0289,-0.08659 v -0.126991 -0.09236 l 0.0462,-0.09236 0.0866,-0.07504 0.0693,-0.01732 0.0981,-0.109674 v -0.103902 l -0.0231,-0.121219 0.006,-0.0635 V 9.9595125 9.8267485 l -0.006,-0.190486 -0.0462,-0.109674 -0.0346,-0.150082 -0.0462,-0.08081 -0.11545,-0.08081 -0.0231,0.103901 -0.12122,0.109675 -0.075,0.04041 -0.0635,0.02886 h -0.0462 l -0.0462,0.0058 -0.0693,0.02886 h -0.17894 l -0.0289,0.109674 0.0635,0.167399 0.0635,0.161624 0.0923,0.2251205 0.0404,0.12122 0.052,0.155852 0.0173,0.03463 0.006,0.138536 -0.0404,0.06927 -0.0981,0.121219 -0.0115,0.09813 -0.0231,0.155853 0.006,0.08081 v 0.115446 l -0.075,0.04041 -0.13853,-0.150081 -0.0808,-0.132763 v -0.09813 -0.05195 l 0.13277,-0.08081 V 10.68686 l 0.006,-0.155853 -0.0462,-0.02886 -0.0462,-0.05195 0.006,-0.132763 v -0.126992 l 0.0346,-0.138536 -0.0693,-0.2020315 -0.075,-0.155852 -0.0577,-0.12122 -0.0404,-0.02886 -0.0635,0.09813 -0.21358,0.02886 -0.2078,0.04618 -0.15585,0.03464 -0.0924,0.05772 h -0.15008 l -0.0635,0.02309 h -0.0751 l -0.006,0.01154 0.0866,0.1904865 0.0866,0.207804 0.0678,0.133656 -0.0345,0.0439 -0.0251,0.119143 0.009,0.05016 0.0408,0.09093 0.047,0.07525 h 0.0941 l 0.008,0.121922 -0.19048,0.01732 -0.0624,-0.126702 -0.022,-0.116008 -0.0376,-0.103466 0.009,-0.112871 0.0439,-0.06584 -0.0583,-0.09852 -0.0635,-0.103903 -0.0231,-0.09236 -0.0635,-0.1558515 -0.0404,-0.08659 -0.0346,-0.05772 -0.052,-0.09813 v 0 l -0.0404,-0.09813 -0.0726,-0.06474 0.009,-0.102658 -0.0115,-0.08081 v -0.103902 l 0.002,-0.06692 v 0 l -0.002,-0.117794 0.0866,-0.04618 0.0577,-0.138536 v 0 l 0.052,-0.05772 0.0173,-0.184714 -0.0173,-0.150081 -0.052,-0.167398 -0.0981,-0.196258 -0.0577,-0.05772 -0.20203,-0.225121 -0.15008,-0.173169 -0.0866,-0.115448 -0.052,-0.265527 -0.0227,-0.175413 0.0746,0.135007 0.20781,0.24821 0.1674,0.150081 0.11544,0.138536 0.24244,0.138536 0.20203,0.05195 0.24821,0.04618 0.1674,-0.0058 0.15008,-0.01732 0.075,-0.04618 0.13276,-0.132764 0.0462,-0.155853 -0.0173,-0.167397 0.0866,-0.04041 0.0231,-0.08081 z"
     id="path977-4"
     inkscape:connector-curvature="0" />
  <path
     style="fill:#e9c774;fill-opacity:0.6701571;stroke:#bc0033;stroke-width:0.05652938;stroke-opacity:0.13089007"
     d="m 5.2649754,8.1666635 -0.003,0.245657 0.0216,0.09321 0.0124,0.126805 0.0478,0.118832 0.0273,0.09313 0.0953,-0.01615 0.006,-0.09236 0.0173,-0.103902 v -0.132763 l -0.0346,-0.126992 -0.0577,-0.09813 z"
     id="path979-09"
     inkscape:connector-curvature="0" />
  <path
     style="fill:#e9c774;fill-opacity:0.6701571;stroke:#bc0033;stroke-width:0.05652938;stroke-opacity:0.13089007"
     d="m 3.5523754,7.9529015 -0.19229,0.06335 -0.0948,0.02186 -0.0802,0.03644 -0.1822,0.0583 -0.11661,0.0073 -0.18949,0.07288 -0.0364,0.02915 -0.3061,0.109321 -0.13847,0.07288 -0.13119,0.131186 -0.18949,0.18949 -0.0656,0.196778 -0.0875,0.233219 0.007,0.240506 0.0219,0.26966 0.10203,0.26237 0.13119,0.1822025 0.17491,0.167625 0.10932,0.09475 0.16034,0.145762 0.13119,0.109321 0.13847,0.123898 0.0729,0.08017 0.19678,0.138474 -0.007,0.08746 -0.0729,0.211354 -0.0729,0.109322 -0.0583,0.08746 -0.0947,0.06559 0.007,0.08746 0.10933,0.03644 0.0874,0.05102 0.15305,0.138474 0.1822,0.02187 0.0875,0.08017 0.14576,0.182203 0.18221,0.211354 0.10932,0.18949 0.0947,0.145762 0.0948,-0.05102 0.24779,0.240508 0.0292,0.08017 0.17492,-0.02187 0.10203,-0.0583 0.0802,-0.03644 0.0437,-0.06559 -0.0437,-0.04373 -0.16763,-0.03644 -0.0947,-0.131185 -0.0729,-0.131185 -0.1822,-0.0583 -0.21136,-0.247795 -0.17491,-0.167627 -0.16763,-0.174913 -0.0947,-0.0583 -0.0292,-0.109321 0.0437,-0.15305 0.0292,-0.138474 0.0729,-0.08017 0.12389,-0.211354 0.0948,-0.160338 0.1239,-0.18949 0.0656,-0.15305 0.0802,-0.145762 0.0656,-0.08746 0.0802,-0.0583 0.13119,-0.03644 h 0.1166 0.11661 0.0948 l 0.16763,-0.0073 0.21135,0.02186 0.1382,-0.0053 -0.0784,-0.2226075 -0.0784,-0.18812 -0.17558,-0.18812 -0.0408,-0.10033 -0.0224,-0.382573 -0.0364,-0.04765 -0.24287,0.05 -0.38097,0.121219 -0.17895,0.0635 -0.10967,-0.05195 -0.0289,-0.115447 -0.0768,-0.295489 0.007,-0.108574 -0.0115,-0.236666 0.004,-0.106621 0.0146,-0.11661 0.0449,-0.100019 0.0673,-0.08162 z"
     id="path981-19"
     inkscape:connector-curvature="0" />
  <path
     style="fill:#e9c774;fill-opacity:0.6701571;stroke:#bc0033;stroke-width:0.05652938;stroke-opacity:0.13089007"
     d="m 5.1308154,10.219246 -0.15278,0.158345 -0.0729,0.138474 -0.0364,0.08746 -0.0947,0.160338 -0.11661,0.08746 -0.1239,0.06559 -0.15305,0.123898 -0.0146,0.167626 0.0146,0.131185 0.0146,0.07288 0.0802,0.08017 0.13118,0.08017 0.20407,0.182202 0.17491,0.11661 0.10932,0.08017 0.0875,0.07288 0.0364,0.102034 0.051,0.07288 0.0292,0.05102 0.0729,0.02186 0.10203,0.03644 0.1239,0.0073 0.051,0.05102 -0.0656,0.07288 -0.0437,0.05102 -0.11661,0.02186 h -0.10204 l -0.11661,0.0073 -0.0729,-0.08017 -0.13118,-0.02915 -0.0729,-0.05102 -0.0948,-0.109321 -0.007,-0.116609 -0.13847,-0.08746 -0.21135,-0.15305 -0.17492,-0.145762 -0.15305,-0.08746 -0.1822,-0.06559 -0.0292,-0.09475 -0.0292,-0.145761 -0.0146,-0.09474 0.051,-0.174915 0.0364,-0.07288 0.0219,-0.08017 -0.0729,-0.131185 -0.0656,-0.109321 0.0656,-0.15305 0.0802,-0.145762 0.14576,-0.145762 0.13119,-0.03644 0.49559,-0.0073 0.21135,0.02186 z"
     id="path983-6"
     inkscape:connector-curvature="0" />
  <path
     style="fill:#443f39;fill-opacity:1;stroke:#bc0033;stroke-width:0.05652938;stroke-opacity:0.13089007"
     d="m 4.1836354,12.884693 0.0292,0.08017 -0.0583,0.123897 0.0364,0.102033 0.1822,0.02186 h 0.14576 0.13119 l 0.13119,-0.01458 0.14576,0.0073 0.007,-0.08017 v -0.08746 l -0.15304,-0.08746 -0.0875,-0.09475 -0.0802,-0.07288 -0.0437,0.06559 -0.0802,0.03644 -0.10203,0.0583 -0.17492,0.02187 z"
     id="path985-2"
     inkscape:connector-curvature="0" />
  <path
     style="fill:#443f39;fill-opacity:1;stroke:#bc0033;stroke-width:0.05652938;stroke-opacity:0.13089007"
     d="m 5.6739854,12.388546 0.0113,0.02425 0.0291,0.02263 0.0388,0.02587 0.0194,0.02263 0.0517,0.04203 0.0194,0.03072 0.0291,0.03718 0.0436,0.06143 0.0259,0.0388 0.0162,0.05335 0.0178,0.03233 0.0178,0.03718 -0.005,0.04203 -0.0825,0.01778 -0.0695,-0.01132 -0.17783,-0.0065 -0.0695,-0.0291 -0.0824,-0.02263 -0.1164,-0.02425 -0.0663,-0.01132 -0.0566,-0.02748 -0.0307,-0.03072 -0.0194,-0.05012 -0.005,-0.0679 -0.009,-0.07519 0.21865,-0.0073 0.11661,-0.02186 0.10932,-0.123898 z"
     id="path987"
     inkscape:connector-curvature="0" />
  <path
     style="fill:#443f39;fill-opacity:1;stroke:#bc0033;stroke-width:0.05652938;stroke-opacity:0.13089007"
     d="m 6.9323054,10.89463 -0.0606,0.0267 -0.0558,0.05581 -0.0478,0.06379 -0.0133,0.07442 v 0.100994 l 0.016,0.09036 v 0.06379 l 0.0372,0.08771 0.0425,0.07708 0.0797,0.09834 0.0558,0.07708 0.0478,0.03189 0.0266,-0.0691 0.0452,-0.07176 0.0186,-0.05847 0.003,-0.09302 0.0399,-0.02923 -0.0151,-0.09344 -0.13854,-0.150081 -0.0808,-0.132764 z"
     id="path989"
     inkscape:connector-curvature="0" />
  <path
     style="fill:#443f39;fill-opacity:1;stroke:#bc0033;stroke-width:0.05652938;stroke-opacity:0.13089007"
     d="m 7.8789654,10.536745 -0.0185,0.07363 0.0133,0.08771 0.0186,0.114284 0.008,0.03455 0.0425,0.04518 0.0213,0.02924 0.0319,0.03987 0.0106,0.02126 v 0.04784 l -0.018,0.04904 -0.0462,0.115447 -0.0981,0.09813 -0.17537,-0.277695 0.008,-0.293766 0.0462,-0.09236 0.0866,-0.07504 z"
     id="path991"
     inkscape:connector-curvature="0" />
  <path
     style="fill:#443f39;fill-opacity:1;stroke:#bc0033;stroke-width:0.05652938;stroke-opacity:0.13089007"
     d="m 1.8951754,8.7450605 -0.1664,0.12724 -0.10726,0.137062 -0.0834,0.244327 -0.0179,0.22645 0.006,0.315837 0.0536,0.2622045 0.1311,0.315839 0.0715,0.339674 0.0179,0.244327 0.0775,0.333716 0.0834,0.303919 0.11918,0.232409 v 0.23241 l -0.0477,0.101306 -0.0119,0.14898 v 0.214531 l 0.0477,0.131103 0.0536,-0.280083 0.0358,-0.178776 0.10131,-0.214531 -0.006,0.256245 0.0715,0.196654 0.12514,0.208573 -0.0656,-0.572084 0.0834,0.22049 0.0238,0.286042 0.0477,0.160898 0.0656,0.0298 0.0953,0.006 0.0656,-0.006 0.0179,-0.172817 v -0.143024 l 0.0238,-0.113225 0.0417,-0.208572 -0.0298,-0.14898 -0.0238,-0.113225 -0.0119,-0.113225 -0.094,-0.118125 -0.007,-0.08746 0.0947,-0.06559 0.0482,-0.14597 -0.006,-0.154939 -0.0477,-0.107265 -0.0298,-0.113225 -0.0358,-0.131103 0.0126,-0.06173 -0.13183,-0.09321 -0.22645,-0.202613 -0.23837,-0.214531 -0.11759,-0.130999 -0.13118,-0.1822025 -0.10204,-0.26237 -0.0292,-0.510166 z"
     id="path995"
     inkscape:connector-curvature="0" />
  <path
     style="fill:#3c3833;fill-opacity:1;stroke:#bc0033;stroke-width:0.00307304;stroke-opacity:0.13089007"
     d="m 4.0161754,4.1473375 c -0.008,-0.0024 -0.02,-0.006 -0.0276,-0.008 l -0.0137,-0.0036 0.0438,-0.0166 c 0.0417,-0.01579 0.0452,-0.01659 0.0721,-0.01649 0.0351,1.38e-4 0.0634,0.006 0.0756,0.01559 0.005,0.004 0.009,0.008 0.009,0.0089 9e-5,8.45e-4 -0.007,0.0062 -0.0151,0.01196 l -0.0153,0.01042 -0.0577,0.0011 c -0.0439,8.39e-4 -0.061,5.7e-5 -0.0715,-0.0033 z"
     id="path997-5"
     inkscape:connector-curvature="0" />
  <path
     style="fill:#3c3833;fill-opacity:1;stroke:#bc0033;stroke-width:0.00307304;stroke-opacity:0.13089007"
     d="m 4.4125954,4.1489725 c -0.013,-0.0022 -0.0585,-0.02609 -0.0583,-0.03055 7e-5,-0.0011 0.01,-0.0081 0.0217,-0.01544 0.0208,-0.01295 0.0226,-0.01348 0.0544,-0.01569 0.0289,-0.002 0.0374,-0.0013 0.0698,0.0054 0.0203,0.0042 0.038,0.0087 0.0393,0.0099 0.001,0.0012 1.7e-4,0.0069 -0.003,0.01283 -0.004,0.0084 -0.01,0.01313 -0.0282,0.02211 -0.0208,0.01031 -0.0259,0.01153 -0.0527,0.0126 -0.0163,6.52e-4 -0.0358,1.32e-4 -0.0434,-0.0012 z"
     id="path999-44"
     inkscape:connector-curvature="0" />
  <path
     style="fill:#3c3833;fill-opacity:1;stroke:#bc0033;stroke-width:0.00307304;stroke-opacity:0.13089007"
     d="m 4.1278454,4.5366325 0.0241,-0.0011 0.0351,-0.02859 c 0.0258,-0.02101 0.041,-0.03094 0.0574,-0.03746 0.0216,-0.0086 0.0242,-0.0089 0.0861,-0.01 l 0.0638,-0.0011 0.013,0.01049 c 0.0172,0.01388 0.0793,0.05646 0.0852,0.05837 0.003,8.27e-4 -0.032,0.0025 -0.0768,0.0037 -0.0448,0.0012 -0.11946,0.0035 -0.16594,0.005 -0.0465,0.0016 -0.0983,0.0026 -0.11524,0.0023 -0.0297,-5.5e-4 -0.0299,-6.06e-4 -0.007,-0.0016 z"
     id="path1001-9"
     inkscape:connector-curvature="0" />
  <ellipse
     style="fill:#ffcc00;fill-opacity:1;stroke:#000000;stroke-width:0.03583955;stroke-opacity:0.02617804"
     id="path983-3-9"
     cx="6.9096336"
     cy="2.8201752"
     rx="0.87152296"
     ry="0.80470139" />
  <ellipse
     style="fill:#ffdd55;fill-opacity:1;stroke:#000000;stroke-width:0.03583955;stroke-opacity:0.02617804"
     id="path985-6-3"
     cx="6.6722069"
     cy="2.389389"
     rx="0.21610357"
     ry="0.22321226" />
  <ellipse
     ry="0.22321226"
     rx="0.21610357"
     cy="2.4149799"
     cx="7.1925621"
     id="ellipse989-6"
     style="fill:#ffdd55;fill-opacity:1;stroke:#000000;stroke-width:0.03583955;stroke-opacity:0.02617804" />
  <ellipse
     style="fill:#ffdd55;fill-opacity:1;stroke:#000000;stroke-width:0.03583955;stroke-opacity:0.02617804"
     id="ellipse991-05"
     cx="7.4740639"
     cy="2.8557167"
     rx="0.21610357"
     ry="0.22321226" />
  <ellipse
     ry="0.22321226"
     rx="0.21610357"
     cy="3.2765503"
     cx="7.1413765"
     id="ellipse993-0"
     style="fill:#ffdd55;fill-opacity:1;stroke:#000000;stroke-width:0.03583955;stroke-opacity:0.02617804" />
  <ellipse
     style="fill:#ffdd55;fill-opacity:1;stroke:#000000;stroke-width:0.03583955;stroke-opacity:0.02617804"
     id="ellipse995-29"
     cx="6.6295586"
     cy="3.2680206"
     rx="0.21610357"
     ry="0.22321226" />
  <ellipse
     ry="0.22321226"
     rx="0.21610357"
     cy="2.8528748"
     cx="6.3366737"
     id="ellipse997-4"
     style="fill:#ffdd55;fill-opacity:1;stroke:#000000;stroke-width:0.03583955;stroke-opacity:0.02617804" />
  <path
     style="fill:#aad400;fill-opacity:1;stroke:#000000;stroke-width:0.03102552;stroke-opacity:0.02617804"
     id="path999-7"
     d="m 7.2394654,3.0196215 -0.2334,-0.03159 -0.10497,0.18503 -0.0854,-0.192569 -0.23572,0.01302 0.14799,-0.160974 -0.13075,-0.172012 0.23341,0.03159 0.10496,-0.185029 0.0854,0.192568 0.23571,-0.01302 -0.14799,0.160974 z"
     inkscape:connector-curvature="0" />
  <path
     style="fill:#aa8800;fill-opacity:1;stroke:#c87137;stroke-width:0.00325814;stroke-opacity:0.02617804"
     d="m 6.8302254,3.6203265 c -0.15176,-0.01235 -0.30083,-0.06391 -0.42682,-0.14764 -0.0546,-0.03628 -0.089,-0.06428 -0.13206,-0.107476 -0.19794,-0.198514 -0.27458,-0.467295 -0.20838,-0.730783 0.0123,-0.04885 0.0297,-0.09514 0.0556,-0.147268 0.0421,-0.08488 0.0922,-0.153097 0.16201,-0.220612 0.13537,-0.130852 0.30141,-0.211011 0.49918,-0.24099 0.046,-0.007 0.164,-0.0096 0.21551,-0.0048 0.15742,0.01472 0.30312,0.06651 0.4296,0.152709 0.18338,0.124974 0.30256,0.30312 0.34264,0.512183 0.0115,0.05976 0.0143,0.163759 0.006,0.227383 -0.0177,0.138943 -0.0768,0.276396 -0.16648,0.386951 -0.18186,0.224251 -0.47456,0.344923 -0.77696,0.320321 z m 0.37741,-0.130985 c 0.0337,-0.01161 0.0571,-0.02633 0.0835,-0.05272 0.0699,-0.06971 0.0862,-0.171522 0.042,-0.261986 -0.0275,-0.05634 -0.0835,-0.1021 -0.14161,-0.115795 -0.0237,-0.0056 -0.0724,-0.0064 -0.0941,-0.0016 -0.10424,0.02318 -0.17844,0.123703 -0.17175,0.232681 0.003,0.04936 0.0213,0.0955 0.0535,0.134757 0.0259,0.03163 0.0746,0.06141 0.1157,0.07077 0.0309,0.007 0.0827,0.0042 0.11277,-0.0061 z m -0.5279,-0.0038 c 0.0602,-0.01419 0.11419,-0.05862 0.14247,-0.117237 0.0229,-0.04748 0.0292,-0.09291 0.0197,-0.142257 -0.0234,-0.121692 -0.13615,-0.200725 -0.25292,-0.177257 -0.10676,0.02145 -0.18078,0.119267 -0.17501,0.231245 0.003,0.06084 0.023,0.104621 0.0673,0.148562 0.0301,0.02987 0.0553,0.04501 0.0922,0.05557 0.0258,0.0074 0.0779,0.008 0.1062,0.0014 z m 0.27267,-0.401193 c 0.0269,-0.04768 0.0503,-0.08864 0.0521,-0.09103 0.003,-0.0036 0.0237,-0.0016 0.11823,0.01123 0.0851,0.01153 0.11455,0.01449 0.11336,0.01138 -8.9e-4,-0.0023 -0.0297,-0.04099 -0.064,-0.08597 -0.0616,-0.08078 -0.0623,-0.08186 -0.0563,-0.08851 0.003,-0.0037 0.0363,-0.03984 0.0734,-0.08031 0.0371,-0.04047 0.067,-0.07398 0.0665,-0.07448 -5e-4,-4.94e-4 -0.0533,0.0021 -0.11747,0.0058 -0.0641,0.0037 -0.11691,0.0062 -0.11733,0.0057 -4.3e-4,-5.56e-4 -0.0196,-0.04382 -0.0427,-0.09615 -0.0231,-0.05233 -0.0427,-0.09436 -0.0437,-0.09341 -9.5e-4,9.49e-4 -0.0247,0.0423 -0.0528,0.09188 l -0.0511,0.09015 -0.0108,-0.0011 c -0.006,-6.19e-4 -0.0577,-0.0075 -0.11502,-0.01528 -0.0573,-0.0078 -0.1048,-0.01354 -0.10556,-0.01278 -0.001,0.0012 0.0316,0.04528 0.10831,0.145617 l 0.0192,0.02519 -0.0245,0.02694 c -0.0135,0.01482 -0.0466,0.05104 -0.0737,0.08049 -0.0271,0.02945 -0.0489,0.05386 -0.0484,0.05424 4.4e-4,3.81e-4 0.0477,-0.002 0.10501,-0.0054 0.0573,-0.0033 0.11015,-0.0061 0.11734,-0.0062 l 0.0131,-1.63e-4 0.0418,0.09449 c 0.023,0.05197 0.0428,0.09445 0.0439,0.09441 10e-4,-4.8e-5 0.0241,-0.03908 0.051,-0.08676 z m 0.58644,-0.01568 c 0.0749,-0.02515 0.12857,-0.0852 0.14625,-0.163663 0.0288,-0.128032 -0.0603,-0.257449 -0.18651,-0.27094 -0.0917,-0.0098 -0.17671,0.03776 -0.21718,0.121565 -0.0385,0.0798 -0.03,0.168616 0.0231,0.239188 0.0279,0.03717 0.0787,0.06968 0.12547,0.0803 0.0313,0.0071 0.0765,0.0044 0.10889,-0.0064 z m -1.15726,0.0028 c 0.0952,-0.02112 0.16459,-0.104469 0.17077,-0.205062 0.007,-0.106932 -0.0656,-0.207524 -0.16585,-0.231155 -0.0264,-0.0062 -0.0734,-0.0062 -0.0998,0 -0.0601,0.01417 -0.11371,0.05824 -0.14248,0.117111 -0.0341,0.06984 -0.0314,0.150153 0.007,0.216741 0.0149,0.02568 0.0517,0.06304 0.0762,0.07747 0.0467,0.02752 0.10177,0.03644 0.15378,0.0249 z m 0.83837,-0.434904 c 0.0872,-0.01213 0.16023,-0.07848 0.18263,-0.165907 0.007,-0.02853 0.007,-0.08298 7e-5,-0.110777 -0.0164,-0.06279 -0.0619,-0.119916 -0.11629,-0.145976 -0.054,-0.0259 -0.10747,-0.02947 -0.16166,-0.01082 -0.0891,0.03067 -0.14787,0.114989 -0.14787,0.212183 0,0.121143 0.0905,0.217517 0.21073,0.224405 0.004,2.13e-4 0.0185,-0.0012 0.0324,-0.0031 z m -0.50822,-0.02742 c 0.0768,-0.0147 0.13978,-0.07148 0.16579,-0.149562 0.0391,-0.117437 -0.0257,-0.245974 -0.14341,-0.284299 -0.0372,-0.01212 -0.0865,-0.01213 -0.12388,-1e-5 -0.15184,0.04925 -0.20388,0.237537 -0.1002,0.362532 0.0268,0.03235 0.0767,0.06188 0.11982,0.0709 0.0299,0.0063 0.0509,0.0064 0.0819,4.44e-4 z"
     id="path841-3"
     inkscape:connector-curvature="0" />
  <path
     style="fill:#008000;fill-opacity:1;stroke:#c87137;stroke-width:0.00664661;stroke-opacity:0.02617804"
     d="m 6.8583654,3.0718325 -0.0419,-0.09357 -0.0803,0.004 c -0.0442,0.0022 -0.0967,0.0057 -0.11684,0.0077 l -0.0366,0.0037 0.0204,-0.02218 c 0.0957,-0.104265 0.12253,-0.134869 0.12253,-0.139988 0,-0.0033 -0.0269,-0.0409 -0.0598,-0.08364 -0.0489,-0.06356 -0.0575,-0.07808 -0.0473,-0.07974 0.007,-0.0011 0.057,0.0041 0.11131,0.01169 0.11558,0.01605 0.0958,0.02693 0.15949,-0.08777 0.0238,-0.04295 0.0442,-0.0781 0.0453,-0.0781 0.001,0 0.0208,0.04212 0.0438,0.09361 l 0.0419,0.09361 0.0936,-0.0041 c 0.0515,-0.0023 0.10403,-0.0058 0.11682,-0.0078 l 0.0233,-0.0036 -0.014,0.01554 c -0.008,0.0085 -0.0399,0.04395 -0.0714,0.07868 -0.0316,0.03472 -0.0574,0.0655 -0.0574,0.0684 0,0.0029 0.027,0.04103 0.06,0.08475 0.0536,0.07095 0.0583,0.07949 0.0444,0.07949 -0.0134,0 -0.097,-0.01042 -0.1854,-0.0231 l -0.0245,-0.0035 -0.051,0.08974 c -0.0281,0.04936 -0.0518,0.08974 -0.0527,0.08974 -9.1e-4,0 -0.0205,-0.04211 -0.0436,-0.09357 z"
     id="path843-5"
     inkscape:connector-curvature="0" />
</svg>
