<?xml version="1.0" encoding="UTF-8" standalone="no"?>
<svg
   xmlns:dc="http://purl.org/dc/elements/1.1/"
   xmlns:cc="http://creativecommons.org/ns#"
   xmlns:rdf="http://www.w3.org/1999/02/22-rdf-syntax-ns#"
   xmlns:svg="http://www.w3.org/2000/svg"
   xmlns="http://www.w3.org/2000/svg"
   xmlns:xlink="http://www.w3.org/1999/xlink"
   xmlns:sodipodi="http://sodipodi.sourceforge.net/DTD/sodipodi-0.dtd"
   xmlns:inkscape="http://www.inkscape.org/namespaces/inkscape"
   version="1.1"
   id="svg815"
   width="160"
   height="250"
   viewBox="0 0 160 250"
   sodipodi:docname="golds09.svg"
   inkscape:version="0.92.5 (2060ec1f9f, 2020-04-08)">
  <sodipodi:namedview
     pagecolor="#ffffff"
     bordercolor="#666666"
     borderopacity="1"
     objecttolerance="10"
     gridtolerance="10"
     guidetolerance="10"
     inkscape:pageopacity="0"
     inkscape:pageshadow="2"
     inkscape:window-width="1918"
     inkscape:window-height="1017"
     id="namedview10447"
     showgrid="false"
     inkscape:zoom="12.12591"
     inkscape:cx="51.363636"
     inkscape:cy="236.66667"
     inkscape:window-x="0"
     inkscape:window-y="0"
     inkscape:window-maximized="1"
     inkscape:current-layer="svg815"
     inkscape:snap-page="true" />
  <metadata
     id="metadata821">
    <rdf:RDF>
      <cc:Work
         rdf:about="">
        <dc:format>image/svg+xml</dc:format>
        <dc:type
           rdf:resource="http://purl.org/dc/dcmitype/StillImage" />
        <dc:title></dc:title>
      </cc:Work>
    </rdf:RDF>
  </metadata>
  <defs
     id="defs819">
    <linearGradient
       gradientUnits="userSpaceOnUse"
       y2="71.008263"
       x2="88.849586"
       y1="58.644627"
       x1="82.105782"
       id="linearGradient1063"
       xlink:href="#linearGradient882"
       gradientTransform="matrix(0.0625,0,0,0.0625,90.000002,-2.4462891e-7)" />
    <linearGradient
       id="linearGradient882">
      <stop
         style="stop-color:#d16208;stop-opacity:1"
         offset="0"
         id="stop878" />
      <stop
         style="stop-color:#d16250;stop-opacity:0;"
         offset="1"
         id="stop880" />
    </linearGradient>
    <linearGradient
       gradientUnits="userSpaceOnUse"
       y2="68.472336"
       x2="56.128345"
       y1="63.697319"
       x1="61.166279"
       id="linearGradient876"
       xlink:href="#linearGradient882"
       gradientTransform="matrix(0.0625,0,0,0.0625,90.000002,-2.4462891e-7)" />
    <linearGradient
       xlink:href="#linearGradient846"
       id="linearGradient848"
       x1="72.37397"
       y1="53.171356"
       x2="72.19931"
       y2="45.564011"
       gradientUnits="userSpaceOnUse"
       gradientTransform="matrix(0.0625,0,0,0.0625,110,-4.9804688e-7)" />
    <linearGradient
       id="linearGradient846">
      <stop
         style="stop-color:#423abf;stop-opacity:1;"
         offset="0"
         id="stop842" />
      <stop
         style="stop-color:#423abf;stop-opacity:0;"
         offset="1"
         id="stop844" />
    </linearGradient>
  </defs>
  <flowRoot
     style="font-style:normal;font-variant:normal;font-weight:bold;font-stretch:normal;font-size:1px;line-height:1.25;font-family:'DejaVu Sans';-inkscape-font-specification:'DejaVu Sans Bold';letter-spacing:0px;word-spacing:0px;fill:#000000;fill-opacity:1;stroke:none;stroke-width:0.0625"
     id="flowRoot100"
     xml:space="preserve"><flowRegion
       style="stroke-width:0.0625"
       id="flowRegion102"><rect
         style="stroke-width:0.00390625"
         y="0.73863637"
         x="0.66287881"
         height="1.3636364"
         width="1.5151515"
         id="rect104" /></flowRegion><flowPara
       style="stroke-width:0.0625"
       id="flowPara106" /></flowRoot>  <rect
     style="fill:#ffffff;fill-opacity:1;stroke:#1a1a1a;stroke-width:0.0625;stroke-opacity:1"
     id="golds09"
     width="10"
     height="15.625"
     x="0.0060040969"
     y="0" />
  <rect
     style="fill:none;fill-opacity:1;stroke:#1a1a1a;stroke-width:0.0625;stroke-opacity:1"
     id="rect108-2"
     width="7.2537889"
     height="12.973484"
     x="1.3507001"
     y="1.306819" />
  <g
     id="flowRoot915-4"
     style="font-style:normal;font-variant:normal;font-weight:bold;font-stretch:normal;font-size:16px;line-height:1.25;font-family:'DejaVu Sans';-inkscape-font-specification:'DejaVu Sans Bold';text-align:start;letter-spacing:0px;word-spacing:0px;text-anchor:start;fill:#000000;fill-opacity:1;stroke:none"
     transform="matrix(0.0625,0,0,0.0625,0.1953991,4.3750001e-7)"
     aria-label="9">
    <path
       id="path2820"
       d="m 4.6328125,18.443359 v -2.15625 q 0.71875,0.335938 1.375,0.507813 0.65625,0.164062 1.296875,0.164062 1.34375,0 2.09375,-0.742187 0.7500005,-0.75 0.8828125,-2.21875 Q 9.75,14.388672 9.1484375,14.583984 8.546875,14.779297 7.84375,14.779297 q -1.7890625,0 -2.890625,-1.039063 -1.09375,-1.046875 -1.09375,-2.75 0,-1.8828121 1.21875,-3.0156246 1.2265625,-1.1328125 3.28125,-1.1328125 2.28125,0 3.53125,1.5390625 1.25,1.5390625 1.25,4.3515626 0,2.890625 -1.460937,4.546875 -1.460938,1.648437 -4.007813,1.648437 -0.8203125,0 -1.5703125,-0.125 -0.75,-0.117187 -1.46875,-0.359375 z M 8.34375,12.826172 q 0.7890625,0 1.1875,-0.507813 0.3984375,-0.515625 0.3984375,-1.539062 0,-1.0156251 -0.3984375,-1.5312501 -0.3984375,-0.515625 -1.1875,-0.515625 -0.7890625,0 -1.1875,0.515625 -0.3984375,0.515625 -0.3984375,1.5312501 0,1.023437 0.3984375,1.539062 0.3984375,0.507813 1.1875,0.507813 z"
       inkscape:connector-curvature="0" />
  </g>
  <ellipse
     ry="1.226941"
     rx="1.3288249"
     cy="2.6716671"
     cx="2.7814481"
     id="ellipse963-7"
     style="fill:#ffcc00;fill-opacity:1;stroke:#000000;stroke-width:0.05464512;stroke-opacity:0.02617804" />
  <ellipse
     ry="0.34033525"
     rx="0.32949653"
     cy="2.014843"
     cx="2.4194334"
     id="ellipse965-7"
     style="fill:#ffdd55;fill-opacity:1;stroke:#000000;stroke-width:0.05464512;stroke-opacity:0.02617804" />
  <ellipse
     style="fill:#ffdd55;fill-opacity:1;stroke:#000000;stroke-width:0.05464512;stroke-opacity:0.02617804"
     id="ellipse967-5"
     cx="3.2128294"
     cy="2.0538626"
     rx="0.32949653"
     ry="0.34033525" />
  <ellipse
     ry="0.34033525"
     rx="0.32949653"
     cy="2.7258606"
     cx="3.6420362"
     id="ellipse969-4"
     style="fill:#ffdd55;fill-opacity:1;stroke:#000000;stroke-width:0.05464512;stroke-opacity:0.02617804" />
  <ellipse
     style="fill:#ffdd55;fill-opacity:1;stroke:#000000;stroke-width:0.05464512;stroke-opacity:0.02617804"
     id="ellipse971-8"
     cx="3.1347883"
     cy="3.3675117"
     rx="0.32949653"
     ry="0.34033525" />
  <ellipse
     ry="0.34033525"
     rx="0.32949653"
     cy="3.3545055"
     cx="2.3544004"
     id="ellipse973-1"
     style="fill:#ffdd55;fill-opacity:1;stroke:#000000;stroke-width:0.05464512;stroke-opacity:0.02617804" />
  <ellipse
     style="fill:#ffdd55;fill-opacity:1;stroke:#000000;stroke-width:0.05464512;stroke-opacity:0.02617804"
     id="ellipse975-28"
     cx="1.9078443"
     cy="2.7215252"
     rx="0.32949653"
     ry="0.34033525" />
  <path
     d="m 3.2843411,2.9757694 -0.355872,-0.04817 -0.160043,0.282118 -0.130233,-0.293612 -0.359395,0.01985 0.22564,-0.24544 -0.199353,-0.262269 0.355874,0.04817 0.160041,-0.282117 0.130234,0.293612 0.359395,-0.01985 -0.22564,0.245439 z"
     id="path977-9"
     style="fill:#aad400;fill-opacity:1;stroke:#000000;stroke-width:0.0473051;stroke-opacity:0.02617804"
     inkscape:connector-curvature="0" />
  <path
     id="path979-3"
     d="m 2.6603701,3.8916724 c -0.231387,-0.01882 -0.458687,-0.09745 -0.650774,-0.225109 -0.08323,-0.05531 -0.135688,-0.098 -0.201362,-0.16387 -0.301798,-0.302677 -0.418655,-0.712492 -0.317721,-1.114236 0.01871,-0.07449 0.04535,-0.145064 0.08473,-0.224542 0.06413,-0.129415 0.140518,-0.23343 0.247015,-0.336371 0.206403,-0.199512 0.459565,-0.321731 0.761109,-0.367441 0.0702,-0.01064 0.250055,-0.01463 0.328597,-0.0073 0.240009,0.02244 0.462162,0.101408 0.655015,0.232836 0.279607,0.19055 0.461317,0.462172 0.52243,0.780935 0.01747,0.09112 0.02179,0.249686 0.0094,0.346695 -0.02696,0.211848 -0.117132,0.421424 -0.253835,0.58999 -0.277288,0.341918 -0.72357,0.525908 -1.184646,0.488397 z m 0.575438,-0.199716 c 0.05143,-0.01769 0.08699,-0.04014 0.127331,-0.08038 0.106561,-0.106286 0.131429,-0.261523 0.06399,-0.399455 -0.042,-0.0859 -0.127323,-0.155673 -0.215905,-0.176554 -0.03617,-0.0085 -0.110389,-0.0098 -0.143497,-0.0024 -0.158936,0.03535 -0.272066,0.188613 -0.261869,0.354773 0.0046,0.07527 0.03256,0.145615 0.0816,0.205466 0.03952,0.04823 0.113746,0.09363 0.176415,0.107895 0.04713,0.01073 0.126065,0.0064 0.171934,-0.0093 z m -0.804889,-0.0059 c 0.09179,-0.02164 0.17411,-0.08938 0.21722,-0.178751 0.03492,-0.07239 0.04452,-0.141656 0.03007,-0.216902 -0.03565,-0.185547 -0.207586,-0.306049 -0.385635,-0.270268 -0.162776,0.03271 -0.275639,0.181849 -0.26683,0.352584 0.0048,0.09276 0.03504,0.159517 0.102663,0.226515 0.04597,0.04555 0.08426,0.06862 0.140582,0.08473 0.03933,0.01125 0.11876,0.01228 0.161934,0.0021 z m 0.415742,-0.611704 c 0.04098,-0.0727 0.07675,-0.13516 0.07948,-0.138803 0.0041,-0.0054 0.03613,-0.0024 0.180264,0.01713 0.129776,0.01758 0.174658,0.02209 0.172843,0.01736 -0.0014,-0.0035 -0.04523,-0.0625 -0.09751,-0.131081 -0.0939,-0.123166 -0.09495,-0.124813 -0.08591,-0.134952 0.005,-0.0056 0.05542,-0.06075 0.111979,-0.122448 0.05655,-0.0617 0.102209,-0.112802 0.101455,-0.113556 -7.56e-4,-7.58e-4 -0.08136,0.0032 -0.179115,0.0088 -0.09776,0.0056 -0.178261,0.0095 -0.178891,0.0087 -6.29e-4,-8.48e-4 -0.02993,-0.06682 -0.06512,-0.146606 -0.03518,-0.07979 -0.06516,-0.14388 -0.06661,-0.14243 -0.0015,0.0014 -0.03768,0.06449 -0.08051,0.140087 l -0.07787,0.13745 -0.01654,-0.0017 c -0.0091,-9.38e-4 -0.08801,-0.01142 -0.175371,-0.0233 -0.08736,-0.01188 -0.159783,-0.02065 -0.160942,-0.01949 -0.0018,0.0018 0.04818,0.06904 0.165133,0.222025 l 0.02936,0.03841 -0.03737,0.04108 c -0.02055,0.02259 -0.07112,0.07782 -0.112375,0.122727 -0.04125,0.04491 -0.07449,0.08212 -0.07386,0.08271 6.28e-4,5.75e-4 0.07268,-0.0031 0.160115,-0.0082 0.08743,-0.0051 0.16794,-0.0093 0.178907,-0.0094 l 0.01994,-2.38e-4 0.06376,0.144064 c 0.03507,0.07924 0.06522,0.144014 0.067,0.143952 0.0018,-10e-5 0.03677,-0.05959 0.07775,-0.132291 z m 0.894153,-0.02391 c 0.114219,-0.03834 0.196034,-0.129902 0.222985,-0.249539 0.04397,-0.195214 -0.09186,-0.392537 -0.284376,-0.413108 -0.13987,-0.01495 -0.269428,0.05757 -0.331138,0.185353 -0.05876,0.121674 -0.0457,0.257092 0.03519,0.364694 0.0426,0.05668 0.120047,0.106236 0.191316,0.122433 0.04767,0.01084 0.116618,0.0068 0.166022,-0.0098 z m -1.764489,0.0043 c 0.145127,-0.0322 0.250952,-0.159286 0.260365,-0.31266 0.01001,-0.163042 -0.100034,-0.316416 -0.252867,-0.352448 -0.04018,-0.0095 -0.111953,-0.0095 -0.15213,0 -0.09162,0.0216 -0.173369,0.0888 -0.217228,0.178563 -0.05203,0.10649 -0.04787,0.22894 0.01125,0.330467 0.0228,0.03916 0.07879,0.09611 0.116131,0.118118 0.07121,0.04197 0.15517,0.05556 0.234482,0.03796 z m 1.278264,-0.663105 c 0.132933,-0.01849 0.244305,-0.119659 0.278472,-0.252961 0.01115,-0.0435 0.0112,-0.126515 1e-4,-0.168902 -0.02507,-0.09574 -0.09445,-0.182839 -0.177308,-0.222573 -0.08233,-0.03948 -0.163856,-0.04494 -0.246488,-0.01649 -0.13586,0.04677 -0.225448,0.175325 -0.225448,0.323518 0,0.184709 0.137989,0.331653 0.321303,0.342155 0.0059,3.31e-4 0.02817,-0.0018 0.04937,-0.0047 z m -0.774877,-0.0418 c 0.117151,-0.02241 0.21312,-0.108992 0.252779,-0.22804 0.05965,-0.179057 -0.03922,-0.375039 -0.21867,-0.433474 -0.05678,-0.01849 -0.131911,-0.01849 -0.188878,-1.5e-5 -0.231516,0.07509 -0.310862,0.362175 -0.152778,0.552757 0.04092,0.04933 0.11699,0.09435 0.182689,0.108104 0.04561,0.0096 0.07754,0.0097 0.124858,6.71e-4 z"
     style="fill:#aa8800;fill-opacity:1;stroke:#c87137;stroke-width:0.00496774;stroke-opacity:0.02617804"
     inkscape:connector-curvature="0" />
  <path
     id="path981-6"
     d="m 2.7032771,3.0553754 -0.06391,-0.142664 -0.122415,0.0062 c -0.06733,0.0034 -0.147498,0.0087 -0.178153,0.01181 l -0.05574,0.0056 0.03106,-0.03382 c 0.145982,-0.158973 0.186827,-0.205636 0.186827,-0.213442 0,-0.005 -0.04102,-0.06236 -0.09117,-0.127526 -0.07456,-0.09691 -0.08769,-0.119052 -0.07211,-0.121575 0.01048,-0.0017 0.08685,0.0063 0.169705,0.01783 0.176239,0.02447 0.146083,0.04106 0.243177,-0.133821 0.03636,-0.06549 0.06742,-0.119076 0.06902,-0.119076 0.0016,0 0.03168,0.06423 0.06685,0.142732 l 0.06394,0.142732 0.142653,-0.0063 c 0.07846,-0.0035 0.158615,-0.0088 0.178124,-0.01188 l 0.03547,-0.0056 -0.0214,0.0237 c -0.01177,0.01303 -0.0608,0.06702 -0.108943,0.119963 -0.04815,0.05295 -0.08754,0.09988 -0.08754,0.10429 0,0.0044 0.04118,0.06256 0.09152,0.129219 0.08169,0.108179 0.08895,0.121197 0.06764,0.121197 -0.02038,0 -0.147849,-0.01588 -0.282676,-0.03522 l -0.03738,-0.0054 -0.07779,0.136831 c -0.04279,0.07526 -0.07893,0.136832 -0.08032,0.136832 -0.0014,0 -0.03128,-0.0642 -0.06643,-0.142665 z"
     style="fill:#008000;fill-opacity:1;stroke:#c87137;stroke-width:0.01013419;stroke-opacity:0.02617804"
     inkscape:connector-curvature="0" />
  <ellipse
     style="fill:#ffcc00;fill-opacity:1;stroke:#000000;stroke-width:0.05464512;stroke-opacity:0.02617804"
     id="ellipse1120-8"
     cx="2.7814481"
     cy="10.304243"
     rx="1.3288249"
     ry="1.226941" />
  <ellipse
     style="fill:#ffdd55;fill-opacity:1;stroke:#000000;stroke-width:0.05464512;stroke-opacity:0.02617804"
     id="ellipse1122-0"
     cx="2.4194334"
     cy="9.647419"
     rx="0.32949653"
     ry="0.34033525" />
  <ellipse
     ry="0.34033525"
     rx="0.32949653"
     cy="9.6864376"
     cx="3.2128294"
     id="ellipse1124-2"
     style="fill:#ffdd55;fill-opacity:1;stroke:#000000;stroke-width:0.05464512;stroke-opacity:0.02617804" />
  <ellipse
     style="fill:#ffdd55;fill-opacity:1;stroke:#000000;stroke-width:0.05464512;stroke-opacity:0.02617804"
     id="ellipse1126-1"
     cx="3.6420362"
     cy="10.358437"
     rx="0.32949653"
     ry="0.34033525" />
  <ellipse
     ry="0.34033525"
     rx="0.32949653"
     cy="11.000088"
     cx="3.1347883"
     id="ellipse1128-0"
     style="fill:#ffdd55;fill-opacity:1;stroke:#000000;stroke-width:0.05464512;stroke-opacity:0.02617804" />
  <ellipse
     style="fill:#ffdd55;fill-opacity:1;stroke:#000000;stroke-width:0.05464512;stroke-opacity:0.02617804"
     id="ellipse1130-5"
     cx="2.3544004"
     cy="10.987082"
     rx="0.32949653"
     ry="0.34033525" />
  <ellipse
     ry="0.34033525"
     rx="0.32949653"
     cy="10.354101"
     cx="1.9078443"
     id="ellipse1132-1"
     style="fill:#ffdd55;fill-opacity:1;stroke:#000000;stroke-width:0.05464512;stroke-opacity:0.02617804" />
  <path
     style="fill:#aad400;fill-opacity:1;stroke:#000000;stroke-width:0.0473051;stroke-opacity:0.02617804"
     id="path1134-1"
     d="m 3.2843411,10.608345 -0.355872,-0.04817 -0.160043,0.282118 -0.130233,-0.293612 -0.359395,0.01985 0.22564,-0.24544 -0.199353,-0.262269 0.355874,0.04817 0.160041,-0.2821166 0.130234,0.2936116 0.359395,-0.01985 -0.22564,0.245439 z"
     inkscape:connector-curvature="0" />
  <path
     style="fill:#aa8800;fill-opacity:1;stroke:#c87137;stroke-width:0.00496774;stroke-opacity:0.02617804"
     d="m 2.6603701,11.524248 c -0.231387,-0.01882 -0.458687,-0.09745 -0.650774,-0.225108 -0.08323,-0.05531 -0.135688,-0.09801 -0.201362,-0.163871 -0.301798,-0.302677 -0.418655,-0.712492 -0.317721,-1.114236 0.01871,-0.07449 0.04535,-0.1450636 0.08473,-0.2245416 0.06413,-0.129415 0.140518,-0.23343 0.247015,-0.336371 0.206403,-0.199512 0.459565,-0.32173 0.761109,-0.36744 0.0702,-0.01064 0.250055,-0.01463 0.328597,-0.0073 0.240009,0.02244 0.462162,0.101408 0.655015,0.232836 0.279607,0.19055 0.461317,0.462172 0.52243,0.7809346 0.01747,0.09112 0.02179,0.249685 0.0094,0.346695 -0.02696,0.211848 -0.117132,0.421424 -0.253835,0.58999 -0.277288,0.341919 -0.72357,0.525909 -1.184646,0.488397 z m 0.575438,-0.199715 c 0.05143,-0.01769 0.08699,-0.04015 0.127331,-0.08038 0.106561,-0.106286 0.131429,-0.261523 0.06399,-0.399455 -0.042,-0.0859 -0.127323,-0.155673 -0.215905,-0.176554 -0.03617,-0.0085 -0.110389,-0.0098 -0.143497,-0.0024 -0.158936,0.03535 -0.272066,0.188612 -0.261869,0.354772 0.0046,0.07527 0.03256,0.145615 0.0816,0.205466 0.03952,0.04823 0.113746,0.09363 0.176415,0.107895 0.04713,0.01073 0.126065,0.0064 0.171934,-0.0093 z m -0.804889,-0.0059 c 0.09179,-0.02164 0.17411,-0.08938 0.21722,-0.178752 0.03492,-0.07239 0.04452,-0.141656 0.03007,-0.216901 -0.03565,-0.185547 -0.207586,-0.30605 -0.385635,-0.270268 -0.162776,0.03271 -0.275639,0.181849 -0.26683,0.352584 0.0048,0.09276 0.03504,0.159517 0.102663,0.226515 0.04597,0.04555 0.08426,0.06862 0.140582,0.08472 0.03933,0.01125 0.11876,0.01228 0.161934,0.0021 z m 0.415742,-0.611705 c 0.04098,-0.0727 0.07675,-0.135159 0.07948,-0.138802 0.0041,-0.0054 0.03613,-0.0024 0.180264,0.01713 0.129776,0.01758 0.174658,0.02209 0.172843,0.01736 -0.0014,-0.0035 -0.04523,-0.0625 -0.09751,-0.131081 -0.0939,-0.123167 -0.09495,-0.124813 -0.08591,-0.134952 0.005,-0.0056 0.05542,-0.06075 0.111979,-0.122448 0.05655,-0.0617 0.102209,-0.112802 0.101455,-0.113557 -7.56e-4,-7.56e-4 -0.08136,0.0032 -0.179115,0.0088 -0.09776,0.0056 -0.178261,0.0095 -0.178891,0.0087 -6.29e-4,-8.5e-4 -0.02993,-0.06682 -0.06512,-0.1466056 -0.03518,-0.07979 -0.06516,-0.14388 -0.06661,-0.14243 -0.0015,0.0014 -0.03768,0.06449 -0.08051,0.140086 l -0.07787,0.1374506 -0.01654,-0.0017 c -0.0091,-9.37e-4 -0.08801,-0.01142 -0.175371,-0.0233 -0.08736,-0.01188 -0.159783,-0.02065 -0.160942,-0.01949 -0.0018,0.0018 0.04818,0.06903 0.165133,0.222025 l 0.02936,0.03841 -0.03737,0.04108 c -0.02055,0.02259 -0.07112,0.07782 -0.112375,0.122726 -0.04125,0.04491 -0.07449,0.08213 -0.07386,0.08271 6.28e-4,5.62e-4 0.07268,-0.0031 0.160115,-0.0082 0.08743,-0.0051 0.16794,-0.0093 0.178907,-0.0094 l 0.01994,-2.5e-4 0.06376,0.144063 c 0.03507,0.07924 0.06522,0.144014 0.067,0.143953 0.0018,-1.25e-4 0.03677,-0.05959 0.07775,-0.132292 z m 0.894153,-0.02391 c 0.114219,-0.03834 0.196034,-0.129902 0.222985,-0.249539 0.04397,-0.195214 -0.09186,-0.392537 -0.284376,-0.413109 -0.13987,-0.01494 -0.269428,0.05757 -0.331138,0.185354 -0.05876,0.121674 -0.0457,0.257091 0.03519,0.364694 0.0426,0.05667 0.120047,0.106235 0.191316,0.122433 0.04767,0.01083 0.116618,0.0068 0.166022,-0.0098 z m -1.764489,0.0043 c 0.145127,-0.03221 0.250952,-0.159286 0.260365,-0.31266 0.01001,-0.163042 -0.100034,-0.316416 -0.252867,-0.352447 -0.04018,-0.0095 -0.111953,-0.0095 -0.15213,0 -0.09162,0.0216 -0.173369,0.0888 -0.217228,0.178562 -0.05203,0.106491 -0.04787,0.22894 0.01125,0.330467 0.0228,0.03916 0.07879,0.09611 0.116131,0.118118 0.07121,0.04197 0.15517,0.05556 0.234482,0.03796 z m 1.278264,-0.663104 c 0.132933,-0.01849 0.244305,-0.1196596 0.278472,-0.2529606 0.01115,-0.0435 0.0112,-0.126516 1e-4,-0.168902 -0.02507,-0.09574 -0.09445,-0.18284 -0.177308,-0.222573 -0.08233,-0.03948 -0.163856,-0.04494 -0.246488,-0.01649 -0.13586,0.04677 -0.225448,0.175325 -0.225448,0.323518 0,0.184709 0.137989,0.3316516 0.321303,0.3421536 0.0059,3.13e-4 0.02817,-0.0018 0.04937,-0.0047 z m -0.774877,-0.0418 c 0.117151,-0.02242 0.21312,-0.108993 0.252779,-0.22804 0.05965,-0.179057 -0.03922,-0.375039 -0.21867,-0.433474 -0.05678,-0.01849 -0.131911,-0.0185 -0.188878,-1.6e-5 -0.231516,0.0751 -0.310862,0.362176 -0.152778,0.552758 0.04092,0.04933 0.11699,0.09434 0.182689,0.108103 0.04561,0.0096 0.07754,0.0097 0.124858,6.75e-4 z"
     id="path1136-0"
     inkscape:connector-curvature="0" />
  <path
     style="fill:#008000;fill-opacity:1;stroke:#c87137;stroke-width:0.01013419;stroke-opacity:0.02617804"
     d="m 2.7032771,10.687951 -0.06391,-0.142664 -0.122415,0.0062 c -0.06733,0.0034 -0.147498,0.0087 -0.178153,0.01181 l -0.05574,0.0056 0.03106,-0.03382 c 0.145982,-0.158973 0.186827,-0.205636 0.186827,-0.213441 0,-0.005 -0.04102,-0.06236 -0.09117,-0.127526 -0.07456,-0.09691 -0.08769,-0.119053 -0.07211,-0.121575 0.01048,-0.0017 0.08685,0.0063 0.169705,0.01783 0.176239,0.02447 0.146083,0.04106 0.243177,-0.1338216 0.03636,-0.06549 0.06742,-0.119076 0.06902,-0.119076 0.0016,0 0.03168,0.06423 0.06685,0.142733 l 0.06394,0.1427316 0.142653,-0.0063 c 0.07846,-0.0035 0.158615,-0.0088 0.178124,-0.01188 l 0.03547,-0.0056 -0.0214,0.0237 c -0.01177,0.01303 -0.0608,0.06702 -0.108943,0.119963 -0.04815,0.05295 -0.08754,0.09988 -0.08754,0.104289 0,0.0044 0.04118,0.06256 0.09152,0.129219 0.08169,0.108179 0.08895,0.121197 0.06764,0.121197 -0.02038,0 -0.147849,-0.01588 -0.282676,-0.03522 l -0.03738,-0.0054 -0.07779,0.136831 c -0.04279,0.07526 -0.07893,0.136832 -0.08032,0.136832 -0.0014,0 -0.03128,-0.0642 -0.06643,-0.142665 z"
     id="path1138-8"
     inkscape:connector-curvature="0" />
  <ellipse
     ry="1.226941"
     rx="1.3288249"
     cy="12.898941"
     cx="2.7814481"
     id="ellipse1140-5"
     style="fill:#ffcc00;fill-opacity:1;stroke:#000000;stroke-width:0.05464512;stroke-opacity:0.02617804" />
  <ellipse
     ry="0.34033525"
     rx="0.32949653"
     cy="12.242115"
     cx="2.4194334"
     id="ellipse1142-0"
     style="fill:#ffdd55;fill-opacity:1;stroke:#000000;stroke-width:0.05464512;stroke-opacity:0.02617804" />
  <ellipse
     style="fill:#ffdd55;fill-opacity:1;stroke:#000000;stroke-width:0.05464512;stroke-opacity:0.02617804"
     id="ellipse1144-6"
     cx="3.2128294"
     cy="12.281136"
     rx="0.32949653"
     ry="0.34033525" />
  <ellipse
     ry="0.34033525"
     rx="0.32949653"
     cy="12.953135"
     cx="3.6420362"
     id="ellipse1146-4"
     style="fill:#ffdd55;fill-opacity:1;stroke:#000000;stroke-width:0.05464512;stroke-opacity:0.02617804" />
  <ellipse
     style="fill:#ffdd55;fill-opacity:1;stroke:#000000;stroke-width:0.05464512;stroke-opacity:0.02617804"
     id="ellipse1148-6"
     cx="3.1347883"
     cy="13.594786"
     rx="0.32949653"
     ry="0.34033525" />
  <ellipse
     ry="0.34033525"
     rx="0.32949653"
     cy="13.581779"
     cx="2.3544004"
     id="ellipse1150-2"
     style="fill:#ffdd55;fill-opacity:1;stroke:#000000;stroke-width:0.05464512;stroke-opacity:0.02617804" />
  <ellipse
     style="fill:#ffdd55;fill-opacity:1;stroke:#000000;stroke-width:0.05464512;stroke-opacity:0.02617804"
     id="ellipse1152-5"
     cx="1.9078443"
     cy="12.948799"
     rx="0.32949653"
     ry="0.34033525" />
  <path
     d="m 3.2843411,13.203041 -0.355872,-0.04817 -0.160043,0.282118 -0.130233,-0.293613 -0.359395,0.01985 0.22564,-0.245439 -0.199353,-0.26227 0.355874,0.04817 0.160041,-0.282117 0.130234,0.293612 0.359395,-0.01985 -0.22564,0.24544 z"
     id="path1154-86"
     style="fill:#aad400;fill-opacity:1;stroke:#000000;stroke-width:0.0473051;stroke-opacity:0.02617804"
     inkscape:connector-curvature="0" />
  <path
     id="path1156-2"
     d="m 2.6603701,14.118945 c -0.231387,-0.01882 -0.458687,-0.09745 -0.650774,-0.225109 -0.08323,-0.05531 -0.135688,-0.098 -0.201362,-0.163871 -0.301798,-0.302676 -0.418655,-0.712491 -0.317721,-1.114235 0.01871,-0.07449 0.04535,-0.145065 0.08473,-0.224542 0.06413,-0.129416 0.140518,-0.23343 0.247015,-0.336372 0.206403,-0.199512 0.459565,-0.32173 0.761109,-0.36744 0.0702,-0.01064 0.250055,-0.01463 0.328597,-0.0073 0.240009,0.02244 0.462162,0.101409 0.655015,0.232837 0.279607,0.19055 0.461317,0.462172 0.52243,0.780934 0.01747,0.09112 0.02179,0.249686 0.0094,0.346695 -0.02696,0.211848 -0.117132,0.421425 -0.253835,0.58999 -0.277288,0.341919 -0.72357,0.525909 -1.184646,0.488398 z m 0.575438,-0.199716 c 0.05143,-0.01769 0.08699,-0.04014 0.127331,-0.08038 0.106561,-0.106285 0.131429,-0.261522 0.06399,-0.399455 -0.042,-0.0859 -0.127323,-0.155672 -0.215905,-0.176553 -0.03617,-0.0085 -0.110389,-0.0098 -0.143497,-0.0024 -0.158936,0.03535 -0.272066,0.188613 -0.261869,0.354773 0.0046,0.07527 0.03256,0.145615 0.0816,0.205466 0.03952,0.04823 0.113746,0.09363 0.176415,0.107895 0.04713,0.01073 0.126065,0.0064 0.171934,-0.0093 z m -0.804889,-0.0059 c 0.09179,-0.02164 0.17411,-0.08938 0.21722,-0.178751 0.03492,-0.07239 0.04452,-0.141656 0.03007,-0.216902 -0.03565,-0.185547 -0.207586,-0.306049 -0.385635,-0.270267 -0.162776,0.03271 -0.275639,0.181848 -0.26683,0.352583 0.0048,0.09276 0.03504,0.159517 0.102663,0.226515 0.04597,0.04555 0.08426,0.06862 0.140582,0.08473 0.03933,0.01125 0.11876,0.01228 0.161934,0.0021 z m 0.415742,-0.611704 c 0.04098,-0.0727 0.07675,-0.13516 0.07948,-0.138802 0.0041,-0.0054 0.03613,-0.0024 0.180264,0.01713 0.129776,0.01758 0.174658,0.02209 0.172843,0.01736 -0.0014,-0.0035 -0.04523,-0.0625 -0.09751,-0.131081 -0.0939,-0.123166 -0.09495,-0.124813 -0.08591,-0.134951 0.005,-0.0056 0.05542,-0.06075 0.111979,-0.122449 0.05655,-0.0617 0.102209,-0.112802 0.101455,-0.113556 -7.56e-4,-7.57e-4 -0.08136,0.0032 -0.179115,0.0088 -0.09776,0.0056 -0.178261,0.0095 -0.178891,0.0087 -6.29e-4,-8.5e-4 -0.02993,-0.06682 -0.06512,-0.146606 -0.03518,-0.07979 -0.06516,-0.14388 -0.06661,-0.14243 -0.0015,0.0014 -0.03768,0.06449 -0.08051,0.140087 l -0.07787,0.13745 -0.01654,-0.0017 c -0.0091,-9.37e-4 -0.08801,-0.01143 -0.175371,-0.0233 -0.08736,-0.01188 -0.159783,-0.02065 -0.160942,-0.01949 -0.0018,0.0018 0.04818,0.06904 0.165133,0.222025 l 0.02936,0.03841 -0.03737,0.04108 c -0.02055,0.02259 -0.07112,0.07782 -0.112375,0.122726 -0.04125,0.04491 -0.07449,0.08212 -0.07386,0.08271 6.28e-4,5.63e-4 0.07268,-0.0031 0.160115,-0.0082 0.08743,-0.0051 0.16794,-0.0093 0.178907,-0.0094 l 0.01994,-2.5e-4 0.06376,0.144064 c 0.03507,0.07924 0.06522,0.144014 0.067,0.143952 0.0018,-1.25e-4 0.03677,-0.05959 0.07775,-0.132291 z m 0.894153,-0.02391 c 0.114219,-0.03834 0.196034,-0.129902 0.222985,-0.249538 0.04397,-0.195215 -0.09186,-0.392538 -0.284376,-0.413109 -0.13987,-0.01494 -0.269428,0.05757 -0.331138,0.185353 -0.05876,0.121674 -0.0457,0.257092 0.03519,0.364694 0.0426,0.05668 0.120047,0.106236 0.191316,0.122433 0.04767,0.01084 0.116618,0.0068 0.166022,-0.0098 z m -1.764489,0.0043 c 0.145127,-0.03221 0.250952,-0.159286 0.260365,-0.31266 0.01001,-0.163043 -0.100034,-0.316417 -0.252867,-0.352448 -0.04018,-0.0095 -0.111953,-0.0095 -0.15213,0 -0.09162,0.0216 -0.173369,0.0888 -0.217228,0.178562 -0.05203,0.106491 -0.04787,0.228941 0.01125,0.330467 0.0228,0.03916 0.07879,0.09611 0.116131,0.118119 0.07121,0.04197 0.15517,0.05556 0.234482,0.03796 z m 1.278264,-0.663105 c 0.132933,-0.01849 0.244305,-0.119659 0.278472,-0.252961 0.01115,-0.0435 0.0112,-0.126515 1e-4,-0.168902 -0.02507,-0.09574 -0.09445,-0.18284 -0.177308,-0.222573 -0.08233,-0.03948 -0.163856,-0.04494 -0.246488,-0.01649 -0.13586,0.04677 -0.225448,0.175325 -0.225448,0.323518 0,0.184709 0.137989,0.331652 0.321303,0.342154 0.0059,3.13e-4 0.02817,-0.0018 0.04937,-0.0047 z m -0.774877,-0.0418 c 0.117151,-0.02241 0.21312,-0.108993 0.252779,-0.22804 0.05965,-0.179057 -0.03922,-0.375039 -0.21867,-0.433474 -0.05678,-0.01849 -0.131911,-0.01849 -0.188878,-1.6e-5 -0.231516,0.0751 -0.310862,0.362176 -0.152778,0.552758 0.04092,0.04933 0.11699,0.09434 0.182689,0.108103 0.04561,0.0096 0.07754,0.0097 0.124858,6.75e-4 z"
     style="fill:#aa8800;fill-opacity:1;stroke:#c87137;stroke-width:0.00496774;stroke-opacity:0.02617804"
     inkscape:connector-curvature="0" />
  <path
     id="path1158-8"
     d="m 2.7032771,13.282648 -0.06391,-0.142664 -0.122415,0.0062 c -0.06733,0.0034 -0.147498,0.0087 -0.178153,0.01181 l -0.05574,0.0056 0.03106,-0.03382 c 0.145982,-0.158974 0.186827,-0.205636 0.186827,-0.213442 0,-0.005 -0.04102,-0.06236 -0.09117,-0.127526 -0.07456,-0.09691 -0.08769,-0.119053 -0.07211,-0.121575 0.01048,-0.0017 0.08685,0.0063 0.169705,0.01783 0.176239,0.02447 0.146083,0.04106 0.243177,-0.133821 0.03636,-0.06549 0.06742,-0.119077 0.06902,-0.119077 0.0016,0 0.03168,0.06423 0.06685,0.142733 l 0.06394,0.142732 0.142653,-0.0063 c 0.07846,-0.0035 0.158615,-0.0088 0.178124,-0.01188 l 0.03547,-0.0056 -0.0214,0.0237 c -0.01177,0.01303 -0.0608,0.06702 -0.108943,0.119963 -0.04815,0.05295 -0.08754,0.09988 -0.08754,0.10429 0,0.0044 0.04118,0.06256 0.09152,0.129218 0.08169,0.10818 0.08895,0.121198 0.06764,0.121198 -0.02038,0 -0.147849,-0.01588 -0.282676,-0.03522 l -0.03738,-0.0054 -0.07779,0.136831 c -0.04279,0.07526 -0.07893,0.136832 -0.08032,0.136832 -0.0014,0 -0.03128,-0.0642 -0.06643,-0.142665 z"
     style="fill:#008000;fill-opacity:1;stroke:#c87137;stroke-width:0.01013419;stroke-opacity:0.02617804"
     inkscape:connector-curvature="0" />
  <ellipse
     style="fill:#ffcc00;fill-opacity:1;stroke:#000000;stroke-width:0.05464512;stroke-opacity:0.02617804"
     id="ellipse1160-4"
     cx="7.1185684"
     cy="2.6716671"
     rx="1.3288249"
     ry="1.226941" />
  <ellipse
     style="fill:#ffdd55;fill-opacity:1;stroke:#000000;stroke-width:0.05464512;stroke-opacity:0.02617804"
     id="ellipse1162-7"
     cx="6.7565536"
     cy="2.014843"
     rx="0.32949653"
     ry="0.34033525" />
  <ellipse
     ry="0.34033525"
     rx="0.32949653"
     cy="2.0538626"
     cx="7.5499496"
     id="ellipse1164-2"
     style="fill:#ffdd55;fill-opacity:1;stroke:#000000;stroke-width:0.05464512;stroke-opacity:0.02617804" />
  <ellipse
     style="fill:#ffdd55;fill-opacity:1;stroke:#000000;stroke-width:0.05464512;stroke-opacity:0.02617804"
     id="ellipse1166-4"
     cx="7.9791641"
     cy="2.7258606"
     rx="0.32949653"
     ry="0.34033525" />
  <ellipse
     ry="0.34033525"
     rx="0.32949653"
     cy="3.3675117"
     cx="7.4719086"
     id="ellipse1168-0"
     style="fill:#ffdd55;fill-opacity:1;stroke:#000000;stroke-width:0.05464512;stroke-opacity:0.02617804" />
  <ellipse
     style="fill:#ffdd55;fill-opacity:1;stroke:#000000;stroke-width:0.05464512;stroke-opacity:0.02617804"
     id="ellipse1170-6"
     cx="6.6915207"
     cy="3.3545055"
     rx="0.32949653"
     ry="0.34033525" />
  <ellipse
     ry="0.34033525"
     rx="0.32949653"
     cy="2.7215252"
     cx="6.2449722"
     id="ellipse1172-2"
     style="fill:#ffdd55;fill-opacity:1;stroke:#000000;stroke-width:0.05464512;stroke-opacity:0.02617804" />
  <path
     style="fill:#aad400;fill-opacity:1;stroke:#000000;stroke-width:0.0473051;stroke-opacity:0.02617804"
     id="path1174-9"
     d="m 7.6214631,2.9757694 -0.355873,-0.04817 -0.160042,0.282118 -0.130233,-0.293612 -0.359396,0.01985 0.22564,-0.24544 -0.199352,-0.262269 0.355873,0.04817 0.160042,-0.282117 0.130234,0.293612 0.359394,-0.01985 -0.22564,0.245439 z"
     inkscape:connector-curvature="0" />
  <path
     style="fill:#aa8800;fill-opacity:1;stroke:#c87137;stroke-width:0.00496774;stroke-opacity:0.02617804"
     d="m 6.9974921,3.8916724 c -0.231388,-0.01882 -0.458688,-0.09745 -0.650774,-0.225109 -0.08323,-0.05531 -0.135689,-0.098 -0.201363,-0.16387 -0.301798,-0.302677 -0.418655,-0.712492 -0.317721,-1.114236 0.01871,-0.07449 0.04535,-0.145064 0.08473,-0.224542 0.06413,-0.129415 0.140517,-0.23343 0.247014,-0.336371 0.206404,-0.199512 0.459566,-0.321731 0.761109,-0.367441 0.0702,-0.01064 0.250056,-0.01463 0.328597,-0.0073 0.24001,0.02244 0.462162,0.101408 0.655016,0.232836 0.279606,0.19055 0.461316,0.462172 0.52243,0.780935 0.01747,0.09112 0.02178,0.249686 0.0094,0.346695 -0.02696,0.211848 -0.117132,0.421424 -0.253835,0.58999 -0.277287,0.341918 -0.72357,0.525908 -1.184645,0.488397 z m 0.575437,-0.199716 c 0.05143,-0.01769 0.08699,-0.04014 0.127331,-0.08038 0.106562,-0.106286 0.131429,-0.261523 0.06399,-0.399455 -0.042,-0.0859 -0.127324,-0.155673 -0.215905,-0.176554 -0.03617,-0.0085 -0.11039,-0.0098 -0.143497,-0.0024 -0.158937,0.03535 -0.272066,0.188613 -0.261869,0.354773 0.0046,0.07527 0.03256,0.145615 0.0816,0.205466 0.03952,0.04823 0.113747,0.09363 0.176415,0.107895 0.04713,0.01073 0.126066,0.0064 0.171934,-0.0093 z m -0.804888,-0.0059 c 0.09179,-0.02164 0.174109,-0.08938 0.21722,-0.178751 0.03492,-0.07239 0.04452,-0.141656 0.03007,-0.216902 -0.03565,-0.185547 -0.207587,-0.306049 -0.385636,-0.270268 -0.162775,0.03271 -0.275639,0.181849 -0.26683,0.352584 0.0048,0.09276 0.03504,0.159517 0.102663,0.226515 0.04597,0.04555 0.08426,0.06862 0.140582,0.08473 0.03934,0.01125 0.11876,0.01228 0.161935,0.0021 z m 0.415741,-0.611704 c 0.04098,-0.0727 0.07675,-0.13516 0.07948,-0.138803 0.0041,-0.0054 0.03613,-0.0024 0.180263,0.01713 0.129776,0.01758 0.174659,0.02209 0.172843,0.01736 -0.0014,-0.0035 -0.04523,-0.0625 -0.09751,-0.131081 -0.0939,-0.123166 -0.09495,-0.124813 -0.08591,-0.134952 0.005,-0.0056 0.05542,-0.06075 0.111978,-0.122448 0.05655,-0.0617 0.10221,-0.112802 0.101456,-0.113556 -7.56e-4,-7.58e-4 -0.08136,0.0032 -0.179116,0.0088 -0.09776,0.0056 -0.17826,0.0095 -0.178891,0.0087 -6.31e-4,-8.48e-4 -0.02993,-0.06682 -0.06512,-0.146606 -0.03518,-0.07979 -0.06516,-0.14388 -0.06661,-0.14243 -0.0014,0.0014 -0.03768,0.06449 -0.08051,0.140087 l -0.07787,0.13745 -0.01654,-0.0017 c -0.0091,-9.38e-4 -0.08801,-0.01142 -0.175372,-0.0233 -0.08736,-0.01188 -0.159782,-0.02065 -0.160941,-0.01949 -0.0018,0.0018 0.04818,0.06904 0.165133,0.222025 l 0.02936,0.03841 -0.03737,0.04108 c -0.02056,0.02259 -0.07112,0.07782 -0.112375,0.122727 -0.04125,0.04491 -0.07449,0.08212 -0.07386,0.08271 6.25e-4,5.75e-4 0.07268,-0.0031 0.160115,-0.0082 0.08743,-0.0051 0.167941,-0.0093 0.178907,-0.0094 l 0.01994,-2.38e-4 0.06376,0.144064 c 0.03507,0.07924 0.06522,0.144014 0.067,0.143952 0.0018,-10e-5 0.03677,-0.05959 0.07775,-0.132291 z m 0.894154,-0.02391 c 0.114218,-0.03834 0.196033,-0.129902 0.222984,-0.249539 0.04398,-0.195214 -0.09186,-0.392537 -0.284375,-0.413108 -0.13987,-0.01495 -0.269428,0.05757 -0.331138,0.185353 -0.05876,0.121674 -0.0457,0.257092 0.03519,0.364694 0.0426,0.05668 0.120048,0.106236 0.191316,0.122433 0.04767,0.01084 0.116619,0.0068 0.166023,-0.0098 z m -1.76449,0.0043 c 0.145127,-0.0322 0.250952,-0.159286 0.260365,-0.31266 0.01001,-0.163042 -0.100033,-0.316416 -0.252867,-0.352448 -0.04018,-0.0095 -0.111952,-0.0095 -0.15213,0 -0.09161,0.0216 -0.173369,0.0888 -0.217228,0.178563 -0.05203,0.10649 -0.04787,0.22894 0.01125,0.330467 0.0228,0.03916 0.07879,0.09611 0.116131,0.118118 0.07121,0.04197 0.15517,0.05556 0.234482,0.03796 z m 1.278265,-0.663105 c 0.132933,-0.01849 0.244305,-0.119659 0.278471,-0.252961 0.01115,-0.0435 0.0112,-0.126515 1.25e-4,-0.168902 -0.02507,-0.09574 -0.09445,-0.182839 -0.177307,-0.222573 -0.08234,-0.03948 -0.163856,-0.04494 -0.246488,-0.01649 -0.13586,0.04677 -0.225448,0.175325 -0.225448,0.323518 0,0.184709 0.137989,0.331653 0.321302,0.342155 0.0059,3.31e-4 0.02817,-0.0018 0.04937,-0.0047 z m -0.774878,-0.0418 c 0.117151,-0.02241 0.213121,-0.108992 0.25278,-0.22804 0.05965,-0.179057 -0.03922,-0.375039 -0.21867,-0.433474 -0.05678,-0.01849 -0.131912,-0.01849 -0.188879,-1.5e-5 -0.231515,0.07509 -0.310862,0.362175 -0.152778,0.552757 0.04092,0.04933 0.11699,0.09435 0.18269,0.108104 0.04561,0.0096 0.07754,0.0097 0.124857,6.71e-4 z"
     id="path1176-90"
     inkscape:connector-curvature="0" />
  <path
     style="fill:#008000;fill-opacity:1;stroke:#c87137;stroke-width:0.01013419;stroke-opacity:0.02617804"
     d="m 7.0403991,3.0553754 -0.06391,-0.142664 -0.122416,0.0062 c -0.06733,0.0034 -0.147498,0.0087 -0.178153,0.01181 l -0.05574,0.0056 0.03106,-0.03382 c 0.145983,-0.158973 0.186827,-0.205636 0.186827,-0.213442 0,-0.005 -0.04102,-0.06236 -0.09116,-0.127526 -0.07456,-0.09691 -0.0877,-0.119052 -0.07211,-0.121575 0.01048,-0.0017 0.08685,0.0063 0.169705,0.01783 0.17624,0.02447 0.146083,0.04106 0.243178,-0.133821 0.03636,-0.06549 0.06742,-0.119076 0.06903,-0.119076 0.0016,0 0.03168,0.06423 0.06685,0.142732 l 0.06394,0.142732 0.142653,-0.0063 c 0.07846,-0.0035 0.158615,-0.0088 0.178123,-0.01188 l 0.03547,-0.0056 -0.0214,0.0237 c -0.01177,0.01303 -0.0608,0.06702 -0.108943,0.119963 -0.04815,0.05295 -0.08754,0.09988 -0.08754,0.10429 0,0.0044 0.04118,0.06256 0.09152,0.129219 0.08169,0.108179 0.08896,0.121197 0.06764,0.121197 -0.02039,0 -0.14785,-0.01588 -0.282677,-0.03522 l -0.03738,-0.0054 -0.07779,0.136831 c -0.04279,0.07526 -0.07893,0.136832 -0.08032,0.136832 -0.0014,0 -0.03129,-0.0642 -0.06643,-0.142665 z"
     id="path1178-8"
     inkscape:connector-curvature="0" />
  <ellipse
     ry="1.226941"
     rx="1.3288249"
     cy="10.304243"
     cx="7.1185684"
     id="ellipse1180-1"
     style="fill:#ffcc00;fill-opacity:1;stroke:#000000;stroke-width:0.05464512;stroke-opacity:0.02617804" />
  <ellipse
     ry="0.34033525"
     rx="0.32949653"
     cy="9.647419"
     cx="6.7565536"
     id="ellipse1182-31"
     style="fill:#ffdd55;fill-opacity:1;stroke:#000000;stroke-width:0.05464512;stroke-opacity:0.02617804" />
  <ellipse
     style="fill:#ffdd55;fill-opacity:1;stroke:#000000;stroke-width:0.05464512;stroke-opacity:0.02617804"
     id="ellipse1184-1"
     cx="7.5499496"
     cy="9.6864376"
     rx="0.32949653"
     ry="0.34033525" />
  <ellipse
     ry="0.34033525"
     rx="0.32949653"
     cy="10.358437"
     cx="7.9791641"
     id="ellipse1186-0"
     style="fill:#ffdd55;fill-opacity:1;stroke:#000000;stroke-width:0.05464512;stroke-opacity:0.02617804" />
  <ellipse
     style="fill:#ffdd55;fill-opacity:1;stroke:#000000;stroke-width:0.05464512;stroke-opacity:0.02617804"
     id="ellipse1188-3"
     cx="7.4719086"
     cy="11.000088"
     rx="0.32949653"
     ry="0.34033525" />
  <ellipse
     ry="0.34033525"
     rx="0.32949653"
     cy="10.987082"
     cx="6.6915207"
     id="ellipse1190-4"
     style="fill:#ffdd55;fill-opacity:1;stroke:#000000;stroke-width:0.05464512;stroke-opacity:0.02617804" />
  <ellipse
     style="fill:#ffdd55;fill-opacity:1;stroke:#000000;stroke-width:0.05464512;stroke-opacity:0.02617804"
     id="ellipse1192-03"
     cx="6.2449722"
     cy="10.354101"
     rx="0.32949653"
     ry="0.34033525" />
  <path
     d="m 7.6214631,10.608345 -0.355873,-0.04817 -0.160042,0.282118 -0.130233,-0.293612 -0.359396,0.01985 0.22564,-0.24544 -0.199352,-0.262269 0.355873,0.04817 0.160042,-0.2821166 0.130234,0.2936116 0.359394,-0.01985 -0.22564,0.245439 z"
     id="path1194-9"
     style="fill:#aad400;fill-opacity:1;stroke:#000000;stroke-width:0.0473051;stroke-opacity:0.02617804"
     inkscape:connector-curvature="0" />
  <path
     id="path1196-1"
     d="m 6.9974921,11.524248 c -0.231388,-0.01882 -0.458688,-0.09745 -0.650774,-0.225108 -0.08323,-0.05531 -0.135689,-0.09801 -0.201363,-0.163871 -0.301798,-0.302677 -0.418655,-0.712492 -0.317721,-1.114236 0.01871,-0.07449 0.04535,-0.1450636 0.08473,-0.2245416 0.06413,-0.129415 0.140517,-0.23343 0.247014,-0.336371 0.206404,-0.199512 0.459566,-0.32173 0.761109,-0.36744 0.0702,-0.01064 0.250056,-0.01463 0.328597,-0.0073 0.24001,0.02244 0.462162,0.101408 0.655016,0.232836 0.279606,0.19055 0.461316,0.462172 0.52243,0.7809346 0.01747,0.09112 0.02178,0.249685 0.0094,0.346695 -0.02696,0.211848 -0.117132,0.421424 -0.253835,0.58999 -0.277287,0.341919 -0.72357,0.525909 -1.184645,0.488397 z m 0.575437,-0.199715 c 0.05143,-0.01769 0.08699,-0.04015 0.127331,-0.08038 0.106562,-0.106286 0.131429,-0.261523 0.06399,-0.399455 -0.042,-0.0859 -0.127324,-0.155673 -0.215905,-0.176554 -0.03617,-0.0085 -0.11039,-0.0098 -0.143497,-0.0024 -0.158937,0.03535 -0.272066,0.188612 -0.261869,0.354772 0.0046,0.07527 0.03256,0.145615 0.0816,0.205466 0.03952,0.04823 0.113747,0.09363 0.176415,0.107895 0.04713,0.01073 0.126066,0.0064 0.171934,-0.0093 z m -0.804888,-0.0059 c 0.09179,-0.02164 0.174109,-0.08938 0.21722,-0.178752 0.03492,-0.07239 0.04452,-0.141656 0.03007,-0.216901 -0.03565,-0.185547 -0.207587,-0.30605 -0.385636,-0.270268 -0.162775,0.03271 -0.275639,0.181849 -0.26683,0.352584 0.0048,0.09276 0.03504,0.159517 0.102663,0.226515 0.04597,0.04555 0.08426,0.06862 0.140582,0.08472 0.03934,0.01125 0.11876,0.01228 0.161935,0.0021 z m 0.415741,-0.611705 c 0.04098,-0.0727 0.07675,-0.135159 0.07948,-0.138802 0.0041,-0.0054 0.03613,-0.0024 0.180263,0.01713 0.129776,0.01758 0.174659,0.02209 0.172843,0.01736 -0.0014,-0.0035 -0.04523,-0.0625 -0.09751,-0.131081 -0.0939,-0.123167 -0.09495,-0.124813 -0.08591,-0.134952 0.005,-0.0056 0.05542,-0.06075 0.111978,-0.122448 0.05655,-0.0617 0.10221,-0.112802 0.101456,-0.113557 -7.56e-4,-7.56e-4 -0.08136,0.0032 -0.179116,0.0088 -0.09776,0.0056 -0.17826,0.0095 -0.178891,0.0087 -6.31e-4,-8.5e-4 -0.02993,-0.06682 -0.06512,-0.1466056 -0.03518,-0.07979 -0.06516,-0.14388 -0.06661,-0.14243 -0.0014,0.0014 -0.03768,0.06449 -0.08051,0.140086 l -0.07787,0.1374506 -0.01654,-0.0017 c -0.0091,-9.37e-4 -0.08801,-0.01142 -0.175372,-0.0233 -0.08736,-0.01188 -0.159782,-0.02065 -0.160941,-0.01949 -0.0018,0.0018 0.04818,0.06903 0.165133,0.222025 l 0.02936,0.03841 -0.03737,0.04108 c -0.02056,0.02259 -0.07112,0.07782 -0.112375,0.122726 -0.04125,0.04491 -0.07449,0.08213 -0.07386,0.08271 6.25e-4,5.62e-4 0.07268,-0.0031 0.160115,-0.0082 0.08743,-0.0051 0.167941,-0.0093 0.178907,-0.0094 l 0.01994,-2.5e-4 0.06376,0.144063 c 0.03507,0.07924 0.06522,0.144014 0.067,0.143953 0.0018,-1.25e-4 0.03677,-0.05959 0.07775,-0.132292 z m 0.894154,-0.02391 c 0.114218,-0.03834 0.196033,-0.129902 0.222984,-0.249539 0.04398,-0.195214 -0.09186,-0.392537 -0.284375,-0.413109 -0.13987,-0.01494 -0.269428,0.05757 -0.331138,0.185354 -0.05876,0.121674 -0.0457,0.257091 0.03519,0.364694 0.0426,0.05667 0.120048,0.106235 0.191316,0.122433 0.04767,0.01083 0.116619,0.0068 0.166023,-0.0098 z m -1.76449,0.0043 c 0.145127,-0.03221 0.250952,-0.159286 0.260365,-0.31266 0.01001,-0.163042 -0.100033,-0.316416 -0.252867,-0.352447 -0.04018,-0.0095 -0.111952,-0.0095 -0.15213,0 -0.09161,0.0216 -0.173369,0.0888 -0.217228,0.178562 -0.05203,0.106491 -0.04787,0.22894 0.01125,0.330467 0.0228,0.03916 0.07879,0.09611 0.116131,0.118118 0.07121,0.04197 0.15517,0.05556 0.234482,0.03796 z m 1.278265,-0.663104 c 0.132933,-0.01849 0.244305,-0.1196596 0.278471,-0.2529606 0.01115,-0.0435 0.0112,-0.126516 1.25e-4,-0.168902 -0.02507,-0.09574 -0.09445,-0.18284 -0.177307,-0.222573 -0.08234,-0.03948 -0.163856,-0.04494 -0.246488,-0.01649 -0.13586,0.04677 -0.225448,0.175325 -0.225448,0.323518 0,0.184709 0.137989,0.3316516 0.321302,0.3421536 0.0059,3.13e-4 0.02817,-0.0018 0.04937,-0.0047 z m -0.774878,-0.0418 c 0.117151,-0.02242 0.213121,-0.108993 0.25278,-0.22804 0.05965,-0.179057 -0.03922,-0.375039 -0.21867,-0.433474 -0.05678,-0.01849 -0.131912,-0.0185 -0.188879,-1.6e-5 -0.231515,0.0751 -0.310862,0.362176 -0.152778,0.552758 0.04092,0.04933 0.11699,0.09434 0.18269,0.108103 0.04561,0.0096 0.07754,0.0097 0.124857,6.75e-4 z"
     style="fill:#aa8800;fill-opacity:1;stroke:#c87137;stroke-width:0.00496774;stroke-opacity:0.02617804"
     inkscape:connector-curvature="0" />
  <path
     id="path1198-9"
     d="m 7.0403991,10.687951 -0.06391,-0.142664 -0.122416,0.0062 c -0.06733,0.0034 -0.147498,0.0087 -0.178153,0.01181 l -0.05574,0.0056 0.03106,-0.03382 c 0.145983,-0.158973 0.186827,-0.205636 0.186827,-0.213441 0,-0.005 -0.04102,-0.06236 -0.09116,-0.127526 -0.07456,-0.09691 -0.0877,-0.119053 -0.07211,-0.121575 0.01048,-0.0017 0.08685,0.0063 0.169705,0.01783 0.17624,0.02447 0.146083,0.04106 0.243178,-0.1338216 0.03636,-0.06549 0.06742,-0.119076 0.06903,-0.119076 0.0016,0 0.03168,0.06423 0.06685,0.142733 l 0.06394,0.1427316 0.142653,-0.0063 c 0.07846,-0.0035 0.158615,-0.0088 0.178123,-0.01188 l 0.03547,-0.0056 -0.0214,0.0237 c -0.01177,0.01303 -0.0608,0.06702 -0.108943,0.119963 -0.04815,0.05295 -0.08754,0.09988 -0.08754,0.104289 0,0.0044 0.04118,0.06256 0.09152,0.129219 0.08169,0.108179 0.08896,0.121197 0.06764,0.121197 -0.02039,0 -0.14785,-0.01588 -0.282677,-0.03522 l -0.03738,-0.0054 -0.07779,0.136831 c -0.04279,0.07526 -0.07893,0.136832 -0.08032,0.136832 -0.0014,0 -0.03129,-0.0642 -0.06643,-0.142665 z"
     style="fill:#008000;fill-opacity:1;stroke:#c87137;stroke-width:0.01013419;stroke-opacity:0.02617804"
     inkscape:connector-curvature="0" />
  <ellipse
     style="fill:#ffcc00;fill-opacity:1;stroke:#000000;stroke-width:0.05464512;stroke-opacity:0.02617804"
     id="ellipse1200-6"
     cx="7.1185684"
     cy="12.898941"
     rx="1.3288249"
     ry="1.226941" />
  <ellipse
     style="fill:#ffdd55;fill-opacity:1;stroke:#000000;stroke-width:0.05464512;stroke-opacity:0.02617804"
     id="ellipse1202-93"
     cx="6.7565536"
     cy="12.242115"
     rx="0.32949653"
     ry="0.34033525" />
  <ellipse
     ry="0.34033525"
     rx="0.32949653"
     cy="12.281136"
     cx="7.5499496"
     id="ellipse1204-3"
     style="fill:#ffdd55;fill-opacity:1;stroke:#000000;stroke-width:0.05464512;stroke-opacity:0.02617804" />
  <ellipse
     style="fill:#ffdd55;fill-opacity:1;stroke:#000000;stroke-width:0.05464512;stroke-opacity:0.02617804"
     id="ellipse1206-8"
     cx="7.9791641"
     cy="12.953135"
     rx="0.32949653"
     ry="0.34033525" />
  <ellipse
     ry="0.34033525"
     rx="0.32949653"
     cy="13.594786"
     cx="7.4719086"
     id="ellipse1208-0"
     style="fill:#ffdd55;fill-opacity:1;stroke:#000000;stroke-width:0.05464512;stroke-opacity:0.02617804" />
  <ellipse
     style="fill:#ffdd55;fill-opacity:1;stroke:#000000;stroke-width:0.05464512;stroke-opacity:0.02617804"
     id="ellipse1210-5"
     cx="6.6915207"
     cy="13.581779"
     rx="0.32949653"
     ry="0.34033525" />
  <ellipse
     ry="0.34033525"
     rx="0.32949653"
     cy="12.948799"
     cx="6.2449722"
     id="ellipse1212-6"
     style="fill:#ffdd55;fill-opacity:1;stroke:#000000;stroke-width:0.05464512;stroke-opacity:0.02617804" />
  <path
     style="fill:#aad400;fill-opacity:1;stroke:#000000;stroke-width:0.0473051;stroke-opacity:0.02617804"
     id="path1214-6"
     d="m 7.6214631,13.203041 -0.355873,-0.04817 -0.160042,0.282118 -0.130233,-0.293613 -0.359396,0.01985 0.22564,-0.245439 -0.199352,-0.26227 0.355873,0.04817 0.160042,-0.282117 0.130234,0.293612 0.359394,-0.01985 -0.22564,0.24544 z"
     inkscape:connector-curvature="0" />
  <path
     style="fill:#aa8800;fill-opacity:1;stroke:#c87137;stroke-width:0.00496774;stroke-opacity:0.02617804"
     d="m 6.9974921,14.118945 c -0.231388,-0.01882 -0.458688,-0.09745 -0.650774,-0.225109 -0.08323,-0.05531 -0.135689,-0.098 -0.201363,-0.163871 -0.301798,-0.302676 -0.418655,-0.712491 -0.317721,-1.114235 0.01871,-0.07449 0.04535,-0.145065 0.08473,-0.224542 0.06413,-0.129416 0.140517,-0.23343 0.247014,-0.336372 0.206404,-0.199512 0.459566,-0.32173 0.761109,-0.36744 0.0702,-0.01064 0.250056,-0.01463 0.328597,-0.0073 0.24001,0.02244 0.462162,0.101409 0.655016,0.232837 0.279606,0.19055 0.461316,0.462172 0.52243,0.780934 0.01747,0.09112 0.02178,0.249686 0.0094,0.346695 -0.02696,0.211848 -0.117132,0.421425 -0.253835,0.58999 -0.277287,0.341919 -0.72357,0.525909 -1.184645,0.488398 z m 0.575437,-0.199716 c 0.05143,-0.01769 0.08699,-0.04014 0.127331,-0.08038 0.106562,-0.106285 0.131429,-0.261522 0.06399,-0.399455 -0.042,-0.0859 -0.127324,-0.155672 -0.215905,-0.176553 -0.03617,-0.0085 -0.11039,-0.0098 -0.143497,-0.0024 -0.158937,0.03535 -0.272066,0.188613 -0.261869,0.354773 0.0046,0.07527 0.03256,0.145615 0.0816,0.205466 0.03952,0.04823 0.113747,0.09363 0.176415,0.107895 0.04713,0.01073 0.126066,0.0064 0.171934,-0.0093 z m -0.804888,-0.0059 c 0.09179,-0.02164 0.174109,-0.08938 0.21722,-0.178751 0.03492,-0.07239 0.04452,-0.141656 0.03007,-0.216902 -0.03565,-0.185547 -0.207587,-0.306049 -0.385636,-0.270267 -0.162775,0.03271 -0.275639,0.181848 -0.26683,0.352583 0.0048,0.09276 0.03504,0.159517 0.102663,0.226515 0.04597,0.04555 0.08426,0.06862 0.140582,0.08473 0.03934,0.01125 0.11876,0.01228 0.161935,0.0021 z m 0.415741,-0.611704 c 0.04098,-0.0727 0.07675,-0.13516 0.07948,-0.138802 0.0041,-0.0054 0.03613,-0.0024 0.180263,0.01713 0.129776,0.01758 0.174659,0.02209 0.172843,0.01736 -0.0014,-0.0035 -0.04523,-0.0625 -0.09751,-0.131081 -0.0939,-0.123166 -0.09495,-0.124813 -0.08591,-0.134951 0.005,-0.0056 0.05542,-0.06075 0.111978,-0.122449 0.05655,-0.0617 0.10221,-0.112802 0.101456,-0.113556 -7.56e-4,-7.57e-4 -0.08136,0.0032 -0.179116,0.0088 -0.09776,0.0056 -0.17826,0.0095 -0.178891,0.0087 -6.31e-4,-8.5e-4 -0.02993,-0.06682 -0.06512,-0.146606 -0.03518,-0.07979 -0.06516,-0.14388 -0.06661,-0.14243 -0.0014,0.0014 -0.03768,0.06449 -0.08051,0.140087 l -0.07787,0.13745 -0.01654,-0.0017 c -0.0091,-9.37e-4 -0.08801,-0.01143 -0.175372,-0.0233 -0.08736,-0.01188 -0.159782,-0.02065 -0.160941,-0.01949 -0.0018,0.0018 0.04818,0.06904 0.165133,0.222025 l 0.02936,0.03841 -0.03737,0.04108 c -0.02056,0.02259 -0.07112,0.07782 -0.112375,0.122726 -0.04125,0.04491 -0.07449,0.08212 -0.07386,0.08271 6.25e-4,5.63e-4 0.07268,-0.0031 0.160115,-0.0082 0.08743,-0.0051 0.167941,-0.0093 0.178907,-0.0094 l 0.01994,-2.5e-4 0.06376,0.144064 c 0.03507,0.07924 0.06522,0.144014 0.067,0.143952 0.0018,-1.25e-4 0.03677,-0.05959 0.07775,-0.132291 z m 0.894154,-0.02391 c 0.114218,-0.03834 0.196033,-0.129902 0.222984,-0.249538 0.04398,-0.195215 -0.09186,-0.392538 -0.284375,-0.413109 -0.13987,-0.01494 -0.269428,0.05757 -0.331138,0.185353 -0.05876,0.121674 -0.0457,0.257092 0.03519,0.364694 0.0426,0.05668 0.120048,0.106236 0.191316,0.122433 0.04767,0.01084 0.116619,0.0068 0.166023,-0.0098 z m -1.76449,0.0043 c 0.145127,-0.03221 0.250952,-0.159286 0.260365,-0.31266 0.01001,-0.163043 -0.100033,-0.316417 -0.252867,-0.352448 -0.04018,-0.0095 -0.111952,-0.0095 -0.15213,0 -0.09161,0.0216 -0.173369,0.0888 -0.217228,0.178562 -0.05203,0.106491 -0.04787,0.228941 0.01125,0.330467 0.0228,0.03916 0.07879,0.09611 0.116131,0.118119 0.07121,0.04197 0.15517,0.05556 0.234482,0.03796 z m 1.278265,-0.663105 c 0.132933,-0.01849 0.244305,-0.119659 0.278471,-0.252961 0.01115,-0.0435 0.0112,-0.126515 1.25e-4,-0.168902 -0.02507,-0.09574 -0.09445,-0.18284 -0.177307,-0.222573 -0.08234,-0.03948 -0.163856,-0.04494 -0.246488,-0.01649 -0.13586,0.04677 -0.225448,0.175325 -0.225448,0.323518 0,0.184709 0.137989,0.331652 0.321302,0.342154 0.0059,3.13e-4 0.02817,-0.0018 0.04937,-0.0047 z m -0.774878,-0.0418 c 0.117151,-0.02241 0.213121,-0.108993 0.25278,-0.22804 0.05965,-0.179057 -0.03922,-0.375039 -0.21867,-0.433474 -0.05678,-0.01849 -0.131912,-0.01849 -0.188879,-1.6e-5 -0.231515,0.0751 -0.310862,0.362176 -0.152778,0.552758 0.04092,0.04933 0.11699,0.09434 0.18269,0.108103 0.04561,0.0096 0.07754,0.0097 0.124857,6.75e-4 z"
     id="path1216-4"
     inkscape:connector-curvature="0" />
  <path
     style="fill:#008000;fill-opacity:1;stroke:#c87137;stroke-width:0.01013419;stroke-opacity:0.02617804"
     d="m 7.0403991,13.282648 -0.06391,-0.142664 -0.122416,0.0062 c -0.06733,0.0034 -0.147498,0.0087 -0.178153,0.01181 l -0.05574,0.0056 0.03106,-0.03382 c 0.145983,-0.158974 0.186827,-0.205636 0.186827,-0.213442 0,-0.005 -0.04102,-0.06236 -0.09116,-0.127526 -0.07456,-0.09691 -0.0877,-0.119053 -0.07211,-0.121575 0.01048,-0.0017 0.08685,0.0063 0.169705,0.01783 0.17624,0.02447 0.146083,0.04106 0.243178,-0.133821 0.03636,-0.06549 0.06742,-0.119077 0.06903,-0.119077 0.0016,0 0.03168,0.06423 0.06685,0.142733 l 0.06394,0.142732 0.142653,-0.0063 c 0.07846,-0.0035 0.158615,-0.0088 0.178123,-0.01188 l 0.03547,-0.0056 -0.0214,0.0237 c -0.01177,0.01303 -0.0608,0.06702 -0.108943,0.119963 -0.04815,0.05295 -0.08754,0.09988 -0.08754,0.10429 0,0.0044 0.04118,0.06256 0.09152,0.129218 0.08169,0.10818 0.08896,0.121198 0.06764,0.121198 -0.02039,0 -0.14785,-0.01588 -0.282677,-0.03522 l -0.03738,-0.0054 -0.07779,0.136831 c -0.04279,0.07526 -0.07893,0.136832 -0.08032,0.136832 -0.0014,0 -0.03129,-0.0642 -0.06643,-0.142665 z"
     id="path1218-00"
     inkscape:connector-curvature="0" />
  <ellipse
     ry="1.226941"
     rx="1.3288249"
     cy="5.3042431"
     cx="2.8003843"
     id="ellipse1220-4"
     style="fill:#ffcc00;fill-opacity:1;stroke:#000000;stroke-width:0.05464512;stroke-opacity:0.02617804" />
  <ellipse
     ry="0.34033525"
     rx="0.32949653"
     cy="4.647419"
     cx="2.4383771"
     id="ellipse1222-6"
     style="fill:#ffdd55;fill-opacity:1;stroke:#000000;stroke-width:0.05464512;stroke-opacity:0.02617804" />
  <ellipse
     style="fill:#ffdd55;fill-opacity:1;stroke:#000000;stroke-width:0.05464512;stroke-opacity:0.02617804"
     id="ellipse1224-2"
     cx="3.2317655"
     cy="4.6864376"
     rx="0.32949653"
     ry="0.34033525" />
  <ellipse
     ry="0.34033525"
     rx="0.32949653"
     cy="5.3584347"
     cx="3.66098"
     id="ellipse1226-6"
     style="fill:#ffdd55;fill-opacity:1;stroke:#000000;stroke-width:0.05464512;stroke-opacity:0.02617804" />
  <ellipse
     style="fill:#ffdd55;fill-opacity:1;stroke:#000000;stroke-width:0.05464512;stroke-opacity:0.02617804"
     id="ellipse1228-7"
     cx="3.1537321"
     cy="6.0000858"
     rx="0.32949653"
     ry="0.34033525" />
  <ellipse
     ry="0.34033525"
     rx="0.32949653"
     cy="5.9870815"
     cx="2.3733442"
     id="ellipse1230-56"
     style="fill:#ffdd55;fill-opacity:1;stroke:#000000;stroke-width:0.05464512;stroke-opacity:0.02617804" />
  <ellipse
     style="fill:#ffdd55;fill-opacity:1;stroke:#000000;stroke-width:0.05464512;stroke-opacity:0.02617804"
     id="ellipse1232-98"
     cx="1.9267881"
     cy="5.3541012"
     rx="0.32949653"
     ry="0.34033525" />
  <path
     d="m 3.3032811,5.6083444 -0.355873,-0.04817 -0.160042,0.282118 -0.130234,-0.293612 -0.359394,0.01985 0.225639,-0.245439 -0.199352,-0.26227 0.355873,0.04817 0.160042,-0.282117 0.130234,0.293612 0.359394,-0.01985 -0.22564,0.245439 z"
     id="path1234-7"
     style="fill:#aad400;fill-opacity:1;stroke:#000000;stroke-width:0.0473051;stroke-opacity:0.02617804"
     inkscape:connector-curvature="0" />
  <path
     id="path1236-2"
     d="m 2.6793101,6.5242484 c -0.231387,-0.01882 -0.458687,-0.09745 -0.650774,-0.225108 -0.08323,-0.05531 -0.135689,-0.09801 -0.201363,-0.163871 -0.301797,-0.302677 -0.418655,-0.712492 -0.317721,-1.114236 0.01871,-0.07449 0.04535,-0.145064 0.08473,-0.224542 0.06413,-0.129415 0.140517,-0.23343 0.247014,-0.336371 0.206404,-0.199512 0.459565,-0.321731 0.76111,-0.367441 0.0702,-0.01064 0.250054,-0.01463 0.328596,-0.0073 0.240009,0.02244 0.462162,0.101409 0.655016,0.232837 0.279606,0.19055 0.461316,0.462172 0.52243,0.780935 0.01747,0.09112 0.02179,0.249686 0.0094,0.346695 -0.02696,0.211848 -0.117132,0.421424 -0.253835,0.58999 -0.277288,0.341919 -0.72357,0.525909 -1.184645,0.488397 z m 0.575437,-0.199715 c 0.05143,-0.01769 0.08699,-0.04015 0.127331,-0.08038 0.106561,-0.106286 0.131429,-0.261523 0.06399,-0.399455 -0.042,-0.0859 -0.127323,-0.155673 -0.215904,-0.176554 -0.03617,-0.0085 -0.11039,-0.0098 -0.143498,-0.0024 -0.158935,0.03535 -0.272065,0.188612 -0.261868,0.354772 0.0046,0.07527 0.03256,0.145615 0.0816,0.205466 0.03952,0.04823 0.113747,0.09363 0.176415,0.107895 0.04713,0.01073 0.126066,0.0064 0.171934,-0.0093 z m -0.804888,-0.0059 c 0.09179,-0.02164 0.174109,-0.08938 0.21722,-0.178752 0.03492,-0.07239 0.04452,-0.141656 0.03007,-0.216902 -0.03565,-0.185546 -0.207586,-0.306049 -0.385636,-0.270267 -0.162775,0.03271 -0.275639,0.181849 -0.26683,0.352584 0.0048,0.09276 0.03504,0.159517 0.102664,0.226515 0.04597,0.04555 0.08426,0.06862 0.140581,0.08472 0.03933,0.01125 0.11876,0.01228 0.161935,0.0021 z m 0.415741,-0.61168 c 0.04098,-0.0727 0.07675,-0.135159 0.07948,-0.138801 0.0041,-0.0054 0.03613,-0.0024 0.180263,0.01713 0.129776,0.01758 0.174659,0.02209 0.172843,0.01736 -0.0014,-0.0035 -0.04523,-0.0625 -0.09751,-0.131081 -0.0939,-0.123166 -0.09495,-0.124813 -0.08591,-0.134951 0.005,-0.0056 0.05542,-0.06075 0.11198,-0.122449 0.05655,-0.0617 0.102208,-0.112802 0.101455,-0.113557 -7.57e-4,-7.56e-4 -0.08136,0.0032 -0.179116,0.0088 -0.09776,0.0056 -0.178261,0.0095 -0.178891,0.0087 -6.29e-4,-8.5e-4 -0.02993,-0.06682 -0.06512,-0.146607 -0.03518,-0.07979 -0.06516,-0.14388 -0.06661,-0.14243 -0.0014,0.0014 -0.03768,0.06449 -0.08051,0.140087 l -0.07787,0.137451 -0.01653,-0.0017 c -0.0091,-9.38e-4 -0.08801,-0.01142 -0.175371,-0.0233 -0.08736,-0.01188 -0.159783,-0.02065 -0.160942,-0.01949 -0.0018,0.0018 0.04818,0.06903 0.165133,0.222025 l 0.02936,0.03841 -0.03737,0.04108 c -0.02056,0.02259 -0.07112,0.07782 -0.112376,0.122727 -0.04125,0.04491 -0.07449,0.08212 -0.07385,0.08271 6.28e-4,5.62e-4 0.07268,-0.0031 0.160115,-0.0082 0.08743,-0.0051 0.167941,-0.0093 0.178908,-0.0094 l 0.01994,-2.5e-4 0.06376,0.144063 c 0.03507,0.07924 0.06522,0.144014 0.067,0.143953 0.0018,-1.25e-4 0.03677,-0.05959 0.07775,-0.132292 z m 0.894154,-0.02391 c 0.114218,-0.03834 0.196033,-0.129902 0.222984,-0.249539 0.04398,-0.195214 -0.09186,-0.392538 -0.284375,-0.413109 -0.139871,-0.01494 -0.269428,0.05757 -0.331139,0.185354 -0.05876,0.121674 -0.0457,0.257091 0.03519,0.364694 0.0426,0.05667 0.120047,0.106235 0.191316,0.122433 0.04767,0.01083 0.116619,0.0068 0.166023,-0.0098 z m -1.764489,0.0043 c 0.145126,-0.03221 0.250952,-0.159285 0.260364,-0.31266 0.01001,-0.163042 -0.100033,-0.316416 -0.252867,-0.352448 -0.04018,-0.0095 -0.111952,-0.0095 -0.152129,0 -0.09162,0.0216 -0.17337,0.0888 -0.217229,0.178563 -0.05203,0.106491 -0.04787,0.22894 0.01125,0.330467 0.0228,0.03916 0.07879,0.09611 0.116131,0.118118 0.07121,0.04197 0.15517,0.05556 0.234483,0.03796 z m 1.278264,-0.663104 c 0.132932,-0.01849 0.244305,-0.11966 0.278471,-0.252961 0.01115,-0.0435 0.0112,-0.126516 1e-4,-0.168903 -0.02507,-0.09574 -0.09445,-0.182839 -0.177307,-0.222572 -0.08234,-0.03948 -0.163857,-0.04494 -0.246489,-0.01649 -0.13586,0.04677 -0.225447,0.175325 -0.225447,0.323518 0,0.184708 0.137989,0.331652 0.321302,0.342154 0.0059,3.13e-4 0.02817,-0.0018 0.04937,-0.0047 z m -0.774878,-0.0418 c 0.117151,-0.02241 0.213121,-0.108992 0.25278,-0.228039 0.05965,-0.179057 -0.03922,-0.375039 -0.21867,-0.433474 -0.05678,-0.01849 -0.131911,-0.0185 -0.188879,-1.6e-5 -0.231515,0.0751 -0.310862,0.362176 -0.152778,0.552758 0.04092,0.04933 0.11699,0.09434 0.18269,0.108103 0.04561,0.0096 0.07754,0.0097 0.124857,6.75e-4 z"
     style="fill:#aa8800;fill-opacity:1;stroke:#c87137;stroke-width:0.00496774;stroke-opacity:0.02617804"
     inkscape:connector-curvature="0" />
  <path
     id="path1238-8"
     d="m 2.7222171,5.6879514 -0.06391,-0.142664 -0.122415,0.0062 c -0.06733,0.0034 -0.147498,0.0087 -0.178153,0.01181 l -0.05574,0.0056 0.03106,-0.03382 c 0.145982,-0.158973 0.186826,-0.205635 0.186826,-0.213441 0,-0.005 -0.04102,-0.06236 -0.09117,-0.127527 -0.07456,-0.09691 -0.08769,-0.119052 -0.07211,-0.121575 0.01048,-0.0017 0.08685,0.0063 0.169704,0.01783 0.176239,0.02447 0.146083,0.04106 0.243178,-0.133822 0.03636,-0.06549 0.06742,-0.119076 0.06902,-0.119076 0.0016,0 0.03168,0.06423 0.06685,0.142733 l 0.06394,0.142731 0.142653,-0.0063 c 0.07846,-0.0035 0.158616,-0.0088 0.178124,-0.01188 l 0.03547,-0.0056 -0.0214,0.0237 c -0.01177,0.01303 -0.0608,0.06702 -0.108944,0.119963 -0.04814,0.05295 -0.08754,0.09988 -0.08754,0.104289 0,0.0044 0.04118,0.06256 0.09152,0.129219 0.08169,0.108179 0.08896,0.121197 0.06764,0.121197 -0.02039,0 -0.14785,-0.01588 -0.282677,-0.03522 l -0.03738,-0.0054 -0.07779,0.136831 c -0.04279,0.07526 -0.07893,0.136832 -0.08032,0.136832 -0.0014,0 -0.03128,-0.0642 -0.06643,-0.142665 z"
     style="fill:#008000;fill-opacity:1;stroke:#c87137;stroke-width:0.01013419;stroke-opacity:0.02617804"
     inkscape:connector-curvature="0" />
  <ellipse
     style="fill:#ffcc00;fill-opacity:1;stroke:#000000;stroke-width:0.05464512;stroke-opacity:0.02617804"
     id="ellipse1259-2"
     cx="7.1185684"
     cy="5.3042431"
     rx="1.3288249"
     ry="1.226941" />
  <ellipse
     style="fill:#ffdd55;fill-opacity:1;stroke:#000000;stroke-width:0.05464512;stroke-opacity:0.02617804"
     id="ellipse1261-9"
     cx="6.7565536"
     cy="4.647419"
     rx="0.32949653"
     ry="0.34033525" />
  <ellipse
     ry="0.34033525"
     rx="0.32949653"
     cy="4.6864376"
     cx="7.5499496"
     id="ellipse1263-9"
     style="fill:#ffdd55;fill-opacity:1;stroke:#000000;stroke-width:0.05464512;stroke-opacity:0.02617804" />
  <ellipse
     style="fill:#ffdd55;fill-opacity:1;stroke:#000000;stroke-width:0.05464512;stroke-opacity:0.02617804"
     id="ellipse1265-6"
     cx="7.9791641"
     cy="5.3584347"
     rx="0.32949653"
     ry="0.34033525" />
  <ellipse
     ry="0.34033525"
     rx="0.32949653"
     cy="6.0000858"
     cx="7.4719086"
     id="ellipse1267-0"
     style="fill:#ffdd55;fill-opacity:1;stroke:#000000;stroke-width:0.05464512;stroke-opacity:0.02617804" />
  <ellipse
     style="fill:#ffdd55;fill-opacity:1;stroke:#000000;stroke-width:0.05464512;stroke-opacity:0.02617804"
     id="ellipse1269-2"
     cx="6.6915207"
     cy="5.9870815"
     rx="0.32949653"
     ry="0.34033525" />
  <ellipse
     ry="0.34033525"
     rx="0.32949653"
     cy="5.3541012"
     cx="6.2449722"
     id="ellipse1271-7"
     style="fill:#ffdd55;fill-opacity:1;stroke:#000000;stroke-width:0.05464512;stroke-opacity:0.02617804" />
  <path
     style="fill:#aad400;fill-opacity:1;stroke:#000000;stroke-width:0.0473051;stroke-opacity:0.02617804"
     id="path1273-6"
     d="m 7.6214631,5.6083444 -0.355873,-0.04817 -0.160042,0.282118 -0.130233,-0.293612 -0.359396,0.01985 0.22564,-0.245439 -0.199352,-0.26227 0.355873,0.04817 0.160042,-0.282117 0.130234,0.293612 0.359394,-0.01985 -0.22564,0.245439 z"
     inkscape:connector-curvature="0" />
  <path
     style="fill:#aa8800;fill-opacity:1;stroke:#c87137;stroke-width:0.00496774;stroke-opacity:0.02617804"
     d="m 6.9974921,6.5242484 c -0.231388,-0.01882 -0.458688,-0.09745 -0.650774,-0.225108 -0.08323,-0.05531 -0.135689,-0.09801 -0.201363,-0.163871 -0.301798,-0.302677 -0.418655,-0.712492 -0.317721,-1.114236 0.01871,-0.07449 0.04535,-0.145064 0.08473,-0.224542 0.06413,-0.129415 0.140517,-0.23343 0.247014,-0.336371 0.206404,-0.199512 0.459566,-0.321731 0.761109,-0.367441 0.0702,-0.01064 0.250056,-0.01463 0.328597,-0.0073 0.24001,0.02244 0.462162,0.101409 0.655016,0.232837 0.279606,0.19055 0.461316,0.462172 0.52243,0.780935 0.01747,0.09112 0.02178,0.249686 0.0094,0.346695 -0.02696,0.211848 -0.117132,0.421424 -0.253835,0.58999 -0.277287,0.341919 -0.72357,0.525909 -1.184645,0.488397 z m 0.575437,-0.199715 c 0.05143,-0.01769 0.08699,-0.04015 0.127331,-0.08038 0.106562,-0.106286 0.131429,-0.261523 0.06399,-0.399455 -0.042,-0.0859 -0.127324,-0.155673 -0.215905,-0.176554 -0.03617,-0.0085 -0.11039,-0.0098 -0.143497,-0.0024 -0.158937,0.03535 -0.272066,0.188612 -0.261869,0.354772 0.0046,0.07527 0.03256,0.145615 0.0816,0.205466 0.03952,0.04823 0.113747,0.09363 0.176415,0.107895 0.04713,0.01073 0.126066,0.0064 0.171934,-0.0093 z m -0.804888,-0.0059 c 0.09179,-0.02164 0.174109,-0.08938 0.21722,-0.178752 0.03492,-0.07239 0.04452,-0.141656 0.03007,-0.216902 -0.03565,-0.185546 -0.207587,-0.306049 -0.385636,-0.270267 -0.162775,0.03271 -0.275639,0.181849 -0.26683,0.352584 0.0048,0.09276 0.03504,0.159517 0.102663,0.226515 0.04597,0.04555 0.08426,0.06862 0.140582,0.08472 0.03934,0.01125 0.11876,0.01228 0.161935,0.0021 z m 0.415741,-0.611705 c 0.04098,-0.0727 0.07675,-0.135159 0.07948,-0.138801 0.0041,-0.0054 0.03613,-0.0024 0.180263,0.01713 0.129776,0.01758 0.174659,0.02209 0.172843,0.01736 -0.0014,-0.0035 -0.04523,-0.0625 -0.09751,-0.131081 -0.0939,-0.123166 -0.09495,-0.124813 -0.08591,-0.134951 0.005,-0.0056 0.05542,-0.06075 0.111978,-0.122449 0.05655,-0.0617 0.10221,-0.112802 0.101456,-0.113557 -7.56e-4,-7.56e-4 -0.08136,0.0032 -0.179116,0.0088 -0.09776,0.0056 -0.17826,0.0095 -0.178891,0.0087 -6.31e-4,-8.5e-4 -0.02993,-0.06682 -0.06512,-0.146607 -0.03518,-0.07979 -0.06516,-0.14388 -0.06661,-0.14243 -0.0014,0.0014 -0.03768,0.06449 -0.08051,0.140087 l -0.07787,0.137451 -0.01654,-0.0017 c -0.0091,-9.38e-4 -0.08801,-0.01142 -0.175372,-0.0233 -0.08736,-0.01188 -0.159782,-0.02065 -0.160941,-0.01949 -0.0018,0.0018 0.04818,0.06903 0.165133,0.222025 l 0.02936,0.03841 -0.03737,0.04108 c -0.02056,0.02259 -0.07112,0.07782 -0.112375,0.122727 -0.04125,0.04491 -0.07449,0.08212 -0.07386,0.08271 6.25e-4,5.62e-4 0.07268,-0.0031 0.160115,-0.0082 0.08743,-0.0051 0.167941,-0.0093 0.178907,-0.0094 l 0.01994,-2.5e-4 0.06376,0.144063 c 0.03507,0.07924 0.06522,0.144014 0.067,0.143953 0.0018,-1.25e-4 0.03677,-0.05959 0.07775,-0.132292 z m 0.894154,-0.02391 c 0.114218,-0.03834 0.196033,-0.129902 0.222984,-0.249539 0.04398,-0.195214 -0.09186,-0.392538 -0.284375,-0.413109 -0.13987,-0.01494 -0.269428,0.05757 -0.331138,0.185354 -0.05876,0.121674 -0.0457,0.257091 0.03519,0.364694 0.0426,0.05667 0.120048,0.106235 0.191316,0.122433 0.04767,0.01083 0.116619,0.0068 0.166023,-0.0098 z m -1.76449,0.0043 c 0.145127,-0.03221 0.250952,-0.159285 0.260365,-0.31266 0.01001,-0.163042 -0.100033,-0.316416 -0.252867,-0.352448 -0.04018,-0.0095 -0.111952,-0.0095 -0.15213,0 -0.09161,0.0216 -0.173369,0.0888 -0.217228,0.178563 -0.05203,0.106491 -0.04787,0.22894 0.01125,0.330467 0.0228,0.03916 0.07879,0.09611 0.116131,0.118118 0.07121,0.04197 0.15517,0.05556 0.234482,0.03796 z m 1.278265,-0.663104 c 0.132933,-0.01849 0.244305,-0.11966 0.278471,-0.252961 0.01115,-0.0435 0.0112,-0.126516 1.25e-4,-0.168903 -0.02507,-0.09574 -0.09445,-0.182839 -0.177307,-0.222572 -0.08234,-0.03948 -0.163856,-0.04494 -0.246488,-0.01649 -0.13586,0.04677 -0.225448,0.175325 -0.225448,0.323518 0,0.184708 0.137989,0.331652 0.321302,0.342154 0.0059,3.13e-4 0.02817,-0.0018 0.04937,-0.0047 z m -0.774878,-0.0418 c 0.117151,-0.02241 0.213121,-0.108992 0.25278,-0.228039 0.05965,-0.179057 -0.03922,-0.375039 -0.21867,-0.433474 -0.05678,-0.01849 -0.131912,-0.0185 -0.188879,-1.6e-5 -0.231515,0.0751 -0.310862,0.362176 -0.152778,0.552758 0.04092,0.04933 0.11699,0.09434 0.18269,0.108103 0.04561,0.0096 0.07754,0.0097 0.124857,6.75e-4 z"
     id="path1275-1"
     inkscape:connector-curvature="0" />
  <path
     style="fill:#008000;fill-opacity:1;stroke:#c87137;stroke-width:0.01013419;stroke-opacity:0.02617804"
     d="m 7.0403991,5.6879514 -0.06391,-0.142664 -0.122416,0.0062 c -0.06733,0.0034 -0.147498,0.0087 -0.178153,0.01181 l -0.05574,0.0056 0.03106,-0.03382 c 0.145983,-0.158973 0.186827,-0.205635 0.186827,-0.213441 0,-0.005 -0.04102,-0.06236 -0.09116,-0.127527 -0.07456,-0.09691 -0.0877,-0.119052 -0.07211,-0.121575 0.01048,-0.0017 0.08685,0.0063 0.169705,0.01783 0.17624,0.02447 0.146083,0.04106 0.243178,-0.133822 0.03636,-0.06549 0.06742,-0.119076 0.06903,-0.119076 0.0016,0 0.03168,0.06423 0.06685,0.142733 l 0.06394,0.142731 0.142653,-0.0063 c 0.07846,-0.0035 0.158615,-0.0088 0.178123,-0.01188 l 0.03547,-0.0056 -0.0214,0.0237 c -0.01177,0.01303 -0.0608,0.06702 -0.108943,0.119963 -0.04815,0.05295 -0.08754,0.09988 -0.08754,0.104289 0,0.0044 0.04118,0.06256 0.09152,0.129219 0.08169,0.108179 0.08896,0.121197 0.06764,0.121197 -0.02039,0 -0.14785,-0.01588 -0.282677,-0.03522 l -0.03738,-0.0054 -0.07779,0.136831 c -0.04279,0.07526 -0.07893,0.136832 -0.08032,0.136832 -0.0014,0 -0.03129,-0.0642 -0.06643,-0.142665 z"
     id="path1277-3"
     inkscape:connector-curvature="0" />
  <ellipse
     style="fill:#ffcc00;fill-opacity:1;stroke:#000000;stroke-width:0.05464512;stroke-opacity:0.02617804"
     id="ellipse1298"
     cx="4.9594803"
     cy="7.6716671"
     rx="1.3288249"
     ry="1.226941" />
  <ellipse
     style="fill:#ffdd55;fill-opacity:1;stroke:#000000;stroke-width:0.05464512;stroke-opacity:0.02617804"
     id="ellipse1300"
     cx="4.5974655"
     cy="7.014843"
     rx="0.32949653"
     ry="0.34033525" />
  <ellipse
     ry="0.34033525"
     rx="0.32949653"
     cy="7.0538635"
     cx="5.3908615"
     id="ellipse1302"
     style="fill:#ffdd55;fill-opacity:1;stroke:#000000;stroke-width:0.05464512;stroke-opacity:0.02617804" />
  <ellipse
     style="fill:#ffdd55;fill-opacity:1;stroke:#000000;stroke-width:0.05464512;stroke-opacity:0.02617804"
     id="ellipse1304"
     cx="5.8200684"
     cy="7.7258606"
     rx="0.32949653"
     ry="0.34033525" />
  <ellipse
     ry="0.34033525"
     rx="0.32949653"
     cy="8.3675117"
     cx="5.3128204"
     id="ellipse1306"
     style="fill:#ffdd55;fill-opacity:1;stroke:#000000;stroke-width:0.05464512;stroke-opacity:0.02617804" />
  <ellipse
     style="fill:#ffdd55;fill-opacity:1;stroke:#000000;stroke-width:0.05464512;stroke-opacity:0.02617804"
     id="ellipse1308"
     cx="4.5324326"
     cy="8.3545055"
     rx="0.32949653"
     ry="0.34033525" />
  <ellipse
     ry="0.34033525"
     rx="0.32949653"
     cy="7.7215252"
     cx="4.0858765"
     id="ellipse1310"
     style="fill:#ffdd55;fill-opacity:1;stroke:#000000;stroke-width:0.05464512;stroke-opacity:0.02617804" />
  <path
     style="fill:#aad400;fill-opacity:1;stroke:#000000;stroke-width:0.0473051;stroke-opacity:0.02617804"
     id="path1312"
     d="m 5.4623721,7.9757694 -0.355873,-0.04817 -0.160042,0.282119 -0.130233,-0.293613 -0.359395,0.01985 0.225639,-0.245439 -0.199352,-0.26227 0.355873,0.04817 0.160041,-0.282117 0.130235,0.293612 0.359394,-0.01985 -0.22564,0.24544 z"
     inkscape:connector-curvature="0" />
  <path
     style="fill:#aa8800;fill-opacity:1;stroke:#c87137;stroke-width:0.00496774;stroke-opacity:0.02617804"
     d="m 4.8384001,8.8916734 c -0.231386,-0.01882 -0.458686,-0.09745 -0.650773,-0.225109 -0.08323,-0.05531 -0.135689,-0.098 -0.201363,-0.163871 -0.301798,-0.302677 -0.418655,-0.712492 -0.317721,-1.114235 0.01871,-0.07449 0.04535,-0.145065 0.08473,-0.224542 0.06413,-0.129416 0.140517,-0.23343 0.247014,-0.336371 0.206404,-0.199513 0.459566,-0.321731 0.761109,-0.367441 0.0702,-0.01064 0.250055,-0.01463 0.328597,-0.0073 0.24001,0.02244 0.462162,0.101409 0.655016,0.232837 0.279606,0.19055 0.461316,0.462172 0.52243,0.780934 0.01747,0.09112 0.02179,0.249686 0.0094,0.346695 -0.02696,0.211848 -0.117132,0.421425 -0.253835,0.58999 -0.277287,0.341919 -0.72357,0.525909 -1.184646,0.488398 z m 0.575438,-0.199716 c 0.05143,-0.01769 0.08699,-0.04014 0.127331,-0.08038 0.106561,-0.106285 0.131429,-0.261522 0.06399,-0.399455 -0.042,-0.0859 -0.127323,-0.155672 -0.215904,-0.176553 -0.03617,-0.0085 -0.11039,-0.0098 -0.143498,-0.0024 -0.158936,0.03535 -0.272065,0.188613 -0.261868,0.354773 0.0046,0.07527 0.03256,0.145615 0.0816,0.205466 0.03952,0.04823 0.113746,0.09362 0.176415,0.107895 0.04713,0.01073 0.126066,0.0064 0.171934,-0.0093 z m -0.804888,-0.0059 c 0.09179,-0.02164 0.174109,-0.08938 0.21722,-0.178751 0.03492,-0.07239 0.04452,-0.141656 0.03006,-0.216902 -0.03565,-0.185547 -0.207586,-0.306049 -0.385635,-0.270268 -0.162775,0.03271 -0.275639,0.181849 -0.26683,0.352584 0.0048,0.09276 0.03504,0.159517 0.102664,0.226515 0.04597,0.04555 0.08426,0.06862 0.140581,0.08472 0.03933,0.01125 0.11876,0.01228 0.161935,0.0021 z m 0.415741,-0.611704 c 0.04098,-0.0727 0.07675,-0.13516 0.07948,-0.138802 0.0041,-0.0054 0.03613,-0.0024 0.180263,0.01713 0.129776,0.01758 0.174659,0.02209 0.172843,0.01736 -0.0013,-0.0035 -0.04523,-0.0625 -0.09751,-0.131081 -0.0939,-0.123166 -0.09495,-0.124813 -0.08591,-0.134951 0.005,-0.0056 0.05542,-0.06075 0.111979,-0.122449 0.05656,-0.0617 0.10221,-0.112802 0.101456,-0.113556 -7.56e-4,-7.56e-4 -0.08136,0.0032 -0.179116,0.0088 -0.09776,0.0056 -0.17826,0.0095 -0.178891,0.0087 -6.31e-4,-8.5e-4 -0.02993,-0.06682 -0.06512,-0.146606 -0.03518,-0.07979 -0.06516,-0.14388 -0.06661,-0.14243 -0.0015,0.0014 -0.03768,0.06449 -0.08051,0.140087 l -0.07787,0.13745 -0.01653,-0.0017 c -0.0091,-9.37e-4 -0.08801,-0.01143 -0.175371,-0.0233 -0.08736,-0.01188 -0.159783,-0.02065 -0.160942,-0.01949 -0.0018,0.0018 0.04818,0.06904 0.165133,0.222025 l 0.02936,0.03841 -0.03737,0.04108 c -0.02056,0.02259 -0.07112,0.07782 -0.112375,0.122726 -0.04125,0.04491 -0.07449,0.08212 -0.07386,0.08271 6.25e-4,5.63e-4 0.07268,-0.0031 0.160115,-0.0082 0.08743,-0.0051 0.167941,-0.0093 0.178908,-0.0094 l 0.01994,-2.5e-4 0.06376,0.144064 c 0.03507,0.07924 0.06522,0.144014 0.067,0.143952 0.0018,-1.25e-4 0.03677,-0.05959 0.07775,-0.132292 z m 0.894154,-0.02391 c 0.114218,-0.03834 0.196033,-0.129902 0.222984,-0.249539 0.04398,-0.195214 -0.09186,-0.392537 -0.284375,-0.413108 -0.13987,-0.01495 -0.269429,0.05757 -0.331139,0.185353 -0.05876,0.121674 -0.04569,0.257092 0.03519,0.364694 0.0426,0.05668 0.120048,0.106236 0.191316,0.122433 0.04767,0.01084 0.116619,0.0068 0.166023,-0.0098 z m -1.76449,0.0043 c 0.145127,-0.0322 0.250952,-0.159285 0.260365,-0.31266 0.01001,-0.163041 -0.100033,-0.316416 -0.252867,-0.352447 -0.04018,-0.0095 -0.111952,-0.0095 -0.15213,0 -0.09162,0.0216 -0.173369,0.0888 -0.217228,0.178562 -0.05203,0.106491 -0.04787,0.22894 0.01125,0.330467 0.0228,0.03916 0.07879,0.09612 0.116131,0.118118 0.07121,0.04197 0.15517,0.05556 0.234482,0.03796 z m 1.278265,-0.663104 c 0.132932,-0.01849 0.244305,-0.119659 0.278471,-0.252961 0.01115,-0.0435 0.0112,-0.126515 1.25e-4,-0.168902 -0.02507,-0.09574 -0.09445,-0.182839 -0.177307,-0.222573 -0.08234,-0.03948 -0.163857,-0.04494 -0.246489,-0.01649 -0.13586,0.04677 -0.225447,0.175325 -0.225447,0.323518 0,0.184709 0.137989,0.331652 0.321302,0.342155 0.0059,3.12e-4 0.02817,-0.0018 0.04937,-0.0047 z m -0.774878,-0.0418 c 0.117151,-0.02241 0.213121,-0.108993 0.25278,-0.228039 0.05965,-0.179058 -0.03922,-0.37504 -0.21867,-0.433475 -0.05678,-0.01849 -0.131912,-0.01849 -0.188879,-1.5e-5 -0.231515,0.0751 -0.310862,0.362175 -0.152778,0.552757 0.04092,0.04933 0.11699,0.09434 0.18269,0.108103 0.04561,0.0096 0.07754,0.0097 0.124857,6.75e-4 z"
     id="path1314"
     inkscape:connector-curvature="0" />
  <path
     style="fill:#008000;fill-opacity:1;stroke:#c87137;stroke-width:0.01013419;stroke-opacity:0.02617804"
     d="m 4.8813071,8.0553764 -0.06391,-0.142665 -0.122415,0.0062 c -0.06733,0.0034 -0.147498,0.0087 -0.178153,0.01181 l -0.05574,0.0056 0.03106,-0.03382 c 0.145983,-0.158973 0.186827,-0.205635 0.186827,-0.213441 0,-0.005 -0.04102,-0.06236 -0.09117,-0.127526 -0.07456,-0.09691 -0.08769,-0.119053 -0.07211,-0.121575 0.01048,-0.0017 0.08684,0.0063 0.169704,0.01783 0.176239,0.02447 0.146083,0.04106 0.243178,-0.133821 0.03636,-0.06549 0.06742,-0.119076 0.06902,-0.119076 0.0016,0 0.03168,0.06423 0.06685,0.142732 l 0.06394,0.142732 0.142653,-0.0063 c 0.07846,-0.0035 0.158615,-0.0088 0.178124,-0.01188 l 0.03547,-0.0056 -0.0214,0.0237 c -0.01177,0.01303 -0.0608,0.06702 -0.108943,0.119963 -0.04815,0.05295 -0.08754,0.09988 -0.08754,0.10429 0,0.0044 0.04118,0.06256 0.09152,0.129218 0.08169,0.10818 0.08896,0.121198 0.06764,0.121198 -0.02039,0 -0.14785,-0.01588 -0.282677,-0.03522 l -0.03738,-0.0054 -0.07779,0.136832 c -0.04279,0.07526 -0.07893,0.136832 -0.08032,0.136832 -0.0014,0 -0.03128,-0.0642 -0.06644,-0.142665 z"
     id="path1316"
     inkscape:connector-curvature="0" />
</svg>
