<?xml version="1.0" encoding="UTF-8" standalone="no"?>
<svg
   xmlns:dc="http://purl.org/dc/elements/1.1/"
   xmlns:cc="http://creativecommons.org/ns#"
   xmlns:rdf="http://www.w3.org/1999/02/22-rdf-syntax-ns#"
   xmlns:svg="http://www.w3.org/2000/svg"
   xmlns="http://www.w3.org/2000/svg"
   xmlns:xlink="http://www.w3.org/1999/xlink"
   xmlns:sodipodi="http://sodipodi.sourceforge.net/DTD/sodipodi-0.dtd"
   xmlns:inkscape="http://www.inkscape.org/namespaces/inkscape"
   viewBox="0 0 160 250"
   height="250"
   width="160"
   id="svg815"
   version="1.1"
   sodipodi:docname="swords04.svg"
   inkscape:version="0.92.5 (2060ec1f9f, 2020-04-08)">
  <sodipodi:namedview
     pagecolor="#ffffff"
     bordercolor="#666666"
     borderopacity="1"
     objecttolerance="10"
     gridtolerance="10"
     guidetolerance="10"
     inkscape:pageopacity="0"
     inkscape:pageshadow="2"
     inkscape:window-width="1918"
     inkscape:window-height="1017"
     id="namedview12042"
     showgrid="false"
     inkscape:zoom="13.108333"
     inkscape:cx="57.878788"
     inkscape:cy="236.81818"
     inkscape:window-x="0"
     inkscape:window-y="0"
     inkscape:window-maximized="1"
     inkscape:current-layer="svg815"
     inkscape:snap-page="true" />
  <metadata
     id="metadata821">
    <rdf:RDF>
      <cc:Work
         rdf:about="">
        <dc:format>image/svg+xml</dc:format>
        <dc:type
           rdf:resource="http://purl.org/dc/dcmitype/StillImage" />
        <dc:title></dc:title>
      </cc:Work>
    </rdf:RDF>
  </metadata>
  <defs
     id="defs819">
    <linearGradient
       gradientTransform="matrix(0.0625,0,0,0.0625,89.999996,7.4115112e-6)"
       gradientUnits="userSpaceOnUse"
       y2="68.472336"
       x2="56.128345"
       y1="63.697319"
       x1="61.166279"
       id="linearGradient876"
       xlink:href="#linearGradient882" />
    <linearGradient
       id="linearGradient882">
      <stop
         style="stop-color:#d16208;stop-opacity:1"
         offset="0"
         id="stop878" />
      <stop
         style="stop-color:#d16250;stop-opacity:0;"
         offset="1"
         id="stop880" />
    </linearGradient>
    <linearGradient
       gradientTransform="matrix(0.0625,0,0,0.0625,89.999996,7.4115112e-6)"
       gradientUnits="userSpaceOnUse"
       y2="71.008263"
       x2="88.849586"
       y1="58.644627"
       x1="82.105782"
       id="linearGradient1063"
       xlink:href="#linearGradient882" />
    <linearGradient
       gradientTransform="matrix(0.0625,0,0,0.0625,110,0)"
       xlink:href="#linearGradient846"
       id="linearGradient848"
       x1="72.37397"
       y1="53.171356"
       x2="72.19931"
       y2="45.564011"
       gradientUnits="userSpaceOnUse" />
    <linearGradient
       id="linearGradient846">
      <stop
         style="stop-color:#423abf;stop-opacity:1;"
         offset="0"
         id="stop842" />
      <stop
         style="stop-color:#423abf;stop-opacity:0;"
         offset="1"
         id="stop844" />
    </linearGradient>
  </defs>
  <flowRoot
     transform="matrix(0.125,0,0,0.125,70,109.375)"
     xml:space="preserve"
     id="flowRoot100"
     style="font-style:normal;font-variant:normal;font-weight:bold;font-stretch:normal;font-size:16px;line-height:1.25;font-family:'DejaVu Sans';-inkscape-font-specification:'DejaVu Sans Bold';letter-spacing:0px;word-spacing:0px;fill:#000000;fill-opacity:1;stroke:none"><flowRegion
       id="flowRegion102"><rect
         id="rect104"
         width="24.242424"
         height="21.818182"
         x="10.606061"
         y="11.818182" /></flowRegion><flowPara
       id="flowPara106" /></flowRoot>  <flowRoot
     transform="matrix(0.0625,0,0,0.0625,9.9999996,7.0251474e-8)"
     xml:space="preserve"
     id="flowRoot100-6"
     style="font-style:normal;font-variant:normal;font-weight:bold;font-stretch:normal;font-size:16px;line-height:1.25;font-family:'DejaVu Sans';-inkscape-font-specification:'DejaVu Sans Bold';letter-spacing:0px;word-spacing:0px;fill:#000000;fill-opacity:1;stroke:none"><flowRegion
       id="flowRegion102-2"><rect
         id="rect104-9"
         width="24.242424"
         height="21.818182"
         x="10.606061"
         y="11.818182" /></flowRegion><flowPara
       id="flowPara106-1" /></flowRoot>  <flowRoot
     transform="matrix(0.0625,0,0,0.0625,20,1.5827638e-7)"
     xml:space="preserve"
     id="flowRoot100-2"
     style="font-style:normal;font-variant:normal;font-weight:bold;font-stretch:normal;font-size:16px;line-height:1.25;font-family:'DejaVu Sans';-inkscape-font-specification:'DejaVu Sans Bold';letter-spacing:0px;word-spacing:0px;fill:#000000;fill-opacity:1;stroke:none"><flowRegion
       id="flowRegion102-6"><rect
         id="rect104-1"
         width="24.242424"
         height="21.818182"
         x="10.606061"
         y="11.818182" /></flowRegion><flowPara
       id="flowPara106-8" /></flowRoot>  <rect
     style="fill:#ffffff;fill-opacity:1;stroke:#1a1a1a;stroke-width:0.0625;stroke-opacity:1"
     id="swords04"
     width="10"
     height="15.625"
     x="0"
     y="0" />
  <path
     id="path825-92"
     d="m 2.7970436,3.6307799 0.118653,-0.2292098 1.516903,2.6118098 0.112727,0.531 -0.115868,-0.12289 z"
     style="fill:#00aad4;fill-opacity:1;stroke:#000000;stroke-width:0.05703129;stroke-opacity:0.02617804"
     inkscape:connector-curvature="0" />
  <path
     id="path827-2"
     d="m 2.7970436,3.6307799 -0.08877,0.20187 1.557344,2.65523 0.128326,0.0473 0.151381,0.009 -0.205341,-0.35816 -1.542942,-2.55544"
     style="fill:#006680;fill-opacity:1;stroke:#000000;stroke-width:0.05703129;stroke-opacity:0.02617804"
     inkscape:connector-curvature="0" />
  <path
     id="path829-8"
     d="m 2.1842036,3.6996799 0.05758,0.3773 0.191354,0.10641 0.275138,-0.35074 0.08877,-0.20187 0.118653,-0.2292098 0.195561,-0.46972 -0.04536,-0.39467 -0.230253,-0.0461 -0.176586,0.42761 -0.262034,0.45321 z"
     style="fill:#c8ab37;fill-opacity:1;stroke:#000000;stroke-width:0.05703129;stroke-opacity:0.02617804"
     inkscape:connector-curvature="0" />
  <ellipse
     transform="matrix(0.99373929,-0.11172385,0.2006964,0.97965349,0,0)"
     ry="0.31112537"
     rx="0.19005238"
     cy="1.9740337"
     cx="1.3602761"
     id="path833-9"
     style="fill:#c8ab37;fill-opacity:1;stroke:#000000;stroke-width:0.05714734;stroke-opacity:0.02617804" />
  <path
     id="path835-7"
     d="m 1.9390846,1.7636901 0.693286,1.19801 -0.221533,0.40068 -0.814577,-1.43551 0.107661,0.12583 0.109499,0.0166 0.08509,-0.0392 0.04416,-0.10427 z"
     style="fill:#d40000;fill-opacity:1;stroke:#000000;stroke-width:0.05703129;stroke-opacity:0.02617804"
     inkscape:connector-curvature="0" />
  <flowRoot
     transform="matrix(0.0625,0,0,0.0625,30,7.89978e-8)"
     xml:space="preserve"
     id="flowRoot100-3"
     style="font-style:normal;font-variant:normal;font-weight:bold;font-stretch:normal;font-size:16px;line-height:1.25;font-family:'DejaVu Sans';-inkscape-font-specification:'DejaVu Sans Bold';letter-spacing:0px;word-spacing:0px;fill:#000000;fill-opacity:1;stroke:none"><flowRegion
       id="flowRegion102-61"><rect
         id="rect104-2"
         width="24.242424"
         height="21.818182"
         x="10.606061"
         y="11.818182" /></flowRegion><flowPara
       id="flowPara106-9" /></flowRoot>  <rect
     style="fill:none;fill-opacity:1;stroke:#1a1a1a;stroke-width:0.0625;stroke-opacity:1"
     id="rect108-3"
     width="7.2537889"
     height="12.973484"
     x="1.344696"
     y="1.3068237" />
  <g
     id="flowRoot915-1"
     style="font-style:normal;font-variant:normal;font-weight:bold;font-stretch:normal;font-size:16px;line-height:1.25;font-family:'DejaVu Sans';-inkscape-font-specification:'DejaVu Sans Bold';text-align:start;letter-spacing:0px;word-spacing:0px;text-anchor:start;fill:#000000;fill-opacity:1;stroke:none"
     transform="matrix(0.0625,0,0,0.0625,0.18939461,2.8045662e-8)"
     aria-label="4">
    <path
       id="path144"
       d="M 8.921875,9.5136719 5.625,14.396484 h 3.296875 z m -0.5,-2.4765625 h 3.34375 v 7.3593746 h 1.664063 v 2.179688 h -1.664063 v 2.125 h -2.84375 v -2.125 H 3.75 v -2.578125 z"
       inkscape:connector-curvature="0" />
  </g>
  <path
     style="fill:#00aad4;fill-opacity:1;stroke:#000000;stroke-width:0.05703129;stroke-opacity:0.02617804"
     d="m 7.0502976,3.6686599 -0.118654,-0.2292098 -1.516902,2.6118098 -0.112727,0.531 0.115867,-0.12289 z"
     id="path1012"
     inkscape:connector-curvature="0" />
  <path
     style="fill:#006680;fill-opacity:1;stroke:#000000;stroke-width:0.05703129;stroke-opacity:0.02617804"
     d="m 7.0502976,3.6686599 0.08877,0.20186 -1.557343,2.65524 -0.128327,0.0473 -0.15138,0.009 0.20534,-0.35816 1.542943,-2.55544"
     id="path1014"
     inkscape:connector-curvature="0" />
  <path
     style="fill:#c8ab37;fill-opacity:1;stroke:#000000;stroke-width:0.05703129;stroke-opacity:0.02617804"
     d="m 7.6631366,3.7375599 -0.05758,0.3773 -0.191353,0.10641 -0.275139,-0.35075 -0.08877,-0.20186 -0.118654,-0.2292098 -0.195561,-0.46973 0.04537,-0.39466 0.230252,-0.0461 0.176586,0.42761 0.262034,0.45321 z"
     id="path1016"
     inkscape:connector-curvature="0" />
  <ellipse
     style="fill:#c8ab37;fill-opacity:1;stroke:#000000;stroke-width:0.05714734;stroke-opacity:0.02617804"
     id="ellipse1018"
     cx="-8.3336401"
     cy="0.90715945"
     rx="0.19005238"
     ry="0.31112537"
     transform="matrix(-0.99373929,-0.11172385,-0.2006964,0.97965349,0,0)" />
  <path
     style="fill:#d40000;fill-opacity:1;stroke:#000000;stroke-width:0.05703129;stroke-opacity:0.02617804"
     d="m 7.9082566,1.8015701 -0.693287,1.19801 0.221534,0.40068 0.814576,-1.43551 -0.107661,0.12583 -0.109499,0.0166 -0.08509,-0.0392 -0.04416,-0.10427 z"
     id="path1020"
     inkscape:connector-curvature="0" />
  <path
     id="path1022"
     d="m 7.1071166,11.82275 -0.118654,0.22921 -1.516903,-2.6118105 -0.112727,-0.531 0.115867,0.12289 z"
     style="fill:#00aad4;fill-opacity:1;stroke:#000000;stroke-width:0.05703129;stroke-opacity:0.02617804"
     inkscape:connector-curvature="0" />
  <path
     id="path1024"
     d="m 7.1071166,11.82275 0.08877,-0.20187 -1.557344,-2.6552305 -0.128327,-0.0473 -0.15138,-0.009 0.20534,0.35815 1.542944,2.5554505"
     style="fill:#006680;fill-opacity:1;stroke:#000000;stroke-width:0.05703129;stroke-opacity:0.02617804"
     inkscape:connector-curvature="0" />
  <path
     id="path1026"
     d="m 7.7199556,11.75385 -0.05758,-0.3773 -0.191354,-0.10641 -0.275138,0.35074 -0.08877,0.20187 -0.118654,0.22921 -0.195561,0.46972 0.04537,0.39466 0.230252,0.0461 0.176586,-0.42761 0.262033,-0.45321 z"
     style="fill:#c8ab37;fill-opacity:1;stroke:#000000;stroke-width:0.05703129;stroke-opacity:0.02617804"
     inkscape:connector-curvature="0" />
  <ellipse
     transform="matrix(-0.99373929,0.11172385,-0.2006964,-0.97965349,0,0)"
     ry="0.31112537"
     rx="0.19005238"
     cy="-14.556338"
     cx="-5.267787"
     id="ellipse1028"
     style="fill:#c8ab37;fill-opacity:1;stroke:#000000;stroke-width:0.05714734;stroke-opacity:0.02617804" />
  <path
     id="path1030"
     d="m 7.9650746,13.68984 -0.693286,-1.19801 0.221533,-0.40069 0.814577,1.43552 -0.107661,-0.12583 -0.109499,-0.0166 -0.08509,0.0392 -0.04416,0.10427 z"
     style="fill:#d40000;fill-opacity:1;stroke:#000000;stroke-width:0.05703129;stroke-opacity:0.02617804"
     inkscape:connector-curvature="0" />
  <path
     style="fill:#00aad4;fill-opacity:1;stroke:#000000;stroke-width:0.05703129;stroke-opacity:0.02617804"
     d="m 2.8349216,11.86063 0.118654,0.22921 1.516903,-2.6118105 0.112727,-0.53101 -0.115868,0.1229 z"
     id="path1032"
     inkscape:connector-curvature="0" />
  <path
     style="fill:#006680;fill-opacity:1;stroke:#000000;stroke-width:0.05703129;stroke-opacity:0.02617804"
     d="m 2.8349216,11.86063 -0.08877,-0.20187 1.557344,-2.6552305 0.128326,-0.0473 0.151381,-0.009 -0.205341,0.35816 -1.542943,2.5554505"
     id="path1034"
     inkscape:connector-curvature="0" />
  <path
     style="fill:#c8ab37;fill-opacity:1;stroke:#000000;stroke-width:0.05703129;stroke-opacity:0.02617804"
     d="m 2.2220826,11.79173 0.05758,-0.3773 0.191354,-0.10641 0.275138,0.35074 0.08877,0.20187 0.118654,0.22921 0.195561,0.46972 -0.04537,0.39466 -0.230252,0.0461 -0.176586,-0.42761 -0.262034,-0.45321 z"
     id="path1036"
     inkscape:connector-curvature="0" />
  <ellipse
     style="fill:#c8ab37;fill-opacity:1;stroke:#000000;stroke-width:0.05714734;stroke-opacity:0.02617804"
     id="ellipse1038"
     cx="4.5192637"
     cy="-13.478852"
     rx="0.19005238"
     ry="0.31112537"
     transform="matrix(0.99373929,0.11172385,0.2006964,-0.97965349,0,0)" />
  <path
     style="fill:#d40000;fill-opacity:1;stroke:#000000;stroke-width:0.05703129;stroke-opacity:0.02617804"
     d="m 1.9769626,13.72772 0.693287,-1.19801 -0.221533,-0.40069 -0.814577,1.43552 0.107661,-0.12583 0.109499,-0.0166 0.08509,0.0392 0.04416,0.10427 z"
     id="path1040"
     inkscape:connector-curvature="0" />
  <flowRoot
     transform="matrix(0.0625,0,0,0.0625,40,3.2385253e-7)"
     xml:space="preserve"
     id="flowRoot100-4"
     style="font-style:normal;font-variant:normal;font-weight:bold;font-stretch:normal;font-size:16px;line-height:1.25;font-family:'DejaVu Sans';-inkscape-font-specification:'DejaVu Sans Bold';letter-spacing:0px;word-spacing:0px;fill:#000000;fill-opacity:1;stroke:none"><flowRegion
       id="flowRegion102-7"><rect
         id="rect104-8"
         width="24.242424"
         height="21.818182"
         x="10.606061"
         y="11.818182" /></flowRegion><flowPara
       id="flowPara106-4" /></flowRoot>  <flowRoot
     transform="matrix(0.0625,0,0,0.0625,49.999999,2.2501831e-7)"
     xml:space="preserve"
     id="flowRoot100-0"
     style="font-style:normal;font-variant:normal;font-weight:bold;font-stretch:normal;font-size:16px;line-height:1.25;font-family:'DejaVu Sans';-inkscape-font-specification:'DejaVu Sans Bold';letter-spacing:0px;word-spacing:0px;fill:#000000;fill-opacity:1;stroke:none"><flowRegion
       id="flowRegion102-615"><rect
         id="rect104-5"
         width="24.242424"
         height="21.818182"
         x="10.606061"
         y="11.818182" /></flowRegion><flowPara
       id="flowPara106-47" /></flowRoot>  <flowRoot
     transform="matrix(0.0625,0,0,0.0625,59.999999,-4.8947157e-8)"
     xml:space="preserve"
     id="flowRoot100-9"
     style="font-style:normal;font-variant:normal;font-weight:bold;font-stretch:normal;font-size:16px;line-height:1.25;font-family:'DejaVu Sans';-inkscape-font-specification:'DejaVu Sans Bold';letter-spacing:0px;word-spacing:0px;fill:#000000;fill-opacity:1;stroke:none"><flowRegion
       id="flowRegion102-26"><rect
         id="rect104-6"
         width="24.242424"
         height="21.818182"
         x="10.606061"
         y="11.818182" /></flowRegion><flowPara
       id="flowPara106-49" /></flowRoot>  <flowRoot
     transform="matrix(0.0625,0,0,0.0625,69.999997,-1.8128662e-7)"
     xml:space="preserve"
     id="flowRoot100-48"
     style="font-style:normal;font-variant:normal;font-weight:bold;font-stretch:normal;font-size:16px;line-height:1.25;font-family:'DejaVu Sans';-inkscape-font-specification:'DejaVu Sans Bold';letter-spacing:0px;word-spacing:0px;fill:#000000;fill-opacity:1;stroke:none"><flowRegion
       id="flowRegion102-1"><rect
         id="rect104-29"
         width="24.242424"
         height="21.818182"
         x="10.606061"
         y="11.818182" /></flowRegion><flowPara
       id="flowPara106-3" /></flowRoot>  <flowRoot
     transform="matrix(0.0625,0,0,0.0625,79.999998,1.6533812e-7)"
     xml:space="preserve"
     id="flowRoot100-1"
     style="font-style:normal;font-variant:normal;font-weight:bold;font-stretch:normal;font-size:16px;line-height:1.25;font-family:'DejaVu Sans';-inkscape-font-specification:'DejaVu Sans Bold';letter-spacing:0px;word-spacing:0px;fill:#000000;fill-opacity:1;stroke:none"><flowRegion
       id="flowRegion102-15"><rect
         id="rect104-98"
         width="24.242424"
         height="21.818182"
         x="10.606061"
         y="11.818182" /></flowRegion><flowPara
       id="flowPara106-48" /></flowRoot></svg>
