<?xml version="1.0" encoding="UTF-8" standalone="no"?>
<svg
   xmlns:dc="http://purl.org/dc/elements/1.1/"
   xmlns:cc="http://creativecommons.org/ns#"
   xmlns:rdf="http://www.w3.org/1999/02/22-rdf-syntax-ns#"
   xmlns:svg="http://www.w3.org/2000/svg"
   xmlns="http://www.w3.org/2000/svg"
   xmlns:xlink="http://www.w3.org/1999/xlink"
   xmlns:sodipodi="http://sodipodi.sourceforge.net/DTD/sodipodi-0.dtd"
   xmlns:inkscape="http://www.inkscape.org/namespaces/inkscape"
   viewBox="0 0 160 250"
   height="250"
   width="160"
   id="svg815"
   version="1.1"
   sodipodi:docname="swords06.svg"
   inkscape:version="0.92.5 (2060ec1f9f, 2020-04-08)">
  <sodipodi:namedview
     pagecolor="#ffffff"
     bordercolor="#666666"
     borderopacity="1"
     objecttolerance="10"
     gridtolerance="10"
     guidetolerance="10"
     inkscape:pageopacity="0"
     inkscape:pageshadow="2"
     inkscape:window-width="1918"
     inkscape:window-height="1017"
     id="namedview12042"
     showgrid="false"
     inkscape:zoom="11.997458"
     inkscape:cx="60"
     inkscape:cy="231.81818"
     inkscape:window-x="0"
     inkscape:window-y="0"
     inkscape:window-maximized="1"
     inkscape:current-layer="svg815"
     showguides="true"
     inkscape:guide-bbox="true"
     inkscape:snap-page="true" />
  <metadata
     id="metadata821">
    <rdf:RDF>
      <cc:Work
         rdf:about="">
        <dc:format>image/svg+xml</dc:format>
        <dc:type
           rdf:resource="http://purl.org/dc/dcmitype/StillImage" />
        <dc:title></dc:title>
      </cc:Work>
    </rdf:RDF>
  </metadata>
  <defs
     id="defs819">
    <linearGradient
       gradientTransform="matrix(0.0625,0,0,0.0625,89.999996,7.4115112e-6)"
       gradientUnits="userSpaceOnUse"
       y2="68.472336"
       x2="56.128345"
       y1="63.697319"
       x1="61.166279"
       id="linearGradient876"
       xlink:href="#linearGradient882" />
    <linearGradient
       id="linearGradient882">
      <stop
         style="stop-color:#d16208;stop-opacity:1"
         offset="0"
         id="stop878" />
      <stop
         style="stop-color:#d16250;stop-opacity:0;"
         offset="1"
         id="stop880" />
    </linearGradient>
    <linearGradient
       gradientTransform="matrix(0.0625,0,0,0.0625,89.999996,7.4115112e-6)"
       gradientUnits="userSpaceOnUse"
       y2="71.008263"
       x2="88.849586"
       y1="58.644627"
       x1="82.105782"
       id="linearGradient1063"
       xlink:href="#linearGradient882" />
    <linearGradient
       gradientTransform="matrix(0.0625,0,0,0.0625,110,0)"
       xlink:href="#linearGradient846"
       id="linearGradient848"
       x1="72.37397"
       y1="53.171356"
       x2="72.19931"
       y2="45.564011"
       gradientUnits="userSpaceOnUse" />
    <linearGradient
       id="linearGradient846">
      <stop
         style="stop-color:#423abf;stop-opacity:1;"
         offset="0"
         id="stop842" />
      <stop
         style="stop-color:#423abf;stop-opacity:0;"
         offset="1"
         id="stop844" />
    </linearGradient>
  </defs>
  <flowRoot
     transform="matrix(0.125,0,0,0.125,70,109.375)"
     xml:space="preserve"
     id="flowRoot100"
     style="font-style:normal;font-variant:normal;font-weight:bold;font-stretch:normal;font-size:16px;line-height:1.25;font-family:'DejaVu Sans';-inkscape-font-specification:'DejaVu Sans Bold';letter-spacing:0px;word-spacing:0px;fill:#000000;fill-opacity:1;stroke:none"><flowRegion
       id="flowRegion102"><rect
         id="rect104"
         width="24.242424"
         height="21.818182"
         x="10.606061"
         y="11.818182" /></flowRegion><flowPara
       id="flowPara106" /></flowRoot>  <flowRoot
     transform="matrix(0.0625,0,0,0.0625,9.9999996,7.0251474e-8)"
     xml:space="preserve"
     id="flowRoot100-6"
     style="font-style:normal;font-variant:normal;font-weight:bold;font-stretch:normal;font-size:16px;line-height:1.25;font-family:'DejaVu Sans';-inkscape-font-specification:'DejaVu Sans Bold';letter-spacing:0px;word-spacing:0px;fill:#000000;fill-opacity:1;stroke:none"><flowRegion
       id="flowRegion102-2"><rect
         id="rect104-9"
         width="24.242424"
         height="21.818182"
         x="10.606061"
         y="11.818182" /></flowRegion><flowPara
       id="flowPara106-1" /></flowRoot>  <flowRoot
     transform="matrix(0.0625,0,0,0.0625,20,1.5827638e-7)"
     xml:space="preserve"
     id="flowRoot100-2"
     style="font-style:normal;font-variant:normal;font-weight:bold;font-stretch:normal;font-size:16px;line-height:1.25;font-family:'DejaVu Sans';-inkscape-font-specification:'DejaVu Sans Bold';letter-spacing:0px;word-spacing:0px;fill:#000000;fill-opacity:1;stroke:none"><flowRegion
       id="flowRegion102-6"><rect
         id="rect104-1"
         width="24.242424"
         height="21.818182"
         x="10.606061"
         y="11.818182" /></flowRegion><flowPara
       id="flowPara106-8" /></flowRoot>  <flowRoot
     transform="matrix(0.0625,0,0,0.0625,30,7.89978e-8)"
     xml:space="preserve"
     id="flowRoot100-3"
     style="font-style:normal;font-variant:normal;font-weight:bold;font-stretch:normal;font-size:16px;line-height:1.25;font-family:'DejaVu Sans';-inkscape-font-specification:'DejaVu Sans Bold';letter-spacing:0px;word-spacing:0px;fill:#000000;fill-opacity:1;stroke:none"><flowRegion
       id="flowRegion102-61"><rect
         id="rect104-2"
         width="24.242424"
         height="21.818182"
         x="10.606061"
         y="11.818182" /></flowRegion><flowPara
       id="flowPara106-9" /></flowRoot>  <flowRoot
     transform="matrix(0.0625,0,0,0.0625,40,3.2385253e-7)"
     xml:space="preserve"
     id="flowRoot100-4"
     style="font-style:normal;font-variant:normal;font-weight:bold;font-stretch:normal;font-size:16px;line-height:1.25;font-family:'DejaVu Sans';-inkscape-font-specification:'DejaVu Sans Bold';letter-spacing:0px;word-spacing:0px;fill:#000000;fill-opacity:1;stroke:none"><flowRegion
       id="flowRegion102-7"><rect
         id="rect104-8"
         width="24.242424"
         height="21.818182"
         x="10.606061"
         y="11.818182" /></flowRegion><flowPara
       id="flowPara106-4" /></flowRoot>  <rect
     style="fill:#ffffff;fill-opacity:1;stroke:#1a1a1a;stroke-width:0.0625;stroke-opacity:1"
     id="swords06"
     width="10"
     height="15.625"
     x="0"
     y="0" />
  <flowRoot
     transform="matrix(0.0625,0,0,0.0625,49.999999,2.2501831e-7)"
     xml:space="preserve"
     id="flowRoot100-0"
     style="font-style:normal;font-variant:normal;font-weight:bold;font-stretch:normal;font-size:16px;line-height:1.25;font-family:'DejaVu Sans';-inkscape-font-specification:'DejaVu Sans Bold';letter-spacing:0px;word-spacing:0px;fill:#000000;fill-opacity:1;stroke:none"><flowRegion
       id="flowRegion102-615"><rect
         id="rect104-5"
         width="24.242424"
         height="21.818182"
         x="10.606061"
         y="11.818182" /></flowRegion><flowPara
       id="flowPara106-47" /></flowRoot>  <rect
     style="fill:none;fill-opacity:1;stroke:#1a1a1a;stroke-width:0.0625;stroke-opacity:1"
     id="rect108-6"
     width="7.2537889"
     height="12.973484"
     x="1.344696"
     y="1.3068237" />
  <g
     id="flowRoot915-5"
     style="font-style:normal;font-variant:normal;font-weight:bold;font-stretch:normal;font-size:16px;line-height:1.25;font-family:'DejaVu Sans';-inkscape-font-specification:'DejaVu Sans Bold';text-align:start;letter-spacing:0px;word-spacing:0px;text-anchor:start;fill:#000000;fill-opacity:1;stroke:none"
     transform="matrix(0.0625,0,0,0.0625,0.189393,2.2501831e-7)"
     aria-label="6">
    <path
       id="path241"
       d="m 8.8203125,12.943359 q -0.7890625,0 -1.1875,0.515625 -0.390625,0.507813 -0.390625,1.53125 0,1.023438 0.390625,1.539063 0.3984375,0.507812 1.1875,0.507812 0.796875,0 1.1875005,-0.507812 0.398437,-0.515625 0.398437,-1.539063 0,-1.023437 -0.398437,-1.53125 Q 9.6171875,12.943359 8.8203125,12.943359 Z M 12.539063,7.3417969 v 2.15625 q -0.742188,-0.3515625 -1.398438,-0.515625 -0.65625,-0.171875 -1.28125,-0.171875 -1.34375,0 -2.09375,0.75 -0.75,0.7421871 -0.875,2.2109371 0.515625,-0.382812 1.1171875,-0.570312 0.6015625,-0.195313 1.3125,-0.195313 1.7890625,0 2.8828125,1.046875 1.101563,1.046875 1.101563,2.742188 0,1.875 -1.226563,3.007812 -1.226562,1.125 -3.2890625,1.125 -2.2734375,0 -3.5234375,-1.53125 -1.2421875,-1.539062 -1.2421875,-4.359375 0,-2.890625 1.453125,-4.5390621 1.4609375,-1.65625 4,-1.65625 0.8046875,0 1.5625005,0.125 0.757812,0.125 1.5,0.375 z"
       inkscape:connector-curvature="0" />
  </g>
  <path
     style="fill:#00aad4;fill-opacity:1;stroke:#000000;stroke-width:0.07153597;stroke-opacity:0.02617804"
     d="m 2.845208,3.7413202 0.365095,-0.0194 -0.02246,2.8350297 -0.286774,0.39809 -0.06311,-0.17394 z"
     id="path825-69"
     inkscape:connector-curvature="0" />
  <path
     style="fill:#006680;fill-opacity:1;stroke:#000000;stroke-width:0.07153597;stroke-opacity:0.02617804"
     d="m 2.845208,3.7413202 -0.298851,0.0314 -8.82e-4,2.8960197 0.145011,0.14327 0.210582,0.14303 0.0069,-0.38634 -0.0628,-2.8273897"
     id="path827-37"
     inkscape:connector-curvature="0" />
  <path
     style="fill:#c8ab37;fill-opacity:1;stroke:#000000;stroke-width:0.07153597;stroke-opacity:0.02617804"
     d="m 1.903037,3.2212402 -0.23624,0.26234 0.18593,0.23355 0.69363,0.0556 0.298851,-0.0314 0.365095,-0.0194 0.679543,-0.0831 0.268551,-0.26087 -0.293094,-0.23543 -0.616541,0.077 -0.761439,0.0133 z"
     id="path829-4"
     inkscape:connector-curvature="0" />
  <ellipse
     style="fill:#c8ab37;fill-opacity:1;stroke:#000000;stroke-width:0.07185667;stroke-opacity:0.02617804"
     id="path833-5"
     cx="3.4036605"
     cy="0.13949828"
     rx="0.3316544"
     ry="0.2818805"
     transform="matrix(0.87547387,0.48326546,-0.59554393,0.80332274,0,0)" />
  <path
     style="fill:#d40000;fill-opacity:1;stroke:#000000;stroke-width:0.07153597;stroke-opacity:0.02617804"
     d="m 3.18782,1.9209802 -0.01391,1.29811 -0.658579,0.021 0.03996,-1.54075 0.04879,0.1681 0.143868,0.10901 0.155916,0.0557 0.151929,-0.0178 z"
     id="path835-2"
     inkscape:connector-curvature="0" />
  <path
     id="path4811-5"
     d="m 7.087632,3.7413202 0.365095,-0.0194 -0.02246,2.8350297 -0.286774,0.39809 -0.06311,-0.17394 z"
     style="fill:#00aad4;fill-opacity:1;stroke:#000000;stroke-width:0.07153597;stroke-opacity:0.02617804"
     inkscape:connector-curvature="0" />
  <path
     id="path4813-4"
     d="m 7.087632,3.7413202 -0.298851,0.0314 -8.81e-4,2.8960197 0.145011,0.14327 0.210582,0.14303 0.0069,-0.38634 -0.0628,-2.8273897"
     style="fill:#006680;fill-opacity:1;stroke:#000000;stroke-width:0.07153597;stroke-opacity:0.02617804"
     inkscape:connector-curvature="0" />
  <path
     id="path4815-7"
     d="m 6.145462,3.2212402 -0.236241,0.26234 0.185931,0.23355 0.693629,0.0556 0.298851,-0.0314 0.365095,-0.0194 0.679544,-0.0831 0.268551,-0.26087 -0.293095,-0.23543 -0.616541,0.077 -0.761439,0.0133 z"
     style="fill:#c8ab37;fill-opacity:1;stroke:#000000;stroke-width:0.07153597;stroke-opacity:0.02617804"
     inkscape:connector-curvature="0" />
  <ellipse
     transform="matrix(0.87547387,0.48326546,-0.59554393,0.80332274,0,0)"
     ry="0.2818805"
     rx="0.3316544"
     cy="-1.9291434"
     cx="6.8423352"
     id="ellipse4817-4"
     style="fill:#c8ab37;fill-opacity:1;stroke:#000000;stroke-width:0.07185667;stroke-opacity:0.02617804" />
  <path
     id="path4819-4"
     d="m 7.430244,1.9209802 -0.01391,1.29811 -0.658579,0.021 0.03996,-1.54075 0.04879,0.1681 0.143868,0.10901 0.155917,0.0557 0.151928,-0.0178 z"
     style="fill:#d40000;fill-opacity:1;stroke:#000000;stroke-width:0.07153597;stroke-opacity:0.02617804"
     inkscape:connector-curvature="0" />
  <path
     style="fill:#00aad4;fill-opacity:1;stroke:#000000;stroke-width:0.07153597;stroke-opacity:0.02617804"
     d="m 7.087632,11.85669 0.365095,0.0194 -0.02246,-2.8350301 -0.286774,-0.39809 -0.06311,0.17394 z"
     id="path4821-3"
     inkscape:connector-curvature="0" />
  <path
     style="fill:#006680;fill-opacity:1;stroke:#000000;stroke-width:0.07153597;stroke-opacity:0.02617804"
     d="M 7.087632,11.85669 6.788781,11.82529 6.7879,8.9292699 l 0.145011,-0.14327 0.210582,-0.14303 0.0069,0.38634 -0.0628,2.8273901"
     id="path4823-0"
     inkscape:connector-curvature="0" />
  <path
     style="fill:#c8ab37;fill-opacity:1;stroke:#000000;stroke-width:0.07153597;stroke-opacity:0.02617804"
     d="m 6.145462,12.37677 -0.236241,-0.26234 0.185931,-0.23355 0.693629,-0.0556 0.298851,0.0314 0.365095,0.0194 0.679544,0.0831 0.268551,0.26087 -0.293095,0.23543 -0.616541,-0.077 -0.761439,-0.0133 z"
     id="path4825-7"
     inkscape:connector-curvature="0" />
  <ellipse
     style="fill:#c8ab37;fill-opacity:1;stroke:#000000;stroke-width:0.07185667;stroke-opacity:0.02617804"
     id="ellipse4827-8"
     cx="-2.5304444"
     cy="-15.707498"
     rx="0.3316544"
     ry="0.2818805"
     transform="matrix(0.87547387,-0.48326546,-0.59554393,-0.80332274,0,0)" />
  <path
     style="fill:#d40000;fill-opacity:1;stroke:#000000;stroke-width:0.07153597;stroke-opacity:0.02617804"
     d="m 7.430244,13.67703 -0.01391,-1.29811 -0.658579,-0.021 0.03996,1.54075 0.04879,-0.1681 0.143868,-0.10901 0.155917,-0.0557 0.151928,0.0178 z"
     id="path4829-6"
     inkscape:connector-curvature="0" />
  <path
     id="path4831-8"
     d="m 2.750511,11.85669 0.365095,0.0194 -0.02246,-2.8350301 -0.286774,-0.39809 -0.06311,0.17394 z"
     style="fill:#00aad4;fill-opacity:1;stroke:#000000;stroke-width:0.07153597;stroke-opacity:0.02617804"
     inkscape:connector-curvature="0" />
  <path
     id="path4833-8"
     d="m 2.750511,11.85669 -0.298851,-0.0314 -8.81e-4,-2.8960201 0.145011,-0.14327 0.210582,-0.14303 0.0069,0.38634 -0.0628,2.8273901"
     style="fill:#006680;fill-opacity:1;stroke:#000000;stroke-width:0.07153597;stroke-opacity:0.02617804"
     inkscape:connector-curvature="0" />
  <path
     id="path4835-4"
     d="m 1.80834,12.37677 -0.23624,-0.26234 0.18593,-0.23355 0.69363,-0.0556 0.298851,0.0314 0.365095,0.0194 0.679544,0.0831 0.26855,0.26087 -0.293094,0.23543 -0.616541,-0.077 -0.761439,-0.0133 z"
     style="fill:#c8ab37;fill-opacity:1;stroke:#000000;stroke-width:0.07153597;stroke-opacity:0.02617804"
     inkscape:connector-curvature="0" />
  <ellipse
     transform="matrix(0.87547387,-0.48326546,-0.59554393,-0.80332274,0,0)"
     ry="0.2818805"
     rx="0.3316544"
     cy="-13.59269"
     cx="-6.0458636"
     id="ellipse4837-3"
     style="fill:#c8ab37;fill-opacity:1;stroke:#000000;stroke-width:0.07185667;stroke-opacity:0.02617804" />
  <path
     id="path4839-1"
     d="m 3.093123,13.67703 -0.01391,-1.29811 -0.658579,-0.021 0.03996,1.54075 0.04879,-0.1681 0.143869,-0.10901 0.155916,-0.0557 0.151929,0.0178 z"
     style="fill:#d40000;fill-opacity:1;stroke:#000000;stroke-width:0.07153597;stroke-opacity:0.02617804"
     inkscape:connector-curvature="0" />
  <path
     style="fill:#00aad4;fill-opacity:1;stroke:#000000;stroke-width:0.07153597;stroke-opacity:0.02617804"
     d="m 4.871723,4.7354799 0.365095,0.0194 -0.02246,-2.8350197 -0.286774,-0.39809 -0.06311,0.17394 z"
     id="path4841-4"
     inkscape:connector-curvature="0" />
  <path
     style="fill:#006680;fill-opacity:1;stroke:#000000;stroke-width:0.07153597;stroke-opacity:0.02617804"
     d="m 4.871723,4.7354799 -0.298851,-0.0314 -8.81e-4,-2.8960297 0.14501,-0.14326 0.210582,-0.14303 0.0069,0.38633 -0.06279,2.8273997"
     id="path4843-9"
     inkscape:connector-curvature="0" />
  <path
     style="fill:#c8ab37;fill-opacity:1;stroke:#000000;stroke-width:0.07153597;stroke-opacity:0.02617804"
     d="m 3.929553,5.2555599 -0.236241,-0.26234 0.185931,-0.23355 0.693629,-0.0556 0.298851,0.0314 0.365095,0.0194 0.679543,0.0831 0.268552,0.26087 -0.293095,0.23543 -0.616542,-0.077 -0.761438,-0.0133 z"
     id="path4845-2"
     inkscape:connector-curvature="0" />
  <ellipse
     style="fill:#c8ab37;fill-opacity:1;stroke:#000000;stroke-width:0.07185667;stroke-opacity:0.02617804"
     id="ellipse4847-0"
     cx="-0.047427438"
     cy="-8.3365564"
     rx="0.3316544"
     ry="0.2818805"
     transform="matrix(0.87547387,-0.48326546,-0.59554393,-0.80332274,0,0)" />
  <path
     style="fill:#d40000;fill-opacity:1;stroke:#000000;stroke-width:0.07153597;stroke-opacity:0.02617804"
     d="m 5.214335,6.5558199 -0.01391,-1.29812 -0.658579,-0.021 0.03996,1.54074 0.04879,-0.16809 0.143869,-0.10901 0.155916,-0.0557 0.151929,0.0178 z"
     id="path4849-6"
     inkscape:connector-curvature="0" />
  <path
     id="path4870"
     d="M 4.94748,10.88147 5.312575,10.86207 5.290115,13.69709 5.00334,14.09518 4.94023,13.92124 Z"
     style="fill:#00aad4;fill-opacity:1;stroke:#000000;stroke-width:0.07153597;stroke-opacity:0.02617804"
     inkscape:connector-curvature="0" />
  <path
     id="path4872"
     d="m 4.94748,10.88147 -0.29885,0.0314 -8.82e-4,2.89602 0.145011,0.14327 0.210582,0.14303 0.0069,-0.38634 -0.06279,-2.82739"
     style="fill:#006680;fill-opacity:1;stroke:#000000;stroke-width:0.07153597;stroke-opacity:0.02617804"
     inkscape:connector-curvature="0" />
  <path
     id="path4874"
     d="m 4.00531,10.36139 -0.23624,0.26234 0.18593,0.23355 0.69363,0.0556 0.29885,-0.0314 0.365095,-0.0194 0.679544,-0.0831 0.268551,-0.26087 -0.293095,-0.23543 -0.616541,0.077 -0.761439,0.0133 z"
     style="fill:#c8ab37;fill-opacity:1;stroke:#000000;stroke-width:0.07153597;stroke-opacity:0.02617804"
     inkscape:connector-curvature="0" />
  <ellipse
     transform="matrix(0.87547387,0.48326546,-0.59554393,0.80332274,0,0)"
     ry="0.2818805"
     rx="0.3316544"
     cy="5.4216027"
     cx="9.3981371"
     id="ellipse4876"
     style="fill:#c8ab37;fill-opacity:1;stroke:#000000;stroke-width:0.07185667;stroke-opacity:0.02617804" />
  <path
     id="path4878"
     d="m 5.290092,9.0611299 -0.01391,1.2981101 -0.65858,0.021 0.03996,-1.5407501 0.04879,0.1681 0.143869,0.10901 0.155916,0.0557 0.151929,-0.0178 z"
     style="fill:#d40000;fill-opacity:1;stroke:#000000;stroke-width:0.07153597;stroke-opacity:0.02617804"
     inkscape:connector-curvature="0" />
  <flowRoot
     transform="matrix(0.0625,0,0,0.0625,59.999999,-4.8947157e-8)"
     xml:space="preserve"
     id="flowRoot100-9"
     style="font-style:normal;font-variant:normal;font-weight:bold;font-stretch:normal;font-size:16px;line-height:1.25;font-family:'DejaVu Sans';-inkscape-font-specification:'DejaVu Sans Bold';letter-spacing:0px;word-spacing:0px;fill:#000000;fill-opacity:1;stroke:none"><flowRegion
       id="flowRegion102-26"><rect
         id="rect104-6"
         width="24.242424"
         height="21.818182"
         x="10.606061"
         y="11.818182" /></flowRegion><flowPara
       id="flowPara106-49" /></flowRoot>  <flowRoot
     transform="matrix(0.0625,0,0,0.0625,69.999997,-1.8128662e-7)"
     xml:space="preserve"
     id="flowRoot100-48"
     style="font-style:normal;font-variant:normal;font-weight:bold;font-stretch:normal;font-size:16px;line-height:1.25;font-family:'DejaVu Sans';-inkscape-font-specification:'DejaVu Sans Bold';letter-spacing:0px;word-spacing:0px;fill:#000000;fill-opacity:1;stroke:none"><flowRegion
       id="flowRegion102-1"><rect
         id="rect104-29"
         width="24.242424"
         height="21.818182"
         x="10.606061"
         y="11.818182" /></flowRegion><flowPara
       id="flowPara106-3" /></flowRoot>  <flowRoot
     transform="matrix(0.0625,0,0,0.0625,79.999998,1.6533812e-7)"
     xml:space="preserve"
     id="flowRoot100-1"
     style="font-style:normal;font-variant:normal;font-weight:bold;font-stretch:normal;font-size:16px;line-height:1.25;font-family:'DejaVu Sans';-inkscape-font-specification:'DejaVu Sans Bold';letter-spacing:0px;word-spacing:0px;fill:#000000;fill-opacity:1;stroke:none"><flowRegion
       id="flowRegion102-15"><rect
         id="rect104-98"
         width="24.242424"
         height="21.818182"
         x="10.606061"
         y="11.818182" /></flowRegion><flowPara
       id="flowPara106-48" /></flowRoot></svg>
