<?xml version="1.0" encoding="UTF-8" standalone="no"?>
<svg
   xmlns:dc="http://purl.org/dc/elements/1.1/"
   xmlns:cc="http://creativecommons.org/ns#"
   xmlns:rdf="http://www.w3.org/1999/02/22-rdf-syntax-ns#"
   xmlns:svg="http://www.w3.org/2000/svg"
   xmlns="http://www.w3.org/2000/svg"
   xmlns:xlink="http://www.w3.org/1999/xlink"
   xmlns:sodipodi="http://sodipodi.sourceforge.net/DTD/sodipodi-0.dtd"
   xmlns:inkscape="http://www.inkscape.org/namespaces/inkscape"
   viewBox="0 0 160 250"
   height="250"
   width="160"
   id="svg815"
   version="1.1"
   sodipodi:docname="swords05.svg"
   inkscape:version="0.92.5 (2060ec1f9f, 2020-04-08)">
  <sodipodi:namedview
     pagecolor="#ffffff"
     bordercolor="#666666"
     borderopacity="1"
     objecttolerance="10"
     gridtolerance="10"
     guidetolerance="10"
     inkscape:pageopacity="0"
     inkscape:pageshadow="2"
     inkscape:window-width="1918"
     inkscape:window-height="1017"
     id="namedview12042"
     showgrid="false"
     inkscape:zoom="13.138747"
     inkscape:cx="58.939394"
     inkscape:cy="236.9697"
     inkscape:window-x="0"
     inkscape:window-y="0"
     inkscape:window-maximized="1"
     inkscape:current-layer="svg815"
     inkscape:snap-page="true" />
  <metadata
     id="metadata821">
    <rdf:RDF>
      <cc:Work
         rdf:about="">
        <dc:format>image/svg+xml</dc:format>
        <dc:type
           rdf:resource="http://purl.org/dc/dcmitype/StillImage" />
        <dc:title></dc:title>
      </cc:Work>
    </rdf:RDF>
  </metadata>
  <defs
     id="defs819">
    <linearGradient
       gradientTransform="matrix(0.0625,0,0,0.0625,89.999996,7.4115112e-6)"
       gradientUnits="userSpaceOnUse"
       y2="68.472336"
       x2="56.128345"
       y1="63.697319"
       x1="61.166279"
       id="linearGradient876"
       xlink:href="#linearGradient882" />
    <linearGradient
       id="linearGradient882">
      <stop
         style="stop-color:#d16208;stop-opacity:1"
         offset="0"
         id="stop878" />
      <stop
         style="stop-color:#d16250;stop-opacity:0;"
         offset="1"
         id="stop880" />
    </linearGradient>
    <linearGradient
       gradientTransform="matrix(0.0625,0,0,0.0625,89.999996,7.4115112e-6)"
       gradientUnits="userSpaceOnUse"
       y2="71.008263"
       x2="88.849586"
       y1="58.644627"
       x1="82.105782"
       id="linearGradient1063"
       xlink:href="#linearGradient882" />
    <linearGradient
       gradientTransform="matrix(0.0625,0,0,0.0625,110,0)"
       xlink:href="#linearGradient846"
       id="linearGradient848"
       x1="72.37397"
       y1="53.171356"
       x2="72.19931"
       y2="45.564011"
       gradientUnits="userSpaceOnUse" />
    <linearGradient
       id="linearGradient846">
      <stop
         style="stop-color:#423abf;stop-opacity:1;"
         offset="0"
         id="stop842" />
      <stop
         style="stop-color:#423abf;stop-opacity:0;"
         offset="1"
         id="stop844" />
    </linearGradient>
  </defs>
  <flowRoot
     transform="matrix(0.125,0,0,0.125,70,109.375)"
     xml:space="preserve"
     id="flowRoot100"
     style="font-style:normal;font-variant:normal;font-weight:bold;font-stretch:normal;font-size:16px;line-height:1.25;font-family:'DejaVu Sans';-inkscape-font-specification:'DejaVu Sans Bold';letter-spacing:0px;word-spacing:0px;fill:#000000;fill-opacity:1;stroke:none"><flowRegion
       id="flowRegion102"><rect
         id="rect104"
         width="24.242424"
         height="21.818182"
         x="10.606061"
         y="11.818182" /></flowRegion><flowPara
       id="flowPara106" /></flowRoot>  <flowRoot
     transform="matrix(0.0625,0,0,0.0625,9.9999996,7.0251474e-8)"
     xml:space="preserve"
     id="flowRoot100-6"
     style="font-style:normal;font-variant:normal;font-weight:bold;font-stretch:normal;font-size:16px;line-height:1.25;font-family:'DejaVu Sans';-inkscape-font-specification:'DejaVu Sans Bold';letter-spacing:0px;word-spacing:0px;fill:#000000;fill-opacity:1;stroke:none"><flowRegion
       id="flowRegion102-2"><rect
         id="rect104-9"
         width="24.242424"
         height="21.818182"
         x="10.606061"
         y="11.818182" /></flowRegion><flowPara
       id="flowPara106-1" /></flowRoot>  <flowRoot
     transform="matrix(0.0625,0,0,0.0625,20,1.5827638e-7)"
     xml:space="preserve"
     id="flowRoot100-2"
     style="font-style:normal;font-variant:normal;font-weight:bold;font-stretch:normal;font-size:16px;line-height:1.25;font-family:'DejaVu Sans';-inkscape-font-specification:'DejaVu Sans Bold';letter-spacing:0px;word-spacing:0px;fill:#000000;fill-opacity:1;stroke:none"><flowRegion
       id="flowRegion102-6"><rect
         id="rect104-1"
         width="24.242424"
         height="21.818182"
         x="10.606061"
         y="11.818182" /></flowRegion><flowPara
       id="flowPara106-8" /></flowRoot>  <flowRoot
     transform="matrix(0.0625,0,0,0.0625,30,7.89978e-8)"
     xml:space="preserve"
     id="flowRoot100-3"
     style="font-style:normal;font-variant:normal;font-weight:bold;font-stretch:normal;font-size:16px;line-height:1.25;font-family:'DejaVu Sans';-inkscape-font-specification:'DejaVu Sans Bold';letter-spacing:0px;word-spacing:0px;fill:#000000;fill-opacity:1;stroke:none"><flowRegion
       id="flowRegion102-61"><rect
         id="rect104-2"
         width="24.242424"
         height="21.818182"
         x="10.606061"
         y="11.818182" /></flowRegion><flowPara
       id="flowPara106-9" /></flowRoot>  <rect
     style="fill:#ffffff;fill-opacity:1;stroke:#1a1a1a;stroke-width:0.0625;stroke-opacity:1"
     id="swords05"
     width="10"
     height="15.625"
     x="0"
     y="0" />
  <flowRoot
     transform="matrix(0.0625,0,0,0.0625,40,3.2385253e-7)"
     xml:space="preserve"
     id="flowRoot100-4"
     style="font-style:normal;font-variant:normal;font-weight:bold;font-stretch:normal;font-size:16px;line-height:1.25;font-family:'DejaVu Sans';-inkscape-font-specification:'DejaVu Sans Bold';letter-spacing:0px;word-spacing:0px;fill:#000000;fill-opacity:1;stroke:none"><flowRegion
       id="flowRegion102-7"><rect
         id="rect104-8"
         width="24.242424"
         height="21.818182"
         x="10.606061"
         y="11.818182" /></flowRegion><flowPara
       id="flowPara106-4" /></flowRoot>  <rect
     style="fill:none;fill-opacity:1;stroke:#1a1a1a;stroke-width:0.0625;stroke-opacity:1"
     id="rect108-5"
     width="7.2537889"
     height="12.973484"
     x="1.344696"
     y="1.3068237" />
  <g
     id="flowRoot915-0"
     style="font-style:normal;font-variant:normal;font-weight:bold;font-stretch:normal;font-size:16px;line-height:1.25;font-family:'DejaVu Sans';-inkscape-font-specification:'DejaVu Sans Bold';text-align:start;letter-spacing:0px;word-spacing:0px;text-anchor:start;fill:#000000;fill-opacity:1;stroke:none"
     transform="matrix(0.0625,0,0,0.0625,0.189394,3.2385253e-7)"
     aria-label="5">
    <path
       id="path186"
       d="M 4.7265625,7.0371094 H 12.203125 V 9.2480469 H 7.125 v 1.8046871 q 0.34375,-0.09375 0.6875,-0.140625 0.3515625,-0.05469 0.7265625,-0.05469 2.1328125,0 3.3203125,1.070312 1.1875,1.0625 1.1875,2.96875 0,1.890625 -1.296875,2.960938 -1.289062,1.070312 -3.5859375,1.070312 -0.9921875,0 -1.96875,-0.195312 -0.96875,-0.1875 -1.9296875,-0.578125 v -2.367188 q 0.953125,0.546875 1.8046875,0.820313 0.859375,0.273437 1.6171875,0.273437 1.09375,0 1.71875,-0.53125 0.632813,-0.539062 0.632813,-1.453125 0,-0.921875 -0.632813,-1.453125 -0.625,-0.53125 -1.71875,-0.53125 -0.6484375,0 -1.3828125,0.171875 -0.734375,0.164063 -1.578125,0.515625 z"
       inkscape:connector-curvature="0" />
  </g>
  <path
     style="fill:#00aad4;fill-opacity:1;stroke:#000000;stroke-width:0.07153597;stroke-opacity:0.02617804"
     d="m 2.845209,3.7413203 0.365095,-0.0194 -0.02246,2.83503 -0.286774,0.39809 -0.06311,-0.17394 z"
     id="path825-3"
     inkscape:connector-curvature="0" />
  <path
     style="fill:#006680;fill-opacity:1;stroke:#000000;stroke-width:0.07153597;stroke-opacity:0.02617804"
     d="m 2.845209,3.7413203 -0.298851,0.0314 -8.82e-4,2.89602 0.145011,0.14327 0.210582,0.14303 0.0069,-0.38634 -0.0628,-2.82739"
     id="path827-6"
     inkscape:connector-curvature="0" />
  <path
     style="fill:#c8ab37;fill-opacity:1;stroke:#000000;stroke-width:0.07153597;stroke-opacity:0.02617804"
     d="m 1.903038,3.2212403 -0.23624,0.26234 0.18593,0.23355 0.69363,0.0556 0.298851,-0.0314 0.365095,-0.0194 0.679543,-0.0831 0.268551,-0.26087 -0.293094,-0.23543 -0.616541,0.077 -0.761439,0.0133 z"
     id="path829-1"
     inkscape:connector-curvature="0" />
  <ellipse
     style="fill:#c8ab37;fill-opacity:1;stroke:#000000;stroke-width:0.07185667;stroke-opacity:0.02617804"
     id="path833-06"
     cx="3.4036603"
     cy="0.13949817"
     rx="0.3316544"
     ry="0.2818805"
     transform="matrix(0.87547387,0.48326546,-0.59554393,0.80332274,0,0)" />
  <path
     style="fill:#d40000;fill-opacity:1;stroke:#000000;stroke-width:0.07153597;stroke-opacity:0.02617804"
     d="m 3.187821,1.9209803 -0.01391,1.29811 -0.658579,0.021 0.03996,-1.54075 0.04879,0.1681 0.143868,0.10901 0.155916,0.0557 0.151929,-0.0178 z"
     id="path835-3"
     inkscape:connector-curvature="0" />
  <path
     id="path4811"
     d="m 7.087633,3.7413203 0.365095,-0.0194 -0.02246,2.83503 -0.286774,0.39809 -0.06311,-0.17394 z"
     style="fill:#00aad4;fill-opacity:1;stroke:#000000;stroke-width:0.07153597;stroke-opacity:0.02617804"
     inkscape:connector-curvature="0" />
  <path
     id="path4813"
     d="m 7.087633,3.7413203 -0.298851,0.0314 -8.81e-4,2.89602 0.145011,0.14327 0.210582,0.14303 0.0069,-0.38634 -0.0628,-2.82739"
     style="fill:#006680;fill-opacity:1;stroke:#000000;stroke-width:0.07153597;stroke-opacity:0.02617804"
     inkscape:connector-curvature="0" />
  <path
     id="path4815"
     d="m 6.145463,3.2212403 -0.236241,0.26234 0.185931,0.23355 0.693629,0.0556 0.298851,-0.0314 0.365095,-0.0194 0.679544,-0.0831 0.268551,-0.26087 -0.293095,-0.23543 -0.616541,0.077 -0.761439,0.0133 z"
     style="fill:#c8ab37;fill-opacity:1;stroke:#000000;stroke-width:0.07153597;stroke-opacity:0.02617804"
     inkscape:connector-curvature="0" />
  <ellipse
     transform="matrix(0.87547387,0.48326546,-0.59554393,0.80332274,0,0)"
     ry="0.2818805"
     rx="0.3316544"
     cy="-1.9291434"
     cx="6.8423352"
     id="ellipse4817"
     style="fill:#c8ab37;fill-opacity:1;stroke:#000000;stroke-width:0.07185667;stroke-opacity:0.02617804" />
  <path
     id="path4819"
     d="m 7.430245,1.9209803 -0.01391,1.29811 -0.658579,0.021 0.03996,-1.54075 0.04879,0.1681 0.143868,0.10901 0.155917,0.0557 0.151928,-0.0178 z"
     style="fill:#d40000;fill-opacity:1;stroke:#000000;stroke-width:0.07153597;stroke-opacity:0.02617804"
     inkscape:connector-curvature="0" />
  <path
     style="fill:#00aad4;fill-opacity:1;stroke:#000000;stroke-width:0.07153597;stroke-opacity:0.02617804"
     d="m 7.087633,11.85669 0.365095,0.0194 -0.02246,-2.8350297 -0.286774,-0.39809 -0.06311,0.17394 z"
     id="path4821"
     inkscape:connector-curvature="0" />
  <path
     style="fill:#006680;fill-opacity:1;stroke:#000000;stroke-width:0.07153597;stroke-opacity:0.02617804"
     d="m 7.087633,11.85669 -0.298851,-0.0314 -8.81e-4,-2.8960197 0.145011,-0.14327 0.210582,-0.14303 0.0069,0.38634 -0.0628,2.8273897"
     id="path4823"
     inkscape:connector-curvature="0" />
  <path
     style="fill:#c8ab37;fill-opacity:1;stroke:#000000;stroke-width:0.07153597;stroke-opacity:0.02617804"
     d="m 6.145463,12.37677 -0.236241,-0.26234 0.185931,-0.23355 0.693629,-0.0556 0.298851,0.0314 0.365095,0.0194 0.679544,0.0831 0.268551,0.26087 -0.293095,0.23543 -0.616541,-0.077 -0.761439,-0.0133 z"
     id="path4825"
     inkscape:connector-curvature="0" />
  <ellipse
     style="fill:#c8ab37;fill-opacity:1;stroke:#000000;stroke-width:0.07185667;stroke-opacity:0.02617804"
     id="ellipse4827"
     cx="-2.5304465"
     cy="-15.707497"
     rx="0.3316544"
     ry="0.2818805"
     transform="matrix(0.87547387,-0.48326546,-0.59554393,-0.80332274,0,0)" />
  <path
     style="fill:#d40000;fill-opacity:1;stroke:#000000;stroke-width:0.07153597;stroke-opacity:0.02617804"
     d="m 7.430245,13.67703 -0.01391,-1.29811 -0.658579,-0.021 0.03996,1.54075 0.04879,-0.1681 0.143868,-0.10901 0.155917,-0.0557 0.151928,0.0178 z"
     id="path4829"
     inkscape:connector-curvature="0" />
  <path
     id="path4831"
     d="m 2.750512,11.85669 0.365095,0.0194 -0.02246,-2.8350297 -0.286774,-0.39809 -0.06311,0.17394 z"
     style="fill:#00aad4;fill-opacity:1;stroke:#000000;stroke-width:0.07153597;stroke-opacity:0.02617804"
     inkscape:connector-curvature="0" />
  <path
     id="path4833"
     d="m 2.750512,11.85669 -0.298851,-0.0314 -8.81e-4,-2.8960197 0.145011,-0.14327 0.210582,-0.14303 0.0069,0.38634 -0.0628,2.8273897"
     style="fill:#006680;fill-opacity:1;stroke:#000000;stroke-width:0.07153597;stroke-opacity:0.02617804"
     inkscape:connector-curvature="0" />
  <path
     id="path4835"
     d="m 1.808341,12.37677 -0.23624,-0.26234 0.18593,-0.23355 0.69363,-0.0556 0.298851,0.0314 0.365095,0.0194 0.679544,0.0831 0.26855,0.26087 -0.293094,0.23543 -0.616541,-0.077 -0.761439,-0.0133 z"
     style="fill:#c8ab37;fill-opacity:1;stroke:#000000;stroke-width:0.07153597;stroke-opacity:0.02617804"
     inkscape:connector-curvature="0" />
  <ellipse
     transform="matrix(0.87547387,-0.48326546,-0.59554393,-0.80332274,0,0)"
     ry="0.2818805"
     rx="0.3316544"
     cy="-13.59269"
     cx="-6.0458636"
     id="ellipse4837"
     style="fill:#c8ab37;fill-opacity:1;stroke:#000000;stroke-width:0.07185667;stroke-opacity:0.02617804" />
  <path
     id="path4839"
     d="m 3.093124,13.67703 -0.01391,-1.29811 -0.658579,-0.021 0.03996,1.54075 0.04879,-0.1681 0.143869,-0.10901 0.155916,-0.0557 0.151929,0.0178 z"
     style="fill:#d40000;fill-opacity:1;stroke:#000000;stroke-width:0.07153597;stroke-opacity:0.02617804"
     inkscape:connector-curvature="0" />
  <path
     style="fill:#00aad4;fill-opacity:1;stroke:#000000;stroke-width:0.07153597;stroke-opacity:0.02617804"
     d="m 5.43974,7.7752503 0.01939,-0.3651 -2.83502,0.0225 -0.398091,0.28678 0.173937,0.0631 z"
     id="path4841"
     inkscape:connector-curvature="0" />
  <path
     style="fill:#006680;fill-opacity:1;stroke:#000000;stroke-width:0.07153597;stroke-opacity:0.02617804"
     d="m 5.43974,7.7752503 -0.03141,0.29885 -2.896025,8.8e-4 -0.143266,-0.14501 -0.143027,-0.21058 0.386332,-0.007 2.827392,0.0628"
     id="path4843"
     inkscape:connector-curvature="0" />
  <path
     style="fill:#c8ab37;fill-opacity:1;stroke:#000000;stroke-width:0.07153597;stroke-opacity:0.02617804"
     d="m 5.959823,8.7174203 -0.262342,0.23624 -0.23355,-0.18593 -0.0556,-0.69363 0.03141,-0.29885 0.01939,-0.3651 0.0831,-0.67954 0.26087,-0.26855 0.23543,0.29309 -0.07696,0.61654 -0.01334,0.76144 z"
     id="path4845"
     inkscape:connector-curvature="0" />
  <ellipse
     style="fill:#c8ab37;fill-opacity:1;stroke:#000000;stroke-width:0.07185667;stroke-opacity:0.02617804"
     id="ellipse4847"
     cx="-10.721513"
     cy="-2.7918897"
     rx="0.3316544"
     ry="0.2818805"
     transform="matrix(-0.48326546,-0.87547387,-0.80332274,0.59554393,0,0)" />
  <path
     style="fill:#d40000;fill-opacity:1;stroke:#000000;stroke-width:0.07153597;stroke-opacity:0.02617804"
     d="m 7.260086,7.4326403 -1.298117,0.0139 -0.02103,0.65858 1.540747,-0.04 -0.168093,-0.0488 -0.109012,-0.14387 -0.05571,-0.15592 0.01776,-0.15192 z"
     id="path4849"
     inkscape:connector-curvature="0" />
  <flowRoot
     transform="matrix(0.0625,0,0,0.0625,49.999999,2.2501831e-7)"
     xml:space="preserve"
     id="flowRoot100-0"
     style="font-style:normal;font-variant:normal;font-weight:bold;font-stretch:normal;font-size:16px;line-height:1.25;font-family:'DejaVu Sans';-inkscape-font-specification:'DejaVu Sans Bold';letter-spacing:0px;word-spacing:0px;fill:#000000;fill-opacity:1;stroke:none"><flowRegion
       id="flowRegion102-615"><rect
         id="rect104-5"
         width="24.242424"
         height="21.818182"
         x="10.606061"
         y="11.818182" /></flowRegion><flowPara
       id="flowPara106-47" /></flowRoot>  <flowRoot
     transform="matrix(0.0625,0,0,0.0625,59.999999,-4.8947157e-8)"
     xml:space="preserve"
     id="flowRoot100-9"
     style="font-style:normal;font-variant:normal;font-weight:bold;font-stretch:normal;font-size:16px;line-height:1.25;font-family:'DejaVu Sans';-inkscape-font-specification:'DejaVu Sans Bold';letter-spacing:0px;word-spacing:0px;fill:#000000;fill-opacity:1;stroke:none"><flowRegion
       id="flowRegion102-26"><rect
         id="rect104-6"
         width="24.242424"
         height="21.818182"
         x="10.606061"
         y="11.818182" /></flowRegion><flowPara
       id="flowPara106-49" /></flowRoot>  <flowRoot
     transform="matrix(0.0625,0,0,0.0625,69.999997,-1.8128662e-7)"
     xml:space="preserve"
     id="flowRoot100-48"
     style="font-style:normal;font-variant:normal;font-weight:bold;font-stretch:normal;font-size:16px;line-height:1.25;font-family:'DejaVu Sans';-inkscape-font-specification:'DejaVu Sans Bold';letter-spacing:0px;word-spacing:0px;fill:#000000;fill-opacity:1;stroke:none"><flowRegion
       id="flowRegion102-1"><rect
         id="rect104-29"
         width="24.242424"
         height="21.818182"
         x="10.606061"
         y="11.818182" /></flowRegion><flowPara
       id="flowPara106-3" /></flowRoot>  <flowRoot
     transform="matrix(0.0625,0,0,0.0625,79.999998,1.6533812e-7)"
     xml:space="preserve"
     id="flowRoot100-1"
     style="font-style:normal;font-variant:normal;font-weight:bold;font-stretch:normal;font-size:16px;line-height:1.25;font-family:'DejaVu Sans';-inkscape-font-specification:'DejaVu Sans Bold';letter-spacing:0px;word-spacing:0px;fill:#000000;fill-opacity:1;stroke:none"><flowRegion
       id="flowRegion102-15"><rect
         id="rect104-98"
         width="24.242424"
         height="21.818182"
         x="10.606061"
         y="11.818182" /></flowRegion><flowPara
       id="flowPara106-48" /></flowRoot></svg>
