<?xml version="1.0" encoding="UTF-8" standalone="no"?>
<svg
   xmlns:dc="http://purl.org/dc/elements/1.1/"
   xmlns:cc="http://creativecommons.org/ns#"
   xmlns:rdf="http://www.w3.org/1999/02/22-rdf-syntax-ns#"
   xmlns:svg="http://www.w3.org/2000/svg"
   xmlns="http://www.w3.org/2000/svg"
   xmlns:xlink="http://www.w3.org/1999/xlink"
   xmlns:sodipodi="http://sodipodi.sourceforge.net/DTD/sodipodi-0.dtd"
   xmlns:inkscape="http://www.inkscape.org/namespaces/inkscape"
   viewBox="0 0 160 250"
   height="250"
   width="160"
   id="svg815"
   version="1.1"
   sodipodi:docname="swords08.svg"
   inkscape:version="0.92.5 (2060ec1f9f, 2020-04-08)">
  <sodipodi:namedview
     pagecolor="#ffffff"
     bordercolor="#666666"
     borderopacity="1"
     objecttolerance="10"
     gridtolerance="10"
     guidetolerance="10"
     inkscape:pageopacity="0"
     inkscape:pageshadow="2"
     inkscape:window-width="1918"
     inkscape:window-height="1017"
     id="namedview12042"
     showgrid="false"
     inkscape:zoom="35.19811"
     inkscape:cx="7.8795825"
     inkscape:cy="242.66714"
     inkscape:window-x="0"
     inkscape:window-y="0"
     inkscape:window-maximized="1"
     inkscape:current-layer="svg815"
     inkscape:snap-page="true"
     inkscape:snap-global="true" />
  <metadata
     id="metadata821">
    <rdf:RDF>
      <cc:Work
         rdf:about="">
        <dc:format>image/svg+xml</dc:format>
        <dc:type
           rdf:resource="http://purl.org/dc/dcmitype/StillImage" />
        <dc:title></dc:title>
      </cc:Work>
    </rdf:RDF>
  </metadata>
  <defs
     id="defs819">
    <linearGradient
       gradientTransform="matrix(0.0625,0,0,0.0625,89.999996,7.4115112e-6)"
       gradientUnits="userSpaceOnUse"
       y2="68.472336"
       x2="56.128345"
       y1="63.697319"
       x1="61.166279"
       id="linearGradient876"
       xlink:href="#linearGradient882" />
    <linearGradient
       id="linearGradient882">
      <stop
         style="stop-color:#d16208;stop-opacity:1"
         offset="0"
         id="stop878" />
      <stop
         style="stop-color:#d16250;stop-opacity:0;"
         offset="1"
         id="stop880" />
    </linearGradient>
    <linearGradient
       gradientTransform="matrix(0.0625,0,0,0.0625,89.999996,7.4115112e-6)"
       gradientUnits="userSpaceOnUse"
       y2="71.008263"
       x2="88.849586"
       y1="58.644627"
       x1="82.105782"
       id="linearGradient1063"
       xlink:href="#linearGradient882" />
    <linearGradient
       gradientTransform="matrix(0.0625,0,0,0.0625,110,0)"
       xlink:href="#linearGradient846"
       id="linearGradient848"
       x1="72.37397"
       y1="53.171356"
       x2="72.19931"
       y2="45.564011"
       gradientUnits="userSpaceOnUse" />
    <linearGradient
       id="linearGradient846">
      <stop
         style="stop-color:#423abf;stop-opacity:1;"
         offset="0"
         id="stop842" />
      <stop
         style="stop-color:#423abf;stop-opacity:0;"
         offset="1"
         id="stop844" />
    </linearGradient>
  </defs>
  <flowRoot
     transform="matrix(0.125,0,0,0.125,70,109.375)"
     xml:space="preserve"
     id="flowRoot100"
     style="font-style:normal;font-variant:normal;font-weight:bold;font-stretch:normal;font-size:16px;line-height:1.25;font-family:'DejaVu Sans';-inkscape-font-specification:'DejaVu Sans Bold';letter-spacing:0px;word-spacing:0px;fill:#000000;fill-opacity:1;stroke:none"><flowRegion
       id="flowRegion102"><rect
         id="rect104"
         width="24.242424"
         height="21.818182"
         x="10.606061"
         y="11.818182" /></flowRegion><flowPara
       id="flowPara106" /></flowRoot>  <flowRoot
     transform="matrix(0.0625,0,0,0.0625,9.9999996,7.0251474e-8)"
     xml:space="preserve"
     id="flowRoot100-6"
     style="font-style:normal;font-variant:normal;font-weight:bold;font-stretch:normal;font-size:16px;line-height:1.25;font-family:'DejaVu Sans';-inkscape-font-specification:'DejaVu Sans Bold';letter-spacing:0px;word-spacing:0px;fill:#000000;fill-opacity:1;stroke:none"><flowRegion
       id="flowRegion102-2"><rect
         id="rect104-9"
         width="24.242424"
         height="21.818182"
         x="10.606061"
         y="11.818182" /></flowRegion><flowPara
       id="flowPara106-1" /></flowRoot>  <flowRoot
     transform="matrix(0.0625,0,0,0.0625,20,1.5827638e-7)"
     xml:space="preserve"
     id="flowRoot100-2"
     style="font-style:normal;font-variant:normal;font-weight:bold;font-stretch:normal;font-size:16px;line-height:1.25;font-family:'DejaVu Sans';-inkscape-font-specification:'DejaVu Sans Bold';letter-spacing:0px;word-spacing:0px;fill:#000000;fill-opacity:1;stroke:none"><flowRegion
       id="flowRegion102-6"><rect
         id="rect104-1"
         width="24.242424"
         height="21.818182"
         x="10.606061"
         y="11.818182" /></flowRegion><flowPara
       id="flowPara106-8" /></flowRoot>  <flowRoot
     transform="matrix(0.0625,0,0,0.0625,30,7.89978e-8)"
     xml:space="preserve"
     id="flowRoot100-3"
     style="font-style:normal;font-variant:normal;font-weight:bold;font-stretch:normal;font-size:16px;line-height:1.25;font-family:'DejaVu Sans';-inkscape-font-specification:'DejaVu Sans Bold';letter-spacing:0px;word-spacing:0px;fill:#000000;fill-opacity:1;stroke:none"><flowRegion
       id="flowRegion102-61"><rect
         id="rect104-2"
         width="24.242424"
         height="21.818182"
         x="10.606061"
         y="11.818182" /></flowRegion><flowPara
       id="flowPara106-9" /></flowRoot>  <flowRoot
     transform="matrix(0.0625,0,0,0.0625,40,3.2385253e-7)"
     xml:space="preserve"
     id="flowRoot100-4"
     style="font-style:normal;font-variant:normal;font-weight:bold;font-stretch:normal;font-size:16px;line-height:1.25;font-family:'DejaVu Sans';-inkscape-font-specification:'DejaVu Sans Bold';letter-spacing:0px;word-spacing:0px;fill:#000000;fill-opacity:1;stroke:none"><flowRegion
       id="flowRegion102-7"><rect
         id="rect104-8"
         width="24.242424"
         height="21.818182"
         x="10.606061"
         y="11.818182" /></flowRegion><flowPara
       id="flowPara106-4" /></flowRoot>  <flowRoot
     transform="matrix(0.0625,0,0,0.0625,49.999999,2.2501831e-7)"
     xml:space="preserve"
     id="flowRoot100-0"
     style="font-style:normal;font-variant:normal;font-weight:bold;font-stretch:normal;font-size:16px;line-height:1.25;font-family:'DejaVu Sans';-inkscape-font-specification:'DejaVu Sans Bold';letter-spacing:0px;word-spacing:0px;fill:#000000;fill-opacity:1;stroke:none"><flowRegion
       id="flowRegion102-615"><rect
         id="rect104-5"
         width="24.242424"
         height="21.818182"
         x="10.606061"
         y="11.818182" /></flowRegion><flowPara
       id="flowPara106-47" /></flowRoot>  <flowRoot
     transform="matrix(0.0625,0,0,0.0625,59.999999,-4.8947157e-8)"
     xml:space="preserve"
     id="flowRoot100-9"
     style="font-style:normal;font-variant:normal;font-weight:bold;font-stretch:normal;font-size:16px;line-height:1.25;font-family:'DejaVu Sans';-inkscape-font-specification:'DejaVu Sans Bold';letter-spacing:0px;word-spacing:0px;fill:#000000;fill-opacity:1;stroke:none"><flowRegion
       id="flowRegion102-26"><rect
         id="rect104-6"
         width="24.242424"
         height="21.818182"
         x="10.606061"
         y="11.818182" /></flowRegion><flowPara
       id="flowPara106-49" /></flowRoot>  <rect
     style="fill:#ffffff;fill-opacity:1;stroke:#1a1a1a;stroke-width:0.0625;stroke-opacity:1"
     id="swords08"
     width="10"
     height="15.625"
     x="0.033379987"
     y="0.026859073" />
  <flowRoot
     transform="matrix(0.0625,0,0,0.0625,69.999997,-1.8128662e-7)"
     xml:space="preserve"
     id="flowRoot100-48"
     style="font-style:normal;font-variant:normal;font-weight:bold;font-stretch:normal;font-size:16px;line-height:1.25;font-family:'DejaVu Sans';-inkscape-font-specification:'DejaVu Sans Bold';letter-spacing:0px;word-spacing:0px;fill:#000000;fill-opacity:1;stroke:none"><flowRegion
       id="flowRegion102-1"><rect
         id="rect104-29"
         width="24.242424"
         height="21.818182"
         x="10.606061"
         y="11.818182" /></flowRegion><flowPara
       id="flowPara106-3" /></flowRoot>  <rect
     style="fill:none;fill-opacity:1;stroke:#1a1a1a;stroke-width:0.0625;stroke-opacity:1"
     id="rect108-9"
     width="7.2537889"
     height="12.973484"
     x="1.3780746"
     y="1.3336829" />
  <g
     id="flowRoot915-08"
     style="font-style:normal;font-variant:normal;font-weight:bold;font-stretch:normal;font-size:16px;line-height:1.25;font-family:'DejaVu Sans';-inkscape-font-specification:'DejaVu Sans Bold';text-align:start;letter-spacing:0px;word-spacing:0px;text-anchor:start;fill:#000000;fill-opacity:1;stroke:none"
     transform="matrix(0.0625,0,0,0.0625,0.22277087,0.02685902)"
     aria-label="8">
    <path
       id="path366"
       d="m 8.6015625,13.482422 q -0.84375,0 -1.296875,0.460937 -0.453125,0.460938 -0.453125,1.320313 0,0.859375 0.453125,1.320312 0.453125,0.453125 1.296875,0.453125 0.8359375,0 1.28125,-0.453125 0.4453125,-0.460937 0.4453125,-1.320312 0,-0.867188 -0.4453125,-1.320313 Q 9.4375,13.482422 8.6015625,13.482422 Z M 6.40625,12.490234 Q 5.34375,12.169922 4.8046875,11.505859 4.265625,10.841797 4.265625,9.8496094 q 0,-1.4765625 1.1015625,-2.25 1.1015625,-0.7734375 3.234375,-0.7734375 2.1171875,0 3.2187505,0.7734375 1.101562,0.765625 1.101562,2.25 0,0.9921876 -0.546875,1.6562496 -0.539062,0.664063 -1.601562,0.984375 1.1875,0.328125 1.789062,1.070313 0.609375,0.734375 0.609375,1.859375 0,1.734375 -1.15625,2.625 -1.148437,0.882812 -3.4140625,0.882812 -2.2734375,0 -3.4375,-0.882812 -1.15625,-0.890625 -1.15625,-2.625 0,-1.125 0.6015625,-1.859375 0.609375,-0.742188 1.796875,-1.070313 z m 0.703125,-2.335937 q 0,0.695312 0.3828125,1.070312 0.390625,0.375 1.109375,0.375 0.703125,0 1.0859375,-0.375 0.382813,-0.375 0.382813,-1.070312 0,-0.6953126 -0.382813,-1.0625001 -0.3828125,-0.375 -1.0859375,-0.375 -0.71875,0 -1.109375,0.375 -0.3828125,0.375 -0.3828125,1.0625001 z"
       inkscape:connector-curvature="0" />
  </g>
  <path
     style="fill:#00aad4;fill-opacity:1;stroke:#000000;stroke-width:0.05567733;stroke-opacity:0.02617804"
     d="m 2.4140209,3.7681792 0.221164,-0.0194 -0.01361,2.83503 -0.17372,0.3980897 -0.03823,-0.17394 z"
     id="path825-85"
     inkscape:connector-curvature="0" />
  <path
     style="fill:#006680;fill-opacity:1;stroke:#000000;stroke-width:0.05567733;stroke-opacity:0.02617804"
     d="m 2.4140209,3.7681792 -0.181035,0.0314 -5.31e-4,2.89602 0.08784,0.1432697 0.127564,0.14303 0.0042,-0.3863397 -0.03804,-2.82739"
     id="path827-0"
     inkscape:connector-curvature="0" />
  <path
     style="fill:#c8ab37;fill-opacity:1;stroke:#000000;stroke-width:0.05567733;stroke-opacity:0.02617804"
     d="m 1.8432819,3.2480992 -0.143107,0.26234 0.112631,0.23355 0.42018,0.0556 0.181035,-0.0314 0.221164,-0.0194 0.4116472,-0.0831 0.16268,-0.26087 -0.177548,-0.23543 -0.3734822,0.077 -0.461257,0.0133 z"
     id="path829-9"
     inkscape:connector-curvature="0" />
  <ellipse
     style="fill:#c8ab37;fill-opacity:1;stroke:#000000;stroke-width:0.05711752;stroke-opacity:0.02617804"
     id="path833-6"
     cx="3.1165888"
     cy="-0.34569907"
     rx="0.23796096"
     ry="0.2482273"
     transform="matrix(0.73914738,0.67354372,-0.40967279,0.91223254,0,0)" />
  <path
     style="fill:#d40000;fill-opacity:1;stroke:#000000;stroke-width:0.05567733;stroke-opacity:0.02617804"
     d="m 2.6215649,1.9478389 -0.0084,1.2981103 -0.398948,0.021 0.02421,-1.5407503 0.02956,0.1681 0.08715,0.10901 0.09445,0.0557 0.09203,-0.0178 z"
     id="path835-38"
     inkscape:connector-curvature="0" />
  <path
     id="path4945"
     d="m 4.0806881,4.7775692 0.221163,0.0194 -0.01361,-2.8350203 -0.173719,-0.39809 -0.03823,0.17394 z"
     style="fill:#00aad4;fill-opacity:1;stroke:#000000;stroke-width:0.05567733;stroke-opacity:0.02617804"
     inkscape:connector-curvature="0" />
  <path
     id="path4947"
     d="m 4.0806881,4.7775692 -0.181035,-0.0314 -5.31e-4,-2.8960303 0.08784,-0.14326 0.127564,-0.14303 0.0042,0.38633 -0.03804,2.8273903"
     style="fill:#006680;fill-opacity:1;stroke:#000000;stroke-width:0.05567733;stroke-opacity:0.02617804"
     inkscape:connector-curvature="0" />
  <path
     id="path4949"
     d="m 3.5099491,5.2976592 -0.143107,-0.26235 0.112631,-0.23355 0.42018,-0.0556 0.181035,0.0314 0.221163,0.0194 0.411647,0.0831 0.16268,0.26087 -0.177547,0.23542 -0.373482,-0.077 -0.461257,-0.0133 z"
     style="fill:#c8ab37;fill-opacity:1;stroke:#000000;stroke-width:0.05567733;stroke-opacity:0.02617804"
     inkscape:connector-curvature="0" />
  <ellipse
     transform="matrix(0.73914738,-0.67354372,-0.40967279,-0.91223254,0,0)"
     ry="0.2482273"
     rx="0.23796096"
     cy="-8.1746759"
     cx="1.0322262"
     id="ellipse4951"
     style="fill:#c8ab37;fill-opacity:1;stroke:#000000;stroke-width:0.05711752;stroke-opacity:0.02617804" />
  <path
     id="path4953"
     d="m 4.2882321,6.5979192 -0.0084,-1.29812 -0.398948,-0.021 0.02421,1.5407397 0.02956,-0.1680897 0.08715,-0.10901 0.09445,-0.0557 0.09203,0.0178 z"
     style="fill:#d40000;fill-opacity:1;stroke:#000000;stroke-width:0.05567733;stroke-opacity:0.02617804"
     inkscape:connector-curvature="0" />
  <path
     id="path4955"
     d="m 5.9935671,3.7681792 0.221163,-0.0194 -0.01361,2.83503 -0.173719,0.3980897 -0.03823,-0.17394 z"
     style="fill:#00aad4;fill-opacity:1;stroke:#000000;stroke-width:0.05567733;stroke-opacity:0.02617804"
     inkscape:connector-curvature="0" />
  <path
     id="path4957"
     d="m 5.9935671,3.7681792 -0.181035,0.0314 -5.32e-4,2.89602 0.08784,0.1432697 0.127565,0.14303 0.0042,-0.3863397 -0.03804,-2.82739"
     style="fill:#006680;fill-opacity:1;stroke:#000000;stroke-width:0.05567733;stroke-opacity:0.02617804"
     inkscape:connector-curvature="0" />
  <path
     id="path4959"
     d="m 5.4228281,3.2480992 -0.143108,0.26234 0.112632,0.23355 0.42018,0.0556 0.181035,-0.0314 0.221163,-0.0194 0.411647,-0.0831 0.16268,-0.26087 -0.177548,-0.23543 -0.373482,0.077 -0.461257,0.0133 z"
     style="fill:#c8ab37;fill-opacity:1;stroke:#000000;stroke-width:0.05567733;stroke-opacity:0.02617804"
     inkscape:connector-curvature="0" />
  <ellipse
     transform="matrix(0.73914738,0.67354372,-0.40967279,0.91223254,0,0)"
     ry="0.2482273"
     rx="0.23796096"
     cy="-2.8830183"
     cx="6.5530896"
     id="ellipse4961"
     style="fill:#c8ab37;fill-opacity:1;stroke:#000000;stroke-width:0.05711752;stroke-opacity:0.02617804" />
  <path
     id="path4963"
     d="m 6.2011111,1.9478389 -0.0084,1.2981103 -0.398948,0.021 0.02421,-1.5407503 0.02956,0.1681 0.08715,0.10901 0.09445,0.0557 0.09203,-0.0178 z"
     style="fill:#d40000;fill-opacity:1;stroke:#000000;stroke-width:0.05567733;stroke-opacity:0.02617804"
     inkscape:connector-curvature="0" />
  <path
     style="fill:#00aad4;fill-opacity:1;stroke:#000000;stroke-width:0.05567733;stroke-opacity:0.02617804"
     d="m 7.6602331,4.7775692 0.221164,0.0194 -0.01361,-2.8350203 -0.17372,-0.39809 -0.03823,0.17394 z"
     id="path4965"
     inkscape:connector-curvature="0" />
  <path
     style="fill:#006680;fill-opacity:1;stroke:#000000;stroke-width:0.05567733;stroke-opacity:0.02617804"
     d="m 7.6602331,4.7775692 -0.181035,-0.0314 -5e-4,-2.8960303 0.08784,-0.14326 0.127565,-0.14303 0.0042,0.38633 -0.03804,2.8273903"
     id="path4967"
     inkscape:connector-curvature="0" />
  <path
     style="fill:#c8ab37;fill-opacity:1;stroke:#000000;stroke-width:0.05567733;stroke-opacity:0.02617804"
     d="m 7.0894941,5.2976592 -0.143107,-0.26235 0.112631,-0.23355 0.42018,-0.0556 0.181035,0.0314 0.221164,0.0194 0.411647,0.0831 0.16268,0.26087 -0.177548,0.23542 -0.373482,-0.077 -0.461257,-0.0133 z"
     id="path4969"
     inkscape:connector-curvature="0" />
  <ellipse
     style="fill:#c8ab37;fill-opacity:1;stroke:#000000;stroke-width:0.05711752;stroke-opacity:0.02617804"
     id="ellipse4971"
     cx="4.468719"
     cy="-10.711999"
     rx="0.23796096"
     ry="0.2482273"
     transform="matrix(0.73914738,-0.67354372,-0.40967279,-0.91223254,0,0)" />
  <path
     style="fill:#d40000;fill-opacity:1;stroke:#000000;stroke-width:0.05567733;stroke-opacity:0.02617804"
     d="m 7.8677771,6.5979192 -0.0084,-1.29812 -0.398948,-0.021 0.02421,1.5407397 0.02956,-0.1680897 0.08715,-0.10901 0.09445,-0.0557 0.09203,0.0178 z"
     id="path4973"
     inkscape:connector-curvature="0" />
  <path
     id="path4975"
     d="m 2.4140209,11.709389 0.221164,0.0194 -0.01361,-2.8350196 -0.17372,-0.39809 -0.03823,0.17393 z"
     style="fill:#00aad4;fill-opacity:1;stroke:#000000;stroke-width:0.05567733;stroke-opacity:0.02617804"
     inkscape:connector-curvature="0" />
  <path
     id="path4977"
     d="m 2.4140209,11.709389 -0.181035,-0.0314 -5.31e-4,-2.8960296 0.08784,-0.14327 0.127564,-0.14302 0.0042,0.38633 -0.03804,2.8273896"
     style="fill:#006680;fill-opacity:1;stroke:#000000;stroke-width:0.05567733;stroke-opacity:0.02617804"
     inkscape:connector-curvature="0" />
  <path
     id="path4979"
     d="m 1.8432819,12.229469 -0.143107,-0.26234 0.112631,-0.23355 0.42018,-0.0556 0.181035,0.0314 0.221164,0.0194 0.4116472,0.0831 0.16268,0.26087 -0.177548,0.23543 -0.3734822,-0.077 -0.461257,-0.0133 z"
     style="fill:#c8ab37;fill-opacity:1;stroke:#000000;stroke-width:0.05567733;stroke-opacity:0.02617804"
     inkscape:connector-curvature="0" />
  <ellipse
     transform="matrix(0.73914738,-0.67354372,-0.40967279,-0.91223254,0,0)"
     ry="0.2482273"
     rx="0.23796096"
     cy="-12.3854"
     cx="-3.5564237"
     id="ellipse4981"
     style="fill:#c8ab37;fill-opacity:1;stroke:#000000;stroke-width:0.05711752;stroke-opacity:0.02617804" />
  <path
     id="path4983"
     d="m 2.6215649,13.529739 -0.0084,-1.29812 -0.398948,-0.021 0.02421,1.54075 0.02956,-0.16809 0.08715,-0.10901 0.09445,-0.0557 0.09203,0.0178 z"
     style="fill:#d40000;fill-opacity:1;stroke:#000000;stroke-width:0.05567733;stroke-opacity:0.02617804"
     inkscape:connector-curvature="0" />
  <path
     style="fill:#00aad4;fill-opacity:1;stroke:#000000;stroke-width:0.05567733;stroke-opacity:0.02617804"
     d="m 4.0806881,10.699999 0.221163,-0.0194 -0.01361,2.83502 -0.173719,0.39809 -0.03823,-0.17393 z"
     id="path4985"
     inkscape:connector-curvature="0" />
  <path
     style="fill:#006680;fill-opacity:1;stroke:#000000;stroke-width:0.05567733;stroke-opacity:0.02617804"
     d="m 4.0806881,10.699999 -0.181035,0.0314 -5.31e-4,2.89602 0.08784,0.14327 0.127564,0.14302 0.0042,-0.38633 -0.03804,-2.82739"
     id="path4987"
     inkscape:connector-curvature="0" />
  <path
     style="fill:#c8ab37;fill-opacity:1;stroke:#000000;stroke-width:0.05567733;stroke-opacity:0.02617804"
     d="m 3.5099491,10.179919 -0.143107,0.26234 0.112631,0.23355 0.42018,0.0556 0.181035,-0.0314 0.221163,-0.0194 0.411647,-0.0831 0.16268,-0.26087 -0.177547,-0.23543 -0.373482,0.077 -0.461257,0.0133 z"
     id="path4989"
     inkscape:connector-curvature="0" />
  <ellipse
     style="fill:#c8ab37;fill-opacity:1;stroke:#000000;stroke-width:0.05711752;stroke-opacity:0.02617804"
     id="ellipse4991"
     cx="7.705235"
     cy="3.8650286"
     rx="0.23796096"
     ry="0.2482273"
     transform="matrix(0.73914738,0.67354372,-0.40967279,0.91223254,0,0)" />
  <path
     style="fill:#d40000;fill-opacity:1;stroke:#000000;stroke-width:0.05567733;stroke-opacity:0.02617804"
     d="m 4.2882321,8.8796494 -0.0084,1.2981196 -0.398948,0.021 0.02421,-1.5407496 0.02956,0.16809 0.08715,0.10901 0.09445,0.0557 0.09203,-0.0178 z"
     id="path4993"
     inkscape:connector-curvature="0" />
  <path
     style="fill:#00aad4;fill-opacity:1;stroke:#000000;stroke-width:0.05567733;stroke-opacity:0.02617804"
     d="m 5.9935671,11.709389 0.221163,0.0194 -0.01361,-2.8350196 -0.173719,-0.39809 -0.03823,0.17393 z"
     id="path4995"
     inkscape:connector-curvature="0" />
  <path
     style="fill:#006680;fill-opacity:1;stroke:#000000;stroke-width:0.05567733;stroke-opacity:0.02617804"
     d="m 5.9935671,11.709389 -0.181035,-0.0314 -5.32e-4,-2.8960296 0.08784,-0.14327 0.127565,-0.14302 0.0042,0.38633 -0.03804,2.8273896"
     id="path4997"
     inkscape:connector-curvature="0" />
  <path
     style="fill:#c8ab37;fill-opacity:1;stroke:#000000;stroke-width:0.05567733;stroke-opacity:0.02617804"
     d="m 5.4228281,12.229469 -0.143108,-0.26234 0.112632,-0.23355 0.42018,-0.0556 0.181035,0.0314 0.221163,0.0194 0.411647,0.0831 0.16268,0.26087 -0.177548,0.23543 -0.373482,-0.077 -0.461257,-0.0133 z"
     id="path4999"
     inkscape:connector-curvature="0" />
  <ellipse
     style="fill:#c8ab37;fill-opacity:1;stroke:#000000;stroke-width:0.05711752;stroke-opacity:0.02617804"
     id="ellipse5001"
     cx="-0.11993444"
     cy="-14.922723"
     rx="0.23796096"
     ry="0.2482273"
     transform="matrix(0.73914738,-0.67354372,-0.40967279,-0.91223254,0,0)" />
  <path
     style="fill:#d40000;fill-opacity:1;stroke:#000000;stroke-width:0.05567733;stroke-opacity:0.02617804"
     d="m 6.2011111,13.529739 -0.0084,-1.29812 -0.398948,-0.021 0.02421,1.54075 0.02956,-0.16809 0.08715,-0.10901 0.09445,-0.0557 0.09203,0.0178 z"
     id="path5003"
     inkscape:connector-curvature="0" />
  <path
     id="path5005"
     d="m 7.6602331,10.699999 0.221164,-0.0194 -0.01361,2.83502 -0.17372,0.39809 -0.03823,-0.17393 z"
     style="fill:#00aad4;fill-opacity:1;stroke:#000000;stroke-width:0.05567733;stroke-opacity:0.02617804"
     inkscape:connector-curvature="0" />
  <path
     id="path5007"
     d="m 7.6602331,10.699999 -0.181035,0.0314 -5e-4,2.89602 0.08784,0.14327 0.127565,0.14302 0.0042,-0.38633 -0.03804,-2.82739"
     style="fill:#006680;fill-opacity:1;stroke:#000000;stroke-width:0.05567733;stroke-opacity:0.02617804"
     inkscape:connector-curvature="0" />
  <path
     id="path5009"
     d="m 7.0894941,10.179919 -0.143107,0.26234 0.112631,0.23355 0.42018,0.0556 0.181035,-0.0314 0.221164,-0.0194 0.411647,-0.0831 0.16268,-0.26087 -0.177548,-0.23543 -0.373482,0.077 -0.461257,0.0133 z"
     style="fill:#c8ab37;fill-opacity:1;stroke:#000000;stroke-width:0.05567733;stroke-opacity:0.02617804"
     inkscape:connector-curvature="0" />
  <ellipse
     transform="matrix(0.73914738,0.67354372,-0.40967279,0.91223254,0,0)"
     ry="0.2482273"
     rx="0.23796096"
     cy="1.3277097"
     cx="11.141727"
     id="ellipse5011"
     style="fill:#c8ab37;fill-opacity:1;stroke:#000000;stroke-width:0.05711752;stroke-opacity:0.02617804" />
  <path
     id="path5013"
     d="m 7.8677771,8.8796494 -0.0084,1.2981196 -0.398948,0.021 0.02421,-1.5407496 0.02956,0.16809 0.08715,0.10901 0.09445,0.0557 0.09203,-0.0178 z"
     style="fill:#d40000;fill-opacity:1;stroke:#000000;stroke-width:0.05567733;stroke-opacity:0.02617804"
     inkscape:connector-curvature="0" />
  <flowRoot
     transform="matrix(0.0625,0,0,0.0625,79.999998,1.6533812e-7)"
     xml:space="preserve"
     id="flowRoot100-1"
     style="font-style:normal;font-variant:normal;font-weight:bold;font-stretch:normal;font-size:16px;line-height:1.25;font-family:'DejaVu Sans';-inkscape-font-specification:'DejaVu Sans Bold';letter-spacing:0px;word-spacing:0px;fill:#000000;fill-opacity:1;stroke:none"><flowRegion
       id="flowRegion102-15"><rect
         id="rect104-98"
         width="24.242424"
         height="21.818182"
         x="10.606061"
         y="11.818182" /></flowRegion><flowPara
       id="flowPara106-48" /></flowRoot></svg>
