<?xml version="1.0" encoding="UTF-8" standalone="no"?>
<svg
   xmlns:dc="http://purl.org/dc/elements/1.1/"
   xmlns:cc="http://creativecommons.org/ns#"
   xmlns:rdf="http://www.w3.org/1999/02/22-rdf-syntax-ns#"
   xmlns:svg="http://www.w3.org/2000/svg"
   xmlns="http://www.w3.org/2000/svg"
   xmlns:xlink="http://www.w3.org/1999/xlink"
   xmlns:sodipodi="http://sodipodi.sourceforge.net/DTD/sodipodi-0.dtd"
   xmlns:inkscape="http://www.inkscape.org/namespaces/inkscape"
   viewBox="0 0 160 250"
   height="250"
   width="160"
   id="svg815"
   version="1.1"
   sodipodi:docname="swords10.svg"
   inkscape:version="0.92.5 (2060ec1f9f, 2020-04-08)">
  <sodipodi:namedview
     pagecolor="#ffffff"
     bordercolor="#666666"
     borderopacity="1"
     objecttolerance="10"
     gridtolerance="10"
     guidetolerance="10"
     inkscape:pageopacity="0"
     inkscape:pageshadow="2"
     inkscape:window-width="1918"
     inkscape:window-height="1017"
     id="namedview12042"
     showgrid="false"
     inkscape:zoom="56.194789"
     inkscape:cx="4.9701561"
     inkscape:cy="243.41948"
     inkscape:window-x="0"
     inkscape:window-y="0"
     inkscape:window-maximized="1"
     inkscape:current-layer="svg815"
     inkscape:snap-page="true" />
  <metadata
     id="metadata821">
    <rdf:RDF>
      <cc:Work
         rdf:about="">
        <dc:format>image/svg+xml</dc:format>
        <dc:type
           rdf:resource="http://purl.org/dc/dcmitype/StillImage" />
        <dc:title></dc:title>
      </cc:Work>
    </rdf:RDF>
  </metadata>
  <defs
     id="defs819">
    <linearGradient
       gradientTransform="matrix(0.0625,0,0,0.0625,0.05810478,0.02781248)"
       gradientUnits="userSpaceOnUse"
       y2="68.472336"
       x2="56.128345"
       y1="63.697319"
       x1="61.166279"
       id="linearGradient876"
       xlink:href="#linearGradient882" />
    <linearGradient
       id="linearGradient882">
      <stop
         style="stop-color:#d16208;stop-opacity:1"
         offset="0"
         id="stop878" />
      <stop
         style="stop-color:#d16250;stop-opacity:0;"
         offset="1"
         id="stop880" />
    </linearGradient>
    <linearGradient
       gradientTransform="matrix(0.0625,0,0,0.0625,0.05810478,0.02781248)"
       gradientUnits="userSpaceOnUse"
       y2="71.008263"
       x2="88.849586"
       y1="58.644627"
       x1="82.105782"
       id="linearGradient1063"
       xlink:href="#linearGradient882" />
    <linearGradient
       gradientTransform="matrix(0.0625,0,0,0.0625,110,0)"
       xlink:href="#linearGradient846"
       id="linearGradient848"
       x1="72.37397"
       y1="53.171356"
       x2="72.19931"
       y2="45.564011"
       gradientUnits="userSpaceOnUse" />
    <linearGradient
       id="linearGradient846">
      <stop
         style="stop-color:#423abf;stop-opacity:1;"
         offset="0"
         id="stop842" />
      <stop
         style="stop-color:#423abf;stop-opacity:0;"
         offset="1"
         id="stop844" />
    </linearGradient>
  </defs>
  <flowRoot
     transform="matrix(0.125,0,0,0.125,70,109.375)"
     xml:space="preserve"
     id="flowRoot100"
     style="font-style:normal;font-variant:normal;font-weight:bold;font-stretch:normal;font-size:16px;line-height:1.25;font-family:'DejaVu Sans';-inkscape-font-specification:'DejaVu Sans Bold';letter-spacing:0px;word-spacing:0px;fill:#000000;fill-opacity:1;stroke:none"><flowRegion
       id="flowRegion102"><rect
         id="rect104"
         width="24.242424"
         height="21.818182"
         x="10.606061"
         y="11.818182" /></flowRegion><flowPara
       id="flowPara106" /></flowRoot>  <flowRoot
     transform="matrix(0.0625,0,0,0.0625,9.9999996,7.0251474e-8)"
     xml:space="preserve"
     id="flowRoot100-6"
     style="font-style:normal;font-variant:normal;font-weight:bold;font-stretch:normal;font-size:16px;line-height:1.25;font-family:'DejaVu Sans';-inkscape-font-specification:'DejaVu Sans Bold';letter-spacing:0px;word-spacing:0px;fill:#000000;fill-opacity:1;stroke:none"><flowRegion
       id="flowRegion102-2"><rect
         id="rect104-9"
         width="24.242424"
         height="21.818182"
         x="10.606061"
         y="11.818182" /></flowRegion><flowPara
       id="flowPara106-1" /></flowRoot>  <flowRoot
     transform="matrix(0.0625,0,0,0.0625,20,1.5827638e-7)"
     xml:space="preserve"
     id="flowRoot100-2"
     style="font-style:normal;font-variant:normal;font-weight:bold;font-stretch:normal;font-size:16px;line-height:1.25;font-family:'DejaVu Sans';-inkscape-font-specification:'DejaVu Sans Bold';letter-spacing:0px;word-spacing:0px;fill:#000000;fill-opacity:1;stroke:none"><flowRegion
       id="flowRegion102-6"><rect
         id="rect104-1"
         width="24.242424"
         height="21.818182"
         x="10.606061"
         y="11.818182" /></flowRegion><flowPara
       id="flowPara106-8" /></flowRoot>  <flowRoot
     transform="matrix(0.0625,0,0,0.0625,30,7.89978e-8)"
     xml:space="preserve"
     id="flowRoot100-3"
     style="font-style:normal;font-variant:normal;font-weight:bold;font-stretch:normal;font-size:16px;line-height:1.25;font-family:'DejaVu Sans';-inkscape-font-specification:'DejaVu Sans Bold';letter-spacing:0px;word-spacing:0px;fill:#000000;fill-opacity:1;stroke:none"><flowRegion
       id="flowRegion102-61"><rect
         id="rect104-2"
         width="24.242424"
         height="21.818182"
         x="10.606061"
         y="11.818182" /></flowRegion><flowPara
       id="flowPara106-9" /></flowRoot>  <flowRoot
     transform="matrix(0.0625,0,0,0.0625,40,3.2385253e-7)"
     xml:space="preserve"
     id="flowRoot100-4"
     style="font-style:normal;font-variant:normal;font-weight:bold;font-stretch:normal;font-size:16px;line-height:1.25;font-family:'DejaVu Sans';-inkscape-font-specification:'DejaVu Sans Bold';letter-spacing:0px;word-spacing:0px;fill:#000000;fill-opacity:1;stroke:none"><flowRegion
       id="flowRegion102-7"><rect
         id="rect104-8"
         width="24.242424"
         height="21.818182"
         x="10.606061"
         y="11.818182" /></flowRegion><flowPara
       id="flowPara106-4" /></flowRoot>  <flowRoot
     transform="matrix(0.0625,0,0,0.0625,49.999999,2.2501831e-7)"
     xml:space="preserve"
     id="flowRoot100-0"
     style="font-style:normal;font-variant:normal;font-weight:bold;font-stretch:normal;font-size:16px;line-height:1.25;font-family:'DejaVu Sans';-inkscape-font-specification:'DejaVu Sans Bold';letter-spacing:0px;word-spacing:0px;fill:#000000;fill-opacity:1;stroke:none"><flowRegion
       id="flowRegion102-615"><rect
         id="rect104-5"
         width="24.242424"
         height="21.818182"
         x="10.606061"
         y="11.818182" /></flowRegion><flowPara
       id="flowPara106-47" /></flowRoot>  <flowRoot
     transform="matrix(0.0625,0,0,0.0625,59.999999,-4.8947157e-8)"
     xml:space="preserve"
     id="flowRoot100-9"
     style="font-style:normal;font-variant:normal;font-weight:bold;font-stretch:normal;font-size:16px;line-height:1.25;font-family:'DejaVu Sans';-inkscape-font-specification:'DejaVu Sans Bold';letter-spacing:0px;word-spacing:0px;fill:#000000;fill-opacity:1;stroke:none"><flowRegion
       id="flowRegion102-26"><rect
         id="rect104-6"
         width="24.242424"
         height="21.818182"
         x="10.606061"
         y="11.818182" /></flowRegion><flowPara
       id="flowPara106-49" /></flowRoot>  <flowRoot
     transform="matrix(0.0625,0,0,0.0625,69.999997,-1.8128662e-7)"
     xml:space="preserve"
     id="flowRoot100-48"
     style="font-style:normal;font-variant:normal;font-weight:bold;font-stretch:normal;font-size:16px;line-height:1.25;font-family:'DejaVu Sans';-inkscape-font-specification:'DejaVu Sans Bold';letter-spacing:0px;word-spacing:0px;fill:#000000;fill-opacity:1;stroke:none"><flowRegion
       id="flowRegion102-1"><rect
         id="rect104-29"
         width="24.242424"
         height="21.818182"
         x="10.606061"
         y="11.818182" /></flowRegion><flowPara
       id="flowPara106-3" /></flowRoot>  <flowRoot
     transform="matrix(0.0625,0,0,0.0625,79.999998,1.6533812e-7)"
     xml:space="preserve"
     id="flowRoot100-1"
     style="font-style:normal;font-variant:normal;font-weight:bold;font-stretch:normal;font-size:16px;line-height:1.25;font-family:'DejaVu Sans';-inkscape-font-specification:'DejaVu Sans Bold';letter-spacing:0px;word-spacing:0px;fill:#000000;fill-opacity:1;stroke:none"><flowRegion
       id="flowRegion102-15"><rect
         id="rect104-98"
         width="24.242424"
         height="21.818182"
         x="10.606061"
         y="11.818182" /></flowRegion><flowPara
       id="flowPara106-48" /></flowRoot>  <rect
     style="fill:#ffffff;fill-opacity:1;stroke:#1a1a1a;stroke-width:0.0625;stroke-opacity:1"
     id="swords10"
     width="10"
     height="15.625"
     x="0.058108721"
     y="0.027805042" />
  <rect
     style="fill:none;fill-opacity:1;stroke:#1a1a1a;stroke-width:0.0625;stroke-opacity:1"
     id="rect108-64"
     width="7.2537889"
     height="12.973484"
     x="1.4028049"
     y="1.3346362" />
  <g
     id="flowRoot915-3"
     style="font-style:normal;font-variant:normal;font-weight:bold;font-stretch:normal;font-size:16px;line-height:1.25;font-family:'DejaVu Sans';-inkscape-font-specification:'DejaVu Sans Bold';text-align:start;letter-spacing:0px;word-spacing:0px;text-anchor:start;fill:#000000;fill-opacity:1;stroke:none"
     transform="matrix(0.0625,0,0,0.0625,0.24749878,0.02781248)"
     aria-label="10">
    <path
       id="path502"
       d="M 4.90625,16.623047 H 7.5625 V 9.0839844 l -2.7265625,0.5625 v -2.046875 l 2.7109375,-0.5625 h 2.859375 v 9.5859376 h 2.65625 v 2.078125 H 4.90625 Z"
       inkscape:connector-curvature="0" />
    <path
       id="path504"
       d="m 21.523437,12.857422 q 0,-2.1875 -0.414062,-3.0781251 -0.40625,-0.8984375 -1.375,-0.8984375 -0.96875,0 -1.382813,0.8984375 -0.414062,0.8906251 -0.414062,3.0781251 0,2.210937 0.414062,3.117187 0.414063,0.90625 1.382813,0.90625 0.960937,0 1.375,-0.90625 0.414062,-0.90625 0.414062,-3.117187 z m 3.007813,0.02344 q 0,2.898438 -1.25,4.476563 -1.25,1.570312 -3.546875,1.570312 -2.304688,0 -3.554688,-1.570312 -1.249999,-1.578125 -1.249999,-4.476563 0,-2.9062496 1.249999,-4.4765621 1.25,-1.578125 3.554688,-1.578125 2.296875,0 3.546875,1.578125 1.25,1.5703125 1.25,4.4765621 z"
       inkscape:connector-curvature="0" />
  </g>
  <path
     id="path927"
     d="m 3.7939178,3.6434424 -0.26405,-0.1907 -0.05868,-0.14181 -0.01467,-0.12713 0.02445,-0.10269 0.06357,-0.10757 0.112465,-0.0929 0.141804,-0.0978 0.117356,-0.0782 0.0978,-0.0245 0.122245,-0.0196 0.132025,-0.0245 0.05379,-0.01 0.0049,-0.0391 0.02445,-0.0831 0.02934,-0.0684 0.07335,-0.0489 0.122245,-0.01 0.136915,0.01 0.176033,0.0147 0.117355,0.0293 0.07824,0.0636 0.112466,0.0929 0.03912,0.0782 0.02934,0.0929 0.02445,0.0929 -0.0098,0.0831 0.01467,0.0636 0.0978,0.0196 0.117355,0.0636 0.08313,0.0636 0.08802,0.0733 0.07335,0.0636 0.03912,0.0342 0.05868,0.0782 v 0.0685 l -0.01467,0.0587 -0.03912,0.0734 -0.07824,0.0538 -0.06357,0.0342 -0.117355,0.0196 -0.112465,-0.005 -0.136915,-0.15159 -0.09291,-0.10757 -0.07824,-0.0978 -0.05379,-0.01 -0.07335,-0.044 -0.02445,-0.044 -0.08313,-0.0831 -0.112466,-0.0293 h -0.08313 l -0.127135,-0.005 h -0.156474 l -0.08313,0.0293 -0.122245,0.0538 -0.09291,0.0391 -0.0978,0.0685 v 0.0782 l -0.02445,0.0538 -0.05868,0.0391 -0.05379,0.0489 z"
     style="fill:#008000;fill-opacity:0.61780108;stroke:#000000;stroke-width:0.0625;stroke-opacity:0.22110554"
     inkscape:connector-curvature="0" />
  <path
     id="path929"
     d="m 4.5881338,3.1128924 c -0.06153,-0.002 -0.12293,7.9e-4 -0.182983,0.0122 -0.105563,0.0201 -0.204034,0.0708 -0.29834,0.12231 -0.03492,0.0191 -0.0794,0.0331 -0.09778,0.0684 -0.01204,0.0231 0.0055,0.0528 0,0.0782 -0.0042,0.0192 -0.02441,0.0538 -0.02441,0.0538 l 0.0098,0.17602 0.01953,0.1858 0.04407,0.13696 0.03418,0.13684 0.04407,0.0636 0.04883,0.1272 0.04407,0.0391 0.08801,0.0489 0.0049,0.12707 0.02441,0.0343 0.08801,0.0831 0.08801,0.0391 h 0.07336 l 0.176025,-0.0439 0.07336,-0.0245 0.07336,-0.0488 0.05383,-0.0343 0.03906,-0.10266 -0.0293,-0.088 0.0049,-0.11242 -0.01953,-0.1418499 0.05371,-0.0391 0.0636,-0.0343 0.05383,-0.0636 -0.005,-0.0978 -0.03418,-0.088 -0.0293,-0.0734 -0.03919,-0.0391 -0.0049,-0.0929 c 0,0 -0.0047,-0.0719 -0.0098,-0.10754 -0.006,-0.0427 -0.02441,-0.1272 -0.02441,-0.1272 0,0 -0.06056,-0.0975 -0.107544,-0.12707 -0.03279,-0.0206 -0.07415,-0.0242 -0.112549,-0.0294 -0.06058,-0.008 -0.12219,-0.0151 -0.183716,-0.0171 z"
     style="fill:#ffaaaa;fill-opacity:0.61780108;stroke:#000000;stroke-width:0.0625;stroke-opacity:0.22110554"
     inkscape:connector-curvature="0" />
  <path
     id="path934"
     d="m 4.1410938,3.3549424 h 0.08802 l 0.06846,0.01 0.05379,0.0342"
     style="fill:#ffaaaa;fill-opacity:0.61780108;stroke:#000000;stroke-width:0.0625;stroke-opacity:0.22110554"
     inkscape:connector-curvature="0" />
  <path
     id="path936"
     d="m 4.5860658,3.4038424 0.04401,-0.0342 h 0.06357 0.05379 0.03423"
     style="fill:#ffaaaa;fill-opacity:0.61780108;stroke:#000000;stroke-width:0.0625;stroke-opacity:0.22110554"
     inkscape:connector-curvature="0" />
  <path
     id="path938"
     d="m 4.3464658,3.4967524 -0.185813,-0.005"
     style="fill:#ffaaaa;fill-opacity:0.61780108;stroke:#000000;stroke-width:0.0625;stroke-opacity:0.22110554"
     inkscape:connector-curvature="0" />
  <path
     id="path940"
     d="m 4.5958458,3.4967524 0.0489,0.0391 0.06846,0.005 h 0.05868 l 0.02934,-0.0196 -0.06846,-0.0342"
     style="fill:#ffaaaa;fill-opacity:0.61780108;stroke:#000000;stroke-width:0.0625;stroke-opacity:0.22110554"
     inkscape:connector-curvature="0" />
  <path
     id="path942"
     d="m 4.4051438,3.4527424 -0.01956,0.0831 -0.04401,0.0636 -0.06357,0.0685 -0.03423,0.0342 -0.0098,0.0391 0.03423,0.0684 0.04401,0.005 h 0.07824 l 0.06357,-0.005 0.02445,-0.0587"
     style="fill:none;fill-opacity:0.61780108;stroke:#000000;stroke-width:0.0625;stroke-opacity:0.22110554"
     inkscape:connector-curvature="0" />
  <path
     id="path944-0"
     d="m 4.2339998,4.0052824 0.08313,-0.044 h 0.06357 l 0.08313,0.005 0.03912,0.0293 -0.05379,0.0244 -0.09291,0.005 z"
     style="fill:#ffaaaa;fill-opacity:0.61780108;stroke:#000000;stroke-width:0.0625;stroke-opacity:0.22110554"
     inkscape:connector-curvature="0" />
  <path
     id="path949"
     d="m 4.3171378,4.3622824 -0.264726,0.0154 -0.142654,0.0165 -0.192034,0.0274 -0.186547,0.0933 -0.137168,0.0768 -0.02743,0.022 -0.378581,0.24141 -0.252388,0.0988 -0.14814,0.12071 -0.115221,0.20849 -0.09327,0.14265 -0.170087,0.2085 -0.104248,0.14265 -0.04389,0.0713 -0.01646,0.0768 -0.06035,0.0713 -0.109733,0.10425 -0.02195,0.10424 -0.06035,0.15363 -0.04389,0.13168 -0.03292,0.19752 -0.03292,0.36212 -0.02195,0.30726 v 0.31274 l -0.01097,0.18655 0.06035,0.1646 0.08779,0.18106 0.126194,0.13716 0.109734,0.14815 0.11522,0.14265 0.07681,0.0988 0.06035,0.0768 0.04389,0.0384 0.01646,-0.51026 0.07681,-0.54318 0.04938,-0.15912 -0.0055,-0.17008 -0.01097,-0.24691 0.01097,-0.1646 0.04938,-0.10973 0.03292,-0.13717 0.05487,-0.12619 0.142653,-0.17009 0.06584,-0.0658 h 0.07133 l 0.1646,0.0549 0.08779,-0.15912 0.01646,-0.203 v -0.17009 -0.18106 l -0.04938,-0.0933 -0.03292,-0.13717 0.03841,-0.0768 0.07133,-0.0329 0.03292,-0.011 0.137167,-0.0603 0.159114,-0.0658 0.109733,-0.0604 0.06035,-0.0549 0.06035,-0.0604 0.01097,-0.1207 0.01646,-0.12071 0.09327,-0.13717 0.04389,-0.10424 0.126194,-0.0604 0.137167,-0.005 0.06035,-0.011 h 0.04938 l 0.04465,-0.0803 z"
     style="fill:#ff0000;fill-opacity:0.61780108;stroke:#000000;stroke-width:0.0625;stroke-opacity:0.22110554"
     inkscape:connector-curvature="0" />
  <path
     id="path957"
     d="m 2.3295928,8.8438324 0.422474,0.4115004 0.01097,-0.3237104 0.03841,-0.27434 -0.0055,-0.21946 -0.09876,-0.14266 0.09876,-0.0713 0.01646,-0.30725 0.04389,-0.21398 -0.04389,-0.21398 0.09876,-0.14266 0.05487,-0.1646 -0.01646,-0.19203 0.05487,-0.12071 0.08779,-0.10973 0.06035,-0.0384 0.01646,-0.10973 -0.120707,-0.11522 -0.164601,-0.0549 h -0.07133 l -0.208494,0.23593 -0.05487,0.12619 -0.0823,0.2469 -0.01097,0.1646 0.01646,0.41699 -0.04938,0.15912 -0.07681,0.54318 -0.01646,0.51026"
     style="fill:#d4aa00;fill-opacity:0.61780108;stroke:#000000;stroke-width:0.0625;stroke-opacity:0.22110554"
     inkscape:connector-curvature="0" />
  <path
     id="path959"
     d="m 2.7520668,9.2553328 0.11568,0.11563 0.159412,0.0947 0.109596,0.0797 0.05978,0.0249 0.169375,-0.10461 0.05978,-0.1644 0.06974,-0.12952 0.0548,-0.1544304 0.04982,-0.19927 v -0.14446 l -0.02491,-0.2192 0.01,-0.22915 -0.02989,-0.18432 0.03985,-0.0747 -0.02989,-0.15443 -0.02989,-0.15941 v -0.16937 -0.13949 l -0.01,-0.0947 -0.01993,-0.0349 -0.119559,0.0249 -0.09963,0.0697 -0.144467,0.005 -0.129523,0.0299 -0.199793,0.14518 0.04389,0.21398 -0.04389,0.21398 -0.01646,0.30725 -0.09876,0.0713 0.09876,0.14265 0.0055,0.21947 -0.03841,0.27434 -0.01097,0.3237104"
     style="fill:#499ca7;fill-opacity:1;stroke:#000000;stroke-width:0.0625;stroke-opacity:0.22110554"
     inkscape:connector-curvature="0" />
  <path
     id="path963"
     d="m 3.5053958,7.2139224 0.02989,-0.0747 0.01494,-0.0847 -0.005,-0.10461 v -0.0847 -0.0598 l -0.01494,-0.0548 h -0.04484 -0.129522 l -0.03985,0.0249 -0.08469,0.0399 -0.07881,-0.0949 -0.06035,0.0384 -0.08779,0.10973 -0.05487,0.12071 0.01646,0.19203 -0.05487,0.1646 -0.09876,0.14266 0.199794,-0.14518 0.129522,-0.0299 0.144468,-0.005 0.09963,-0.0697 z"
     style="fill:#589866;fill-opacity:1;stroke:#000000;stroke-width:0.0625;stroke-opacity:0.22110554"
     inkscape:connector-curvature="0" />
  <path
     id="path965"
     d="m 3.5900838,7.0893824 0.06974,0.0448 h 0.149449 0.119559 l 0.07971,-0.0398 0.134504,-0.0199 0.104615,-0.01 0.03487,-0.0199 0.06476,-0.0996 -0.01494,-0.0548 v -0.0548 l -0.01494,-0.0648 -0.03487,-0.0448 -0.03487,-0.0598 -0.0548,-0.0349 h -0.08967 -0.144467 l -0.03985,0.0349 -0.07971,0.0548 -0.08469,0.0299 -0.114578,0.0249 -0.03985,0.0249 -0.0548,0.005 z"
     style="fill:#f9beb5;fill-opacity:1;stroke:#000000;stroke-width:0.0625;stroke-opacity:0.22110554"
     inkscape:connector-curvature="0" />
  <path
     id="path967"
     d="m 5.6210068,4.6523524 0.137282,0.0836 0.14325,0.0239 0.214876,0.0298 0.08953,0.0657 0.1671265,0.0298 0.06566,0.13131 0.179063,0.2686 0.08953,0.0716 0.107439,0.13132 0.149219,0.17906 0.149219,0.14922 0.07759,0.0358 0.101469,0.0298 0.125344,0.13729 0.07759,0.14922 0.006,0.15518 0.0955,0.22085 0.10147,0.22681 0.08953,0.20294 0.05372,0.13728 0.10147,0.17907 0.07163,0.10744 0.006,0.0895 v 0.41184 l -0.04775,0.21488 -0.08953,0.0895 -0.119376,0.13131 -0.07162,0.0716 -0.08953,0.0836 -0.04775,-0.0418 v -0.14325 l 0.01194,-0.20891 v -0.14922 l -0.03581,-0.0895 -0.06566,-0.10147 -0.02387,-0.0776 0.06566,-0.13132 -0.07163,-0.17906 -0.07163,-0.16712 -0.04775,-0.15519 -0.01791,-0.13132 v -0.14325 -0.21487 l -0.03581,-0.15519 -0.113407,-0.18503 -0.0955,-0.14325 -0.179064,-0.12535 -0.125344,-0.0716 -0.137282,-0.0895 -0.08356,0.0358 -0.07162,-0.20294 -0.06566,-0.16116 -0.07759,-0.18503 -0.03581,-0.16116 -0.053721,-0.14325 -0.08953,-0.0836 -0.328283,-0.0955 z"
     style="fill:#f5231e;fill-opacity:1;stroke:#000000;stroke-width:0.0625;stroke-opacity:0.22110554"
     inkscape:connector-curvature="0" />
  <path
     id="path969"
     d="m 7.5548913,8.4484924 -0.02984,0.0895 -0.02984,0.10147 -0.07759,0.0418 -0.07162,0.0358 -0.137282,0.10146 -0.06566,-0.0179 0.04775,-0.15519 0.01194,-0.13131 -0.01791,-0.191 v -0.22682 l -0.04775,-0.22681 -0.07759,-0.13131 -0.0776,-0.15519 -0.03581,-0.18503 -0.05969,-0.15519 -0.01194,-0.14325 -0.02388,-0.14325 -0.05372,-0.11341 v -0.25666 -0.20294 l -0.04775,-0.10744 -0.107438,-0.17309 -0.08356,-0.11938 -0.04775,-0.0776 0.01791,-0.0836 0.08356,-0.0358 0.262626,0.16116 0.179064,0.12535 0.208907,0.32828 0.03581,0.15519 v 0.35812 l 0.01791,0.13132 0.04775,0.15519 0.143251,0.34618 -0.06566,0.13132 0.02387,0.0776 0.06566,0.10147 0.03581,0.0895 z"
     style="fill:#dfb523;fill-opacity:1;stroke:#000000;stroke-width:0.0625;stroke-opacity:0.22110554"
     inkscape:connector-curvature="0" />
  <path
     id="path971"
     d="m 7.1430453,8.8006524 -0.107438,0.0836 -0.107438,0.0179 -0.191001,0.0179 -0.14325,-0.10147 -0.137282,-0.17309 -0.08953,-0.15519 -0.113407,-0.17309 -0.083561,-0.21488 -0.06566,-0.21488 -0.02388,-0.26859 v -0.17906 l -0.01194,-0.18504 v -0.16712 -0.15519 -0.191 l -0.01791,-0.10744 0.03581,-0.0418 0.137282,0.0597 0.08356,0.12534 0.161157,0.0955 0.125344,0.0537 0.107439,0.0239 0.05969,-0.0478 0.03581,-0.0597 0.05372,0.11341 0.02388,0.14325 0.01194,0.14325 0.05969,0.15519 0.03581,0.18503 0.0776,0.15519 0.07759,0.13131 0.04775,0.22681 v 0.22682 l 0.01791,0.191 -0.01194,0.13131 z"
     style="fill:#499ca7;fill-opacity:1;stroke:#000000;stroke-width:0.0625;stroke-opacity:0.22110554"
     inkscape:connector-curvature="0" />
  <path
     id="path973"
     d="m 6.5103553,5.9057924 -0.107438,0.0537 -0.14922,-0.0239 h -0.04775 l -0.107438,-0.0418 -0.05372,0.0418 -0.04178,0.13132 0.006,0.11937 -0.02984,0.0657 -0.03581,0.0358 -0.05372,0.0478 -0.01194,0.10744 0.113407,0.0657 0.0955,0.0836 0.137282,0.0597 0.083561,0.12534 0.161157,0.0955 0.125345,0.0537 0.107438,0.0239 0.05969,-0.0478 0.03581,-0.0597 v -0.4596 l -0.04775,-0.10744 z"
     style="fill:#589866;fill-opacity:1;stroke:#000000;stroke-width:0.0625;stroke-opacity:0.22110554"
     inkscape:connector-curvature="0" />
  <path
     id="path975"
     d="m 5.8896018,6.3355424 -0.113407,0.0298 -0.173095,-0.0239 h -0.161157 l -0.107438,-0.006 -0.05372,-0.0597 -0.006,-0.0597 -0.006,-0.0955 v -0.10147 l -0.01791,-0.0716 -0.02388,-0.0418 -0.006,-0.0418 0.05372,-0.0478 0.04775,-0.0298 0.05969,-0.006 0.0955,0.0358 0.155188,0.0239 0.119376,0.0119 0.08953,0.0418 0.01194,0.0298 0.131313,0.0478 0.01791,0.0955 0.006,0.11937 -0.02984,0.0657 z"
     style="fill:#f9beb5;fill-opacity:1;stroke:#000000;stroke-width:0.0625;stroke-opacity:0.22110554"
     inkscape:connector-curvature="0" />
  <path
     id="path979"
     d="m 4.3220208,4.4893524 -0.04465,0.0803 h -0.04938 l -0.06035,0.011 -0.137167,0.005 -0.126194,0.0604 -0.04389,0.10424 -0.04793,0.0734 0.09722,0.0579 0.103426,0.0103 0.01034,0.0662 0.0083,0.0931 0.04758,0.0434 0.08067,0.0207 0.06826,-0.0248 0.05585,-0.0207 0.03103,-0.031 0.04551,-0.031 h 0.04137 l 0.0393,0.0165 0.02896,0.0724 0.06412,0.0517 0.04551,0.0476 0.06826,0.029 0.02069,0.0331 0.01862,0.0228 0.03103,0.029 0.06619,0.008 0.01655,-0.0414 0.02689,-0.0186 0.03516,-0.0124 0.0083,-0.031 0.01241,-0.0414 0.02275,-0.029 0.01241,-0.0352 0.0062,-0.031 0.0083,-0.0352 0.0083,-0.0124 0.01655,-0.0207 0.04137,0.0166 0.03723,0.0207 0.04758,0.0165 0.05378,0.002 h 0.07033 l 0.0331,-0.0145 0.02275,-0.0372 0.01241,-0.031 v -0.0393 l -0.01655,-0.0186 -0.0331,-0.0186 -0.0062,-0.0414 v -0.0228 l 0.02275,-0.0207 0.02689,-0.0124 0.04964,-0.004 0.03723,-0.0207 0.02689,-0.029 0.01034,-0.029 0.01241,-0.0331 -0.04964,-0.0269 -0.02069,-0.0352 -0.0393,-0.0145 -0.05171,-0.0331 -0.03103,-0.0414 -0.06826,-0.0372 -0.04758,-0.0414 -0.08759,-0.0727 -0.03906,0.10266 -0.127198,0.0831 -0.249389,0.0685 h -0.07336 l -0.08801,-0.0391 -0.08801,-0.0831 z"
     style="fill:#ff5555;fill-opacity:1;stroke:#000000;stroke-width:0.0625;stroke-opacity:0.22110554"
     inkscape:connector-curvature="0" />
  <path
     id="path981"
     d="m 3.8124478,4.8241624 -0.04534,0.0638 0.0288,0.0914 0.03723,0.0517 0.05171,0.0331 0.0393,0.0476 0.01034,0.0352 0.01448,0.0352 0.04758,0.0414 0.04758,0.06 0.101357,0.006 0.07033,-0.0186 0.05792,-0.0186 0.02482,-0.0145 h 0.0724 l 0.06826,0.002 0.04137,0.0228 0.04344,0.0517 0.04758,0.0372 0.06826,0.0352 0.04344,0.0186 0.04551,-0.008 0.05171,-0.0103 0.06619,0.002 0.02896,-0.0207 0.04758,-0.029 0.02689,-0.0352 0.02275,-0.0414 0.03103,-0.0248 0.03103,-0.031 0.0041,-0.0248 0.04344,-0.008 0.06412,0.002 h 0.04137 l 0.04551,0.006 h 0.05171 l 0.05378,-0.002 h 0.03103 l 0.0393,-0.0104 v -0.031 l 0.01241,-0.0434 0.0083,-0.0393 0.02689,-0.0228 0.01862,-0.0103 0.05171,-0.0124 0.03723,-0.0227 0.04137,-0.0248 0.03103,-0.0331 0.02275,-0.0579 0.01241,-0.0683 0.0062,-0.0683 -0.05724,-0.0829 -0.05239,0.004 h -0.07447 l -0.04344,0.0228 -0.04344,0.0145 -0.02275,0.062 -0.02689,0.029 -0.03723,0.0207 -0.04964,0.004 -0.04964,0.0331 v 0.0228 l 0.0062,0.0414 0.0331,0.0186 0.01655,0.0579 -0.01241,0.031 -0.05585,0.0517 -0.124111,-0.002 -0.04758,-0.0165 -0.0786,-0.0372 -0.02482,0.0331 -0.01448,0.0662 -0.01241,0.0352 -0.02275,0.029 -0.02069,0.0724 -0.03516,0.0124 -0.02689,0.0186 -0.01655,0.0414 -0.06619,-0.008 -0.04964,-0.0517 -0.02069,-0.0331 -0.06826,-0.029 -0.04551,-0.0476 -0.06412,-0.0517 -0.02896,-0.0724 -0.0393,-0.0165 h -0.04137 l -0.04551,0.031 -0.03103,0.031 -0.12411,0.0455 -0.08067,-0.0207 -0.04758,-0.0434 -0.0083,-0.0931 -0.01034,-0.0662 -0.103426,-0.0103 -0.09722,-0.0579"
     style="fill:#d4a657;fill-opacity:1;stroke:#000000;stroke-width:0.0625;stroke-opacity:0.22110554"
     inkscape:connector-curvature="0" />
  <path
     id="path983-3"
     d="m 5.0114738,4.3915824 0.135163,0.11403 0.06826,0.0372 0.03103,0.0414 0.05171,0.0331 0.05999,0.0496 0.02482,0.0145 0.05378,-0.029 0.05378,-0.0186 0.130998,0.0185 0.137282,0.0836 -0.127621,-0.10619 -0.04137,-0.008 -0.06206,-0.0124 -0.07447,-0.0352 -0.08688,-0.0579 -0.08274,-0.0372 -0.0786,-0.0352 -0.0786,-0.0186 z"
     style="fill:#d6201a;fill-opacity:1;stroke:#000000;stroke-width:0.0625;stroke-opacity:0.22110554"
     inkscape:connector-curvature="0" />
  <path
     id="path985-0"
     d="m 3.7671038,4.8879324 -0.02743,0.24141 -0.120708,0.11522 -0.406014,0.18655 -0.104247,0.0439 -0.03841,0.0768 0.03292,0.13717 0.04938,0.0933 -0.01646,0.55415 -0.08779,0.15912 0.120707,0.11522 -0.01646,0.10973 0.07881,0.0949 0.124541,-0.0648 h 0.174357 l 0.01494,0.0548 0.0548,-0.005 0.03985,-0.0249 0.114578,-0.0249 0.08469,-0.0299 0.119559,-0.0897 h 0.234137 l 0.0548,0.0349 0.06974,0.10461 0.01494,0.0648 v 0.0548 l 0.01494,0.0548 -0.06476,0.0996 -0.127089,0.0419 -0.146901,0.008 v 0 l -0.07971,0.0398 -0.162006,0.0113 -0.107002,-0.0113 -0.06974,-0.0448 -0.0548,0.0498 -0.02989,0.0747 0.05023,0.0668 0.114049,0.008 h 0.143618 l 0.101378,0.0169 0.09293,0.0127 h 0.06336 0.105601 l 0.105602,0.008 0.09293,0.008 0.13517,0.0507 0.07603,0.004 0.185859,0.008 h 0.06336 0.08448 0.07603 l 0.09293,-0.0127 0.08448,-0.004 0.06758,-0.0169 0.06336,-0.0253 0.109825,-0.0127 0.06759,-0.0422 0.13517,-0.0465 0.05491,-0.0253 0.118274,-0.0127 0.07181,-0.004 0.06336,-0.0296 0.07181,-0.0338 0.05914,-0.0422 -0.0055,-0.45666 0.03581,-0.0418 -0.0955,-0.0836 -0.113407,-0.0657 0.01194,-0.10744 -0.113407,0.0298 -0.173094,-0.0239 -0.268595,-0.006 -0.05372,-0.0597 -0.01194,-0.25666 -0.04775,-0.15518 0.101469,-0.0776 0.05969,-0.006 0.0955,0.0358 0.274564,0.0358 0.08953,0.0418 0.01194,0.0298 0.131314,0.0477 0.01791,0.0955 0.04178,-0.13132 0.05372,-0.0418 0.107438,0.0418 0.1969705,0.0239 0.107438,-0.0537 0.01791,-0.0836 -0.214876,-0.54913 -0.08953,-0.30441 -0.08953,-0.0836 -0.328283,-0.0955 -0.127795,-0.0544 -0.0062,0.0683 -0.03517,0.12617 -0.03103,0.0331 -0.130316,0.06 -0.05378,0.0724 -0.01241,0.0745 -0.0393,0.0103 -0.182029,-0.004 -0.148933,0.006 -0.06619,0.0807 -0.04964,0.0765 -0.04758,0.029 -0.09515,0.0186 -0.09722,0.0186 -0.04344,-0.0186 -0.06826,-0.0352 -0.09101,-0.0889 -0.04137,-0.0228 -0.09791,0.005 -0.06758,0.008 -0.128247,0.0372 -0.101357,-0.006 -0.09515,-0.10136 -0.06412,-0.1179 -0.05171,-0.0331 z"
     style="fill:#589866;fill-opacity:1;stroke:#000000;stroke-width:0.0625;stroke-opacity:0.22110554"
     inkscape:connector-curvature="0" />
  <path
     id="path1037"
     d="m 3.5556258,7.2807224 0.09096,0.058 0.118007,0.0751 0.155555,0.0617 0.144827,0.0295 0.155555,0.0429 0.158236,0.0563 0.09387,0.0161 0.112643,0.0375 0.123371,0.008 h 0.08314 l 0.120689,-0.0107 0.101915,0.0161 0.09655,-0.003 h 0.09119 l 0.07241,-0.0215 0.06705,-0.0268 0.150191,-0.0188 0.02414,-0.0483 0.07241,-0.0402 0.101915,-0.0295 0.0885,-0.0563 0.08582,-0.0429 0.06437,-0.0483 0.06169,-0.0402 0.03755,-0.0349 0.01341,-0.0107 0.01467,-0.15953 -0.194306,0.1056 -0.190083,0.0169 -0.190083,0.0718 -0.06759,0.0422 -0.109825,0.0127 -0.130946,0.0422 -0.08448,0.004 -0.09293,0.0127 -0.485767,-0.0127 -0.13517,-0.0507 -0.198531,-0.0169 h -0.168962 l -0.141087,-0.0176 -0.05322,-0.012 h -0.143605 l -0.114049,-0.008"
     style="fill:#b59719;fill-opacity:1;stroke:#000000;stroke-width:0.0625;stroke-opacity:0.22110554"
     inkscape:connector-curvature="0" />
  <path
     id="path1039"
     d="m 3.9846188,3.4478524 -0.112464,0.088 -0.07824,0.10758 0.0084,0.10234 -0.03512,0.0422 0.007,0.0878 -0.04566,0.0632 -0.0843,0.0492 -0.09484,0.0702 -0.0562,0.0667 -0.03864,0.0457 -0.01054,0.0632 0.01405,0.10186 0.05269,0.0667 0.04917,0.007 0.15776,0.0119 0.599414,-0.0593 -0.08801,-0.0489 -0.04407,-0.0391 -0.04883,-0.1272 -0.04407,-0.0636 -0.03418,-0.13684 -0.02384,-0.0884 -0.02022,-0.0485 -0.01841,-0.10955 z"
     style="fill:url(#linearGradient876);fill-opacity:1;stroke:#000000;stroke-width:0.0625;stroke-opacity:0.22110554"
     inkscape:connector-curvature="0" />
  <path
     id="path1041"
     d="m 5.6306678,4.6297224 0.0543,-0.048 0.07025,-0.0492 0.04566,-0.0527 0.01054,-0.10888 -0.01756,-0.12294 -0.08781,-0.0738 -0.09835,-0.0421 -0.01054,-0.0597 -0.03864,-0.0351 -0.02107,-0.0597 -0.03161,-0.0773 -0.03161,-0.0211 -0.03161,-0.0457 -0.0281,-0.0597 0.0126,-0.0767 -0.308057,-0.35696 -0.127135,-0.0538 0.03908,0.32763 0.03919,0.0391 0.06348,0.16138 0.005,0.0978 -0.05383,0.0636 -0.117309,0.0734 0.01953,0.1418499 -0.0049,0.11242 0.0293,0.088 0.193081,0.052 0.161343,0.0724 0.08688,0.0579 0.07447,0.0352 z"
     style="fill:url(#linearGradient1063);fill-opacity:1;stroke:#000000;stroke-width:0.0625;stroke-opacity:0.22110554"
     inkscape:connector-curvature="0" />
  <path
     id="path1073"
     d="m 3.5556258,7.2807224 0.0085,0.15693 -0.003,0.19394 0.01515,0.0667 0.01878,0.26788 -0.03985,0.0747 0.02989,0.18432 0.02755,0.0519 0.06667,0.0364 0.133334,0.0455 0.118182,0.0364 0.07879,0.0485 0.08485,0.003 h 0.106061 l 0.03939,-0.0212 0.07273,-0.0303 0.10303,-0.0182 h 0.121212 l 0.1,0.0303 0.06364,0.0667 0.10909,0.0394 0.07576,0.0364 0.09697,0.0364 0.109091,-0.003 0.07879,-0.0515 0.130304,-0.0818 0.04545,-0.0394 0.09091,-0.006 h 0.09394 l 0.10606,0.0182 0.08182,0.0182 0.09697,0.009 0.05758,0.0182 0.0697,0.0364 0.07576,-0.003 0.05151,-0.0364 0.03636,-0.0636 0.03333,-0.0485 0.06061,-0.0273 0.05317,-0.008 -0.1492205,-0.42975 -0.02388,-0.26859 v -0.17907 l -0.03901,-0.18959 -0.05096,0.0456 -0.06169,0.0402 -0.06437,0.0483 -0.08582,0.0429 -0.0885,0.0563 -0.101915,0.0295 -0.07241,0.0402 -0.02414,0.0483 -0.150191,0.0188 -0.139463,0.0483 -0.187738,0.003 -0.101915,-0.0161 -0.120689,0.0107 h -0.08314 l -0.123371,-0.008 -0.112643,-0.0375 -0.09387,-0.0161 -0.158236,-0.0563 -0.155555,-0.0429 -0.144827,-0.0295 -0.155554,-0.0617 z"
     style="fill:#445500;fill-opacity:1;stroke:#000000;stroke-width:0.0625;stroke-opacity:0.22110554"
     inkscape:connector-curvature="0" />
  <path
     id="path1075"
     d="m 3.5851018,8.2251924 -0.01,0.22915 0.02491,0.2192 v 0.14446 l -0.04982,0.19927 -0.0548,0.1544304 -0.06974,0.12952 -0.05978,0.1644 -0.169375,0.10461 0.0227,0.17606 0.05376,0.13261 0.0681,0.1792002 0.06093,0.18279 0.02151,0.10752 0.0036,0.12544 0.03943,0.12903 0.0036,0.12186 0.01792,0.0789 0.07885,0.0251 0.143362,-0.0108 0.161282,0.004 h 0.139778 0.100353 0.103938 l 0.139778,0.004 h 0.05018 l 0.06093,-0.004 0.02509,-0.086 -0.01075,-0.086 0.0036,-0.086 0.03226,-0.0932 0.01792,-0.0932 0.02509,-0.15411 0.0036,-0.13978 0.03942,-0.1003502 0.0215,-0.11469 0.02509,-0.12544 0.02509,-0.11828 0.05018,-0.13261 0.05376,-0.0968 0.07168,-0.0788 0.04659,-0.0502 0.03226,-0.0932 0.02509,-0.1039401 v 0.2150501 l 0.02867,0.11827 0.0681,0.12544 0.0896,0.16845 0.03942,0.11469 0.0896,0.17204 0.0896,0.1075202 0.07527,0.11469 0.09677,0.1111 0.0896,0.0896 0.06093,0.12186 0.0215,0.15412 0.0072,0.10393 0.04301,0.0502 0.182786,0.0287 0.164867,-0.0108 0.1863705,-0.0179 0.179203,-0.0108 0.08243,-0.0466 0.02509,-0.043 v -0.0896 l -0.02867,-0.18637 -0.0215,-0.17204 -0.02509,-0.11469 -0.02867,-0.13619 v -0.1827902 -0.18637 l -0.01792,-0.21146 -0.0036,-0.18995 -0.03942,-0.2293801 -0.0215,-0.12544 0.0215,-0.18996 0.03226,-0.0251 0.01534,-0.0507 -0.202938,-0.32829 -0.1137745,0.0356 -0.0697,0.11212 -0.05151,0.0364 -0.07576,0.003 -0.0697,-0.0364 -0.05758,-0.0182 -0.284848,-0.0455 -0.184849,0.006 -0.254545,0.17273 -0.109091,0.003 -0.09697,-0.0364 -0.07576,-0.0364 -0.109091,-0.0394 -0.06364,-0.0667 -0.1,-0.0303 h -0.121213 l -0.10303,0.0182 -0.112121,0.0515 -0.160545,0.0236 -0.03036,-0.0267 -0.07879,-0.0485 -0.251515,-0.0818 -0.06667,-0.0364 z"
     style="fill:#aa0044;fill-opacity:1;stroke:#000000;stroke-width:0.0625;stroke-opacity:0.22110554"
     inkscape:connector-curvature="0" />
  <path
     id="path1077"
     d="m 3.4880408,10.803593 0.0596,0.0992 0.0292,0.0681 0.141138,0.0195 0.126539,-0.0292 h 0.150872 l 0.160606,-0.01 0.136272,-0.005 h 0.121671 0.0438 l 0.0087,-0.12506 z"
     style="fill:#f2c95f;fill-opacity:1;stroke:#000000;stroke-width:0.0625;stroke-opacity:0.22110554"
     inkscape:connector-curvature="0" />
  <path
     id="path1079"
     d="m 5.7531598,10.835843 -0.04464,0.062 -0.0146,0.0681 0.09247,0.005 0.102204,-0.0146 0.10707,-0.01 0.111938,0.01 0.1362725,0.005 0.111937,-0.0146 0.0584,-0.0195 0.102205,-0.0195 0.0438,-0.0146 0.02433,-0.073 -0.01064,-0.0845 -0.107521,0.0896 -0.203047,0.005 -0.3273935,0.0348 z"
     style="fill:#f2c95f;fill-opacity:1;stroke:#000000;stroke-width:0.0625;stroke-opacity:0.22110554"
     inkscape:connector-curvature="0" />
  <path
     id="path1081"
     d="m 3.5768378,10.970903 v 0.45261 l 0.0146,0.17034 0.0584,0.17521 0.0146,0.18494 0.04867,0.18494 0.0292,0.14114 0.0584,0.17034 0.0097,0.11194 -0.0584,0.073 -0.02433,0.0973 -0.04867,0.11193 0.0097,0.0584 0.05354,0.0973 0.0584,0.01 0.102204,0.0146 0.126538,-0.0341 0.116804,-0.0243 0.0584,-0.0292 0.03893,-0.073 0.03407,-0.14114 0.0146,-0.0827 v -0.12654 -0.15574 -0.12654 l 0.03893,-0.0827 0.04867,-0.1752 0.0438,-0.0925 0.06327,-0.10707 0.0097,-0.11194 -0.0049,-0.20441 v -0.146 l 0.0097,-0.17034 -0.0049,-0.0487 -0.0438,-0.0292 0.0049,-0.11681 -0.613223,0.0146 -0.126539,0.0292 z"
     style="fill:#4e945b;fill-opacity:1;stroke:#000000;stroke-width:0.0625;stroke-opacity:0.22110554"
     inkscape:connector-curvature="0" />
  <path
     id="path1083"
     d="m 3.6790418,12.844633 -0.0876,0.0195 -0.073,0.0292 -0.0097,0.0584 v 0.0633 l 0.0146,0.0973 0.03893,0.0487 0.107071,-0.01 0.0438,-0.0146 h 0.06327 0.0584 l 0.06327,0.0195 0.0584,0.005 h 0.06814 l 0.04867,0.0146 0.0146,0.0487 0.0438,0.0487 0.06327,-0.0243 0.0438,-0.0438 v -0.0779 -0.0779 l -0.09247,-0.0827 v 0 l -0.243342,0.0584 -0.160606,-0.0243 z"
     style="fill:#f0c55f;fill-opacity:1;stroke:#000000;stroke-width:0.0625;stroke-opacity:0.22110554"
     inkscape:connector-curvature="0" />
  <path
     id="path1085"
     d="m 3.6693078,13.151243 -0.06327,0.0584 -0.03893,0.0341 -0.06814,0.0876 v 0.073 l 0.0049,0.15087 0.06327,0.0681 0.0584,0.0535 h 0.121672 l 0.0876,-0.0243 0.121671,-0.0925 0.0876,-0.0779 0.04867,-0.0584 0.0146,-0.0535 0.02433,-0.0973 -0.0584,-0.0973 -0.292012,-0.0584 z"
     style="fill:#eb665f;fill-opacity:1;stroke:#000000;stroke-width:0.0625;stroke-opacity:0.22110554"
     inkscape:connector-curvature="0" />
  <path
     id="path55"
     d="m 5.6939178,10.966033 0.0078,0.12369 -0.0093,0.30606 v 0.19013 l 0.0093,0.12521 v 0.0742 l 0.04174,0.12057 0.06956,0.1113 0.09738,0.10665 0.143755,0.16231 0.06029,0.12057 0.06028,0.12521 0.0093,0.12056 0.02782,0.15303 0.01391,0.14376 0.01855,0.0788 0.09275,0.0603 0.08347,0.0696 h 0.07883 l 0.106658,0.005 0.0371,-0.0232 0.04637,-0.0232 0.06028,-0.009 0.09275,-0.005 0.01391,-0.0696 0.0093,-0.0696 -0.0371,-0.0556 -0.08347,-0.0788 -0.02319,-0.0881 v -0.20404 l -0.01855,-0.26896 -0.01391,-0.36171 -0.02319,-0.31997 v -0.21795 l -0.03246,-0.15303 -0.03246,-0.1484 -0.04109,-0.1735 -0.204408,0.0535 -0.111937,0.0146 -0.2482105,-0.0146 -0.209274,0.0243 z"
     style="fill:#4e945b;fill-opacity:1;stroke:#000000;stroke-width:0.0625;stroke-opacity:0.22110554"
     inkscape:connector-curvature="0" />
  <path
     id="path57"
     d="m 6.8424483,13.102303 -0.09275,0.005 -0.06028,0.009 -0.04637,0.0232 v 0.10666 l 0.04637,0.0325 0.06028,0.0232 0.07883,0.0139 0.08811,-0.005 0.01855,-0.0417 0.02782,-0.0232 0.06029,-0.0139 0.02319,0.0139 0.04174,0.0139 0.05565,0.005 0.04637,-0.0232 0.01855,-0.0232 v -0.0556 -0.0696 l -0.02319,-0.0696 -0.05101,-0.0417 -0.04174,-0.0649 -0.06492,-0.0232 -0.05101,0.0278 -0.04637,0.051 -0.06492,-0.009 z"
     style="fill:#f0c55f;fill-opacity:1;stroke:#000000;stroke-width:0.0625;stroke-opacity:0.22110554"
     inkscape:connector-curvature="0" />
  <path
     id="path59"
     d="m 6.2442393,13.028103 -0.078831,0.0139 -0.01391,0.11593 0.01391,0.0788 0.0371,0.0835 0.04174,0.0974 0.10202,0.0278 0.129844,0.0278 0.10202,0.0371 h 0.106658 l 0.09738,0.009 0.10202,0.0186 0.125207,0.0185 0.15303,-0.005 0.166942,0.005 0.162305,-0.005 0.0742,-0.0139 0.06956,-0.0232 0.0371,-0.0603 -0.01391,-0.0603 -0.139118,-0.0696 -0.125207,-0.0371 -0.07883,-0.0232 -0.106657,-0.0464 -0.01855,0.0232 -0.04637,0.0232 -0.05565,-0.005 -0.06492,-0.0278 -0.06029,0.0139 -0.04637,0.0649 -0.08811,0.005 -0.139119,-0.0371 -0.08347,-0.11593 -0.185491,-0.005 z"
     style="fill:#eb665f;fill-opacity:1;stroke:#000000;stroke-width:0.0625;stroke-opacity:0.22110554"
     inkscape:connector-curvature="0" />
  <path
     id="path61"
     d="m 3.1965348,9.5702328 -0.169376,-0.10461 -0.159412,-0.0947 -0.162351,-0.14357 -0.375804,-0.3835604 -0.06194,0.0709 -0.03127,0.1980304 0.01563,0.21366 0.01042,0.31267 -0.02606,0.0886 -0.04169,0.0625 -0.01563,0.099 0.01042,0.2032302 -0.01563,0.14592 -0.05732,0.099 -0.01042,0.15112 v 0.14071 l 0.08859,0.12507 0.114647,0.0208 0.166758,0.073 0.06775,0.0417 0.02085,0.0886 v 0.0625 l 0.02084,0.0625 0.13028,0.0573 0.125069,0.0208 0.104224,0.0573 0.07296,0.005 0.140703,0.005 0.03127,0.0782 0.08338,0.073 0.151125,0.0156 h 0.08859 l 0.0637,0.007 v -0.45262 l -0.0888,-0.16731 -0.0215,-0.20071 -0.03943,-0.12902 -0.0036,-0.12545 -0.05631,-0.14652 -0.07817,-0.2240802 -0.06253,-0.15113 -0.02084,-0.14591 z"
     style="fill:#c6b551;fill-opacity:1;stroke:#000000;stroke-width:0.0625;stroke-opacity:0.22110554"
     inkscape:connector-curvature="0" />
  <path
     id="path63"
     d="m 4.9539168,9.0689024 -0.05735,0.1971304 v 0 l -0.118274,0.12902 -0.05376,0.0968 -0.05018,0.13261 -0.111106,0.4587602 -0.0036,0.13978 -0.04301,0.2473 -0.03226,0.0932 0.0072,0.17204 -0.03384,0.21107 -0.0049,0.11681 0.0438,0.0292 0.0049,0.0487 0.0017,0.21232 v 0.0677 l 0.119858,0.005 0.114646,-0.0208 0.08338,-0.0469 0.166758,-0.0313 0.145914,-0.10944 0.06775,-0.0417 0.06253,-0.0208 0.06253,-0.0209 0.06254,-0.0104 0.06774,-0.0156 0.0938,-0.0365 h 0.06253 l 0.08843,0.0176 -0.0078,-0.12369 0.0146,-0.0681 0.04464,-0.062 -0.04301,-0.0502 -0.02395,-0.16166 -0.0047,-0.0964 -0.06093,-0.12185 -0.186371,-0.20071 -0.07527,-0.11469 -0.179202,-0.2795602 -0.197123,-0.40858 -0.02867,-0.11827 z"
     style="fill:#c6b551;fill-opacity:1;stroke:#000000;stroke-width:0.0625;stroke-opacity:0.22110554"
     inkscape:connector-curvature="0" />
  <path
     id="path65"
     d="m 6.4566363,8.6454624 -0.0476,0.0758 -0.0215,0.18996 0.06093,0.3548204 0.0036,0.18995 0.01792,0.21146 0.0031,0.29473 -0.0031,0.0744 0.02918,0.13402 0.02458,0.11686 0.0588,0.15933 -0.01042,0.11465 0.0018,0.0844 v 0.0896 l -0.02509,0.043 0.0114,0.11453 0.100482,-0.045 0.161547,-0.10944 0.09901,-0.0782 0.182392,-0.10422 0.140703,-0.0782 0.07296,-0.073 -0.01563,-0.15112 -0.0469,-0.1407 -0.04169,-0.10944 -0.06253,-0.0834 -0.01563,-0.13028 0.01563,-0.0782 -0.03127,-0.0729 -0.02085,-0.0625 v -0.11464 l -0.0052,-0.11986 v -0.099 -0.15113 l -0.0052,-0.11986 v -0.10422 l -0.159848,0.0343 -0.191002,0.0179 -0.14325,-0.10147 z"
     style="fill:#c6b551;fill-opacity:1;stroke:#000000;stroke-width:0.0625;stroke-opacity:0.22110554"
     inkscape:connector-curvature="0" />
  <path
     style="fill:#00aad4;fill-opacity:1;stroke:#000000;stroke-width:0.04183304;stroke-opacity:0.02617804"
     d="m 7.5996153,3.8801424 0.213689,0.007 -0.04705,-1.65726 -0.172428,-0.22932 -0.03482,0.10245 z"
     id="path825-925"
     inkscape:connector-curvature="0" />
  <path
     style="fill:#006680;fill-opacity:1;stroke:#000000;stroke-width:0.04183304;stroke-opacity:0.02617804"
     d="m 7.5996153,3.8801424 -0.175103,-0.0148 -0.03516,-1.69318 0.08307,-0.0855 0.121408,-0.0861 0.0087,0.22579 -0.0029,1.65382"
     id="path827-40"
     inkscape:connector-curvature="0" />
  <path
     style="fill:#c8ab37;fill-opacity:1;stroke:#000000;stroke-width:0.04183304;stroke-opacity:0.02617804"
     d="m 7.0549863,4.1954824 -0.141259,-0.15055 0.105912,-0.13878 0.404873,-0.0408 0.175103,0.0148 0.213689,0.007 0.398295,0.0404 0.160132,0.14931 -0.168544,0.14115 -0.361388,-0.0376 -0.445343,0.001 z"
     id="path829-59"
     inkscape:connector-curvature="0" />
  <ellipse
     style="fill:#c8ab37;fill-opacity:1;stroke:#000000;stroke-width:0.04202058;stroke-opacity:0.02617804"
     id="path833-46"
     cx="2.9968204"
     cy="-8.2700109"
     rx="0.19394593"
     ry="0.164839"
     transform="matrix(0.86540477,-0.50107344,-0.61185245,-0.79097192,0,0)" />
  <path
     style="fill:#d40000;fill-opacity:1;stroke:#000000;stroke-width:0.04183304;stroke-opacity:0.02617804"
     d="m 7.8217033,4.9403224 -0.02366,-0.75879 -0.385298,-0.004 0.0418,0.90034 0.02652,-0.0989 0.08281,-0.0654 0.09049,-0.0344 0.08904,0.009 z"
     id="path835-92"
     inkscape:connector-curvature="0" />
</svg>
