<?xml version="1.0" encoding="UTF-8" standalone="no"?>
<svg
   xmlns:dc="http://purl.org/dc/elements/1.1/"
   xmlns:cc="http://creativecommons.org/ns#"
   xmlns:rdf="http://www.w3.org/1999/02/22-rdf-syntax-ns#"
   xmlns:svg="http://www.w3.org/2000/svg"
   xmlns="http://www.w3.org/2000/svg"
   xmlns:xlink="http://www.w3.org/1999/xlink"
   xmlns:sodipodi="http://sodipodi.sourceforge.net/DTD/sodipodi-0.dtd"
   xmlns:inkscape="http://www.inkscape.org/namespaces/inkscape"
   viewBox="0 0 160 250"
   height="250"
   width="160"
   id="svg815"
   version="1.1"
   sodipodi:docname="swords12.svg"
   inkscape:version="0.92.5 (2060ec1f9f, 2020-04-08)">
  <sodipodi:namedview
     pagecolor="#ffffff"
     bordercolor="#666666"
     borderopacity="1"
     objecttolerance="10"
     gridtolerance="10"
     guidetolerance="10"
     inkscape:pageopacity="0"
     inkscape:pageshadow="2"
     inkscape:window-width="1918"
     inkscape:window-height="1017"
     id="namedview12042"
     showgrid="false"
     inkscape:zoom="3.3"
     inkscape:cx="80"
     inkscape:cy="185.60606"
     inkscape:window-x="0"
     inkscape:window-y="0"
     inkscape:window-maximized="1"
     inkscape:current-layer="svg815"
     inkscape:snap-page="true" />
  <metadata
     id="metadata821">
    <rdf:RDF>
      <cc:Work
         rdf:about="">
        <dc:format>image/svg+xml</dc:format>
        <dc:type
           rdf:resource="http://purl.org/dc/dcmitype/StillImage" />
        <dc:title></dc:title>
      </cc:Work>
    </rdf:RDF>
  </metadata>
  <defs
     id="defs819">
    <linearGradient
       gradientTransform="matrix(0.0625,0,0,0.0625,89.999996,7.4115112e-6)"
       gradientUnits="userSpaceOnUse"
       y2="68.472336"
       x2="56.128345"
       y1="63.697319"
       x1="61.166279"
       id="linearGradient876"
       xlink:href="#linearGradient882" />
    <linearGradient
       id="linearGradient882">
      <stop
         style="stop-color:#d16208;stop-opacity:1"
         offset="0"
         id="stop878" />
      <stop
         style="stop-color:#d16250;stop-opacity:0;"
         offset="1"
         id="stop880" />
    </linearGradient>
    <linearGradient
       gradientTransform="matrix(0.0625,0,0,0.0625,89.999996,7.4115112e-6)"
       gradientUnits="userSpaceOnUse"
       y2="71.008263"
       x2="88.849586"
       y1="58.644627"
       x1="82.105782"
       id="linearGradient1063"
       xlink:href="#linearGradient882" />
    <linearGradient
       gradientTransform="matrix(0.0625,0,0,0.0625,0.0334624,0.04605817)"
       xlink:href="#linearGradient846"
       id="linearGradient848"
       x1="72.37397"
       y1="53.171356"
       x2="72.19931"
       y2="45.564011"
       gradientUnits="userSpaceOnUse" />
    <linearGradient
       id="linearGradient846">
      <stop
         style="stop-color:#423abf;stop-opacity:1;"
         offset="0"
         id="stop842" />
      <stop
         style="stop-color:#423abf;stop-opacity:0;"
         offset="1"
         id="stop844" />
    </linearGradient>
  </defs>
  <flowRoot
     transform="matrix(0.125,0,0,0.125,70,109.375)"
     xml:space="preserve"
     id="flowRoot100"
     style="font-style:normal;font-variant:normal;font-weight:bold;font-stretch:normal;font-size:16px;line-height:1.25;font-family:'DejaVu Sans';-inkscape-font-specification:'DejaVu Sans Bold';letter-spacing:0px;word-spacing:0px;fill:#000000;fill-opacity:1;stroke:none"><flowRegion
       id="flowRegion102"><rect
         id="rect104"
         width="24.242424"
         height="21.818182"
         x="10.606061"
         y="11.818182" /></flowRegion><flowPara
       id="flowPara106" /></flowRoot>  <flowRoot
     transform="matrix(0.0625,0,0,0.0625,9.9999996,7.0251474e-8)"
     xml:space="preserve"
     id="flowRoot100-6"
     style="font-style:normal;font-variant:normal;font-weight:bold;font-stretch:normal;font-size:16px;line-height:1.25;font-family:'DejaVu Sans';-inkscape-font-specification:'DejaVu Sans Bold';letter-spacing:0px;word-spacing:0px;fill:#000000;fill-opacity:1;stroke:none"><flowRegion
       id="flowRegion102-2"><rect
         id="rect104-9"
         width="24.242424"
         height="21.818182"
         x="10.606061"
         y="11.818182" /></flowRegion><flowPara
       id="flowPara106-1" /></flowRoot>  <flowRoot
     transform="matrix(0.0625,0,0,0.0625,20,1.5827638e-7)"
     xml:space="preserve"
     id="flowRoot100-2"
     style="font-style:normal;font-variant:normal;font-weight:bold;font-stretch:normal;font-size:16px;line-height:1.25;font-family:'DejaVu Sans';-inkscape-font-specification:'DejaVu Sans Bold';letter-spacing:0px;word-spacing:0px;fill:#000000;fill-opacity:1;stroke:none"><flowRegion
       id="flowRegion102-6"><rect
         id="rect104-1"
         width="24.242424"
         height="21.818182"
         x="10.606061"
         y="11.818182" /></flowRegion><flowPara
       id="flowPara106-8" /></flowRoot>  <flowRoot
     transform="matrix(0.0625,0,0,0.0625,30,7.89978e-8)"
     xml:space="preserve"
     id="flowRoot100-3"
     style="font-style:normal;font-variant:normal;font-weight:bold;font-stretch:normal;font-size:16px;line-height:1.25;font-family:'DejaVu Sans';-inkscape-font-specification:'DejaVu Sans Bold';letter-spacing:0px;word-spacing:0px;fill:#000000;fill-opacity:1;stroke:none"><flowRegion
       id="flowRegion102-61"><rect
         id="rect104-2"
         width="24.242424"
         height="21.818182"
         x="10.606061"
         y="11.818182" /></flowRegion><flowPara
       id="flowPara106-9" /></flowRoot>  <flowRoot
     transform="matrix(0.0625,0,0,0.0625,40,3.2385253e-7)"
     xml:space="preserve"
     id="flowRoot100-4"
     style="font-style:normal;font-variant:normal;font-weight:bold;font-stretch:normal;font-size:16px;line-height:1.25;font-family:'DejaVu Sans';-inkscape-font-specification:'DejaVu Sans Bold';letter-spacing:0px;word-spacing:0px;fill:#000000;fill-opacity:1;stroke:none"><flowRegion
       id="flowRegion102-7"><rect
         id="rect104-8"
         width="24.242424"
         height="21.818182"
         x="10.606061"
         y="11.818182" /></flowRegion><flowPara
       id="flowPara106-4" /></flowRoot>  <flowRoot
     transform="matrix(0.0625,0,0,0.0625,49.999999,2.2501831e-7)"
     xml:space="preserve"
     id="flowRoot100-0"
     style="font-style:normal;font-variant:normal;font-weight:bold;font-stretch:normal;font-size:16px;line-height:1.25;font-family:'DejaVu Sans';-inkscape-font-specification:'DejaVu Sans Bold';letter-spacing:0px;word-spacing:0px;fill:#000000;fill-opacity:1;stroke:none"><flowRegion
       id="flowRegion102-615"><rect
         id="rect104-5"
         width="24.242424"
         height="21.818182"
         x="10.606061"
         y="11.818182" /></flowRegion><flowPara
       id="flowPara106-47" /></flowRoot>  <flowRoot
     transform="matrix(0.0625,0,0,0.0625,59.999999,-4.8947157e-8)"
     xml:space="preserve"
     id="flowRoot100-9"
     style="font-style:normal;font-variant:normal;font-weight:bold;font-stretch:normal;font-size:16px;line-height:1.25;font-family:'DejaVu Sans';-inkscape-font-specification:'DejaVu Sans Bold';letter-spacing:0px;word-spacing:0px;fill:#000000;fill-opacity:1;stroke:none"><flowRegion
       id="flowRegion102-26"><rect
         id="rect104-6"
         width="24.242424"
         height="21.818182"
         x="10.606061"
         y="11.818182" /></flowRegion><flowPara
       id="flowPara106-49" /></flowRoot>  <flowRoot
     transform="matrix(0.0625,0,0,0.0625,69.999997,-1.8128662e-7)"
     xml:space="preserve"
     id="flowRoot100-48"
     style="font-style:normal;font-variant:normal;font-weight:bold;font-stretch:normal;font-size:16px;line-height:1.25;font-family:'DejaVu Sans';-inkscape-font-specification:'DejaVu Sans Bold';letter-spacing:0px;word-spacing:0px;fill:#000000;fill-opacity:1;stroke:none"><flowRegion
       id="flowRegion102-1"><rect
         id="rect104-29"
         width="24.242424"
         height="21.818182"
         x="10.606061"
         y="11.818182" /></flowRegion><flowPara
       id="flowPara106-3" /></flowRoot>  <flowRoot
     transform="matrix(0.0625,0,0,0.0625,79.999998,1.6533812e-7)"
     xml:space="preserve"
     id="flowRoot100-1"
     style="font-style:normal;font-variant:normal;font-weight:bold;font-stretch:normal;font-size:16px;line-height:1.25;font-family:'DejaVu Sans';-inkscape-font-specification:'DejaVu Sans Bold';letter-spacing:0px;word-spacing:0px;fill:#000000;fill-opacity:1;stroke:none"><flowRegion
       id="flowRegion102-15"><rect
         id="rect104-98"
         width="24.242424"
         height="21.818182"
         x="10.606061"
         y="11.818182" /></flowRegion><flowPara
       id="flowPara106-48" /></flowRoot>  <rect
     y="0.046058174"
     x="0.033462398"
     height="15.625"
     width="10"
     id="swords12"
     style="fill:#ffffff;fill-opacity:1;stroke:#1a1a1a;stroke-width:0.0625;stroke-opacity:1" />
  <rect
     y="1.3528818"
     x="1.3781508"
     height="12.973484"
     width="7.2537889"
     id="rect108-72"
     style="fill:none;fill-opacity:1;stroke:#1a1a1a;stroke-width:0.0625;stroke-opacity:1" />
  <g
     id="flowRoot915-40"
     style="font-style:normal;font-variant:normal;font-weight:bold;font-stretch:normal;font-size:16px;line-height:1.25;font-family:'DejaVu Sans';-inkscape-font-specification:'DejaVu Sans Bold';text-align:start;letter-spacing:0px;word-spacing:0px;text-anchor:start;fill:#000000;fill-opacity:1;stroke:none"
     transform="matrix(0.0625,0,0,0.0625,0.2228524,0.04605817)"
     aria-label="12">
    <path
       id="path661"
       d="M 4.90625,16.623047 H 7.5625 V 9.0839844 l -2.7265625,0.5625 v -2.046875 l 2.7109375,-0.5625 h 2.859375 v 9.5859376 h 2.65625 v 2.078125 H 4.90625 Z"
       inkscape:connector-curvature="0" />
    <path
       id="path663"
       d="m 18.773437,16.490234 h 5.132813 v 2.210938 H 15.429688 V 16.490234 L 19.6875,12.732422 q 0.570312,-0.515625 0.84375,-1.007813 0.273437,-0.492187 0.273437,-1.023437 0,-0.8203126 -0.554687,-1.3203126 -0.546875,-0.5 -1.460938,-0.5 -0.703125,0 -1.539062,0.3046875 -0.835938,0.296875 -1.789062,0.8906251 V 7.5136719 q 1.015624,-0.3359375 2.007812,-0.5078125 0.992187,-0.1796875 1.945312,-0.1796875 2.09375,0 3.25,0.921875 1.164063,0.921875 1.164063,2.5703121 0,0.953125 -0.492188,1.78125 -0.492187,0.820313 -2.070312,2.203125 z"
       inkscape:connector-curvature="0" />
  </g>
  <path
     style="fill:#d9c3a8;fill-opacity:1;stroke:#000000;stroke-width:0.0625;stroke-opacity:0.39215686"
     d="m 4.9374124,3.2130282 -0.22443,-0.0382 -0.4202,0.0143 -0.19578,0.12893 0.005,0.3629 0.0859,0.19578 0.12893,0.16712 0.0334,0.12415 0.1146,0.0573 0.12415,0.0286 0.10505,-0.0191 0.1337,-0.0143 0.1337,-0.0573 0.0669,-0.0859 0.0477,-0.043 0.0239,-0.10982 v -0.0478 l 0.0239,-0.043 h 0.0907 l -0.0525,-0.18622 -0.0764,-0.14325 v -0.10983 l -0.0382,-0.10983 z"
     id="path825-62"
     inkscape:connector-curvature="0" />
  <ellipse
     style="fill:#0000ff;fill-opacity:0.54901961;stroke:#000000;stroke-width:0.05954931;stroke-opacity:0.39215686"
     id="path829-99"
     cx="4.7763138"
     cy="3.4937816"
     rx="0.093222357"
     ry="0.05362181" />
  <path
     style="fill:#423abf;fill-opacity:1;stroke:#000000;stroke-width:0.05524929;stroke-opacity:0.39215686"
     id="path831"
     d="m 4.4484524,3.5213282 a 0.10166249,0.05012445 0 0 1 -0.10113,0.0501 0.10166249,0.05012445 0 0 1 -0.10219,-0.0496 0.10166249,0.05012445 0 0 1 0.10005,-0.0506 0.10166249,0.05012445 0 0 1 0.10325,0.0491"
     inkscape:connector-curvature="0" />
  <path
     style="fill:#2c2929;fill-opacity:0.16230367;stroke:#000000;stroke-width:0.06430288;stroke-opacity:0.62745098"
     d="m 4.4247124,4.0016982 c 0.14657,0.0658 0.23639,0.0245 0.31192,0.0277 l 0.13644,-0.0375"
     id="path836"
     inkscape:connector-curvature="0" />
  <path
     style="fill:#d9c3a8;fill-opacity:0.74345548;stroke:#000000;stroke-width:0.0625;stroke-opacity:0.62745098"
     d="m 4.5783924,3.6123582 -0.1085,0.23614 0.0511,0.0287 c 0.0501,0.009 0.0878,0.005 0.12764,0.003"
     id="path838"
     inkscape:connector-curvature="0" />
  <path
     style="fill:url(#linearGradient848);fill-opacity:1;stroke:#000000;stroke-width:0.0625;stroke-opacity:0.39215686"
     d="m 4.0970024,3.3180782 -0.0269,-0.19403 0.16913,-0.13722 0.0734,-0.0415 0.0957,-0.0128 0.083,-0.0128 0.0989,0.003 h 0.10849 l 0.13402,0.0287 0.15317,0.0638 0.0447,0.0479 0.0383,0.0989 -0.0216,0.12231 -0.10982,-0.0716 -0.22443,-0.0382 -0.4202,0.0143 z"
     id="path840"
     inkscape:connector-curvature="0" />
  <path
     style="fill:#c83737;fill-opacity:1;stroke:#000000;stroke-width:0.0625;stroke-opacity:0.39215686"
     d="m 4.0700824,3.1240482 -0.62863,-0.40845 0.57119,0.15636 -0.17551,-0.57757 0.40526,0.44036 0.0574,-0.54567 0.22018,0.52014 0.25209,-0.48823 0.003,0.51695 0.41802,-0.4276 -0.18508,0.47546 0.46908,-0.13721 -0.44674,0.41483 -0.0447,-0.0479 -0.28719,-0.0925 -0.20742,-0.003 -0.17869,0.0255 -0.24252,0.1787"
     id="path850"
     inkscape:connector-curvature="0" />
  <path
     style="fill:#dac5ab;fill-opacity:1;stroke:#000000;stroke-width:0.062625;stroke-miterlimit:4;stroke-dasharray:none;stroke-opacity:0.15686275"
     d="m 4.4646824,4.2253282 -0.0181,0.0475 0.01,0.12445 h 0.36058 l 0.0447,-0.0255 0.0734,-0.0287 0.0734,-0.0159 0.0606,-0.0447 0.0255,-0.0287 v -0.10211 l -0.0185,-0.11722 -0.1146,0.12893 -0.1337,0.0573 -0.23875,0.0334 z"
     id="path852"
     inkscape:connector-curvature="0" />
  <path
     style="fill:#f5991f;fill-opacity:0.70588235;stroke:#000000;stroke-width:0.062625;stroke-miterlimit:4;stroke-dasharray:none;stroke-opacity:0.15686275"
     d="m 4.0970024,3.3180782 -0.062,0.13145 -0.0415,0.10211 -0.0255,0.067 -0.0638,0.0191 -0.003,0.10211 0.003,0.0862 -0.01,0.10211 -0.11487,0.0542 -0.0383,0.083 h -0.0606 l -0.0287,0.0734 -0.0447,0.0606 -0.01,0.16912 0.003,0.11168 0.0989,0.0702 h 0.14359 l 0.1085,-0.0128 0.11806,-0.0319 0.10531,-0.0159 0.083,0.0255 0.10849,0.0128 0.083,-0.0319 0.0574,0.0128 -0.0511,-0.11168 -0.01,-0.12445 -0.0965,-0.10478 -0.0334,-0.12415 -0.21487,-0.3629 z"
     id="path854"
     inkscape:connector-curvature="0" />
  <path
     style="fill:#f5991f;fill-opacity:0.70588235;stroke:#000000;stroke-width:0.062625;stroke-miterlimit:4;stroke-dasharray:none;stroke-opacity:0.15686275"
     d="m 5.0688624,3.1623382 0.0638,0.0766 0.0511,0.0511 0.0862,0.0287 0.0447,0.0702 0.01,0.1053 -0.016,0.0543 0.083,0.0415 0.10211,0.0574 0.0704,0.0654 0.0798,0.0688 0.07,0.0532 0.0766,0.0746 0.0451,0.071 0.0211,0.11467 -0.007,0.0957 -0.0449,0.0999 -0.10452,0.15781 -0.22939,-0.0331 -0.0764,-0.0251 -0.14777,-0.0856 -0.0758,-0.0575 -0.0766,0.006 -0.0185,-0.21933 0.0478,-0.20055 h 0.0907 l -0.0525,-0.18622 -0.0764,-0.14325 v -0.10983 l -0.0382,-0.10983 0.0216,-0.12231"
     id="path856"
     inkscape:connector-curvature="0" />
  <path
     style="fill:#443e36;fill-opacity:1;stroke:#000000;stroke-width:0.062625;stroke-miterlimit:4;stroke-dasharray:none;stroke-opacity:0.00523562"
     d="m 4.2156224,3.4258782 0.0522,-0.0442 0.12856,-0.0241 0.0683,-0.008 0.0442,0.0603"
     id="path858"
     inkscape:connector-curvature="0" />
  <path
     id="path860"
     d="m 4.9277224,3.4017782 -0.0522,-0.0442 -0.12856,-0.0241 -0.0683,-0.008 -0.0442,0.0603"
     style="fill:#443e36;fill-opacity:1;stroke:#000000;stroke-width:0.062625;stroke-miterlimit:4;stroke-dasharray:none;stroke-opacity:0.00523562"
     inkscape:connector-curvature="0" />
  <path
     style="fill:#b8bc00;fill-opacity:0.54901961;stroke:#000000;stroke-width:0.062625;stroke-miterlimit:4;stroke-dasharray:none;stroke-opacity:0.39215686"
     d="m 4.5072424,4.5089382 0.16844,0.0766 0.14205,-0.0152 0.11162,-0.0507 h 0.19279 l 0.0761,-0.0304 0.0761,-0.0761 0.0406,-0.0609 -0.14396,-0.10489 -0.0766,0.006 -0.0862,0.0734 -0.0734,0.0159 -0.11807,0.0543 h -0.36058 z"
     id="path864"
     inkscape:connector-curvature="0" />
  <path
     style="fill:#b8bc00;fill-opacity:1;stroke:#000000;stroke-width:0.062625;stroke-miterlimit:4;stroke-dasharray:none;stroke-opacity:0.39215686"
     d="m 3.5037124,4.5855482 -0.0507,0.14713 0.0101,0.11669 0.0152,0.13698 0.0863,0.27904 0.0913,0.31963 0.0507,0.13698 0.0355,0.13699 0.0457,0.1725 0.0203,0.13191 0.0152,0.11669 0.0812,0.0457 0.0507,0.0862 -0.005,0.11669 v 0.0761 l -0.005,0.0913 0.0355,0.11669 0.005,0.071 h 0.14205 l 0.13699,-0.10655 0.0761,-0.0457 0.10147,-0.0152 0.0558,-0.0457 v -0.26889 l -0.0406,-0.33992 -0.066,-0.18265 -0.071,-0.18772 -0.0152,-0.16742 -0.0964,-0.19787 -0.1725,-0.15727 -0.11669,-0.11669 -0.0152,-0.12177 -0.0406,-0.10654 -0.13191,-0.10147 z"
     id="path866"
     inkscape:connector-curvature="0" />
  <path
     style="fill:#b8bc00;fill-opacity:1;stroke:#000000;stroke-width:0.062625;stroke-miterlimit:4;stroke-dasharray:none;stroke-opacity:0.39215686"
     d="m 5.1779524,5.0472282 -0.0203,1.07558 -0.0457,0.0457 -0.0355,0.0913 -0.071,0.12684 v 0.20294 0.29933 l 0.0203,0.0812 0.0913,0.005 0.071,-0.0254 0.0355,-0.12683 0.0609,-0.0507 0.066,-0.0558 0.0558,-0.0457 0.0761,-0.0609 0.10147,-0.0254 0.11162,-0.0812 0.0406,-0.0812 0.0152,-0.22323 -0.0254,-0.21816 0.0203,-0.0812 0.0203,-0.1725 0.0304,-0.3247 v -0.25875 l 0.005,-0.26382 v -0.12176 l -0.36529,0.2486 -0.16743,0.0152 z"
     id="path868"
     inkscape:connector-curvature="0" />
  <path
     style="fill:#b8bc00;fill-opacity:0.9842932;stroke:#000000;stroke-width:0.062625;stroke-miterlimit:4;stroke-dasharray:none;stroke-opacity:0.39215686"
     d="m 3.9856924,6.8838282 h 0.14205 l 0.87771,0.005 0.0203,0.0812 0.0913,0.005 0.071,-0.0254 0.0863,0.0812 0.0609,0.0203 0.0609,0.0507 0.0558,0.066 0.0609,0.0761 -0.13698,0.0558 -0.16743,0.0558 -0.18771,0.0913 -0.16235,0.0812 -0.0964,0.0254 -0.16743,0.0254 -0.1725,-0.0406 -0.20801,-0.0964 -0.18772,-0.0964 -0.16742,-0.0964 -0.14206,-0.11162 -0.11669,-0.0863 v -0.0761 l 0.10655,-0.0507 0.14713,-0.0152 z"
     id="path870"
     inkscape:connector-curvature="0" />
  <path
     style="fill:#b8bc00;fill-opacity:0.99476438;stroke:#000000;stroke-width:0.062625;stroke-miterlimit:4;stroke-dasharray:none;stroke-opacity:0.39215686"
     d="m 3.8588524,7.2491182 v 0.21308 l 0.0102,0.22831 -0.0152,0.24352 -0.0355,0.31963 v 0.26382 l -0.0355,0.17757 v 0.17757 l -0.0101,0.23338 -0.0812,0.12684 -0.0304,0.2486 -0.066,0.2029402 -0.0152,0.2283 -0.0761,0.2384596 -0.0254,0.19786 -0.0964,0.3247 -0.0152,0.2689 -0.11669,0.44646 -0.10654,0.39573 -0.16743,0.44647 -0.066,0.35514 -0.0609,0.14713 -0.0254,0.10147 0.26382,0.0152 0.13191,0.0355 h 0.21309 l 0.15728,-0.0812 0.0964,-0.21309 0.0913,-0.22323 0.0457,-0.25875 0.066,-0.28411 0.0761,-0.27397 0.0457,-0.19279 0.0863,-0.29426 0.0457,-0.29426 0.0862,-0.28919 0.0203,-0.20294 0.0304,-0.19279 0.0101,-0.4413898 0.071,-0.55808 0.0812,-0.42617 0.0406,-0.46676 v -0.35514 l -0.0609,-0.29933 z"
     id="path872"
     inkscape:connector-curvature="0" />
  <path
     style="fill:#b8bc00;fill-opacity:1;stroke:#000000;stroke-width:0.062625;stroke-miterlimit:4;stroke-dasharray:none;stroke-opacity:0.39215686"
     d="m 5.2083924,7.3556582 -0.0406,0.11669 v 0.18264 l 0.0254,0.35515 0.0355,0.52256 0.066,0.53779 0.0558,0.44139 0.18265,0.9030798 0.18771,0.75594 0.1725,0.5936 0.17757,0.51749 0.11162,0.30441 0.0812,0.16742 0.1725,0.0457 h 0.16742 0.25367 l 0.13191,-0.0457 -0.0152,-0.21308 -0.11669,-0.19787 -0.0355,-0.10654 -0.0761,-0.26889 -0.0913,-0.28412 -0.0761,-0.25367 -0.0406,-0.18265 -0.0609,-0.24859 -0.0609,-0.27397 -0.0761,-0.33485 -0.0457,-0.2486 -0.0355,-0.2384496 -0.0507,-0.21309 -0.0507,-0.2688902 -0.0355,-0.32978 -0.0304,-0.29426 -0.0406,-0.2486 -0.0862,-0.27904 -0.0812,-0.33485 -0.10654,-0.27396 -0.11669,-0.24353 -0.13698,-0.0863 -0.0102,-0.0862 z"
     id="path874"
     inkscape:connector-curvature="0" />
  <path
     style="fill:#b8bc00;fill-opacity:0.99476438;stroke:#000000;stroke-width:0.062625;stroke-miterlimit:4;stroke-dasharray:none;stroke-opacity:0.39215686"
     d="m 4.5539124,9.0552682 0.26382,0.40588 0.26382,-0.36529 0.10655,0.28411 0.0609,0.21309 0.071,0.3399202 0.0507,0.3297696 0.066,0.31456 0.0761,0.36021 0.11161,0.36529 0.0203,0.11162 -0.38558,-0.005 -0.0558,-0.14205 -0.071,-0.30948 -0.0863,-0.31456 -0.0812,-0.23845 -0.066,-0.11669 -0.0558,-0.0152 -0.0609,0.19786 -0.0406,0.26382 -0.0152,0.31963 -0.0406,0.2486 0.0102,0.14713 -0.47691,-0.0203 -0.0203,-0.16235 0.0558,-0.23338 0.0761,-0.24353 0.0457,-0.21816 0.0203,-0.44646 0.0862,-0.3449996 0.0254,-0.2688902 v -0.20801 z"
     id="path876"
     inkscape:connector-curvature="0" />
  <path
     style="fill:#b8bc00;fill-opacity:1;stroke:#000000;stroke-width:0.062625;stroke-miterlimit:4;stroke-dasharray:none;stroke-opacity:0.39215686"
     d="m 3.1282724,6.3511082 0.0101,0.21309 v 0.2486 l -0.0304,0.11162 -0.16742,0.0355 -0.21816,-0.0101 -0.345,0.0304 -0.37543,-0.005 h -0.066 l -0.005,-0.48198 0.12176,-0.15728 0.066,-0.0457 0.51749,0.005 0.22324,-0.0102 h 0.16235 z"
     id="path878"
     inkscape:connector-curvature="0" />
  <path
     style="fill:#b8bc00;fill-opacity:1;stroke:#000000;stroke-width:0.062625;stroke-miterlimit:4;stroke-dasharray:none;stroke-opacity:0.39215686"
     d="m 6.1723524,6.5540482 0.066,0.12684 0.0152,0.14206 -0.0406,0.19786 v 0.0406 l 0.0457,0.005 h 0.10654 l 0.0609,-0.0101 0.11669,-0.0152 0.0304,-0.066 0.0254,-0.13191 v -0.14713 l -0.0457,-0.10654 -0.066,-0.066 -0.0913,-0.0406 -0.15728,0.0507 z"
     id="path880"
     inkscape:connector-curvature="0" />
  <path
     style="fill:#dfc9b1;fill-opacity:1;stroke:#000000;stroke-width:0.062625;stroke-miterlimit:4;stroke-dasharray:none;stroke-opacity:0.39215686"
     d="m 6.1723524,6.5540482 -0.11162,0.0507 -0.17757,0.0101 -0.23845,-0.0152 -0.0609,-0.0152 -0.10147,0.0254 -0.25875,0.21309 -0.0355,0.12683 0.0863,0.0812 0.12177,0.071 0.21308,0.0254 0.14206,-0.0254 0.21816,-0.0152 0.12683,-0.0355 0.11669,-0.0304 0.0406,-0.19786 -0.0152,-0.14206 z"
     id="path886"
     inkscape:connector-curvature="0" />
  <path
     style="fill:#cf5853;fill-opacity:1;stroke:#000000;stroke-width:0.062625;stroke-miterlimit:4;stroke-dasharray:none;stroke-opacity:0.39215686"
     d="m 3.6999224,4.5504282 0.0682,0.0788 0.13499,0.12149 0.099,0.11699 0.10349,0.10798 0.12598,0.036 h 0.14399 l 0.0405,0.19348 0.0945,0.10799 0.17548,0.045 0.17548,-0.009 0.09,-0.027 0.0855,-0.0495 0.036,-0.072 0.036,-0.13948 -0.004,-0.0585 0.0405,-0.036 h 0.10799 l 0.12599,-0.027 0.13048,-0.081 0.12149,-0.081 0.12149,-0.11249 0.12149,-0.09 0.12148,-0.0675 -0.33296,-0.072 -0.22048,-0.027 -0.12697,-0.0565 -0.11669,0.13698 -0.0761,0.0304 h -0.19279 l -0.11162,0.0507 -0.14206,0.0152 -0.16843,-0.0766 -0.0574,-0.0128 -0.083,0.0319 -0.19146,-0.0383 -0.22337,0.0479 z"
     id="path888"
     inkscape:connector-curvature="0" />
  <path
     style="fill:#dfc9b1;fill-opacity:1;stroke:#000000;stroke-width:0.062625;stroke-miterlimit:4;stroke-dasharray:none;stroke-opacity:0.39215686"
     d="m 3.1282724,6.3511082 0.11336,-0.0211 0.13949,-0.027 0.11249,0.004 0.17098,0.005 0.0855,0.0405 0.081,0.045 0.072,0.0405 0.042,0.2581 0.0355,0.11669 -0.27553,0.0437 -0.29697,0.072 -0.24297,-0.0135 -0.0572,0.009 0.0304,-0.11162 z"
     id="path892"
     inkscape:connector-curvature="0" />
  <path
     style="fill:#cf5853;fill-opacity:1;stroke:#000000;stroke-width:0.062625;stroke-miterlimit:4;stroke-dasharray:none;stroke-opacity:0.39215686"
     d="m 5.9953524,4.5076982 0.29119,0.13673 0.13259,0.16052 0.17448,0.14655 0.0628,0.11167 0.14655,0.11864 0.0907,0.0768 v 0.0977 l 0.15354,0.10468 0.24426,0.14656 0.18145,0.2303 0.14656,0.23031 0.11864,0.41873 0.0977,0.4606 0.0209,0.20937 0.0349,0.38384 0.0279,0.32103 -0.0209,0.29311 -0.0628,0.34894 -0.0558,0.17448 -0.0209,-0.23031 -0.0279,-0.21634 -0.0349,-0.1326 -0.0558,-0.2652 -0.0628,-0.24426 -0.0907,-0.25124 -0.0768,-0.2303 -0.14656,-0.43967 -0.12562,-0.21635 -0.1326,-0.19541 -0.17447,-0.18145 -0.0349,-0.0209 -0.31405,0.17447 -0.13958,0.0419 -0.12562,0.0768 -0.0768,0.0279 -0.13958,0.0628 -0.14655,0.0209 -0.11782,-0.0368 0.0152,-0.22323 -0.0254,-0.21816 0.071,-0.57837 0.005,-0.64433 z"
     id="path894"
     inkscape:connector-curvature="0" />
  <path
     style="fill:#cf5853;fill-opacity:1;stroke:#000000;stroke-width:0.062625;stroke-miterlimit:4;stroke-dasharray:none;stroke-opacity:0.39215686"
     d="m 2.8250124,5.1748282 -0.12562,0.0768 -0.1326,0.18145 -0.0349,0.12562 -0.1326,0.20936 -0.15353,0.1326 -0.18145,0.0768 -0.11166,0.014 -0.14656,0.21634 -0.13958,0.10469 -0.0628,0.21634 -0.0419,0.20239 0.0489,0.28613 0.0768,0.25124 v 0.36988 0.3629 l 0.0279,0.23031 0.0349,0.34894 0.0837,0.21635 0.23728,0.28613 0.24426,0.20937 0.33499,0.22332 0.17447,0.007 -0.36988,-0.2303 -0.29311,-0.25124 -0.18145,-0.32801 -0.0768,-0.24426 -0.007,-0.27218 v -0.20238 l 0.007,-0.28614 0.0209,-0.3629 0.0209,-0.22332 -0.01,-0.14679 -0.005,-0.48198 0.12176,-0.15728 0.1163,-0.10027 0.18145,-0.0209 0.2303,-0.014 0.19541,-0.13259 0.11167,-0.0768 0.1954,-0.0838 0.34197,-0.12562 h 0.14656 0.0907 l 0.0442,-0.06 -0.22831,-0.73565 -0.0254,-0.25367 0.0507,-0.14713 -0.15528,0.0728 -0.0628,0.0907 -0.10468,0.12562 -0.0837,0.10468 -0.0977,0.0977 z"
     id="path896"
     inkscape:connector-curvature="0" />
  <path
     style="fill:#806600;fill-opacity:1;stroke:#000000;stroke-width:0.062625;stroke-miterlimit:4;stroke-dasharray:none;stroke-opacity:0.39215686"
     d="m 2.8250124,9.5226682 -0.0901,-0.17909 -0.0878,-0.21177 -0.0362,-0.19112 -0.0413,-0.18595 v -0.15496 l -0.0258,-0.23244 -0.005,-0.19628 0.0207,-0.21177 v -0.16529 l 0.0258,-0.13947 0.0207,-0.17045 0.0568,-0.14463 0.0878,-0.12913 0.12913,-0.1343 0.14463,-0.0826 0.0838,-0.069 -0.16742,0.0355 -0.21816,-0.0101 -0.345,0.0304 -0.44139,-0.005 0.01,0.14679 -0.0372,0.50677 -0.0155,0.34091 0.0103,0.31508 5.1e-4,0.18416 0.0768,0.24426 0.18145,0.32801 0.25264,0.19915 0.22727,0.14979 z"
     id="path898"
     inkscape:connector-curvature="0" />
  <path
     style="fill:#806600;fill-opacity:1;stroke:#000000;stroke-width:0.062625;stroke-miterlimit:4;stroke-dasharray:none;stroke-opacity:0.39215686"
     d="m 3.7066524,5.7219982 -0.0442,0.06 h -0.23729 l -0.53737,0.20937 -0.30707,0.20936 -0.41175,0.0349 -0.0503,0.0546 0.90307,-0.005 0.10654,0.066 0.25285,-0.0481 0.28347,0.009 0.23848,0.12599 10e-4,-0.11226 -0.0812,-0.0457 -0.11669,-0.55809 z"
     id="path900"
     inkscape:connector-curvature="0" />
  <path
     style="fill:#806600;fill-opacity:1;stroke:#000000;stroke-width:0.062625;stroke-miterlimit:4;stroke-dasharray:none;stroke-opacity:0.39215686"
     d="m 5.7360324,6.4221382 -0.0406,0.0812 -0.11162,0.0812 0.29934,0.0304 0.17757,-0.0101 0.11162,-0.0507 0.22323,-0.071 0.0913,0.0406 0.066,0.066 0.0457,0.10654 v 0.14713 l -0.0254,0.13191 -0.0304,0.066 -0.0836,0.0297 0.0568,0.14462 0.0517,0.24277 0.0723,0.23761 0.13946,0.21177 0.0568,0.15496 0.0413,0.23761 0.0207,0.20661 0.0775,0.12396 0.0207,0.17562 0.0516,0.31509 v 0.26859 l 0.0103,0.24277 0.0516,0.0413 0.0723,-0.031 0.093,-0.093 0.0671,-0.12397 0.0826,-0.10847 0.0981,-0.12913 0.0981,-0.14463 0.062,-0.10847 0.0465,-0.12914 0.0503,-0.12816 -0.0489,-0.44665 -0.15353,-0.64206 -0.31405,-0.92121 -0.12562,-0.21635 -0.1326,-0.19541 -0.17447,-0.18145 -0.0349,-0.0209 -0.31405,0.17447 -0.13958,0.0419 -0.20239,0.10469 -0.13958,0.0628 -0.14655,0.0209 z"
     id="path902"
     inkscape:connector-curvature="0" />
  <path
     style="fill:#68aba2;fill-opacity:1;stroke:#000000;stroke-width:0.062625;stroke-miterlimit:4;stroke-dasharray:none;stroke-opacity:0.39215686"
     d="m 3.1079824,6.9244182 0.0866,0.0896 0.0568,0.1188 0.0258,0.13946 0.0103,0.24794 v 1.1312 l -0.0413,0.21694 -0.1498,0.27376 -0.0413,0.15496 -0.0465,0.11363 -0.18365,0.11194 -0.0901,-0.17909 -0.0878,-0.21177 -0.0775,-0.37707 v -0.15496 l -0.0258,-0.23244 -0.005,-0.19628 0.0207,-0.21177 v -0.16529 l 0.0465,-0.30992 0.0568,-0.14463 0.0878,-0.12913 0.12913,-0.1343 0.14463,-0.0826 z"
     id="path904"
     inkscape:connector-curvature="0" />
  <path
     style="fill:#68aba2;fill-opacity:1;stroke:#000000;stroke-width:0.062625;stroke-miterlimit:4;stroke-dasharray:none;stroke-opacity:0.39215686"
     d="m 6.4590824,7.0708582 -0.0939,-0.004 -0.1522,-0.005 0.003,0.87206 0.0207,0.20661 0.031,0.29443 0.0826,0.18595 0.24793,0.54235 0.18595,0.3719 0.0465,0.0723 0.0981,0.031 0.12913,-0.005 -0.0103,-0.51136 -0.0723,-0.4907 -0.0775,-0.12397 -0.0207,-0.20661 -0.0413,-0.2376 -0.0568,-0.15496 -0.13946,-0.21178 -0.0723,-0.2376 -0.0516,-0.24277 z"
     id="path906"
     inkscape:connector-curvature="0" />
  <path
     style="fill:#68aba2;fill-opacity:1;stroke:#000000;stroke-width:0.062625;stroke-miterlimit:4;stroke-dasharray:none;stroke-opacity:0.39215686"
     d="m 5.3485424,12.432428 h -0.20144 l -0.0413,0.13429 0.093,0.14463 0.0413,0.2531 0.26859,0.0258 0.1343,0.1188 0.21177,0.14463 0.24794,0.1033 0.22211,0.0103 h 0.16529 l 0.0568,-0.10847 -0.093,-0.0361 -0.1343,-0.0878 -0.0878,-0.15496 -0.10331,-0.0981 -0.0775,-0.0671 -0.0155,-0.0155 -0.27376,0.031 -0.0826,0.0465 -0.062,-0.0516 -0.0207,-0.093 -0.0413,-0.0516 h -0.1033 l -0.0413,-0.062 z"
     id="path908"
     inkscape:connector-curvature="0" />
  <path
     style="fill:#68aba2;fill-opacity:1;stroke:#000000;stroke-width:0.062625;stroke-miterlimit:4;stroke-dasharray:none;stroke-opacity:0.39215686"
     d="m 4.8216824,12.437588 0.005,0.42872 -0.15496,0.14979 -0.20661,0.0155 -0.20144,0.11364 -0.19112,0.12913 -0.0671,0.0362 h -0.20661 l -0.27376,0.031 -0.0826,-0.0775 0.1188,-0.0517 0.35124,-0.3874 0.0516,-0.0413 -0.0207,0.10847 0.0671,0.0723 0.10331,0.0207 0.1188,-0.0103 0.0516,-0.0207 0.0775,-0.0516 0.0465,-0.0671 0.0568,-0.062 0.062,-0.0517 0.0775,-0.0671 0.0878,-0.1033 0.0155,-0.0775 0.0155,-0.0517 z"
     id="path910"
     inkscape:connector-curvature="0" />
  <path
     style="fill:#c04d49;fill-opacity:1;stroke:#000000;stroke-width:0.062625;stroke-miterlimit:4;stroke-dasharray:none;stroke-opacity:0.39215686"
     d="m 3.9642424,12.783668 0.11364,-0.1188 0.0775,-0.0568 0.093,-0.0671 0.0981,-0.0723 0.0516,-0.0361 0.32541,-0.0103 -0.031,0.12913 -0.22727,0.22211 -0.1033,0.12913 -0.12914,0.0723 -0.2221,-0.0103 -0.0671,-0.0723 z"
     id="path912"
     inkscape:connector-curvature="0" />
  <path
     style="fill:#c04d49;fill-opacity:1;stroke:#000000;stroke-width:0.062625;stroke-miterlimit:4;stroke-dasharray:none;stroke-opacity:0.39215686"
     d="m 5.3485424,12.432428 h 0.43905 l 0.0826,0.0878 0.0671,0.0723 0.0465,0.0827 0.0516,0.12396 -0.27376,0.031 -0.0826,0.0465 -0.062,-0.0516 -0.0207,-0.093 -0.0413,-0.0516 h -0.1033 z"
     id="path914"
     inkscape:connector-curvature="0" />
  <path
     style="fill:#3f3b35;fill-opacity:1;stroke:#000000;stroke-width:0.062625;stroke-miterlimit:4;stroke-dasharray:none;stroke-opacity:0.39215686"
     d="m 3.5037124,4.5855482 0.19621,-0.0351 0.40562,0.42522 0.12599,0.036 h 0.14399 l 0.0405,0.19348 0.0945,0.10799 0.17548,0.045 0.17548,-0.009 0.17548,-0.0765 0.072,-0.21147 0.036,-0.0945 h 0.10799 l 0.12599,-0.027 0.49495,-0.36446 0.12149,-0.0675 -0.19337,0.25035 -0.36529,0.2486 -0.25875,0.0406 -0.0203,1.07558 -0.1522,0.26382 v 0.50227 l -0.87771,-0.005 0.13699,-0.10655 0.0761,-0.0457 0.15727,-0.0609 v -0.26889 l -0.0406,-0.33992 -0.13698,-0.37037 -0.0152,-0.16742 -0.0964,-0.19787 -0.28919,-0.27396 -0.0558,-0.22831 z"
     id="path916"
     inkscape:connector-curvature="0" />
  <path
     style="fill:#3f3b35;fill-opacity:1;stroke:#000000;stroke-width:0.062625;stroke-miterlimit:4;stroke-dasharray:none;stroke-opacity:0.39215686"
     d="m 3.9806124,6.8127982 0.005,0.071 -0.13191,0.0254 -0.14713,0.0152 -0.10654,0.0507 v 0.0761 l 0.25875,0.19787 0.0101,0.44139 -0.0507,0.56315 v 0.26382 l -0.0355,0.17757 -0.0101,0.41095 -0.19456,-0.0742 -0.11678,-0.0756 -0.0378,-0.0618 0.0206,-0.11335 0.0653,-0.20265 0.0687,-0.1889 0.0206,-0.21295 v -0.19578 -0.14426 -0.0996 l 0.0275,-0.0893 0.055,-0.12709 0.0172,-0.10991 v -0.10647 l -0.0481,-0.0378 -0.0893,0.0515 -0.0412,0.079 -0.0927,0.19577 -0.0687,0.16143 -0.055,0.28852 -0.026,-0.77035 -0.0258,-0.13946 -0.0568,-0.1188 -0.0866,-0.0896 0.30014,0.004 0.29697,-0.072 z"
     id="path918"
     inkscape:connector-curvature="0" />
  <path
     style="fill:#3f3b35;fill-opacity:1;stroke:#000000;stroke-width:0.062625;stroke-miterlimit:4;stroke-dasharray:none;stroke-opacity:0.39215686"
     d="m 6.2129424,7.0208082 -0.24353,0.066 -0.21816,0.0152 -0.14206,0.0254 -0.21308,-0.0254 0.11669,0.14205 0.0101,0.0862 0.13698,0.0863 0.22323,0.51749 0.16743,0.61389 0.0348,0.058 0.0824,-0.0137 0.0481,-0.0343 0.0584,-0.0378 -0.006,-0.0856 -0.0516,-0.50104 -0.003,-0.87206 z"
     id="path920"
     inkscape:connector-curvature="0" />
  <path
     style="fill:#3f3b35;fill-opacity:1;stroke:#000000;stroke-width:0.062625;stroke-miterlimit:4;stroke-dasharray:none;stroke-opacity:0.39215686"
     d="m 4.4220024,7.5383082 0.1725,0.0406 0.16743,-0.0254 0.0964,-0.0254 0.35006,-0.1725 -0.0406,0.11669 0.0447,0.86056 0.0207,0.27892 0.0379,0.25138 0.0448,0.30303 0.0346,0.34564 -0.16235,-0.13191 -0.10654,-0.28411 -0.26382,0.36529 -0.26382,-0.40588 -0.0457,0.2486 v 0.20801 l -0.18416,-0.13903 0.0379,-0.30991 0.0413,-0.21695 0.039,-0.18645 0.0264,-0.31974 0.0207,-0.21006 -0.003,-0.20317 -0.003,-0.0889 z"
     id="path922"
     inkscape:connector-curvature="0" />
  <path
     style="fill:#cf5853;fill-opacity:1;stroke:#000000;stroke-width:0.062625;stroke-miterlimit:4;stroke-dasharray:none;stroke-opacity:0.39215686"
     d="m 3.3032724,8.0426482 0.055,-0.28852 0.20265,-0.4362 0.0893,-0.0515 0.0481,0.0378 -0.0172,0.21638 -0.055,0.12709 -0.0275,0.0893 -0.0206,0.65259 -0.13395,0.39155 -0.0206,0.11335 0.15456,0.13738 0.19455,0.0742 -0.0812,0.12684 -0.0304,0.2486 -0.066,0.2029402 -0.0152,0.2283 -0.0761,0.2384596 -0.0254,0.19786 -0.0964,0.3247 -0.0152,0.2689 -0.22323,0.84219 -0.16743,0.44647 -0.066,0.35514 -0.0609,0.14713 -0.0254,0.10147 -0.14772,0.009 -0.181,-0.0434 -0.23893,-0.12308 -0.19187,-0.0833 -0.17376,-0.10137 -0.1086,-0.0471 -0.0543,-0.0869 -0.0109,-0.0724 0.0615,-0.0977 0.1086,-0.21358 0.0941,-0.23531 0.10498,-0.22807 0.0869,-0.22806 0.0796,-0.19911 0.0579,-0.19187 0.0724,-0.16652 0.076,-0.14119 0.11585,-0.19548 0.0724,-0.26789 0.12308,-0.2751296 0.0507,-0.2172102 0.004,-0.10642 0.18365,-0.11194 0.0878,-0.26859 0.1498,-0.27376 0.0413,-0.21694 z"
     id="path924"
     inkscape:connector-curvature="0" />
  <path
     style="fill:#cf5853;fill-opacity:1;stroke:#000000;stroke-width:0.062625;stroke-miterlimit:4;stroke-dasharray:none;stroke-opacity:0.39215686"
     d="m 4.5082524,9.5118782 -0.18416,-0.13903 -0.034,0.27094 -0.0101,0.4413898 -0.0507,0.39573 -0.0862,0.28919 -0.0457,0.29426 -0.31962,1.30388 0.0424,0.0615 0.57803,0.003 0.32541,-0.0103 0.0981,0.0155 0.32541,-0.005 h 0.20145 0.43905 l 0.3157,-0.0333 -0.17837,-0.51984 -0.13761,-0.49435 -0.0815,-0.24463 -0.0866,-0.32107 -0.0866,-0.34146 -0.0662,-0.35675 -0.0713,-0.3414596 -0.0445,-0.2677302 -0.16235,-0.13191 0.0609,0.21309 0.37544,1.7097598 0.0203,0.11161 -0.38558,-0.005 -0.0558,-0.14206 -0.048,-0.23907 -0.051,-0.20895 -0.0662,-0.18857 -0.0733,-0.2259 -0.066,-0.11669 -0.0558,-0.0152 -0.0609,0.19787 -0.0406,0.26382 -0.0152,0.31963 -0.0406,0.2486 0.0101,0.14713 -0.47691,-0.0203 -0.0203,-0.16235 0.13191,-0.4769 0.0457,-0.21816 0.0203,-0.44647 0.0862,-0.3449896 z"
     id="path926"
     inkscape:connector-curvature="0" />
  <path
     style="fill:#cf5853;fill-opacity:1;stroke:#000000;stroke-width:0.062625;stroke-miterlimit:4;stroke-dasharray:none;stroke-opacity:0.39215686"
     d="m 6.2742724,8.5200682 -0.10648,0.0721 -0.0824,0.0137 -0.0348,-0.058 0.0728,0.64195 0.0337,0.23069 0.10147,0.4819802 0.0859,0.5347996 0.068,0.28919 0.11341,0.48765 0.0737,0.27784 0.0964,0.28919 0.0737,0.22114 0.068,0.20414 0.0194,0.13638 0.11669,0.19787 0.0152,0.21308 0.34201,-0.12773 0.18145,-0.0624 0.18712,-0.0907 0.19846,-0.12475 0.17579,-0.14742 0.14742,-0.18146 v -0.1134 l -0.0454,-0.13609 -0.10206,-0.19279 -0.13609,-0.21547 -0.085,-0.19847 -0.11341,-0.20413 -0.0737,-0.18145 -0.034,-0.11908 -0.051,-0.13609 -0.0794,-0.19846 -0.068,-0.1531 -0.085,-0.1984596 -0.0964,-0.23815 -0.0696,-0.091 -0.0723,0.031 -0.0516,-0.0413 -0.12913,0.005 -0.0981,-0.031 z"
     id="path928"
     inkscape:connector-curvature="0" />
  <path
     style="fill:#00aad4;fill-opacity:1;stroke:#000000;stroke-width:0.04183304;stroke-opacity:0.02617804"
     d="m 7.5956524,3.9366882 0.21373,0.006 -0.0582,-1.6569 -0.17396,-0.22816 -0.0341,0.10268 z"
     id="path825-3-0"
     inkscape:connector-curvature="0" />
  <path
     style="fill:#006680;fill-opacity:1;stroke:#000000;stroke-width:0.04183304;stroke-opacity:0.02617804"
     d="m 7.5956524,3.9366882 -0.17519,-0.0136 -0.0465,-1.69291 0.0825,-0.0861 0.12082,-0.087 0.0102,0.22573 0.008,1.6538"
     id="path827-81"
     inkscape:connector-curvature="0" />
  <path
     style="fill:#c8ab37;fill-opacity:1;stroke:#000000;stroke-width:0.04183304;stroke-opacity:0.02617804"
     d="m 7.0531524,4.2556782 -0.14226,-0.1496 0.10498,-0.13948 0.40459,-0.0435 0.17519,0.0136 0.21373,0.006 0.39856,0.0378 0.16113,0.14823 -0.16759,0.14228 -0.36163,-0.0352 -0.44533,0.004 z"
     id="path829-6-3"
     inkscape:connector-curvature="0" />
  <ellipse
     style="fill:#c8ab37;fill-opacity:1;stroke:#000000;stroke-width:0.04202057;stroke-opacity:0.02617804"
     id="path833-1"
     cx="2.906127"
     cy="-8.3483582"
     rx="0.19394591"
     ry="0.16483898"
     transform="matrix(0.86202353,-0.50686827,-0.61714541,-0.78684912,0,0)" />
  <path
     style="fill:#d40000;fill-opacity:1;stroke:#000000;stroke-width:0.04183304;stroke-opacity:0.02617804"
     d="m 7.8248524,4.9953582 -0.0288,-0.75861 -0.38532,-0.002 0.0478,0.90003 0.0258,-0.099 0.0824,-0.066 0.0903,-0.035 0.0891,0.008 z"
     id="path835-1"
     inkscape:connector-curvature="0" />
</svg>
