<?xml version="1.0" encoding="UTF-8" standalone="no"?>
<svg
   xmlns:dc="http://purl.org/dc/elements/1.1/"
   xmlns:cc="http://creativecommons.org/ns#"
   xmlns:rdf="http://www.w3.org/1999/02/22-rdf-syntax-ns#"
   xmlns:svg="http://www.w3.org/2000/svg"
   xmlns="http://www.w3.org/2000/svg"
   xmlns:xlink="http://www.w3.org/1999/xlink"
   xmlns:sodipodi="http://sodipodi.sourceforge.net/DTD/sodipodi-0.dtd"
   xmlns:inkscape="http://www.inkscape.org/namespaces/inkscape"
   viewBox="0 0 160 250"
   height="250"
   width="160"
   id="svg815"
   version="1.1"
   sodipodi:docname="swords03.svg"
   inkscape:version="0.92.5 (2060ec1f9f, 2020-04-08)">
  <sodipodi:namedview
     pagecolor="#ffffff"
     bordercolor="#666666"
     borderopacity="1"
     objecttolerance="10"
     gridtolerance="10"
     guidetolerance="10"
     inkscape:pageopacity="0"
     inkscape:pageshadow="2"
     inkscape:window-width="1918"
     inkscape:window-height="1017"
     id="namedview12042"
     showgrid="false"
     inkscape:zoom="13.017931"
     inkscape:cx="58.636364"
     inkscape:cy="239.39394"
     inkscape:window-x="0"
     inkscape:window-y="0"
     inkscape:window-maximized="1"
     inkscape:current-layer="svg815"
     inkscape:snap-page="true" />
  <metadata
     id="metadata821">
    <rdf:RDF>
      <cc:Work
         rdf:about="">
        <dc:format>image/svg+xml</dc:format>
        <dc:type
           rdf:resource="http://purl.org/dc/dcmitype/StillImage" />
        <dc:title></dc:title>
      </cc:Work>
    </rdf:RDF>
  </metadata>
  <defs
     id="defs819">
    <linearGradient
       gradientTransform="matrix(0.0625,0,0,0.0625,89.999996,7.4115112e-6)"
       gradientUnits="userSpaceOnUse"
       y2="68.472336"
       x2="56.128345"
       y1="63.697319"
       x1="61.166279"
       id="linearGradient876"
       xlink:href="#linearGradient882" />
    <linearGradient
       id="linearGradient882">
      <stop
         style="stop-color:#d16208;stop-opacity:1"
         offset="0"
         id="stop878" />
      <stop
         style="stop-color:#d16250;stop-opacity:0;"
         offset="1"
         id="stop880" />
    </linearGradient>
    <linearGradient
       gradientTransform="matrix(0.0625,0,0,0.0625,89.999996,7.4115112e-6)"
       gradientUnits="userSpaceOnUse"
       y2="71.008263"
       x2="88.849586"
       y1="58.644627"
       x1="82.105782"
       id="linearGradient1063"
       xlink:href="#linearGradient882" />
    <linearGradient
       gradientTransform="matrix(0.0625,0,0,0.0625,110,0)"
       xlink:href="#linearGradient846"
       id="linearGradient848"
       x1="72.37397"
       y1="53.171356"
       x2="72.19931"
       y2="45.564011"
       gradientUnits="userSpaceOnUse" />
    <linearGradient
       id="linearGradient846">
      <stop
         style="stop-color:#423abf;stop-opacity:1;"
         offset="0"
         id="stop842" />
      <stop
         style="stop-color:#423abf;stop-opacity:0;"
         offset="1"
         id="stop844" />
    </linearGradient>
  </defs>
  <flowRoot
     transform="matrix(0.125,0,0,0.125,70,109.375)"
     xml:space="preserve"
     id="flowRoot100"
     style="font-style:normal;font-variant:normal;font-weight:bold;font-stretch:normal;font-size:16px;line-height:1.25;font-family:'DejaVu Sans';-inkscape-font-specification:'DejaVu Sans Bold';letter-spacing:0px;word-spacing:0px;fill:#000000;fill-opacity:1;stroke:none"><flowRegion
       id="flowRegion102"><rect
         id="rect104"
         width="24.242424"
         height="21.818182"
         x="10.606061"
         y="11.818182" /></flowRegion><flowPara
       id="flowPara106" /></flowRoot>  <flowRoot
     transform="matrix(0.0625,0,0,0.0625,9.9999996,7.0251474e-8)"
     xml:space="preserve"
     id="flowRoot100-6"
     style="font-style:normal;font-variant:normal;font-weight:bold;font-stretch:normal;font-size:16px;line-height:1.25;font-family:'DejaVu Sans';-inkscape-font-specification:'DejaVu Sans Bold';letter-spacing:0px;word-spacing:0px;fill:#000000;fill-opacity:1;stroke:none"><flowRegion
       id="flowRegion102-2"><rect
         id="rect104-9"
         width="24.242424"
         height="21.818182"
         x="10.606061"
         y="11.818182" /></flowRegion><flowPara
       id="flowPara106-1" /></flowRoot>  <rect
     style="fill:#ffffff;fill-opacity:1;stroke:#1a1a1a;stroke-width:0.0625;stroke-opacity:1"
     id="swords03"
     width="10"
     height="15.625"
     x="0"
     y="0" />
  <path
     id="path825-9"
     d="m 2.9219341,6.5979604 0.447807,-0.0306 -0.05891,5.3925096 -0.355979,0.75234 -0.07545,-0.33196 z"
     style="fill:#00aad4;fill-opacity:1;stroke:#000000;stroke-width:0.10924796;stroke-opacity:0.02617804"
     inkscape:connector-curvature="0" />
  <path
     id="path827-3"
     d="m 2.9219341,6.5979604 -0.366727,0.0546 -0.03313,5.5089196 0.176191,0.27502 0.256584,0.27569 0.01278,-0.73478 -0.04569,-5.3794596"
     style="fill:#006680;fill-opacity:1;stroke:#000000;stroke-width:0.10924796;stroke-opacity:0.02617804"
     inkscape:connector-curvature="0" />
  <path
     id="path829-6"
     d="m 1.7726241,5.5924604 -0.292524,0.49498 0.225359,0.44746 0.849748,0.11767 0.366727,-0.0546 0.447807,-0.0306 0.834013,-0.1464 0.33212,-0.49163 -0.356717,-0.45287 -0.756707,0.13581 -0.933643,0.0123 z"
     style="fill:#c8ab37;fill-opacity:1;stroke:#000000;stroke-width:0.10924796;stroke-opacity:0.02617804"
     inkscape:connector-curvature="0" />
  <ellipse
     transform="matrix(0.75262401,0.65845053,-0.43773979,0.89910171,0,0)"
     ry="0.47587812"
     rx="0.47060689"
     cy="0.15074128"
     cx="4.0831227"
     id="path833-0"
     style="fill:#c8ab37;fill-opacity:1;stroke:#000000;stroke-width:0.11121637;stroke-opacity:0.02617804" />
  <path
     id="path835-6"
     d="m 3.3621071,3.1411104 -0.03142,2.46909 -0.807626,0.0287 0.06605,-2.93019 0.05796,0.32059 0.175171,0.20984 0.190531,0.10865 0.186455,-0.0312 z"
     style="fill:#d40000;fill-opacity:1;stroke:#000000;stroke-width:0.10924796;stroke-opacity:0.02617804"
     inkscape:connector-curvature="0" />
  <flowRoot
     transform="matrix(0.0625,0,0,0.0625,20,1.5827638e-7)"
     xml:space="preserve"
     id="flowRoot100-2"
     style="font-style:normal;font-variant:normal;font-weight:bold;font-stretch:normal;font-size:16px;line-height:1.25;font-family:'DejaVu Sans';-inkscape-font-specification:'DejaVu Sans Bold';letter-spacing:0px;word-spacing:0px;fill:#000000;fill-opacity:1;stroke:none"><flowRegion
       id="flowRegion102-6"><rect
         id="rect104-1"
         width="24.242424"
         height="21.818182"
         x="10.606061"
         y="11.818182" /></flowRegion><flowPara
       id="flowPara106-8" /></flowRoot>  <rect
     style="fill:none;fill-opacity:1;stroke:#1a1a1a;stroke-width:0.0625;stroke-opacity:1"
     id="rect108-7"
     width="7.2537889"
     height="12.973484"
     x="1.344696"
     y="1.3068237" />
  <g
     id="flowRoot915-9"
     style="font-style:normal;font-variant:normal;font-weight:bold;font-stretch:normal;font-size:16px;line-height:1.25;font-family:'DejaVu Sans';-inkscape-font-specification:'DejaVu Sans Bold';text-align:start;letter-spacing:0px;word-spacing:0px;text-anchor:start;fill:#000000;fill-opacity:1;stroke:none"
     transform="matrix(0.0625,0,0,0.0625,0.18939411,1.8505554e-7)"
     aria-label="3">
    <path
       id="path107"
       d="m 10.484375,12.412109 q 1.179688,0.304688 1.789063,1.0625 0.617187,0.75 0.617187,1.914063 0,1.734375 -1.328125,2.640625 -1.328125,0.898437 -3.875,0.898437 -0.8984375,0 -1.8046875,-0.148437 -0.8984375,-0.140625 -1.78125,-0.429688 v -2.320312 q 0.84375,0.421875 1.671875,0.640625 0.8359375,0.210937 1.640625,0.210937 1.1953125,0 1.828125,-0.414062 0.640625,-0.414063 0.640625,-1.1875 0,-0.796875 -0.65625,-1.203125 -0.6484375,-0.414063 -1.921875,-0.414063 h -1.203125 v -1.9375 h 1.265625 q 1.1328125,0 1.6875,-0.351562 0.5546875,-0.359375 0.5546875,-1.085938 0,-0.6718746 -0.5390625,-1.0390621 Q 8.53125,8.8808594 7.546875,8.8808594 q -0.7265625,0 -1.46875,0.1640625 -0.7421875,0.1640625 -1.4765625,0.484375 v -2.203125 q 0.890625,-0.25 1.765625,-0.375 0.875,-0.125 1.71875,-0.125 2.2734375,0 3.3984375,0.75 1.132813,0.7421875 1.132813,2.2421875 0,1.0234376 -0.539063,1.6796876 -0.539062,0.648437 -1.59375,0.914062 z"
       inkscape:connector-curvature="0" />
  </g>
  <path
     style="fill:#00aad4;fill-opacity:1;stroke:#000000;stroke-width:0.11019114;stroke-opacity:0.02617804"
     d="m 5.0242071,8.4338904 0.447806,0.0311 -0.05891,-5.48602 -0.35598,-0.7653902 -0.07545,0.3377102 z"
     id="path944-2"
     inkscape:connector-curvature="0" />
  <path
     style="fill:#006680;fill-opacity:1;stroke:#000000;stroke-width:0.11019114;stroke-opacity:0.02617804"
     d="m 5.0242071,8.4338904 -0.366728,-0.0556 -0.03313,-5.60446 0.176192,-0.27978 0.256583,-0.2804702 0.01278,0.7475202 -0.04569,5.47275"
     id="path946-0"
     inkscape:connector-curvature="0" />
  <path
     style="fill:#c8ab37;fill-opacity:1;stroke:#000000;stroke-width:0.11019114;stroke-opacity:0.02617804"
     d="m 3.8748971,9.4568304 -0.292525,-0.50357 0.225359,-0.45522 0.849748,-0.11971 0.366728,0.0556 0.447806,0.0311 0.834014,0.14893 0.33212,0.50016 -0.356717,0.46073 -0.756708,-0.13817 -0.933642,-0.0125 z"
     id="path948-2"
     inkscape:connector-curvature="0" />
  <ellipse
     style="fill:#c8ab37;fill-opacity:1;stroke:#000000;stroke-width:0.11241674;stroke-opacity:0.02617804"
     id="ellipse950-3"
     cx="-0.7174409"
     cy="-13.07747"
     rx="0.4741624"
     ry="0.48256016"
     transform="matrix(0.74698047,-0.66484598,-0.43167838,-0.90202759,0,0)" />
  <path
     style="fill:#d40000;fill-opacity:1;stroke:#000000;stroke-width:0.11019114;stroke-opacity:0.02617804"
     d="m 5.4643801,11.95069 -0.03142,-2.5119096 -0.807626,-0.0292 0.06604,2.9809996 0.05796,-0.32615 0.175171,-0.21348 0.19053,-0.11053 0.186455,0.0317 z"
     id="path952-7"
     inkscape:connector-curvature="0" />
  <path
     style="fill:#00aad4;fill-opacity:1;stroke:#000000;stroke-width:0.10924796;stroke-opacity:0.02617804"
     d="m 6.9370861,6.6737204 0.447807,-0.0306 -0.05891,5.3924996 -0.355979,0.75234 -0.07545,-0.33195 z"
     id="path983"
     inkscape:connector-curvature="0" />
  <path
     style="fill:#006680;fill-opacity:1;stroke:#000000;stroke-width:0.10924796;stroke-opacity:0.02617804"
     d="m 6.9370861,6.6737204 -0.366728,0.0546 -0.03313,5.5089196 0.176192,0.27502 0.256583,0.27568 0.01278,-0.73477 -0.04569,-5.3794596"
     id="path985"
     inkscape:connector-curvature="0" />
  <path
     style="fill:#c8ab37;fill-opacity:1;stroke:#000000;stroke-width:0.10924796;stroke-opacity:0.02617804"
     d="m 5.7877761,5.6682104 -0.292525,0.49499 0.225359,0.44746 0.849748,0.11767 0.366728,-0.0546 0.447807,-0.0306 0.834013,-0.1464 0.33212,-0.49163 -0.356717,-0.45287 -0.756708,0.13581 -0.933642,0.0123 z"
     id="path987"
     inkscape:connector-curvature="0" />
  <ellipse
     style="fill:#c8ab37;fill-opacity:1;stroke:#000000;stroke-width:0.11121637;stroke-opacity:0.02617804"
     id="ellipse989"
     cx="7.858789"
     cy="-2.5300744"
     rx="0.47060689"
     ry="0.47587812"
     transform="matrix(0.75262401,0.65845053,-0.43773979,0.89910171,0,0)" />
  <path
     style="fill:#d40000;fill-opacity:1;stroke:#000000;stroke-width:0.10924796;stroke-opacity:0.02617804"
     d="m 7.3772591,3.2168604 -0.03142,2.4691 -0.807625,0.0287 0.06605,-2.93019 0.05796,0.32059 0.175171,0.20984 0.19053,0.10864 0.186455,-0.0312 z"
     id="path991"
     inkscape:connector-curvature="0" />
  <flowRoot
     transform="matrix(0.0625,0,0,0.0625,30,7.89978e-8)"
     xml:space="preserve"
     id="flowRoot100-3"
     style="font-style:normal;font-variant:normal;font-weight:bold;font-stretch:normal;font-size:16px;line-height:1.25;font-family:'DejaVu Sans';-inkscape-font-specification:'DejaVu Sans Bold';letter-spacing:0px;word-spacing:0px;fill:#000000;fill-opacity:1;stroke:none"><flowRegion
       id="flowRegion102-61"><rect
         id="rect104-2"
         width="24.242424"
         height="21.818182"
         x="10.606061"
         y="11.818182" /></flowRegion><flowPara
       id="flowPara106-9" /></flowRoot>  <flowRoot
     transform="matrix(0.0625,0,0,0.0625,40,3.2385253e-7)"
     xml:space="preserve"
     id="flowRoot100-4"
     style="font-style:normal;font-variant:normal;font-weight:bold;font-stretch:normal;font-size:16px;line-height:1.25;font-family:'DejaVu Sans';-inkscape-font-specification:'DejaVu Sans Bold';letter-spacing:0px;word-spacing:0px;fill:#000000;fill-opacity:1;stroke:none"><flowRegion
       id="flowRegion102-7"><rect
         id="rect104-8"
         width="24.242424"
         height="21.818182"
         x="10.606061"
         y="11.818182" /></flowRegion><flowPara
       id="flowPara106-4" /></flowRoot>  <flowRoot
     transform="matrix(0.0625,0,0,0.0625,49.999999,2.2501831e-7)"
     xml:space="preserve"
     id="flowRoot100-0"
     style="font-style:normal;font-variant:normal;font-weight:bold;font-stretch:normal;font-size:16px;line-height:1.25;font-family:'DejaVu Sans';-inkscape-font-specification:'DejaVu Sans Bold';letter-spacing:0px;word-spacing:0px;fill:#000000;fill-opacity:1;stroke:none"><flowRegion
       id="flowRegion102-615"><rect
         id="rect104-5"
         width="24.242424"
         height="21.818182"
         x="10.606061"
         y="11.818182" /></flowRegion><flowPara
       id="flowPara106-47" /></flowRoot>  <flowRoot
     transform="matrix(0.0625,0,0,0.0625,59.999999,-4.8947157e-8)"
     xml:space="preserve"
     id="flowRoot100-9"
     style="font-style:normal;font-variant:normal;font-weight:bold;font-stretch:normal;font-size:16px;line-height:1.25;font-family:'DejaVu Sans';-inkscape-font-specification:'DejaVu Sans Bold';letter-spacing:0px;word-spacing:0px;fill:#000000;fill-opacity:1;stroke:none"><flowRegion
       id="flowRegion102-26"><rect
         id="rect104-6"
         width="24.242424"
         height="21.818182"
         x="10.606061"
         y="11.818182" /></flowRegion><flowPara
       id="flowPara106-49" /></flowRoot>  <flowRoot
     transform="matrix(0.0625,0,0,0.0625,69.999997,-1.8128662e-7)"
     xml:space="preserve"
     id="flowRoot100-48"
     style="font-style:normal;font-variant:normal;font-weight:bold;font-stretch:normal;font-size:16px;line-height:1.25;font-family:'DejaVu Sans';-inkscape-font-specification:'DejaVu Sans Bold';letter-spacing:0px;word-spacing:0px;fill:#000000;fill-opacity:1;stroke:none"><flowRegion
       id="flowRegion102-1"><rect
         id="rect104-29"
         width="24.242424"
         height="21.818182"
         x="10.606061"
         y="11.818182" /></flowRegion><flowPara
       id="flowPara106-3" /></flowRoot>  <flowRoot
     transform="matrix(0.0625,0,0,0.0625,79.999998,1.6533812e-7)"
     xml:space="preserve"
     id="flowRoot100-1"
     style="font-style:normal;font-variant:normal;font-weight:bold;font-stretch:normal;font-size:16px;line-height:1.25;font-family:'DejaVu Sans';-inkscape-font-specification:'DejaVu Sans Bold';letter-spacing:0px;word-spacing:0px;fill:#000000;fill-opacity:1;stroke:none"><flowRegion
       id="flowRegion102-15"><rect
         id="rect104-98"
         width="24.242424"
         height="21.818182"
         x="10.606061"
         y="11.818182" /></flowRegion><flowPara
       id="flowPara106-48" /></flowRoot></svg>
