<?xml version="1.0" encoding="UTF-8" standalone="no"?>
<svg
   xmlns:dc="http://purl.org/dc/elements/1.1/"
   xmlns:cc="http://creativecommons.org/ns#"
   xmlns:rdf="http://www.w3.org/1999/02/22-rdf-syntax-ns#"
   xmlns:svg="http://www.w3.org/2000/svg"
   xmlns="http://www.w3.org/2000/svg"
   xmlns:xlink="http://www.w3.org/1999/xlink"
   xmlns:sodipodi="http://sodipodi.sourceforge.net/DTD/sodipodi-0.dtd"
   xmlns:inkscape="http://www.inkscape.org/namespaces/inkscape"
   viewBox="0 0 160 250"
   height="250"
   width="160"
   id="svg815"
   version="1.1"
   sodipodi:docname="swords09.svg"
   inkscape:version="0.92.5 (2060ec1f9f, 2020-04-08)">
  <sodipodi:namedview
     pagecolor="#ffffff"
     bordercolor="#666666"
     borderopacity="1"
     objecttolerance="10"
     gridtolerance="10"
     guidetolerance="10"
     inkscape:pageopacity="0"
     inkscape:pageshadow="2"
     inkscape:window-width="1918"
     inkscape:window-height="1017"
     id="namedview12042"
     showgrid="false"
     inkscape:zoom="11.235714"
     inkscape:cx="65.757576"
     inkscape:cy="231.9697"
     inkscape:window-x="0"
     inkscape:window-y="0"
     inkscape:window-maximized="1"
     inkscape:current-layer="svg815"
     inkscape:snap-page="true" />
  <metadata
     id="metadata821">
    <rdf:RDF>
      <cc:Work
         rdf:about="">
        <dc:format>image/svg+xml</dc:format>
        <dc:type
           rdf:resource="http://purl.org/dc/dcmitype/StillImage" />
        <dc:title></dc:title>
      </cc:Work>
    </rdf:RDF>
  </metadata>
  <defs
     id="defs819">
    <linearGradient
       gradientTransform="matrix(0.0625,0,0,0.0625,89.999996,7.4115112e-6)"
       gradientUnits="userSpaceOnUse"
       y2="68.472336"
       x2="56.128345"
       y1="63.697319"
       x1="61.166279"
       id="linearGradient876"
       xlink:href="#linearGradient882" />
    <linearGradient
       id="linearGradient882">
      <stop
         style="stop-color:#d16208;stop-opacity:1"
         offset="0"
         id="stop878" />
      <stop
         style="stop-color:#d16250;stop-opacity:0;"
         offset="1"
         id="stop880" />
    </linearGradient>
    <linearGradient
       gradientTransform="matrix(0.0625,0,0,0.0625,89.999996,7.4115112e-6)"
       gradientUnits="userSpaceOnUse"
       y2="71.008263"
       x2="88.849586"
       y1="58.644627"
       x1="82.105782"
       id="linearGradient1063"
       xlink:href="#linearGradient882" />
    <linearGradient
       gradientTransform="matrix(0.0625,0,0,0.0625,110,0)"
       xlink:href="#linearGradient846"
       id="linearGradient848"
       x1="72.37397"
       y1="53.171356"
       x2="72.19931"
       y2="45.564011"
       gradientUnits="userSpaceOnUse" />
    <linearGradient
       id="linearGradient846">
      <stop
         style="stop-color:#423abf;stop-opacity:1;"
         offset="0"
         id="stop842" />
      <stop
         style="stop-color:#423abf;stop-opacity:0;"
         offset="1"
         id="stop844" />
    </linearGradient>
  </defs>
  <flowRoot
     transform="matrix(0.125,0,0,0.125,70,109.375)"
     xml:space="preserve"
     id="flowRoot100"
     style="font-style:normal;font-variant:normal;font-weight:bold;font-stretch:normal;font-size:16px;line-height:1.25;font-family:'DejaVu Sans';-inkscape-font-specification:'DejaVu Sans Bold';letter-spacing:0px;word-spacing:0px;fill:#000000;fill-opacity:1;stroke:none"><flowRegion
       id="flowRegion102"><rect
         id="rect104"
         width="24.242424"
         height="21.818182"
         x="10.606061"
         y="11.818182" /></flowRegion><flowPara
       id="flowPara106" /></flowRoot>  <flowRoot
     transform="matrix(0.0625,0,0,0.0625,9.9999996,7.0251474e-8)"
     xml:space="preserve"
     id="flowRoot100-6"
     style="font-style:normal;font-variant:normal;font-weight:bold;font-stretch:normal;font-size:16px;line-height:1.25;font-family:'DejaVu Sans';-inkscape-font-specification:'DejaVu Sans Bold';letter-spacing:0px;word-spacing:0px;fill:#000000;fill-opacity:1;stroke:none"><flowRegion
       id="flowRegion102-2"><rect
         id="rect104-9"
         width="24.242424"
         height="21.818182"
         x="10.606061"
         y="11.818182" /></flowRegion><flowPara
       id="flowPara106-1" /></flowRoot>  <flowRoot
     transform="matrix(0.0625,0,0,0.0625,20,1.5827638e-7)"
     xml:space="preserve"
     id="flowRoot100-2"
     style="font-style:normal;font-variant:normal;font-weight:bold;font-stretch:normal;font-size:16px;line-height:1.25;font-family:'DejaVu Sans';-inkscape-font-specification:'DejaVu Sans Bold';letter-spacing:0px;word-spacing:0px;fill:#000000;fill-opacity:1;stroke:none"><flowRegion
       id="flowRegion102-6"><rect
         id="rect104-1"
         width="24.242424"
         height="21.818182"
         x="10.606061"
         y="11.818182" /></flowRegion><flowPara
       id="flowPara106-8" /></flowRoot>  <flowRoot
     transform="matrix(0.0625,0,0,0.0625,30,7.89978e-8)"
     xml:space="preserve"
     id="flowRoot100-3"
     style="font-style:normal;font-variant:normal;font-weight:bold;font-stretch:normal;font-size:16px;line-height:1.25;font-family:'DejaVu Sans';-inkscape-font-specification:'DejaVu Sans Bold';letter-spacing:0px;word-spacing:0px;fill:#000000;fill-opacity:1;stroke:none"><flowRegion
       id="flowRegion102-61"><rect
         id="rect104-2"
         width="24.242424"
         height="21.818182"
         x="10.606061"
         y="11.818182" /></flowRegion><flowPara
       id="flowPara106-9" /></flowRoot>  <flowRoot
     transform="matrix(0.0625,0,0,0.0625,40,3.2385253e-7)"
     xml:space="preserve"
     id="flowRoot100-4"
     style="font-style:normal;font-variant:normal;font-weight:bold;font-stretch:normal;font-size:16px;line-height:1.25;font-family:'DejaVu Sans';-inkscape-font-specification:'DejaVu Sans Bold';letter-spacing:0px;word-spacing:0px;fill:#000000;fill-opacity:1;stroke:none"><flowRegion
       id="flowRegion102-7"><rect
         id="rect104-8"
         width="24.242424"
         height="21.818182"
         x="10.606061"
         y="11.818182" /></flowRegion><flowPara
       id="flowPara106-4" /></flowRoot>  <flowRoot
     transform="matrix(0.0625,0,0,0.0625,49.999999,2.2501831e-7)"
     xml:space="preserve"
     id="flowRoot100-0"
     style="font-style:normal;font-variant:normal;font-weight:bold;font-stretch:normal;font-size:16px;line-height:1.25;font-family:'DejaVu Sans';-inkscape-font-specification:'DejaVu Sans Bold';letter-spacing:0px;word-spacing:0px;fill:#000000;fill-opacity:1;stroke:none"><flowRegion
       id="flowRegion102-615"><rect
         id="rect104-5"
         width="24.242424"
         height="21.818182"
         x="10.606061"
         y="11.818182" /></flowRegion><flowPara
       id="flowPara106-47" /></flowRoot>  <flowRoot
     transform="matrix(0.0625,0,0,0.0625,59.999999,-4.8947157e-8)"
     xml:space="preserve"
     id="flowRoot100-9"
     style="font-style:normal;font-variant:normal;font-weight:bold;font-stretch:normal;font-size:16px;line-height:1.25;font-family:'DejaVu Sans';-inkscape-font-specification:'DejaVu Sans Bold';letter-spacing:0px;word-spacing:0px;fill:#000000;fill-opacity:1;stroke:none"><flowRegion
       id="flowRegion102-26"><rect
         id="rect104-6"
         width="24.242424"
         height="21.818182"
         x="10.606061"
         y="11.818182" /></flowRegion><flowPara
       id="flowPara106-49" /></flowRoot>  <flowRoot
     transform="matrix(0.0625,0,0,0.0625,69.999997,-1.8128662e-7)"
     xml:space="preserve"
     id="flowRoot100-48"
     style="font-style:normal;font-variant:normal;font-weight:bold;font-stretch:normal;font-size:16px;line-height:1.25;font-family:'DejaVu Sans';-inkscape-font-specification:'DejaVu Sans Bold';letter-spacing:0px;word-spacing:0px;fill:#000000;fill-opacity:1;stroke:none"><flowRegion
       id="flowRegion102-1"><rect
         id="rect104-29"
         width="24.242424"
         height="21.818182"
         x="10.606061"
         y="11.818182" /></flowRegion><flowPara
       id="flowPara106-3" /></flowRoot>  <rect
     style="fill:#ffffff;fill-opacity:1;stroke:#1a1a1a;stroke-width:0.0625;stroke-opacity:1"
     id="swords09"
     width="10"
     height="15.625"
     x="0.01451361"
     y="-0.084763572" />
  <flowRoot
     transform="matrix(0.0625,0,0,0.0625,79.999998,1.6533812e-7)"
     xml:space="preserve"
     id="flowRoot100-1"
     style="font-style:normal;font-variant:normal;font-weight:bold;font-stretch:normal;font-size:16px;line-height:1.25;font-family:'DejaVu Sans';-inkscape-font-specification:'DejaVu Sans Bold';letter-spacing:0px;word-spacing:0px;fill:#000000;fill-opacity:1;stroke:none"><flowRegion
       id="flowRegion102-15"><rect
         id="rect104-98"
         width="24.242424"
         height="21.818182"
         x="10.606061"
         y="11.818182" /></flowRegion><flowPara
       id="flowPara106-48" /></flowRoot>  <rect
     style="fill:none;fill-opacity:1;stroke:#1a1a1a;stroke-width:0.0625;stroke-opacity:1"
     id="rect108-1"
     width="7.2537889"
     height="12.973484"
     x="1.3592095"
     y="1.2220602" />
  <g
     id="flowRoot915-03"
     style="font-style:normal;font-variant:normal;font-weight:bold;font-stretch:normal;font-size:16px;line-height:1.25;font-family:'DejaVu Sans';-inkscape-font-specification:'DejaVu Sans Bold';text-align:start;letter-spacing:0px;word-spacing:0px;text-anchor:start;fill:#000000;fill-opacity:1;stroke:none"
     transform="matrix(0.0625,0,0,0.0625,0.20390449,-0.08476353)"
     aria-label="9">
    <path
       id="path428"
       d="m 4.6328125,18.443359 v -2.15625 q 0.71875,0.335938 1.375,0.507813 0.65625,0.164062 1.296875,0.164062 1.34375,0 2.09375,-0.742187 0.7500005,-0.75 0.8828125,-2.21875 Q 9.75,14.388672 9.1484375,14.583984 8.546875,14.779297 7.84375,14.779297 q -1.7890625,0 -2.890625,-1.039063 -1.09375,-1.046875 -1.09375,-2.75 0,-1.8828121 1.21875,-3.0156246 1.2265625,-1.1328125 3.28125,-1.1328125 2.28125,0 3.53125,1.5390625 1.25,1.5390625 1.25,4.3515626 0,2.890625 -1.460937,4.546875 -1.460938,1.648437 -4.007813,1.648437 -0.8203125,0 -1.5703125,-0.125 -0.75,-0.117187 -1.46875,-0.359375 z M 8.34375,12.826172 q 0.7890625,0 1.1875,-0.507813 0.3984375,-0.515625 0.3984375,-1.539062 0,-1.0156251 -0.3984375,-1.5312501 -0.3984375,-0.515625 -1.1875,-0.515625 -0.7890625,0 -1.1875,0.515625 -0.3984375,0.515625 -0.3984375,1.5312501 0,1.023437 0.3984375,1.539062 0.3984375,0.507813 1.1875,0.507813 z"
       inkscape:connector-curvature="0" />
  </g>
  <path
     style="fill:#00aad4;fill-opacity:1;stroke:#000000;stroke-width:0.05567733;stroke-opacity:0.02617804"
     d="m 2.3951545,3.6565564 0.221164,-0.0194 -0.01361,2.83503 -0.17372,0.39809 -0.03823,-0.17394 z"
     id="path825-0"
     inkscape:connector-curvature="0" />
  <path
     style="fill:#006680;fill-opacity:1;stroke:#000000;stroke-width:0.05567733;stroke-opacity:0.02617804"
     d="m 2.3951545,3.6565564 -0.181035,0.0314 -5.31e-4,2.89602 0.08784,0.14327 0.127564,0.14303 0.0042,-0.38634 -0.03804,-2.82739"
     id="path827-4"
     inkscape:connector-curvature="0" />
  <path
     style="fill:#c8ab37;fill-opacity:1;stroke:#000000;stroke-width:0.05567733;stroke-opacity:0.02617804"
     d="m 1.8244155,3.1364764 -0.143107,0.26234 0.112631,0.23355 0.42018,0.0556 0.181035,-0.0314 0.221164,-0.0194 0.411647,-0.0831 0.16268,-0.26087 -0.177548,-0.23543 -0.373482,0.077 -0.461257,0.0133 z"
     id="path829-44"
     inkscape:connector-curvature="0" />
  <ellipse
     style="fill:#c8ab37;fill-opacity:1;stroke:#000000;stroke-width:0.05711752;stroke-opacity:0.02617804"
     id="path833-4"
     cx="3.0503411"
     cy="-0.41915408"
     rx="0.23796096"
     ry="0.2482273"
     transform="matrix(0.73914738,0.67354372,-0.40967279,0.91223254,0,0)" />
  <path
     style="fill:#d40000;fill-opacity:1;stroke:#000000;stroke-width:0.05567733;stroke-opacity:0.02617804"
     d="m 2.6026985,1.8362164 -0.0084,1.29811 -0.398948,0.021 0.02421,-1.54075 0.02956,0.1681 0.08715,0.10901 0.09445,0.0557 0.09203,-0.0178 z"
     id="path835-76"
     inkscape:connector-curvature="0" />
  <path
     id="path4945-3"
     d="m 4.0618215,4.6659464 0.221163,0.0194 -0.01361,-2.83502 -0.173719,-0.39809 -0.03823,0.17394 z"
     style="fill:#00aad4;fill-opacity:1;stroke:#000000;stroke-width:0.05567733;stroke-opacity:0.02617804"
     inkscape:connector-curvature="0" />
  <path
     id="path4947-1"
     d="m 4.0618215,4.6659464 -0.181035,-0.0314 -5.31e-4,-2.89603 0.08784,-0.14326 0.127564,-0.14303 0.0042,0.38633 -0.03804,2.82739"
     style="fill:#006680;fill-opacity:1;stroke:#000000;stroke-width:0.05567733;stroke-opacity:0.02617804"
     inkscape:connector-curvature="0" />
  <path
     id="path4949-7"
     d="m 3.4910825,5.1860364 -0.143107,-0.26235 0.112631,-0.23355 0.42018,-0.0556 0.181035,0.0314 0.221163,0.0194 0.411647,0.0831 0.16268,0.26087 -0.177547,0.23542 -0.373482,-0.077 -0.461257,-0.0133 z"
     style="fill:#c8ab37;fill-opacity:1;stroke:#000000;stroke-width:0.05567733;stroke-opacity:0.02617804"
     inkscape:connector-curvature="0" />
  <ellipse
     transform="matrix(0.73914738,-0.67354372,-0.40967279,-0.91223254,0,0)"
     ry="0.2482273"
     rx="0.23796096"
     cy="-8.0744743"
     cx="1.0622375"
     id="ellipse4951-5"
     style="fill:#c8ab37;fill-opacity:1;stroke:#000000;stroke-width:0.05711752;stroke-opacity:0.02617804" />
  <path
     id="path4953-9"
     d="m 4.2693655,6.4862964 -0.0084,-1.29812 -0.398948,-0.021 0.02421,1.54074 0.02956,-0.16809 0.08715,-0.10901 0.09445,-0.0557 0.09203,0.0178 z"
     style="fill:#d40000;fill-opacity:1;stroke:#000000;stroke-width:0.05567733;stroke-opacity:0.02617804"
     inkscape:connector-curvature="0" />
  <path
     id="path4955-6"
     d="m 5.9747005,3.6565564 0.221163,-0.0194 -0.01361,2.83503 -0.173719,0.39809 -0.03823,-0.17394 z"
     style="fill:#00aad4;fill-opacity:1;stroke:#000000;stroke-width:0.05567733;stroke-opacity:0.02617804"
     inkscape:connector-curvature="0" />
  <path
     id="path4957-2"
     d="m 5.9747005,3.6565564 -0.181035,0.0314 -5.32e-4,2.89602 0.08784,0.14327 0.127565,0.14303 0.0042,-0.38634 -0.03804,-2.82739"
     style="fill:#006680;fill-opacity:1;stroke:#000000;stroke-width:0.05567733;stroke-opacity:0.02617804"
     inkscape:connector-curvature="0" />
  <path
     id="path4959-1"
     d="m 5.4039615,3.1364764 -0.143108,0.26234 0.112632,0.23355 0.42018,0.0556 0.181035,-0.0314 0.221163,-0.0194 0.411647,-0.0831 0.16268,-0.26087 -0.177548,-0.23543 -0.373482,0.077 -0.461257,0.0133 z"
     style="fill:#c8ab37;fill-opacity:1;stroke:#000000;stroke-width:0.05567733;stroke-opacity:0.02617804"
     inkscape:connector-curvature="0" />
  <ellipse
     transform="matrix(0.73914738,0.67354372,-0.40967279,0.91223254,0,0)"
     ry="0.2482273"
     rx="0.23796096"
     cy="-2.9564731"
     cx="6.4868417"
     id="ellipse4961-7"
     style="fill:#c8ab37;fill-opacity:1;stroke:#000000;stroke-width:0.05711752;stroke-opacity:0.02617804" />
  <path
     id="path4963-8"
     d="m 6.1822445,1.8362164 -0.0084,1.29811 -0.398948,0.021 0.02421,-1.54075 0.02956,0.1681 0.08715,0.10901 0.09445,0.0557 0.09203,-0.0178 z"
     style="fill:#d40000;fill-opacity:1;stroke:#000000;stroke-width:0.05567733;stroke-opacity:0.02617804"
     inkscape:connector-curvature="0" />
  <path
     style="fill:#00aad4;fill-opacity:1;stroke:#000000;stroke-width:0.05567733;stroke-opacity:0.02617804"
     d="m 7.6413665,4.6659464 0.221164,0.0194 -0.01361,-2.83502 -0.17372,-0.39809 -0.03823,0.17394 z"
     id="path4965-5"
     inkscape:connector-curvature="0" />
  <path
     style="fill:#006680;fill-opacity:1;stroke:#000000;stroke-width:0.05567733;stroke-opacity:0.02617804"
     d="m 7.6413665,4.6659464 -0.181035,-0.0314 -5e-4,-2.89603 0.08784,-0.14326 0.127565,-0.14303 0.0042,0.38633 -0.03804,2.82739"
     id="path4967-7"
     inkscape:connector-curvature="0" />
  <path
     style="fill:#c8ab37;fill-opacity:1;stroke:#000000;stroke-width:0.05567733;stroke-opacity:0.02617804"
     d="m 7.0706275,5.1860364 -0.143107,-0.26235 0.112631,-0.23355 0.42018,-0.0556 0.181035,0.0314 0.221164,0.0194 0.411647,0.0831 0.16268,0.26087 -0.177548,0.23542 -0.373482,-0.077 -0.461257,-0.0133 z"
     id="path4969-4"
     inkscape:connector-curvature="0" />
  <ellipse
     style="fill:#c8ab37;fill-opacity:1;stroke:#000000;stroke-width:0.05711752;stroke-opacity:0.02617804"
     id="ellipse4971-1"
     cx="4.4987307"
     cy="-10.611797"
     rx="0.23796096"
     ry="0.2482273"
     transform="matrix(0.73914738,-0.67354372,-0.40967279,-0.91223254,0,0)" />
  <path
     style="fill:#d40000;fill-opacity:1;stroke:#000000;stroke-width:0.05567733;stroke-opacity:0.02617804"
     d="m 7.8489105,6.4862964 -0.0084,-1.29812 -0.398948,-0.021 0.02421,1.54074 0.02956,-0.16809 0.08715,-0.10901 0.09445,-0.0557 0.09203,0.0178 z"
     id="path4973-8"
     inkscape:connector-curvature="0" />
  <path
     id="path4975-5"
     d="m 2.3951545,11.597766 0.221164,0.0194 -0.01361,-2.8350196 -0.17372,-0.39809 -0.03823,0.17393 z"
     style="fill:#00aad4;fill-opacity:1;stroke:#000000;stroke-width:0.05567733;stroke-opacity:0.02617804"
     inkscape:connector-curvature="0" />
  <path
     id="path4977-9"
     d="m 2.3951545,11.597766 -0.181035,-0.0314 -5.31e-4,-2.8960296 0.08784,-0.14327 0.127564,-0.14302 0.0042,0.38633 -0.03804,2.8273896"
     style="fill:#006680;fill-opacity:1;stroke:#000000;stroke-width:0.05567733;stroke-opacity:0.02617804"
     inkscape:connector-curvature="0" />
  <path
     id="path4979-7"
     d="m 1.8244155,12.117846 -0.143107,-0.26234 0.112631,-0.23355 0.42018,-0.0556 0.181035,0.0314 0.221164,0.0194 0.411647,0.0831 0.16268,0.26087 -0.177548,0.23543 -0.373482,-0.077 -0.461257,-0.0133 z"
     style="fill:#c8ab37;fill-opacity:1;stroke:#000000;stroke-width:0.05567733;stroke-opacity:0.02617804"
     inkscape:connector-curvature="0" />
  <ellipse
     transform="matrix(0.73914738,-0.67354372,-0.40967279,-0.91223254,0,0)"
     ry="0.2482273"
     rx="0.23796096"
     cy="-12.285198"
     cx="-3.5264161"
     id="ellipse4981-5"
     style="fill:#c8ab37;fill-opacity:1;stroke:#000000;stroke-width:0.05711752;stroke-opacity:0.02617804" />
  <path
     id="path4983-3"
     d="m 2.6026985,13.418116 -0.0084,-1.29812 -0.398948,-0.021 0.02421,1.54075 0.02956,-0.16809 0.08715,-0.10901 0.09445,-0.0557 0.09203,0.0178 z"
     style="fill:#d40000;fill-opacity:1;stroke:#000000;stroke-width:0.05567733;stroke-opacity:0.02617804"
     inkscape:connector-curvature="0" />
  <path
     style="fill:#00aad4;fill-opacity:1;stroke:#000000;stroke-width:0.05567733;stroke-opacity:0.02617804"
     d="m 4.0618215,10.588376 0.221163,-0.0194 -0.01361,2.83502 -0.173719,0.39809 -0.03823,-0.17393 z"
     id="path4985-8"
     inkscape:connector-curvature="0" />
  <path
     style="fill:#006680;fill-opacity:1;stroke:#000000;stroke-width:0.05567733;stroke-opacity:0.02617804"
     d="m 4.0618215,10.588376 -0.181035,0.0314 -5.31e-4,2.89602 0.08784,0.14327 0.127564,0.14302 0.0042,-0.38633 -0.03804,-2.82739"
     id="path4987-8"
     inkscape:connector-curvature="0" />
  <path
     style="fill:#c8ab37;fill-opacity:1;stroke:#000000;stroke-width:0.05567733;stroke-opacity:0.02617804"
     d="m 3.4910825,10.068296 -0.143107,0.26234 0.112631,0.23355 0.42018,0.0556 0.181035,-0.0314 0.221163,-0.0194 0.411647,-0.0831 0.16268,-0.26087 -0.177547,-0.2354296 -0.373482,0.077 -0.461257,0.0133 z"
     id="path4989-3"
     inkscape:connector-curvature="0" />
  <ellipse
     style="fill:#c8ab37;fill-opacity:1;stroke:#000000;stroke-width:0.05711752;stroke-opacity:0.02617804"
     id="ellipse4991-1"
     cx="7.6389871"
     cy="3.7915735"
     rx="0.23796096"
     ry="0.2482273"
     transform="matrix(0.73914738,0.67354372,-0.40967279,0.91223254,0,0)" />
  <path
     style="fill:#d40000;fill-opacity:1;stroke:#000000;stroke-width:0.05567733;stroke-opacity:0.02617804"
     d="m 4.2693655,8.7680264 -0.0084,1.2981196 -0.398948,0.021 0.02421,-1.5407496 0.02956,0.16809 0.08715,0.10901 0.09445,0.0557 0.09203,-0.0178 z"
     id="path4993-8"
     inkscape:connector-curvature="0" />
  <path
     style="fill:#00aad4;fill-opacity:1;stroke:#000000;stroke-width:0.05567733;stroke-opacity:0.02617804"
     d="m 5.9747005,11.597766 0.221163,0.0194 -0.01361,-2.8350196 -0.173719,-0.39809 -0.03823,0.17393 z"
     id="path4995-9"
     inkscape:connector-curvature="0" />
  <path
     style="fill:#006680;fill-opacity:1;stroke:#000000;stroke-width:0.05567733;stroke-opacity:0.02617804"
     d="m 5.9747005,11.597766 -0.181035,-0.0314 -5.32e-4,-2.8960296 0.08784,-0.14327 0.127565,-0.14302 0.0042,0.38633 -0.03804,2.8273896"
     id="path4997-6"
     inkscape:connector-curvature="0" />
  <path
     style="fill:#c8ab37;fill-opacity:1;stroke:#000000;stroke-width:0.05567733;stroke-opacity:0.02617804"
     d="m 5.4039615,12.117846 -0.143108,-0.26234 0.112632,-0.23355 0.42018,-0.0556 0.181035,0.0314 0.221163,0.0194 0.411647,0.0831 0.16268,0.26087 -0.177548,0.23543 -0.373482,-0.077 -0.461257,-0.0133 z"
     id="path4999-4"
     inkscape:connector-curvature="0" />
  <ellipse
     style="fill:#c8ab37;fill-opacity:1;stroke:#000000;stroke-width:0.05711752;stroke-opacity:0.02617804"
     id="ellipse5001-3"
     cx="-0.089923091"
     cy="-14.822521"
     rx="0.23796096"
     ry="0.2482273"
     transform="matrix(0.73914738,-0.67354372,-0.40967279,-0.91223254,0,0)" />
  <path
     style="fill:#d40000;fill-opacity:1;stroke:#000000;stroke-width:0.05567733;stroke-opacity:0.02617804"
     d="m 6.1822445,13.418116 -0.0084,-1.29812 -0.398948,-0.021 0.02421,1.54075 0.02956,-0.16809 0.08715,-0.10901 0.09445,-0.0557 0.09203,0.0178 z"
     id="path5003-3"
     inkscape:connector-curvature="0" />
  <path
     id="path5005-3"
     d="m 7.6413665,10.588376 0.221164,-0.0194 -0.01361,2.83502 -0.17372,0.39809 -0.03823,-0.17393 z"
     style="fill:#00aad4;fill-opacity:1;stroke:#000000;stroke-width:0.05567733;stroke-opacity:0.02617804"
     inkscape:connector-curvature="0" />
  <path
     id="path5007-8"
     d="m 7.6413665,10.588376 -0.181035,0.0314 -5e-4,2.89602 0.08784,0.14327 0.127565,0.14302 0.0042,-0.38633 -0.03804,-2.82739"
     style="fill:#006680;fill-opacity:1;stroke:#000000;stroke-width:0.05567733;stroke-opacity:0.02617804"
     inkscape:connector-curvature="0" />
  <path
     id="path5009-6"
     d="m 7.0706275,10.068296 -0.143107,0.26234 0.112631,0.23355 0.42018,0.0556 0.181035,-0.0314 0.221164,-0.0194 0.411647,-0.0831 0.16268,-0.26087 -0.177548,-0.2354296 -0.373482,0.077 -0.461257,0.0133 z"
     style="fill:#c8ab37;fill-opacity:1;stroke:#000000;stroke-width:0.05567733;stroke-opacity:0.02617804"
     inkscape:connector-curvature="0" />
  <ellipse
     transform="matrix(0.73914738,0.67354372,-0.40967279,0.91223254,0,0)"
     ry="0.2482273"
     rx="0.23796096"
     cy="1.2542543"
     cx="11.07548"
     id="ellipse5011-0"
     style="fill:#c8ab37;fill-opacity:1;stroke:#000000;stroke-width:0.05711752;stroke-opacity:0.02617804" />
  <path
     id="path5013-4"
     d="m 7.8489105,8.7680264 -0.0084,1.2981196 -0.398948,0.021 0.02421,-1.5407496 0.02956,0.16809 0.08715,0.10901 0.09445,0.0557 0.09203,-0.0178 z"
     style="fill:#d40000;fill-opacity:1;stroke:#000000;stroke-width:0.05567733;stroke-opacity:0.02617804"
     inkscape:connector-curvature="0" />
  <path
     style="fill:#00aad4;fill-opacity:1;stroke:#000000;stroke-width:0.04897262;stroke-opacity:0.02617804"
     d="m 4.3960965,7.6613564 -0.02078,-0.15626 3.104619,0.011 0.435595,0.12292 -0.190558,0.0269 z"
     id="path825-6-8"
     inkscape:connector-curvature="0" />
  <path
     style="fill:#006680;fill-opacity:1;stroke:#000000;stroke-width:0.04897262;stroke-opacity:0.02617804"
     d="m 4.3960965,7.6613564 0.03402,0.12791 3.171453,0.002 0.157072,-0.062 0.156891,-0.0901 -0.423066,-0.003 -3.096372,0.0255"
     id="path827-3-8"
     inkscape:connector-curvature="0" />
  <path
     style="fill:#c8ab37;fill-opacity:1;stroke:#000000;stroke-width:0.04897262;stroke-opacity:0.02617804"
     d="m 3.8253785,8.0643064 0.286998,0.10123 0.255995,-0.0795 0.06175,-0.29681 -0.03402,-0.12791 -0.02078,-0.15626 -0.09015,-0.29086 -0.285347,-0.11505 -0.258185,0.12532 0.08351,0.26389 0.01366,0.32587 z"
     id="path829-8-8"
     inkscape:connector-curvature="0" />
  <ellipse
     style="fill:#c8ab37;fill-opacity:1;stroke:#000000;stroke-width:0.05538984;stroke-opacity:0.02617804"
     id="path833-5-9"
     cx="-8.590539"
     cy="9.6224489"
     rx="0.215303"
     ry="0.25800419"
     transform="matrix(0.81690182,-0.57677675,0.96032588,0.27888026,0,0)" />
  <path
     style="fill:#d40000;fill-opacity:1;stroke:#000000;stroke-width:0.04897262;stroke-opacity:0.02617804"
     d="m 2.4030515,7.5138464 1.421559,0.007 0.02221,0.28186 -1.687232,-0.0179 0.184141,-0.0208 0.119558,-0.0615 0.0612,-0.0667 -0.01926,-0.065 z"
     id="path835-6-7"
     inkscape:connector-curvature="0" />
</svg>
