<?xml version="1.0" encoding="UTF-8" standalone="no"?>
<svg
   xmlns:dc="http://purl.org/dc/elements/1.1/"
   xmlns:cc="http://creativecommons.org/ns#"
   xmlns:rdf="http://www.w3.org/1999/02/22-rdf-syntax-ns#"
   xmlns:svg="http://www.w3.org/2000/svg"
   xmlns="http://www.w3.org/2000/svg"
   xmlns:xlink="http://www.w3.org/1999/xlink"
   xmlns:sodipodi="http://sodipodi.sourceforge.net/DTD/sodipodi-0.dtd"
   xmlns:inkscape="http://www.inkscape.org/namespaces/inkscape"
   viewBox="0 0 160 250"
   height="250"
   width="160"
   id="svg815"
   version="1.1"
   sodipodi:docname="swords07.svg"
   inkscape:version="0.92.5 (2060ec1f9f, 2020-04-08)">
  <sodipodi:namedview
     pagecolor="#ffffff"
     bordercolor="#666666"
     borderopacity="1"
     objecttolerance="10"
     gridtolerance="10"
     guidetolerance="10"
     inkscape:pageopacity="0"
     inkscape:pageshadow="2"
     inkscape:window-width="1918"
     inkscape:window-height="1017"
     id="namedview12042"
     showgrid="false"
     inkscape:zoom="12.391247"
     inkscape:cx="55"
     inkscape:cy="240.60606"
     inkscape:window-x="0"
     inkscape:window-y="0"
     inkscape:window-maximized="1"
     inkscape:current-layer="svg815"
     inkscape:snap-page="true"
     inkscape:snap-grids="true"
     inkscape:snap-to-guides="true" />
  <metadata
     id="metadata821">
    <rdf:RDF>
      <cc:Work
         rdf:about="">
        <dc:format>image/svg+xml</dc:format>
        <dc:type
           rdf:resource="http://purl.org/dc/dcmitype/StillImage" />
        <dc:title></dc:title>
      </cc:Work>
    </rdf:RDF>
  </metadata>
  <defs
     id="defs819">
    <linearGradient
       gradientTransform="matrix(0.0625,0,0,0.0625,89.999996,7.4115112e-6)"
       gradientUnits="userSpaceOnUse"
       y2="68.472336"
       x2="56.128345"
       y1="63.697319"
       x1="61.166279"
       id="linearGradient876"
       xlink:href="#linearGradient882" />
    <linearGradient
       id="linearGradient882">
      <stop
         style="stop-color:#d16208;stop-opacity:1"
         offset="0"
         id="stop878" />
      <stop
         style="stop-color:#d16250;stop-opacity:0;"
         offset="1"
         id="stop880" />
    </linearGradient>
    <linearGradient
       gradientTransform="matrix(0.0625,0,0,0.0625,89.999996,7.4115112e-6)"
       gradientUnits="userSpaceOnUse"
       y2="71.008263"
       x2="88.849586"
       y1="58.644627"
       x1="82.105782"
       id="linearGradient1063"
       xlink:href="#linearGradient882" />
    <linearGradient
       gradientTransform="matrix(0.0625,0,0,0.0625,110,0)"
       xlink:href="#linearGradient846"
       id="linearGradient848"
       x1="72.37397"
       y1="53.171356"
       x2="72.19931"
       y2="45.564011"
       gradientUnits="userSpaceOnUse" />
    <linearGradient
       id="linearGradient846">
      <stop
         style="stop-color:#423abf;stop-opacity:1;"
         offset="0"
         id="stop842" />
      <stop
         style="stop-color:#423abf;stop-opacity:0;"
         offset="1"
         id="stop844" />
    </linearGradient>
  </defs>
  <flowRoot
     transform="matrix(0.125,0,0,0.125,70,109.375)"
     xml:space="preserve"
     id="flowRoot100"
     style="font-style:normal;font-variant:normal;font-weight:bold;font-stretch:normal;font-size:16px;line-height:1.25;font-family:'DejaVu Sans';-inkscape-font-specification:'DejaVu Sans Bold';letter-spacing:0px;word-spacing:0px;fill:#000000;fill-opacity:1;stroke:none"><flowRegion
       id="flowRegion102"><rect
         id="rect104"
         width="24.242424"
         height="21.818182"
         x="10.606061"
         y="11.818182" /></flowRegion><flowPara
       id="flowPara106" /></flowRoot>  <flowRoot
     transform="matrix(0.0625,0,0,0.0625,9.9999996,7.0251474e-8)"
     xml:space="preserve"
     id="flowRoot100-6"
     style="font-style:normal;font-variant:normal;font-weight:bold;font-stretch:normal;font-size:16px;line-height:1.25;font-family:'DejaVu Sans';-inkscape-font-specification:'DejaVu Sans Bold';letter-spacing:0px;word-spacing:0px;fill:#000000;fill-opacity:1;stroke:none"><flowRegion
       id="flowRegion102-2"><rect
         id="rect104-9"
         width="24.242424"
         height="21.818182"
         x="10.606061"
         y="11.818182" /></flowRegion><flowPara
       id="flowPara106-1" /></flowRoot>  <flowRoot
     transform="matrix(0.0625,0,0,0.0625,20,1.5827638e-7)"
     xml:space="preserve"
     id="flowRoot100-2"
     style="font-style:normal;font-variant:normal;font-weight:bold;font-stretch:normal;font-size:16px;line-height:1.25;font-family:'DejaVu Sans';-inkscape-font-specification:'DejaVu Sans Bold';letter-spacing:0px;word-spacing:0px;fill:#000000;fill-opacity:1;stroke:none"><flowRegion
       id="flowRegion102-6"><rect
         id="rect104-1"
         width="24.242424"
         height="21.818182"
         x="10.606061"
         y="11.818182" /></flowRegion><flowPara
       id="flowPara106-8" /></flowRoot>  <flowRoot
     transform="matrix(0.0625,0,0,0.0625,30,7.89978e-8)"
     xml:space="preserve"
     id="flowRoot100-3"
     style="font-style:normal;font-variant:normal;font-weight:bold;font-stretch:normal;font-size:16px;line-height:1.25;font-family:'DejaVu Sans';-inkscape-font-specification:'DejaVu Sans Bold';letter-spacing:0px;word-spacing:0px;fill:#000000;fill-opacity:1;stroke:none"><flowRegion
       id="flowRegion102-61"><rect
         id="rect104-2"
         width="24.242424"
         height="21.818182"
         x="10.606061"
         y="11.818182" /></flowRegion><flowPara
       id="flowPara106-9" /></flowRoot>  <flowRoot
     transform="matrix(0.0625,0,0,0.0625,40,3.2385253e-7)"
     xml:space="preserve"
     id="flowRoot100-4"
     style="font-style:normal;font-variant:normal;font-weight:bold;font-stretch:normal;font-size:16px;line-height:1.25;font-family:'DejaVu Sans';-inkscape-font-specification:'DejaVu Sans Bold';letter-spacing:0px;word-spacing:0px;fill:#000000;fill-opacity:1;stroke:none"><flowRegion
       id="flowRegion102-7"><rect
         id="rect104-8"
         width="24.242424"
         height="21.818182"
         x="10.606061"
         y="11.818182" /></flowRegion><flowPara
       id="flowPara106-4" /></flowRoot>  <flowRoot
     transform="matrix(0.0625,0,0,0.0625,49.999999,2.2501831e-7)"
     xml:space="preserve"
     id="flowRoot100-0"
     style="font-style:normal;font-variant:normal;font-weight:bold;font-stretch:normal;font-size:16px;line-height:1.25;font-family:'DejaVu Sans';-inkscape-font-specification:'DejaVu Sans Bold';letter-spacing:0px;word-spacing:0px;fill:#000000;fill-opacity:1;stroke:none"><flowRegion
       id="flowRegion102-615"><rect
         id="rect104-5"
         width="24.242424"
         height="21.818182"
         x="10.606061"
         y="11.818182" /></flowRegion><flowPara
       id="flowPara106-47" /></flowRoot>  <rect
     style="fill:#ffffff;fill-opacity:1;stroke:#1a1a1a;stroke-width:0.0625;stroke-opacity:1"
     id="swords07"
     width="10"
     height="15.625"
     x="0.0030783208"
     y="0.030015022" />
  <flowRoot
     transform="matrix(0.0625,0,0,0.0625,59.999999,-4.8947157e-8)"
     xml:space="preserve"
     id="flowRoot100-9"
     style="font-style:normal;font-variant:normal;font-weight:bold;font-stretch:normal;font-size:16px;line-height:1.25;font-family:'DejaVu Sans';-inkscape-font-specification:'DejaVu Sans Bold';letter-spacing:0px;word-spacing:0px;fill:#000000;fill-opacity:1;stroke:none"><flowRegion
       id="flowRegion102-26"><rect
         id="rect104-6"
         width="24.242424"
         height="21.818182"
         x="10.606061"
         y="11.818182" /></flowRegion><flowPara
       id="flowPara106-49" /></flowRoot>  <rect
     style="fill:none;fill-opacity:1;stroke:#1a1a1a;stroke-width:0.0625;stroke-opacity:1"
     id="rect108-50"
     width="7.2537889"
     height="12.973484"
     x="1.3477747"
     y="1.3368387" />
  <g
     id="flowRoot915-4"
     style="font-style:normal;font-variant:normal;font-weight:bold;font-stretch:normal;font-size:16px;line-height:1.25;font-family:'DejaVu Sans';-inkscape-font-specification:'DejaVu Sans Bold';text-align:start;letter-spacing:0px;word-spacing:0px;text-anchor:start;fill:#000000;fill-opacity:1;stroke:none"
     transform="matrix(0.0625,0,0,0.0625,0.19247132,0.03001497)"
     aria-label="7">
    <path
       id="path301"
       d="M 4.1015625,7.0371094 H 12.890625 V 8.7324219 L 8.34375,18.701172 H 5.4140625 L 9.71875,9.2480469 H 4.1015625 Z"
       inkscape:connector-curvature="0" />
  </g>
  <path
     style="fill:#00aad4;fill-opacity:1;stroke:#000000;stroke-width:0.07153597;stroke-opacity:0.02617804"
     d="m 2.8482863,3.7713353 0.365095,-0.0194 -0.02246,2.83503 -0.286774,0.39809 -0.06311,-0.17394 z"
     id="path825-87"
     inkscape:connector-curvature="0" />
  <path
     style="fill:#006680;fill-opacity:1;stroke:#000000;stroke-width:0.07153597;stroke-opacity:0.02617804"
     d="m 2.8482863,3.7713353 -0.298851,0.0314 -8.82e-4,2.89602 0.145011,0.14327 0.210582,0.14303 0.0069,-0.38634 -0.0628,-2.82739"
     id="path827-1"
     inkscape:connector-curvature="0" />
  <path
     style="fill:#c8ab37;fill-opacity:1;stroke:#000000;stroke-width:0.07153597;stroke-opacity:0.02617804"
     d="m 1.9061153,3.2512553 -0.23624,0.26234 0.18593,0.23355 0.69363,0.0556 0.298851,-0.0314 0.365095,-0.0194 0.679543,-0.0831 0.268551,-0.26087 -0.293094,-0.23543 -0.616541,0.077 -0.761439,0.0133 z"
     id="path829-7"
     inkscape:connector-curvature="0" />
  <ellipse
     style="fill:#c8ab37;fill-opacity:1;stroke:#000000;stroke-width:0.07185667;stroke-opacity:0.02617804"
     id="path833-2"
     cx="3.4241934"
     cy="0.1645107"
     rx="0.3316544"
     ry="0.2818805"
     transform="matrix(0.87547387,0.48326546,-0.59554393,0.80332274,0,0)" />
  <path
     style="fill:#d40000;fill-opacity:1;stroke:#000000;stroke-width:0.07153597;stroke-opacity:0.02617804"
     d="m 3.1908983,1.9509952 -0.01391,1.2981101 -0.658579,0.021 0.03996,-1.5407501 0.04879,0.1681 0.143868,0.10901 0.155916,0.0557 0.151929,-0.0178 z"
     id="path835-72"
     inkscape:connector-curvature="0" />
  <path
     id="path4811-2"
     d="m 7.0907103,3.7713353 0.365095,-0.0194 -0.02246,2.83503 -0.286774,0.39809 -0.06311,-0.17394 z"
     style="fill:#00aad4;fill-opacity:1;stroke:#000000;stroke-width:0.07153597;stroke-opacity:0.02617804"
     inkscape:connector-curvature="0" />
  <path
     id="path4813-6"
     d="m 7.0907103,3.7713353 -0.298851,0.0314 -8.81e-4,2.89602 0.145011,0.14327 0.210582,0.14303 0.0069,-0.38634 -0.0628,-2.82739"
     style="fill:#006680;fill-opacity:1;stroke:#000000;stroke-width:0.07153597;stroke-opacity:0.02617804"
     inkscape:connector-curvature="0" />
  <path
     id="path4815-1"
     d="m 6.1485403,3.2512553 -0.236241,0.26234 0.185931,0.23355 0.693629,0.0556 0.298851,-0.0314 0.365095,-0.0194 0.679545,-0.0831 0.26855,-0.26087 -0.293094,-0.23543 -0.616542,0.077 -0.761439,0.0133 z"
     style="fill:#c8ab37;fill-opacity:1;stroke:#000000;stroke-width:0.07153597;stroke-opacity:0.02617804"
     inkscape:connector-curvature="0" />
  <ellipse
     transform="matrix(0.87547387,0.48326546,-0.59554393,0.80332274,0,0)"
     ry="0.2818805"
     rx="0.3316544"
     cy="-1.9041311"
     cx="6.8628688"
     id="ellipse4817-0"
     style="fill:#c8ab37;fill-opacity:1;stroke:#000000;stroke-width:0.07185667;stroke-opacity:0.02617804" />
  <path
     id="path4819-6"
     d="m 7.4333223,1.9509952 -0.01391,1.2981101 -0.658579,0.021 0.03996,-1.5407501 0.04879,0.1681 0.143868,0.10901 0.155917,0.0557 0.151928,-0.0178 z"
     style="fill:#d40000;fill-opacity:1;stroke:#000000;stroke-width:0.07153597;stroke-opacity:0.02617804"
     inkscape:connector-curvature="0" />
  <path
     style="fill:#00aad4;fill-opacity:1;stroke:#000000;stroke-width:0.07153597;stroke-opacity:0.02617804"
     d="m 7.0907103,11.886705 0.365095,0.0194 -0.02246,-2.8350298 -0.286774,-0.3980896 -0.06311,0.17394 z"
     id="path4821-1"
     inkscape:connector-curvature="0" />
  <path
     style="fill:#006680;fill-opacity:1;stroke:#000000;stroke-width:0.07153597;stroke-opacity:0.02617804"
     d="m 7.0907103,11.886705 -0.298851,-0.0314 -8.81e-4,-2.8960198 0.145011,-0.1432696 0.210582,-0.14303 0.0069,0.3863396 -0.0628,2.8273898"
     id="path4823-5"
     inkscape:connector-curvature="0" />
  <path
     style="fill:#c8ab37;fill-opacity:1;stroke:#000000;stroke-width:0.07153597;stroke-opacity:0.02617804"
     d="m 6.1485403,12.406785 -0.236241,-0.26234 0.185931,-0.23355 0.693629,-0.0556 0.298851,0.0314 0.365095,0.0194 0.679545,0.0831 0.26855,0.26087 -0.293094,0.23543 -0.616542,-0.077 -0.761439,-0.0133 z"
     id="path4825-9"
     inkscape:connector-curvature="0" />
  <ellipse
     style="fill:#c8ab37;fill-opacity:1;stroke:#000000;stroke-width:0.07185667;stroke-opacity:0.02617804"
     id="ellipse4827-4"
     cx="-2.5459893"
     cy="-15.735513"
     rx="0.3316544"
     ry="0.2818805"
     transform="matrix(0.87547387,-0.48326546,-0.59554393,-0.80332274,0,0)" />
  <path
     style="fill:#d40000;fill-opacity:1;stroke:#000000;stroke-width:0.07153597;stroke-opacity:0.02617804"
     d="m 7.4333223,13.707045 -0.01391,-1.29811 -0.658579,-0.021 0.03996,1.54075 0.04879,-0.1681 0.143868,-0.10901 0.155917,-0.0557 0.151928,0.0178 z"
     id="path4829-9"
     inkscape:connector-curvature="0" />
  <path
     id="path4831-0"
     d="m 2.7535893,11.886705 0.365095,0.0194 -0.02246,-2.8350298 -0.286774,-0.3980896 -0.06311,0.17394 z"
     style="fill:#00aad4;fill-opacity:1;stroke:#000000;stroke-width:0.07153597;stroke-opacity:0.02617804"
     inkscape:connector-curvature="0" />
  <path
     id="path4833-9"
     d="m 2.7535893,11.886705 -0.298851,-0.0314 -8.81e-4,-2.8960198 0.145011,-0.1432696 0.210582,-0.14303 0.0069,0.3863396 -0.0628,2.8273898"
     style="fill:#006680;fill-opacity:1;stroke:#000000;stroke-width:0.07153597;stroke-opacity:0.02617804"
     inkscape:connector-curvature="0" />
  <path
     id="path4835-1"
     d="m 1.8114183,12.406785 -0.23624,-0.26234 0.18593,-0.23355 0.69363,-0.0556 0.298851,0.0314 0.365095,0.0194 0.679544,0.0831 0.26855,0.26087 -0.293094,0.23543 -0.616541,-0.077 -0.761439,-0.0133 z"
     style="fill:#c8ab37;fill-opacity:1;stroke:#000000;stroke-width:0.07153597;stroke-opacity:0.02617804"
     inkscape:connector-curvature="0" />
  <ellipse
     transform="matrix(0.87547387,-0.48326546,-0.59554393,-0.80332274,0,0)"
     ry="0.2818805"
     rx="0.3316544"
     cy="-13.620706"
     cx="-6.0614038"
     id="ellipse4837-7"
     style="fill:#c8ab37;fill-opacity:1;stroke:#000000;stroke-width:0.07185667;stroke-opacity:0.02617804" />
  <path
     id="path4839-7"
     d="m 3.0962013,13.707045 -0.01391,-1.29811 -0.658579,-0.021 0.03996,1.54075 0.04879,-0.1681 0.143869,-0.10901 0.155916,-0.0557 0.151929,0.0178 z"
     style="fill:#d40000;fill-opacity:1;stroke:#000000;stroke-width:0.07153597;stroke-opacity:0.02617804"
     inkscape:connector-curvature="0" />
  <path
     style="fill:#00aad4;fill-opacity:1;stroke:#000000;stroke-width:0.07153597;stroke-opacity:0.02617804"
     d="m 4.8748013,4.7654953 0.3650946,0.0194 -0.02246,-2.8350201 -0.2867736,-0.39809 -0.06311,0.17394 z"
     id="path4841-1"
     inkscape:connector-curvature="0" />
  <path
     style="fill:#006680;fill-opacity:1;stroke:#000000;stroke-width:0.07153597;stroke-opacity:0.02617804"
     d="m 4.8748013,4.7654953 -0.298851,-0.0314 -8.81e-4,-2.8960301 0.14501,-0.14326 0.210582,-0.14303 0.0069,0.38633 -0.06279,2.8274001"
     id="path4843-1"
     inkscape:connector-curvature="0" />
  <path
     style="fill:#c8ab37;fill-opacity:1;stroke:#000000;stroke-width:0.07153597;stroke-opacity:0.02617804"
     d="m 3.9326313,5.2855753 -0.236241,-0.26234 0.185931,-0.23355 0.693629,-0.0556 0.298851,0.0314 0.3650946,0.0194 0.6795434,0.0831 0.268552,0.26087 -0.293095,0.23543 -0.6165424,-0.077 -0.7614376,-0.0133 z"
     id="path4845-5"
     inkscape:connector-curvature="0" />
  <ellipse
     style="fill:#c8ab37;fill-opacity:1;stroke:#000000;stroke-width:0.07185667;stroke-opacity:0.02617804"
     id="ellipse4847-9"
     cx="-0.062968656"
     cy="-8.3645687"
     rx="0.3316544"
     ry="0.2818805"
     transform="matrix(0.87547387,-0.48326546,-0.59554393,-0.80332274,0,0)" />
  <path
     style="fill:#d40000;fill-opacity:1;stroke:#000000;stroke-width:0.07153597;stroke-opacity:0.02617804"
     d="m 5.2174129,6.5858353 -0.01391,-1.29812 -0.6585786,-0.021 0.03996,1.54074 0.04879,-0.16809 0.143869,-0.10901 0.155916,-0.0557 0.151929,0.0178 z"
     id="path4849-7"
     inkscape:connector-curvature="0" />
  <path
     id="path4870-7"
     d="m 4.9505583,10.911485 0.3650946,-0.0194 -0.02246,2.83502 -0.2867746,0.39809 -0.06311,-0.17394 z"
     style="fill:#00aad4;fill-opacity:1;stroke:#000000;stroke-width:0.07153597;stroke-opacity:0.02617804"
     inkscape:connector-curvature="0" />
  <path
     id="path4872-6"
     d="m 4.9505583,10.911485 -0.29885,0.0314 -8.82e-4,2.89602 0.145011,0.14327 0.210582,0.14303 0.0069,-0.38634 -0.06279,-2.82739"
     style="fill:#006680;fill-opacity:1;stroke:#000000;stroke-width:0.07153597;stroke-opacity:0.02617804"
     inkscape:connector-curvature="0" />
  <path
     id="path4874-7"
     d="m 4.0083883,10.391405 -0.23624,0.26234 0.18593,0.23355 0.69363,0.0556 0.29885,-0.0314 0.3650946,-0.0194 0.6795444,-0.0831 0.268551,-0.26087 -0.293095,-0.23543 -0.6165414,0.077 -0.7614386,0.0133 z"
     style="fill:#c8ab37;fill-opacity:1;stroke:#000000;stroke-width:0.07153597;stroke-opacity:0.02617804"
     inkscape:connector-curvature="0" />
  <ellipse
     transform="matrix(0.87547387,0.48326546,-0.59554393,0.80332274,0,0)"
     ry="0.2818805"
     rx="0.3316544"
     cy="5.4466152"
     cx="9.4186697"
     id="ellipse4876-3"
     style="fill:#c8ab37;fill-opacity:1;stroke:#000000;stroke-width:0.07185667;stroke-opacity:0.02617804" />
  <path
     id="path4878-6"
     d="m 5.2931699,9.0911452 -0.01391,1.2981098 -0.6585796,0.021 0.03996,-1.5407494 0.04879,0.1680996 0.143869,0.1090097 0.155916,0.0557 0.151929,-0.0178 z"
     style="fill:#d40000;fill-opacity:1;stroke:#000000;stroke-width:0.07153597;stroke-opacity:0.02617804"
     inkscape:connector-curvature="0" />
  <path
     style="fill:#00aad4;fill-opacity:1;stroke:#000000;stroke-width:0.08019061;stroke-opacity:0.02617804"
     d="m 4.3883543,7.8779953 -0.0205,-0.40885 3.181714,0.0349 0.4458,0.32245 -0.195431,0.0701 z"
     id="path825-8"
     inkscape:connector-curvature="0" />
  <path
     style="fill:#006680;fill-opacity:1;stroke:#000000;stroke-width:0.08019061;stroke-opacity:0.02617804"
     d="m 4.3883543,7.8779953 0.03422,0.33471 3.250255,0.0109 0.161288,-0.16187 0.161246,-0.23528 -0.433564,-0.009 -3.173446,0.0606"
     id="path827-8"
     inkscape:connector-curvature="0" />
  <path
     style="fill:#c8ab37;fill-opacity:1;stroke:#000000;stroke-width:0.08019061;stroke-opacity:0.02617804"
     d="m 3.8014193,8.9310952 0.293619,0.2654097 0.262756,-0.2073797 0.06478,-0.7764199 -0.03422,-0.33471 -0.0205,-0.40885 -0.09092,-0.76113 -0.291857,-0.30157 -0.265233,0.32735 0.08426,0.69057 0.01236,0.85259 z"
     id="path829-5-5"
     inkscape:connector-curvature="0" />
  <ellipse
     style="fill:#c8ab37;fill-opacity:1;stroke:#000000;stroke-width:0.08053852;stroke-opacity:0.02617804"
     id="path833-0-6"
     cx="-5.0205541"
     cy="5.7413306"
     rx="0.37154514"
     ry="0.31609112"
     transform="matrix(0.48682963,-0.87349695,0.80217957,0.59708286,0,0)" />
  <path
     style="fill:#d40000;fill-opacity:1;stroke:#000000;stroke-width:0.08019061;stroke-opacity:0.02617804"
     d="m 2.3465273,7.4881453 1.456851,0.02 0.02133,0.73744 -1.729069,-0.05 0.188822,-0.0541 0.12284,-0.1607 0.06306,-0.17438 -0.01941,-0.17017 z"
     id="path835-9"
     inkscape:connector-curvature="0" />
  <flowRoot
     transform="matrix(0.0625,0,0,0.0625,69.999997,-1.8128662e-7)"
     xml:space="preserve"
     id="flowRoot100-48"
     style="font-style:normal;font-variant:normal;font-weight:bold;font-stretch:normal;font-size:16px;line-height:1.25;font-family:'DejaVu Sans';-inkscape-font-specification:'DejaVu Sans Bold';letter-spacing:0px;word-spacing:0px;fill:#000000;fill-opacity:1;stroke:none"><flowRegion
       id="flowRegion102-1"><rect
         id="rect104-29"
         width="24.242424"
         height="21.818182"
         x="10.606061"
         y="11.818182" /></flowRegion><flowPara
       id="flowPara106-3" /></flowRoot>  <flowRoot
     transform="matrix(0.0625,0,0,0.0625,79.999998,1.6533812e-7)"
     xml:space="preserve"
     id="flowRoot100-1"
     style="font-style:normal;font-variant:normal;font-weight:bold;font-stretch:normal;font-size:16px;line-height:1.25;font-family:'DejaVu Sans';-inkscape-font-specification:'DejaVu Sans Bold';letter-spacing:0px;word-spacing:0px;fill:#000000;fill-opacity:1;stroke:none"><flowRegion
       id="flowRegion102-15"><rect
         id="rect104-98"
         width="24.242424"
         height="21.818182"
         x="10.606061"
         y="11.818182" /></flowRegion><flowPara
       id="flowPara106-48" /></flowRoot></svg>
