<?xml version="1.0" encoding="UTF-8" standalone="no"?>
<svg
   xmlns:dc="http://purl.org/dc/elements/1.1/"
   xmlns:cc="http://creativecommons.org/ns#"
   xmlns:rdf="http://www.w3.org/1999/02/22-rdf-syntax-ns#"
   xmlns:svg="http://www.w3.org/2000/svg"
   xmlns="http://www.w3.org/2000/svg"
   xmlns:xlink="http://www.w3.org/1999/xlink"
   xmlns:sodipodi="http://sodipodi.sourceforge.net/DTD/sodipodi-0.dtd"
   xmlns:inkscape="http://www.inkscape.org/namespaces/inkscape"
   viewBox="0 0 160 250"
   height="250"
   width="160"
   id="svg815"
   version="1.1"
   sodipodi:docname="swords11.svg"
   inkscape:version="0.92.5 (2060ec1f9f, 2020-04-08)">
  <sodipodi:namedview
     pagecolor="#ffffff"
     bordercolor="#666666"
     borderopacity="1"
     objecttolerance="10"
     gridtolerance="10"
     guidetolerance="10"
     inkscape:pageopacity="0"
     inkscape:pageshadow="2"
     inkscape:window-width="1918"
     inkscape:window-height="1017"
     id="namedview12042"
     showgrid="false"
     inkscape:zoom="37.242789"
     inkscape:cx="6.1411316"
     inkscape:cy="241.80706"
     inkscape:window-x="0"
     inkscape:window-y="0"
     inkscape:window-maximized="1"
     inkscape:current-layer="svg815"
     inkscape:snap-page="true" />
  <metadata
     id="metadata821">
    <rdf:RDF>
      <cc:Work
         rdf:about="">
        <dc:format>image/svg+xml</dc:format>
        <dc:type
           rdf:resource="http://purl.org/dc/dcmitype/StillImage" />
        <dc:title></dc:title>
      </cc:Work>
    </rdf:RDF>
  </metadata>
  <defs
     id="defs819">
    <linearGradient
       gradientTransform="matrix(0.0625,0,0,0.0625,89.999996,7.4115112e-6)"
       gradientUnits="userSpaceOnUse"
       y2="68.472336"
       x2="56.128345"
       y1="63.697319"
       x1="61.166279"
       id="linearGradient876"
       xlink:href="#linearGradient882" />
    <linearGradient
       id="linearGradient882">
      <stop
         style="stop-color:#d16208;stop-opacity:1"
         offset="0"
         id="stop878" />
      <stop
         style="stop-color:#d16250;stop-opacity:0;"
         offset="1"
         id="stop880" />
    </linearGradient>
    <linearGradient
       gradientTransform="matrix(0.0625,0,0,0.0625,89.999996,7.4115112e-6)"
       gradientUnits="userSpaceOnUse"
       y2="71.008263"
       x2="88.849586"
       y1="58.644627"
       x1="82.105782"
       id="linearGradient1063"
       xlink:href="#linearGradient882" />
    <linearGradient
       gradientTransform="matrix(0.0625,0,0,0.0625,110,0)"
       xlink:href="#linearGradient846"
       id="linearGradient848"
       x1="72.37397"
       y1="53.171356"
       x2="72.19931"
       y2="45.564011"
       gradientUnits="userSpaceOnUse" />
    <linearGradient
       id="linearGradient846">
      <stop
         style="stop-color:#423abf;stop-opacity:1;"
         offset="0"
         id="stop842" />
      <stop
         style="stop-color:#423abf;stop-opacity:0;"
         offset="1"
         id="stop844" />
    </linearGradient>
  </defs>
  <flowRoot
     transform="matrix(0.125,0,0,0.125,70,109.375)"
     xml:space="preserve"
     id="flowRoot100"
     style="font-style:normal;font-variant:normal;font-weight:bold;font-stretch:normal;font-size:16px;line-height:1.25;font-family:'DejaVu Sans';-inkscape-font-specification:'DejaVu Sans Bold';letter-spacing:0px;word-spacing:0px;fill:#000000;fill-opacity:1;stroke:none"><flowRegion
       id="flowRegion102"><rect
         id="rect104"
         width="24.242424"
         height="21.818182"
         x="10.606061"
         y="11.818182" /></flowRegion><flowPara
       id="flowPara106" /></flowRoot>  <flowRoot
     transform="matrix(0.0625,0,0,0.0625,9.9999996,7.0251474e-8)"
     xml:space="preserve"
     id="flowRoot100-6"
     style="font-style:normal;font-variant:normal;font-weight:bold;font-stretch:normal;font-size:16px;line-height:1.25;font-family:'DejaVu Sans';-inkscape-font-specification:'DejaVu Sans Bold';letter-spacing:0px;word-spacing:0px;fill:#000000;fill-opacity:1;stroke:none"><flowRegion
       id="flowRegion102-2"><rect
         id="rect104-9"
         width="24.242424"
         height="21.818182"
         x="10.606061"
         y="11.818182" /></flowRegion><flowPara
       id="flowPara106-1" /></flowRoot>  <flowRoot
     transform="matrix(0.0625,0,0,0.0625,20,1.5827638e-7)"
     xml:space="preserve"
     id="flowRoot100-2"
     style="font-style:normal;font-variant:normal;font-weight:bold;font-stretch:normal;font-size:16px;line-height:1.25;font-family:'DejaVu Sans';-inkscape-font-specification:'DejaVu Sans Bold';letter-spacing:0px;word-spacing:0px;fill:#000000;fill-opacity:1;stroke:none"><flowRegion
       id="flowRegion102-6"><rect
         id="rect104-1"
         width="24.242424"
         height="21.818182"
         x="10.606061"
         y="11.818182" /></flowRegion><flowPara
       id="flowPara106-8" /></flowRoot>  <flowRoot
     transform="matrix(0.0625,0,0,0.0625,30,7.89978e-8)"
     xml:space="preserve"
     id="flowRoot100-3"
     style="font-style:normal;font-variant:normal;font-weight:bold;font-stretch:normal;font-size:16px;line-height:1.25;font-family:'DejaVu Sans';-inkscape-font-specification:'DejaVu Sans Bold';letter-spacing:0px;word-spacing:0px;fill:#000000;fill-opacity:1;stroke:none"><flowRegion
       id="flowRegion102-61"><rect
         id="rect104-2"
         width="24.242424"
         height="21.818182"
         x="10.606061"
         y="11.818182" /></flowRegion><flowPara
       id="flowPara106-9" /></flowRoot>  <flowRoot
     transform="matrix(0.0625,0,0,0.0625,40,3.2385253e-7)"
     xml:space="preserve"
     id="flowRoot100-4"
     style="font-style:normal;font-variant:normal;font-weight:bold;font-stretch:normal;font-size:16px;line-height:1.25;font-family:'DejaVu Sans';-inkscape-font-specification:'DejaVu Sans Bold';letter-spacing:0px;word-spacing:0px;fill:#000000;fill-opacity:1;stroke:none"><flowRegion
       id="flowRegion102-7"><rect
         id="rect104-8"
         width="24.242424"
         height="21.818182"
         x="10.606061"
         y="11.818182" /></flowRegion><flowPara
       id="flowPara106-4" /></flowRoot>  <flowRoot
     transform="matrix(0.0625,0,0,0.0625,49.999999,2.2501831e-7)"
     xml:space="preserve"
     id="flowRoot100-0"
     style="font-style:normal;font-variant:normal;font-weight:bold;font-stretch:normal;font-size:16px;line-height:1.25;font-family:'DejaVu Sans';-inkscape-font-specification:'DejaVu Sans Bold';letter-spacing:0px;word-spacing:0px;fill:#000000;fill-opacity:1;stroke:none"><flowRegion
       id="flowRegion102-615"><rect
         id="rect104-5"
         width="24.242424"
         height="21.818182"
         x="10.606061"
         y="11.818182" /></flowRegion><flowPara
       id="flowPara106-47" /></flowRoot>  <flowRoot
     transform="matrix(0.0625,0,0,0.0625,59.999999,-4.8947157e-8)"
     xml:space="preserve"
     id="flowRoot100-9"
     style="font-style:normal;font-variant:normal;font-weight:bold;font-stretch:normal;font-size:16px;line-height:1.25;font-family:'DejaVu Sans';-inkscape-font-specification:'DejaVu Sans Bold';letter-spacing:0px;word-spacing:0px;fill:#000000;fill-opacity:1;stroke:none"><flowRegion
       id="flowRegion102-26"><rect
         id="rect104-6"
         width="24.242424"
         height="21.818182"
         x="10.606061"
         y="11.818182" /></flowRegion><flowPara
       id="flowPara106-49" /></flowRoot>  <flowRoot
     transform="matrix(0.0625,0,0,0.0625,69.999997,-1.8128662e-7)"
     xml:space="preserve"
     id="flowRoot100-48"
     style="font-style:normal;font-variant:normal;font-weight:bold;font-stretch:normal;font-size:16px;line-height:1.25;font-family:'DejaVu Sans';-inkscape-font-specification:'DejaVu Sans Bold';letter-spacing:0px;word-spacing:0px;fill:#000000;fill-opacity:1;stroke:none"><flowRegion
       id="flowRegion102-1"><rect
         id="rect104-29"
         width="24.242424"
         height="21.818182"
         x="10.606061"
         y="11.818182" /></flowRegion><flowPara
       id="flowPara106-3" /></flowRoot>  <flowRoot
     transform="matrix(0.0625,0,0,0.0625,79.999998,1.6533812e-7)"
     xml:space="preserve"
     id="flowRoot100-1"
     style="font-style:normal;font-variant:normal;font-weight:bold;font-stretch:normal;font-size:16px;line-height:1.25;font-family:'DejaVu Sans';-inkscape-font-specification:'DejaVu Sans Bold';letter-spacing:0px;word-spacing:0px;fill:#000000;fill-opacity:1;stroke:none"><flowRegion
       id="flowRegion102-15"><rect
         id="rect104-98"
         width="24.242424"
         height="21.818182"
         x="10.606061"
         y="11.818182" /></flowRegion><flowPara
       id="flowPara106-48" /></flowRoot>  <rect
     style="fill:#ffffff;fill-opacity:1;stroke:#1a1a1a;stroke-width:0.0625;stroke-opacity:1"
     id="swords11"
     width="10"
     height="15.625"
     x="0.029555457"
     y="0.037750743" />
  <rect
     style="fill:none;fill-opacity:1;stroke:#1a1a1a;stroke-width:0.0625;stroke-opacity:1"
     id="rect108-77"
     width="7.2537889"
     height="12.973484"
     x="1.3742591"
     y="1.3445745" />
  <g
     id="flowRoot915-54"
     style="font-style:normal;font-variant:normal;font-weight:bold;font-stretch:normal;font-size:16px;line-height:1.25;font-family:'DejaVu Sans';-inkscape-font-specification:'DejaVu Sans Bold';text-align:start;letter-spacing:0px;word-spacing:0px;text-anchor:start;fill:#000000;fill-opacity:1;stroke:none"
     transform="matrix(0.0625,0,0,0.0625,0.2189456,0.03775079)"
     aria-label="11">
    <path
       id="path582"
       d="M 4.90625,16.623047 H 7.5625 V 9.0839844 l -2.7265625,0.5625 v -2.046875 l 2.7109375,-0.5625 h 2.859375 v 9.5859376 h 2.65625 v 2.078125 H 4.90625 Z"
       inkscape:connector-curvature="0" />
    <path
       id="path584"
       d="m 16.039062,16.623047 h 2.65625 V 9.0839844 l -2.726562,0.5625 v -2.046875 l 2.710937,-0.5625 h 2.859375 v 9.5859376 h 2.65625 v 2.078125 h -8.15625 z"
       inkscape:connector-curvature="0" />
  </g>
  <path
     style="fill:#df6a64;fill-opacity:1;stroke:#000000;stroke-width:0.05652938;stroke-opacity:0"
     d="m 3.2106156,4.5347913 -0.0989,-0.0258 -0.10745,-0.0602 v -0.0602 l 0.0215,-0.11605 0.0473,-0.0688 0.15903,-0.0817 0.12465,-0.0817 0.10315,-0.0645 0.0731,-0.0258 0.0817,-0.0344 0.0473,-0.0559 0.0688,-0.0731 0.043,-0.0645 0.086,-0.0688 0.11175,-0.0774 0.0946,-0.0645 0.10745,-0.0387 0.12895,-0.043 h 0.12894 l 0.15473,0.004 0.12465,0.0559 0.10745,0.0344 0.0473,0.0516 0.10745,0.10316 0.043,0.0645 0.0387,0.14184 -0.0172,0.11175 -0.0473,0.0559 -0.0559,0.0559 -0.086,0.0344 -0.0731,0.0215 h -0.0516 l -0.0559,-0.0602 -0.0473,-0.0903 -0.086,-0.0989 -0.10745,-0.0301 h -0.12895 l -0.2106,-0.004 -0.13324,0.0473 -0.13324,0.10745 -0.0387,0.0301 -0.0602,0.0473 -0.10746,0.10315 -0.10315,0.0817 -0.0602,0.0688 -0.0817,0.0645 -0.0602,0.0602 z"
     id="path879"
     inkscape:connector-curvature="0" />
  <path
     style="fill:#659c5e;fill-opacity:1;stroke:#bc0033;stroke-width:0.05652938;stroke-opacity:0.38219898"
     d="m 3.6146356,3.9158613 -0.0903,-0.086 -0.0903,-0.043 -0.11605,-0.0817 -0.12464,-0.0215 -0.17192,0.0301 -0.009,0.0559 -0.0645,0.0688 -0.0989,0.0172 -0.16763,0.004 -0.0731,-0.0387 -0.0903,-0.0602 -0.0688,-0.0473 -0.0172,-0.11605 0.004,-0.10315 0.0903,-0.0946 0.0645,-0.0946 0.12464,-0.0688 0.086,-0.0645 0.13754,-0.0516 h 0.16333 l 0.11605,0.0129 0.13754,0.0731 0.10745,0.0559 0.10316,0.0688 0.0688,0.0946 0.0172,0.0602 0.12894,-0.0473 0.0946,-0.043 0.0989,-0.0645 0.10315,-0.0172 0.0903,0.0172 0.0516,0.0215 0.0817,0.0774 -0.23639,0.0817 -0.20631,0.14184 -0.12894,0.13324 z"
     id="path889"
     inkscape:connector-curvature="0" />
  <path
     style="fill:#deb392;fill-opacity:0.66492148;stroke:#000000;stroke-width:0.05652938;stroke-opacity:0"
     d="m 4.0874256,3.8814813 -0.13324,0.0473 -0.14183,0.11175 -0.004,0.17622 0.0129,0.21061 -0.009,0.12464 0.0129,0.0903 0.0258,0.0774 0.0774,0.0129 0.0301,0.0344 0.0301,0.0344 -0.0172,0.0387 v 0.0731 l 0.0688,0.043 0.12034,0.009 0.11605,0.0172 0.10745,-0.0129 0.0903,-0.0215 0.0301,-0.0215 0.004,-0.0559 -0.0172,-0.0387 0.0301,-0.0172 0.086,-0.0344 0.0129,-0.0817 -0.009,-0.10316 0.009,-0.0344 0.0258,-0.0559 0.0129,-0.0774 -0.0129,-0.0602 -0.0301,-0.0559 -0.0172,-0.0516 v -0.0602 -0.0946 -0.0473 l 0.0215,-0.043 -0.086,-0.0989 -0.10745,-0.0301 z"
     id="path907"
     inkscape:connector-curvature="0" />
  <path
     style="fill:#3c3833;fill-opacity:1;stroke:#000000;stroke-width:0.05652938;stroke-opacity:0"
     d="m 4.0100656,4.0834913 0.0688,-0.0344 h 0.0903 l 0.0731,0.0215"
     id="path909"
     inkscape:connector-curvature="0" />
  <path
     style="fill:#3c3833;fill-opacity:1;stroke:#000000;stroke-width:0.05652938;stroke-opacity:0"
     d="m 4.3797056,4.0748913 0.0344,-0.0387 0.12034,-0.004"
     id="path911"
     inkscape:connector-curvature="0" />
  <path
     style="fill:#cba483;fill-opacity:1;stroke:#000000;stroke-width:0.05652938;stroke-opacity:0"
     d="m 4.0143656,4.1737513 0.0903,-0.0344 h 0.0516 l 0.043,0.009 0.0215,0.0172 -0.0301,0.0215 -0.0602,0.004 h -0.0516 z"
     id="path913"
     inkscape:connector-curvature="0" />
  <path
     style="fill:#cba483;fill-opacity:1;stroke:#000000;stroke-width:0.05652938;stroke-opacity:0"
     d="m 4.4441756,4.1866413 0.0473,0.004 0.0387,-0.004 0.043,-0.0215 0.0129,-0.0258 -0.0774,-0.0172 -0.0688,0.004 -0.0473,0.0301 z"
     id="path915"
     inkscape:connector-curvature="0" />
  <path
     style="fill:#f0bf92;fill-opacity:0.6701571;stroke:#000000;stroke-width:0.05652938;stroke-opacity:0"
     d="m 4.3109356,4.1350713 0.0172,0.0774 0.0387,0.0258 0.0215,0.0301 0.0473,0.0688 v 0.0387 l -0.0645,0.0258 -0.0645,-0.0258 -0.0473,-0.004 0.004,-0.0301"
     id="path917"
     inkscape:connector-curvature="0" />
  <path
     style="fill:#f0bf92;fill-opacity:0.6701571;stroke:#000000;stroke-width:0.05652938;stroke-opacity:0"
     d="m 4.1132156,4.5777713 0.0817,-0.004 0.0688,-0.0559 0.043,-0.0172 0.0559,-0.004 h 0.0731 l 0.0258,0.0215 0.0387,0.0258 0.0301,0.0215 h 0.0301"
     id="path919"
     inkscape:connector-curvature="0" />
  <path
     style="fill:#3c3833;fill-opacity:1;stroke:#000000;stroke-width:0.05652938;stroke-opacity:0"
     d="m 3.8123556,4.5519813 -0.13324,-0.0258 -0.0516,0.0344 -0.0559,0.0258 -0.11176,-0.0215 -0.13324,-0.0258 -0.11604,-0.004 0.15902,-0.10315 0.0817,-0.0645 0.0602,-0.0688 0.10316,-0.0817 0.10745,-0.10315 0.0903,-0.0731 -0.004,0.17622 0.0172,0.14184 -0.004,0.0688 z"
     id="path921"
     inkscape:connector-curvature="0" />
  <path
     style="fill:#3c3833;fill-opacity:1;stroke:#000000;stroke-width:0.05652938;stroke-opacity:0"
     d="m 4.5903056,4.6551413 -0.0688,0.15903 -0.0172,0.11175 0.15044,-0.0129 0.15903,0.0817 0.12464,-0.0129 0.13324,-0.0516 0.10745,-0.0688 0.0387,-0.12035 -0.0559,-0.13754 -0.19771,-0.10745 -0.0989,-0.16763 -0.0172,-0.18482 -0.12464,0.0215 -0.0559,-0.0602 -0.0473,-0.0903 -0.0215,0.043 -0.009,0.15903 0.009,0.043 0.0172,0.0516 0.0301,0.0559 0.0129,0.0602 -0.0129,0.0774 z"
     id="path923"
     inkscape:connector-curvature="0" />
  <path
     style="fill:#df6a64;fill-opacity:1;stroke:#bc0033;stroke-width:0.05652938;stroke-opacity:0.38219898"
     d="m 3.5716556,4.5863713 -0.0688,0.0602 -0.0602,0.0344 -0.0516,0.0172 -0.0344,0.0301 -0.0344,0.0344 -0.0387,0.0387 v 0.0559 0.11175 l 0.0387,0.0688 0.0946,-0.004 0.15044,-0.0602 0.0903,-0.0301 0.10315,-0.043 0.0645,-0.0129 h 0.0473 l 0.043,0.004 0.0559,0.0215 0.0172,-0.11175 -0.0602,-0.0688 -0.0774,-0.0129 -0.0258,-0.0774 -0.0129,-0.0903 -0.0903,-0.0473 -0.043,0.0215 z"
     id="path925"
     inkscape:connector-curvature="0" />
  <path
     style="fill:#659c5e;fill-opacity:1;stroke:#bc0033;stroke-width:0.05652938;stroke-opacity:0.38219898"
     d="m 3.4169256,5.0333713 0.034,0.0534 0.0698,0.0133 0.0831,0.0266 0.003,0.0664 0.0133,0.0665 0.0731,0.0864 0.0764,0.0698 0.0897,0.0897 0.11296,0.0997 0.0598,0.0299 0.12624,0.0199 0.0698,-0.0365 0.0831,-0.0532 0.0465,-0.0598 0.0332,-0.0498 0.0332,-0.0565 0.0166,-0.0565 0.0299,-0.0399 0.0299,-0.0133 0.0498,0.01 0.0864,0.0299 0.093,0.0399 0.0864,0.0332 0.0698,0.01 h 0.0764 l 0.0764,-0.0299 0.0897,-0.0997 0.0432,-0.0465 0.0199,-0.0565 0.0233,-0.0598 0.0233,-0.0399 0.0498,-0.0299 0.10299,-0.0299 0.0797,0.0133 0.0764,0.01 -0.0266,-0.0565 -0.0997,-0.0432 -0.0997,-0.0399 -0.14221,-0.0426 v 0 l -0.10746,0.0688 -0.13324,0.0516 -0.12464,0.0129 -0.15903,-0.0817 -0.15044,0.0129 -0.0301,0.0215 -0.0903,0.0215 -0.10745,0.0129 -0.11605,-0.0172 -0.12034,-0.009 -0.12465,-0.0645 -0.0903,-0.004 -0.0645,0.0129 -0.10315,0.043 z"
     id="path927-8"
     inkscape:connector-curvature="0" />
  <path
     style="fill:#eac86e;fill-opacity:1;stroke:#bc0033;stroke-width:0.05652938;stroke-opacity:0.38219898"
     d="m 3.4169256,5.0333713 -0.0946,0.004 -0.0606,0.0364 -0.12624,0.0355 -0.0986,0.0474 -0.11836,0.0473 -0.0552,0.0592 -0.0868,0.0986 -0.0907,0.0986 -0.071,0.11835 -0.0276,0.13019 -0.008,0.11836 0.0316,0.0789 0.0434,0.0947 -0.0197,0.0631 v 0.0473 l 0.13808,0.0197 0.0671,-0.0118 h 0.11047 0.0868 l 0.0671,0.0316 0.071,0.0513 0.0552,0.0434 0.071,0.0631 0.0395,0.0473 0.0355,-0.0671 v -0.0671 l -0.008,-0.075 -0.0118,-0.0868 0.0355,-0.0473 0.0789,-0.008 0.075,-0.0434 0.12624,-0.0513 0.0473,-0.0473 0.0434,-0.0118 h 0.0395 l 0.008,-0.10258 0.0552,-0.0592 0.008,-0.0552 -0.0118,-0.0907 -0.24107,-0.28405 -0.0133,-0.0665 -0.003,-0.0664 -0.0831,-0.0266 -0.0698,-0.0133 z"
     id="path929-1"
     inkscape:connector-curvature="0" />
  <path
     style="fill:#d5635e;fill-opacity:1;stroke:#bc0033;stroke-width:0.05652938;stroke-opacity:0.38219898"
     d="m 2.6345256,6.1116513 -0.0316,0.1223 -0.0592,0.12625 -0.0158,0.0828 v 0.17359 l -0.008,0.11046 0.0316,0.0907 0.16175,0.075 0.14203,0.071 0.11046,0.0592 0.0947,0.0237 0.071,0.0552 0.0355,-0.0118 -0.0158,-0.0789 0.0118,-0.0947 0.0197,-0.071 0.0592,-0.071 0.0434,-0.0237 0.0671,-0.0197 0.0395,-0.0158 0.0434,-0.0276 0.0513,-0.0276 0.0197,-0.0631 -0.0947,-0.0789 -0.1223,-0.0237 -0.0355,-0.0592 0.008,-0.0434 v -0.071 l 0.0394,-0.0118 -0.26432,-0.18937 -0.26433,0.0118 z"
     id="path931"
     inkscape:connector-curvature="0" />
  <path
     style="fill:#ecc771;fill-opacity:1;stroke:#bc0033;stroke-width:0.05652938;stroke-opacity:0.38219898"
     d="m 3.1671156,7.0900413 0.0789,0.008 0.11046,-0.0118 0.0868,0.0118 0.0868,-0.0118 h 0.0986 0.0671 l 0.0316,0.0158 0.071,0.0434 0.0434,-0.008 0.008,-0.0789 -0.0237,-0.0316 -0.0355,-0.11835 0.008,-0.13414 v -0.0592 l 0.0473,-0.0434 -0.0631,-0.0316 -0.11046,0.0237 -0.071,-0.008 -0.0631,-0.0237 -0.0316,-0.0355 -0.071,0.0907 -0.14991,0.0631 -0.10258,0.0947 -0.0316,0.16569 z"
     id="path933"
     inkscape:connector-curvature="0" />
  <path
     style="fill:#eac86e;fill-opacity:1;stroke:#bc0033;stroke-width:0.05652938;stroke-opacity:0.13089007"
     d="m 5.5472656,5.0435713 0.0394,0.0619 0.0477,0.0136 0.0579,0.10896 v 0.0953 0.0715 l 0.0375,0.0817 0.0204,0.0647 -0.0409,0.0988 -0.0749,0.0647 -0.0545,0.0375 -0.0307,0.034 -0.0443,-0.0204 -0.0715,-0.0545 -0.0953,-0.10897 -0.0613,-0.0613 -0.0477,-0.0954 -0.0443,-0.0681 -0.0136,-0.0681 6.7e-4,-0.0634 0.0664,-0.15614 0.0498,-0.0299 0.10299,-0.0299 z"
     id="path935"
     inkscape:connector-curvature="0" />
  <path
     style="fill:#dfba9b;fill-opacity:1;stroke:#bc0033;stroke-width:0.05652938;stroke-opacity:0.13089007"
     d="m 3.8456756,6.6718613 0.10644,0.0341 h 0.0409 l 0.0545,-0.0238 0.0749,-0.0102 h 0.0613 0.0613 l 0.0715,0.0238 0.0272,0.0102 0.0443,0.0545 0.0306,0.0545 v 0.0477 l -0.003,0.0477 -0.017,0.0545 -0.0102,0.0306 -0.0341,0.0409 -0.11238,0.0238 -0.12599,0.0102 -0.13621,0.007 -0.0715,0.0102 -0.0661,0.05 0.008,-0.0789 -0.0592,-0.14991 0.008,-0.19331 z"
     id="path937"
     inkscape:connector-curvature="0" />
  <path
     style="fill:#dfba9b;fill-opacity:1;stroke:#bc0033;stroke-width:0.05652938;stroke-opacity:0.13089007"
     d="m 5.1780056,6.4131413 -0.13961,-0.0136 -0.0919,0.0136 -0.11578,0.0204 -0.0443,0.034 -0.0681,0.0579 0.017,0.0749 0.0102,0.10216 v 0.0375 l 0.0409,0.0375 0.0545,0.0272 0.11237,-0.0136 0.0681,-0.0204 0.0545,-0.0136 0.0715,-0.0579 0.0409,-0.0681 0.0102,-0.0851 v -0.0545 l 0.0136,-0.0579 z"
     id="path939"
     inkscape:connector-curvature="0" />
  <path
     style="fill:#d5635e;fill-opacity:1;stroke:#bc0033;stroke-width:0.05652938;stroke-opacity:0.13089007"
     d="m 3.3564856,6.0603713 0.0917,0.16208 0.0715,0.15664 0.0511,0.0613 0.0443,0.0511 0.0919,0.0749 0.0756,0.0739 0.16955,0.0657 0.0954,-0.0238 0.0749,-0.0102 h 0.12259 l 0.0987,0.0341 0.0749,0.10896 v 0.0477 l -0.003,0.0477 -0.0272,0.0851 -0.034,0.0409 -0.11237,0.0238 -0.11237,0.017 h -0.14985 l -0.0715,0.0102 -0.0661,0.05 v 0 l -0.0395,0.0488 -0.11578,-0.0647 -0.0341,0.0511 -0.0272,0.0749 -0.0409,0.0715 -0.0272,0.0375 -0.0238,0.0851 0.007,0.0545 0.0613,0.003 0.15664,-0.0204 0.13281,-0.0238 0.19069,-0.0272 0.14643,-0.0204 0.12259,-0.0204 0.0919,-0.0306 0.0987,-0.0477 0.0681,-0.0443 0.0919,-0.0409 0.0375,-0.0477 0.0579,-0.0613 0.0443,-0.0783 0.0409,-0.0647 0.0272,-0.0443 0.0204,-0.0613 0.0238,-0.0749 -0.11238,0.0136 -0.0953,-0.0647 v -0.0375 l -0.0102,-0.10216 -0.017,-0.0749 0.11238,-0.0919 0.20772,-0.034 0.13961,0.0136 0.0341,0.0204 0.0443,-0.0919 0.0545,-0.0919 0.034,-0.0885 0.0409,-0.0749 0.0238,-0.0613 0.0102,-0.0511 0.0204,-0.0511 0.0272,-0.0613 0.0272,-0.0341 0.0545,-0.0511 -0.11577,-0.0749 -0.15665,-0.17026 -0.0477,-0.0954 -0.0443,-0.0681 -0.0136,-0.0681 6.7e-4,-0.0634 -0.13289,0.14618 -0.0764,0.0299 h -0.0764 l -0.24917,-0.0831 -0.0864,-0.0299 -0.0498,-0.01 -0.0598,0.0532 -0.0166,0.0565 -0.0664,0.10631 -0.0465,0.0598 -0.0831,0.0532 -0.0698,0.0365 -0.12624,-0.0199 -0.0598,-0.0299 -0.0783,-0.0398 -0.0328,-0.0217 0.0118,0.0907 -0.008,0.0552 -0.0552,0.0592 -0.008,0.10257 -0.0829,0.0118 -0.0473,0.0473 -0.12624,0.0513 -0.075,0.0434 -0.0789,0.008 z"
     id="path941"
     inkscape:connector-curvature="0" />
  <path
     style="fill:#71ada3;fill-opacity:1;stroke:#bc0033;stroke-width:0.05652938;stroke-opacity:0.13089007"
     d="m 3.5400756,7.4960213 -0.0127,0.13471 0.003,0.11493 v 0.0617 l 0.028,0.0645 0.0364,0.0897 0.0533,0.0841 0.0813,0.0533 0.12053,0.0505 0.12334,0.0701 0.11213,0.0589 0.12614,0.0813 0.10091,0.0841 0.0476,0.0617 0.0897,0.10652 0.0701,0.0701 0.0533,0.0617 0.0196,0.042 0.014,0.0196 0.0364,0.0364 0.0533,0.11212 0.0112,0.0477 0.0168,0.0701 0.0168,0.0561 0.0364,0.0477 0.0813,0.0224 0.14015,0.008 0.14016,-0.008 0.0841,-0.0392 0.12053,-0.0673 0.0336,-0.0504 0.0168,-0.0645 -0.0112,-0.0729 0.0388,0.0112 -0.009,-0.0324 -0.0186,-0.045 -0.009,-0.0481 -0.0232,-0.0401 -0.011,-0.0359 -0.0135,-0.0429 -0.002,-0.046 -0.01,-0.0808 -0.0217,-0.0932 0.006,-0.0765 -0.002,-0.16913 -0.0756,-0.0607 -0.11212,-0.10091 -0.0645,-0.0785 -0.0645,-0.0785 -0.0701,-0.0645 -0.0448,-0.0701 -0.0336,-0.0336 -0.0196,-0.0813 v -0.0953 -0.0841 l 0.0196,-0.12053 0.0168,-0.13455 0.0112,-0.0701 0.0673,-0.006 0.014,-0.0841 v -0.10091 l 0.002,-0.15004 -0.0443,0.13621 -0.11238,0.18729 -0.0953,0.10896 -0.0919,0.0409 -0.0681,0.0443 -0.0988,0.0477 -0.0919,0.0306 z"
     id="path943"
     inkscape:connector-curvature="0" />
  <path
     style="fill:#d5635e;fill-opacity:1;stroke:#bc0033;stroke-width:0.05652938;stroke-opacity:0.13089007"
     d="m 4.7775556,9.1752517 0.004,0.0816 v 0.1066 0.0972 l 0.0188,0.0972 0.0408,0.10033 0.10033,0.0878 0.0752,0.10033 0.0596,0.11287 0.0188,0.0752 0.0564,0.1066 0.022,0.11601 0.006,0.16303 0.009,0.12542 0.0972,0.0282 0.11287,-0.0251 0.10347,0.003 0.1066,-0.006 0.0784,-0.0627 0.022,-0.0408 0.0157,-0.0314 -0.0627,-0.0658 -0.0439,-0.0188 -0.0502,-0.0251 -0.0345,-0.0376 -0.009,-0.0721 v -0.11288 l -0.0188,-0.1128703 -0.009,-0.0972 -0.0251,-0.0596 -0.0251,-0.10347 0.0188,-0.15363 v -0.12228 -0.12228 -0.10973 l -0.0282,-0.0941 -0.0422,-0.12697 -0.0168,0.0645 -0.15417,0.11773 -0.0841,0.0392 -0.173,0.009 -0.10731,-0.009 z"
     id="path945"
     inkscape:connector-curvature="0" />
  <path
     style="fill:#6a9e61;fill-opacity:1;stroke:#bc0033;stroke-width:0.05652938;stroke-opacity:0.13089007"
     d="m 5.1887656,10.545452 -0.009,0.0627 0.009,0.0627 0.0533,0.0941 0.0596,0.047 0.0909,-0.009 h 0.13795 l 0.10974,0.006 0.10346,-0.003 h 0.12228 0.0533 l -0.006,-0.0564 -0.0157,-0.0596 -0.0188,-0.047 -0.0188,-0.0564 0.009,-0.0408 v -0.0721 l 0.0188,-0.0314 0.0251,-0.0345 -0.0282,-0.0282 -0.13482,0.006 -0.0251,0.0251 -0.0376,0.0721 -0.0784,0.0627 -0.21006,0.003 -0.11288,0.0251 z"
     id="path947"
     inkscape:connector-curvature="0" />
  <path
     style="fill:#6a9e61;fill-opacity:1;stroke:#bc0033;stroke-width:0.05652938;stroke-opacity:0.13089007"
     d="m 6.0321656,10.413762 0.0596,-0.006 0.0533,0.0188 0.0314,0.0345 0.0314,0.0564 0.0439,0.0314 0.0533,0.006 h 0.0721 l 0.0282,0.003 0.0282,0.0408 -0.0188,0.0502 -0.0345,0.0564 -0.0345,0.0251 -0.0596,0.022 -0.069,0.009 -0.0251,0.0125 -0.0282,0.0188 h -0.0533 -0.0408 l -0.047,-0.0753 -0.0408,-0.0909 -0.009,-0.0502 v -0.0345 l 0.009,-0.0533 0.0157,-0.0314 z"
     id="path949-2"
     inkscape:connector-curvature="0" />
  <path
     style="fill:#eac86e;fill-opacity:0.45026179;stroke:#bc0033;stroke-width:0.05652938;stroke-opacity:0.13089007"
     d="m 7.837556,5.8423513 0.0209,0.25876 -0.0584,0.0876 -0.0292,0.0626 -0.008,0.10017 v 0.11268 0.17946 l 0.008,0.16694 v 0.1586 0.10434 l 0.004,0.13772 -0.0292,0.071 -0.11686,0.0751 -0.1085104,0.0376 -0.0876,0.025 -0.0835,0.008 -0.0584,-0.0417 -0.12938,-0.0918 v -0.0542 l -0.008,-0.0709 v -0.0584 l -0.0125,-0.1419 -0.0334,-0.0626 -0.0501,-0.0584 -0.0668,-0.0918 -0.0751,-0.10434 -0.0626,-0.10016 -0.0835,-0.0584 -0.0835,-0.0417 h -0.0209 l -0.004,0.10017 v 0.20033 l 0.0543,0.14189 0.0459,0.10017 0.0626,0.10851 0.0167,0.0501 -0.0167,0.0417 -0.0793,0.0376 -0.12938,0.071 -0.21702,0.0167 -0.17112,0.004 -0.2671,-0.008 -0.18364,-0.0167 -0.14607,-0.0584 -0.0125,-0.15025 0.0584,-0.0167 -0.0417,-0.19616 h 0.0751 l 0.0751,0.0751 0.0709,-0.11269 -0.0292,-0.096 0.0918,-0.0709 0.0125,-0.071 0.0501,-0.0626 0.025,-0.15025 0.13773,-0.0584 0.0668,0.0793 0.0709,-0.22955 0.0793,0.0167 0.0334,0.0876 0.11268,-0.0626 0.0125,-0.16277 0.0334,-0.0918 0.0459,-0.12521 0.0668,0.0918 0.0626,0.12103 0.0835,-0.11269 0.008,-0.12938 0.0459,-0.10016 0.0542,-0.0459 0.0793,-0.0417 0.0918,-0.0167 0.13773,-0.0209 h 0.0793 l 0.0209,-0.008 -0.004,-0.11269 0.0125,-0.17111 v -0.11686 -0.0793 l 0.0376,-0.0668 0.0918,-0.16277 0.0709,0.0501 0.0501,0.0918 0.0334,0.096 -0.008,0.18364 -0.0125,0.11686 v 0.0459 l -0.008,0.10017 -0.004,0.0417 -0.004,0.0501 0.008,0.0876 0.0543,0.0417 0.0751,0.0501 z"
     id="path951"
     inkscape:connector-curvature="0" />
  <path
     style="fill:#80e5ff;fill-opacity:1;stroke:#bc0033;stroke-width:0.05652938;stroke-opacity:0.13089007"
     d="m 7.599666,6.1011113 0.004,0.0835 -0.0125,0.071 -0.0417,0.0376 -0.071,-0.0417 -0.0584,-0.0668 0.0167,-0.0501 0.0417,-0.0334 z"
     id="path953"
     inkscape:connector-curvature="0" />
  <path
     style="fill:#eac86e;fill-opacity:0.45026179;stroke:#bc0033;stroke-width:0.05652938;stroke-opacity:0.13089007"
     d="m 7.3492556,7.4282913 0.0376,-0.1419 0.0376,-0.20868 0.0417,-0.008 -0.0334,0.35058 z"
     id="path955"
     inkscape:connector-curvature="0" />
  <path
     style="fill:#659c5e;fill-opacity:1;stroke:#bc0033;stroke-width:0.05652938;stroke-opacity:0.13089007"
     d="m 7.3283856,5.5794113 0.2420704,0.004 0.0209,0.15025 -0.3672804,0.0209 0.004,-0.16694 z"
     id="path957-8"
     inkscape:connector-curvature="0" />
  <path
     style="fill:#659c5e;fill-opacity:1;stroke:#bc0033;stroke-width:0.05652938;stroke-opacity:0.13089007"
     d="m 6.9778156,5.8256513 h 0.15442 l 0.008,0.10434 -0.025,0.0668 v 0.32136 0.0668 l 0.025,0.0417 0.0125,0.0876 v 0.10017 0.0292 l -0.1586,-0.008 -0.0167,-0.18781 v -0.11686 -0.12938 l 0.008,-0.25876 z"
     id="path959-9"
     inkscape:connector-curvature="0" />
  <path
     style="fill:#659c5e;fill-opacity:1;stroke:#bc0033;stroke-width:0.05652938;stroke-opacity:0.13089007"
     d="m 7.2157056,6.6770513 0.004,0.12103 H 7.749736 l 0.0125,-0.12103 z"
     id="path961"
     inkscape:connector-curvature="0" />
  <path
     style="fill:#ff5555;fill-opacity:1;stroke:#bc0033;stroke-width:0.05652938;stroke-opacity:0.13089007"
     d="m 5.6297656,7.2404813 -0.30467,-0.14608 -0.18781,-0.14607 -0.0614,-0.19125 0.0715,-0.0579 0.0409,-0.0681 0.0102,-0.13961 0.0136,-0.0579 0.0443,-0.0919 0.0885,-0.18048 0.0409,-0.0749 0.0341,-0.11238 0.0749,-0.14642 0.13962,-0.12259 0.21247,-0.19221 0.0835,-0.0417 0.10017,-0.0918 0.10434,-0.0876 0.0876,-0.0459 h 0.0668 l 0.11268,-0.0417 0.0668,-0.0292 0.0918,-0.0167 0.0835,-0.0125 0.13356,-0.008 h 0.10016 0.12521 l 0.10016,0.0125 0.0292,0.008 0.0751,0.0459 0.0751,-0.008 0.0543,-0.096 -0.008,0.47995 -0.10017,0.008 -0.17946,0.0292 -0.18363,0.096 -0.0584,0.15859 0.004,0.0709 -0.0835,0.11269 -0.0626,-0.12104 -0.0668,-0.0918 -0.0793,0.21702 -0.0125,0.16277 -0.11269,0.0626 -0.0334,-0.0876 -0.0793,-0.0167 -0.0709,0.22955 -0.0668,-0.0793 -0.13772,0.0584 -0.025,0.15024 -0.0501,0.0626 -0.0125,0.071 -0.0918,0.0709 0.0292,0.096 -0.0709,0.11268 -0.0751,-0.0751 h -0.0751 l 0.0417,0.19615 -0.0584,0.0167 z"
     id="path963-3"
     inkscape:connector-curvature="0" />
  <path
     style="fill:#ff5555;fill-opacity:1;stroke:#bc0033;stroke-width:0.05652938;stroke-opacity:0.13089007"
     d="m 7.591326,5.7338413 0.0543,0.0417 0.0751,0.0501 0.11685,0.0167 0.0501,-0.0125 0.0543,0.004 0.0417,0.025 0.025,0.0668 0.0125,0.10434 -0.0125,0.0793 -0.004,0.0793 0.0751,-0.0376 0.0376,-0.0835 0.008,-0.1419 0.0125,-0.11686 -0.0167,-0.0876 -0.0417,-0.10017 -0.0125,-0.0167 -0.10851,-0.0209 -0.0376,-0.0876 0.0167,-0.10017 0.008,-0.0835 -0.0417,-0.0459 v -0.0918 l -0.004,-0.0417 -0.0167,-0.10851 -0.004,-0.0459 -0.0835,0.0376 -0.025,0.0459 -0.0542,0.0793 -0.0334,0.0376 -0.025,0.008 -0.0876,0.39648 z"
     id="path965-6"
     inkscape:connector-curvature="0" />
  <path
     style="fill:#aa0000;fill-opacity:0.46073303;stroke:#bc0033;stroke-width:0.05652938;stroke-opacity:0.13089007"
     d="m 5.0758456,6.7570813 -0.12259,0.0341 -0.0159,0.33504 0.0746,0.13501 0.12699,0.13276 0.0808,0.11545 0.1674,0.15008 0.11545,0.1385404 0.11545,0.0519 0.12699,0.0866 0.20203,0.0519 0.1039,0.0173 0.14431,0.0289 0.1674,-0.006 0.15008,-0.0173 0.075,-0.0462 0.13276,-0.13276 0.0289,-0.0519 0.0173,-0.1731704 -0.0173,-0.0981 0.0866,-0.0404 0.0231,-0.0808 0.0462,-0.0635 0.19626,-0.0635 0.0515,-0.0917 -0.0125,-0.20032 -0.30049,0.18363 -0.22537,0.15025 -0.22892,0.0216 h -0.45602 l -0.15394,-0.0258 -0.14607,-0.0584 -0.30467,-0.14607 -0.18781,-0.14607 z"
     id="path967-8"
     inkscape:connector-curvature="0" />
  <path
     style="fill:#aa0000;fill-opacity:0.46073303;stroke:#bc0033;stroke-width:0.05652938;stroke-opacity:0.13089007"
     d="m 4.9373356,7.1261713 0.0458,0.3255 0.0289,0.11544 0.12699,0.1674 0.21357,0.2539804 0.15586,0.15008 0.0693,0.1674 0.0808,0.19626 0.0173,0.15008 -0.0173,0.18471 -0.052,0.0577 -0.0577,0.13853 -0.17139,0.007 0.006,-0.13736 0.12537,-0.0374 0.006,-0.0924 0.0173,-0.1039 v -0.13277 l -0.0346,-0.12699 -0.0577,-0.0981 -0.13189,-0.10733 -0.46521,-0.4867804 -0.0196,-0.0813 v -0.1794 l 0.0476,-0.32516 z"
     id="path971-0"
     inkscape:connector-curvature="0" />
  <path
     style="fill:#aa0000;fill-opacity:0.46073303;stroke:#bc0033;stroke-width:0.05652938;stroke-opacity:0.13089007"
     d="m 3.8497256,8.1493117 -0.0673,0.0816 -0.0289,0.13276 -0.0346,0.19049 0.0115,0.10967 v 0.127 l 0.052,0.28284 0.0173,0.12122 0.0289,0.11545 0.10968,0.052 0.17894,-0.0635 0.2713,-0.0577 0.10967,-0.0635 0.075,-0.0173 0.16784,-0.0327 -0.0449,-0.17379 -0.0897,-0.14857 -0.15698,-0.19341 -0.13735,-0.16819 -0.22705,-0.16538 z"
     id="path973-2"
     inkscape:connector-curvature="0" />
  <path
     style="fill:#e9c774;fill-opacity:0.6701571;stroke:#bc0033;stroke-width:0.05652938;stroke-opacity:0.13089007"
     d="m 6.9053056,7.3246713 0.0577,0.10968 0.13853,0.075 0.0231,0.17317 0.0519,0.1269904 v 0.19626 0.11545 l 0.052,0.15585 0.0231,0.13276 0.0289,0.10968 v 0.16739 0.0693 0.12699 0.0693 0.0866 l 0.4213804,-0.0115 0.0866,-0.0808 0.0924,0.0115 0.0981,0.0173 0.0693,0.0693 0.0173,0.0577 0.0519,0.0346 0.0693,0.0173 0.0404,0.0577 v 0.13853 l -0.052,0.0519 0.006,0.13277 0.006,0.12699 0.0289,0.0693 v 0.15008 0.1385303 l 0.0173,0.10968 0.0693,0.12699 0.0173,0.15008 -0.0519,0.19049 -0.0693,0.15008 -0.0635,0.0923 -0.0346,0.13854 -0.0693,0.13853 -0.0462,0.11545 -0.0981,0.0981 -0.0808,-0.15008 -0.0577,-0.11545 -0.0289,-0.0866 v -0.12699 -0.0924 l 0.0462,-0.0924 0.0866,-0.075 0.0693,-0.0173 0.0981,-0.10968 v -0.1039 l -0.0231,-0.12122 0.006,-0.0635 v -0.1789403 -0.13276 l -0.006,-0.19049 -0.0462,-0.10967 -0.0346,-0.15008 -0.0462,-0.0808 -0.11544,-0.0808 -0.0231,0.1039 -0.12122,0.10968 -0.075,0.0404 -0.0635,0.0289 h -0.0462 l -0.0462,0.006 -0.0693,0.0289 h -0.17894 l -0.0289,0.10968 0.0635,0.1674 0.0635,0.1616203 0.0924,0.22512 0.0404,0.12122 0.0519,0.15585 0.0173,0.0346 0.006,0.13853 -0.0404,0.0693 -0.0981,0.12122 -0.0115,0.0981 -0.0231,0.15585 0.006,0.0808 v 0.11545 l -0.075,0.0404 -0.13854,-0.15008 -0.0808,-0.13277 v -0.0981 -0.052 l 0.13276,-0.0808 v -0.12699 l 0.006,-0.15585 -0.0462,-0.0289 -0.0462,-0.052 0.006,-0.13276 v -0.12699 l 0.0346,-0.13854 -0.0693,-0.2020303 -0.075,-0.15585 -0.0577,-0.12122 -0.0404,-0.0289 -0.0635,0.0981 -0.21357,0.0289 -0.20781,0.0462 -0.15585,0.0346 -0.0924,0.0577 h -0.15008 l -0.0635,0.0231 h -0.0751 l -0.006,0.0115 0.0866,0.1904903 0.0866,0.2078 0.0678,0.13366 -0.0345,0.0439 -0.0251,0.11915 0.009,0.0502 0.0408,0.0909 0.047,0.0752 h 0.0941 l 0.008,0.12193 -0.19049,0.0173 -0.0624,-0.1267 -0.022,-0.11601 -0.0376,-0.10346 0.009,-0.11287 0.0439,-0.0659 -0.0583,-0.0985 -0.0635,-0.1039 -0.0231,-0.0924 -0.0635,-0.1558503 -0.0404,-0.0866 -0.0346,-0.0577 -0.052,-0.0981 v 0 l -0.0404,-0.0981 -0.0726,-0.0647 0.009,-0.10266 -0.0115,-0.0808 v -0.1039 l 0.002,-0.0669 v 0 l -0.002,-0.11779 0.0866,-0.0462 0.0577,-0.13854 v 0 l 0.052,-0.0577 0.0173,-0.18472 -0.0173,-0.15008 -0.052,-0.1674 -0.0981,-0.19625 -0.0577,-0.0577 -0.20203,-0.22512 -0.15008,-0.1731704 -0.0866,-0.11545 -0.052,-0.26552 -0.0227,-0.17542 0.0747,0.13501 0.2078,0.24821 0.1674,0.15008 0.11545,0.1385404 0.24244,0.13853 0.20203,0.0519 0.24821,0.0462 0.1674,-0.006 0.15008,-0.0173 0.075,-0.0462 0.13276,-0.13276 0.0462,-0.1558504 -0.0173,-0.1674 0.0866,-0.0404 0.0231,-0.0808 z"
     id="path977"
     inkscape:connector-curvature="0" />
  <path
     style="fill:#e9c774;fill-opacity:0.6701571;stroke:#bc0033;stroke-width:0.05652938;stroke-opacity:0.13089007"
     d="m 5.3072356,8.2044117 -0.003,0.24566 0.0217,0.0932 0.0124,0.1268 0.0478,0.11884 0.0273,0.0931 0.0953,-0.0161 0.006,-0.0924 0.0173,-0.1039 v -0.13277 l -0.0346,-0.12699 -0.0577,-0.0981 z"
     id="path979-1"
     inkscape:connector-curvature="0" />
  <path
     style="fill:#e9c774;fill-opacity:0.6701571;stroke:#bc0033;stroke-width:0.05652938;stroke-opacity:0.13089007"
     d="m 3.5946456,7.9906517 -0.1923,0.0633 -0.0948,0.0219 -0.0802,0.0364 -0.1822,0.0583 -0.11661,0.007 -0.18949,0.0729 -0.0364,0.0292 -0.3061,0.10932 -0.13847,0.0729 -0.13119,0.13119 -0.18949,0.18949 -0.0656,0.19678 -0.0875,0.23322 0.007,0.2405 0.0219,0.26966 0.10204,0.26237 0.13118,0.1822103 0.17492,0.16762 0.10932,0.0947 0.16034,0.14576 0.13118,0.10932 0.13847,0.1239 0.0729,0.0802 0.19678,0.13847 -0.007,0.0875 -0.0729,0.21135 -0.0729,0.10932 -0.0583,0.0875 -0.0948,0.0656 0.007,0.0875 0.10932,0.0364 0.0875,0.051 0.15305,0.13847 0.18221,0.0219 0.0875,0.0802 0.14576,0.18221 0.1822,0.21135 0.10932,0.18949 0.0948,0.14576 0.0947,-0.051 0.2478,0.2405 0.0292,0.0802 0.17491,-0.0219 0.10203,-0.0583 0.0802,-0.0364 0.0437,-0.0656 -0.0437,-0.0437 -0.16762,-0.0364 -0.0948,-0.13118 -0.0729,-0.13119 -0.1822,-0.0583 -0.21136,-0.2478 -0.17491,-0.16763 -0.16763,-0.17491 -0.0948,-0.0583 -0.0292,-0.10933 0.0437,-0.15305 0.0292,-0.13847 0.0729,-0.0802 0.1239,-0.21135 0.0948,-0.16034 0.1239,-0.18949 0.0656,-0.15305 0.0802,-0.14576 0.0656,-0.0875 0.0802,-0.0583 0.13118,-0.0364 h 0.11661 0.11661 0.0948 l 0.16763,-0.007 0.21135,0.0219 0.13821,-0.005 -0.0784,-0.22261 -0.0784,-0.1881203 -0.17558,-0.18812 -0.0408,-0.10033 -0.0224,-0.38257 -0.0364,-0.0477 -0.24288,0.05 -0.38097,0.12122 -0.17894,0.0635 -0.10968,-0.052 -0.0289,-0.11544 -0.0768,-0.29549 0.008,-0.10858 -0.0115,-0.23666 0.004,-0.10662 0.0146,-0.11661 0.0449,-0.10002 0.0673,-0.0816 z"
     id="path981-0"
     inkscape:connector-curvature="0" />
  <path
     style="fill:#e9c774;fill-opacity:0.6701571;stroke:#bc0033;stroke-width:0.05652938;stroke-opacity:0.13089007"
     d="m 5.1730856,10.257002 -0.15278,0.15834 -0.0729,0.13847 -0.0364,0.0875 -0.0948,0.16034 -0.11661,0.0875 -0.1239,0.0656 -0.15305,0.1239 -0.0146,0.16762 0.0146,0.13119 0.0146,0.0729 0.0802,0.0802 0.13119,0.0802 0.20406,0.1822 0.17492,0.11661 0.10932,0.0802 0.0875,0.0729 0.0364,0.10203 0.051,0.0729 0.0292,0.051 0.0729,0.0219 0.10203,0.0364 0.1239,0.007 0.051,0.051 -0.0656,0.0729 -0.0437,0.051 -0.11661,0.0219 h -0.10204 l -0.11661,0.007 -0.0729,-0.0802 -0.13118,-0.0292 -0.0729,-0.051 -0.0947,-0.10932 -0.007,-0.11661 -0.13848,-0.0875 -0.21135,-0.15305 -0.17492,-0.14576 -0.15305,-0.0875 -0.1822,-0.0656 -0.0292,-0.0947 -0.0292,-0.14577 -0.0146,-0.0947 0.051,-0.17491 0.0364,-0.0729 0.0219,-0.0802 -0.0729,-0.13119 -0.0656,-0.10932 0.0656,-0.15305 0.0802,-0.14576 0.14576,-0.14576 0.13119,-0.0364 0.49559,-0.007 0.21135,0.0219 z"
     id="path983-5"
     inkscape:connector-curvature="0" />
  <path
     style="fill:#443f39;fill-opacity:1;stroke:#bc0033;stroke-width:0.05652938;stroke-opacity:0.13089007"
     d="m 4.2259056,12.922442 0.0292,0.0802 -0.0583,0.1239 0.0364,0.10203 0.1822,0.0219 h 0.14576 0.13119 l 0.13118,-0.0146 0.14577,0.007 0.007,-0.0802 v -0.0875 l -0.15305,-0.0875 -0.0875,-0.0948 -0.0802,-0.0729 -0.0437,0.0656 -0.0802,0.0364 -0.10204,0.0583 -0.17491,0.0219 z"
     id="path985-1"
     inkscape:connector-curvature="0" />
  <path
     style="fill:#443f39;fill-opacity:1;stroke:#bc0033;stroke-width:0.05652938;stroke-opacity:0.13089007"
     d="m 5.7162556,12.426302 0.0113,0.0242 0.0291,0.0226 0.0388,0.0259 0.0194,0.0226 0.0517,0.042 0.0194,0.0307 0.0291,0.0372 0.0436,0.0614 0.0259,0.0388 0.0162,0.0534 0.0178,0.0323 0.0178,0.0372 -0.005,0.042 -0.0824,0.0178 -0.0695,-0.0113 -0.17783,-0.006 -0.0695,-0.0291 -0.0825,-0.0226 -0.1164,-0.0243 -0.0663,-0.0113 -0.0566,-0.0275 -0.0307,-0.0307 -0.0194,-0.0501 -0.005,-0.0679 -0.009,-0.0752 0.21864,-0.007 0.11661,-0.0219 0.10932,-0.1239 z"
     id="path987-1"
     inkscape:connector-curvature="0" />
  <path
     style="fill:#443f39;fill-opacity:1;stroke:#bc0033;stroke-width:0.05652938;stroke-opacity:0.13089007"
     d="m 6.9745756,10.932382 -0.0606,0.0267 -0.0558,0.0558 -0.0478,0.0638 -0.0133,0.0744 v 0.10099 l 0.016,0.0904 v 0.0638 l 0.0372,0.0877 0.0425,0.0771 0.0797,0.0983 0.0558,0.0771 0.0478,0.0319 0.0266,-0.0691 0.0452,-0.0718 0.0186,-0.0585 0.003,-0.093 0.0399,-0.0292 -0.0151,-0.0934 -0.13854,-0.15008 -0.0808,-0.13276 z"
     id="path989"
     inkscape:connector-curvature="0" />
  <path
     style="fill:#443f39;fill-opacity:1;stroke:#bc0033;stroke-width:0.05652938;stroke-opacity:0.13089007"
     d="m 7.921236,10.574502 -0.0185,0.0736 0.0133,0.0877 0.0186,0.11428 0.008,0.0346 0.0425,0.0452 0.0213,0.0292 0.0319,0.0399 0.0106,0.0213 v 0.0478 l -0.018,0.049 -0.0462,0.11545 -0.0981,0.0981 -0.17537,-0.27769 0.008,-0.29377 0.0462,-0.0924 0.0866,-0.075 z"
     id="path991-0"
     inkscape:connector-curvature="0" />
  <path
     style="fill:#443f39;fill-opacity:1;stroke:#bc0033;stroke-width:0.05652938;stroke-opacity:0.13089007"
     d="m 1.9374456,8.7828117 -0.1664,0.12724 -0.10727,0.13706 -0.0834,0.24433 -0.0179,0.22645 0.006,0.31584 0.0536,0.2622003 0.13111,0.31584 0.0715,0.33967 0.0179,0.24433 0.0775,0.33372 0.0834,0.30392 0.11918,0.23241 v 0.2324 l -0.0477,0.10131 -0.0119,0.14898 v 0.21453 l 0.0477,0.1311 0.0536,-0.28008 0.0357,-0.17877 0.10131,-0.21454 -0.006,0.25625 0.0715,0.19665 0.12514,0.20858 -0.0656,-0.57209 0.0834,0.22049 0.0238,0.28605 0.0477,0.16089 0.0655,0.0298 0.0954,0.006 0.0656,-0.006 0.0179,-0.17282 v -0.14302 l 0.0238,-0.11322 0.0417,-0.20858 -0.0298,-0.14898 -0.0238,-0.11322 -0.0119,-0.11323 -0.094,-0.11812 -0.007,-0.0875 0.0947,-0.0656 0.0482,-0.14597 -0.006,-0.15494 -0.0477,-0.10726 -0.0298,-0.11323 -0.0358,-0.1311 0.0127,-0.0617 -0.13183,-0.0932 -0.22645,-0.20261 -0.23837,-0.21453 -0.11758,-0.131 -0.13119,-0.1822103 -0.10203,-0.26237 -0.0292,-0.51016 z"
     id="path995"
     inkscape:connector-curvature="0" />
  <path
     style="fill:#3c3833;fill-opacity:1;stroke:#bc0033;stroke-width:0.00307304;stroke-opacity:0.13089007"
     d="m 4.0584356,4.1850913 c -0.008,-0.002 -0.02,-0.006 -0.0276,-0.008 l -0.0138,-0.004 0.0438,-0.0166 c 0.0417,-0.0158 0.0452,-0.0166 0.0721,-0.0165 0.0351,1.4e-4 0.0634,0.006 0.0756,0.0156 0.005,0.004 0.009,0.008 0.01,0.009 9e-5,8.5e-4 -0.007,0.006 -0.0151,0.012 l -0.0153,0.0104 -0.0577,0.001 c -0.0439,8.3e-4 -0.061,5e-5 -0.0715,-0.003 z"
     id="path997"
     inkscape:connector-curvature="0" />
  <path
     style="fill:#3c3833;fill-opacity:1;stroke:#bc0033;stroke-width:0.00307304;stroke-opacity:0.13089007"
     d="m 4.4548656,4.1867213 c -0.013,-0.002 -0.0585,-0.0261 -0.0583,-0.0306 6e-5,-10e-4 0.01,-0.008 0.0217,-0.0154 0.0208,-0.013 0.0226,-0.0135 0.0544,-0.0157 0.0289,-0.002 0.0374,-0.001 0.0698,0.005 0.0203,0.004 0.038,0.009 0.0393,0.01 0.001,0.001 1.7e-4,0.007 -0.003,0.0128 -0.004,0.008 -0.01,0.0131 -0.0282,0.0221 -0.0208,0.0103 -0.0259,0.0115 -0.0527,0.0126 -0.0163,6.5e-4 -0.0358,1.3e-4 -0.0434,-0.001 z"
     id="path999"
     inkscape:connector-curvature="0" />
  <path
     style="fill:#3c3833;fill-opacity:1;stroke:#bc0033;stroke-width:0.00307304;stroke-opacity:0.13089007"
     d="m 4.1701056,4.5743813 0.0241,-10e-4 0.0351,-0.0286 c 0.0258,-0.021 0.041,-0.0309 0.0573,-0.0375 0.0216,-0.009 0.0242,-0.009 0.0861,-0.01 l 0.0638,-0.001 0.013,0.0105 c 0.0172,0.0139 0.0794,0.0565 0.0852,0.0584 0.002,8.3e-4 -0.032,0.002 -0.0768,0.004 -0.0448,10e-4 -0.11946,0.003 -0.16594,0.005 -0.0465,0.002 -0.0983,0.003 -0.11524,0.002 -0.0297,-5.5e-4 -0.0299,-6e-4 -0.007,-0.002 z"
     id="path1001"
     inkscape:connector-curvature="0" />
  <path
     style="fill:#00aad4;fill-opacity:1;stroke:#000000;stroke-width:0.0302867;stroke-opacity:0.02617804"
     d="m 7.677906,3.4217313 0.15471,0.005 -0.035,-1.19981 -0.12496,-0.16592 -0.0251,0.0742 z"
     id="path825-850"
     inkscape:connector-curvature="0" />
  <path
     style="fill:#006680;fill-opacity:1;stroke:#000000;stroke-width:0.0302867;stroke-opacity:0.02617804"
     d="m 7.677906,3.4217313 -0.1267804,-0.0106 -0.0264,-1.22582 0.0601,-0.0619 0.0879,-0.0624 0.006,0.16346 -0.001,1.19735"
     id="path827-64"
     inkscape:connector-curvature="0" />
  <path
     style="fill:#c8ab37;fill-opacity:1;stroke:#000000;stroke-width:0.0302867;stroke-opacity:0.02617804"
     d="m 7.2837756,3.6503413 -0.10235,-0.10892 0.0766,-0.10053 0.2931,-0.0298 0.1267804,0.0106 0.15471,0.005 0.28838,0.0291 0.11602,0.10801 -0.12194,0.10229 -0.26166,-0.027 -0.3224304,10e-4 z"
     id="path829-62"
     inkscape:connector-curvature="0" />
  <ellipse
     style="fill:#c8ab37;fill-opacity:1;stroke:#000000;stroke-width:0.03042248;stroke-opacity:0.02617804"
     id="path833-58"
     cx="3.5221779"
     cy="-7.6262178"
     rx="0.14041491"
     ry="0.11934178"
     transform="matrix(0.86501295,-0.50174953,-0.61247035,-0.79049356,0,0)" />
  <path
     style="fill:#d40000;fill-opacity:1;stroke:#000000;stroke-width:0.0302867;stroke-opacity:0.02617804"
     d="m 7.839296,4.1891713 -0.0176,-0.54935 -0.2789604,-0.003 0.0308,0.65182 0.0191,-0.0716 0.0599,-0.0474 0.0655,-0.025 0.0645,0.006 z"
     id="path835-62"
     inkscape:connector-curvature="0" />
</svg>
